<svg width="24" height="90" viewBox="0 0 24 90" fill="none" xmlns="http://www.w3.org/2000/svg">
<g clip-path="url(#clip0_161_93)">
<rect width="4.5" height="4.5" transform="matrix(-0.707107 -0.707107 -0.707107 0.707107 21.635 9.99719)" fill="#787DF3"/>
<rect width="4.5" height="4.5" transform="matrix(-0.707107 -0.707107 -0.707107 0.707107 18.4519 6.81396)" fill="#787DF3"/>
<rect width="4.5" height="4.5" transform="matrix(-0.707107 -0.707107 -0.707107 0.707107 15.2771 3.63074)" fill="#787DF3"/>
<rect width="4.5" height="4.5" transform="matrix(-0.707107 -0.707107 -0.707107 0.707107 18.4519 13.1847)" fill="#787DF3"/>
<rect width="4.5" height="4.5" transform="matrix(-0.707107 -0.707107 -0.707107 0.707107 21.6309 16.3594)" fill="#787DF3"/>
<rect width="4.5" height="4.5" transform="matrix(-0.707107 -0.707107 -0.707107 0.707107 18.4519 19.5128)" fill="#710697"/>
<rect width="4.5" height="4.5" transform="matrix(-0.707107 -0.707107 -0.707107 0.707107 15.2771 22.6875)" fill="#710697"/>
<rect width="4.5" height="4.5" transform="matrix(-0.707107 -0.707107 -0.707107 0.707107 12.0896 19.5128)" fill="#710697"/>
<rect width="4.5" height="4.5" transform="matrix(-0.707107 -0.707107 -0.707107 0.707107 18.4519 25.875)" fill="#3D4286"/>
<rect width="4.5" height="4.5" transform="matrix(-0.707107 -0.707107 -0.707107 0.707107 15.2771 29.0583)" fill="#3D4286"/>
<rect width="4.5" height="4.5" transform="matrix(-0.707107 -0.707107 -0.707107 0.707107 15.2771 35.4205)" fill="#3D4286"/>
<rect width="4.5" height="4.5" transform="matrix(-0.707107 -0.707107 -0.707107 0.707107 15.2771 41.7827)" fill="#3D4286"/>
<rect width="4.5" height="4.5" transform="matrix(-0.707107 -0.707107 -0.707107 0.707107 15.2771 48.1449)" fill="#090F4B"/>
<rect width="4.5" height="4.5" transform="matrix(-0.707107 -0.707107 -0.707107 0.707107 15.2771 54.5455)" fill="#090F4B"/>
<rect width="4.5" height="4.5" transform="matrix(-0.707107 -0.707107 -0.707107 0.707107 15.2771 60.9077)" fill="#090F4B"/>
<rect opacity="0.5" width="4.5" height="4.5" transform="matrix(-0.707107 -0.707107 -0.707107 0.707107 15.2771 67.2699)" fill="#090F4B"/>
<rect opacity="0.5" width="4.5" height="4.5" transform="matrix(-0.707107 -0.707107 -0.707107 0.707107 15.2771 73.598)" fill="#090F4B"/>
<rect opacity="0.5" width="4.5" height="4.5" transform="matrix(-0.707107 -0.707107 -0.707107 0.707107 15.2771 80.0029)" fill="#090F4B"/>
<rect opacity="0.5" width="4.5" height="4.5" transform="matrix(-0.707107 -0.707107 -0.707107 0.707107 15.2771 86.3693)" fill="#090F4B"/>
<rect width="4.5" height="4.5" transform="matrix(-0.707107 -0.707107 -0.707107 0.707107 12.0896 25.875)" fill="#3D4286"/>
<rect width="4.5" height="4.5" transform="matrix(-0.707107 -0.707107 -0.707107 0.707107 15.2771 9.99719)" fill="#BBEEFF"/>
<rect width="4.5" height="4.5" transform="matrix(-0.707107 -0.707107 -0.707107 0.707107 12.0896 6.81396)" fill="#787DF3"/>
<rect width="4.5" height="4.5" transform="matrix(-0.707107 -0.707107 -0.707107 0.707107 8.90625 3.63074)" fill="#787DF3"/>
<rect width="4.5" height="4.5" transform="matrix(-0.707107 -0.707107 -0.707107 0.707107 15.2771 16.3594)" fill="#787DF3"/>
<rect width="4.5" height="4.5" transform="matrix(-0.707107 -0.707107 -0.707107 0.707107 12.0896 13.1847)" fill="#787DF3"/>
<rect width="4.5" height="4.5" transform="matrix(-0.707107 -0.707107 -0.707107 0.707107 8.90625 16.3594)" fill="#787DF3"/>
<rect width="4.5" height="4.5" transform="matrix(-0.707107 -0.707107 -0.707107 0.707107 21.6309 3.63074)" fill="#787DF3"/>
<rect width="4.5" height="4.5" transform="matrix(-0.707107 -0.707107 -0.707107 0.707107 8.90625 9.99719)" fill="#787DF3"/>
</g>
<defs>
<clipPath id="clip0_161_93">
<rect width="24" height="90" fill="white"/>
</clipPath>
</defs>
</svg>
