<svg width="128" height="128" viewBox="0 0 128 128" fill="none" xmlns="http://www.w3.org/2000/svg">
<rect width="8" height="8" transform="matrix(4.37114e-08 -1 -1 -4.37114e-08 120 32)" fill="#787DF3"/>
<rect width="8" height="8" transform="matrix(4.37114e-08 -1 -1 -4.37114e-08 120 24)" fill="#787DF3"/>
<rect width="8" height="8" transform="matrix(4.37114e-08 -1 -1 -4.37114e-08 120 16)" fill="#787DF3"/>
<rect width="8" height="8" transform="matrix(4.37114e-08 -1 -1 -4.37114e-08 112 32)" fill="#787DF3"/>
<rect width="8" height="8" transform="matrix(4.37114e-08 -1 -1 -4.37114e-08 112 40)" fill="#787DF3"/>
<rect width="8" height="8" transform="matrix(4.37114e-08 -1 -1 -4.37114e-08 104.042 39.9585)" fill="#710697"/>
<rect width="8" height="8" transform="matrix(4.37114e-08 -1 -1 -4.37114e-08 96.042 39.9585)" fill="#710697"/>
<rect width="8" height="8" transform="matrix(4.37114e-08 -1 -1 -4.37114e-08 96.042 31.9585)" fill="#710697"/>
<rect width="8" height="8" transform="matrix(4.37114e-08 -1 -1 -4.37114e-08 96.042 47.9585)" fill="#3D4286"/>
<rect width="8" height="8" transform="matrix(4.37114e-08 -1 -1 -4.37114e-08 88.042 47.9585)" fill="#3D4286"/>
<rect width="8" height="8" transform="matrix(4.37114e-08 -1 -1 -4.37114e-08 80.042 55.9585)" fill="#3D4286"/>
<rect width="8" height="8" transform="matrix(4.37114e-08 -1 -1 -4.37114e-08 72.042 63.9584)" fill="#3D4286"/>
<rect width="8" height="8" transform="matrix(4.37114e-08 -1 -1 -4.37114e-08 64.042 71.9584)" fill="#3D4286"/>
<rect width="8" height="8" transform="matrix(4.37114e-08 -1 -1 -4.37114e-08 56 80.0001)" fill="#090F4B"/>
<rect width="8" height="8" transform="matrix(4.37114e-08 -1 -1 -4.37114e-08 48 88)" fill="#090F4B"/>
<rect width="8" height="8" transform="matrix(4.37114e-08 -1 -1 -4.37114e-08 40 96)" fill="#090F4B"/>
<rect opacity="0.5" width="8" height="8" transform="matrix(4.37114e-08 -1 -1 -4.37114e-08 32.041 103.958)" fill="#090F4B"/>
<rect opacity="0.5" width="8" height="8" transform="matrix(4.37114e-08 -1 -1 -4.37114e-08 24 112)" fill="#090F4B"/>
<rect opacity="0.5" width="8" height="8" transform="matrix(4.37114e-08 -1 -1 -4.37114e-08 16 120)" fill="#090F4B"/>
<rect opacity="0.5" width="8" height="8" transform="matrix(4.37114e-08 -1 -1 -4.37114e-08 8 128)" fill="#090F4B"/>
<rect width="8" height="8" transform="matrix(4.37114e-08 -1 -1 -4.37114e-08 88.042 39.9585)" fill="#3D4286"/>
<rect width="8" height="8" transform="matrix(4.37114e-08 -1 -1 -4.37114e-08 112 24)" fill="#BBEEFF"/>
<rect width="8" height="8" transform="matrix(4.37114e-08 -1 -1 -4.37114e-08 112 16)" fill="#787DF3"/>
<rect width="8" height="8" transform="matrix(4.37114e-08 -1 -1 -4.37114e-08 112 8)" fill="#787DF3"/>
<rect width="8" height="8" transform="matrix(4.37114e-08 -1 -1 -4.37114e-08 104 32)" fill="#787DF3"/>
<rect width="8" height="8" transform="matrix(4.37114e-08 -1 -1 -4.37114e-08 104 24)" fill="#787DF3"/>
<rect width="8" height="8" transform="matrix(4.37114e-08 -1 -1 -4.37114e-08 96 24)" fill="#787DF3"/>
<rect width="8" height="8" transform="matrix(4.37114e-08 -1 -1 -4.37114e-08 128 24)" fill="#787DF3"/>
<rect width="8" height="8" transform="matrix(4.37114e-08 -1 -1 -4.37114e-08 104 16)" fill="#787DF3"/>
</svg>
