<svg width="128" height="128" viewBox="0 0 128 128" fill="none" xmlns="http://www.w3.org/2000/svg">
<rect x="120" y="96" width="8" height="8" transform="rotate(90 120 96)" fill="#787DF3"/>
<rect x="120" y="104" width="8" height="8" transform="rotate(90 120 104)" fill="#787DF3"/>
<rect x="120" y="112" width="8" height="8" transform="rotate(90 120 112)" fill="#787DF3"/>
<rect x="112" y="96" width="8" height="8" transform="rotate(90 112 96)" fill="#787DF3"/>
<rect x="112" y="88" width="8" height="8" transform="rotate(90 112 88)" fill="#787DF3"/>
<rect x="104.042" y="88.0415" width="8" height="8" transform="rotate(90 104.042 88.0415)" fill="#710697"/>
<rect x="96.042" y="88.0415" width="8" height="8" transform="rotate(90 96.042 88.0415)" fill="#710697"/>
<rect x="96.042" y="96.0415" width="8" height="8" transform="rotate(90 96.042 96.0415)" fill="#710697"/>
<rect x="96.042" y="80.0415" width="8" height="8" transform="rotate(90 96.042 80.0415)" fill="#3D4286"/>
<rect x="88.042" y="80.0415" width="8" height="8" transform="rotate(90 88.042 80.0415)" fill="#3D4286"/>
<rect x="80.042" y="72.0415" width="8" height="8" transform="rotate(90 80.042 72.0415)" fill="#3D4286"/>
<rect x="72.042" y="64.0416" width="8" height="8" transform="rotate(90 72.042 64.0416)" fill="#3D4286"/>
<rect x="64.042" y="56.0416" width="8" height="8" transform="rotate(90 64.042 56.0416)" fill="#3D4286"/>
<rect x="56" y="47.9999" width="8" height="8" transform="rotate(90 56 47.9999)" fill="#090F4B"/>
<rect x="48" y="40" width="8" height="8" transform="rotate(90 48 40)" fill="#090F4B"/>
<rect x="40" y="32" width="8" height="8" transform="rotate(90 40 32)" fill="#090F4B"/>
<rect opacity="0.5" x="32.041" y="24.0417" width="8" height="8" transform="rotate(90 32.041 24.0417)" fill="#090F4B"/>
<rect opacity="0.5" x="24" y="16" width="8" height="8" transform="rotate(90 24 16)" fill="#090F4B"/>
<rect opacity="0.5" x="16" y="8.00024" width="8" height="8" transform="rotate(90 16 8.00024)" fill="#090F4B"/>
<rect opacity="0.5" x="8" width="8" height="8" transform="rotate(90 8 0)" fill="#090F4B"/>
<rect x="88.042" y="88.0415" width="8" height="8" transform="rotate(90 88.042 88.0415)" fill="#3D4286"/>
<rect x="112" y="104" width="8" height="8" transform="rotate(90 112 104)" fill="#BBEEFF"/>
<rect x="112" y="112" width="8" height="8" transform="rotate(90 112 112)" fill="#787DF3"/>
<rect x="112" y="120" width="8" height="8" transform="rotate(90 112 120)" fill="#787DF3"/>
<rect x="104" y="96" width="8" height="8" transform="rotate(90 104 96)" fill="#787DF3"/>
<rect x="104" y="104" width="8" height="8" transform="rotate(90 104 104)" fill="#787DF3"/>
<rect x="96" y="104" width="8" height="8" transform="rotate(90 96 104)" fill="#787DF3"/>
<rect x="128" y="104" width="8" height="8" transform="rotate(90 128 104)" fill="#787DF3"/>
<rect x="104" y="112" width="8" height="8" transform="rotate(90 104 112)" fill="#787DF3"/>
</svg>
