<svg width="241" height="392" viewBox="0 0 241 392" fill="none" xmlns="http://www.w3.org/2000/svg">
<rect x="240.002" y="261.332" width="21.7778" height="21.8182" transform="rotate(90 240.002 261.332)" fill="#360348"/>
<rect x="218.185" y="283.111" width="21.7778" height="21.8182" transform="rotate(90 218.185 283.111)" fill="#360348"/>
<rect x="218.185" y="261.332" width="21.7778" height="21.8182" transform="rotate(90 218.185 261.332)" fill="#360348"/>
<rect x="196.365" y="261.332" width="21.7778" height="21.8182" transform="rotate(90 196.365 261.332)" fill="#360348"/>
<rect opacity="0.5" x="218.185" y="239.556" width="21.7778" height="21.8182" transform="rotate(90 218.185 239.556)" fill="#360348"/>
<rect x="196.365" y="217.78" width="21.7778" height="21.8182" transform="rotate(90 196.365 217.78)" fill="#360348"/>
<rect opacity="0.5" x="65.4548" y="108.888" width="21.7778" height="21.8182" transform="rotate(90 65.4548 108.888)" fill="#360348"/>
<rect x="65.4548" y="130.668" width="21.7778" height="21.8182" transform="rotate(90 65.4548 130.668)" fill="#360348"/>
<rect x="21.8181" y="108.888" width="21.7778" height="21.8182" transform="rotate(90 21.8181 108.888)" fill="#360348"/>
<rect x="43.6384" y="108.888" width="21.7778" height="21.8182" transform="rotate(90 43.6384 108.888)" fill="#360348"/>
<rect x="43.6384" y="87.1118" width="21.7778" height="21.8182" transform="rotate(90 43.6384 87.1118)" fill="#360348"/>
<rect x="109.092" y="174.224" width="21.7778" height="21.8182" transform="rotate(90 109.092 174.224)" fill="#360348"/>
<rect opacity="0.5" x="65.4548" y="152.444" width="21.7778" height="21.8182" transform="rotate(90 65.4548 152.444)" fill="#360348"/>
<rect x="43.6384" y="217.78" width="21.7778" height="21.8182" transform="rotate(90 43.6384 217.78)" fill="#360348"/>
<rect opacity="0.5" x="109.092" y="196" width="21.7778" height="21.8182" transform="rotate(90 109.092 196)" fill="#360348"/>
<rect x="87.2751" y="174.224" width="21.7778" height="21.8182" transform="rotate(90 87.2751 174.224)" fill="#360348"/>
<rect x="65.4548" y="174.224" width="21.7778" height="21.8182" transform="rotate(90 65.4548 174.224)" fill="#360348"/>
<rect x="87.2751" y="152.444" width="21.7778" height="21.8182" transform="rotate(90 87.2751 152.444)" fill="#360348"/>
<rect x="65.4548" y="196" width="21.7778" height="21.8182" transform="rotate(90 65.4548 196)" fill="#360348"/>
<rect x="109.092" y="130.668" width="21.7778" height="21.8182" transform="rotate(90 109.092 130.668)" fill="#360348"/>
<rect x="130.912" y="87.1118" width="21.7778" height="21.8182" transform="rotate(90 130.912 87.1118)" fill="#360348"/>
<rect x="130.912" y="43.5559" width="21.7778" height="21.8182" transform="rotate(90 130.912 43.5559)" fill="#360348"/>
<rect x="152.728" y="21.776" width="21.7778" height="21.8182" transform="rotate(90 152.728 21.776)" fill="#360348"/>
<rect opacity="0.5" x="130.912" y="65.3319" width="21.7778" height="21.8182" transform="rotate(90 130.912 65.3319)" fill="#360348"/>
<rect x="109.092" y="43.5559" width="21.7778" height="21.8182" transform="rotate(90 109.092 43.5559)" fill="#360348"/>
<rect opacity="0.5" x="130.912" y="108.888" width="21.7778" height="21.8182" transform="rotate(90 130.912 108.888)" fill="#360348"/>
<rect x="109.092" y="87.1118" width="21.7778" height="21.8182" transform="rotate(90 109.092 87.1118)" fill="#360348"/>
<rect opacity="0.5" x="87.2751" y="87.1118" width="21.7778" height="21.8182" transform="rotate(90 87.2751 87.1118)" fill="#360348"/>
<rect x="109.092" y="65.3319" width="21.7778" height="21.8182" transform="rotate(90 109.092 65.3319)" fill="#360348"/>
<rect x="87.2751" y="21.776" width="21.7778" height="21.8182" transform="rotate(90 87.2751 21.776)" fill="#360348"/>
<rect x="65.4548" width="21.7778" height="21.8182" transform="rotate(90 65.4548 0)" fill="#360348"/>
<rect x="87.2751" y="43.5559" width="21.7778" height="21.8182" transform="rotate(90 87.2751 43.5559)" fill="#360348"/>
<rect x="196.365" y="326.667" width="21.7778" height="21.8182" transform="rotate(90 196.365 326.667)" fill="#360348"/>
<rect x="196.365" y="348.443" width="21.7778" height="21.8182" transform="rotate(90 196.365 348.443)" fill="#360348"/>
<rect x="174.549" y="326.667" width="21.7778" height="21.8182" transform="rotate(90 174.549 326.667)" fill="#360348"/>
<rect x="152.728" y="370.223" width="21.7778" height="21.8182" transform="rotate(90 152.728 370.223)" fill="#360348"/>
<rect x="152.728" y="326.667" width="21.7778" height="21.8182" transform="rotate(90 152.728 326.667)" fill="#360348"/>
<rect x="130.912" y="348.443" width="21.7778" height="21.8182" transform="rotate(90 130.912 348.443)" fill="#360348"/>
<rect x="196.365" y="174.224" width="21.7778" height="21.8182" transform="rotate(90 196.365 174.224)" fill="#360348"/>
<rect x="174.549" y="196" width="21.7778" height="21.8182" transform="rotate(90 174.549 196)" fill="#360348"/>
<rect opacity="0.5" x="152.728" y="261.332" width="21.7778" height="21.8182" transform="rotate(90 152.728 261.332)" fill="#360348"/>
<rect opacity="0.5" x="174.549" y="283.111" width="21.7778" height="21.8182" transform="rotate(90 174.549 283.111)" fill="#360348"/>
<rect opacity="0.5" x="174.549" y="304.887" width="21.7778" height="21.8182" transform="rotate(90 174.549 304.887)" fill="#360348"/>
<rect x="152.728" y="283.111" width="21.7778" height="21.8182" transform="rotate(90 152.728 283.111)" fill="#360348"/>
<rect x="130.912" y="283.111" width="21.7778" height="21.8182" transform="rotate(90 130.912 283.111)" fill="#360348"/>
<rect opacity="0.5" x="152.728" y="304.887" width="21.7778" height="21.8182" transform="rotate(90 152.728 304.887)" fill="#360348"/>
<rect x="130.912" y="304.887" width="21.7778" height="21.8182" transform="rotate(90 130.912 304.887)" fill="#360348"/>
<rect x="218.185" y="130.668" width="21.7778" height="21.8182" transform="rotate(90 218.185 130.668)" fill="#360348"/>
<rect x="174.549" y="65.3319" width="21.7778" height="21.8182" transform="rotate(90 174.549 65.3319)" fill="#360348"/>
<rect x="196.365" y="43.5559" width="21.7778" height="21.8182" transform="rotate(90 196.365 43.5559)" fill="#360348"/>
<rect opacity="0.5" x="218.185" y="87.1118" width="21.7778" height="21.8182" transform="rotate(90 218.185 87.1118)" fill="#360348"/>
<rect x="196.365" y="87.1118" width="21.7778" height="21.8182" transform="rotate(90 196.365 87.1118)" fill="#360348"/>
<rect x="218.185" y="108.888" width="21.7778" height="21.8182" transform="rotate(90 218.185 108.888)" fill="#360348"/>
<rect x="196.365" y="108.888" width="21.7778" height="21.8182" transform="rotate(90 196.365 108.888)" fill="#360348"/>
<rect x="174.549" y="152.444" width="21.7778" height="21.8182" transform="rotate(90 174.549 152.444)" fill="#360348"/>
<rect x="152.728" y="152.444" width="21.7778" height="21.8182" transform="rotate(90 152.728 152.444)" fill="#360348"/>
<rect x="130.912" y="152.444" width="21.7778" height="21.8182" transform="rotate(90 130.912 152.444)" fill="#360348"/>
<rect x="174.549" y="130.668" width="21.7778" height="21.8182" transform="rotate(90 174.549 130.668)" fill="#360348"/>
<rect x="152.728" y="108.888" width="21.7778" height="21.8182" transform="rotate(90 152.728 108.888)" fill="#360348"/>
<rect x="130.912" y="130.668" width="21.7778" height="21.8182" transform="rotate(90 130.912 130.668)" fill="#360348"/>
<rect x="109.092" y="326.667" width="21.7778" height="21.8182" transform="rotate(90 109.092 326.667)" fill="#360348"/>
<rect x="87.2751" y="326.667" width="21.7778" height="21.8182" transform="rotate(90 87.2751 326.667)" fill="#360348"/>
<rect opacity="0.5" x="109.092" y="348.443" width="21.7778" height="21.8182" transform="rotate(90 109.092 348.443)" fill="#360348"/>
<rect x="87.2751" y="370.223" width="21.7778" height="21.8182" transform="rotate(90 87.2751 370.223)" fill="#360348"/>
</svg>
