<svg width="720" height="440" viewBox="0 0 720 440" fill="none" xmlns="http://www.w3.org/2000/svg">
<rect x="480" width="40" height="40" fill="#360348"/>
<rect x="520" y="40" width="40" height="40" fill="#360348"/>
<rect x="480" y="40" width="40" height="40" fill="#360348"/>
<rect x="480" y="80" width="40" height="40" fill="#360348"/>
<rect opacity="0.5" x="440" y="40" width="40" height="40" fill="#360348"/>
<rect x="400" y="80" width="40" height="40" fill="#360348"/>
<rect opacity="0.5" x="200" y="320" width="40" height="40" fill="#360348"/>
<rect x="240" y="320" width="40" height="40" fill="#360348"/>
<rect x="200" y="400" width="40" height="40" fill="#360348"/>
<rect x="200" y="360" width="40" height="40" fill="#360348"/>
<rect x="160" y="360" width="40" height="40" fill="#360348"/>
<rect x="320" y="240" width="40" height="40" fill="#360348"/>
<rect opacity="0.5" x="280" y="320" width="40" height="40" fill="#360348"/>
<rect x="400" y="360" width="40" height="40" fill="#360348"/>
<rect opacity="0.5" x="360" y="240" width="40" height="40" fill="#360348"/>
<rect x="320" y="280" width="40" height="40" fill="#360348"/>
<rect x="320" y="320" width="40" height="40" fill="#360348"/>
<rect x="280" y="280" width="40" height="40" fill="#360348"/>
<rect x="360" y="320" width="40" height="40" fill="#360348"/>
<rect x="240" y="240" width="40" height="40" fill="#360348"/>
<rect x="160" y="200" width="40" height="40" fill="#360348"/>
<rect x="80" y="200" width="40" height="40" fill="#360348"/>
<rect x="40" y="160" width="40" height="40" fill="#360348"/>
<rect opacity="0.5" x="120" y="200" width="40" height="40" fill="#360348"/>
<rect x="80" y="240" width="40" height="40" fill="#360348"/>
<rect opacity="0.5" x="200" y="200" width="40" height="40" fill="#360348"/>
<rect x="160" y="240" width="40" height="40" fill="#360348"/>
<rect opacity="0.5" x="160" y="280" width="40" height="40" fill="#360348"/>
<rect x="120" y="240" width="40" height="40" fill="#360348"/>
<rect x="40" y="280" width="40" height="40" fill="#360348"/>
<rect y="320" width="40" height="40" fill="#360348"/>
<rect x="80" y="280" width="40" height="40" fill="#360348"/>
<rect x="600" y="80" width="40" height="40" fill="#360348"/>
<rect x="640" y="80" width="40" height="40" fill="#360348"/>
<rect x="600" y="120" width="40" height="40" fill="#360348"/>
<rect x="680" y="160" width="40" height="40" fill="#360348"/>
<rect x="600" y="160" width="40" height="40" fill="#360348"/>
<rect x="640" y="200" width="40" height="40" fill="#360348"/>
<rect x="320" y="80" width="40" height="40" fill="#360348"/>
<rect x="360" y="120" width="40" height="40" fill="#360348"/>
<rect opacity="0.5" x="480" y="160" width="40" height="40" fill="#360348"/>
<rect opacity="0.5" x="520" y="120" width="40" height="40" fill="#360348"/>
<rect opacity="0.5" x="560" y="120" width="40" height="40" fill="#360348"/>
<rect x="520" y="160" width="40" height="40" fill="#360348"/>
<rect x="520" y="200" width="40" height="40" fill="#360348"/>
<rect opacity="0.5" x="560" y="160" width="40" height="40" fill="#360348"/>
<rect x="560" y="200" width="40" height="40" fill="#360348"/>
<rect x="240" y="40" width="40" height="40" fill="#360348"/>
<rect x="120" y="120" width="40" height="40" fill="#360348"/>
<rect x="80" y="80" width="40" height="40" fill="#360348"/>
<rect opacity="0.5" x="160" y="40" width="40" height="40" fill="#360348"/>
<rect x="160" y="80" width="40" height="40" fill="#360348"/>
<rect x="200" y="40" width="40" height="40" fill="#360348"/>
<rect x="200" y="80" width="40" height="40" fill="#360348"/>
<rect x="280" y="120" width="40" height="40" fill="#360348"/>
<rect x="280" y="160" width="40" height="40" fill="#360348"/>
<rect x="280" y="200" width="40" height="40" fill="#360348"/>
<rect x="240" y="120" width="40" height="40" fill="#360348"/>
<rect x="200" y="160" width="40" height="40" fill="#360348"/>
<rect x="240" y="200" width="40" height="40" fill="#360348"/>
<rect x="600" y="240" width="40" height="40" fill="#360348"/>
<rect x="600" y="280" width="40" height="40" fill="#360348"/>
<rect opacity="0.5" x="640" y="240" width="40" height="40" fill="#360348"/>
<rect x="680" y="280" width="40" height="40" fill="#360348"/>
</svg>
