<svg width="56" height="38" viewBox="0 0 56 38" fill="none" xmlns="http://www.w3.org/2000/svg">
<rect y="18.9112" width="52" height="20" transform="rotate(-20.6539 0 18.9112)" fill="#43CEFC"/>
<path d="M14.5399 29.5116C13.6217 29.8578 12.8303 29.9509 12.1659 29.791C11.4977 29.6211 11.0507 29.2367 10.8249 28.6378C10.7873 28.538 10.7622 28.4563 10.7496 28.3926L10.7081 28.2373C10.6993 28.1836 10.7042 28.1361 10.7229 28.0949C10.7478 28.0399 10.7851 28.003 10.8351 27.9842L12.452 27.3747C12.5019 27.3559 12.5493 27.3608 12.5943 27.3895C12.6356 27.4081 12.6606 27.4443 12.6694 27.498L12.6751 27.5129C12.7279 27.7438 12.8942 27.8977 13.174 27.9746C13.45 28.0416 13.7677 28.0073 14.127 27.8719C14.4664 27.744 14.7195 27.5687 14.8864 27.3462C15.0595 27.11 15.1047 26.8821 15.0219 26.6625C14.9617 26.5028 14.8318 26.415 14.632 26.3991C14.4284 26.3732 14.1351 26.3812 13.7519 26.4231C13.2638 26.4589 12.8762 26.4739 12.589 26.4681C11.9748 26.4717 11.4553 26.3939 11.0306 26.2348C10.6058 26.0758 10.2975 25.7417 10.1056 25.2327C9.90247 24.6937 9.86848 24.165 10.0037 23.6467C10.1389 23.1284 10.4196 22.6635 10.8459 22.252C11.2721 21.8405 11.8047 21.5144 12.4434 21.2736C13.3118 20.9463 14.0708 20.8882 14.7203 21.0993C15.3761 21.2967 15.8243 21.7148 16.0651 22.3536C16.1141 22.4833 16.1448 22.58 16.1574 22.6437C16.1662 22.6973 16.1582 22.7517 16.1333 22.8066C16.1147 22.8479 16.0804 22.8779 16.0305 22.8967L14.4734 23.4836C14.4235 23.5024 14.378 23.5025 14.3367 23.4839C14.2917 23.4552 14.2648 23.4141 14.256 23.3604C14.1932 23.1333 14.0338 22.9825 13.7777 22.908C13.5316 22.8298 13.2289 22.8584 12.8696 22.9939C12.5302 23.1218 12.2702 23.2939 12.0896 23.5102C11.9189 23.7227 11.8768 23.9438 11.9634 24.1733C12.0311 24.353 12.1786 24.457 12.4059 24.4853C12.6294 24.5036 12.9764 24.4868 13.447 24.4348C13.8402 24.3892 14.121 24.3631 14.2895 24.3566C14.9699 24.3167 15.5411 24.3807 16.0033 24.5484C16.4618 24.7062 16.7907 25.0496 16.9901 25.5786C17.0353 25.6984 17.066 25.7951 17.0824 25.8687C17.261 26.6449 17.1199 27.3593 16.6591 28.0117C16.1945 28.6542 15.4881 29.1542 14.5399 29.5116ZM21.5318 19.6945C21.5406 19.7481 21.5326 19.8024 21.5077 19.8574C21.4891 19.8986 21.4548 19.9287 21.4049 19.9475L20.0125 20.4723C19.9726 20.4874 19.9521 20.5236 19.9509 20.581L20.7581 23.9018C20.7707 23.9654 20.7958 24.0471 20.8334 24.147C21.0178 24.636 21.3495 24.7903 21.8286 24.6097L22.3077 24.4291C22.3576 24.4103 22.405 24.4152 22.45 24.4438C22.5013 24.4587 22.5313 24.493 22.5401 24.5467L22.8966 26.0367C22.9218 26.164 22.8813 26.2533 22.7753 26.3047C22.3836 26.4752 22.0929 26.5961 21.9033 26.6676C21.1647 26.946 20.5693 27.045 20.1173 26.9647C19.6714 26.8705 19.3356 26.5241 19.1099 25.9252C19.0798 25.8453 19.0408 25.7118 18.9931 25.5246L17.9747 21.326C17.9758 21.2686 17.9465 21.2511 17.8866 21.2737L17.0631 21.5841C17.0132 21.6029 16.9677 21.603 16.9264 21.5843C16.8814 21.5557 16.8545 21.5146 16.8457 21.4609L16.5081 20.0663C16.4893 20.0164 16.4942 19.969 16.5228 19.924C16.5477 19.869 16.5851 19.8321 16.635 19.8133L17.4584 19.5029C17.5084 19.4841 17.5239 19.4497 17.5051 19.3998L17.0581 17.5336C17.0492 17.4799 17.0542 17.4324 17.0728 17.3912C17.0977 17.3362 17.1351 17.2993 17.185 17.2805L18.8169 16.6654C18.8668 16.6466 18.9143 16.6515 18.9592 16.6801C19.0005 16.6988 19.0255 16.7349 19.0343 16.7886L19.4813 18.6549C19.5002 18.7048 19.5345 18.7203 19.5844 18.7015L20.9768 18.1767C21.0267 18.1579 21.0741 18.1628 21.1191 18.1914C21.1604 18.2101 21.1854 18.2462 21.1942 18.2999L21.5318 19.6945ZM27.036 16.0979C27.0271 16.0442 27.0321 15.9967 27.0507 15.9555C27.0756 15.9005 27.113 15.8636 27.1629 15.8448L28.8697 15.2015C28.9196 15.1826 28.967 15.1876 29.012 15.2162C29.0532 15.2349 29.0783 15.271 29.0871 15.3247L30.9541 22.9994C30.963 23.0531 30.9549 23.1074 30.9301 23.1624C30.9114 23.2036 30.8771 23.2336 30.8272 23.2524L29.1205 23.8958C29.0706 23.9146 29.025 23.9147 28.9838 23.896C28.9388 23.8674 28.9118 23.8262 28.903 23.7726L28.7352 23.1006C28.7301 23.0569 28.7176 23.0388 28.6977 23.0463C28.6739 23.0439 28.6577 23.0614 28.6491 23.0988C28.4145 23.9282 27.888 24.4972 27.0696 24.8057C26.4308 25.0465 25.8116 25.0519 25.2119 24.8219C24.6085 24.582 24.1271 24.1365 23.7677 23.4855C23.6587 23.2871 23.5629 23.0782 23.4801 22.8586C23.3672 22.5592 23.2549 22.1855 23.143 21.7375C22.9493 20.9213 22.8682 20.2223 22.8997 19.6405C22.9434 18.94 23.1583 18.3005 23.5444 17.7218C23.9404 17.1393 24.4727 16.7221 25.1415 16.47C25.94 16.169 26.593 16.2534 27.1007 16.7232C27.132 16.7456 27.1526 16.755 27.1626 16.7512C27.1825 16.7437 27.19 16.7181 27.1849 16.6744L27.036 16.0979ZM28.1198 21.332C28.1432 21.1521 28.146 20.963 28.1282 20.7645C28.1104 20.5661 28.0594 20.2946 27.9751 19.9502C27.9135 19.6656 27.845 19.4236 27.7698 19.2239C27.7058 19.0543 27.5987 18.8609 27.4486 18.644C27.3008 18.4033 27.1089 18.2419 26.8728 18.1599C26.633 18.068 26.3733 18.0746 26.0938 18.18C25.8044 18.2891 25.575 18.4668 25.4056 18.713C25.2462 18.9555 25.1556 19.229 25.1336 19.5337C25.0868 19.8933 25.1388 20.3639 25.2896 20.9454C25.355 21.2399 25.4272 21.492 25.5062 21.7016C25.5777 21.8912 25.6704 22.0615 25.7842 22.2124C25.9357 22.463 26.1364 22.6325 26.3862 22.7207C26.6361 22.8089 26.9057 22.7985 27.1952 22.6893C27.4846 22.5802 27.7041 22.4063 27.8535 22.1676C28.0128 21.9252 28.1016 21.6466 28.1198 21.332ZM35.1487 13.0397C35.1399 12.9861 35.1448 12.9386 35.1635 12.8974C35.1884 12.8424 35.2257 12.8055 35.2756 12.7867L36.9824 12.1434C37.0323 12.1245 37.0798 12.1295 37.1248 12.1581C37.166 12.1768 37.191 12.2129 37.1999 12.2666L38.9349 19.4097C39.2581 20.7812 39.1258 21.8969 38.538 22.7568C37.9502 23.6167 37.0874 24.2612 35.9495 24.6901C35.6102 24.818 35.2215 24.936 34.7835 25.0441C34.6761 25.0618 34.6118 25.012 34.5903 24.8946L34.2636 23.2566C34.2246 23.1231 34.2738 23.0419 34.4111 23.0129C34.783 22.9411 35.1137 22.8507 35.4031 22.7416C36.0319 22.5045 36.4733 22.1786 36.7273 21.7637C36.9913 21.345 37.0415 20.8131 36.8781 20.1679C36.8768 20.1342 36.8662 20.1211 36.8462 20.1286C36.8225 20.1262 36.8044 20.1387 36.792 20.1662C36.5171 20.7372 36.0303 21.1544 35.3316 21.4177C34.7028 21.6548 34.0855 21.7107 33.4798 21.5857C32.8703 21.4506 32.3641 21.0601 31.961 20.4141C31.842 20.2196 31.7261 19.9726 31.6132 19.6731C31.5154 19.4136 31.4075 19.0667 31.2894 18.6325C31.0982 17.7926 31.024 17.0967 31.0667 16.5449C31.1167 15.8307 31.3365 15.1892 31.7263 14.6205C32.1161 14.0518 32.6304 13.647 33.2692 13.4063C34.0278 13.1203 34.6583 13.1448 35.1607 13.4798C35.1882 13.4922 35.2119 13.4947 35.2319 13.4872C35.2481 13.4697 35.2506 13.4459 35.2393 13.416L35.1487 13.0397ZM36.2679 18.1408C36.2686 17.81 36.2042 17.3669 36.0747 16.8116C36.0055 16.5071 35.9333 16.255 35.858 16.0554C35.7903 15.8757 35.717 15.7267 35.6381 15.6082C35.4867 15.3575 35.286 15.1881 35.0362 15.0999C34.7925 14.9979 34.521 15.0034 34.2216 15.1162C33.9321 15.2253 33.7046 15.408 33.539 15.6642C33.3796 15.9067 33.2858 16.1871 33.2577 16.5055C33.1971 16.8589 33.2297 17.3083 33.3555 17.8537C33.4196 18.1145 33.4874 18.3397 33.5589 18.5294C33.6379 18.739 33.7305 18.9092 33.8369 19.0401C33.9884 19.2908 34.1959 19.4634 34.4595 19.5578C34.7193 19.6422 34.9989 19.628 35.2984 19.5152C35.6078 19.3985 35.8422 19.219 36.0016 18.9765C36.1672 18.7203 36.256 18.4417 36.2679 18.1408ZM45.9948 12.2344C46.1214 12.54 46.2513 12.9755 46.3846 13.5408C46.3998 13.6719 46.3525 13.7581 46.2427 13.7995L41.7512 15.4925C41.7013 15.5114 41.6858 15.5457 41.7046 15.5956C41.7974 15.8114 41.9026 15.9998 42.0202 16.1606C42.4305 16.6443 43.0149 16.7432 43.7735 16.4573C44.3786 16.2178 44.8048 15.7607 45.0521 15.0862C45.0905 14.9463 45.1616 14.9081 45.2653 14.9716L46.5943 15.6846C46.6393 15.7133 46.6693 15.7476 46.6843 15.7875C46.7032 15.8374 46.7001 15.8898 46.6752 15.9448C46.4602 16.4932 46.1265 16.9838 45.674 17.4166C45.2278 17.8355 44.7052 18.1579 44.1064 18.3837C43.2779 18.6959 42.5259 18.7571 41.8501 18.5673C41.1744 18.3774 40.62 17.9651 40.187 17.3304C40.0018 17.081 39.8283 16.7418 39.6665 16.3126C39.5762 16.073 39.4952 15.8129 39.4236 15.5321C39.2528 14.9581 39.1882 14.3783 39.2296 13.7927C39.2719 12.9674 39.5185 12.2304 39.9693 11.5817C40.4301 10.9293 41.0398 10.46 41.7983 10.1741C42.7665 9.80915 43.6142 9.82019 44.3415 10.2072C45.0687 10.5942 45.6198 11.2699 45.9948 12.2344ZM42.2773 12.0797C41.6584 12.3129 41.3302 12.7729 41.2927 13.4596C41.2881 13.6893 41.2934 13.8697 41.3086 14.0008C41.3274 14.0507 41.3568 14.0681 41.3967 14.0531L43.912 13.105C43.9619 13.0861 43.9774 13.0518 43.9586 13.0019C43.9135 12.8821 43.8508 12.7461 43.7706 12.594C43.6079 12.3133 43.3966 12.1308 43.1367 12.0464C42.8831 11.9482 42.5966 11.9593 42.2773 12.0797Z" fill="white"/>
</svg>
