<svg width="160" height="18" viewBox="0 0 160 18" fill="none" xmlns="http://www.w3.org/2000/svg">
<path d="M43.3 5.31201C43.3467 5.23735 43.412 5.20001 43.496 5.20001H45.134C45.1807 5.20001 45.218 5.21868 45.246 5.25601C45.2833 5.28401 45.302 5.32135 45.302 5.36801V14.832C45.302 14.8787 45.2833 14.9207 45.246 14.958C45.218 14.986 45.1807 15 45.134 15H43.496C43.4493 15 43.4073 14.986 43.37 14.958C43.342 14.9207 43.328 14.8787 43.328 14.832V8.65801C43.328 8.62068 43.3187 8.60201 43.3 8.60201C43.2813 8.60201 43.2627 8.61601 43.244 8.64401L41.76 10.968C41.7133 11.0427 41.648 11.08 41.564 11.08H40.738C40.654 11.08 40.5887 11.0427 40.542 10.968L39.058 8.64401C39.0393 8.61601 39.0207 8.60668 39.002 8.61601C38.9833 8.61601 38.974 8.63468 38.974 8.67201V14.832C38.974 14.8787 38.9553 14.9207 38.918 14.958C38.89 14.986 38.8527 15 38.806 15H37.168C37.1213 15 37.0793 14.986 37.042 14.958C37.014 14.9207 37 14.8787 37 14.832V5.36801C37 5.32135 37.014 5.28401 37.042 5.25601C37.0793 5.21868 37.1213 5.20001 37.168 5.20001H38.806C38.89 5.20001 38.9553 5.23735 39.002 5.31201L41.102 8.57401C41.13 8.63001 41.158 8.63001 41.186 8.57401L43.3 5.31201Z" fill="url(#paint0_linear_1070_20)"/>
<path d="M46.8398 17.786C46.8118 17.786 46.7885 17.7673 46.7698 17.73C46.7511 17.702 46.7418 17.6647 46.7418 17.618V16.33C46.7418 16.2833 46.7558 16.2413 46.7838 16.204C46.8211 16.176 46.8631 16.162 46.9098 16.162C47.3018 16.1527 47.6098 16.12 47.8338 16.064C48.0671 16.008 48.2491 15.9007 48.3798 15.742C48.5198 15.5833 48.6271 15.35 48.7018 15.042C48.7111 15.0233 48.7111 14.9953 48.7018 14.958L46.4058 7.98601C46.3965 7.96735 46.3918 7.94401 46.3918 7.91601C46.3918 7.83201 46.4431 7.79001 46.5458 7.79001H48.2958C48.3985 7.79001 48.4638 7.83668 48.4918 7.93001L49.6678 12.466C49.6771 12.494 49.6911 12.508 49.7098 12.508C49.7285 12.508 49.7425 12.494 49.7518 12.466L50.9278 7.93001C50.9558 7.83668 51.0211 7.79001 51.1238 7.79001H52.8318C52.8878 7.79001 52.9251 7.80868 52.9438 7.84601C52.9718 7.87401 52.9765 7.92068 52.9578 7.98601L50.5358 15.266C50.3025 15.9473 50.0645 16.456 49.8218 16.792C49.5791 17.1373 49.2385 17.3893 48.7998 17.548C48.3611 17.7067 47.7405 17.786 46.9378 17.786H46.8398Z" fill="url(#paint1_linear_1070_20)"/>
<path d="M62.6752 9.89001C62.6192 9.91801 62.6192 9.94601 62.6752 9.97401C63.5619 10.4313 64.0052 11.192 64.0052 12.256C64.0052 13.1613 63.6972 13.8473 63.0812 14.314C62.4652 14.7713 61.6579 15 60.6592 15H57.0332C56.9866 15 56.9446 14.986 56.9072 14.958C56.8792 14.9207 56.8652 14.8787 56.8652 14.832V5.36801C56.8652 5.32135 56.8792 5.28401 56.9072 5.25601C56.9446 5.21868 56.9866 5.20001 57.0332 5.20001H60.5472C62.7592 5.20001 63.8652 6.09601 63.8652 7.88801C63.8652 8.82135 63.4686 9.48868 62.6752 9.89001ZM58.9092 6.89401C58.8626 6.89401 58.8392 6.91735 58.8392 6.96401V9.14801C58.8392 9.19468 58.8626 9.21801 58.9092 9.21801H60.5472C60.9859 9.21801 61.3266 9.11535 61.5692 8.91001C61.8119 8.70468 61.9332 8.42468 61.9332 8.07001C61.9332 7.70601 61.8119 7.42135 61.5692 7.21601C61.3266 7.00135 60.9859 6.89401 60.5472 6.89401H58.9092ZM60.6592 13.292C61.0886 13.292 61.4246 13.1847 61.6672 12.97C61.9099 12.746 62.0312 12.4427 62.0312 12.06C62.0312 11.6773 61.9099 11.3787 61.6672 11.164C61.4246 10.94 61.0839 10.828 60.6452 10.828H58.9092C58.8626 10.828 58.8392 10.8513 58.8392 10.898V13.222C58.8392 13.2687 58.8626 13.292 58.9092 13.292H60.6592Z" fill="url(#paint2_linear_1070_20)"/>
<path d="M71.7909 10.66C71.8469 11.0147 71.8655 11.4113 71.8469 11.85C71.8375 11.962 71.7769 12.018 71.6649 12.018H67.3389C67.2829 12.018 67.2642 12.0413 67.2829 12.088C67.3109 12.2747 67.3622 12.4613 67.4369 12.648C67.6795 13.1707 68.1742 13.432 68.9209 13.432C69.5182 13.4227 69.9895 13.18 70.3349 12.704C70.3722 12.648 70.4142 12.62 70.4609 12.62C70.4889 12.62 70.5215 12.6387 70.5589 12.676L71.5669 13.67C71.6135 13.7167 71.6369 13.7587 71.6369 13.796C71.6369 13.8147 71.6182 13.852 71.5809 13.908C71.2729 14.2907 70.8762 14.5893 70.3909 14.804C69.9055 15.0093 69.3735 15.112 68.7949 15.112C67.9922 15.112 67.3109 14.93 66.7509 14.566C66.2002 14.202 65.8035 13.6933 65.5609 13.04C65.3649 12.5733 65.2669 11.962 65.2669 11.206C65.2669 10.6927 65.3369 10.24 65.4769 9.84801C65.6915 9.18535 66.0649 8.65801 66.5969 8.26601C67.1382 7.87401 67.7775 7.67801 68.5149 7.67801C69.4482 7.67801 70.1949 7.94868 70.7549 8.49001C71.3242 9.03135 71.6695 9.75468 71.7909 10.66ZM68.5289 9.38601C67.9409 9.38601 67.5535 9.66135 67.3669 10.212C67.3295 10.3333 67.2969 10.4827 67.2689 10.66C67.2689 10.7067 67.2922 10.73 67.3389 10.73H69.7609C69.8169 10.73 69.8355 10.7067 69.8169 10.66C69.7702 10.3893 69.7469 10.2587 69.7469 10.268C69.6629 9.98801 69.5135 9.77335 69.2989 9.62401C69.0935 9.46535 68.8369 9.38601 68.5289 9.38601Z" fill="url(#paint3_linear_1070_20)"/>
<path d="M75.8377 15.098C75.2124 15.098 74.6664 15.0093 74.1997 14.832C73.7331 14.6547 73.3691 14.4073 73.1077 14.09C72.8558 13.7727 72.7298 13.4133 72.7298 13.012V12.872C72.7298 12.8253 72.7438 12.788 72.7718 12.76C72.8091 12.7227 72.8511 12.704 72.8978 12.704H74.4518C74.4984 12.704 74.5358 12.7227 74.5638 12.76C74.6011 12.788 74.6198 12.8253 74.6198 12.872V12.886C74.6198 13.0913 74.7318 13.2687 74.9557 13.418C75.1891 13.558 75.4784 13.628 75.8237 13.628C76.1411 13.628 76.3978 13.5673 76.5938 13.446C76.7897 13.3153 76.8877 13.1567 76.8877 12.97C76.8877 12.802 76.8037 12.676 76.6357 12.592C76.4678 12.508 76.1924 12.4193 75.8097 12.326C75.3711 12.214 75.0257 12.1067 74.7738 12.004C74.1764 11.7987 73.7004 11.5467 73.3457 11.248C72.9911 10.9493 72.8138 10.52 72.8138 9.96001C72.8138 9.26935 73.0798 8.72335 73.6118 8.32201C74.1531 7.91135 74.8671 7.70601 75.7537 7.70601C76.3511 7.70601 76.8738 7.80401 77.3218 8.00001C77.7698 8.18668 78.1151 8.45268 78.3577 8.79801C78.6097 9.14335 78.7357 9.53535 78.7357 9.97401C78.7357 10.0207 78.7171 10.0627 78.6797 10.1C78.6517 10.128 78.6144 10.142 78.5677 10.142H77.0698C77.0231 10.142 76.9811 10.128 76.9437 10.1C76.9157 10.0627 76.9017 10.0207 76.9017 9.97401C76.9017 9.76868 76.7944 9.59601 76.5798 9.45601C76.3744 9.31601 76.0991 9.24601 75.7537 9.24601C75.4458 9.24601 75.1937 9.30201 74.9977 9.41401C74.8018 9.52601 74.7038 9.68001 74.7038 9.87601C74.7038 10.0627 74.7971 10.2027 74.9837 10.296C75.1797 10.3893 75.5017 10.4873 75.9497 10.59C76.0524 10.618 76.1691 10.6507 76.2998 10.688C76.4304 10.716 76.5704 10.7533 76.7197 10.8C77.3824 10.996 77.9051 11.248 78.2878 11.556C78.6704 11.864 78.8618 12.312 78.8618 12.9C78.8618 13.5907 78.5864 14.132 78.0358 14.524C77.4944 14.9067 76.7617 15.098 75.8377 15.098Z" fill="url(#paint4_linear_1070_20)"/>
<path d="M84.1114 9.21801C84.1114 9.26468 84.0928 9.30668 84.0554 9.34401C84.0274 9.37201 83.9901 9.38601 83.9434 9.38601H82.5994C82.5528 9.38601 82.5294 9.40935 82.5294 9.45601V12.424C82.5294 12.732 82.5901 12.9607 82.7114 13.11C82.8421 13.2593 83.0474 13.334 83.3274 13.334H83.7894C83.8361 13.334 83.8734 13.3527 83.9014 13.39C83.9388 13.418 83.9574 13.4553 83.9574 13.502V14.832C83.9574 14.9347 83.9014 14.9953 83.7894 15.014C83.3974 15.0327 83.1174 15.042 82.9494 15.042C82.1748 15.042 81.5961 14.916 81.2134 14.664C80.8308 14.4027 80.6348 13.9173 80.6254 13.208V9.45601C80.6254 9.40935 80.6021 9.38601 80.5554 9.38601H79.7574C79.7108 9.38601 79.6688 9.37201 79.6314 9.34401C79.6034 9.30668 79.5894 9.26468 79.5894 9.21801V7.97201C79.5894 7.92535 79.6034 7.88801 79.6314 7.86001C79.6688 7.82268 79.7108 7.80401 79.7574 7.80401H80.5554C80.6021 7.80401 80.6254 7.78068 80.6254 7.73401V6.06801C80.6254 6.02135 80.6394 5.98401 80.6674 5.95601C80.7048 5.91868 80.7468 5.90001 80.7934 5.90001H82.3614C82.4081 5.90001 82.4454 5.91868 82.4734 5.95601C82.5108 5.98401 82.5294 6.02135 82.5294 6.06801V7.73401C82.5294 7.78068 82.5528 7.80401 82.5994 7.80401H83.9434C83.9901 7.80401 84.0274 7.82268 84.0554 7.86001C84.0928 7.88801 84.1114 7.92535 84.1114 7.97201V9.21801Z" fill="url(#paint5_linear_1070_20)"/>
<path d="M91.6725 15.112C90.9538 15.112 90.3192 14.9673 89.7685 14.678C89.2178 14.3887 88.7885 13.9873 88.4805 13.474C88.1818 12.9513 88.0325 12.3493 88.0325 11.668V8.53201C88.0325 7.85068 88.1818 7.24868 88.4805 6.72601C88.7885 6.20335 89.2178 5.80201 89.7685 5.52201C90.3192 5.23268 90.9538 5.08801 91.6725 5.08801C92.3818 5.08801 93.0072 5.22801 93.5485 5.50801C94.0992 5.78801 94.5238 6.17068 94.8225 6.65601C95.1305 7.13201 95.2845 7.66401 95.2845 8.25201V8.35001C95.2845 8.39668 95.2659 8.43868 95.2285 8.47601C95.2005 8.50401 95.1632 8.51801 95.1165 8.51801H93.4785C93.4319 8.51801 93.3899 8.50401 93.3525 8.47601C93.3245 8.43868 93.3105 8.39668 93.3105 8.35001V8.30801C93.3105 7.87868 93.1612 7.51935 92.8625 7.23001C92.5638 6.93135 92.1672 6.78201 91.6725 6.78201C91.1685 6.78201 90.7625 6.94068 90.4545 7.25801C90.1558 7.56601 90.0065 7.97201 90.0065 8.47601V11.724C90.0065 12.228 90.1698 12.6387 90.4965 12.956C90.8232 13.264 91.2385 13.418 91.7425 13.418C92.2278 13.418 92.6152 13.292 92.9045 13.04C93.1938 12.7787 93.3385 12.4193 93.3385 11.962V11.332C93.3385 11.2853 93.3152 11.262 93.2685 11.262H91.7005C91.6539 11.262 91.6119 11.248 91.5745 11.22C91.5465 11.1827 91.5325 11.1407 91.5325 11.094V9.80601C91.5325 9.75935 91.5465 9.72201 91.5745 9.69401C91.6119 9.65668 91.6539 9.63801 91.7005 9.63801H95.1165C95.1632 9.63801 95.2005 9.65668 95.2285 9.69401C95.2659 9.72201 95.2845 9.75935 95.2845 9.80601V11.654C95.2845 12.3633 95.1352 12.9793 94.8365 13.502C94.5378 14.0247 94.1132 14.426 93.5625 14.706C93.0212 14.9767 92.3912 15.112 91.6725 15.112Z" fill="url(#paint6_linear_1070_20)"/>
<path d="M99.5038 7.69201C100.11 7.69201 100.652 7.79935 101.128 8.01401C101.604 8.21935 101.972 8.50401 102.234 8.86801C102.504 9.23201 102.64 9.63801 102.64 10.086V14.832C102.64 14.8787 102.621 14.9207 102.584 14.958C102.556 14.986 102.518 15 102.472 15H100.834C100.787 15 100.745 14.986 100.708 14.958C100.68 14.9207 100.666 14.8787 100.666 14.832V14.37C100.666 14.342 100.656 14.3233 100.638 14.314C100.619 14.3047 100.6 14.314 100.582 14.342C100.19 14.8553 99.5598 15.112 98.6918 15.112C97.9638 15.112 97.3758 14.9347 96.9278 14.58C96.4798 14.2253 96.2558 13.7027 96.2558 13.012C96.2558 12.2933 96.5078 11.738 97.0118 11.346C97.5158 10.9447 98.2344 10.744 99.1678 10.744H100.596C100.642 10.744 100.666 10.7207 100.666 10.674V10.366C100.666 10.058 100.572 9.82001 100.386 9.65201C100.199 9.47468 99.9191 9.38601 99.5458 9.38601C99.2564 9.38601 99.0138 9.43735 98.8178 9.54001C98.6311 9.64268 98.5098 9.78735 98.4538 9.97401C98.4258 10.0767 98.3651 10.1233 98.2718 10.114L96.5778 9.89001C96.4658 9.87135 96.4144 9.82935 96.4238 9.76401C96.4611 9.37201 96.6151 9.01735 96.8858 8.70001C97.1658 8.38268 97.5298 8.13535 97.9778 7.95801C98.4351 7.78068 98.9438 7.69201 99.5038 7.69201ZM99.2238 13.642C99.6251 13.642 99.9658 13.5347 100.246 13.32C100.526 13.1053 100.666 12.83 100.666 12.494V11.99C100.666 11.9433 100.642 11.92 100.596 11.92H99.5878C99.1678 11.92 98.8364 11.9993 98.5938 12.158C98.3604 12.3167 98.2438 12.5407 98.2438 12.83C98.2438 13.082 98.3324 13.2827 98.5098 13.432C98.6871 13.572 98.9251 13.642 99.2238 13.642Z" fill="url(#paint7_linear_1070_20)"/>
<path d="M112.01 7.69201C112.738 7.69201 113.308 7.91135 113.718 8.35001C114.129 8.78868 114.334 9.40468 114.334 10.198V14.832C114.334 14.8787 114.316 14.9207 114.278 14.958C114.25 14.986 114.213 15 114.166 15H112.528C112.482 15 112.44 14.986 112.402 14.958C112.374 14.9207 112.36 14.8787 112.36 14.832V10.632C112.36 10.2493 112.262 9.94601 112.066 9.72201C111.87 9.49801 111.609 9.38601 111.282 9.38601C110.956 9.38601 110.69 9.49801 110.484 9.72201C110.279 9.94601 110.176 10.2447 110.176 10.618V14.832C110.176 14.8787 110.158 14.9207 110.12 14.958C110.092 14.986 110.055 15 110.008 15H108.384C108.338 15 108.296 14.986 108.258 14.958C108.23 14.9207 108.216 14.8787 108.216 14.832V10.632C108.216 10.2587 108.114 9.96001 107.908 9.73601C107.703 9.50268 107.437 9.38601 107.11 9.38601C106.812 9.38601 106.56 9.47468 106.354 9.65201C106.158 9.82935 106.042 10.0767 106.004 10.394V14.832C106.004 14.8787 105.986 14.9207 105.948 14.958C105.92 14.986 105.883 15 105.836 15H104.198C104.152 15 104.11 14.986 104.072 14.958C104.044 14.9207 104.03 14.8787 104.03 14.832V7.97201C104.03 7.92535 104.044 7.88801 104.072 7.86001C104.11 7.82268 104.152 7.80401 104.198 7.80401H105.836C105.883 7.80401 105.92 7.82268 105.948 7.86001C105.986 7.88801 106.004 7.92535 106.004 7.97201V8.51801C106.004 8.54601 106.014 8.56468 106.032 8.57401C106.051 8.58335 106.07 8.57401 106.088 8.54601C106.471 7.97668 107.064 7.69201 107.866 7.69201C108.333 7.69201 108.739 7.79001 109.084 7.98601C109.439 8.18201 109.71 8.46201 109.896 8.82601C109.924 8.88201 109.957 8.88201 109.994 8.82601C110.2 8.44335 110.475 8.15868 110.82 7.97201C111.175 7.78535 111.572 7.69201 112.01 7.69201Z" fill="url(#paint8_linear_1070_20)"/>
<path d="M122.049 10.66C122.105 11.0147 122.123 11.4113 122.105 11.85C122.095 11.962 122.035 12.018 121.923 12.018H117.597C117.541 12.018 117.522 12.0413 117.541 12.088C117.569 12.2747 117.62 12.4613 117.695 12.648C117.937 13.1707 118.432 13.432 119.179 13.432C119.776 13.4227 120.247 13.18 120.593 12.704C120.63 12.648 120.672 12.62 120.719 12.62C120.747 12.62 120.779 12.6387 120.817 12.676L121.825 13.67C121.871 13.7167 121.895 13.7587 121.895 13.796C121.895 13.8147 121.876 13.852 121.839 13.908C121.531 14.2907 121.134 14.5893 120.649 14.804C120.163 15.0093 119.631 15.112 119.053 15.112C118.25 15.112 117.569 14.93 117.009 14.566C116.458 14.202 116.061 13.6933 115.819 13.04C115.623 12.5733 115.525 11.962 115.525 11.206C115.525 10.6927 115.595 10.24 115.735 9.84801C115.949 9.18535 116.323 8.65801 116.855 8.26601C117.396 7.87401 118.035 7.67801 118.773 7.67801C119.706 7.67801 120.453 7.94868 121.013 8.49001C121.582 9.03135 121.927 9.75468 122.049 10.66ZM118.787 9.38601C118.199 9.38601 117.811 9.66135 117.625 10.212C117.587 10.3333 117.555 10.4827 117.527 10.66C117.527 10.7067 117.55 10.73 117.597 10.73H120.019C120.075 10.73 120.093 10.7067 120.075 10.66C120.028 10.3893 120.005 10.2587 120.005 10.268C119.921 9.98801 119.771 9.77335 119.557 9.62401C119.351 9.46535 119.095 9.38601 118.787 9.38601Z" fill="url(#paint9_linear_1070_20)"/>
<defs>
<linearGradient id="paint0_linear_1070_20" x1="7.78706" y1="8.99999" x2="168.197" y2="2.06975" gradientUnits="userSpaceOnUse">
<stop stop-color="#43CEFC"/>
<stop offset="0.0949731" stop-color="#DE15F3"/>
<stop offset="1" stop-color="#FEF3FF"/>
</linearGradient>
<linearGradient id="paint1_linear_1070_20" x1="7.78706" y1="8.99999" x2="168.197" y2="2.06975" gradientUnits="userSpaceOnUse">
<stop stop-color="#43CEFC"/>
<stop offset="0.0949731" stop-color="#DE15F3"/>
<stop offset="1" stop-color="#FEF3FF"/>
</linearGradient>
<linearGradient id="paint2_linear_1070_20" x1="7.78706" y1="8.99999" x2="168.197" y2="2.06975" gradientUnits="userSpaceOnUse">
<stop stop-color="#43CEFC"/>
<stop offset="0.0949731" stop-color="#DE15F3"/>
<stop offset="1" stop-color="#FEF3FF"/>
</linearGradient>
<linearGradient id="paint3_linear_1070_20" x1="7.78706" y1="8.99999" x2="168.197" y2="2.06975" gradientUnits="userSpaceOnUse">
<stop stop-color="#43CEFC"/>
<stop offset="0.0949731" stop-color="#DE15F3"/>
<stop offset="1" stop-color="#FEF3FF"/>
</linearGradient>
<linearGradient id="paint4_linear_1070_20" x1="7.78706" y1="8.99999" x2="168.197" y2="2.06975" gradientUnits="userSpaceOnUse">
<stop stop-color="#43CEFC"/>
<stop offset="0.0949731" stop-color="#DE15F3"/>
<stop offset="1" stop-color="#FEF3FF"/>
</linearGradient>
<linearGradient id="paint5_linear_1070_20" x1="7.78706" y1="8.99999" x2="168.197" y2="2.06975" gradientUnits="userSpaceOnUse">
<stop stop-color="#43CEFC"/>
<stop offset="0.0949731" stop-color="#DE15F3"/>
<stop offset="1" stop-color="#FEF3FF"/>
</linearGradient>
<linearGradient id="paint6_linear_1070_20" x1="7.78706" y1="8.99999" x2="168.197" y2="2.06975" gradientUnits="userSpaceOnUse">
<stop stop-color="#43CEFC"/>
<stop offset="0.0949731" stop-color="#DE15F3"/>
<stop offset="1" stop-color="#FEF3FF"/>
</linearGradient>
<linearGradient id="paint7_linear_1070_20" x1="7.78706" y1="8.99999" x2="168.197" y2="2.06975" gradientUnits="userSpaceOnUse">
<stop stop-color="#43CEFC"/>
<stop offset="0.0949731" stop-color="#DE15F3"/>
<stop offset="1" stop-color="#FEF3FF"/>
</linearGradient>
<linearGradient id="paint8_linear_1070_20" x1="7.78706" y1="8.99999" x2="168.197" y2="2.06975" gradientUnits="userSpaceOnUse">
<stop stop-color="#43CEFC"/>
<stop offset="0.0949731" stop-color="#DE15F3"/>
<stop offset="1" stop-color="#FEF3FF"/>
</linearGradient>
<linearGradient id="paint9_linear_1070_20" x1="7.78706" y1="8.99999" x2="168.197" y2="2.06975" gradientUnits="userSpaceOnUse">
<stop stop-color="#43CEFC"/>
<stop offset="0.0949731" stop-color="#DE15F3"/>
<stop offset="1" stop-color="#FEF3FF"/>
</linearGradient>
</defs>
</svg>
