<svg width="51" height="60" viewBox="0 0 51 60" fill="none" xmlns="http://www.w3.org/2000/svg">
<path d="M13.6011 24.8405C13.4728 24.8039 10.4066 23.9021 5.37253 19.6496C0.171716 15.2555 0.00493062 7.99924 0.000119506 7.69282C-0.00388976 7.4437 0.0931344 7.20334 0.267938 7.02426C0.442742 6.84598 0.682496 6.74331 0.934278 6.74092L9.8597 6.63666L9.88215 8.5126L1.96466 8.60492C2.18918 10.5859 3.08164 15.2507 6.59856 18.221C11.2702 22.1679 14.0975 23.029 14.1256 23.0378L13.6011 24.8405Z" fill="#FCAB28"/>
<path d="M36.4005 24.8398L35.8809 23.0363C35.9041 23.0291 38.7314 22.1671 43.4038 18.2211C46.92 15.2508 47.8132 10.5868 48.0377 8.60498L40.1203 8.51266L40.1427 6.63672L49.0681 6.74098C49.3191 6.74417 49.5589 6.84604 49.7337 7.02432C49.9093 7.2026 50.0055 7.44376 50.0015 7.69288C49.9967 7.9993 49.8307 15.2563 44.6283 19.6497C39.595 23.9006 36.5288 24.8032 36.4005 24.8398Z" fill="#FCAB28"/>
<path d="M9.45387 6.73969C9.45387 6.73969 8.2984 6.32264 8.2984 5.17654C8.2984 4.03044 8.08831 3.50913 9.13874 2.4665C10.1892 1.42466 18.1347 0 24.5399 0C30.9451 0 39.6957 1.73745 40.7462 2.67502C41.7966 3.61339 41.3764 6.11491 41.1663 6.53116C40.9562 6.94821 40.1159 6.84395 40.1159 6.84395L9.45387 6.73969Z" fill="#FFCF3F"/>
<path d="M24.4701 3.51172C20.5162 3.51172 12.1841 4.03303 9.13867 6.22176C9.13867 6.22176 9.13867 17.4782 12.2891 23.2111C15.4396 28.9439 21.0045 33.6342 21.0045 33.6342H23.8398H24.6802H28.5652C28.5652 33.6342 34.1308 28.9439 37.2805 23.2111C40.431 17.4782 40.431 6.22176 40.431 6.22176C37.0712 4.03303 28.424 3.51172 24.4701 3.51172Z" fill="url(#paint0_linear_752_47)"/>
<path d="M24.4701 3.51172C20.5162 3.51172 12.1841 4.03303 9.13867 6.22176C9.13867 6.22176 9.13867 17.4782 12.2891 23.2111C13.7814 25.9267 15.8157 28.4075 17.5437 30.2675C18.7529 30.7769 20.1425 31.0976 21.7398 31.1319C31.4005 31.3404 33.9207 23.2103 34.9711 20.2925C36.6254 15.6946 37.5667 8.47496 37.9372 5.12421C33.8774 3.84998 27.6534 3.51172 24.4701 3.51172Z" fill="#FFCC49"/>
<g filter="url(#filter0_d_752_47)">
<path d="M23.1494 9.35141C23.4455 8.42333 24.7587 8.42333 25.0548 9.35141L25.8841 11.9509C26.0164 12.3655 26.4016 12.647 26.8368 12.647H29.5589C30.5232 12.647 30.9289 13.8773 30.1537 14.4508L27.9203 16.1035C27.5762 16.3581 27.4323 16.8035 27.5624 17.2113L28.408 19.862C28.703 20.7865 27.6406 21.5471 26.8605 20.9698L24.6969 19.3689C24.3435 19.1073 23.8607 19.1073 23.5073 19.3689L21.3437 20.9698C20.5636 21.547 19.5012 20.7865 19.7962 19.862L20.6419 17.2113C20.772 16.8035 20.6281 16.3581 20.284 16.1035L18.0505 14.4508C17.2753 13.8773 17.681 12.647 18.6453 12.647H21.3674C21.8026 12.647 22.1878 12.3655 22.3201 11.9509L23.1494 9.35141Z" fill="#FCAB28"/>
</g>
<path d="M35.5933 47.698C34.6479 44.8837 32.6529 45.3007 32.6529 45.3007C32.6529 45.3007 32.6497 44.3958 31.2529 44.266C30.3877 44.0018 28.1577 43.1518 27.4024 41.2353C26.457 38.838 26.8772 35.8152 26.8772 35.8152L24.7771 35.543L22.6771 35.8152C22.6771 35.8152 23.0972 38.838 22.1519 41.2353C21.3965 43.1518 19.1666 44.0018 18.3014 44.266C16.9045 44.3958 16.9013 45.3007 16.9013 45.3007C16.9013 45.3007 14.9063 44.8837 13.9609 47.698H35.5933Z" fill="#FFCE45"/>
<path d="M16.9004 45.3021C18.213 45.2177 19.5257 45.1612 20.8383 45.1325C22.1509 45.0975 23.4636 45.0888 24.7762 45.084C26.0888 45.088 27.4015 45.0967 28.7141 45.1317C30.0267 45.1604 31.3393 45.2169 32.652 45.3013C31.3393 45.3856 30.0267 45.4429 28.7141 45.4708C27.4015 45.505 26.0888 45.5146 24.7762 45.5185C23.4636 45.5146 22.1509 45.505 20.8383 45.47C19.5257 45.4429 18.213 45.3864 16.9004 45.3021Z" fill="#FCAB28"/>
<path d="M28.5635 35.0901H21.1079C20.6436 35.0901 20.2676 34.7168 20.2676 34.256C20.2676 33.7952 20.6436 33.4219 21.1079 33.4219H28.5635C29.0278 33.4219 29.4039 33.7952 29.4039 34.256C29.4039 34.7168 29.0278 35.0901 28.5635 35.0901Z" fill="#FCAB28"/>
<path d="M28.1403 36.1464H21.525C21.1137 36.1464 20.7793 35.8153 20.7793 35.4062C20.7793 34.9971 21.1129 34.666 21.525 34.666H28.1403C28.5517 34.666 28.886 34.9971 28.886 35.4062C28.886 35.8153 28.5525 36.1464 28.1403 36.1464Z" fill="#FCAB28"/>
<path d="M13.5131 47.5977H36.4292C37.2054 47.5977 37.8349 48.2224 37.8349 48.9929V58.6058C37.8349 59.3762 37.2054 60.001 36.4292 60.001H13.5131C12.7369 60.001 12.1074 59.3762 12.1074 58.6058V48.9929C12.1074 48.2224 12.7369 47.5977 13.5131 47.5977Z" fill="#6C554F"/>
<path d="M17.407 49.7422H32.5908C32.9501 49.7422 33.2419 50.0319 33.2419 50.3885V55.6414C33.2419 55.998 32.9501 56.2877 32.5908 56.2877H17.407C17.0477 56.2877 16.7559 55.998 16.7559 55.6414V50.3885C16.7559 50.0319 17.0469 49.7422 17.407 49.7422Z" fill="#FCAB28"/>
<path d="M22.5714 49.7422H27.7946C27.9181 49.7422 28.0183 50.0319 28.0183 50.3885V55.6414C28.0183 55.998 27.9181 56.2877 27.7946 56.2877H22.5714C22.4479 56.2877 22.3477 55.998 22.3477 55.6414V50.3885C22.3477 50.0319 22.4479 49.7422 22.5714 49.7422Z" fill="#FFD733"/>
<path d="M21.002 33.6305C21.6322 33.586 22.2617 33.5645 22.8919 33.547C23.5222 33.5271 24.1516 33.5247 24.7819 33.5215C25.4121 33.5239 26.0416 33.5271 26.6719 33.5462L27.6172 33.5764C27.9324 33.5947 28.2475 33.6051 28.5626 33.6297C28.2475 33.6544 27.9324 33.6647 27.6172 33.6831L26.6719 33.7133C26.0416 33.7332 25.4121 33.7356 24.7819 33.738C24.1516 33.7356 23.5222 33.7324 22.8919 33.7125C22.2625 33.6966 21.6322 33.6759 21.002 33.6305Z" fill="#FFE266"/>
<path d="M21.0391 34.8825C21.6805 34.8379 22.3228 34.8164 22.9643 34.7989C23.6058 34.779 24.2481 34.7758 24.8896 34.7734C25.531 34.7758 26.1733 34.779 26.8148 34.7981L27.777 34.8284C28.0978 34.8467 28.4185 34.857 28.7392 34.8817C28.4185 34.9064 28.0978 34.9167 27.777 34.935L26.8148 34.9652C26.1733 34.9851 25.531 34.9875 24.8896 34.9899C24.2481 34.9875 23.6058 34.9844 22.9643 34.9645C22.322 34.9485 21.6805 34.927 21.0391 34.8825Z" fill="#FFE266"/>
<path d="M22.7598 36.2711C23.4358 36.1852 24.1111 36.1661 24.7871 36.1621C25.4632 36.1653 26.1384 36.1844 26.8145 36.2711C26.1384 36.3571 25.4632 36.377 24.7871 36.3802C24.1111 36.3762 23.435 36.3563 22.7598 36.2711Z" fill="#FFE266"/>
<path d="M14.4141 46.6927C16.1405 46.6083 17.8676 46.5518 19.5948 46.5232C21.3212 46.4881 23.0484 46.4794 24.7748 46.4746C26.5012 46.4786 28.2284 46.4873 29.9556 46.5224C31.682 46.551 33.4091 46.6075 35.1363 46.6919C33.4091 46.7763 31.6828 46.8336 29.9556 46.8614C28.2284 46.8956 26.502 46.9052 24.7748 46.9092C23.0476 46.9052 21.3212 46.8956 19.5948 46.8606C17.8676 46.8336 16.1405 46.7771 14.4141 46.6927Z" fill="#FCAB28"/>
<g opacity="0.48">
<path opacity="0.48" d="M19.1557 0.279297C17.3914 0.44962 15.6808 0.686002 14.1819 0.955017C14.0079 6.10211 13.9526 14.7026 15.2213 19.4573C17.1115 26.5448 20.4725 30.089 20.4725 30.089C20.4725 30.089 18.3722 19.6658 18.5823 10.4939C18.6825 6.10051 18.9271 2.66779 19.1557 0.279297Z" fill="#FFFFFD"/>
</g>
<path d="M40.4271 6.2246C39.2636 5.564 37.9742 5.18595 36.6792 4.89227C35.3818 4.59699 34.0644 4.39085 32.7421 4.23087C31.419 4.07726 30.0912 3.95549 28.7609 3.8767C27.4306 3.79472 26.098 3.7406 24.7669 3.73503C23.4366 3.72229 22.1039 3.76766 20.7737 3.84088C19.4426 3.90933 18.1147 4.02633 16.7917 4.17834C15.4702 4.33752 14.1512 4.5365 12.8554 4.83576C11.5628 5.13342 10.2718 5.51864 9.13477 6.2246C9.67922 5.84177 10.2678 5.5059 10.8956 5.26952C11.0512 5.20744 11.2051 5.13979 11.3631 5.08169L11.8402 4.92092C12.1569 4.8079 12.4801 4.71717 12.8032 4.62803C14.099 4.27703 15.4213 4.0311 16.7484 3.84088C19.4057 3.46601 22.0855 3.29569 24.7709 3.29887C27.4539 3.32912 30.1329 3.51536 32.7886 3.89421C34.1157 4.08522 35.4363 4.33832 36.7321 4.68533C37.0577 4.76572 37.3768 4.87157 37.6959 4.97345C38.0175 5.06736 38.3302 5.19152 38.6429 5.3125C38.9597 5.42233 39.2588 5.57754 39.5619 5.71921C39.7158 5.78606 39.8585 5.87441 40.0005 5.96275L40.4271 6.2246Z" fill="#FCAB28"/>
<path d="M13.1671 8.17632L14.1479 6.4707L15.0662 8.21054L16.7848 9.18393L15.0317 10.0952L14.0509 11.8009L13.1327 10.061L11.4141 9.08763L13.1671 8.17632Z" fill="white"/>
<defs>
<filter id="filter0_d_752_47" x="17.6426" y="8.65533" width="13.918" height="13.5151" filterUnits="userSpaceOnUse" color-interpolation-filters="sRGB">
<feFlood flood-opacity="0" result="BackgroundImageFix"/>
<feColorMatrix in="SourceAlpha" type="matrix" values="0 0 0 0 0 0 0 0 0 0 0 0 0 0 0 0 0 0 127 0" result="hardAlpha"/>
<feOffset dx="1" dy="1"/>
<feComposite in2="hardAlpha" operator="out"/>
<feColorMatrix type="matrix" values="0 0 0 0 1 0 0 0 0 0.93524 0 0 0 0 0.658333 0 0 0 1 0"/>
<feBlend mode="normal" in2="BackgroundImageFix" result="effect1_dropShadow_752_47"/>
<feBlend mode="normal" in="SourceGraphic" in2="effect1_dropShadow_752_47" result="shape"/>
</filter>
<linearGradient id="paint0_linear_752_47" x1="40.431" y1="16.0316" x2="11.0762" y2="26.4357" gradientUnits="userSpaceOnUse">
<stop stop-color="#FFC839"/>
<stop offset="0.687905" stop-color="#F89B06"/>
<stop offset="0.928686" stop-color="#FFC839"/>
</linearGradient>
</defs>
</svg>
