<svg width="24" height="24" viewBox="0 0 24 24" fill="none" xmlns="http://www.w3.org/2000/svg">
<path d="M12 3.38554C16.747 3.38554 20.6145 7.25301 20.6145 12C20.6145 16.747 16.747 20.6145 12 20.6145C7.25301 20.6145 3.37349 16.747 3.37349 12C3.37349 7.25301 7.24096 3.38554 12 3.38554ZM12 2C6.48193 2 2 6.48193 2 12C2 17.5181 6.46988 22 12 22C17.5181 22 22 17.5301 22 12C22 6.48193 17.5181 2 12 2Z" fill="#43CEFC"/>
<path d="M13.0384 13.9517C12.8576 13.9517 12.689 13.8794 12.5564 13.7469L8.90583 10.0963C8.64077 9.83124 8.64077 9.38546 8.90583 9.1204C9.17089 8.85534 9.61667 8.85534 9.88173 9.1204L13.5323 12.771C13.7974 13.0361 13.7974 13.4818 13.5323 13.7469C13.3998 13.8794 13.2191 13.9517 13.0384 13.9517Z" fill="#43CEFC"/>
<path d="M11.9973 14.6489C11.6118 14.6489 11.3105 14.3356 11.3105 13.9621V7.16694C11.3105 6.7814 11.6238 6.48019 11.9973 6.48019C12.3828 6.48019 12.684 6.79345 12.684 7.16694V13.9501C12.684 14.3356 12.3708 14.6489 11.9973 14.6489Z" fill="#43CEFC"/>
<path d="M5.29711 12.685H4.26097C3.87542 12.685 3.57422 12.3718 3.57422 11.9983C3.57422 11.6127 3.88747 11.3115 4.26097 11.3115H5.29711C5.68265 11.3115 5.98386 11.6248 5.98386 11.9983C5.98386 12.3718 5.68265 12.685 5.29711 12.685Z" fill="#43CEFC"/>
<path d="M19.7343 12.685H18.7102C18.3246 12.685 18.0234 12.3718 18.0234 11.9983C18.0234 11.6127 18.3367 11.3115 18.7102 11.3115H19.7463C20.1319 11.3115 20.4331 11.6248 20.4331 11.9983C20.4331 12.3718 20.1198 12.685 19.7343 12.685Z" fill="#43CEFC"/>
<path d="M11.9895 5.96311C11.6039 5.96311 11.3027 5.64985 11.3027 5.27636V4.24021C11.3027 3.85467 11.616 3.55347 11.9895 3.55347C12.375 3.55347 12.6762 3.86672 12.6762 4.24021V5.27636C12.6762 5.64985 12.363 5.96311 11.9895 5.96311Z" fill="#43CEFC"/>
<path d="M11.9895 20.4442C11.6039 20.4442 11.3027 20.131 11.3027 19.7575V18.7214C11.3027 18.3358 11.616 18.0346 11.9895 18.0346C12.375 18.0346 12.6762 18.3479 12.6762 18.7214V19.7575C12.6762 20.131 12.363 20.4442 11.9895 20.4442Z" fill="#43CEFC"/>
</svg>
