<svg width="160" height="18" viewBox="0 0 160 18" fill="none" xmlns="http://www.w3.org/2000/svg">
<path d="M20.2058 5.18603C20.8218 5.18603 21.3632 5.31203 21.8298 5.56403C22.2965 5.81603 22.6558 6.17536 22.9078 6.64203C23.1692 7.09936 23.2998 7.6267 23.2998 8.22403C23.2998 8.81203 23.1645 9.33003 22.8938 9.77803C22.6325 10.226 22.2592 10.576 21.7738 10.828C21.2978 11.0707 20.7472 11.192 20.1218 11.192H18.1338C18.0872 11.192 18.0638 11.2154 18.0638 11.262V14.832C18.0638 14.8787 18.0452 14.9207 18.0078 14.958C17.9798 14.986 17.9425 15 17.8958 15H16.2578C16.2112 15 16.1692 14.986 16.1318 14.958C16.1038 14.9207 16.0898 14.8787 16.0898 14.832V5.35403C16.0898 5.30736 16.1038 5.27003 16.1318 5.24203C16.1692 5.2047 16.2112 5.18603 16.2578 5.18603H20.2058ZM19.9118 9.61003C20.3412 9.61003 20.6865 9.4887 20.9478 9.24603C21.2092 8.99403 21.3398 8.66736 21.3398 8.26603C21.3398 7.85536 21.2092 7.52403 20.9478 7.27203C20.6865 7.02003 20.3412 6.89403 19.9118 6.89403H18.1338C18.0872 6.89403 18.0638 6.91736 18.0638 6.96403V9.54003C18.0638 9.5867 18.0872 9.61003 18.1338 9.61003H19.9118Z" fill="url(#paint0_linear_1070_18)"/>
<path d="M24.5554 15C24.5087 15 24.4667 14.986 24.4294 14.958C24.4014 14.9207 24.3874 14.8787 24.3874 14.832V5.36803C24.3874 5.32136 24.4014 5.28403 24.4294 5.25603C24.4667 5.2187 24.5087 5.20003 24.5554 5.20003H26.1934C26.24 5.20003 26.2774 5.2187 26.3054 5.25603C26.3427 5.28403 26.3614 5.32136 26.3614 5.36803V14.832C26.3614 14.8787 26.3427 14.9207 26.3054 14.958C26.2774 14.986 26.24 15 26.1934 15H24.5554Z" fill="url(#paint1_linear_1070_18)"/>
<path d="M30.6753 7.69203C31.282 7.69203 31.8233 7.79936 32.2993 8.01403C32.7753 8.21936 33.144 8.50403 33.4053 8.86803C33.676 9.23203 33.8113 9.63803 33.8113 10.086V14.832C33.8113 14.8787 33.7927 14.9207 33.7553 14.958C33.7273 14.986 33.69 15 33.6433 15H32.0053C31.9587 15 31.9167 14.986 31.8793 14.958C31.8513 14.9207 31.8373 14.8787 31.8373 14.832V14.37C31.8373 14.342 31.828 14.3234 31.8093 14.314C31.7907 14.3047 31.772 14.314 31.7533 14.342C31.3613 14.8554 30.7313 15.112 29.8633 15.112C29.1353 15.112 28.5473 14.9347 28.0993 14.58C27.6513 14.2254 27.4273 13.7027 27.4273 13.012C27.4273 12.2934 27.6793 11.738 28.1833 11.346C28.6873 10.9447 29.406 10.744 30.3393 10.744H31.7673C31.814 10.744 31.8373 10.7207 31.8373 10.674V10.366C31.8373 10.058 31.744 9.82003 31.5573 9.65203C31.3707 9.4747 31.0907 9.38603 30.7173 9.38603C30.428 9.38603 30.1853 9.43736 29.9893 9.54003C29.8027 9.6427 29.6813 9.78736 29.6253 9.97403C29.5973 10.0767 29.5367 10.1234 29.4433 10.114L27.7493 9.89003C27.6373 9.87136 27.586 9.82936 27.5953 9.76403C27.6327 9.37203 27.7867 9.01736 28.0573 8.70003C28.3373 8.3827 28.7013 8.13536 29.1493 7.95803C29.6067 7.7807 30.1153 7.69203 30.6753 7.69203ZM30.3953 13.642C30.7967 13.642 31.1373 13.5347 31.4173 13.32C31.6973 13.1054 31.8373 12.83 31.8373 12.494V11.99C31.8373 11.9434 31.814 11.92 31.7673 11.92H30.7593C30.3393 11.92 30.008 11.9994 29.7653 12.158C29.532 12.3167 29.4153 12.5407 29.4153 12.83C29.4153 13.082 29.504 13.2827 29.6813 13.432C29.8587 13.572 30.0967 13.642 30.3953 13.642Z" fill="url(#paint2_linear_1070_18)"/>
<path d="M34.9684 17.786C34.9404 17.786 34.9171 17.7674 34.8984 17.73C34.8797 17.702 34.8704 17.6647 34.8704 17.618V16.33C34.8704 16.2834 34.8844 16.2414 34.9124 16.204C34.9497 16.176 34.9917 16.162 35.0384 16.162C35.4304 16.1527 35.7384 16.12 35.9624 16.064C36.1957 16.008 36.3777 15.9007 36.5084 15.742C36.6484 15.5834 36.7557 15.35 36.8304 15.042C36.8397 15.0234 36.8397 14.9954 36.8304 14.958L34.5344 7.98603C34.5251 7.96736 34.5204 7.94403 34.5204 7.91603C34.5204 7.83203 34.5717 7.79003 34.6744 7.79003H36.4244C36.5271 7.79003 36.5924 7.8367 36.6204 7.93003L37.7964 12.466C37.8057 12.494 37.8197 12.508 37.8384 12.508C37.8571 12.508 37.8711 12.494 37.8804 12.466L39.0564 7.93003C39.0844 7.8367 39.1497 7.79003 39.2524 7.79003H40.9604C41.0164 7.79003 41.0537 7.8087 41.0724 7.84603C41.1004 7.87403 41.1051 7.9207 41.0864 7.98603L38.6644 15.266C38.4311 15.9474 38.1931 16.456 37.9504 16.792C37.7077 17.1374 37.3671 17.3894 36.9284 17.548C36.4897 17.7067 35.8691 17.786 35.0664 17.786H34.9684Z" fill="url(#paint3_linear_1070_18)"/>
<path d="M46.1951 9.21803C46.1951 9.2647 46.1764 9.3067 46.1391 9.34403C46.1111 9.37203 46.0738 9.38603 46.0271 9.38603H44.6831C44.6364 9.38603 44.6131 9.40936 44.6131 9.45603V12.424C44.6131 12.732 44.6738 12.9607 44.7951 13.11C44.9258 13.2594 45.1311 13.334 45.4111 13.334H45.8731C45.9198 13.334 45.9571 13.3527 45.9851 13.39C46.0224 13.418 46.0411 13.4554 46.0411 13.502V14.832C46.0411 14.9347 45.9851 14.9954 45.8731 15.014C45.4811 15.0327 45.2011 15.042 45.0331 15.042C44.2584 15.042 43.6798 14.916 43.2971 14.664C42.9144 14.4027 42.7184 13.9174 42.7091 13.208V9.45603C42.7091 9.40936 42.6858 9.38603 42.6391 9.38603H41.8411C41.7944 9.38603 41.7524 9.37203 41.7151 9.34403C41.6871 9.3067 41.6731 9.2647 41.6731 9.21803V7.97203C41.6731 7.92536 41.6871 7.88803 41.7151 7.86003C41.7524 7.8227 41.7944 7.80403 41.8411 7.80403H42.6391C42.6858 7.80403 42.7091 7.7807 42.7091 7.73403V6.06803C42.7091 6.02136 42.7231 5.98403 42.7511 5.95603C42.7884 5.9187 42.8304 5.90003 42.8771 5.90003H44.4451C44.4918 5.90003 44.5291 5.9187 44.5571 5.95603C44.5944 5.98403 44.6131 6.02136 44.6131 6.06803V7.73403C44.6131 7.7807 44.6364 7.80403 44.6831 7.80403H46.0271C46.0738 7.80403 46.1111 7.8227 46.1391 7.86003C46.1764 7.88803 46.1951 7.92536 46.1951 7.97203V9.21803Z" fill="url(#paint4_linear_1070_18)"/>
<path d="M48.4475 6.99203C48.1301 6.99203 47.8641 6.88936 47.6495 6.68403C47.4441 6.46936 47.3415 6.20336 47.3415 5.88603C47.3415 5.55936 47.4441 5.29336 47.6495 5.08803C47.8548 4.8827 48.1208 4.78003 48.4475 4.78003C48.7741 4.78003 49.0401 4.8827 49.2455 5.08803C49.4508 5.29336 49.5535 5.55936 49.5535 5.88603C49.5535 6.20336 49.4461 6.46936 49.2315 6.68403C49.0261 6.88936 48.7648 6.99203 48.4475 6.99203ZM47.6075 15C47.5608 15 47.5188 14.986 47.4815 14.958C47.4535 14.9207 47.4395 14.8787 47.4395 14.832V7.95803C47.4395 7.91136 47.4535 7.87403 47.4815 7.84603C47.5188 7.8087 47.5608 7.79003 47.6075 7.79003H49.2455C49.2921 7.79003 49.3295 7.8087 49.3575 7.84603C49.3948 7.87403 49.4135 7.91136 49.4135 7.95803V14.832C49.4135 14.8787 49.3948 14.9207 49.3575 14.958C49.3295 14.986 49.2921 15 49.2455 15H47.6075Z" fill="url(#paint5_linear_1070_18)"/>
<path d="M58.9318 7.69203C59.6598 7.69203 60.2291 7.91136 60.6398 8.35003C61.0505 8.7887 61.2558 9.4047 61.2558 10.198V14.832C61.2558 14.8787 61.2371 14.9207 61.1998 14.958C61.1718 14.986 61.1345 15 61.0878 15H59.4498C59.4031 15 59.3611 14.986 59.3238 14.958C59.2958 14.9207 59.2818 14.8787 59.2818 14.832V10.632C59.2818 10.2494 59.1838 9.94603 58.9878 9.72203C58.7918 9.49803 58.5305 9.38603 58.2038 9.38603C57.8771 9.38603 57.6111 9.49803 57.4058 9.72203C57.2005 9.94603 57.0978 10.2447 57.0978 10.618V14.832C57.0978 14.8787 57.0791 14.9207 57.0418 14.958C57.0138 14.986 56.9765 15 56.9298 15H55.3058C55.2591 15 55.2171 14.986 55.1798 14.958C55.1518 14.9207 55.1378 14.8787 55.1378 14.832V10.632C55.1378 10.2587 55.0351 9.96003 54.8298 9.73603C54.6245 9.5027 54.3585 9.38603 54.0318 9.38603C53.7331 9.38603 53.4811 9.4747 53.2758 9.65203C53.0798 9.82936 52.9631 10.0767 52.9258 10.394V14.832C52.9258 14.8787 52.9071 14.9207 52.8698 14.958C52.8418 14.986 52.8045 15 52.7578 15H51.1198C51.0731 15 51.0311 14.986 50.9938 14.958C50.9658 14.9207 50.9518 14.8787 50.9518 14.832V7.97203C50.9518 7.92536 50.9658 7.88803 50.9938 7.86003C51.0311 7.8227 51.0731 7.80403 51.1198 7.80403H52.7578C52.8045 7.80403 52.8418 7.8227 52.8698 7.86003C52.9071 7.88803 52.9258 7.92536 52.9258 7.97203V8.51803C52.9258 8.54603 52.9351 8.5647 52.9538 8.57403C52.9725 8.58336 52.9911 8.57403 53.0098 8.54603C53.3925 7.9767 53.9851 7.69203 54.7878 7.69203C55.2545 7.69203 55.6605 7.79003 56.0058 7.98603C56.3605 8.18203 56.6311 8.46203 56.8178 8.82603C56.8458 8.88203 56.8785 8.88203 56.9158 8.82603C57.1211 8.44336 57.3965 8.1587 57.7418 7.97203C58.0965 7.78536 58.4931 7.69203 58.9318 7.69203Z" fill="url(#paint6_linear_1070_18)"/>
<path d="M68.9702 10.66C69.0262 11.0147 69.0449 11.4114 69.0262 11.85C69.0169 11.962 68.9562 12.018 68.8442 12.018H64.5182C64.4622 12.018 64.4436 12.0414 64.4622 12.088C64.4902 12.2747 64.5416 12.4614 64.6162 12.648C64.8589 13.1707 65.3536 13.432 66.1003 13.432C66.6976 13.4227 67.1689 13.18 67.5143 12.704C67.5516 12.648 67.5936 12.62 67.6403 12.62C67.6683 12.62 67.7009 12.6387 67.7383 12.676L68.7463 13.67C68.7929 13.7167 68.8162 13.7587 68.8162 13.796C68.8162 13.8147 68.7976 13.852 68.7603 13.908C68.4523 14.2907 68.0556 14.5894 67.5703 14.804C67.0849 15.0094 66.5529 15.112 65.9743 15.112C65.1716 15.112 64.4902 14.93 63.9302 14.566C63.3796 14.202 62.9829 13.6934 62.7402 13.04C62.5443 12.5734 62.4463 11.962 62.4463 11.206C62.4463 10.6927 62.5163 10.24 62.6562 9.84803C62.8709 9.18536 63.2442 8.65803 63.7762 8.26603C64.3176 7.87403 64.9569 7.67803 65.6942 7.67803C66.6276 7.67803 67.3742 7.9487 67.9342 8.49003C68.5036 9.03136 68.8489 9.7547 68.9702 10.66ZM65.7082 9.38603C65.1202 9.38603 64.7329 9.66136 64.5462 10.212C64.5089 10.3334 64.4762 10.4827 64.4482 10.66C64.4482 10.7067 64.4716 10.73 64.5182 10.73H66.9403C66.9963 10.73 67.0149 10.7067 66.9963 10.66C66.9496 10.3894 66.9263 10.2587 66.9263 10.268C66.8423 9.98803 66.6929 9.77336 66.4782 9.62403C66.2729 9.46536 66.0162 9.38603 65.7082 9.38603Z" fill="url(#paint7_linear_1070_18)"/>
<path d="M73.3396 15C73.2929 15 73.2509 14.986 73.2136 14.958C73.1856 14.9207 73.1716 14.8787 73.1716 14.832V5.36803C73.1716 5.32136 73.1856 5.28403 73.2136 5.25603C73.2509 5.2187 73.2929 5.20003 73.3396 5.20003H76.8396C77.5396 5.20003 78.1509 5.32603 78.6736 5.57803C79.2056 5.8207 79.6162 6.16603 79.9056 6.61403C80.1949 7.06203 80.3396 7.58003 80.3396 8.16803V12.032C80.3396 12.62 80.1949 13.138 79.9056 13.586C79.6162 14.034 79.2056 14.384 78.6736 14.636C78.1509 14.8787 77.5396 15 76.8396 15H73.3396ZM75.1456 13.236C75.1456 13.2827 75.1689 13.306 75.2156 13.306H76.9096C77.3389 13.306 77.6842 13.1614 77.9456 12.872C78.2162 12.5827 78.3562 12.1954 78.3656 11.71V8.49003C78.3656 8.0047 78.2302 7.61736 77.9596 7.32803C77.6982 7.0387 77.3436 6.89403 76.8956 6.89403H75.2156C75.1689 6.89403 75.1456 6.91736 75.1456 6.96403V13.236Z" fill="url(#paint8_linear_1070_18)"/>
<path d="M82.7639 6.99203C82.4465 6.99203 82.1805 6.88936 81.9659 6.68403C81.7605 6.46936 81.6579 6.20336 81.6579 5.88603C81.6579 5.55936 81.7605 5.29336 81.9659 5.08803C82.1712 4.8827 82.4372 4.78003 82.7639 4.78003C83.0905 4.78003 83.3565 4.8827 83.5619 5.08803C83.7672 5.29336 83.8699 5.55936 83.8699 5.88603C83.8699 6.20336 83.7625 6.46936 83.5479 6.68403C83.3425 6.88936 83.0812 6.99203 82.7639 6.99203ZM81.9239 15C81.8772 15 81.8352 14.986 81.7979 14.958C81.7699 14.9207 81.7559 14.8787 81.7559 14.832V7.95803C81.7559 7.91136 81.7699 7.87403 81.7979 7.84603C81.8352 7.8087 81.8772 7.79003 81.9239 7.79003H83.5619C83.6085 7.79003 83.6459 7.8087 83.6739 7.84603C83.7112 7.87403 83.7299 7.91136 83.7299 7.95803V14.832C83.7299 14.8787 83.7112 14.9207 83.6739 14.958C83.6459 14.986 83.6085 15 83.5619 15H81.9239Z" fill="url(#paint9_linear_1070_18)"/>
<path d="M88.1382 15.098C87.5129 15.098 86.9669 15.0094 86.5002 14.832C86.0336 14.6547 85.6696 14.4074 85.4082 14.09C85.1562 13.7727 85.0302 13.4134 85.0302 13.012V12.872C85.0302 12.8254 85.0442 12.788 85.0722 12.76C85.1096 12.7227 85.1516 12.704 85.1982 12.704H86.7522C86.7989 12.704 86.8362 12.7227 86.8642 12.76C86.9016 12.788 86.9202 12.8254 86.9202 12.872V12.886C86.9202 13.0914 87.0322 13.2687 87.2562 13.418C87.4896 13.558 87.7789 13.628 88.1242 13.628C88.4416 13.628 88.6982 13.5674 88.8942 13.446C89.0902 13.3154 89.1882 13.1567 89.1882 12.97C89.1882 12.802 89.1042 12.676 88.9362 12.592C88.7682 12.508 88.4929 12.4194 88.1102 12.326C87.6716 12.214 87.3262 12.1067 87.0742 12.004C86.4769 11.7987 86.0009 11.5467 85.6462 11.248C85.2916 10.9494 85.1142 10.52 85.1142 9.96003C85.1142 9.26936 85.3802 8.72336 85.9122 8.32203C86.4536 7.91136 87.1676 7.70603 88.0542 7.70603C88.6516 7.70603 89.1742 7.80403 89.6222 8.00003C90.0702 8.1867 90.4156 8.4527 90.6582 8.79803C90.9102 9.14336 91.0362 9.53536 91.0362 9.97403C91.0362 10.0207 91.0176 10.0627 90.9802 10.1C90.9522 10.128 90.9149 10.142 90.8682 10.142H89.3702C89.3236 10.142 89.2816 10.128 89.2442 10.1C89.2162 10.0627 89.2022 10.0207 89.2022 9.97403C89.2022 9.7687 89.0949 9.59603 88.8802 9.45603C88.6749 9.31603 88.3996 9.24603 88.0542 9.24603C87.7462 9.24603 87.4942 9.30203 87.2982 9.41403C87.1022 9.52603 87.0042 9.68003 87.0042 9.87603C87.0042 10.0627 87.0976 10.2027 87.2842 10.296C87.4802 10.3894 87.8022 10.4874 88.2502 10.59C88.3529 10.618 88.4696 10.6507 88.6002 10.688C88.7309 10.716 88.8709 10.7534 89.0202 10.8C89.6829 10.996 90.2056 11.248 90.5882 11.556C90.9709 11.864 91.1622 12.312 91.1622 12.9C91.1622 13.5907 90.8869 14.132 90.3362 14.524C89.7949 14.9067 89.0622 15.098 88.1382 15.098Z" fill="url(#paint10_linear_1070_18)"/>
<path d="M96.4119 9.21803C96.4119 9.2647 96.3932 9.3067 96.3559 9.34403C96.3279 9.37203 96.2906 9.38603 96.2439 9.38603H94.8999C94.8532 9.38603 94.8299 9.40936 94.8299 9.45603V12.424C94.8299 12.732 94.8906 12.9607 95.0119 13.11C95.1426 13.2594 95.3479 13.334 95.6279 13.334H96.0899C96.1366 13.334 96.1739 13.3527 96.2019 13.39C96.2392 13.418 96.2579 13.4554 96.2579 13.502V14.832C96.2579 14.9347 96.2019 14.9954 96.0899 15.014C95.6979 15.0327 95.4179 15.042 95.2499 15.042C94.4752 15.042 93.8966 14.916 93.5139 14.664C93.1312 14.4027 92.9352 13.9174 92.9259 13.208V9.45603C92.9259 9.40936 92.9026 9.38603 92.8559 9.38603H92.0579C92.0112 9.38603 91.9692 9.37203 91.9319 9.34403C91.9039 9.3067 91.8899 9.2647 91.8899 9.21803V7.97203C91.8899 7.92536 91.9039 7.88803 91.9319 7.86003C91.9692 7.8227 92.0112 7.80403 92.0579 7.80403H92.8559C92.9026 7.80403 92.9259 7.7807 92.9259 7.73403V6.06803C92.9259 6.02136 92.9399 5.98403 92.9679 5.95603C93.0052 5.9187 93.0472 5.90003 93.0939 5.90003H94.6619C94.7086 5.90003 94.7459 5.9187 94.7739 5.95603C94.8112 5.98403 94.8299 6.02136 94.8299 6.06803V7.73403C94.8299 7.7807 94.8532 7.80403 94.8999 7.80403H96.2439C96.2906 7.80403 96.3279 7.8227 96.3559 7.86003C96.3932 7.88803 96.4119 7.92536 96.4119 7.97203V9.21803Z" fill="url(#paint11_linear_1070_18)"/>
<path d="M101.184 7.70603C101.52 7.70603 101.786 7.77136 101.982 7.90203C102.057 7.93936 102.085 8.00936 102.066 8.11203L101.772 9.70803C101.763 9.82003 101.698 9.8527 101.576 9.80603C101.436 9.75936 101.273 9.73603 101.086 9.73603C101.012 9.73603 100.909 9.74536 100.778 9.76403C100.442 9.79203 100.158 9.91803 99.9243 10.142C99.6909 10.3567 99.5743 10.646 99.5743 11.01V14.832C99.5743 14.8787 99.5556 14.9207 99.5183 14.958C99.4903 14.986 99.4529 15 99.4062 15H97.7683C97.7216 15 97.6796 14.986 97.6423 14.958C97.6143 14.9207 97.6003 14.8787 97.6003 14.832V7.97203C97.6003 7.92536 97.6143 7.88803 97.6423 7.86003C97.6796 7.8227 97.7216 7.80403 97.7683 7.80403H99.4062C99.4529 7.80403 99.4903 7.8227 99.5183 7.86003C99.5556 7.88803 99.5743 7.92536 99.5743 7.97203V8.50403C99.5743 8.53203 99.5836 8.5507 99.6023 8.56003C99.6209 8.56936 99.6349 8.5647 99.6443 8.54603C100.027 7.98603 100.54 7.70603 101.184 7.70603Z" fill="url(#paint12_linear_1070_18)"/>
<path d="M104.024 6.99203C103.706 6.99203 103.44 6.88936 103.226 6.68403C103.02 6.46936 102.918 6.20336 102.918 5.88603C102.918 5.55936 103.02 5.29336 103.226 5.08803C103.431 4.8827 103.697 4.78003 104.024 4.78003C104.35 4.78003 104.616 4.8827 104.822 5.08803C105.027 5.29336 105.13 5.55936 105.13 5.88603C105.13 6.20336 105.022 6.46936 104.808 6.68403C104.602 6.88936 104.341 6.99203 104.024 6.99203ZM103.184 15C103.137 15 103.095 14.986 103.058 14.958C103.03 14.9207 103.016 14.8787 103.016 14.832V7.95803C103.016 7.91136 103.03 7.87403 103.058 7.84603C103.095 7.8087 103.137 7.79003 103.184 7.79003H104.822C104.868 7.79003 104.906 7.8087 104.934 7.84603C104.971 7.87403 104.99 7.91136 104.99 7.95803V14.832C104.99 14.8787 104.971 14.9207 104.934 14.958C104.906 14.986 104.868 15 104.822 15H103.184Z" fill="url(#paint13_linear_1070_18)"/>
<path d="M112.898 9.63803C113.075 10.1234 113.164 10.702 113.164 11.374C113.164 12.018 113.085 12.5827 112.926 13.068C112.711 13.7027 112.366 14.202 111.89 14.566C111.423 14.93 110.868 15.112 110.224 15.112C109.543 15.112 109.006 14.8554 108.614 14.342C108.595 14.3234 108.577 14.3187 108.558 14.328C108.539 14.328 108.53 14.342 108.53 14.37V14.832C108.53 14.8787 108.511 14.9207 108.474 14.958C108.446 14.986 108.409 15 108.362 15H106.724C106.677 15 106.635 14.986 106.598 14.958C106.57 14.9207 106.556 14.8787 106.556 14.832V5.36803C106.556 5.32136 106.57 5.28403 106.598 5.25603C106.635 5.2187 106.677 5.20003 106.724 5.20003H108.362C108.409 5.20003 108.446 5.2187 108.474 5.25603C108.511 5.28403 108.53 5.32136 108.53 5.36803V8.36403C108.53 8.39203 108.539 8.4107 108.558 8.42003C108.577 8.42936 108.595 8.42003 108.614 8.39203C108.978 7.92536 109.496 7.69203 110.168 7.69203C110.849 7.69203 111.419 7.86936 111.876 8.22403C112.343 8.56936 112.683 9.0407 112.898 9.63803ZM110.826 12.816C111.022 12.4614 111.12 11.9947 111.12 11.416C111.12 10.772 111.008 10.2774 110.784 9.93203C110.56 9.56803 110.229 9.38603 109.79 9.38603C109.379 9.38603 109.067 9.56803 108.852 9.93203C108.647 10.2867 108.544 10.7767 108.544 11.402C108.544 12.0274 108.637 12.4987 108.824 12.816C109.048 13.2174 109.375 13.418 109.804 13.418C110.261 13.418 110.602 13.2174 110.826 12.816Z" fill="url(#paint14_linear_1070_18)"/>
<path d="M118.658 7.97203C118.658 7.92536 118.672 7.88803 118.7 7.86003C118.737 7.8227 118.779 7.80403 118.826 7.80403H120.464C120.51 7.80403 120.548 7.8227 120.576 7.86003C120.613 7.88803 120.632 7.92536 120.632 7.97203V14.832C120.632 14.8787 120.613 14.9207 120.576 14.958C120.548 14.986 120.51 15 120.464 15H118.826C118.779 15 118.737 14.986 118.7 14.958C118.672 14.9207 118.658 14.8787 118.658 14.832V14.356C118.658 14.328 118.648 14.314 118.63 14.314C118.611 14.3047 118.592 14.314 118.574 14.342C118.2 14.846 117.622 15.098 116.838 15.098C116.128 15.098 115.545 14.8834 115.088 14.454C114.63 14.0247 114.402 13.4227 114.402 12.648V7.97203C114.402 7.92536 114.416 7.88803 114.444 7.86003C114.481 7.8227 114.523 7.80403 114.57 7.80403H116.194C116.24 7.80403 116.278 7.8227 116.306 7.86003C116.343 7.88803 116.362 7.92536 116.362 7.97203V12.158C116.362 12.5314 116.46 12.8347 116.656 13.068C116.861 13.3014 117.141 13.418 117.496 13.418C117.813 13.418 118.074 13.3247 118.28 13.138C118.485 12.942 118.611 12.69 118.658 12.382V7.97203Z" fill="url(#paint15_linear_1070_18)"/>
<path d="M126.217 9.21803C126.217 9.2647 126.198 9.3067 126.161 9.34403C126.133 9.37203 126.095 9.38603 126.049 9.38603H124.705C124.658 9.38603 124.635 9.40936 124.635 9.45603V12.424C124.635 12.732 124.695 12.9607 124.817 13.11C124.947 13.2594 125.153 13.334 125.433 13.334H125.895C125.941 13.334 125.979 13.3527 126.007 13.39C126.044 13.418 126.063 13.4554 126.063 13.502V14.832C126.063 14.9347 126.007 14.9954 125.895 15.014C125.503 15.0327 125.223 15.042 125.055 15.042C124.28 15.042 123.701 14.916 123.319 14.664C122.936 14.4027 122.74 13.9174 122.731 13.208V9.45603C122.731 9.40936 122.707 9.38603 122.661 9.38603H121.863C121.816 9.38603 121.774 9.37203 121.737 9.34403C121.709 9.3067 121.695 9.2647 121.695 9.21803V7.97203C121.695 7.92536 121.709 7.88803 121.737 7.86003C121.774 7.8227 121.816 7.80403 121.863 7.80403H122.661C122.707 7.80403 122.731 7.7807 122.731 7.73403V6.06803C122.731 6.02136 122.745 5.98403 122.773 5.95603C122.81 5.9187 122.852 5.90003 122.899 5.90003H124.467C124.513 5.90003 124.551 5.9187 124.579 5.95603C124.616 5.98403 124.635 6.02136 124.635 6.06803V7.73403C124.635 7.7807 124.658 7.80403 124.705 7.80403H126.049C126.095 7.80403 126.133 7.8227 126.161 7.86003C126.198 7.88803 126.217 7.92536 126.217 7.97203V9.21803Z" fill="url(#paint16_linear_1070_18)"/>
<path d="M128.469 6.99203C128.152 6.99203 127.886 6.88936 127.671 6.68403C127.466 6.46936 127.363 6.20336 127.363 5.88603C127.363 5.55936 127.466 5.29336 127.671 5.08803C127.876 4.8827 128.142 4.78003 128.469 4.78003C128.796 4.78003 129.062 4.8827 129.267 5.08803C129.472 5.29336 129.575 5.55936 129.575 5.88603C129.575 6.20336 129.468 6.46936 129.253 6.68403C129.048 6.88936 128.786 6.99203 128.469 6.99203ZM127.629 15C127.582 15 127.54 14.986 127.503 14.958C127.475 14.9207 127.461 14.8787 127.461 14.832V7.95803C127.461 7.91136 127.475 7.87403 127.503 7.84603C127.54 7.8087 127.582 7.79003 127.629 7.79003H129.267C129.314 7.79003 129.351 7.8087 129.379 7.84603C129.416 7.87403 129.435 7.91136 129.435 7.95803V14.832C129.435 14.8787 129.416 14.9207 129.379 14.958C129.351 14.986 129.314 15 129.267 15H127.629Z" fill="url(#paint17_linear_1070_18)"/>
<path d="M134.151 15.112C133.367 15.112 132.695 14.9067 132.135 14.496C131.575 14.0854 131.193 13.5254 130.987 12.816C130.857 12.3774 130.791 11.9014 130.791 11.388C130.791 10.8374 130.857 10.3427 130.987 9.90403C131.202 9.21336 131.589 8.67203 132.149 8.28003C132.709 7.88803 133.381 7.69203 134.165 7.69203C134.931 7.69203 135.584 7.88803 136.125 8.28003C136.667 8.6627 137.049 9.19936 137.273 9.89003C137.423 10.3567 137.497 10.8467 137.497 11.36C137.497 11.864 137.432 12.3354 137.301 12.774C137.096 13.502 136.713 14.076 136.153 14.496C135.603 14.9067 134.935 15.112 134.151 15.112ZM134.151 13.418C134.459 13.418 134.721 13.3247 134.935 13.138C135.15 12.9514 135.304 12.6947 135.397 12.368C135.472 12.0694 135.509 11.7427 135.509 11.388C135.509 10.996 135.472 10.6647 135.397 10.394C135.295 10.0767 135.136 9.82936 134.921 9.65203C134.707 9.4747 134.445 9.38603 134.137 9.38603C133.82 9.38603 133.554 9.4747 133.339 9.65203C133.134 9.82936 132.985 10.0767 132.891 10.394C132.817 10.618 132.779 10.9494 132.779 11.388C132.779 11.808 132.812 12.1347 132.877 12.368C132.971 12.6947 133.125 12.9514 133.339 13.138C133.563 13.3247 133.834 13.418 134.151 13.418Z" fill="url(#paint18_linear_1070_18)"/>
<path d="M142.518 7.69203C143.265 7.69203 143.867 7.9207 144.324 8.37803C144.782 8.83536 145.01 9.45603 145.01 10.24V14.832C145.01 14.8787 144.992 14.9207 144.954 14.958C144.926 14.986 144.889 15 144.842 15H143.204C143.158 15 143.116 14.986 143.078 14.958C143.05 14.9207 143.036 14.8787 143.036 14.832V10.646C143.036 10.2727 142.929 9.96936 142.714 9.73603C142.509 9.5027 142.234 9.38603 141.888 9.38603C141.543 9.38603 141.263 9.5027 141.048 9.73603C140.843 9.96936 140.74 10.2727 140.74 10.646V14.832C140.74 14.8787 140.722 14.9207 140.684 14.958C140.656 14.986 140.619 15 140.572 15H138.934C138.888 15 138.846 14.986 138.808 14.958C138.78 14.9207 138.766 14.8787 138.766 14.832V7.97203C138.766 7.92536 138.78 7.88803 138.808 7.86003C138.846 7.8227 138.888 7.80403 138.934 7.80403H140.572C140.619 7.80403 140.656 7.8227 140.684 7.86003C140.722 7.88803 140.74 7.92536 140.74 7.97203V8.46203C140.74 8.49003 140.75 8.5087 140.768 8.51803C140.787 8.52736 140.801 8.5227 140.81 8.50403C141.193 7.9627 141.762 7.69203 142.518 7.69203Z" fill="url(#paint19_linear_1070_18)"/>
<defs>
<linearGradient id="paint0_linear_1070_18" x1="-24.0885" y1="9.00003" x2="199.07" y2="-4.43607" gradientUnits="userSpaceOnUse">
<stop stop-color="#43CEFC"/>
<stop offset="0.0949731" stop-color="#DE15F3"/>
<stop offset="1" stop-color="#FEF3FF"/>
</linearGradient>
<linearGradient id="paint1_linear_1070_18" x1="-24.0885" y1="9.00003" x2="199.07" y2="-4.43607" gradientUnits="userSpaceOnUse">
<stop stop-color="#43CEFC"/>
<stop offset="0.0949731" stop-color="#DE15F3"/>
<stop offset="1" stop-color="#FEF3FF"/>
</linearGradient>
<linearGradient id="paint2_linear_1070_18" x1="-24.0885" y1="9.00003" x2="199.07" y2="-4.43607" gradientUnits="userSpaceOnUse">
<stop stop-color="#43CEFC"/>
<stop offset="0.0949731" stop-color="#DE15F3"/>
<stop offset="1" stop-color="#FEF3FF"/>
</linearGradient>
<linearGradient id="paint3_linear_1070_18" x1="-24.0885" y1="9.00003" x2="199.07" y2="-4.43607" gradientUnits="userSpaceOnUse">
<stop stop-color="#43CEFC"/>
<stop offset="0.0949731" stop-color="#DE15F3"/>
<stop offset="1" stop-color="#FEF3FF"/>
</linearGradient>
<linearGradient id="paint4_linear_1070_18" x1="-24.0885" y1="9.00003" x2="199.07" y2="-4.43607" gradientUnits="userSpaceOnUse">
<stop stop-color="#43CEFC"/>
<stop offset="0.0949731" stop-color="#DE15F3"/>
<stop offset="1" stop-color="#FEF3FF"/>
</linearGradient>
<linearGradient id="paint5_linear_1070_18" x1="-24.0885" y1="9.00003" x2="199.07" y2="-4.43607" gradientUnits="userSpaceOnUse">
<stop stop-color="#43CEFC"/>
<stop offset="0.0949731" stop-color="#DE15F3"/>
<stop offset="1" stop-color="#FEF3FF"/>
</linearGradient>
<linearGradient id="paint6_linear_1070_18" x1="-24.0885" y1="9.00003" x2="199.07" y2="-4.43607" gradientUnits="userSpaceOnUse">
<stop stop-color="#43CEFC"/>
<stop offset="0.0949731" stop-color="#DE15F3"/>
<stop offset="1" stop-color="#FEF3FF"/>
</linearGradient>
<linearGradient id="paint7_linear_1070_18" x1="-24.0885" y1="9.00003" x2="199.07" y2="-4.43607" gradientUnits="userSpaceOnUse">
<stop stop-color="#43CEFC"/>
<stop offset="0.0949731" stop-color="#DE15F3"/>
<stop offset="1" stop-color="#FEF3FF"/>
</linearGradient>
<linearGradient id="paint8_linear_1070_18" x1="-24.0885" y1="9.00003" x2="199.07" y2="-4.43607" gradientUnits="userSpaceOnUse">
<stop stop-color="#43CEFC"/>
<stop offset="0.0949731" stop-color="#DE15F3"/>
<stop offset="1" stop-color="#FEF3FF"/>
</linearGradient>
<linearGradient id="paint9_linear_1070_18" x1="-24.0885" y1="9.00003" x2="199.07" y2="-4.43607" gradientUnits="userSpaceOnUse">
<stop stop-color="#43CEFC"/>
<stop offset="0.0949731" stop-color="#DE15F3"/>
<stop offset="1" stop-color="#FEF3FF"/>
</linearGradient>
<linearGradient id="paint10_linear_1070_18" x1="-24.0885" y1="9.00003" x2="199.07" y2="-4.43607" gradientUnits="userSpaceOnUse">
<stop stop-color="#43CEFC"/>
<stop offset="0.0949731" stop-color="#DE15F3"/>
<stop offset="1" stop-color="#FEF3FF"/>
</linearGradient>
<linearGradient id="paint11_linear_1070_18" x1="-24.0885" y1="9.00003" x2="199.07" y2="-4.43607" gradientUnits="userSpaceOnUse">
<stop stop-color="#43CEFC"/>
<stop offset="0.0949731" stop-color="#DE15F3"/>
<stop offset="1" stop-color="#FEF3FF"/>
</linearGradient>
<linearGradient id="paint12_linear_1070_18" x1="-24.0885" y1="9.00003" x2="199.07" y2="-4.43607" gradientUnits="userSpaceOnUse">
<stop stop-color="#43CEFC"/>
<stop offset="0.0949731" stop-color="#DE15F3"/>
<stop offset="1" stop-color="#FEF3FF"/>
</linearGradient>
<linearGradient id="paint13_linear_1070_18" x1="-24.0885" y1="9.00003" x2="199.07" y2="-4.43607" gradientUnits="userSpaceOnUse">
<stop stop-color="#43CEFC"/>
<stop offset="0.0949731" stop-color="#DE15F3"/>
<stop offset="1" stop-color="#FEF3FF"/>
</linearGradient>
<linearGradient id="paint14_linear_1070_18" x1="-24.0885" y1="9.00003" x2="199.07" y2="-4.43607" gradientUnits="userSpaceOnUse">
<stop stop-color="#43CEFC"/>
<stop offset="0.0949731" stop-color="#DE15F3"/>
<stop offset="1" stop-color="#FEF3FF"/>
</linearGradient>
<linearGradient id="paint15_linear_1070_18" x1="-24.0885" y1="9.00003" x2="199.07" y2="-4.43607" gradientUnits="userSpaceOnUse">
<stop stop-color="#43CEFC"/>
<stop offset="0.0949731" stop-color="#DE15F3"/>
<stop offset="1" stop-color="#FEF3FF"/>
</linearGradient>
<linearGradient id="paint16_linear_1070_18" x1="-24.0885" y1="9.00003" x2="199.07" y2="-4.43607" gradientUnits="userSpaceOnUse">
<stop stop-color="#43CEFC"/>
<stop offset="0.0949731" stop-color="#DE15F3"/>
<stop offset="1" stop-color="#FEF3FF"/>
</linearGradient>
<linearGradient id="paint17_linear_1070_18" x1="-24.0885" y1="9.00003" x2="199.07" y2="-4.43607" gradientUnits="userSpaceOnUse">
<stop stop-color="#43CEFC"/>
<stop offset="0.0949731" stop-color="#DE15F3"/>
<stop offset="1" stop-color="#FEF3FF"/>
</linearGradient>
<linearGradient id="paint18_linear_1070_18" x1="-24.0885" y1="9.00003" x2="199.07" y2="-4.43607" gradientUnits="userSpaceOnUse">
<stop stop-color="#43CEFC"/>
<stop offset="0.0949731" stop-color="#DE15F3"/>
<stop offset="1" stop-color="#FEF3FF"/>
</linearGradient>
<linearGradient id="paint19_linear_1070_18" x1="-24.0885" y1="9.00003" x2="199.07" y2="-4.43607" gradientUnits="userSpaceOnUse">
<stop stop-color="#43CEFC"/>
<stop offset="0.0949731" stop-color="#DE15F3"/>
<stop offset="1" stop-color="#FEF3FF"/>
</linearGradient>
</defs>
</svg>
