<svg width="160" height="18" viewBox="0 0 160 18" fill="none" xmlns="http://www.w3.org/2000/svg">
<path d="M26.238 15H27.736C27.89 15 27.974 14.916 27.974 14.762V8.69999C27.974 8.61599 28.03 8.60199 28.072 8.67199L29.472 10.982C29.542 11.094 29.626 11.136 29.752 11.136H30.466C30.592 11.136 30.676 11.094 30.746 10.982L32.16 8.67199C32.202 8.60199 32.258 8.61599 32.258 8.69999V14.762C32.258 14.916 32.342 15 32.496 15H33.994C34.148 15 34.232 14.916 34.232 14.762V5.43799C34.232 5.28399 34.148 5.19999 33.994 5.19999H32.496C32.37 5.19999 32.286 5.24199 32.216 5.35399L30.158 8.62999C30.13 8.68599 30.074 8.68599 30.046 8.62999L28.016 5.35399C27.946 5.24199 27.862 5.19999 27.736 5.19999H26.238C26.084 5.19999 26 5.28399 26 5.43799V14.762C26 14.916 26.084 15 26.238 15Z" fill="url(#paint0_linear_1070_19)"/>
<path d="M35.7711 17.786H35.8691C38.3051 17.786 38.8231 17.142 39.4671 15.266L41.8611 8.06999C41.9171 7.91599 41.8331 7.80399 41.6651 7.80399H40.0551C39.9151 7.80399 39.8171 7.88799 39.7891 8.01399L38.6971 12.172C38.6831 12.242 38.5991 12.242 38.5851 12.172L37.4371 7.99999C37.3951 7.87399 37.3111 7.80399 37.1711 7.80399H35.5611C35.3931 7.80399 35.3091 7.91599 35.3651 8.06999L37.6191 14.944C37.6331 14.972 37.6331 15.014 37.6191 15.056C37.3951 15.98 36.9471 16.162 35.8411 16.162H35.7571C35.7011 16.162 35.6731 16.246 35.6731 16.4V17.548C35.6731 17.702 35.7151 17.786 35.7711 17.786Z" fill="url(#paint1_linear_1070_19)"/>
<path d="M52.6002 6.65599V5.43799C52.6002 5.28399 52.5162 5.19999 52.3622 5.19999H46.0482C45.8942 5.19999 45.8102 5.28399 45.8102 5.43799V14.762C45.8102 14.916 45.8942 15 46.0482 15H47.5462C47.7002 15 47.7842 14.916 47.7842 14.762V10.982C47.7842 10.926 47.8262 10.898 47.8682 10.898H50.7942C50.9482 10.898 51.0322 10.814 51.0322 10.66V9.44199C51.0322 9.28799 50.9482 9.20399 50.7942 9.20399H47.8682C47.8122 9.20399 47.7842 9.17599 47.7842 9.11999V6.97799C47.7842 6.92199 47.8262 6.89399 47.8682 6.89399H52.3622C52.5162 6.89399 52.6002 6.80999 52.6002 6.65599Z" fill="url(#paint2_linear_1070_19)"/>
<path d="M55.7186 7.69199C54.0246 7.69199 52.7786 8.54599 52.6386 9.70799C52.6246 9.81999 52.7226 9.88999 52.8626 9.90399L54.4166 10.1C54.5566 10.114 54.6406 10.058 54.6966 9.91799C54.8226 9.58199 55.2006 9.38599 55.7606 9.38599C56.5026 9.38599 56.8806 9.76399 56.8806 10.366V10.66C56.8806 10.716 56.8386 10.744 56.7966 10.744H55.3826C53.4926 10.744 52.4706 11.598 52.4706 13.012C52.4706 14.454 53.4926 15.112 54.8646 15.112C55.7046 15.112 56.3486 14.874 56.7826 14.398C56.8386 14.342 56.8806 14.356 56.8806 14.426V14.762C56.8806 14.916 56.9646 15 57.1186 15H58.6166C58.7706 15 58.8546 14.916 58.8546 14.762V10.086C58.8546 8.72799 57.5666 7.69199 55.7186 7.69199ZM55.4386 13.642C54.8506 13.642 54.4446 13.334 54.4446 12.83C54.4446 12.242 54.9626 11.92 55.8026 11.92H56.7966C56.8526 11.92 56.8806 11.962 56.8806 12.004V12.494C56.8806 13.18 56.2226 13.642 55.4386 13.642Z" fill="url(#paint3_linear_1070_19)"/>
<path d="M62.0977 15H63.8057C63.9457 15 64.0437 14.93 64.0857 14.804L66.2417 8.08399C66.2977 7.92999 66.2137 7.81799 66.0457 7.81799L64.3937 7.80399C64.2537 7.80399 64.1697 7.88799 64.1277 8.01399L63.0077 12.214C62.9937 12.284 62.9097 12.284 62.8957 12.214L61.7757 8.01399C61.7337 7.88799 61.6497 7.80399 61.5097 7.80399H59.8577C59.6897 7.80399 59.6057 7.91599 59.6617 8.06999L61.8317 14.804C61.8737 14.93 61.9577 15 62.0977 15Z" fill="url(#paint4_linear_1070_19)"/>
<path d="M70.0403 15.112C71.6083 15.112 72.7703 14.216 73.1903 12.774C73.3023 12.354 73.3723 11.85 73.3723 11.36C73.3723 10.842 73.3023 10.324 73.1623 9.88999C72.7283 8.53199 71.5943 7.69199 70.0543 7.69199C68.4583 7.69199 67.2963 8.53199 66.8763 9.90399C66.7363 10.324 66.6663 10.856 66.6663 11.388C66.6663 11.892 66.7363 12.396 66.8623 12.816C67.2683 14.23 68.4443 15.112 70.0403 15.112ZM70.0403 13.418C69.3823 13.418 68.9483 13.012 68.7663 12.368C68.6963 12.116 68.6543 11.752 68.6543 11.388C68.6543 11.01 68.6963 10.646 68.7663 10.394C68.9483 9.77799 69.3823 9.38599 70.0123 9.38599C70.6563 9.38599 71.0903 9.76399 71.2723 10.394C71.3423 10.646 71.3843 11.01 71.3843 11.388C71.3843 11.738 71.3563 12.088 71.2723 12.368C71.0903 13.012 70.6563 13.418 70.0403 13.418Z" fill="url(#paint5_linear_1070_19)"/>
<path d="M78.2253 7.70599C77.5392 7.70599 77.0492 8.02799 76.7132 8.51799C76.6572 8.57399 76.6152 8.54599 76.6152 8.47599V8.04199C76.6152 7.88799 76.5312 7.80399 76.3773 7.80399H74.8792C74.7253 7.80399 74.6413 7.88799 74.6413 8.04199V14.762C74.6413 14.916 74.7253 15 74.8792 15H76.3773C76.5312 15 76.6152 14.916 76.6152 14.762V11.01C76.6152 10.254 77.1893 9.81999 77.8193 9.76399C78.0993 9.72199 78.3652 9.73599 78.5472 9.79199C78.7152 9.81999 78.7993 9.80599 78.8273 9.63799L79.0933 8.16799C79.1213 8.04199 79.0933 7.92999 78.9673 7.87399C78.7993 7.77599 78.5612 7.70599 78.2253 7.70599Z" fill="url(#paint6_linear_1070_19)"/>
<path d="M81.0926 7.11799C81.8206 7.11799 82.2966 6.64199 82.2966 5.94199C82.2966 5.24199 81.8206 4.76599 81.0926 4.76599C80.3786 4.76599 79.8886 5.24199 79.8886 5.94199C79.8886 6.64199 80.3786 7.11799 81.0926 7.11799ZM80.3506 15H81.8486C82.0026 15 82.0866 14.916 82.0866 14.762V8.04199C82.0866 7.88799 82.0026 7.80399 81.8486 7.80399H80.3506C80.1966 7.80399 80.1126 7.88799 80.1126 8.04199V14.762C80.1126 14.916 80.1966 15 80.3506 15Z" fill="url(#paint7_linear_1070_19)"/>
<path d="M87.7673 9.14799V8.04199C87.7673 7.88799 87.6833 7.80399 87.5293 7.80399H86.2693C86.2133 7.80399 86.1853 7.77599 86.1853 7.71999V6.13799C86.1853 5.98399 86.1013 5.89999 85.9473 5.89999H84.5193C84.3653 5.89999 84.2813 5.98399 84.2813 6.13799V7.71999C84.2813 7.77599 84.2533 7.80399 84.1973 7.80399H83.4833C83.3293 7.80399 83.2453 7.88799 83.2453 8.04199V9.14799C83.2453 9.30199 83.3293 9.38599 83.4833 9.38599H84.1973C84.2533 9.38599 84.2813 9.41399 84.2813 9.46999V13.138C84.2953 14.65 85.1773 14.986 86.6053 14.986C86.8573 14.986 87.1093 14.972 87.3753 14.958C87.5293 14.944 87.6133 14.846 87.6133 14.706V13.502C87.6133 13.348 87.5293 13.264 87.3753 13.264H86.9833C86.4233 13.264 86.1853 12.97 86.1853 12.368V9.46999C86.1853 9.41399 86.2133 9.38599 86.2693 9.38599H87.5293C87.6833 9.38599 87.7673 9.30199 87.7673 9.14799Z" fill="url(#paint8_linear_1070_19)"/>
<path d="M92.332 13.446C91.548 13.446 90.974 13.124 90.778 12.55C90.736 12.438 90.708 12.298 90.68 12.116C90.68 12.06 90.708 12.032 90.764 12.032H95.062C95.216 12.032 95.3 11.948 95.3 11.794C95.286 11.43 95.258 11.08 95.216 10.772C94.908 8.88199 93.886 7.67799 91.996 7.67799C90.428 7.67799 89.238 8.60199 88.86 9.97399C88.748 10.38 88.706 10.814 88.706 11.346C88.706 11.808 88.762 12.242 88.874 12.648C89.252 14.132 90.386 15.112 92.15 15.112C93.298 15.112 94.306 14.636 94.908 13.88C94.992 13.754 94.992 13.656 94.88 13.544L94.082 12.774C93.97 12.662 93.858 12.676 93.746 12.802C93.438 13.18 92.962 13.418 92.332 13.446ZM91.968 9.38599C92.612 9.38599 93.018 9.73599 93.186 10.268C93.214 10.352 93.228 10.436 93.242 10.562C93.256 10.618 93.228 10.646 93.172 10.646H90.792C90.736 10.646 90.708 10.618 90.722 10.562C90.736 10.422 90.778 10.31 90.806 10.212C90.96 9.70799 91.352 9.38599 91.968 9.38599Z" fill="url(#paint9_linear_1070_19)"/>
<path d="M102.889 15.112C105.059 15.112 106.501 13.81 106.501 11.654V9.87599C106.501 9.72199 106.417 9.63799 106.263 9.63799H102.987C102.833 9.63799 102.749 9.72199 102.749 9.87599V11.024C102.749 11.178 102.833 11.262 102.987 11.262H104.471C104.527 11.262 104.555 11.304 104.555 11.346V11.962C104.555 12.886 103.925 13.418 102.959 13.418C101.965 13.418 101.223 12.732 101.223 11.724V8.47599C101.223 7.46799 101.881 6.78199 102.889 6.78199C103.911 6.78199 104.527 7.46799 104.527 8.30799V8.40599C104.527 8.46199 104.611 8.51799 104.765 8.51799H106.263C106.417 8.51799 106.501 8.43399 106.501 8.27999V8.25199C106.501 6.47399 105.059 5.08799 102.889 5.08799C100.705 5.08799 99.249 6.45999 99.249 8.53199V11.668C99.249 13.726 100.705 15.112 102.889 15.112Z" fill="url(#paint10_linear_1070_19)"/>
<path d="M110.666 7.69199C108.972 7.69199 107.726 8.54599 107.586 9.70799C107.572 9.81999 107.67 9.88999 107.81 9.90399L109.364 10.1C109.504 10.114 109.588 10.058 109.644 9.91799C109.77 9.58199 110.148 9.38599 110.708 9.38599C111.45 9.38599 111.828 9.76399 111.828 10.366V10.66C111.828 10.716 111.786 10.744 111.744 10.744H110.33C108.44 10.744 107.418 11.598 107.418 13.012C107.418 14.454 108.44 15.112 109.812 15.112C110.652 15.112 111.296 14.874 111.73 14.398C111.786 14.342 111.828 14.356 111.828 14.426V14.762C111.828 14.916 111.912 15 112.066 15H113.564C113.718 15 113.802 14.916 113.802 14.762V10.086C113.802 8.72799 112.514 7.69199 110.666 7.69199ZM110.386 13.642C109.798 13.642 109.392 13.334 109.392 12.83C109.392 12.242 109.91 11.92 110.75 11.92H111.744C111.8 11.92 111.828 11.962 111.828 12.004V12.494C111.828 13.18 111.17 13.642 110.386 13.642Z" fill="url(#paint11_linear_1070_19)"/>
<path d="M123.158 7.69199C122.318 7.69199 121.576 8.04199 121.142 8.81199C121.114 8.86799 121.058 8.88199 121.03 8.81199C120.652 8.09799 119.952 7.69199 119.014 7.69199C118.258 7.69199 117.642 7.95799 117.25 8.51799C117.208 8.58799 117.152 8.55999 117.152 8.48999V8.04199C117.152 7.88799 117.068 7.80399 116.914 7.80399H115.416C115.262 7.80399 115.178 7.88799 115.178 8.04199V14.762C115.178 14.916 115.262 15 115.416 15H116.914C117.068 15 117.152 14.916 117.152 14.762V10.394C117.236 9.76399 117.656 9.38599 118.258 9.38599C118.916 9.38599 119.364 9.87599 119.364 10.632V14.762C119.364 14.916 119.448 15 119.602 15H121.086C121.24 15 121.324 14.916 121.324 14.762V10.618C121.324 9.86199 121.786 9.38599 122.43 9.38599C123.088 9.38599 123.508 9.87599 123.508 10.632V14.762C123.508 14.916 123.592 15 123.746 15H125.244C125.398 15 125.482 14.916 125.482 14.762V10.198C125.482 8.61599 124.614 7.69199 123.158 7.69199Z" fill="url(#paint12_linear_1070_19)"/>
<path d="M130.34 13.446C129.556 13.446 128.982 13.124 128.786 12.55C128.744 12.438 128.716 12.298 128.688 12.116C128.688 12.06 128.716 12.032 128.772 12.032H133.07C133.224 12.032 133.308 11.948 133.308 11.794C133.294 11.43 133.266 11.08 133.224 10.772C132.916 8.88199 131.894 7.67799 130.004 7.67799C128.436 7.67799 127.246 8.60199 126.868 9.97399C126.756 10.38 126.714 10.814 126.714 11.346C126.714 11.808 126.77 12.242 126.882 12.648C127.26 14.132 128.394 15.112 130.158 15.112C131.306 15.112 132.314 14.636 132.916 13.88C133 13.754 133 13.656 132.888 13.544L132.09 12.774C131.978 12.662 131.866 12.676 131.754 12.802C131.446 13.18 130.97 13.418 130.34 13.446ZM129.976 9.38599C130.62 9.38599 131.026 9.73599 131.194 10.268C131.222 10.352 131.236 10.436 131.25 10.562C131.264 10.618 131.236 10.646 131.18 10.646H128.8C128.744 10.646 128.716 10.618 128.73 10.562C128.744 10.422 128.786 10.31 128.814 10.212C128.968 9.70799 129.36 9.38599 129.976 9.38599Z" fill="url(#paint13_linear_1070_19)"/>
<defs>
<linearGradient id="paint0_linear_1070_19" x1="-9.62836" y1="8.99998" x2="188.132" y2="-1.54353" gradientUnits="userSpaceOnUse">
<stop stop-color="#43CEFC"/>
<stop offset="0.0949731" stop-color="#DE15F3"/>
<stop offset="1" stop-color="#FEF3FF"/>
</linearGradient>
<linearGradient id="paint1_linear_1070_19" x1="-9.62836" y1="8.99998" x2="188.132" y2="-1.54353" gradientUnits="userSpaceOnUse">
<stop stop-color="#43CEFC"/>
<stop offset="0.0949731" stop-color="#DE15F3"/>
<stop offset="1" stop-color="#FEF3FF"/>
</linearGradient>
<linearGradient id="paint2_linear_1070_19" x1="-9.62836" y1="8.99998" x2="188.132" y2="-1.54353" gradientUnits="userSpaceOnUse">
<stop stop-color="#43CEFC"/>
<stop offset="0.0949731" stop-color="#DE15F3"/>
<stop offset="1" stop-color="#FEF3FF"/>
</linearGradient>
<linearGradient id="paint3_linear_1070_19" x1="-9.62836" y1="8.99998" x2="188.132" y2="-1.54353" gradientUnits="userSpaceOnUse">
<stop stop-color="#43CEFC"/>
<stop offset="0.0949731" stop-color="#DE15F3"/>
<stop offset="1" stop-color="#FEF3FF"/>
</linearGradient>
<linearGradient id="paint4_linear_1070_19" x1="-9.62836" y1="8.99998" x2="188.132" y2="-1.54353" gradientUnits="userSpaceOnUse">
<stop stop-color="#43CEFC"/>
<stop offset="0.0949731" stop-color="#DE15F3"/>
<stop offset="1" stop-color="#FEF3FF"/>
</linearGradient>
<linearGradient id="paint5_linear_1070_19" x1="-9.62836" y1="8.99998" x2="188.132" y2="-1.54353" gradientUnits="userSpaceOnUse">
<stop stop-color="#43CEFC"/>
<stop offset="0.0949731" stop-color="#DE15F3"/>
<stop offset="1" stop-color="#FEF3FF"/>
</linearGradient>
<linearGradient id="paint6_linear_1070_19" x1="-9.62836" y1="8.99998" x2="188.132" y2="-1.54353" gradientUnits="userSpaceOnUse">
<stop stop-color="#43CEFC"/>
<stop offset="0.0949731" stop-color="#DE15F3"/>
<stop offset="1" stop-color="#FEF3FF"/>
</linearGradient>
<linearGradient id="paint7_linear_1070_19" x1="-9.62836" y1="8.99998" x2="188.132" y2="-1.54353" gradientUnits="userSpaceOnUse">
<stop stop-color="#43CEFC"/>
<stop offset="0.0949731" stop-color="#DE15F3"/>
<stop offset="1" stop-color="#FEF3FF"/>
</linearGradient>
<linearGradient id="paint8_linear_1070_19" x1="-9.62836" y1="8.99998" x2="188.132" y2="-1.54353" gradientUnits="userSpaceOnUse">
<stop stop-color="#43CEFC"/>
<stop offset="0.0949731" stop-color="#DE15F3"/>
<stop offset="1" stop-color="#FEF3FF"/>
</linearGradient>
<linearGradient id="paint9_linear_1070_19" x1="-9.62836" y1="8.99998" x2="188.132" y2="-1.54353" gradientUnits="userSpaceOnUse">
<stop stop-color="#43CEFC"/>
<stop offset="0.0949731" stop-color="#DE15F3"/>
<stop offset="1" stop-color="#FEF3FF"/>
</linearGradient>
<linearGradient id="paint10_linear_1070_19" x1="-9.62836" y1="8.99998" x2="188.132" y2="-1.54353" gradientUnits="userSpaceOnUse">
<stop stop-color="#43CEFC"/>
<stop offset="0.0949731" stop-color="#DE15F3"/>
<stop offset="1" stop-color="#FEF3FF"/>
</linearGradient>
<linearGradient id="paint11_linear_1070_19" x1="-9.62836" y1="8.99998" x2="188.132" y2="-1.54353" gradientUnits="userSpaceOnUse">
<stop stop-color="#43CEFC"/>
<stop offset="0.0949731" stop-color="#DE15F3"/>
<stop offset="1" stop-color="#FEF3FF"/>
</linearGradient>
<linearGradient id="paint12_linear_1070_19" x1="-9.62836" y1="8.99998" x2="188.132" y2="-1.54353" gradientUnits="userSpaceOnUse">
<stop stop-color="#43CEFC"/>
<stop offset="0.0949731" stop-color="#DE15F3"/>
<stop offset="1" stop-color="#FEF3FF"/>
</linearGradient>
<linearGradient id="paint13_linear_1070_19" x1="-9.62836" y1="8.99998" x2="188.132" y2="-1.54353" gradientUnits="userSpaceOnUse">
<stop stop-color="#43CEFC"/>
<stop offset="0.0949731" stop-color="#DE15F3"/>
<stop offset="1" stop-color="#FEF3FF"/>
</linearGradient>
</defs>
</svg>
