<svg width="375" height="221" viewBox="0 0 375 221" fill="none" xmlns="http://www.w3.org/2000/svg">
<rect y="111" width="375" height="110" fill="#0D041F"/>
<path d="M86.2756 55.0711C84.7012 55.0711 74.7827 55.0874 74.7827 55.0874L65.5734 62.8302L54.7065 70.8425L51.5754 84.2106L43.0108 89.6048L29.2891 110.947H324.394H363.943C363.943 110.947 317.592 98.3964 315.385 98.3964C313.178 98.3964 311.706 94.3819 309.624 93.8504C307.542 93.319 300.248 90.6454 298.883 89.5743C297.517 88.5033 293.154 86.6309 293.154 86.6309C293.154 86.6309 291.316 87.9718 289.263 86.6309C287.21 85.29 279.123 82.8863 279.123 82.8863C279.123 82.8863 276.392 85.0284 275.415 84.7913C274.442 84.5542 265.567 85.0284 263.347 84.2271C261.127 83.4259 258.422 85.8297 257.766 84.2271C257.111 82.6164 252.535 81.0139 250.527 81.0139C248.519 81.0139 227.419 77.8089 226.552 76.468C225.684 75.1271 225.212 73.7944 223.406 73.5246C221.601 73.2548 219.345 76.468 219.345 76.468C219.345 76.468 212.829 71.0772 211.679 69.5183C210.158 68.7319 207.304 74.1261 207.304 74.1261L203.067 67.7938C203.067 65.9215 200.581 62.6342 200.581 62.6342C200.581 62.6342 198.657 59.9919 196.989 60.5233C195.325 61.0548 193.795 47.8516 193.795 47.8516C191.17 50.2553 183.067 61.4893 183.067 61.4893L180.384 62.8302C180.384 62.8302 170.983 62.2988 168.988 61.2277C166.993 60.1566 149.755 59.0856 149.755 59.0856L147.547 51.866L146.076 52.3975C144.604 52.9371 138.824 55.8805 136.302 56.9516C133.78 58.0227 122.113 59.0856 122.113 59.0856L120.725 56.2811C120.725 56.2811 119.276 57.7447 116.699 57.7447C114.123 57.7447 101.978 53.812 97.595 49.9365C95.7025 50.2308 93.1642 53.8365 91.7602 54.8094C91.1176 55.251 87.8532 55.0711 86.2756 55.0711Z" fill="url(#paint0_linear_717_1228)"/>
<path fill-rule="evenodd" clip-rule="evenodd" d="M181.766 63.9677C181.766 63.9677 186.283 64.1312 188.384 63.9677C190.486 63.8041 193.734 59.2664 194.627 57.8192C195.52 56.372 195.761 49.3242 195.357 47.0758C194.952 44.8274 182.46 61.4412 181.766 63.9677Z" fill="#723EA9"/>
<path fill-rule="evenodd" clip-rule="evenodd" d="M211.678 69.5182C211.678 69.5182 210.427 68.4974 207.289 74.3095C207.289 74.3095 211.672 75.3396 214.595 75.961C217.516 76.5824 218.972 76.2308 218.972 76.2308C218.972 76.2308 212.546 70.608 211.678 69.5182Z" fill="#723EA9"/>
<path fill-rule="evenodd" clip-rule="evenodd" d="M219.742 75.961C219.742 75.961 220.774 76.934 222.804 76.8604C224.835 76.7868 225.236 74.4811 225.236 74.4811C225.236 74.4811 222.608 71.0063 219.742 75.961Z" fill="#723EA9"/>
<path fill-rule="evenodd" clip-rule="evenodd" d="M134.133 59.1338C134.133 59.1338 144.055 51.62 147.55 51.8571L148.64 56.5256C148.64 56.5338 142.268 64.4074 134.133 59.1338Z" fill="#723EA9"/>
<path fill-rule="evenodd" clip-rule="evenodd" d="M116.695 57.746C116.695 57.746 118.835 58.7681 119.992 58.9234C121.149 59.0788 121.737 58.3347 121.737 58.3347L120.721 56.2825C120.721 56.2825 118.148 56.1108 116.695 57.746Z" fill="#723EA9"/>
<path fill-rule="evenodd" clip-rule="evenodd" d="M97.5926 49.9375C97.5926 49.9375 94.4471 50.0847 91.7578 54.8105C91.7578 54.8105 94.3057 56.6256 95.8865 55.4482C97.4705 54.2708 98.142 51.3274 97.5926 49.9375Z" fill="#723EA9"/>
<path fill-rule="evenodd" clip-rule="evenodd" d="M236.289 85.1781C236.289 85.1781 247.39 80.3787 250.532 81.0246C253.678 81.6706 257.771 84.2379 257.771 84.2379C257.771 84.2379 250.648 87.0913 248.148 87.263C245.649 87.4266 236.289 85.1781 236.289 85.1781Z" fill="#723EA9"/>
<path fill-rule="evenodd" clip-rule="evenodd" d="M276 85.8792L279.129 82.8867C279.129 82.8867 284.73 84.8899 287.165 88.4792C287.165 88.4874 281.273 87.0402 276 85.8792Z" fill="#723EA9"/>
<path fill-rule="evenodd" clip-rule="evenodd" d="M293.165 86.6317L290.836 88.4795C290.836 88.4795 295.084 90.2455 300.195 92.2405C300.199 92.2487 296.279 86.2392 293.165 86.6317Z" fill="#723EA9"/>
<path fill-rule="evenodd" clip-rule="evenodd" d="M189.398 64.0347C189.398 64.0347 190.982 67.8039 191.712 67.902C192.441 68.0083 195.304 67.2234 195.304 67.2234C195.304 67.2234 196.663 62.841 196.785 61.2875C196.907 59.7422 195.555 47.4453 195.555 47.4453C195.555 47.4453 195.365 55.7523 195.002 56.7743C194.632 57.8208 191.143 62.8573 189.398 64.0347Z" fill="url(#paint1_linear_717_1228)"/>
<path fill-rule="evenodd" clip-rule="evenodd" d="M257.774 84.2305L249.636 87.272H246.969C246.969 87.272 250.529 87.9997 252.373 88.4902C254.217 88.9808 259.875 84.5657 259.875 84.5657L257.774 84.2305Z" fill="url(#paint2_linear_717_1228)"/>
<path fill-rule="evenodd" clip-rule="evenodd" d="M227.24 76.8718C227.24 76.8718 225.476 80.175 224.339 80.9599C223.202 81.7529 218.977 78.9158 218.977 78.9158L221.663 78.9812L222.395 76.8636C222.395 76.8636 224.496 76.0951 225.229 74.4844L227.24 76.8718Z" fill="url(#paint3_linear_717_1228)"/>
<path fill-rule="evenodd" clip-rule="evenodd" d="M149.759 59.0865C149.759 59.0865 147.731 62.0299 146.427 62.7984C145.122 63.567 138.789 62.7984 138.789 62.7984L136.438 60.9506C136.438 60.9506 141.135 61.433 144.229 59.6424C147.323 57.8519 148.64 56.5273 148.64 56.5273L149.759 59.0865Z" fill="url(#paint4_linear_717_1228)"/>
<path fill-rule="evenodd" clip-rule="evenodd" d="M120.727 56.2812L119.477 57.6058H116.836C116.836 57.6058 119.891 60.7945 122.115 59.0775L120.727 56.2812Z" fill="url(#paint5_linear_717_1228)"/>
<path fill-rule="evenodd" clip-rule="evenodd" d="M97.5967 49.9375C97.5967 49.9375 96.816 54.369 95.8906 55.4564C95.8906 55.4564 99.0972 56.4866 101.452 52.701L97.5967 49.9375Z" fill="url(#paint6_linear_717_1228)"/>
<path fill-rule="evenodd" clip-rule="evenodd" d="M202.995 67.5234V73.3775C202.995 73.3775 201.771 73.3203 200.232 73.2958C198.693 73.2794 196.794 72.3882 196.794 72.3882L193.539 67.5234C193.539 67.5234 199.181 68.1366 200.884 67.9159C202.59 67.7033 202.995 67.5234 202.995 67.5234Z" fill="url(#paint7_linear_717_1228)"/>
<path fill-rule="evenodd" clip-rule="evenodd" d="M193.539 67.5232C193.539 67.5232 199.207 62.8546 200.492 62.7974C201.777 62.7402 202.995 67.5232 202.995 67.5232C202.995 67.5232 202.288 69.0194 200.492 68.9785C198.693 68.9377 193.539 67.5232 193.539 67.5232Z" fill="#723EA9"/>
<path fill-rule="evenodd" clip-rule="evenodd" d="M14.4712 55.7505C14.4712 55.7505 19.6431 29.6844 19.8456 25.6837C20.0522 21.6934 20.8541 0.164062 20.8541 0.164062C20.8541 0.164062 25.7344 0.359971 27.7796 3.59762C29.8289 6.83526 30.8414 15.7749 30.8414 15.7749C30.8414 15.7749 32.6518 30.9836 32.2833 32.3343C31.9188 33.685 30.8414 35.5513 30.8414 35.5513C30.8414 35.5513 33.2998 58.6376 33.7372 62.8342C34.1706 67.0307 41.1123 77.9707 41.1123 77.9707C41.1123 77.9707 47.2684 70.6808 47.884 66.5049C48.4996 62.3289 48.1553 61.2978 48.1553 61.2978C48.1553 61.2978 47.5154 55.9774 47.5154 54.0905C47.5154 52.2035 56.8062 52.8944 56.8062 52.8944C56.8062 52.8944 62.618 58.9263 63.2296 63.1229C63.8452 67.3194 62.4115 69.2991 62.4115 69.2991C62.4115 69.2991 70.6654 67.5256 72.6783 69.2991L74.8451 73.805L87.5865 77.6613C87.5865 77.6613 88.5504 64.8139 89.733 63.525C91.1667 61.9577 101.089 77.981 101.089 77.981C101.089 77.981 106.071 97.644 107.569 99.2113C109.068 100.779 113.219 101.944 114.827 100.779C116.435 99.6031 121.194 95.6952 123.036 97.6543C124.879 99.6031 133.166 110.904 133.166 110.904H14.4712H0L4.1256 85.6675L6.02972 80.3334C6.02972 80.3334 7.17208 69.0911 7.93384 66.2709C8.69561 63.4506 14.4712 55.7505 14.4712 55.7505Z" fill="url(#paint8_linear_717_1228)"/>
<path fill-rule="evenodd" clip-rule="evenodd" d="M20.8516 0.173366C20.8516 0.173366 22.1962 13.5158 23.2694 20.022C24.3427 26.5282 25.6468 28.477 25.6468 28.477L27.7771 27.1056C27.7771 27.1056 29.1015 31.5084 29.6401 32.3333C30.1788 33.1582 32.2808 32.3333 32.2808 32.3333C32.2808 32.3333 31.9406 21.0428 31.0212 12.6496L30.4056 9.32951C30.4056 9.32951 28.3684 3.08106 27.7771 1.22509C27.1858 -0.63089 20.8516 0.173366 20.8516 0.173366Z" fill="#24114A"/>
<path fill-rule="evenodd" clip-rule="evenodd" d="M33.7405 62.8338L31.2578 61.1016C31.2578 61.1016 31.8208 68.9173 32.4971 70.4742C33.1735 72.0415 34.4776 75.3616 34.4776 75.3616V73.4129C34.4776 73.4129 35.5508 75.176 36.5512 76.733C37.5475 78.3003 39.9168 79.4654 39.9168 79.4654H41.9256L41.1156 77.9703C41.1156 77.9703 34.4573 64.5661 33.7405 62.8338Z" fill="#24114A"/>
<path fill-rule="evenodd" clip-rule="evenodd" d="M10.6619 61.259L8.48372 64.9196C8.48372 64.9196 10.0241 70.7525 10.8735 71.5962C11.7243 72.4495 13.4064 74.3736 13.4064 74.3736L14.3258 74.951C14.3258 74.951 15.394 75.9211 16.1432 73.9349C17.4375 71.8689 16.3201 68.7493 16.3201 68.7493C16.3201 68.7493 15.7396 66.7549 15.2318 65.4618C14.724 64.1686 13.5816 62.3906 13.5816 62.3906C13.5816 62.3906 12.1982 60.686 10.6619 61.259Z" fill="#24114A"/>
<path fill-rule="evenodd" clip-rule="evenodd" d="M63.3596 64.3783V64.4608C62.6225 66.4611 60.1804 66.7602 60.1804 66.7602L57.803 65.7806L55.1178 66.7602C55.1178 66.7602 50.436 62.6564 49.6705 61.0994C49.0266 59.7899 47.9452 55.7584 47.6091 54.4798C47.5443 54.2323 47.5078 54.088 47.5078 54.088C48.8808 50.7782 57.1712 53.2837 57.1712 53.2837C61.4683 56.542 62.7845 60.4395 63.1814 62.6667C63.1855 62.6873 63.1895 62.6976 63.1895 62.6976C63.3434 63.5535 63.3596 64.1618 63.3596 64.3783Z" fill="#24114A"/>
<path fill-rule="evenodd" clip-rule="evenodd" d="M62.4143 69.2961L58.1172 74.7816C58.1172 74.7816 63.3984 74.1939 65.1683 73.802C66.9422 73.4102 67.7846 72.0389 67.7846 72.0389L69.5504 70.286L72.6771 69.2961C72.6771 69.2961 67.6307 66.1513 62.4143 69.2961Z" fill="#24114A"/>
<path fill-rule="evenodd" clip-rule="evenodd" d="M75.0041 74.7742L72.6834 75.9496L67.4062 78.2902C67.4062 78.2902 74.2225 83.5694 76.7618 84.7346L78.6086 82.9714C78.6086 82.9714 82.1403 85.312 86.6642 86.6833C91.1921 88.0547 96.7933 86.6833 96.7933 86.6833C96.7933 86.6833 91.6133 78.8573 87.5876 77.6406C87.5916 77.6509 78.3049 74.1864 75.0041 74.7742Z" fill="#24114A"/>
<path fill-rule="evenodd" clip-rule="evenodd" d="M89.7339 63.5133C89.7339 63.5133 88.9928 68.6894 89.2884 71.3393C89.58 73.9995 93.4964 81.2275 96.1046 82.3926C98.7128 83.5681 101.094 77.9692 101.094 77.9692C101.094 77.9692 93.2655 63.1833 89.7339 63.5133Z" fill="#24114A"/>
<path fill-rule="evenodd" clip-rule="evenodd" d="M114.828 100.756C114.828 100.756 115.974 103.138 121.041 107.005C126.107 110.882 131.049 108.015 131.049 108.015C131.049 108.015 124.824 96.7764 122.288 97.1785C119.757 97.5806 114.828 100.756 114.828 100.756Z" fill="#24114A"/>
<path fill-rule="evenodd" clip-rule="evenodd" d="M88.9538 101.542C88.9538 101.542 93.8706 99.5931 96.7866 101.542C99.7026 103.491 107.564 107.017 107.564 107.017C107.564 107.017 88.4719 108.966 82.8828 107.017C82.8869 107.017 86.1836 102.264 88.9538 101.542Z" fill="#24114A"/>
<path fill-rule="evenodd" clip-rule="evenodd" d="M362.47 63.1406C362.47 63.1406 361.529 61.0929 361.354 57.629C361.175 54.174 360.943 50.2893 360.407 45.917C359.87 41.5447 356.255 35.7026 354.484 38.5059C352.71 41.3092 351.833 49.0495 351.833 49.0495C351.833 49.0495 349.392 49.5215 349.093 51.4834C349.093 51.4834 346.168 65.6403 345.789 69.2739C345.414 72.9075 339.403 82.3797 339.403 82.3797C339.403 82.3797 334.073 76.0679 333.54 72.4521C333.007 68.8364 333.305 67.9437 333.305 67.9437C333.305 67.9437 333.859 63.337 333.859 61.7032C333.859 60.0695 325.815 60.6676 325.815 60.6676C325.815 60.6676 320.783 65.8903 320.253 69.5239C319.72 73.1574 320.962 74.8715 320.962 74.8715C320.962 74.8715 313.815 73.336 312.072 74.8715L310.196 78.7729L299.164 82.1119C299.164 82.1119 298.329 70.988 297.305 69.872C296.064 68.515 287.473 82.3886 287.473 82.3886C287.473 82.3886 283.159 99.4137 281.862 100.771C280.564 102.128 276.97 103.137 275.578 102.128C274.186 101.11 270.065 97.7264 268.47 99.4227C266.874 101.11 259.7 110.895 259.7 110.895H362.47H375L371.428 89.044L369.779 84.4255C369.779 84.4255 368.79 74.6914 368.131 72.2495C367.471 69.8077 362.47 63.1406 362.47 63.1406Z" fill="url(#paint9_linear_717_1228)"/>
<path fill-rule="evenodd" clip-rule="evenodd" d="M354.958 37.7849C354.499 37.8654 353.773 39.0866 353.208 40.8338C352.413 43.2921 351.827 47.4804 352.011 48.1041C352.284 50.6009 354.106 50.4778 356.155 47.4804C357.813 45.0555 358.181 41.7723 357.905 40.8342C357.629 39.8961 356.063 37.5912 354.958 37.7849Z" fill="#24114A"/>
<path fill-rule="evenodd" clip-rule="evenodd" d="M345.788 69.2733L347.938 67.7734C347.938 67.7734 347.45 74.5406 346.864 75.8887C346.279 77.2457 345.15 80.1204 345.15 80.1204V78.4331C345.15 78.4331 344.22 79.9597 343.354 81.3078C342.492 82.6648 340.44 83.6736 340.44 83.6736H338.701L339.402 82.3791C339.402 82.3791 345.167 70.7731 345.788 69.2733Z" fill="#24114A"/>
<path fill-rule="evenodd" clip-rule="evenodd" d="M365.767 67.9118L367.653 71.0813C367.653 71.0813 366.319 76.1317 365.584 76.8621C364.847 77.601 363.391 79.2669 363.391 79.2669L362.594 79.7669C362.594 79.7669 361.67 80.6069 361.021 78.8872C359.9 77.0983 360.868 74.3972 360.868 74.3972C360.868 74.3972 361.37 72.6703 361.81 71.5507C362.25 70.4311 363.239 68.8916 363.239 68.8916C363.239 68.8916 364.437 67.4157 365.767 67.9118Z" fill="#24114A"/>
<path fill-rule="evenodd" clip-rule="evenodd" d="M320.134 70.6117V70.6832C320.772 72.4151 322.887 72.674 322.887 72.674L324.945 71.8259L327.27 72.674C327.27 72.674 331.324 69.1208 331.987 67.7727C332.544 66.6389 333.481 63.1482 333.772 62.0412C333.828 61.8269 333.859 61.7019 333.859 61.7019C332.671 58.8361 325.492 61.0056 325.492 61.0056C321.772 63.8267 320.632 67.2014 320.288 69.1297C320.285 69.1476 320.281 69.1565 320.281 69.1565C320.148 69.8975 320.134 70.4243 320.134 70.6117Z" fill="#24114A"/>
<path fill-rule="evenodd" clip-rule="evenodd" d="M320.967 74.8704L324.688 79.6199C324.688 79.6199 320.115 79.111 318.582 78.7718C317.046 78.4325 316.317 77.2451 316.317 77.2451L314.788 75.7274L312.081 74.8704C312.081 74.8704 316.45 72.1474 320.967 74.8704Z" fill="#24114A"/>
<path fill-rule="evenodd" clip-rule="evenodd" d="M310.07 79.6128L312.079 80.6306L316.648 82.6572C316.648 82.6572 310.747 87.2281 308.548 88.237L306.949 86.7103C306.949 86.7103 303.891 88.7369 299.974 89.9243C296.054 91.1117 291.204 89.9243 291.204 89.9243C291.204 89.9243 295.689 83.1482 299.175 82.0947C299.171 82.1036 307.212 79.1039 310.07 79.6128Z" fill="#24114A"/>
<path fill-rule="evenodd" clip-rule="evenodd" d="M297.312 69.8641C297.312 69.8641 297.953 74.3458 297.698 76.6402C297.445 78.9435 294.054 85.2018 291.796 86.2107C289.537 87.2284 287.475 82.3807 287.475 82.3807C287.475 82.3807 294.254 69.5784 297.312 69.8641Z" fill="#24114A"/>
<path fill-rule="evenodd" clip-rule="evenodd" d="M275.578 102.111C275.578 102.111 274.586 104.173 270.199 107.521C265.812 110.878 261.534 108.396 261.534 108.396C261.534 108.396 266.924 98.6649 269.119 99.013C271.31 99.3612 275.578 102.111 275.578 102.111Z" fill="#24114A"/>
<path fill-rule="evenodd" clip-rule="evenodd" d="M297.978 102.789C297.978 102.789 293.721 101.102 291.196 102.789C288.671 104.476 281.865 107.53 281.865 107.53C281.865 107.53 298.395 109.217 303.234 107.53C303.231 107.53 300.376 103.414 297.978 102.789Z" fill="#24114A"/>
<defs>
<linearGradient id="paint0_linear_717_1228" x1="219.368" y1="110.947" x2="219.368" y2="41.3579" gradientUnits="userSpaceOnUse">
<stop stop-color="#0E0420"/>
<stop offset="1" stop-color="#87369C"/>
</linearGradient>
<linearGradient id="paint1_linear_717_1228" x1="193.093" y1="67.9126" x2="193.093" y2="47.4406" gradientUnits="userSpaceOnUse">
<stop stop-color="#1B0245"/>
<stop offset="1" stop-color="#612597"/>
</linearGradient>
<linearGradient id="paint2_linear_717_1228" x1="253.422" y1="88.5244" x2="253.422" y2="84.2278" gradientUnits="userSpaceOnUse">
<stop stop-color="#4F2580"/>
<stop offset="1" stop-color="#200377"/>
</linearGradient>
<linearGradient id="paint3_linear_717_1228" x1="223.109" y1="81.098" x2="223.109" y2="74.4822" gradientUnits="userSpaceOnUse">
<stop stop-color="#4F2580"/>
<stop offset="1" stop-color="#200377"/>
</linearGradient>
<linearGradient id="paint4_linear_717_1228" x1="136.436" y1="59.8361" x2="149.757" y2="59.8361" gradientUnits="userSpaceOnUse">
<stop stop-color="#4F2580"/>
<stop offset="1" stop-color="#200377"/>
</linearGradient>
<linearGradient id="paint5_linear_717_1228" x1="116.837" y1="57.9359" x2="122.117" y2="57.9359" gradientUnits="userSpaceOnUse">
<stop stop-color="#4F2580"/>
<stop offset="1" stop-color="#200377"/>
</linearGradient>
<linearGradient id="paint6_linear_717_1228" x1="95.8921" y1="52.7587" x2="101.452" y2="52.7587" gradientUnits="userSpaceOnUse">
<stop stop-color="#4F2580"/>
<stop offset="1" stop-color="#200377"/>
</linearGradient>
<linearGradient id="paint7_linear_717_1228" x1="195.148" y1="68.0282" x2="202.999" y2="68.2096" gradientUnits="userSpaceOnUse">
<stop stop-color="#1B0245"/>
<stop offset="1" stop-color="#612597"/>
</linearGradient>
<linearGradient id="paint8_linear_717_1228" x1="73.8169" y1="110.886" x2="73.8169" y2="0.174476" gradientUnits="userSpaceOnUse">
<stop stop-color="#0D041F"/>
<stop offset="1" stop-color="#000027"/>
</linearGradient>
<linearGradient id="paint9_linear_717_1228" x1="311.086" y1="110.879" x2="311.086" y2="15.02" gradientUnits="userSpaceOnUse">
<stop stop-color="#0D041F"/>
<stop offset="1" stop-color="#000027"/>
</linearGradient>
</defs>
</svg>
