<svg width="24" height="24" viewBox="0 0 24 24" fill="none" xmlns="http://www.w3.org/2000/svg">
<path d="M7.60547 7.19922C5.94375 7.19922 4.59375 8.55156 4.59375 10.2109C4.59375 11.8703 5.94375 13.2227 7.60547 13.2227C9.26719 13.2227 10.6172 11.8727 10.6172 10.2109C10.6172 8.54922 9.26719 7.19922 7.60547 7.19922ZM7.60547 11.9617C6.63984 11.9617 5.85469 11.1766 5.85469 10.2109C5.85469 9.24531 6.63984 8.46016 7.60547 8.46016C8.57109 8.46016 9.35625 9.24531 9.35625 10.2109C9.35625 11.1766 8.57109 11.9617 7.60547 11.9617ZM18.7922 9.58047H17.0414V7.82969C17.0414 7.48047 16.7602 7.19922 16.4109 7.19922C16.0617 7.19922 15.7805 7.48047 15.7805 7.82969V9.58047H14.0297C13.6805 9.58047 13.3992 9.86172 13.3992 10.2109C13.3992 10.5602 13.6805 10.8414 14.0297 10.8414H15.7805V12.5922C15.7805 12.9414 16.0617 13.2227 16.4109 13.2227C16.7602 13.2227 17.0414 12.9414 17.0414 12.5922V10.8414H18.7922C19.1414 10.8414 19.4227 10.5602 19.4227 10.2109C19.4227 9.86172 19.1414 9.58047 18.7922 9.58047Z" fill="#43CEFC"/>
<path d="M22.4875 7.19102C22.4875 5.10508 20.7906 3.4082 18.7047 3.4082H15.9766C15.3883 3.4082 14.8539 3.74102 14.6172 4.25898C14.357 4.82383 13.7898 5.18945 13.1734 5.18945H10.8367C10.2859 5.18945 9.73984 4.81211 9.44687 4.22617C9.19844 3.7293 8.66875 3.4082 8.09453 3.4082H5.29844C3.2125 3.4082 1.51562 5.10508 1.51562 7.19102V11.5504C1.51562 11.5691 1.51562 11.5855 1.51797 11.5996C1.51797 11.616 1.51562 11.6324 1.51562 11.6512V17.4637C1.51562 18.3543 1.86484 19.1934 2.49766 19.8238C3.13281 20.4566 3.97422 20.8035 4.86953 20.8035H4.88125C6.73281 20.7965 7.5625 20.0535 8.16016 17.8598L8.85391 15.7551H15.1492L15.85 17.8832C16.4945 19.7793 17.2117 20.8059 19.1523 20.8059C20.9922 20.8059 22.4875 19.3082 22.4875 17.4707V11.6512C22.4875 11.6324 22.4875 11.616 22.4852 11.602C22.4852 11.5855 22.4875 11.5691 22.4875 11.5504V7.19102ZM21.2266 11.5387C21.2242 11.5574 21.2242 11.5762 21.2242 11.6137C21.2242 11.6301 21.2242 11.6465 21.2266 11.6652V17.4707C21.2266 18.6145 20.2961 19.5449 19.1523 19.5449C18.0812 19.5449 17.65 19.259 17.0453 17.4824L16.2039 14.9277C16.1195 14.6699 15.8781 14.4941 15.6063 14.4941H8.39922C8.12734 14.4941 7.88594 14.6699 7.80156 14.9277L6.96016 17.4824C6.95781 17.4941 6.95312 17.5035 6.95078 17.5152C6.42578 19.4582 5.93594 19.5402 4.87891 19.5449H4.87187C4.31172 19.5449 3.78672 19.327 3.39062 18.9332C2.99688 18.5395 2.77891 18.0191 2.77891 17.466V11.6676C2.78125 11.6512 2.78125 11.6324 2.78125 11.616V11.5926C2.78125 11.5762 2.78125 11.5598 2.77891 11.541V7.19102C2.77891 5.80117 3.91094 4.66914 5.30078 4.66914H8.09453C8.19297 4.66914 8.28203 4.71836 8.31953 4.79102C8.83281 5.81523 9.79609 6.45039 10.8367 6.45039H13.1734C14.282 6.45039 15.2969 5.79648 15.7633 4.78633C15.7961 4.71836 15.8828 4.66914 15.9789 4.66914H18.7094C20.0992 4.66914 21.2313 5.80117 21.2313 7.19102V11.5387H21.2266Z" fill="#43CEFC"/>
</svg>
