<svg width="16" height="16" viewBox="0 0 16 16" fill="none" xmlns="http://www.w3.org/2000/svg">
<g clip-path="url(#clip0_864_200)">
<path d="M4.09563 3.45962C4.06804 3.00821 4.53081 2.68972 4.94259 2.8767L7.35591 3.97257C7.50384 4.03975 7.67269 4.04406 7.82386 3.98452L10.29 3.01321C10.7107 2.84748 11.1567 3.18918 11.1061 3.63859L10.8096 6.27243C10.7914 6.43388 10.8395 6.5958 10.9428 6.72117L12.6287 8.76641C12.9163 9.11539 12.7291 9.64507 12.2861 9.73583L9.68954 10.2678C9.53037 10.3004 9.39124 10.3961 9.30393 10.5332L7.87975 12.7685C7.63674 13.1499 7.07514 13.1356 6.85191 12.7423L5.54363 10.4372C5.46344 10.2959 5.32937 10.1931 5.17207 10.1524L2.60604 9.48872C2.1682 9.37547 2.00829 8.83693 2.31338 8.50308L4.10137 6.54652C4.21097 6.42659 4.26725 6.26733 4.25734 6.10516L4.09563 3.45962Z" fill="#43CEFC"/>
<path d="M13.5003 15C13.3617 15 13.224 14.9398 13.125 14.8222L8.12503 8.87259C7.94241 8.65521 7.96211 8.32357 8.16927 8.13157C8.3758 7.93943 8.69192 7.96011 8.87504 8.17803L13.875 14.1277C14.0576 14.345 14.0378 14.6766 13.8308 14.8687C13.7396 14.9534 13.6221 15.0001 13.5003 15Z" fill="#43CEFC"/>
<path d="M14.6172 4.15234L13.3865 4.849" stroke="#43CEFC" stroke-linecap="round"/>
<path d="M12.9961 2.01953L12.2367 3.21259" stroke="#43CEFC" stroke-linecap="round"/>
<path d="M1 3.21875L2.19328 3.97775" stroke="#43CEFC" stroke-linecap="round"/>
</g>
<defs>
<clipPath id="clip0_864_200">
<rect width="16" height="16" fill="white"/>
</clipPath>
</defs>
</svg>
