<svg width="18" height="18" viewBox="0 0 18 18" fill="none" xmlns="http://www.w3.org/2000/svg">
<g clip-path="url(#clip0_636_2080)">
<path d="M8.97109 0C4.27422 0 0.364844 3.65625 0.0273438 8.26875L4.83672 10.2656C5.25859 9.98438 5.73672 9.84375 6.27109 9.84375H6.41172L8.54922 6.72187V6.69375C8.54922 4.8375 10.068 3.29062 11.9523 3.29062C13.8367 3.29062 15.3555 4.80937 15.3555 6.69375C15.3555 8.57812 13.8367 10.0969 11.9523 10.0969H11.868L8.80234 12.2906V12.4031C8.80234 13.8094 7.64922 14.9625 6.24297 14.9625C5.00547 14.9625 3.96484 14.0625 3.73984 12.9094L0.308594 11.4469C1.37734 15.2156 4.86484 18 8.97109 18C13.9492 18 17.9711 13.9781 17.9711 9C17.9711 4.02187 13.9492 0 8.97109 0Z" fill="white"/>
<path d="M5.65156 13.668L4.55469 13.218C4.75156 13.6398 5.08906 13.9773 5.53906 14.1461C6.49531 14.568 7.62031 14.0898 8.04219 13.1336C8.23906 12.6555 8.23906 12.1492 8.04219 11.6711C7.84531 11.193 7.47969 10.8273 7.02969 10.6305C6.57969 10.4336 6.07344 10.4617 5.62344 10.6023L6.77656 11.0805C7.47969 11.3898 7.84531 12.2055 7.53594 12.9086C7.19844 13.6117 6.38281 13.9492 5.65156 13.668ZM14.2016 6.66484C14.2016 5.42734 13.1891 4.38672 11.9234 4.38672C10.6859 4.38672 9.64531 5.39922 9.64531 6.66484C9.64531 7.93047 10.6859 8.94297 11.9234 8.94297C13.1609 8.94297 14.2016 7.93047 14.2016 6.66484ZM10.2641 6.66484C10.2641 5.70859 11.0234 4.97734 11.9516 4.97734C12.9078 4.97734 13.6391 5.73672 13.6391 6.66484C13.6391 7.62109 12.8797 8.35234 11.9516 8.35234C11.0234 8.38047 10.2641 7.62109 10.2641 6.66484Z" fill="white"/>
</g>
<defs>
<clipPath id="clip0_636_2080">
<rect width="18" height="18" fill="white"/>
</clipPath>
</defs>
</svg>
