<svg width="18" height="18" viewBox="0 0 18 18" fill="none" xmlns="http://www.w3.org/2000/svg">
<path d="M14.7399 3.76337C14.7353 3.75447 14.7277 3.74749 14.7184 3.74369C13.6462 3.25174 12.5147 2.90095 11.3523 2.70008C11.3417 2.69812 11.3308 2.69953 11.3211 2.70413C11.3114 2.70872 11.3034 2.71626 11.2982 2.72567C11.1441 3.00532 11.0042 3.29256 10.8791 3.5863C9.62606 3.39608 8.35146 3.39608 7.0984 3.5863C6.97244 3.29181 6.83034 3.0045 6.67272 2.72567C6.66732 2.71647 6.65927 2.7091 6.64961 2.70454C6.63996 2.69997 6.62916 2.69842 6.61861 2.70008C5.45603 2.90052 4.32446 3.25135 3.25239 3.74371C3.24321 3.7476 3.23547 3.75425 3.23022 3.76273C1.08628 6.96442 0.498977 10.0874 0.78709 13.1717C0.7879 13.1793 0.790223 13.1866 0.793919 13.1932C0.797615 13.1999 0.80261 13.2057 0.808605 13.2104C2.057 14.1347 3.45335 14.8403 4.93806 15.2969C4.94851 15.3001 4.95968 15.2999 4.97005 15.2965C4.98043 15.2931 4.98951 15.2866 4.99608 15.2779C5.31496 14.844 5.59752 14.3846 5.84087 13.9042C5.84421 13.8976 5.84612 13.8904 5.84647 13.883C5.84682 13.8757 5.8456 13.8683 5.84289 13.8614C5.84019 13.8545 5.83605 13.8483 5.83076 13.8431C5.82547 13.838 5.81915 13.834 5.81221 13.8314C5.36664 13.661 4.93528 13.4554 4.52217 13.2168C4.51467 13.2124 4.50837 13.2062 4.50382 13.1988C4.49928 13.1914 4.49663 13.183 4.49612 13.1743C4.4956 13.1656 4.49724 13.1569 4.50087 13.149C4.50451 13.1411 4.51004 13.1342 4.51697 13.1289C4.6039 13.064 4.68932 12.9971 4.77316 12.9282C4.78052 12.9221 4.78941 12.9182 4.79885 12.917C4.8083 12.9157 4.8179 12.9171 4.8266 12.921C7.53304 14.1562 10.4631 14.1562 13.1375 12.921C13.1463 12.9168 13.156 12.9153 13.1655 12.9164C13.1751 12.9176 13.1842 12.9214 13.1916 12.9275C13.2756 12.9968 13.3612 13.0639 13.4485 13.1289C13.4555 13.1341 13.461 13.141 13.4647 13.1489C13.4684 13.1567 13.4701 13.1654 13.4697 13.1741C13.4692 13.1828 13.4666 13.1912 13.4621 13.1987C13.4577 13.2061 13.4514 13.2124 13.4439 13.2168C13.0318 13.4575 12.6 13.6628 12.1533 13.8308C12.1463 13.8334 12.14 13.8375 12.1348 13.8428C12.1295 13.848 12.1254 13.8543 12.1228 13.8612C12.1201 13.8682 12.119 13.8756 12.1194 13.883C12.1198 13.8904 12.1217 13.8976 12.1251 13.9042C12.3726 14.3819 12.6547 14.8408 12.9693 15.2772C12.9757 15.2861 12.9847 15.2928 12.9951 15.2964C13.0055 15.2999 13.0168 15.3001 13.0273 15.2968C14.5147 14.8417 15.9135 14.1361 17.1634 13.2104C17.1695 13.2059 17.1746 13.2002 17.1783 13.1937C17.182 13.1871 17.1843 13.1798 17.1849 13.1723C17.5299 9.60657 16.6075 6.50919 14.7399 3.76337ZM6.24506 11.2937C5.43022 11.2937 4.75882 10.5459 4.75882 9.62758C4.75882 8.70924 5.4172 7.96142 6.24506 7.96142C7.07938 7.96142 7.74429 8.71574 7.73127 9.62752C7.73127 10.5459 7.07286 11.2937 6.24506 11.2937ZM11.7401 11.2937C10.9253 11.2937 10.2539 10.5459 10.2539 9.62758C10.2539 8.70924 10.9123 7.96142 11.7401 7.96142C12.5745 7.96142 13.2394 8.71574 13.2264 9.62752C13.2264 10.5459 12.5745 11.2937 11.7401 11.2937Z" fill="white"/>
</svg>
