<svg width="18" height="18" viewBox="0 0 18 18" fill="none" xmlns="http://www.w3.org/2000/svg">
<path d="M18 4.42455C17.3381 4.71009 16.6177 4.9156 15.8757 4.99564C16.6415 4.5392 17.2234 3.81885 17.4981 2.96223C16.7908 3.38405 15.9904 3.69339 15.1576 3.85347C14.4826 3.13312 13.5243 2.6875 12.4622 2.6875C10.418 2.6875 8.77395 4.34451 8.77395 6.37792C8.77395 6.66346 8.80856 6.94901 8.8648 7.22373C5.80387 7.06366 3.07391 5.60133 1.25898 3.36242C0.93883 3.91187 0.75712 4.5392 0.75712 5.22494C0.75712 6.50555 1.40824 7.63474 2.40115 8.29884C1.79546 8.27505 1.22437 8.10416 0.733325 7.82943V7.87486C0.733325 9.66815 2.00096 11.1543 3.69042 11.4961C3.38108 11.5761 3.05011 11.6215 2.71914 11.6215C2.47903 11.6215 2.25189 11.5977 2.02259 11.5653C2.48984 13.0276 3.8505 14.0897 5.47074 14.1243C4.2031 15.1173 2.61531 15.7013 0.891239 15.7013C0.581901 15.7013 0.296359 15.6905 0 15.6559C1.63538 16.705 3.57577 17.3107 5.66542 17.3107C12.4492 17.3107 16.1613 11.6907 16.1613 6.81273C16.1613 6.65265 16.1613 6.49257 16.1505 6.33249C16.8686 5.80684 17.4981 5.15571 18 4.42455Z" fill="white"/>
</svg>
