<svg width="18" height="18" viewBox="0 0 18 18" fill="none" xmlns="http://www.w3.org/2000/svg">
<path d="M17.1721 15.5336C17.1721 15.7616 17.1331 15.9746 17.0551 16.1726C16.9771 16.3706 16.8661 16.5446 16.7221 16.6946C16.5781 16.8446 16.4101 16.9616 16.2181 17.0456C16.0261 17.1296 15.8161 17.1716 15.5881 17.1716H2.52012C2.29212 17.1716 2.07613 17.1296 1.87213 17.0456C1.66813 16.9616 1.48813 16.8446 1.33213 16.6946C1.17613 16.5446 1.05313 16.3706 0.963125 16.1726C0.873125 15.9746 0.828125 15.7616 0.828125 15.5336V6.55155C0.828125 6.09555 0.987125 5.70855 1.30512 5.39055C1.62312 5.07255 2.01012 4.91355 2.46612 4.91355H15.5341C15.9901 4.91355 16.3771 5.07255 16.6951 5.39055C17.0131 5.70855 17.1721 6.09555 17.1721 6.55155V8.99955H13.0861C12.6301 8.99955 12.2431 9.15555 11.9251 9.46755C11.6071 9.77955 11.4481 10.1636 11.4481 10.6196C11.4601 10.9316 11.5261 11.2076 11.6461 11.4476C11.7421 11.6516 11.9011 11.8376 12.1231 12.0056C12.3451 12.1736 12.6661 12.2576 13.0861 12.2576H17.1721V15.5336ZM14.7241 4.08555H6.55212C7.20012 3.74955 7.81212 3.42555 8.38812 3.11355C8.89213 2.84955 9.39013 2.58555 9.88213 2.32155C10.3741 2.05755 10.7581 1.85355 11.0341 1.70955C11.4541 1.48155 11.8291 1.37655 12.1591 1.39455C12.4891 1.41255 12.7681 1.46955 12.9961 1.56555C13.2601 1.69755 13.4881 1.87155 13.6801 2.08755L14.7241 4.08555ZM12.2761 10.6196C12.2761 10.3916 12.3541 10.1996 12.5101 10.0436C12.6661 9.88755 12.8581 9.80955 13.0861 9.80955C13.3141 9.80955 13.5061 9.88755 13.6621 10.0436C13.8181 10.1996 13.8961 10.3916 13.8961 10.6196C13.8961 10.8476 13.8181 11.0426 13.6621 11.2046C13.5061 11.3666 13.3141 11.4476 13.0861 11.4476C12.8581 11.4476 12.6661 11.3666 12.5101 11.2046C12.3541 11.0426 12.2761 10.8476 12.2761 10.6196Z" fill="white"/>
</svg>
