<svg width="49" height="16" viewBox="0 0 49 16" fill="none" xmlns="http://www.w3.org/2000/svg">
<mask id="mask0_752_92" style="mask-type:alpha" maskUnits="userSpaceOnUse" x="0" y="2" width="6" height="13">
<path d="M0.220703 2.21484L5.58014 5.4841V14.488L0.220703 11.2187V2.21484Z" fill="white"/>
</mask>
<g mask="url(#mask0_752_92)">
<path fill-rule="evenodd" clip-rule="evenodd" d="M-1.36148 19.6653L14.1305 4.38573L14.2058 4.46205L-1.28622 19.7416L-1.36148 19.6653ZM14.5822 4.84362L-0.90987 20.1232L-0.834601 20.1995L14.6574 4.91994L14.5822 4.84362ZM12.023 2.2489L-3.46901 17.5285L-3.39374 17.6048L12.0983 2.32522L12.023 2.2489ZM-3.31848 17.6811L12.1735 2.40154L12.2488 2.47785L-3.24321 17.7574L-3.31848 17.6811ZM14.7327 4.99626L-0.759345 20.2758L-0.684077 20.3521L14.8079 5.07257L14.7327 4.99626ZM-3.16794 17.8337L12.3241 2.55417L12.3994 2.63048L-3.09267 17.91L-3.16794 17.8337ZM14.8832 5.14889L-0.608807 20.4284L-0.533539 20.5048L14.9585 5.2252L14.8832 5.14889ZM-3.0174 17.9864L12.4746 2.7068L12.5499 2.78311L-2.94213 18.0627L-3.0174 17.9864ZM15.0338 5.30152L-0.458269 20.5811L-0.383001 20.6574L15.109 5.37783L15.0338 5.30152ZM-2.86686 18.139L12.6252 2.85943L12.7004 2.93574L-2.79159 18.2153L-2.86686 18.139ZM15.1843 5.45415L-0.307732 20.7337L-0.232464 20.81L15.2596 5.53047L15.1843 5.45415ZM-2.71632 18.2916L12.7757 3.01206L12.851 3.08838L-2.64106 18.3679L-2.71632 18.2916ZM15.3348 5.60678L-0.157195 20.8863L-0.0819257 20.9627L15.4101 5.6831L15.3348 5.60678ZM-2.56579 18.4443L12.9262 3.16469L13.0015 3.24101L-2.49052 18.5206L-2.56579 18.4443ZM15.4854 5.75941L-0.0066566 21.039L0.0686125 21.1153L15.5606 5.83573L15.4854 5.75941ZM-2.41525 18.5969L13.0768 3.31732L13.152 3.39364L-2.33998 18.6732L-2.41525 18.5969ZM15.6359 5.91204L0.143882 21.1916L0.219151 21.2679L15.7112 5.98836L15.6359 5.91204ZM-2.26471 18.7495L13.2273 3.46995L13.3026 3.54627L-2.18944 18.8258L-2.26471 18.7495ZM15.7864 6.06468L0.29442 21.3442L0.369689 21.4206L15.8617 6.14099L15.7864 6.06468ZM-2.11417 18.9021L13.3778 3.62259L13.4531 3.6989L-2.0389 18.9785L-2.11417 18.9021ZM15.937 6.21731L0.444957 21.4969L0.520226 21.5732L16.0122 6.29362L15.937 6.21731ZM-1.96364 19.0548L13.5284 3.77522L13.6037 3.85153L-1.88837 19.1311L-1.96364 19.0548ZM16.0875 6.36994L0.595496 21.6495L0.670765 21.7258L16.1628 6.44625L16.0875 6.36994ZM-3.61955 17.3758L11.8725 2.09627L11.9477 2.17259L-3.54428 17.4521L-3.61955 17.3758ZM16.2381 6.52257L0.746034 21.8021L0.821303 21.8784L16.3133 6.59889L16.2381 6.52257ZM-1.8131 19.2074L13.6789 3.92785L13.7542 4.00416L-1.73783 19.2837L-1.8131 19.2074ZM16.3886 6.6752L0.896572 21.9548L0.971841 22.0311L16.4639 6.75152L16.3886 6.6752ZM-1.66256 19.36L13.8295 4.08048L13.9047 4.1568L-1.58729 19.4364L-1.66256 19.36ZM16.5391 6.82783L1.04711 22.1074L1.12238 22.1837L16.6144 6.90415L16.5391 6.82783ZM-1.51202 19.5127L13.98 4.23311L14.0553 4.30943L-1.43675 19.589L-1.51202 19.5127ZM16.6897 6.98046L1.19765 22.26L1.27292 22.3363L16.7649 7.05678L16.6897 6.98046ZM16.8402 7.1331L1.34819 22.4127L1.42345 22.489L16.9155 7.20941L16.8402 7.1331ZM-1.21095 19.8179L14.2811 4.53836L14.3563 4.61468L-1.13568 19.8942L-1.21095 19.8179ZM16.9907 7.28573L1.49872 22.5653L1.57399 22.6416L17.066 7.36204L16.9907 7.28573ZM-1.06041 19.9706L14.4316 4.69099L14.5069 4.76731L-0.985139 20.0469L-1.06041 19.9706ZM17.1413 7.43835L1.64926 22.7179L1.72453 22.7942L17.2166 7.51466L17.1413 7.43835ZM-8.88836 12.0338L6.60366 -3.2458L6.67893 -3.16949L-8.8131 12.1101L-8.88836 12.0338ZM9.1628 -0.65108L-6.32922 14.6285L-6.25395 14.7048L9.23807 -0.574764L9.1628 -0.65108ZM-8.73783 12.1864L6.7542 -3.09317L6.82946 -3.01685L-8.66256 12.2627L-8.73783 12.1864ZM9.31333 -0.498449L-6.1787 14.7811L-6.10343 14.8574L9.38859 -0.422133L9.31333 -0.498449ZM-8.58729 12.339L6.90473 -2.94054L6.98 -2.86422L-8.51202 12.4153L-8.58729 12.339ZM9.46386 -0.345817L-6.02816 14.9337L-5.95289 15.0101L9.53913 -0.269502L9.46386 -0.345817ZM-8.43675 12.4917L7.05527 -2.78791L7.13054 -2.71159L-8.36148 12.568L-8.43675 12.4917ZM9.6144 -0.193186L-5.87762 15.0864L-5.80235 15.1627L9.68967 -0.11687L9.6144 -0.193186ZM-8.28621 12.6443L7.20581 -2.63527L7.28108 -2.55896L-8.21094 12.7206L-8.28621 12.6443ZM9.76494 -0.0405542L-5.72708 15.239L-5.65181 15.3153L9.84021 0.0357611L9.76494 -0.0405542ZM-8.13568 12.7969L7.35635 -2.48264L7.43162 -2.40633L-8.06041 12.8732L-8.13568 12.7969ZM9.91548 0.112077L-5.57654 15.3916L-5.50127 15.468L9.99075 0.188393L9.91548 0.112077ZM-7.98514 12.9495L7.50688 -2.33001L7.58215 -2.2537L-7.90987 13.0259L-7.98514 12.9495ZM10.066 0.264709L-5.42601 15.5443L-5.35074 15.6206L10.1413 0.341024L10.066 0.264709ZM-7.8346 13.1022L7.65742 -2.17738L7.73269 -2.10107L-7.75933 13.1785L-7.8346 13.1022ZM10.2166 0.41734L-5.27547 15.6969L-5.2002 15.7732L10.2918 0.493655L10.2166 0.41734ZM-7.68406 13.2548L7.80796 -2.02475L7.88323 -1.94843L-7.60879 13.3311L-7.68406 13.2548ZM10.3671 0.569971L-5.12493 15.8495L-5.04966 15.9258L10.4424 0.646287L10.3671 0.569971ZM-7.53352 13.4074L7.9585 -1.87212L8.03377 -1.7958L-7.45825 13.4838L-7.53352 13.4074ZM10.5176 0.722603L-4.97439 16.0022L-4.89912 16.0785L10.5929 0.798918L10.5176 0.722603ZM-7.38299 13.5601L8.10904 -1.7195L8.1843 -1.64318L-7.30772 13.6364L-7.38299 13.5601ZM10.6682 0.875234L-4.82385 16.1548L-4.74858 16.2311L10.7434 0.95155L10.6682 0.875234ZM-9.0389 11.8811L6.45312 -3.39843L6.52839 -3.32212L-8.96363 11.9574L-9.0389 11.8811ZM10.8187 1.02787L-4.67332 16.3074L-4.59805 16.3837L10.894 1.10418L10.8187 1.02787ZM-7.23245 13.7127L8.25957 -1.56687L8.33484 -1.49055L-7.15718 13.789L-7.23245 13.7127ZM10.9692 1.1805L-4.52278 16.4601L-4.44751 16.5364L11.0445 1.25681L10.9692 1.1805ZM-7.08191 13.8653L8.41011 -1.41424L8.48538 -1.33792L-7.00664 13.9416L-7.08191 13.8653ZM11.1198 1.33312L-4.37224 16.6127L-4.29697 16.689L11.195 1.40943L11.1198 1.33312ZM-6.93137 14.018L8.56065 -1.26161L8.63592 -1.18529L-6.8561 14.0943L-6.93137 14.018ZM11.2703 1.48575L-4.2217 16.7653L-4.14643 16.8416L11.3456 1.56206L11.2703 1.48575ZM-6.78083 14.1706L8.71119 -1.10897L8.78646 -1.03266L-6.70556 14.2469L-6.78083 14.1706ZM11.4209 1.63838L-4.07116 16.9179L-3.9959 16.9943L11.4961 1.71469L11.4209 1.63838ZM-6.6303 14.3232L8.86173 -0.956343L8.93699 -0.880027L-6.55503 14.3995L-6.6303 14.3232ZM11.5714 1.79101L-3.92063 17.0706L-3.84536 17.1469L11.6467 1.86733L11.5714 1.79101ZM-6.47976 14.4758L9.01226 -0.803711L9.08753 -0.727396L-6.40449 14.5522L-6.47976 14.4758ZM11.7219 1.94364L-3.77009 17.2232L-3.69482 17.2995L11.7972 2.01996L11.7219 1.94364Z" fill="white"/>
</g>
<mask id="mask1_752_92" style="mask-type:alpha" maskUnits="userSpaceOnUse" x="7" y="2" width="3" height="2">
<path d="M7.50195 3.47385V2L9.16338 3.01829L7.50195 3.47385Z" fill="white"/>
</mask>
<g mask="url(#mask1_752_92)">
<path fill-rule="evenodd" clip-rule="evenodd" d="M5.38852 19.6113L20.8805 4.33171L20.9558 4.40803L5.46378 19.6876L5.38852 19.6113ZM21.3322 4.78961L5.84013 20.0692L5.9154 20.1455L21.4074 4.86592L21.3322 4.78961ZM18.773 2.19489L3.28099 17.4744L3.35626 17.5508L18.8483 2.2712L18.773 2.19489ZM3.43152 17.6271L18.9235 2.34752L18.9988 2.42383L3.50679 17.7034L3.43152 17.6271ZM21.4827 4.94224L5.99065 20.2218L6.06592 20.2981L21.5579 5.01855L21.4827 4.94224ZM3.58206 17.7797L19.0741 2.50015L19.1494 2.57647L3.65733 17.856L3.58206 17.7797ZM21.6332 5.09487L6.14119 20.3744L6.21646 20.4507L21.7085 5.17119L21.6332 5.09487ZM3.7326 17.9323L19.2246 2.65278L19.2999 2.7291L3.80787 18.0087L3.7326 17.9323ZM21.7838 5.2475L6.29173 20.5271L6.367 20.6034L21.859 5.32382L21.7838 5.2475ZM3.88314 18.085L19.3752 2.80541L19.4504 2.88173L3.95841 18.1613L3.88314 18.085ZM21.9343 5.40013L6.44227 20.6797L6.51754 20.756L22.0096 5.47645L21.9343 5.40013ZM4.03368 18.2376L19.5257 2.95805L19.601 3.03436L4.10894 18.3139L4.03368 18.2376ZM22.0848 5.55277L6.59281 20.8323L6.66807 20.9086L22.1601 5.62908L22.0848 5.55277ZM4.18421 18.3902L19.6762 3.11068L19.7515 3.18699L4.25948 18.4666L4.18421 18.3902ZM22.2354 5.7054L6.74334 20.985L6.81861 21.0613L22.3106 5.78171L22.2354 5.7054ZM4.33475 18.5429L19.8268 3.26331L19.902 3.33962L4.41002 18.6192L4.33475 18.5429ZM22.3859 5.85803L6.89388 21.1376L6.96915 21.2139L22.4612 5.93434L22.3859 5.85803ZM4.48529 18.6955L19.9773 3.41594L20.0526 3.49225L4.56056 18.7718L4.48529 18.6955ZM22.5364 6.01066L7.04442 21.2902L7.11969 21.3665L22.6117 6.08698L22.5364 6.01066ZM4.63583 18.8481L20.1278 3.56857L20.2031 3.64489L4.7111 18.9244L4.63583 18.8481ZM22.687 6.16329L7.19496 21.4428L7.27023 21.5192L22.7622 6.23961L22.687 6.16329ZM4.78636 19.0008L20.2784 3.7212L20.3537 3.79752L4.86163 19.0771L4.78636 19.0008ZM22.8375 6.31592L7.3455 21.5955L7.42077 21.6718L22.9128 6.39224L22.8375 6.31592ZM3.13045 17.3218L18.6225 2.04226L18.6977 2.11857L3.20572 17.3981L3.13045 17.3218ZM22.9881 6.46855L7.49603 21.7481L7.5713 21.8244L23.0633 6.54487L22.9881 6.46855ZM4.9369 19.1534L20.4289 3.87383L20.5042 3.95015L5.01217 19.2297L4.9369 19.1534ZM23.1386 6.62119L7.64657 21.9007L7.72184 21.9771L23.2139 6.6975L23.1386 6.62119ZM5.08744 19.306L20.5795 4.02646L20.6547 4.10278L5.16271 19.3823L5.08744 19.306ZM23.2891 6.77382L7.79711 22.0534L7.87238 22.1297L23.3644 6.85013L23.2891 6.77382ZM5.23798 19.4587L20.73 4.1791L20.8053 4.25541L5.31325 19.535L5.23798 19.4587ZM23.4397 6.92645L7.94765 22.206L8.02292 22.2823L23.5149 7.00276L23.4397 6.92645ZM23.5902 7.07908L8.09819 22.3586L8.17345 22.435L23.6655 7.1554L23.5902 7.07908ZM5.53905 19.7639L21.0311 4.48435L21.1063 4.56066L5.61432 19.8402L5.53905 19.7639ZM23.7407 7.23171L8.24872 22.5113L8.32399 22.5876L23.816 7.30803L23.7407 7.23171ZM5.68959 19.9165L21.1816 4.63698L21.2569 4.71329L5.76486 19.9929L5.68959 19.9165ZM23.8913 7.38433L8.39926 22.6639L8.47453 22.7402L23.9666 7.46064L23.8913 7.38433ZM-2.13836 11.9797L13.3537 -3.29982L13.4289 -3.2235L-2.0631 12.0561L-2.13836 11.9797ZM15.9128 -0.705096L0.420781 14.5745L0.49605 14.6508L15.9881 -0.62878L15.9128 -0.705096ZM-1.98783 12.1324L13.5042 -3.14719L13.5795 -3.07087L-1.91256 12.2087L-1.98783 12.1324ZM16.0633 -0.552465L0.571304 14.7271L0.646573 14.8034L16.1386 -0.476149L16.0633 -0.552465ZM-1.83729 12.285L13.6547 -2.99455L13.73 -2.91824L-1.76202 12.3613L-1.83729 12.285ZM16.2139 -0.399833L0.721842 14.8797L0.797111 14.956L16.2891 -0.323518L16.2139 -0.399833ZM-1.68675 12.4376L13.8053 -2.84192L13.8805 -2.76561L-1.61148 12.514L-1.68675 12.4376ZM16.3644 -0.247202L0.87238 15.0324L0.947649 15.1087L16.4397 -0.170887L16.3644 -0.247202ZM-1.53621 12.5903L13.9558 -2.68929L14.0311 -2.61298L-1.46094 12.6666L-1.53621 12.5903ZM16.5149 -0.0945703L1.02292 15.185L1.09819 15.2613L16.5902 -0.018255L16.5149 -0.0945703ZM-1.38568 12.7429L14.1063 -2.53666L14.1816 -2.46034L-1.31041 12.8192L-1.38568 12.7429ZM16.6655 0.0580612L1.17346 15.3376L1.24873 15.4139L16.7407 0.134377L16.6655 0.0580612ZM-1.23514 12.8955L14.2569 -2.38403L14.3322 -2.30771L-1.15987 12.9718L-1.23514 12.8955ZM16.816 0.210693L1.32399 15.4903L1.39926 15.5666L16.8913 0.287008L16.816 0.210693ZM-1.0846 13.0482L14.4074 -2.2314L14.4827 -2.15508L-1.00933 13.1245L-1.0846 13.0482ZM16.9666 0.363324L1.47453 15.6429L1.5498 15.7192L17.0418 0.439639L16.9666 0.363324ZM-0.934062 13.2008L14.558 -2.07877L14.6332 -2.00245L-0.858793 13.2771L-0.934062 13.2008ZM17.1171 0.515955L1.62507 15.7955L1.70034 15.8718L17.1924 0.592271L17.1171 0.515955ZM-0.783523 13.3534L14.7085 -1.92613L14.7838 -1.84982L-0.708255 13.4297L-0.783523 13.3534ZM17.2676 0.668587L1.77561 15.9481L1.85088 16.0245L17.3429 0.744902L17.2676 0.668587ZM-0.632985 13.506L14.859 -1.77352L14.9343 -1.6972L-0.557716 13.5824L-0.632985 13.506ZM17.4182 0.821218L1.92615 16.1008L2.00142 16.1771L17.4934 0.897534L17.4182 0.821218ZM-2.2889 11.8271L13.2031 -3.45245L13.2784 -3.37613L-2.21363 11.9034L-2.2889 11.8271ZM17.5687 0.973849L2.07668 16.2534L2.15195 16.3297L17.644 1.05016L17.5687 0.973849ZM-0.482447 13.6587L15.0096 -1.62088L15.0848 -1.54457L-0.407179 13.735L-0.482447 13.6587ZM17.7192 1.12648L2.22722 16.406L2.30249 16.4824L17.7945 1.2028L17.7192 1.12648ZM-0.331909 13.8113L15.1601 -1.46825L15.2354 -1.39194L-0.25664 13.8876L-0.331909 13.8113ZM17.8698 1.2791L2.37776 16.5587L2.45303 16.635L17.945 1.35541L17.8698 1.2791ZM-0.181371 13.9639L15.3106 -1.31562L15.3859 -1.23931L-0.106103 14.0403L-0.181371 13.9639ZM18.0203 1.43173L2.5283 16.7113L2.60357 16.7876L18.0956 1.50805L18.0203 1.43173ZM-0.0308331 14.1166L15.4612 -1.16299L15.5365 -1.08667L0.0444356 14.1929L-0.0308331 14.1166ZM18.1709 1.58436L2.67884 16.8639L2.7541 16.9402L18.2461 1.66068L18.1709 1.58436ZM0.119705 14.2692L15.6117 -1.01036L15.687 -0.934043L0.194974 14.3455L0.119705 14.2692ZM18.3214 1.73699L2.82937 17.0166L2.90464 17.0929L18.3967 1.81331L18.3214 1.73699ZM0.270243 14.4218L15.7623 -0.857727L15.8375 -0.781412L0.345512 14.4981L0.270243 14.4218ZM18.4719 1.88963L2.97991 17.1692L3.05518 17.2455L18.5472 1.96594L18.4719 1.88963Z" fill="white"/>
</g>
<mask id="mask2_752_92" style="mask-type:alpha" maskUnits="userSpaceOnUse" x="8" y="7" width="4" height="9">
<path d="M8.2832 13.7648V7.78906L10.0518 8.83415V11.7818L11.7936 12.8805L11.74 15.8282L8.2832 13.7648Z" fill="white"/>
</mask>
<g mask="url(#mask2_752_92)">
<path fill-rule="evenodd" clip-rule="evenodd" d="M6.19711 25.4003L21.6891 10.1208L21.7644 10.1971L6.27238 25.4767L6.19711 25.4003ZM22.1407 10.5787L6.64872 25.8582L6.72399 25.9345L22.216 10.655L22.1407 10.5787ZM19.5816 7.98395L4.08958 23.2635L4.16485 23.3398L19.6569 8.06027L19.5816 7.98395ZM4.24012 23.4161L19.7321 8.13658L19.8074 8.2129L4.31539 23.4925L4.24012 23.4161ZM22.2913 10.7313L6.79925 26.0109L6.87452 26.0872L22.3665 10.8076L22.2913 10.7313ZM4.39066 23.5688L19.8827 8.28921L19.9579 8.36553L4.46592 23.6451L4.39066 23.5688ZM22.4418 10.8839L6.94979 26.1635L7.02505 26.2398L22.5171 10.9602L22.4418 10.8839ZM4.54119 23.7214L20.0332 8.44184L20.1085 8.51816L4.61646 23.7977L4.54119 23.7214ZM22.5923 11.0366L7.10032 26.3161L7.17559 26.3924L22.6676 11.1129L22.5923 11.0366ZM4.69173 23.874L20.1838 8.59448L20.259 8.67079L4.767 23.9503L4.69173 23.874ZM22.7429 11.1892L7.25086 26.4688L7.32613 26.5451L22.8182 11.2655L22.7429 11.1892ZM4.84227 24.0267L20.3343 8.74711L20.4096 8.82342L4.91754 24.103L4.84227 24.0267ZM22.8934 11.3418L7.4014 26.6214L7.47667 26.6977L22.9687 11.4181L22.8934 11.3418ZM4.99281 24.1793L20.4848 8.89974L20.5601 8.97605L5.06808 24.2556L4.99281 24.1793ZM23.044 11.4945L7.55194 26.774L7.62721 26.8503L23.1192 11.5708L23.044 11.4945ZM5.14334 24.3319L20.6354 9.05237L20.7106 9.12869L5.21861 24.4082L5.14334 24.3319ZM23.1945 11.6471L7.70248 26.9266L7.77774 27.003L23.2698 11.7234L23.1945 11.6471ZM5.29388 24.4846L20.7859 9.205L20.8612 9.28132L5.36915 24.5609L5.29388 24.4846ZM23.345 11.7997L7.85301 27.0793L7.92828 27.1556L23.4203 11.876L23.345 11.7997ZM5.44442 24.6372L20.9364 9.35763L21.0117 9.43395L5.51969 24.7135L5.44442 24.6372ZM23.4956 11.9524L8.00355 27.2319L8.07882 27.3082L23.5708 12.0287L23.4956 11.9524ZM5.59496 24.7898L21.087 9.51026L21.1622 9.58658L5.67023 24.8661L5.59496 24.7898ZM23.6461 12.105L8.15409 27.3845L8.22936 27.4609L23.7214 12.1813L23.6461 12.105ZM3.93904 23.1109L19.4311 7.83132L19.5063 7.90763L4.01431 23.1872L3.93904 23.1109ZM23.7966 12.2576L8.30463 27.5372L8.3799 27.6135L23.8719 12.3339L23.7966 12.2576ZM5.7455 24.9425L21.2375 9.6629L21.3128 9.73921L5.82077 25.0188L5.7455 24.9425ZM23.9472 12.4102L8.45517 27.6898L8.53043 27.7661L24.0225 12.4866L23.9472 12.4102ZM5.89603 25.0951L21.3881 9.81553L21.4633 9.89184L5.9713 25.1714L5.89603 25.0951ZM24.0977 12.5629L8.6057 27.8424L8.68097 27.9188L24.173 12.6392L24.0977 12.5629ZM6.04657 25.2477L21.5386 9.96816L21.6139 10.0445L6.12184 25.324L6.04657 25.2477ZM24.2483 12.7155L8.75624 27.9951L8.83151 28.0714L24.3235 12.7918L24.2483 12.7155ZM24.3988 12.8681L8.90678 28.1477L8.98205 28.224L24.4741 12.9445L24.3988 12.8681ZM6.34765 25.553L21.8397 10.2734L21.9149 10.3497L6.42292 25.6293L6.34765 25.553ZM24.5493 13.0208L9.05732 28.3003L9.13259 28.3766L24.6246 13.0971L24.5493 13.0208ZM6.49819 25.7056L21.9902 10.426L22.0655 10.5024L6.57345 25.7819L6.49819 25.7056ZM24.6999 13.1734L9.20785 28.4529L9.28312 28.5293L24.7751 13.2497L24.6999 13.1734ZM-1.32977 17.7688L14.1623 2.48925L14.2375 2.56556L-1.2545 17.8451L-1.32977 17.7688ZM16.7214 5.08397L1.22937 20.3635L1.30464 20.4398L16.7967 5.16028L16.7214 5.08397ZM-1.17923 17.9214L14.3128 2.64188L14.3881 2.71819L-1.10396 17.9978L-1.17923 17.9214ZM16.8719 5.2366L1.3799 20.5162L1.45517 20.5925L16.9472 5.31291L16.8719 5.2366ZM-1.02869 18.0741L14.4633 2.79451L14.5386 2.87082L-0.953426 18.1504L-1.02869 18.0741ZM17.0225 5.38923L1.53044 20.6688L1.6057 20.7451L17.0977 5.46554L17.0225 5.38923ZM-0.878157 18.2267L14.6139 2.94714L14.6891 3.02346L-0.802888 18.303L-0.878157 18.2267ZM17.173 5.54186L1.68097 20.8214L1.75624 20.8977L17.2483 5.61818L17.173 5.54186ZM-0.727618 18.3793L14.7644 3.09977L14.8397 3.17609L-0.65235 18.4556L-0.727618 18.3793ZM17.3235 5.69449L1.83151 20.974L1.90678 21.0504L17.3988 5.77081L17.3235 5.69449ZM-0.577082 18.532L14.9149 3.2524L14.9902 3.32872L-0.501813 18.6083L-0.577082 18.532ZM17.4741 5.84712L1.98205 21.1267L2.05732 21.203L17.5493 5.92344L17.4741 5.84712ZM-0.426544 18.6846L15.0655 3.40503L15.1407 3.48135L-0.351275 18.7609L-0.426544 18.6846ZM17.6246 5.99976L2.13259 21.2793L2.20786 21.3556L17.6999 6.07607L17.6246 5.99976ZM-0.276006 18.8372L15.216 3.55767L15.2913 3.63398L-0.200737 18.9135L-0.276006 18.8372ZM17.7751 6.15239L2.28313 21.4319L2.35839 21.5083L17.8504 6.2287L17.7751 6.15239ZM-0.125468 18.9899L15.3666 3.7103L15.4418 3.78661L-0.0501992 19.0662L-0.125468 18.9899ZM17.9257 6.30502L2.43366 21.5846L2.50893 21.6609L18.001 6.38133L17.9257 6.30502ZM0.0250703 19.1425L15.5171 3.86293L15.5924 3.93924L0.100339 19.2188L0.0250703 19.1425ZM18.0762 6.45765L2.5842 21.7372L2.65947 21.8135L18.1515 6.53396L18.0762 6.45765ZM0.175609 19.2951L15.6676 4.01555L15.7429 4.09186L0.250877 19.3714L0.175609 19.2951ZM18.2268 6.61028L2.73474 21.8898L2.81001 21.9662L18.302 6.6866L18.2268 6.61028ZM-1.48031 17.6162L14.0117 2.33661L14.087 2.41293L-1.40504 17.6925L-1.48031 17.6162ZM18.3773 6.76291L2.88528 22.0425L2.96055 22.1188L18.4526 6.83923L18.3773 6.76291ZM0.326146 19.4477L15.8182 4.16818L15.8934 4.24449L0.401415 19.5241L0.326146 19.4477ZM18.5278 6.91554L3.03581 22.1951L3.11108 22.2714L18.6031 6.99186L18.5278 6.91554ZM0.476684 19.6004L15.9687 4.32081L16.044 4.39713L0.551953 19.6767L0.476684 19.6004ZM18.6784 7.06816L3.18635 22.3477L3.26162 22.424L18.7536 7.14448L18.6784 7.06816ZM0.627222 19.753L16.1192 4.47344L16.1945 4.54976L0.702491 19.8293L0.627222 19.753ZM18.8289 7.22079L3.33689 22.5004L3.41216 22.5767L18.9042 7.29711L18.8289 7.22079ZM0.777761 19.9056L16.2698 4.62607L16.3451 4.70239L0.853029 19.9819L0.777761 19.9056ZM18.9795 7.37342L3.48743 22.653L3.5627 22.7293L19.0547 7.44974L18.9795 7.37342ZM0.928299 20.0583L16.4203 4.7787L16.4956 4.85502L1.00357 20.1346L0.928299 20.0583ZM19.13 7.52606L3.63797 22.8056L3.71323 22.8819L19.2053 7.60237L19.13 7.52606ZM1.07884 20.2109L16.5709 4.93134L16.6461 5.00765L1.15411 20.2872L1.07884 20.2109ZM19.2805 7.67869L3.7885 22.9582L3.86377 23.0346L19.3558 7.755L19.2805 7.67869Z" fill="white"/>
</g>
<path fill-rule="evenodd" clip-rule="evenodd" d="M0.122275 2.05562L3.97604e-06 2.08578L3.81807e-06 2.21172L0 11.2256L2.4302e-07 11.317L0.078545 11.3637L5.42083 14.5437L5.47943 14.5786L5.54524 14.5607L8.15801 13.8504L11.6308 15.9654L11.6876 16L11.7523 15.9843L14.5124 15.3144L14.6353 15.2845V15.1581V12.1032V12.0164L14.5627 11.9688L13.8369 11.4925V3.41793V3.32831L13.7606 3.28118L12.0668 2.23373L12.0628 2.21847L12.0482 2.22224L8.51194 0.035538L8.45447 0L8.38887 0.0161851L0.122275 2.05562ZM11.6164 2.33334L10.0861 1.38702L7.6928 2.00288L9.23247 2.9468L11.6164 2.33334ZM9.8333 1.23071L7.43847 1.84697L5.96703 0.944878L8.40029 0.344575L9.8333 1.23071ZM7.14957 1.92131L5.67456 1.01703L3.27023 1.6102L4.76182 2.53575L7.14957 1.92131ZM4.47442 2.60971L2.97931 1.68197L0.555333 2.27998L2.0894 3.22344L4.47442 2.60971ZM4.72658 2.76618L6.25319 3.71346L3.87942 4.3243L2.34316 3.3795L4.72658 2.76618ZM6.54059 3.6395L5.01399 2.69222L7.40004 2.07822V3.41834L6.54059 3.6395ZM6.50535 3.86993L4.13318 4.48036L5.62179 5.39585L7.9732 4.78075L6.50535 3.86993ZM8.25922 4.70593L6.79276 3.79597L9.19789 3.17706L10.6651 4.07657L8.25922 4.70593ZM8.12356 4.96301L5.73861 5.58688V8.31498L8.12356 7.72069V4.96301ZM8.12356 7.94163L5.73861 8.53591V11.2512L8.12356 10.6779V7.94163ZM5.52424 8.53539V11.2648L3.97 10.3197V7.59036L5.52424 8.53539ZM5.49534 11.4981L3.97 10.5706V13.2823H3.93046L5.52424 14.231V11.5157L5.49534 11.4981ZM3.75562 7.46001V10.1894L2.0674 9.16288V6.4335L3.75562 7.46001ZM3.75562 10.4403L2.0674 9.41378V12.1734L3.75562 13.1783V10.4403ZM1.85302 6.30315V9.03253L0.321568 8.10135L0.321569 5.37196L1.85302 6.30315ZM1.85302 9.28343L0.321567 8.35224L0.321566 11.1342L1.85302 12.0457V9.28343ZM8.12356 10.8984L5.73861 11.4717V14.1749L8.12356 13.5265V10.8984ZM8.33794 13.5835V10.8853C8.34482 10.8892 8.35204 10.8933 8.3596 10.8976C8.43133 10.9383 8.5309 10.9963 8.65209 11.0678C8.89433 11.2108 9.22124 11.4067 9.58091 11.6236C9.69105 11.69 9.80423 11.7584 9.91897 11.8278V14.5464L8.33794 13.5835ZM10.1334 14.6769L11.6608 15.6072V12.8869C11.2423 12.6312 10.6809 12.2893 10.1334 11.9576V14.6769ZM10.1334 11.658L12.5719 11.0544V8.28799L10.1334 8.89891V11.658ZM10.0218 8.70585L12.3932 8.11176L10.9815 7.22948L8.57973 7.82796L10.0218 8.70585ZM8.33794 7.93174V10.6426C8.34064 10.6438 8.34288 10.6448 8.3445 10.6456L8.34479 10.6457C8.35361 10.65 8.364 10.6553 8.37542 10.6613C8.3984 10.6735 8.4288 10.6904 8.46538 10.7111C8.53873 10.7527 8.63955 10.8115 8.76105 10.8832C9.00418 11.0267 9.33178 11.223 9.69162 11.44C9.76616 11.485 9.8421 11.5308 9.91897 11.5773V8.89422L8.33794 7.93174ZM12.7359 8.07316L11.2707 7.15742L13.5153 6.59811V9.31909L12.7863 9.50656V8.16406V8.10465L12.7359 8.07316ZM12.7863 10.9965V9.72791L13.5153 9.54044V11.4209L12.7863 10.9965ZM12.7593 11.2289L13.5536 11.6912L14.1878 12.1074C13.7784 12.2225 13.2696 12.3623 12.8241 12.4821C12.546 12.5568 12.293 12.6237 12.1043 12.6718C12.0098 12.6959 11.932 12.7152 11.8755 12.7283C11.8578 12.7325 11.8424 12.7359 11.8295 12.7387L11.8239 12.7353C11.4229 12.4902 10.8763 12.1572 10.3348 11.829L12.7593 11.2289ZM11.8752 12.9482V15.6236L14.3137 15.0317V12.2947C13.8926 12.4134 13.3508 12.5625 12.8798 12.6891C12.6013 12.764 12.3473 12.8311 12.1572 12.8795C12.0623 12.9038 11.9828 12.9234 11.9241 12.9371C11.906 12.9413 11.8896 12.9451 11.8752 12.9482ZM5.52424 8.2845V5.58753L3.97 4.63168V7.33946L5.52424 8.2845ZM3.75562 7.20911V4.49984L2.0674 3.46158V6.1826L3.75562 7.20911ZM1.85302 6.05225V3.36736V3.32974L0.32157 2.3879L0.321569 5.13483L0.327677 5.12478L1.85302 6.05225ZM13.5153 6.37718V3.55258L11.0445 4.19893V6.99286L13.5153 6.37718ZM10.8301 7.04628L8.33794 7.66727V4.90693L10.8301 4.25501V7.04628ZM8.94357 3.02115L7.61442 2.20629V3.36317L8.94357 3.02115ZM9.48679 3.10272L10.9526 4.00137L13.3147 3.38348L11.8692 2.48965L9.48679 3.10272Z" fill="white"/>
<path fill-rule="evenodd" clip-rule="evenodd" d="M40.3213 5.25638C40.5351 5.50579 40.8291 5.57148 41.1972 5.58243C41.2153 5.57968 41.2369 5.57708 41.2612 5.57417C41.3333 5.5655 41.4283 5.55409 41.5192 5.52769C41.829 5.43766 42.0562 5.24178 42.1594 4.93398C42.2566 4.64686 42.2651 4.34879 42.1667 4.05924C42.1035 3.87188 42.0051 3.69669 41.8338 3.58841C41.4341 3.33658 41.0138 3.30738 40.5837 3.50934C40.2715 3.65654 40.116 3.9169 40.0468 4.2466C39.9654 4.63348 40.0723 4.96561 40.3213 5.25638ZM34.773 6.56302C34.7171 6.60803 34.6612 6.65426 34.6053 6.7005C34.5883 6.69563 34.5701 6.68955 34.5519 6.68225V6.40486C34.5519 5.98939 34.5522 5.57361 34.5525 5.15784C34.5528 4.74206 34.5531 4.32629 34.5531 3.91082C34.5531 3.895 34.5528 3.87918 34.5525 3.86337C34.552 3.83174 34.5515 3.8001 34.5531 3.76847C34.5591 3.66384 34.5021 3.6237 34.4061 3.62126C34.3824 3.62126 34.3587 3.62066 34.335 3.62005C34.3113 3.61944 34.2876 3.61883 34.2639 3.61883H32.9883C32.6287 3.61883 32.6275 3.61883 32.6275 3.97651C32.6275 5.63961 32.6275 7.3015 32.6299 8.9646C32.6299 9.22739 32.636 9.49261 32.6591 9.75418C32.7259 10.4951 33.0211 11.1289 33.5532 11.6533C34.0635 12.157 34.6855 12.4417 35.3816 12.5317C36.0826 12.6229 36.7824 12.5755 37.4506 12.3005C38.1443 12.0146 38.6837 11.5572 39.0263 10.8844C39.296 10.3552 39.3968 9.79068 39.364 9.19697C39.319 8.39401 39.0591 7.68595 38.5087 7.08494C38.0167 6.54842 37.4141 6.24792 36.7058 6.12869C36.4094 6.07881 36.1166 6.09462 35.8202 6.12504C35.4241 6.1664 35.0791 6.31483 34.773 6.56302ZM36.0728 10.7633H36.0728H36.0728C36.0448 10.7624 36.0169 10.7615 35.9891 10.7615C35.7449 10.7737 35.5104 10.7335 35.2784 10.6472C34.886 10.4987 34.7062 10.1922 34.626 9.81258C34.564 9.52059 34.564 9.22739 34.6102 8.9281C34.6976 8.36481 35.0876 7.96942 35.6574 7.92562C35.8907 7.90737 36.1288 7.9098 36.362 7.92927C36.7714 7.96455 37.0739 8.1957 37.2562 8.54487C37.5392 9.08869 37.538 9.64955 37.2222 10.1861C37.0071 10.5498 36.6597 10.7141 36.2515 10.7603C36.1927 10.7669 36.1327 10.7651 36.0728 10.7633ZM23.8945 6.90343C23.9235 6.91508 23.9527 6.92681 23.9824 6.93773C23.9912 6.92257 23.9994 6.91016 24.0066 6.89924L24.0066 6.89923C24.0174 6.88299 24.0259 6.87004 24.031 6.85622C24.0383 6.82337 24.0395 6.7893 24.0395 6.75524C24.0401 6.49141 24.0401 6.22789 24.0401 5.96452V5.96399C24.0401 5.70044 24.0401 5.43704 24.0407 5.17365C24.0407 5.06172 24.0164 4.97048 23.8949 4.93884C23.8448 4.92569 23.7948 4.91154 23.7447 4.8974C23.6189 4.86184 23.493 4.82625 23.3652 4.80623C22.7712 4.71377 22.1747 4.66511 21.5721 4.66754C21.1894 4.66876 20.8164 4.71985 20.4532 4.81718C19.5578 5.05685 18.8167 5.53133 18.2895 6.31361C18.0562 6.65913 17.891 7.03627 17.7792 7.43167C17.6735 7.80152 17.6347 8.18475 17.631 8.57285C17.6262 9.22252 17.7331 9.84664 18.0076 10.4403C18.3247 11.1314 18.818 11.6642 19.4606 12.0536C20.0377 12.4027 20.6804 12.5597 21.3473 12.5889C21.6462 12.602 21.9472 12.5841 22.2476 12.5664L22.2479 12.5663C22.3382 12.561 22.4284 12.5556 22.5185 12.5512C22.9789 12.528 23.4272 12.4356 23.8719 12.3236C24.0225 12.2859 24.0371 12.2713 24.0383 12.1168C24.0407 11.5766 24.0395 11.0353 24.0371 10.4951C24.0362 10.4619 24.0264 10.4288 24.016 10.3937C24.0111 10.3773 24.0061 10.3605 24.0018 10.343C23.9823 10.347 23.9654 10.3497 23.9503 10.3521C23.924 10.3563 23.9033 10.3596 23.884 10.3673C23.5001 10.5231 23.1028 10.6143 22.691 10.6605C22.0993 10.7262 21.5113 10.7713 20.9221 10.6399C20.3038 10.5024 19.8749 10.1557 19.6975 9.54005C19.5602 9.06192 19.5165 8.57041 19.6052 8.07647C19.6538 7.80395 19.7315 7.53873 19.8798 7.29906C20.1167 6.91705 20.4811 6.72847 20.9039 6.63966C21.4785 6.51922 22.0605 6.54111 22.6363 6.61046C22.9031 6.64216 23.1665 6.70689 23.4296 6.77153C23.5199 6.79373 23.6102 6.81592 23.7006 6.83675C23.766 6.85187 23.8297 6.87744 23.8945 6.90343L23.8945 6.90343ZM31.3932 8.01565C31.3932 8.17786 31.3934 8.34008 31.3937 8.50229C31.3942 8.82672 31.3948 9.15115 31.3932 9.47558C31.3895 10.1812 31.1708 10.8163 30.7481 11.3784C30.4334 11.7969 30.0264 12.0949 29.5478 12.3091C28.927 12.5864 28.2758 12.6132 27.6222 12.5353C26.8325 12.4417 26.151 12.101 25.631 11.483C25.3552 11.1545 25.1633 10.7761 25.0442 10.3613C24.9288 9.961 24.8936 9.55344 24.8936 9.13979V6.50462C24.8936 6.49246 24.8935 6.48029 24.8935 6.46812C24.8933 6.41946 24.8931 6.3708 24.896 6.32213C24.9045 6.16762 24.9239 6.14208 25.0746 6.14086C25.6079 6.13721 26.1412 6.13843 26.6734 6.14208C26.8204 6.14329 26.8374 6.16276 26.841 6.30753C26.8444 6.4302 26.8436 6.55346 26.8429 6.67649V6.6765V6.67651V6.67653C26.8426 6.72919 26.8422 6.78181 26.8422 6.83432C26.8422 7.0372 26.8423 7.23999 26.8424 7.44275V7.44287V7.44298V7.4431C26.8426 8.05124 26.8428 8.65905 26.841 9.26754C26.8398 9.52668 26.8775 9.7773 26.9661 10.0218C27.1192 10.4416 27.5153 10.7408 27.9623 10.7615C28.0765 10.7664 28.192 10.7676 28.3062 10.764C28.8516 10.7421 29.2586 10.4233 29.3789 9.89044C29.4372 9.62887 29.4627 9.35635 29.4664 9.08748C29.4728 8.50677 29.4718 7.92552 29.4707 7.34409C29.4701 7.05335 29.4696 6.76256 29.47 6.47178C29.47 6.14208 29.4724 6.13964 29.792 6.13964C29.8838 6.13964 29.9756 6.13959 30.0674 6.13954H30.0674H30.0675H30.0675C30.4345 6.13935 30.8011 6.13916 31.1684 6.14208C31.3834 6.14329 31.3956 6.15667 31.3968 6.37566C31.3976 6.74065 31.3973 7.10563 31.3971 7.47061L31.3971 7.47713C31.3969 7.65745 31.3968 7.83776 31.3968 8.01808C31.3951 8.01635 31.3946 8.01585 31.394 8.01571C31.3939 8.01568 31.3938 8.01567 31.3937 8.01566C31.3935 8.01565 31.3934 8.01565 31.3932 8.01565ZM48.3547 8.25269L48.3553 8.25288C48.3623 8.23671 48.3686 8.22399 48.374 8.21331C48.3835 8.19428 48.3898 8.18175 48.3905 8.16772C48.3921 7.79879 48.3927 7.42931 48.3932 7.06002V7.05975V7.05948L48.3932 7.04687C48.3935 6.86645 48.3938 6.68608 48.3942 6.50583C48.3942 6.41946 48.348 6.36836 48.2654 6.34889C48.174 6.3278 48.083 6.30426 47.992 6.28073L47.9919 6.28071C47.7889 6.22823 47.5861 6.17578 47.3798 6.15059C47.0129 6.10679 46.6399 6.09097 46.2694 6.09827C45.7166 6.11044 45.1893 6.2394 44.6924 6.49124C44.1397 6.77227 43.6999 7.1774 43.4229 7.72852C42.9467 8.67626 42.9078 9.6605 43.288 10.652C43.5043 11.2153 43.876 11.6667 44.3766 12.0025C44.9646 12.3966 45.6243 12.5731 46.3265 12.5816C46.6217 12.5852 46.9205 12.5743 47.2145 12.5378C47.5474 12.4964 47.8779 12.4271 48.2047 12.3528C48.3917 12.3103 48.393 12.2932 48.3942 12.101C48.3966 11.601 48.3954 11.101 48.3942 10.6009C48.3942 10.5682 48.387 10.5349 48.3798 10.501L48.3797 10.501C48.3762 10.4845 48.3727 10.468 48.3699 10.4513C48.3569 10.4525 48.3459 10.4532 48.3364 10.4538C48.3175 10.4549 48.3043 10.4558 48.2921 10.4598C47.9046 10.6021 47.5073 10.7019 47.0943 10.7372C46.7164 10.77 46.3386 10.7883 45.9668 10.7056C45.7227 10.6508 45.493 10.5486 45.323 10.3491C45.0192 9.99263 44.9196 9.57533 44.9719 9.12032C45.0472 8.46944 45.4323 8.07647 46.0653 7.96698C46.714 7.85505 47.3542 7.92805 47.9799 8.13C48.1048 8.17008 48.2297 8.21137 48.3546 8.25266L48.3547 8.25269ZM40.1682 9.31985V6.46326C40.1682 6.14694 40.1731 6.14207 40.4805 6.14207C40.5934 6.14207 40.7064 6.142 40.8194 6.14192C41.1584 6.14169 41.4973 6.14146 41.8363 6.14329C42.0865 6.14451 42.1035 6.16032 42.1072 6.40486C42.1098 6.60295 42.1093 6.80042 42.1088 6.99816C42.1086 7.07731 42.1084 7.15651 42.1084 7.2358L42.1047 12.1594C42.1047 12.5001 42.1035 12.5013 41.7731 12.5025H41.7728C41.3343 12.5037 40.8958 12.5049 40.4574 12.5025C40.1828 12.5013 40.1707 12.4891 40.1694 12.2178C40.1686 11.5738 40.1689 10.9298 40.1692 10.2858L40.1692 10.2743C40.1693 9.95617 40.1694 9.63801 40.1694 9.31985H40.1682Z" fill="white"/>
</svg>
