<svg width="2204" height="298" viewBox="0 0 2204 298" fill="none" xmlns="http://www.w3.org/2000/svg">
<path d="M84 236H2120L2132.5 240C2132.5 240 2149.5 272 2152 263.5C2154.5 255 2159.5 245.5 2165.5 248.5C2168.54 250.018 2167.1 251.639 2181 282.5C2183.2 286.162 2197.76 284.205 2204 298H0C0 298 16.5 284 25.5 280C34.5 276 43.5 279 48.5 276C53.5 273 59 259.5 59 259.5L71 254L84 236Z" fill="#0D041F"/>
<path d="M552.399 117.408C543.851 117.408 490 117.443 490 117.443L440 133.95L381 151.032L364 179.532L317.5 191.032L243 236.531H1845.22H2059.95C2059.95 236.531 1808.29 209.775 1796.31 209.775C1784.33 209.775 1776.34 201.216 1765.03 200.083C1753.73 198.95 1714.13 193.25 1706.72 190.967C1699.3 188.683 1675.61 184.692 1675.61 184.692C1675.61 184.692 1665.63 187.55 1654.49 184.692C1643.34 181.833 1599.43 176.708 1599.43 176.708C1599.43 176.708 1584.6 181.275 1579.3 180.77C1574.02 180.264 1525.83 181.275 1513.78 179.567C1501.73 177.859 1487.04 182.983 1483.48 179.567C1479.92 176.133 1455.08 172.716 1444.18 172.716C1433.27 172.716 1318.72 165.883 1314.01 163.025C1309.3 160.166 1306.73 157.325 1296.93 156.75C1287.12 156.174 1274.88 163.025 1274.88 163.025C1274.88 163.025 1239.5 151.532 1233.26 148.208C1225 146.532 1209.5 158.032 1209.5 158.032L1186.5 144.532C1186.5 140.54 1173 133.532 1173 133.532C1173 133.532 1162.55 127.899 1153.5 129.032C1144.46 130.165 1136.16 102.016 1136.16 102.016C1121.91 107.141 1077.91 131.091 1077.91 131.091L1063.35 133.95C1063.35 133.95 1012.3 132.817 1001.47 130.533C990.638 128.25 897.049 125.967 897.049 125.967L885.064 110.575L877.075 111.708C869.085 112.858 837.703 119.134 824.009 121.417C810.315 123.7 746.974 125.967 746.974 125.967L739.438 119.988C739.438 119.988 731.571 123.108 717.58 123.108C703.59 123.108 637.65 114.724 613.856 106.461C603.581 107.089 589.8 114.776 582.176 116.85C578.688 117.791 560.964 117.408 552.399 117.408Z" fill="url(#paint0_linear_841_662)"/>
<path fill-rule="evenodd" clip-rule="evenodd" d="M1070.9 136.373C1070.9 136.373 1095.43 136.722 1106.83 136.373C1118.24 136.024 1135.88 126.35 1140.73 123.265C1145.58 120.18 1146.89 105.154 1144.69 100.36C1142.49 95.567 1074.67 130.987 1070.9 136.373Z" fill="#723EA9"/>
<path fill-rule="evenodd" clip-rule="evenodd" d="M1233.29 148.208C1233.29 148.208 1226.5 146.032 1209.46 158.423C1209.46 158.423 1233.26 160.619 1249.13 161.944C1264.99 163.269 1272.89 162.519 1272.89 162.519C1272.89 162.519 1238 150.532 1233.29 148.208Z" fill="#723EA9"/>
<path fill-rule="evenodd" clip-rule="evenodd" d="M1277.01 161.944C1277.01 161.944 1282.61 164.019 1293.63 163.862C1304.66 163.705 1306.84 158.789 1306.84 158.789C1306.84 158.789 1292.57 151.381 1277.01 161.944Z" fill="#723EA9"/>
<path fill-rule="evenodd" clip-rule="evenodd" d="M812.234 126.071C812.234 126.071 866.103 110.052 885.082 110.557L890.996 120.51C890.996 120.528 856.404 137.314 812.234 126.071Z" fill="#723EA9"/>
<path fill-rule="evenodd" clip-rule="evenodd" d="M717.578 123.108C717.578 123.108 729.196 125.287 735.476 125.619C741.756 125.95 744.948 124.364 744.948 124.364L739.436 119.988C739.436 119.988 725.463 119.622 717.578 123.108Z" fill="#723EA9"/>
<path fill-rule="evenodd" clip-rule="evenodd" d="M613.855 106.462C613.855 106.462 596.777 106.775 582.176 116.851C582.176 116.851 596.009 120.72 604.592 118.21C613.192 115.7 616.838 109.425 613.855 106.462Z" fill="#723EA9"/>
<path fill-rule="evenodd" clip-rule="evenodd" d="M1366.88 181.589C1366.88 181.589 1427.15 171.357 1444.21 172.734C1461.29 174.111 1483.52 179.584 1483.52 179.584C1483.52 179.584 1444.84 185.667 1431.27 186.034C1417.7 186.382 1366.88 181.589 1366.88 181.589Z" fill="#723EA9"/>
<path fill-rule="evenodd" clip-rule="evenodd" d="M1582.49 183.088L1599.48 176.709C1599.48 176.709 1629.89 180.979 1643.11 188.632C1643.11 188.649 1611.12 185.564 1582.49 183.088Z" fill="#723EA9"/>
<path fill-rule="evenodd" clip-rule="evenodd" d="M1675.66 184.691L1663.02 188.631C1663.02 188.631 1686.08 192.396 1713.83 196.649C1713.85 196.666 1692.57 183.855 1675.66 184.691Z" fill="#723EA9"/>
<path fill-rule="evenodd" clip-rule="evenodd" d="M1112.3 136.513C1112.3 136.513 1120.9 144.548 1124.86 144.758C1128.82 144.984 1144.36 143.311 1144.36 143.311C1144.36 143.311 1151.74 133.968 1152.4 130.656C1153.06 127.361 1145.72 101.145 1145.72 101.145C1145.72 101.145 1144.69 118.855 1142.72 121.034C1140.71 123.265 1121.77 134.003 1112.3 136.513Z" fill="url(#paint1_linear_841_662)"/>
<path fill-rule="evenodd" clip-rule="evenodd" d="M1483.51 179.567L1439.33 186.051H1424.85C1424.85 186.051 1444.18 187.603 1454.19 188.649C1464.2 189.695 1494.92 180.282 1494.92 180.282L1483.51 179.567Z" fill="url(#paint2_linear_841_662)"/>
<path fill-rule="evenodd" clip-rule="evenodd" d="M1317.76 163.88C1317.76 163.88 1308.18 170.922 1302.01 172.595C1295.83 174.286 1272.89 168.237 1272.89 168.237L1287.47 168.377L1291.45 163.862C1291.45 163.862 1302.86 162.224 1306.84 158.79L1317.76 163.88Z" fill="url(#paint3_linear_841_662)"/>
<path fill-rule="evenodd" clip-rule="evenodd" d="M897.067 125.966C897.067 125.966 886.059 132.242 878.977 133.88C871.895 135.519 837.512 133.88 837.512 133.88L824.742 129.941C824.742 129.941 850.246 130.969 867.045 127.152C883.844 123.334 890.996 120.51 890.996 120.51L897.067 125.966Z" fill="url(#paint4_linear_841_662)"/>
<path fill-rule="evenodd" clip-rule="evenodd" d="M739.438 119.988L732.652 122.812H718.312C718.312 122.812 734.902 129.61 746.974 125.949L739.438 119.988Z" fill="url(#paint5_linear_841_662)"/>
<path fill-rule="evenodd" clip-rule="evenodd" d="M613.857 106.462C613.857 106.462 609.618 115.909 604.594 118.228C604.594 118.228 622.003 120.424 634.79 112.353L613.857 106.462Z" fill="url(#paint6_linear_841_662)"/>
<path fill-rule="evenodd" clip-rule="evenodd" d="M1186.1 143.956V156.436C1186.1 156.436 1179.46 156.314 1171.1 156.262C1162.75 156.227 1152.44 154.327 1152.44 154.327L1134.77 143.956C1134.77 143.956 1165.4 145.263 1174.64 144.793C1183.91 144.339 1186.1 143.956 1186.1 143.956Z" fill="url(#paint7_linear_841_662)"/>
<path fill-rule="evenodd" clip-rule="evenodd" d="M1134.77 143.956C1134.77 143.956 1165.54 134.003 1172.52 133.881C1179.49 133.759 1186.1 143.956 1186.1 143.956C1186.1 143.956 1182.27 147.146 1172.52 147.059C1162.75 146.971 1134.77 143.956 1134.77 143.956Z" fill="#723EA9"/>
<path fill-rule="evenodd" clip-rule="evenodd" d="M162.569 118.855C162.569 118.855 190.649 63.2841 191.748 54.7549C192.87 46.2478 197.224 0.348633 197.224 0.348633C197.224 0.348633 223.72 0.766297 234.825 7.66875C245.951 14.5712 251.448 33.6299 251.448 33.6299C251.448 33.6299 261.278 66.0539 259.277 68.9336C257.298 71.8132 251.448 75.792 251.448 75.792C251.448 75.792 264.796 125.011 267.171 133.957C269.523 142.904 307.213 166.227 307.213 166.227C307.213 166.227 340.636 150.686 343.978 141.783C347.32 132.88 345.451 130.682 345.451 130.682C345.451 130.682 341.977 119.339 341.977 115.316C341.977 111.294 392.42 112.766 392.42 112.766C392.42 112.766 423.974 125.626 427.294 134.573C430.637 143.52 422.853 147.74 422.853 147.74C422.853 147.74 467.666 143.959 478.595 147.74L490.359 157.347L559.536 165.568C559.536 165.568 564.769 138.178 571.19 135.43C578.974 132.089 632.847 166.249 632.847 166.249C632.847 166.249 659.894 208.17 668.03 211.511C676.166 214.852 698.704 217.336 707.434 214.852C716.164 212.346 742.001 204.015 752.006 208.192C762.011 212.346 807 236.439 807 236.439H162.569H84L106.399 182.637L116.737 171.265C116.737 171.265 122.94 147.297 127.075 141.284C131.211 135.272 162.569 118.855 162.569 118.855Z" fill="url(#paint8_linear_841_662)"/>
<path fill-rule="evenodd" clip-rule="evenodd" d="M197.223 0.369606C197.223 0.369606 204.523 28.8148 210.35 42.6856C216.177 56.5565 223.258 60.7112 223.258 60.7112L234.824 57.7875C234.824 57.7875 242.014 67.174 244.939 68.9326C247.863 70.6911 259.276 68.9326 259.276 68.9326C259.276 68.9326 257.428 44.8619 252.437 26.9683L249.095 19.8899C249.095 19.8899 238.034 6.56863 234.824 2.61181C231.613 -1.34502 197.223 0.369606 197.223 0.369606Z" fill="#24114A"/>
<path fill-rule="evenodd" clip-rule="evenodd" d="M267.175 133.956L253.695 130.263C253.695 130.263 256.752 146.925 260.424 150.245C264.096 153.586 271.177 160.664 271.177 160.664V156.51C271.177 156.51 277.004 160.269 282.435 163.588C287.844 166.929 300.708 169.413 300.708 169.413H311.614L307.216 166.226C307.216 166.226 271.067 137.649 267.175 133.956Z" fill="#24114A"/>
<path fill-rule="evenodd" clip-rule="evenodd" d="M141.894 130.601L130.068 138.405C130.068 138.405 138.431 150.84 143.043 152.639C147.662 154.458 156.795 158.56 156.795 158.56L161.787 159.791C161.787 159.791 167.586 161.86 171.654 157.625C178.681 153.221 172.615 146.57 172.615 146.57C172.615 146.57 169.462 142.318 166.706 139.561C163.949 136.804 157.746 133.013 157.746 133.013C157.746 133.013 150.235 129.379 141.894 130.601Z" fill="#24114A"/>
<path fill-rule="evenodd" clip-rule="evenodd" d="M428.022 137.255V137.431C424.02 141.696 410.761 142.333 410.761 142.333L397.853 140.245L383.274 142.333C383.274 142.333 357.855 133.584 353.699 130.265C350.203 127.473 344.332 118.878 342.507 116.152C342.155 115.625 341.957 115.317 341.957 115.317C349.411 108.261 394.423 113.602 394.423 113.602C417.753 120.549 424.899 128.858 427.054 133.606C427.076 133.65 427.098 133.672 427.098 133.672C427.934 135.497 428.022 136.794 428.022 137.255Z" fill="#24114A"/>
<path fill-rule="evenodd" clip-rule="evenodd" d="M422.854 147.739L399.523 159.433C399.523 159.433 428.197 158.18 437.806 157.345C447.437 156.51 452.011 153.586 452.011 153.586L461.598 149.849L478.574 147.739C478.574 147.739 451.176 141.034 422.854 147.739Z" fill="#24114A"/>
<path fill-rule="evenodd" clip-rule="evenodd" d="M491.173 159.412L478.574 161.918L449.922 166.908C449.922 166.908 486.929 178.163 500.716 180.647L510.743 176.888C510.743 176.888 529.918 181.878 554.479 184.801C579.063 187.725 609.474 184.801 609.474 184.801C609.474 184.801 581.35 168.117 559.493 165.523C559.515 165.545 509.094 158.159 491.173 159.412Z" fill="#24114A"/>
<path fill-rule="evenodd" clip-rule="evenodd" d="M571.168 135.407C571.168 135.407 567.144 146.442 568.749 152.092C570.332 157.763 591.596 173.173 605.757 175.657C619.918 178.163 632.847 166.226 632.847 166.226C632.847 166.226 590.342 134.704 571.168 135.407Z" fill="#24114A"/>
<path fill-rule="evenodd" clip-rule="evenodd" d="M707.434 214.808C707.434 214.808 713.657 219.885 741.165 228.129C768.673 236.394 795.499 230.283 795.499 230.283C795.499 230.283 761.702 206.322 747.937 207.18C734.194 208.037 707.434 214.808 707.434 214.808Z" fill="#24114A"/>
<path fill-rule="evenodd" clip-rule="evenodd" d="M566.969 216.478C566.969 216.478 593.664 212.324 609.496 216.478C625.328 220.633 668.009 228.151 668.009 228.151C668.009 228.151 564.353 232.306 534.008 228.151C534.03 228.151 551.929 218.017 566.969 216.478Z" fill="#24114A"/>
<path fill-rule="evenodd" clip-rule="evenodd" d="M2051.97 134.613C2051.97 134.613 2046.86 130.248 2045.91 122.863C2044.94 115.497 2043.68 107.215 2040.77 97.8935C2037.85 88.5721 2018.23 76.1171 2008.61 82.0936C1998.98 88.07 1994.22 104.572 1994.22 104.572C1994.22 104.572 1980.96 105.578 1979.34 109.761C1979.34 109.761 1963.46 139.942 1961.4 147.689C1959.37 155.435 1926.73 175.63 1926.73 175.63C1926.73 175.63 1897.79 162.173 1894.9 154.465C1892.01 146.756 1893.62 144.853 1893.62 144.853C1893.62 144.853 1896.63 135.032 1896.63 131.549C1896.63 128.066 1852.96 129.341 1852.96 129.341C1852.96 129.341 1825.64 140.475 1822.76 148.222C1819.87 155.968 1826.61 159.623 1826.61 159.623C1826.61 159.623 1787.81 156.349 1778.34 159.623L1768.16 167.94L1708.26 175.059C1708.26 175.059 1703.73 151.343 1698.17 148.964C1691.43 146.071 1644.78 175.649 1644.78 175.649C1644.78 175.649 1621.37 211.945 1614.32 214.838C1607.28 217.731 1587.76 219.882 1580.2 217.731C1572.65 215.562 1550.28 208.348 1541.61 211.964C1532.95 215.562 1494 236.422 1494 236.422H2051.97H2120L2100.61 189.838L2091.65 179.991C2091.65 179.991 2086.28 159.239 2082.7 154.033C2079.12 148.827 2051.97 134.613 2051.97 134.613Z" fill="url(#paint9_linear_841_662)"/>
<path fill-rule="evenodd" clip-rule="evenodd" d="M2011.19 80.5565C2008.69 80.7281 2004.75 83.3316 2001.69 87.0564C1997.37 92.2973 1994.19 101.227 1995.18 102.556C1996.67 107.879 2006.56 107.617 2017.69 101.227C2026.69 96.0569 2028.69 89.0573 2027.19 87.0573C2025.69 85.0573 2017.19 80.1434 2011.19 80.5565Z" fill="#24114A"/>
<path fill-rule="evenodd" clip-rule="evenodd" d="M1961.4 147.69L1973.07 144.492C1973.07 144.492 1970.43 158.919 1967.25 161.793C1964.07 164.686 1957.94 170.815 1957.94 170.815V167.218C1957.94 167.218 1952.89 170.472 1948.19 173.346C1943.51 176.239 1932.37 178.39 1932.37 178.39H1922.93L1926.73 175.63C1926.73 175.63 1958.03 150.887 1961.4 147.69Z" fill="#24114A"/>
<path fill-rule="evenodd" clip-rule="evenodd" d="M2069.87 144.783L2080.11 151.54C2080.11 151.54 2072.87 162.307 2068.88 163.864C2064.88 165.44 2056.97 168.991 2056.97 168.991L2052.65 170.057C2052.65 170.057 2047.63 171.848 2044.1 168.182C2038.02 164.368 2043.27 158.609 2043.27 158.609C2043.27 158.609 2046 154.928 2048.39 152.541C2050.78 150.154 2056.15 146.872 2056.15 146.872C2056.15 146.872 2062.65 143.725 2069.87 144.783Z" fill="#24114A"/>
<path fill-rule="evenodd" clip-rule="evenodd" d="M1822.13 150.544V150.696C1825.59 154.388 1837.08 154.94 1837.08 154.94L1848.25 153.132L1860.87 154.94C1860.87 154.94 1882.88 147.365 1886.48 144.491C1889.51 142.074 1894.59 134.632 1896.17 132.272C1896.48 131.815 1896.65 131.548 1896.65 131.548C1890.19 125.439 1851.22 130.064 1851.22 130.064C1831.02 136.078 1824.83 143.273 1822.97 147.384C1822.95 147.422 1822.93 147.441 1822.93 147.441C1822.21 149.021 1822.13 150.144 1822.13 150.544Z" fill="#24114A"/>
<path fill-rule="evenodd" clip-rule="evenodd" d="M1826.6 159.624L1846.8 169.749C1846.8 169.749 1821.98 168.665 1813.66 167.941C1805.32 167.218 1801.36 164.687 1801.36 164.687L1793.06 161.451L1778.36 159.624C1778.36 159.624 1802.08 153.819 1826.6 159.624Z" fill="#24114A"/>
<path fill-rule="evenodd" clip-rule="evenodd" d="M1767.45 169.73L1778.36 171.9L1803.17 176.22C1803.17 176.22 1771.13 185.966 1759.19 188.116L1750.51 184.862C1750.51 184.862 1733.91 189.182 1712.64 191.714C1691.36 194.245 1665.02 191.714 1665.02 191.714C1665.02 191.714 1689.38 177.267 1708.3 175.021C1708.28 175.04 1751.94 168.645 1767.45 169.73Z" fill="#24114A"/>
<path fill-rule="evenodd" clip-rule="evenodd" d="M1698.19 148.945C1698.19 148.945 1701.68 158.5 1700.29 163.392C1698.92 168.302 1680.5 181.644 1668.24 183.795C1655.98 185.965 1644.79 175.63 1644.79 175.63C1644.79 175.63 1681.59 148.336 1698.19 148.945Z" fill="#24114A"/>
<path fill-rule="evenodd" clip-rule="evenodd" d="M1580.2 217.693C1580.2 217.693 1574.82 222.09 1551 229.227C1527.18 236.384 1503.95 231.093 1503.95 231.093C1503.95 231.093 1533.21 210.346 1545.13 211.089C1557.03 211.831 1580.2 217.693 1580.2 217.693Z" fill="#24114A"/>
<path fill-rule="evenodd" clip-rule="evenodd" d="M1701.83 219.14C1701.83 219.14 1678.71 215.542 1665.01 219.14C1651.3 222.737 1614.34 229.246 1614.34 229.246C1614.34 229.246 1704.09 232.844 1730.37 229.246C1730.35 229.246 1714.85 220.472 1701.83 219.14Z" fill="#24114A"/>
<defs>
<linearGradient id="paint0_linear_841_662" x1="1275" y1="236.532" x2="1275" y2="88.1723" gradientUnits="userSpaceOnUse">
<stop stop-color="#0E0420"/>
<stop offset="1" stop-color="#87369C"/>
</linearGradient>
<linearGradient id="paint1_linear_841_662" x1="1132.36" y1="144.78" x2="1132.36" y2="101.135" gradientUnits="userSpaceOnUse">
<stop stop-color="#1B0245"/>
<stop offset="1" stop-color="#612597"/>
</linearGradient>
<linearGradient id="paint2_linear_841_662" x1="1459.88" y1="188.722" x2="1459.88" y2="179.561" gradientUnits="userSpaceOnUse">
<stop stop-color="#4F2580"/>
<stop offset="1" stop-color="#200377"/>
</linearGradient>
<linearGradient id="paint3_linear_841_662" x1="1295.32" y1="172.89" x2="1295.32" y2="158.785" gradientUnits="userSpaceOnUse">
<stop stop-color="#4F2580"/>
<stop offset="1" stop-color="#200377"/>
</linearGradient>
<linearGradient id="paint4_linear_841_662" x1="824.732" y1="127.565" x2="897.059" y2="127.565" gradientUnits="userSpaceOnUse">
<stop stop-color="#4F2580"/>
<stop offset="1" stop-color="#200377"/>
</linearGradient>
<linearGradient id="paint5_linear_841_662" x1="718.319" y1="123.516" x2="746.985" y2="123.516" gradientUnits="userSpaceOnUse">
<stop stop-color="#4F2580"/>
<stop offset="1" stop-color="#200377"/>
</linearGradient>
<linearGradient id="paint6_linear_841_662" x1="604.602" y1="112.476" x2="634.79" y2="112.476" gradientUnits="userSpaceOnUse">
<stop stop-color="#4F2580"/>
<stop offset="1" stop-color="#200377"/>
</linearGradient>
<linearGradient id="paint7_linear_841_662" x1="1143.5" y1="145.032" x2="1186" y2="147.532" gradientUnits="userSpaceOnUse">
<stop stop-color="#1B0245"/>
<stop offset="1" stop-color="#612597"/>
</linearGradient>
<linearGradient id="paint8_linear_841_662" x1="484.776" y1="236.402" x2="484.776" y2="0.370833" gradientUnits="userSpaceOnUse">
<stop stop-color="#0D041F"/>
<stop offset="1" stop-color="#000027"/>
</linearGradient>
<linearGradient id="paint9_linear_841_662" x1="1772.99" y1="236.389" x2="1772.99" y2="32.023" gradientUnits="userSpaceOnUse">
<stop stop-color="#0D041F"/>
<stop offset="1" stop-color="#000027"/>
</linearGradient>
</defs>
</svg>
