<svg width="160" height="18" viewBox="0 0 160 18" fill="none" xmlns="http://www.w3.org/2000/svg">
<path d="M4.82425 15C4.77758 15 4.73558 14.986 4.69825 14.958C4.67025 14.9207 4.65625 14.8787 4.65625 14.832V5.36803C4.65625 5.32136 4.67025 5.28403 4.69825 5.25603C4.73558 5.2187 4.77758 5.20003 4.82425 5.20003H6.46225C6.50892 5.20003 6.54625 5.2187 6.57425 5.25603C6.61158 5.28403 6.63025 5.32136 6.63025 5.36803V14.832C6.63025 14.8787 6.61158 14.9207 6.57425 14.958C6.54625 14.986 6.50892 15 6.46225 15H4.82425Z" fill="url(#paint0_linear_1070_21)"/>
<path d="M11.96 7.69203C12.7067 7.69203 13.3087 7.9207 13.766 8.37803C14.2233 8.83536 14.452 9.45603 14.452 10.24V14.832C14.452 14.8787 14.4333 14.9207 14.396 14.958C14.368 14.986 14.3307 15 14.284 15H12.646C12.5993 15 12.5573 14.986 12.52 14.958C12.492 14.9207 12.478 14.8787 12.478 14.832V10.646C12.478 10.2727 12.3707 9.96936 12.156 9.73603C11.9507 9.5027 11.6753 9.38603 11.33 9.38603C10.9847 9.38603 10.7047 9.5027 10.49 9.73603C10.2847 9.96936 10.182 10.2727 10.182 10.646V14.832C10.182 14.8787 10.1633 14.9207 10.126 14.958C10.098 14.986 10.0607 15 10.014 15H8.37598C8.32932 15 8.28732 14.986 8.24998 14.958C8.22198 14.9207 8.20798 14.8787 8.20798 14.832V7.97203C8.20798 7.92536 8.22198 7.88803 8.24998 7.86003C8.28732 7.8227 8.32932 7.80403 8.37598 7.80403H10.014C10.0607 7.80403 10.098 7.8227 10.126 7.86003C10.1633 7.88803 10.182 7.92536 10.182 7.97203V8.46203C10.182 8.49003 10.1913 8.5087 10.21 8.51803C10.2287 8.52736 10.2427 8.5227 10.252 8.50403C10.6347 7.9627 11.204 7.69203 11.96 7.69203Z" fill="url(#paint1_linear_1070_21)"/>
<path d="M17.5518 15C17.4584 15 17.3978 14.9534 17.3698 14.86L15.1298 7.98603C15.1204 7.96736 15.1158 7.94403 15.1158 7.91603C15.1158 7.83203 15.1671 7.79003 15.2698 7.79003H17.0758C17.1784 7.79003 17.2438 7.8367 17.2718 7.93003L18.4198 12.172C18.4291 12.2 18.4431 12.214 18.4618 12.214C18.4804 12.214 18.4944 12.2 18.5038 12.172L19.6518 7.93003C19.6798 7.8367 19.7451 7.79003 19.8478 7.79003L21.6538 7.81803C21.7098 7.81803 21.7518 7.8367 21.7798 7.87403C21.8078 7.90203 21.8124 7.9487 21.7938 8.01403L19.5678 14.86C19.5398 14.9534 19.4791 15 19.3858 15H17.5518Z" fill="url(#paint2_linear_1070_21)"/>
<path d="M23.8872 6.99203C23.5699 6.99203 23.3039 6.88936 23.0892 6.68403C22.8839 6.46936 22.7812 6.20336 22.7812 5.88603C22.7812 5.55936 22.8839 5.29336 23.0892 5.08803C23.2946 4.8827 23.5606 4.78003 23.8872 4.78003C24.2139 4.78003 24.4799 4.8827 24.6852 5.08803C24.8906 5.29336 24.9932 5.55936 24.9932 5.88603C24.9932 6.20336 24.8859 6.46936 24.6712 6.68403C24.4659 6.88936 24.2046 6.99203 23.8872 6.99203ZM23.0472 15C23.0006 15 22.9586 14.986 22.9212 14.958C22.8932 14.9207 22.8792 14.8787 22.8792 14.832V7.95803C22.8792 7.91136 22.8932 7.87403 22.9212 7.84603C22.9586 7.8087 23.0006 7.79003 23.0472 7.79003H24.6852C24.7319 7.79003 24.7692 7.8087 24.7972 7.84603C24.8346 7.87403 24.8532 7.91136 24.8532 7.95803V14.832C24.8532 14.8787 24.8346 14.9207 24.7972 14.958C24.7692 14.986 24.7319 15 24.6852 15H23.0472Z" fill="url(#paint3_linear_1070_21)"/>
<path d="M30.5216 9.21803C30.5216 9.2647 30.5029 9.3067 30.4656 9.34403C30.4376 9.37203 30.4002 9.38603 30.3536 9.38603H29.0096C28.9629 9.38603 28.9396 9.40936 28.9396 9.45603V12.424C28.9396 12.732 29.0002 12.9607 29.1216 13.11C29.2522 13.2594 29.4576 13.334 29.7376 13.334H30.1996C30.2462 13.334 30.2836 13.3527 30.3116 13.39C30.3489 13.418 30.3676 13.4554 30.3676 13.502V14.832C30.3676 14.9347 30.3116 14.9954 30.1996 15.014C29.8076 15.0327 29.5276 15.042 29.3596 15.042C28.5849 15.042 28.0062 14.916 27.6236 14.664C27.2409 14.4027 27.0449 13.9174 27.0356 13.208V9.45603C27.0356 9.40936 27.0122 9.38603 26.9656 9.38603H26.1676C26.1209 9.38603 26.0789 9.37203 26.0416 9.34403C26.0136 9.3067 25.9996 9.2647 25.9996 9.21803V7.97203C25.9996 7.92536 26.0136 7.88803 26.0416 7.86003C26.0789 7.8227 26.1209 7.80403 26.1676 7.80403H26.9656C27.0122 7.80403 27.0356 7.7807 27.0356 7.73403V6.06803C27.0356 6.02136 27.0496 5.98403 27.0776 5.95603C27.1149 5.9187 27.1569 5.90003 27.2036 5.90003H28.7716C28.8182 5.90003 28.8556 5.9187 28.8836 5.95603C28.9209 5.98403 28.9396 6.02136 28.9396 6.06803V7.73403C28.9396 7.7807 28.9629 7.80403 29.0096 7.80403H30.3536C30.4002 7.80403 30.4376 7.8227 30.4656 7.86003C30.5029 7.88803 30.5216 7.92536 30.5216 7.97203V9.21803Z" fill="url(#paint4_linear_1070_21)"/>
<path d="M34.5799 7.69203C35.1866 7.69203 35.7279 7.79936 36.2039 8.01403C36.6799 8.21936 37.0486 8.50403 37.3099 8.86803C37.5806 9.23203 37.7159 9.63803 37.7159 10.086V14.832C37.7159 14.8787 37.6973 14.9207 37.6599 14.958C37.6319 14.986 37.5946 15 37.5479 15H35.9099C35.8633 15 35.8213 14.986 35.7839 14.958C35.7559 14.9207 35.7419 14.8787 35.7419 14.832V14.37C35.7419 14.342 35.7326 14.3234 35.7139 14.314C35.6953 14.3047 35.6766 14.314 35.6579 14.342C35.2659 14.8554 34.6359 15.112 33.7679 15.112C33.0399 15.112 32.4519 14.9347 32.0039 14.58C31.5559 14.2254 31.3319 13.7027 31.3319 13.012C31.3319 12.2934 31.5839 11.738 32.0879 11.346C32.5919 10.9447 33.3106 10.744 34.2439 10.744H35.6719C35.7186 10.744 35.7419 10.7207 35.7419 10.674V10.366C35.7419 10.058 35.6486 9.82003 35.4619 9.65203C35.2753 9.4747 34.9953 9.38603 34.6219 9.38603C34.3326 9.38603 34.0899 9.43736 33.8939 9.54003C33.7073 9.6427 33.5859 9.78736 33.5299 9.97403C33.5019 10.0767 33.4413 10.1234 33.3479 10.114L31.6539 9.89003C31.5419 9.87136 31.4906 9.82936 31.4999 9.76403C31.5373 9.37203 31.6913 9.01736 31.9619 8.70003C32.2419 8.3827 32.6059 8.13536 33.0539 7.95803C33.5113 7.7807 34.0199 7.69203 34.5799 7.69203ZM34.2999 13.642C34.7013 13.642 35.0419 13.5347 35.3219 13.32C35.6019 13.1054 35.7419 12.83 35.7419 12.494V11.99C35.7419 11.9434 35.7186 11.92 35.6719 11.92H34.6639C34.2439 11.92 33.9126 11.9994 33.6699 12.158C33.4366 12.3167 33.3199 12.5407 33.3199 12.83C33.3199 13.082 33.4086 13.2827 33.5859 13.432C33.7633 13.572 34.0013 13.642 34.2999 13.642Z" fill="url(#paint5_linear_1070_21)"/>
<path d="M43.086 9.21803C43.086 9.2647 43.0674 9.3067 43.03 9.34403C43.002 9.37203 42.9647 9.38603 42.918 9.38603H41.574C41.5274 9.38603 41.504 9.40936 41.504 9.45603V12.424C41.504 12.732 41.5647 12.9607 41.686 13.11C41.8167 13.2594 42.022 13.334 42.302 13.334H42.764C42.8107 13.334 42.848 13.3527 42.876 13.39C42.9134 13.418 42.932 13.4554 42.932 13.502V14.832C42.932 14.9347 42.876 14.9954 42.764 15.014C42.372 15.0327 42.092 15.042 41.924 15.042C41.1494 15.042 40.5707 14.916 40.188 14.664C39.8054 14.4027 39.6094 13.9174 39.6 13.208V9.45603C39.6 9.40936 39.5767 9.38603 39.53 9.38603H38.732C38.6854 9.38603 38.6434 9.37203 38.606 9.34403C38.578 9.3067 38.564 9.2647 38.564 9.21803V7.97203C38.564 7.92536 38.578 7.88803 38.606 7.86003C38.6434 7.8227 38.6854 7.80403 38.732 7.80403H39.53C39.5767 7.80403 39.6 7.7807 39.6 7.73403V6.06803C39.6 6.02136 39.614 5.98403 39.642 5.95603C39.6794 5.9187 39.7214 5.90003 39.768 5.90003H41.336C41.3827 5.90003 41.42 5.9187 41.448 5.95603C41.4854 5.98403 41.504 6.02136 41.504 6.06803V7.73403C41.504 7.7807 41.5274 7.80403 41.574 7.80403H42.918C42.9647 7.80403 43.002 7.8227 43.03 7.86003C43.0674 7.88803 43.086 7.92536 43.086 7.97203V9.21803Z" fill="url(#paint6_linear_1070_21)"/>
<path d="M45.3384 6.99203C45.0211 6.99203 44.7551 6.88936 44.5404 6.68403C44.3351 6.46936 44.2324 6.20336 44.2324 5.88603C44.2324 5.55936 44.3351 5.29336 44.5404 5.08803C44.7457 4.8827 45.0117 4.78003 45.3384 4.78003C45.6651 4.78003 45.9311 4.8827 46.1364 5.08803C46.3417 5.29336 46.4444 5.55936 46.4444 5.88603C46.4444 6.20336 46.3371 6.46936 46.1224 6.68403C45.9171 6.88936 45.6557 6.99203 45.3384 6.99203ZM44.4984 15C44.4517 15 44.4097 14.986 44.3724 14.958C44.3444 14.9207 44.3304 14.8787 44.3304 14.832V7.95803C44.3304 7.91136 44.3444 7.87403 44.3724 7.84603C44.4097 7.8087 44.4517 7.79003 44.4984 7.79003H46.1364C46.1831 7.79003 46.2204 7.8087 46.2484 7.84603C46.2857 7.87403 46.3044 7.91136 46.3044 7.95803V14.832C46.3044 14.8787 46.2857 14.9207 46.2484 14.958C46.2204 14.986 46.1831 15 46.1364 15H44.4984Z" fill="url(#paint7_linear_1070_21)"/>
<path d="M51.0208 15.112C50.2368 15.112 49.5648 14.9067 49.0047 14.496C48.4447 14.0854 48.0621 13.5254 47.8568 12.816C47.7261 12.3774 47.6608 11.9014 47.6608 11.388C47.6608 10.8374 47.7261 10.3427 47.8568 9.90403C48.0714 9.21336 48.4587 8.67203 49.0187 8.28003C49.5788 7.88803 50.2507 7.69203 51.0347 7.69203C51.8001 7.69203 52.4534 7.88803 52.9948 8.28003C53.5361 8.6627 53.9188 9.19936 54.1427 9.89003C54.2921 10.3567 54.3667 10.8467 54.3667 11.36C54.3667 11.864 54.3014 12.3354 54.1707 12.774C53.9654 13.502 53.5828 14.076 53.0228 14.496C52.4721 14.9067 51.8048 15.112 51.0208 15.112ZM51.0208 13.418C51.3288 13.418 51.5901 13.3247 51.8047 13.138C52.0194 12.9514 52.1734 12.6947 52.2668 12.368C52.3414 12.0694 52.3787 11.7427 52.3787 11.388C52.3787 10.996 52.3414 10.6647 52.2668 10.394C52.1641 10.0767 52.0054 9.82936 51.7907 9.65203C51.5761 9.4747 51.3148 9.38603 51.0068 9.38603C50.6894 9.38603 50.4234 9.4747 50.2088 9.65203C50.0034 9.82936 49.8541 10.0767 49.7607 10.394C49.6861 10.618 49.6488 10.9494 49.6488 11.388C49.6488 11.808 49.6814 12.1347 49.7467 12.368C49.8401 12.6947 49.9941 12.9514 50.2088 13.138C50.4328 13.3247 50.7034 13.418 51.0208 13.418Z" fill="url(#paint8_linear_1070_21)"/>
<path d="M59.3877 7.69203C60.1344 7.69203 60.7364 7.9207 61.1937 8.37803C61.6511 8.83536 61.8797 9.45603 61.8797 10.24V14.832C61.8797 14.8787 61.8611 14.9207 61.8237 14.958C61.7957 14.986 61.7584 15 61.7117 15H60.0737C60.0271 15 59.9851 14.986 59.9477 14.958C59.9197 14.9207 59.9057 14.8787 59.9057 14.832V10.646C59.9057 10.2727 59.7984 9.96936 59.5837 9.73603C59.3784 9.5027 59.1031 9.38603 58.7577 9.38603C58.4124 9.38603 58.1324 9.5027 57.9177 9.73603C57.7124 9.96936 57.6097 10.2727 57.6097 10.646V14.832C57.6097 14.8787 57.5911 14.9207 57.5537 14.958C57.5257 14.986 57.4884 15 57.4417 15H55.8037C55.7571 15 55.7151 14.986 55.6777 14.958C55.6497 14.9207 55.6357 14.8787 55.6357 14.832V7.97203C55.6357 7.92536 55.6497 7.88803 55.6777 7.86003C55.7151 7.8227 55.7571 7.80403 55.8037 7.80403H57.4417C57.4884 7.80403 57.5257 7.8227 57.5537 7.86003C57.5911 7.88803 57.6097 7.92536 57.6097 7.97203V8.46203C57.6097 8.49003 57.6191 8.5087 57.6377 8.51803C57.6564 8.52736 57.6704 8.5227 57.6797 8.50403C58.0624 7.9627 58.6317 7.69203 59.3877 7.69203Z" fill="url(#paint9_linear_1070_21)"/>
<path d="M70.1967 7.79003C70.2434 7.79003 70.2807 7.8087 70.3087 7.84603C70.346 7.87403 70.3647 7.91136 70.3647 7.95803V9.28803C70.3647 9.3347 70.346 9.3767 70.3087 9.41403C70.2807 9.44203 70.2434 9.45603 70.1967 9.45603H68.8387C68.792 9.45603 68.7687 9.47936 68.7687 9.52603V14.832C68.7687 14.8787 68.75 14.9207 68.7127 14.958C68.6847 14.986 68.6474 15 68.6007 15H66.9627C66.916 15 66.874 14.986 66.8367 14.958C66.8087 14.9207 66.7947 14.8787 66.7947 14.832V9.52603C66.7947 9.47936 66.7714 9.45603 66.7247 9.45603H65.8987C65.852 9.45603 65.81 9.44203 65.7727 9.41403C65.7447 9.3767 65.7307 9.3347 65.7307 9.28803V7.95803C65.7307 7.91136 65.7447 7.87403 65.7727 7.84603C65.81 7.8087 65.852 7.79003 65.8987 7.79003H66.7247C66.7714 7.79003 66.7947 7.7667 66.7947 7.72003V7.41203C66.7947 6.83336 66.8834 6.38536 67.0607 6.06803C67.238 5.74136 67.5227 5.5127 67.9147 5.38203C68.316 5.24203 68.8667 5.18136 69.5667 5.20003H70.0987C70.1454 5.20003 70.1827 5.2187 70.2107 5.25603C70.248 5.28403 70.2667 5.32136 70.2667 5.36803V6.50203C70.2667 6.5487 70.248 6.5907 70.2107 6.62803C70.1827 6.65603 70.1454 6.67003 70.0987 6.67003H69.6367C69.31 6.67936 69.0814 6.74936 68.9507 6.88003C68.8294 7.00136 68.7687 7.23003 68.7687 7.56603V7.72003C68.7687 7.7667 68.792 7.79003 68.8387 7.79003H70.1967Z" fill="url(#paint10_linear_1070_21)"/>
<path d="M74.2493 15.112C73.4653 15.112 72.7933 14.9067 72.2333 14.496C71.6733 14.0854 71.2906 13.5254 71.0853 12.816C70.9546 12.3774 70.8893 11.9014 70.8893 11.388C70.8893 10.8374 70.9546 10.3427 71.0853 9.90403C71.2999 9.21336 71.6873 8.67203 72.2473 8.28003C72.8073 7.88803 73.4793 7.69203 74.2633 7.69203C75.0286 7.69203 75.6819 7.88803 76.2233 8.28003C76.7646 8.6627 77.1473 9.19936 77.3713 9.89003C77.5206 10.3567 77.5953 10.8467 77.5953 11.36C77.5953 11.864 77.5299 12.3354 77.3993 12.774C77.1939 13.502 76.8113 14.076 76.2513 14.496C75.7006 14.9067 75.0333 15.112 74.2493 15.112ZM74.2493 13.418C74.5573 13.418 74.8186 13.3247 75.0333 13.138C75.2479 12.9514 75.4019 12.6947 75.4953 12.368C75.5699 12.0694 75.6073 11.7427 75.6073 11.388C75.6073 10.996 75.5699 10.6647 75.4953 10.394C75.3926 10.0767 75.2339 9.82936 75.0193 9.65203C74.8046 9.4747 74.5433 9.38603 74.2353 9.38603C73.9179 9.38603 73.6519 9.4747 73.4373 9.65203C73.2319 9.82936 73.0826 10.0767 72.9893 10.394C72.9146 10.618 72.8773 10.9494 72.8773 11.388C72.8773 11.808 72.9099 12.1347 72.9753 12.368C73.0686 12.6947 73.2226 12.9514 73.4373 13.138C73.6613 13.3247 73.9319 13.418 74.2493 13.418Z" fill="url(#paint11_linear_1070_21)"/>
<path d="M82.4482 7.70603C82.7842 7.70603 83.0502 7.77136 83.2462 7.90203C83.3209 7.93936 83.3489 8.00936 83.3302 8.11203L83.0362 9.70803C83.0269 9.82003 82.9616 9.8527 82.8402 9.80603C82.7002 9.75936 82.5369 9.73603 82.3502 9.73603C82.2756 9.73603 82.1729 9.74536 82.0422 9.76403C81.7062 9.79203 81.4216 9.91803 81.1882 10.142C80.9549 10.3567 80.8382 10.646 80.8382 11.01V14.832C80.8382 14.8787 80.8196 14.9207 80.7822 14.958C80.7542 14.986 80.7169 15 80.6702 15H79.0322C78.9856 15 78.9436 14.986 78.9062 14.958C78.8782 14.9207 78.8642 14.8787 78.8642 14.832V7.97203C78.8642 7.92536 78.8782 7.88803 78.9062 7.86003C78.9436 7.8227 78.9856 7.80403 79.0322 7.80403H80.6702C80.7169 7.80403 80.7542 7.8227 80.7822 7.86003C80.8196 7.88803 80.8382 7.92536 80.8382 7.97203V8.50403C80.8382 8.53203 80.8476 8.5507 80.8662 8.56003C80.8849 8.56936 80.8989 8.5647 80.9082 8.54603C81.2909 7.98603 81.8042 7.70603 82.4482 7.70603Z" fill="url(#paint12_linear_1070_21)"/>
<path d="M89.7563 15C89.663 15 89.6023 14.9534 89.5743 14.86L86.6903 5.39603L86.6763 5.34003C86.6763 5.2467 86.7277 5.20003 86.8303 5.20003H88.5943C88.697 5.20003 88.7623 5.2467 88.7903 5.34003L90.6523 12.172C90.6617 12.2 90.6757 12.214 90.6944 12.214C90.713 12.214 90.727 12.2 90.7363 12.172L92.5703 5.34003C92.5983 5.2467 92.6637 5.20003 92.7663 5.20003H94.4883C94.5443 5.20003 94.5863 5.2187 94.6143 5.25603C94.6423 5.29336 94.647 5.34003 94.6283 5.39603L91.7023 14.86C91.6743 14.9534 91.6137 15 91.5203 15H89.7563Z" fill="url(#paint13_linear_1070_21)"/>
<path d="M101.244 10.66C101.3 11.0147 101.319 11.4114 101.3 11.85C101.291 11.962 101.23 12.018 101.118 12.018H96.792C96.736 12.018 96.7173 12.0414 96.736 12.088C96.764 12.2747 96.8153 12.4614 96.89 12.648C97.1327 13.1707 97.6273 13.432 98.374 13.432C98.9713 13.4227 99.4427 13.18 99.788 12.704C99.8253 12.648 99.8673 12.62 99.914 12.62C99.942 12.62 99.9747 12.6387 100.012 12.676L101.02 13.67C101.067 13.7167 101.09 13.7587 101.09 13.796C101.09 13.8147 101.071 13.852 101.034 13.908C100.726 14.2907 100.329 14.5894 99.844 14.804C99.3587 15.0094 98.8267 15.112 98.248 15.112C97.4453 15.112 96.764 14.93 96.204 14.566C95.6533 14.202 95.2567 13.6934 95.014 13.04C94.818 12.5734 94.72 11.962 94.72 11.206C94.72 10.6927 94.79 10.24 94.93 9.84803C95.1447 9.18536 95.518 8.65803 96.05 8.26603C96.5913 7.87403 97.2307 7.67803 97.968 7.67803C98.9013 7.67803 99.648 7.9487 100.208 8.49003C100.777 9.03136 101.123 9.7547 101.244 10.66ZM97.982 9.38603C97.394 9.38603 97.0067 9.66136 96.82 10.212C96.7827 10.3334 96.75 10.4827 96.722 10.66C96.722 10.7067 96.7453 10.73 96.792 10.73H99.214C99.27 10.73 99.2887 10.7067 99.27 10.66C99.2233 10.3894 99.2 10.2587 99.2 10.268C99.116 9.98803 98.9667 9.77336 98.752 9.62403C98.5467 9.46536 98.29 9.38603 97.982 9.38603Z" fill="url(#paint14_linear_1070_21)"/>
<path d="M106.101 7.70603C106.437 7.70603 106.703 7.77136 106.899 7.90203C106.973 7.93936 107.001 8.00936 106.983 8.11203L106.689 9.70803C106.679 9.82003 106.614 9.8527 106.493 9.80603C106.353 9.75936 106.189 9.73603 106.003 9.73603C105.928 9.73603 105.825 9.74536 105.695 9.76403C105.359 9.79203 105.074 9.91803 104.841 10.142C104.607 10.3567 104.491 10.646 104.491 11.01V14.832C104.491 14.8787 104.472 14.9207 104.435 14.958C104.407 14.986 104.369 15 104.323 15H102.685C102.638 15 102.596 14.986 102.559 14.958C102.531 14.9207 102.517 14.8787 102.517 14.832V7.97203C102.517 7.92536 102.531 7.88803 102.559 7.86003C102.596 7.8227 102.638 7.80403 102.685 7.80403H104.323C104.369 7.80403 104.407 7.8227 104.435 7.86003C104.472 7.88803 104.491 7.92536 104.491 7.97203V8.50403C104.491 8.53203 104.5 8.5507 104.519 8.56003C104.537 8.56936 104.551 8.5647 104.561 8.54603C104.943 7.98603 105.457 7.70603 106.101 7.70603Z" fill="url(#paint15_linear_1070_21)"/>
<path d="M108.94 6.99203C108.623 6.99203 108.357 6.88936 108.142 6.68403C107.937 6.46936 107.834 6.20336 107.834 5.88603C107.834 5.55936 107.937 5.29336 108.142 5.08803C108.347 4.8827 108.613 4.78003 108.94 4.78003C109.267 4.78003 109.533 4.8827 109.738 5.08803C109.943 5.29336 110.046 5.55936 110.046 5.88603C110.046 6.20336 109.939 6.46936 109.724 6.68403C109.519 6.88936 109.257 6.99203 108.94 6.99203ZM108.1 15C108.053 15 108.011 14.986 107.974 14.958C107.946 14.9207 107.932 14.8787 107.932 14.832V7.95803C107.932 7.91136 107.946 7.87403 107.974 7.84603C108.011 7.8087 108.053 7.79003 108.1 7.79003H109.738C109.785 7.79003 109.822 7.8087 109.85 7.84603C109.887 7.87403 109.906 7.91136 109.906 7.95803V14.832C109.906 14.8787 109.887 14.9207 109.85 14.958C109.822 14.986 109.785 15 109.738 15H108.1Z" fill="url(#paint16_linear_1070_21)"/>
<path d="M115.546 7.79003C115.593 7.79003 115.63 7.8087 115.658 7.84603C115.696 7.87403 115.714 7.91136 115.714 7.95803V9.28803C115.714 9.3347 115.696 9.3767 115.658 9.41403C115.63 9.44203 115.593 9.45603 115.546 9.45603H114.188C114.142 9.45603 114.118 9.47936 114.118 9.52603V14.832C114.118 14.8787 114.1 14.9207 114.062 14.958C114.034 14.986 113.997 15 113.95 15H112.312C112.266 15 112.224 14.986 112.186 14.958C112.158 14.9207 112.144 14.8787 112.144 14.832V9.52603C112.144 9.47936 112.121 9.45603 112.074 9.45603H111.248C111.202 9.45603 111.16 9.44203 111.122 9.41403C111.094 9.3767 111.08 9.3347 111.08 9.28803V7.95803C111.08 7.91136 111.094 7.87403 111.122 7.84603C111.16 7.8087 111.202 7.79003 111.248 7.79003H112.074C112.121 7.79003 112.144 7.7667 112.144 7.72003V7.41203C112.144 6.83336 112.233 6.38536 112.41 6.06803C112.588 5.74136 112.872 5.5127 113.264 5.38203C113.666 5.24203 114.216 5.18136 114.916 5.20003H115.448C115.495 5.20003 115.532 5.2187 115.56 5.25603C115.598 5.28403 115.616 5.32136 115.616 5.36803V6.50203C115.616 6.5487 115.598 6.5907 115.56 6.62803C115.532 6.65603 115.495 6.67003 115.448 6.67003H114.986C114.66 6.67936 114.431 6.74936 114.3 6.88003C114.179 7.00136 114.118 7.23003 114.118 7.56603V7.72003C114.118 7.7667 114.142 7.79003 114.188 7.79003H115.546ZM117.926 6.99203C117.609 6.99203 117.343 6.88936 117.128 6.68403C116.923 6.46936 116.82 6.20336 116.82 5.88603C116.82 5.55936 116.923 5.29336 117.128 5.08803C117.334 4.8827 117.6 4.78003 117.926 4.78003C118.253 4.78003 118.519 4.8827 118.724 5.08803C118.93 5.29336 119.032 5.55936 119.032 5.88603C119.032 6.20336 118.925 6.46936 118.71 6.68403C118.505 6.88936 118.244 6.99203 117.926 6.99203ZM117.086 15C117.04 15 116.998 14.986 116.96 14.958C116.932 14.9207 116.918 14.8787 116.918 14.832V7.95803C116.918 7.91136 116.932 7.87403 116.96 7.84603C116.998 7.8087 117.04 7.79003 117.086 7.79003H118.724C118.771 7.79003 118.808 7.8087 118.836 7.84603C118.874 7.87403 118.892 7.91136 118.892 7.95803V14.832C118.892 14.8787 118.874 14.9207 118.836 14.958C118.808 14.986 118.771 15 118.724 15H117.086Z" fill="url(#paint17_linear_1070_21)"/>
<path d="M123.577 15.112C122.83 15.112 122.182 14.9254 121.631 14.552C121.09 14.1787 120.702 13.6654 120.469 13.012C120.31 12.5454 120.231 11.9947 120.231 11.36C120.231 10.7347 120.31 10.1934 120.469 9.73603C120.693 9.10136 121.08 8.60203 121.631 8.23803C122.182 7.87403 122.83 7.69203 123.577 7.69203C124.324 7.69203 124.977 7.8787 125.537 8.25203C126.106 8.62536 126.484 9.0967 126.671 9.66603C126.746 9.89003 126.783 10.058 126.783 10.17V10.198C126.783 10.282 126.736 10.3334 126.643 10.352L125.033 10.59H125.005C124.921 10.59 124.865 10.5434 124.837 10.45L124.795 10.226C124.73 9.98336 124.585 9.7827 124.361 9.62403C124.137 9.46536 123.871 9.38603 123.563 9.38603C123.264 9.38603 123.012 9.4607 122.807 9.61003C122.602 9.75936 122.457 9.9647 122.373 10.226C122.27 10.506 122.219 10.8887 122.219 11.374C122.219 11.8594 122.266 12.242 122.359 12.522C122.443 12.802 122.588 13.0214 122.793 13.18C123.008 13.3387 123.264 13.418 123.563 13.418C123.852 13.418 124.104 13.3434 124.319 13.194C124.543 13.0354 124.697 12.8207 124.781 12.55C124.79 12.5314 124.795 12.5034 124.795 12.466C124.804 12.4567 124.809 12.4427 124.809 12.424C124.818 12.312 124.884 12.2654 125.005 12.284L126.615 12.536C126.708 12.5547 126.755 12.606 126.755 12.69C126.755 12.7647 126.727 12.9047 126.671 13.11C126.475 13.7354 126.092 14.2254 125.523 14.58C124.963 14.9347 124.314 15.112 123.577 15.112Z" fill="url(#paint18_linear_1070_21)"/>
<path d="M130.803 7.69203C131.409 7.69203 131.951 7.79936 132.427 8.01403C132.903 8.21936 133.271 8.50403 133.533 8.86803C133.803 9.23203 133.939 9.63803 133.939 10.086V14.832C133.939 14.8787 133.92 14.9207 133.883 14.958C133.855 14.986 133.817 15 133.771 15H132.133C132.086 15 132.044 14.986 132.007 14.958C131.979 14.9207 131.965 14.8787 131.965 14.832V14.37C131.965 14.342 131.955 14.3234 131.937 14.314C131.918 14.3047 131.899 14.314 131.881 14.342C131.489 14.8554 130.859 15.112 129.991 15.112C129.263 15.112 128.675 14.9347 128.227 14.58C127.779 14.2254 127.555 13.7027 127.555 13.012C127.555 12.2934 127.807 11.738 128.311 11.346C128.815 10.9447 129.533 10.744 130.467 10.744H131.895C131.941 10.744 131.965 10.7207 131.965 10.674V10.366C131.965 10.058 131.871 9.82003 131.685 9.65203C131.498 9.4747 131.218 9.38603 130.845 9.38603C130.555 9.38603 130.313 9.43736 130.117 9.54003C129.93 9.6427 129.809 9.78736 129.753 9.97403C129.725 10.0767 129.664 10.1234 129.571 10.114L127.877 9.89003C127.765 9.87136 127.713 9.82936 127.723 9.76403C127.76 9.37203 127.914 9.01736 128.185 8.70003C128.465 8.3827 128.829 8.13536 129.277 7.95803C129.734 7.7807 130.243 7.69203 130.803 7.69203ZM130.523 13.642C130.924 13.642 131.265 13.5347 131.545 13.32C131.825 13.1054 131.965 12.83 131.965 12.494V11.99C131.965 11.9434 131.941 11.92 131.895 11.92H130.887C130.467 11.92 130.135 11.9994 129.893 12.158C129.659 12.3167 129.543 12.5407 129.543 12.83C129.543 13.082 129.631 13.2827 129.809 13.432C129.986 13.572 130.224 13.642 130.523 13.642Z" fill="url(#paint19_linear_1070_21)"/>
<path d="M139.309 9.21803C139.309 9.2647 139.29 9.3067 139.253 9.34403C139.225 9.37203 139.187 9.38603 139.141 9.38603H137.797C137.75 9.38603 137.727 9.40936 137.727 9.45603V12.424C137.727 12.732 137.787 12.9607 137.909 13.11C138.039 13.2594 138.245 13.334 138.525 13.334H138.987C139.033 13.334 139.071 13.3527 139.099 13.39C139.136 13.418 139.155 13.4554 139.155 13.502V14.832C139.155 14.9347 139.099 14.9954 138.987 15.014C138.595 15.0327 138.315 15.042 138.147 15.042C137.372 15.042 136.793 14.916 136.411 14.664C136.028 14.4027 135.832 13.9174 135.823 13.208V9.45603C135.823 9.40936 135.799 9.38603 135.753 9.38603H134.955C134.908 9.38603 134.866 9.37203 134.829 9.34403C134.801 9.3067 134.787 9.2647 134.787 9.21803V7.97203C134.787 7.92536 134.801 7.88803 134.829 7.86003C134.866 7.8227 134.908 7.80403 134.955 7.80403H135.753C135.799 7.80403 135.823 7.7807 135.823 7.73403V6.06803C135.823 6.02136 135.837 5.98403 135.865 5.95603C135.902 5.9187 135.944 5.90003 135.991 5.90003H137.559C137.605 5.90003 137.643 5.9187 137.671 5.95603C137.708 5.98403 137.727 6.02136 137.727 6.06803V7.73403C137.727 7.7807 137.75 7.80403 137.797 7.80403H139.141C139.187 7.80403 139.225 7.8227 139.253 7.86003C139.29 7.88803 139.309 7.92536 139.309 7.97203V9.21803Z" fill="url(#paint20_linear_1070_21)"/>
<path d="M141.561 6.99203C141.244 6.99203 140.978 6.88936 140.763 6.68403C140.558 6.46936 140.455 6.20336 140.455 5.88603C140.455 5.55936 140.558 5.29336 140.763 5.08803C140.968 4.8827 141.234 4.78003 141.561 4.78003C141.888 4.78003 142.154 4.8827 142.359 5.08803C142.564 5.29336 142.667 5.55936 142.667 5.88603C142.667 6.20336 142.56 6.46936 142.345 6.68403C142.14 6.88936 141.878 6.99203 141.561 6.99203ZM140.721 15C140.674 15 140.632 14.986 140.595 14.958C140.567 14.9207 140.553 14.8787 140.553 14.832V7.95803C140.553 7.91136 140.567 7.87403 140.595 7.84603C140.632 7.8087 140.674 7.79003 140.721 7.79003H142.359C142.406 7.79003 142.443 7.8087 142.471 7.84603C142.508 7.87403 142.527 7.91136 142.527 7.95803V14.832C142.527 14.8787 142.508 14.9207 142.471 14.958C142.443 14.986 142.406 15 142.359 15H140.721Z" fill="url(#paint21_linear_1070_21)"/>
<path d="M147.243 15.112C146.459 15.112 145.787 14.9067 145.227 14.496C144.667 14.0854 144.285 13.5254 144.079 12.816C143.949 12.3774 143.883 11.9014 143.883 11.388C143.883 10.8374 143.949 10.3427 144.079 9.90403C144.294 9.21336 144.681 8.67203 145.241 8.28003C145.801 7.88803 146.473 7.69203 147.257 7.69203C148.023 7.69203 148.676 7.88803 149.217 8.28003C149.759 8.6627 150.141 9.19936 150.365 9.89003C150.515 10.3567 150.589 10.8467 150.589 11.36C150.589 11.864 150.524 12.3354 150.393 12.774C150.188 13.502 149.805 14.076 149.245 14.496C148.695 14.9067 148.027 15.112 147.243 15.112ZM147.243 13.418C147.551 13.418 147.813 13.3247 148.027 13.138C148.242 12.9514 148.396 12.6947 148.489 12.368C148.564 12.0694 148.601 11.7427 148.601 11.388C148.601 10.996 148.564 10.6647 148.489 10.394C148.387 10.0767 148.228 9.82936 148.013 9.65203C147.799 9.4747 147.537 9.38603 147.229 9.38603C146.912 9.38603 146.646 9.4747 146.431 9.65203C146.226 9.82936 146.077 10.0767 145.983 10.394C145.909 10.618 145.871 10.9494 145.871 11.388C145.871 11.808 145.904 12.1347 145.969 12.368C146.063 12.6947 146.217 12.9514 146.431 13.138C146.655 13.3247 146.926 13.418 147.243 13.418Z" fill="url(#paint22_linear_1070_21)"/>
<path d="M155.61 7.69203C156.357 7.69203 156.959 7.9207 157.416 8.37803C157.874 8.83536 158.102 9.45603 158.102 10.24V14.832C158.102 14.8787 158.084 14.9207 158.046 14.958C158.018 14.986 157.981 15 157.934 15H156.296C156.25 15 156.208 14.986 156.17 14.958C156.142 14.9207 156.128 14.8787 156.128 14.832V10.646C156.128 10.2727 156.021 9.96936 155.806 9.73603C155.601 9.5027 155.326 9.38603 154.98 9.38603C154.635 9.38603 154.355 9.5027 154.14 9.73603C153.935 9.96936 153.832 10.2727 153.832 10.646V14.832C153.832 14.8787 153.814 14.9207 153.776 14.958C153.748 14.986 153.711 15 153.664 15H152.026C151.98 15 151.938 14.986 151.9 14.958C151.872 14.9207 151.858 14.8787 151.858 14.832V7.97203C151.858 7.92536 151.872 7.88803 151.9 7.86003C151.938 7.8227 151.98 7.80403 152.026 7.80403H153.664C153.711 7.80403 153.748 7.8227 153.776 7.86003C153.814 7.88803 153.832 7.92536 153.832 7.97203V8.46203C153.832 8.49003 153.842 8.5087 153.86 8.51803C153.879 8.52736 153.893 8.5227 153.902 8.50403C154.285 7.9627 154.854 7.69203 155.61 7.69203Z" fill="url(#paint23_linear_1070_21)"/>
<defs>
<linearGradient id="paint0_linear_1070_21" x1="-46.1456" y1="9.00003" x2="222.566" y2="-10.5133" gradientUnits="userSpaceOnUse">
<stop stop-color="#43CEFC"/>
<stop offset="0.0949731" stop-color="#DE15F3"/>
<stop offset="1" stop-color="#FEF3FF"/>
</linearGradient>
<linearGradient id="paint1_linear_1070_21" x1="-46.1456" y1="9.00003" x2="222.566" y2="-10.5133" gradientUnits="userSpaceOnUse">
<stop stop-color="#43CEFC"/>
<stop offset="0.0949731" stop-color="#DE15F3"/>
<stop offset="1" stop-color="#FEF3FF"/>
</linearGradient>
<linearGradient id="paint2_linear_1070_21" x1="-46.1456" y1="9.00003" x2="222.566" y2="-10.5133" gradientUnits="userSpaceOnUse">
<stop stop-color="#43CEFC"/>
<stop offset="0.0949731" stop-color="#DE15F3"/>
<stop offset="1" stop-color="#FEF3FF"/>
</linearGradient>
<linearGradient id="paint3_linear_1070_21" x1="-46.1456" y1="9.00003" x2="222.566" y2="-10.5133" gradientUnits="userSpaceOnUse">
<stop stop-color="#43CEFC"/>
<stop offset="0.0949731" stop-color="#DE15F3"/>
<stop offset="1" stop-color="#FEF3FF"/>
</linearGradient>
<linearGradient id="paint4_linear_1070_21" x1="-46.1456" y1="9.00003" x2="222.566" y2="-10.5133" gradientUnits="userSpaceOnUse">
<stop stop-color="#43CEFC"/>
<stop offset="0.0949731" stop-color="#DE15F3"/>
<stop offset="1" stop-color="#FEF3FF"/>
</linearGradient>
<linearGradient id="paint5_linear_1070_21" x1="-46.1456" y1="9.00003" x2="222.566" y2="-10.5133" gradientUnits="userSpaceOnUse">
<stop stop-color="#43CEFC"/>
<stop offset="0.0949731" stop-color="#DE15F3"/>
<stop offset="1" stop-color="#FEF3FF"/>
</linearGradient>
<linearGradient id="paint6_linear_1070_21" x1="-46.1456" y1="9.00003" x2="222.566" y2="-10.5133" gradientUnits="userSpaceOnUse">
<stop stop-color="#43CEFC"/>
<stop offset="0.0949731" stop-color="#DE15F3"/>
<stop offset="1" stop-color="#FEF3FF"/>
</linearGradient>
<linearGradient id="paint7_linear_1070_21" x1="-46.1456" y1="9.00003" x2="222.566" y2="-10.5133" gradientUnits="userSpaceOnUse">
<stop stop-color="#43CEFC"/>
<stop offset="0.0949731" stop-color="#DE15F3"/>
<stop offset="1" stop-color="#FEF3FF"/>
</linearGradient>
<linearGradient id="paint8_linear_1070_21" x1="-46.1456" y1="9.00003" x2="222.566" y2="-10.5133" gradientUnits="userSpaceOnUse">
<stop stop-color="#43CEFC"/>
<stop offset="0.0949731" stop-color="#DE15F3"/>
<stop offset="1" stop-color="#FEF3FF"/>
</linearGradient>
<linearGradient id="paint9_linear_1070_21" x1="-46.1456" y1="9.00003" x2="222.566" y2="-10.5133" gradientUnits="userSpaceOnUse">
<stop stop-color="#43CEFC"/>
<stop offset="0.0949731" stop-color="#DE15F3"/>
<stop offset="1" stop-color="#FEF3FF"/>
</linearGradient>
<linearGradient id="paint10_linear_1070_21" x1="-46.1456" y1="9.00003" x2="222.566" y2="-10.5133" gradientUnits="userSpaceOnUse">
<stop stop-color="#43CEFC"/>
<stop offset="0.0949731" stop-color="#DE15F3"/>
<stop offset="1" stop-color="#FEF3FF"/>
</linearGradient>
<linearGradient id="paint11_linear_1070_21" x1="-46.1456" y1="9.00003" x2="222.566" y2="-10.5133" gradientUnits="userSpaceOnUse">
<stop stop-color="#43CEFC"/>
<stop offset="0.0949731" stop-color="#DE15F3"/>
<stop offset="1" stop-color="#FEF3FF"/>
</linearGradient>
<linearGradient id="paint12_linear_1070_21" x1="-46.1456" y1="9.00003" x2="222.566" y2="-10.5133" gradientUnits="userSpaceOnUse">
<stop stop-color="#43CEFC"/>
<stop offset="0.0949731" stop-color="#DE15F3"/>
<stop offset="1" stop-color="#FEF3FF"/>
</linearGradient>
<linearGradient id="paint13_linear_1070_21" x1="-46.1456" y1="9.00003" x2="222.566" y2="-10.5133" gradientUnits="userSpaceOnUse">
<stop stop-color="#43CEFC"/>
<stop offset="0.0949731" stop-color="#DE15F3"/>
<stop offset="1" stop-color="#FEF3FF"/>
</linearGradient>
<linearGradient id="paint14_linear_1070_21" x1="-46.1456" y1="9.00003" x2="222.566" y2="-10.5133" gradientUnits="userSpaceOnUse">
<stop stop-color="#43CEFC"/>
<stop offset="0.0949731" stop-color="#DE15F3"/>
<stop offset="1" stop-color="#FEF3FF"/>
</linearGradient>
<linearGradient id="paint15_linear_1070_21" x1="-46.1456" y1="9.00003" x2="222.566" y2="-10.5133" gradientUnits="userSpaceOnUse">
<stop stop-color="#43CEFC"/>
<stop offset="0.0949731" stop-color="#DE15F3"/>
<stop offset="1" stop-color="#FEF3FF"/>
</linearGradient>
<linearGradient id="paint16_linear_1070_21" x1="-46.1456" y1="9.00003" x2="222.566" y2="-10.5133" gradientUnits="userSpaceOnUse">
<stop stop-color="#43CEFC"/>
<stop offset="0.0949731" stop-color="#DE15F3"/>
<stop offset="1" stop-color="#FEF3FF"/>
</linearGradient>
<linearGradient id="paint17_linear_1070_21" x1="-46.1456" y1="9.00003" x2="222.566" y2="-10.5133" gradientUnits="userSpaceOnUse">
<stop stop-color="#43CEFC"/>
<stop offset="0.0949731" stop-color="#DE15F3"/>
<stop offset="1" stop-color="#FEF3FF"/>
</linearGradient>
<linearGradient id="paint18_linear_1070_21" x1="-46.1456" y1="9.00003" x2="222.566" y2="-10.5133" gradientUnits="userSpaceOnUse">
<stop stop-color="#43CEFC"/>
<stop offset="0.0949731" stop-color="#DE15F3"/>
<stop offset="1" stop-color="#FEF3FF"/>
</linearGradient>
<linearGradient id="paint19_linear_1070_21" x1="-46.1456" y1="9.00003" x2="222.566" y2="-10.5133" gradientUnits="userSpaceOnUse">
<stop stop-color="#43CEFC"/>
<stop offset="0.0949731" stop-color="#DE15F3"/>
<stop offset="1" stop-color="#FEF3FF"/>
</linearGradient>
<linearGradient id="paint20_linear_1070_21" x1="-46.1456" y1="9.00003" x2="222.566" y2="-10.5133" gradientUnits="userSpaceOnUse">
<stop stop-color="#43CEFC"/>
<stop offset="0.0949731" stop-color="#DE15F3"/>
<stop offset="1" stop-color="#FEF3FF"/>
</linearGradient>
<linearGradient id="paint21_linear_1070_21" x1="-46.1456" y1="9.00003" x2="222.566" y2="-10.5133" gradientUnits="userSpaceOnUse">
<stop stop-color="#43CEFC"/>
<stop offset="0.0949731" stop-color="#DE15F3"/>
<stop offset="1" stop-color="#FEF3FF"/>
</linearGradient>
<linearGradient id="paint22_linear_1070_21" x1="-46.1456" y1="9.00003" x2="222.566" y2="-10.5133" gradientUnits="userSpaceOnUse">
<stop stop-color="#43CEFC"/>
<stop offset="0.0949731" stop-color="#DE15F3"/>
<stop offset="1" stop-color="#FEF3FF"/>
</linearGradient>
<linearGradient id="paint23_linear_1070_21" x1="-46.1456" y1="9.00003" x2="222.566" y2="-10.5133" gradientUnits="userSpaceOnUse">
<stop stop-color="#43CEFC"/>
<stop offset="0.0949731" stop-color="#DE15F3"/>
<stop offset="1" stop-color="#FEF3FF"/>
</linearGradient>
</defs>
</svg>
