<svg width="81" height="32" viewBox="0 0 81 32" fill="none" xmlns="http://www.w3.org/2000/svg">
<mask id="mask0_850_202" style="mask-type:alpha" maskUnits="userSpaceOnUse" x="0" y="0" width="81" height="32">
<rect x="0.5" width="80" height="32" fill="#D9D9D9"/>
</mask>
<g mask="url(#mask0_850_202)">
<mask id="mask1_850_202" style="mask-type:alpha" maskUnits="userSpaceOnUse" x="0" y="6" width="10" height="21">
<path d="M0.859375 6.26953L9.57076 11.5835V26.2186L0.859375 20.9047V6.26953Z" fill="#D9D9D9"/>
</mask>
<g mask="url(#mask1_850_202)">
<path fill-rule="evenodd" clip-rule="evenodd" d="M-1.7099 34.6369L23.4713 9.80105L23.5936 9.92509L-1.58756 34.7609L-1.7099 34.6369ZM24.2053 10.5453L-0.975835 35.3811L-0.85349 35.5052L24.3277 10.6694L24.2053 10.5453ZM20.0456 6.32779L-5.13554 31.1636L-5.0132 31.2877L20.168 6.45183L20.0456 6.32779ZM-4.89085 31.4117L20.2903 6.57588L20.4127 6.69992L-4.76851 31.5358L-4.89085 31.4117ZM24.45 10.7934L-0.73117 35.6292L-0.608827 35.7533L24.5723 10.9175L24.45 10.7934ZM-4.64616 31.6598L20.535 6.82397L20.6574 6.94801L-4.52382 31.7838L-4.64616 31.6598ZM24.6947 11.0415L-0.486482 35.8773L-0.364137 36.0014L24.817 11.1655L24.6947 11.0415ZM-4.40147 31.9079L20.7797 7.07206L20.902 7.19611L-4.27913 32.0319L-4.40147 31.9079ZM24.9394 11.2896L-0.241792 36.1254L-0.119449 36.2495L25.0617 11.4136L24.9394 11.2896ZM-4.15679 32.156L21.0244 7.32015L21.1467 7.4442L-4.03444 32.28L-4.15679 32.156ZM25.1841 11.5377L0.00289581 36.3735L0.125241 36.4976L25.3064 11.6617L25.1841 11.5377ZM-3.9121 32.4041L21.2691 7.56824L21.3914 7.69229L-3.78976 32.5281L-3.9121 32.4041ZM25.4288 11.7858L0.247585 36.6216L0.36993 36.7457L25.5511 11.9098L25.4288 11.7858ZM-3.66741 32.6522L21.5138 7.81634L21.6361 7.94038L-3.54507 32.7762L-3.66741 32.6522ZM25.6734 12.0339L0.492275 36.8697L0.614618 36.9937L25.7958 12.1579L25.6734 12.0339ZM-3.42272 32.9003L21.7585 8.06443L21.8808 8.18847L-3.30038 33.0243L-3.42272 32.9003ZM25.9181 12.282L0.736963 37.1178L0.859308 37.2418L26.0405 12.406L25.9181 12.282ZM-3.17803 33.1484L22.0031 8.31252L22.1255 8.43656L-3.05569 33.2724L-3.17803 33.1484ZM26.1628 12.5301L0.981652 37.3659L1.104 37.4899L26.2852 12.6541L26.1628 12.5301ZM-2.93335 33.3964L22.2478 8.56061L22.3702 8.68466L-2.811 33.5205L-2.93335 33.3964ZM26.4075 12.7781L1.22634 37.614L1.34868 37.738L26.5299 12.9022L26.4075 12.7781ZM-2.68866 33.6445L22.4925 8.8087L22.6149 8.93275L-2.56631 33.7686L-2.68866 33.6445ZM26.6522 13.0262L1.47103 37.8621L1.59337 37.9861L26.7745 13.1503L26.6522 13.0262ZM-5.38023 30.9155L19.8009 6.0797L19.9233 6.20374L-5.25789 31.0396L-5.38023 30.9155ZM26.8969 13.2743L1.71572 38.1102L1.83806 38.2342L27.0192 13.3984L26.8969 13.2743ZM-2.44397 33.8926L22.7372 9.05679L22.8596 9.18084L-2.32162 34.0167L-2.44397 33.8926ZM27.1416 13.5224L1.9604 38.3583L2.08275 38.4823L27.2639 13.6465L27.1416 13.5224ZM-2.19928 34.1407L22.9819 9.30488L23.1042 9.42893L-2.07694 34.2648L-2.19928 34.1407ZM27.3863 13.7705L2.20509 38.6063L2.32744 38.7304L27.5086 13.8946L27.3863 13.7705ZM-1.95459 34.3888L23.2266 9.55298L23.3489 9.67702L-1.83225 34.5129L-1.95459 34.3888ZM27.631 14.0186L2.44978 38.8544L2.57212 38.9785L27.7533 14.1426L27.631 14.0186ZM27.8756 14.2667L2.69447 39.1025L2.81682 39.2266L27.998 14.3907L27.8756 14.2667ZM-1.46521 34.885L23.716 10.0491L23.8383 10.1732L-1.34287 35.009L-1.46521 34.885ZM28.1203 14.5148L2.93916 39.3506L3.0615 39.4747L28.2427 14.6388L28.1203 14.5148ZM-1.22052 35.1331L23.9607 10.2972L24.083 10.4213L-1.09818 35.2571L-1.22052 35.1331ZM28.365 14.7629L3.18385 39.5987L3.30619 39.7227L28.4874 14.8869L28.365 14.7629ZM-13.9443 22.2324L11.2369 -2.60346L11.3592 -2.47942L-13.822 22.3564L-13.9443 22.2324ZM15.3966 1.61407L-9.7846 26.4499L-9.66226 26.5739L15.5189 1.73812L15.3966 1.61407ZM-13.6996 22.4805L11.4816 -2.35537L11.6039 -2.23133L-13.5773 22.6045L-13.6996 22.4805ZM15.6412 1.86216L-9.53993 26.698L-9.41759 26.822L15.7636 1.98621L15.6412 1.86216ZM-13.4549 22.7286L11.7262 -2.10728L11.8486 -1.98323L-13.3326 22.8526L-13.4549 22.7286ZM15.8859 2.11025L-9.29525 26.9461L-9.1729 27.0701L16.0083 2.2343L15.8859 2.11025ZM-13.2102 22.9766L11.9709 -1.85919L12.0933 -1.73514L-13.0879 23.1007L-13.2102 22.9766ZM16.1306 2.35835L-9.05056 27.1942L-8.92822 27.3182L16.253 2.48239L16.1306 2.35835ZM-12.9656 23.2247L12.2156 -1.6111L12.338 -1.48705L-12.8432 23.3488L-12.9656 23.2247ZM16.3753 2.60644L-8.80587 27.4423L-8.68353 27.5663L16.4976 2.73048L16.3753 2.60644ZM-12.7209 23.4728L12.4603 -1.363L12.5827 -1.23896L-12.5985 23.5969L-12.7209 23.4728ZM16.62 2.85453L-8.56118 27.6904L-8.43884 27.8144L16.7423 2.97857L16.62 2.85453ZM-12.4762 23.7209L12.705 -1.11491L12.8273 -0.990868L-12.3538 23.845L-12.4762 23.7209ZM16.8647 3.10262L-8.31649 27.9385L-8.19415 28.0625L16.987 3.22667L16.8647 3.10262ZM-12.2315 23.969L12.9497 -0.866822L13.072 -0.742777L-12.1091 24.0931L-12.2315 23.969ZM17.1094 3.35071L-8.0718 28.1865L-7.94946 28.3106L17.2317 3.47476L17.1094 3.35071ZM-11.9868 24.2171L13.1944 -0.618731L13.3167 -0.494685L-11.8645 24.3411L-11.9868 24.2171ZM17.3541 3.5988L-7.82712 28.4346L-7.70477 28.5587L17.4764 3.72285L17.3541 3.5988ZM-11.7421 24.4652L13.4391 -0.370639L13.5614 -0.246594L-11.6198 24.5892L-11.7421 24.4652ZM17.5987 3.84689L-7.58243 28.6827L-7.46008 28.8068L17.7211 3.97094L17.5987 3.84689ZM-11.4974 24.7133L13.6838 -0.122569L13.8061 0.00147627L-11.3751 24.8373L-11.4974 24.7133ZM17.8434 4.09499L-7.33774 28.9308L-7.21539 29.0549L17.9658 4.21903L17.8434 4.09499ZM-14.189 21.9843L10.9922 -2.85155L11.1145 -2.72751L-14.0667 22.1083L-14.189 21.9843ZM18.0881 4.34308L-7.09305 29.1789L-6.97071 29.303L18.2105 4.46712L18.0881 4.34308ZM-11.2527 24.9614L13.9284 0.125522L14.0508 0.249568L-11.1304 25.0854L-11.2527 24.9614ZM18.3328 4.59117L-6.84836 29.427L-6.72602 29.551L18.4552 4.71521L18.3328 4.59117ZM-11.008 25.2094L14.1731 0.373614L14.2955 0.497659L-10.8857 25.3335L-11.008 25.2094ZM18.5775 4.83924L-6.60367 29.6751L-6.48133 29.7991L18.6998 4.96328L18.5775 4.83924ZM-10.7634 25.4575L14.4178 0.621705L14.5402 0.745751L-10.641 25.5816L-10.7634 25.4575ZM18.8222 5.08733L-6.35899 29.9232L-6.23664 30.0472L18.9445 5.21138L18.8222 5.08733ZM-10.5187 25.7056L14.6625 0.869797L14.7849 0.993842L-10.3963 25.8297L-10.5187 25.7056ZM19.0669 5.33542L-6.1143 30.1713L-5.99195 30.2953L19.1892 5.45947L19.0669 5.33542ZM-10.274 25.9537L14.9072 1.11789L15.0295 1.24193L-10.1516 26.0778L-10.274 25.9537ZM19.3116 5.58351L-5.86961 30.4193L-5.74726 30.5434L19.4339 5.70756L19.3116 5.58351ZM-10.0293 26.2018L15.1519 1.36598L15.2742 1.49002L-9.90695 26.3259L-10.0293 26.2018ZM19.5563 5.8316L-5.62492 30.6674L-5.50257 30.7915L19.6786 5.95565L19.5563 5.8316Z" fill="url(#paint0_linear_850_202)"/>
</g>
<mask id="mask2_850_202" style="mask-type:alpha" maskUnits="userSpaceOnUse" x="12" y="5" width="4" height="4">
<path d="M12.7031 8.3175V5.92188L15.4037 7.57704L12.7031 8.3175Z" fill="#D9D9D9"/>
</mask>
<g mask="url(#mask2_850_202)">
<path fill-rule="evenodd" clip-rule="evenodd" d="M9.26666 34.5509L34.4478 9.71511L34.5702 9.83915L9.38901 34.675L9.26666 34.5509ZM35.1819 10.4594L10.0007 35.2952L10.1231 35.4193L35.3042 10.5834L35.1819 10.4594ZM31.0222 6.24185L5.84102 31.0777L5.96336 31.2017L31.1445 6.36589L31.0222 6.24185ZM6.08571 31.3258L31.2669 6.48994L31.3892 6.61399L6.20805 31.4498L6.08571 31.3258ZM35.4266 10.7075L10.2454 35.5433L10.3677 35.6674L35.5489 10.8315L35.4266 10.7075ZM6.3304 31.5739L31.5116 6.73803L31.6339 6.86208L6.45274 31.6979L6.3304 31.5739ZM35.6713 10.9556L10.4901 35.7914L10.6124 35.9154L35.7936 11.0796L35.6713 10.9556ZM6.57509 31.822L31.7563 6.98612L31.8786 7.11017L6.69743 31.946L6.57509 31.822ZM35.9159 11.2037L10.7348 36.0395L10.8571 36.1635L36.0383 11.3277L35.9159 11.2037ZM6.81978 32.07L32.001 7.23422L32.1233 7.35826L6.94212 32.1941L6.81978 32.07ZM36.1606 11.4517L10.9795 36.2876L11.1018 36.4116L36.283 11.5758L36.1606 11.4517ZM7.06446 32.3181L32.2456 7.48231L32.368 7.60635L7.18681 32.4422L7.06446 32.3181ZM36.4053 11.6998L11.2241 36.5357L11.3465 36.6597L36.5277 11.8239L36.4053 11.6998ZM7.30915 32.5662L32.4903 7.7304L32.6127 7.85444L7.4315 32.6903L7.30915 32.5662ZM36.65 11.9479L11.4688 36.7838L11.5912 36.9078L36.7724 12.072L36.65 11.9479ZM7.55384 32.8143L32.735 7.97849L32.8574 8.10253L7.67618 32.9384L7.55384 32.8143ZM36.8947 12.196L11.7135 37.0319L11.8359 37.1559L37.017 12.3201L36.8947 12.196ZM7.79853 33.0624L32.9797 8.22658L33.102 8.35063L7.92087 33.1865L7.79853 33.0624ZM37.1394 12.4441L11.9582 37.2799L12.0806 37.404L37.2617 12.5682L37.1394 12.4441ZM8.04322 33.3105L33.2244 8.47467L33.3467 8.59872L8.16556 33.4345L8.04322 33.3105ZM37.3841 12.6922L12.2029 37.528L12.3252 37.6521L37.5064 12.8163L37.3841 12.6922ZM8.28791 33.5586L33.4691 8.72276L33.5914 8.84681L8.41025 33.6826L8.28791 33.5586ZM37.6288 12.9403L12.4476 37.7761L12.5699 37.9002L37.7511 13.0643L37.6288 12.9403ZM5.59633 30.8296L30.7775 5.99376L30.8999 6.1178L5.71868 30.9536L5.59633 30.8296ZM37.8735 13.1884L12.6923 38.0242L12.8146 38.1483L37.9958 13.3124L37.8735 13.1884ZM8.53259 33.8067L33.7138 8.97086L33.8361 9.0949L8.65494 33.9307L8.53259 33.8067ZM38.1181 13.4365L12.937 38.2723L13.0593 38.3964L38.2405 13.5605L38.1181 13.4365ZM8.77728 34.0548L33.9585 9.21895L34.0808 9.34299L8.89963 34.1788L8.77728 34.0548ZM38.3628 13.6846L13.1817 38.5204L13.304 38.6444L38.4852 13.8086L38.3628 13.6846ZM9.02197 34.3029L34.2031 9.46704L34.3255 9.59108L9.14432 34.4269L9.02197 34.3029ZM38.6075 13.9327L13.4263 38.7685L13.5487 38.8925L38.7299 14.0567L38.6075 13.9327ZM38.8522 14.1808L13.671 39.0166L13.7934 39.1406L38.9746 14.3048L38.8522 14.1808ZM9.51135 34.799L34.6925 9.9632L34.8149 10.0872L9.63369 34.9231L9.51135 34.799ZM39.0969 14.4288L13.9157 39.2647L14.0381 39.3887L39.2192 14.5529L39.0969 14.4288ZM9.75604 35.0471L34.9372 10.2113L35.0596 10.3353L9.87838 35.1712L9.75604 35.0471ZM39.3416 14.6769L14.1604 39.5127L14.2828 39.6368L39.4639 14.801L39.3416 14.6769ZM-2.96775 22.1464L22.2134 -2.6894L22.3358 -2.56535L-2.8454 22.2705L-2.96775 22.1464ZM26.3731 1.52813L1.19196 26.364L1.3143 26.488L26.4955 1.65218L26.3731 1.52813ZM-2.72306 22.3945L22.4581 -2.44131L22.5805 -2.31726L-2.60071 22.5186L-2.72306 22.3945ZM26.6178 1.77623L1.43663 26.6121L1.55897 26.7361L26.7401 1.90027L26.6178 1.77623ZM-2.47837 22.6426L22.7028 -2.19322L22.8252 -2.06917L-2.35602 22.7667L-2.47837 22.6426ZM26.8625 2.02432L1.68132 26.8601L1.80366 26.9842L26.9848 2.14836L26.8625 2.02432ZM-2.23368 22.8907L22.9475 -1.94513L23.0698 -1.82108L-2.11134 23.0148L-2.23368 22.8907ZM27.1072 2.27241L1.926 27.1082L2.04835 27.2323L27.2295 2.39645L27.1072 2.27241ZM-1.98899 23.1388L23.1922 -1.69703L23.3145 -1.57299L-1.86665 23.2628L-1.98899 23.1388ZM27.3519 2.5205L2.17069 27.3563L2.29304 27.4804L27.4742 2.64454L27.3519 2.5205ZM-1.74431 23.3869L23.4369 -1.44894L23.5592 -1.3249L-1.62196 23.5109L-1.74431 23.3869ZM27.5966 2.76859L2.41538 27.6044L2.53772 27.7285L27.7189 2.89264L27.5966 2.76859ZM-1.49962 23.635L23.6816 -1.20085L23.8039 -1.07681L-1.37727 23.759L-1.49962 23.635ZM27.8412 3.01668L2.66007 27.8525L2.78241 27.9766L27.9636 3.14073L27.8412 3.01668ZM-1.25493 23.8831L23.9262 -0.952759L24.0486 -0.828714L-1.13258 24.0071L-1.25493 23.8831ZM28.0859 3.26477L2.90476 28.1006L3.0271 28.2247L28.2083 3.38882L28.0859 3.26477ZM-1.01024 24.1312L24.1709 -0.704668L24.2933 -0.580623L-0.887895 24.2552L-1.01024 24.1312ZM28.3306 3.51286L3.14945 28.3487L3.27179 28.4727L28.453 3.63691L28.3306 3.51286ZM-0.76555 24.3793L24.4156 -0.456577L24.538 -0.332531L-0.643206 24.5033L-0.76555 24.3793ZM28.5753 3.76096L3.39414 28.5968L3.51648 28.7208L28.6977 3.885L28.5753 3.76096ZM-0.520861 24.6273L24.6603 -0.208506L24.7827 -0.0844612L-0.398517 24.7514L-0.520861 24.6273ZM28.82 4.00905L3.63882 28.8449L3.76117 28.9689L28.9423 4.13309L28.82 4.00905ZM-3.21244 21.8983L21.9687 -2.93749L22.0911 -2.81345L-3.09009 22.0224L-3.21244 21.8983ZM29.0647 4.25714L3.88351 29.093L4.00585 29.217L29.187 4.38118L29.0647 4.25714ZM-0.276172 24.8754L24.905 0.0395849L25.0273 0.16363L-0.153828 24.9995L-0.276172 24.8754ZM29.3094 4.50523L4.1282 29.3411L4.25054 29.4651L29.4317 4.62928L29.3094 4.50523ZM-0.0314836 25.1235L25.1497 0.287676L25.272 0.411722L0.0908605 25.2476L-0.0314836 25.1235ZM29.5541 4.7533L4.37289 29.5891L4.49523 29.7132L29.6764 4.87735L29.5541 4.7533ZM0.213205 25.3716L25.3944 0.535768L25.5167 0.659813L0.335549 25.4956L0.213205 25.3716ZM29.7988 5.00139L4.61758 29.8372L4.73992 29.9613L29.9211 5.12544L29.7988 5.00139ZM0.457894 25.6197L25.6391 0.783859L25.7614 0.907905L0.580238 25.7437L0.457894 25.6197ZM30.0434 5.24948L4.86227 30.0853L4.98461 30.2094L30.1658 5.37353L30.0434 5.24948ZM0.702583 25.8678L25.8838 1.03195L26.0061 1.156L0.824927 25.9918L0.702583 25.8678ZM30.2881 5.49758L5.10695 30.3334L5.2293 30.4575L30.4105 5.62162L30.2881 5.49758ZM0.947272 26.1159L26.1284 1.28004L26.2508 1.40409L1.06962 26.2399L0.947272 26.1159ZM30.5328 5.74567L5.35164 30.5815L5.47399 30.7055L30.6552 5.86971L30.5328 5.74567Z" fill="url(#paint1_linear_850_202)"/>
</g>
<mask id="mask3_850_202" style="mask-type:alpha" maskUnits="userSpaceOnUse" x="13" y="15" width="7" height="14">
<path d="M13.9688 25.0413V15.3281L16.8435 17.0268V21.8181L19.6747 23.6039L19.5876 28.3952L13.9688 25.0413Z" fill="#D9D9D9"/>
</mask>
<g mask="url(#mask3_850_202)">
<path fill-rule="evenodd" clip-rule="evenodd" d="M10.5713 43.9572L35.7525 19.1214L35.8749 19.2454L10.6937 44.0812L10.5713 43.9572ZM36.4866 19.8656L11.3054 44.7015L11.4278 44.8255L36.6089 19.9897L36.4866 19.8656ZM32.3269 15.6481L7.14571 40.4839L7.26805 40.608L32.4492 15.7721L32.3269 15.6481ZM7.3904 40.732L32.5716 15.8962L32.6939 16.0202L7.51274 40.8561L7.3904 40.732ZM36.7313 20.1137L11.5501 44.9496L11.6724 45.0736L36.8536 20.2378L36.7313 20.1137ZM7.63509 40.9801L32.8163 16.1443L32.9386 16.2683L7.75743 41.1042L7.63509 40.9801ZM36.9759 20.3618L11.7948 45.1976L11.9171 45.3217L37.0983 20.4859L36.9759 20.3618ZM7.87978 41.2282L33.0609 16.3924L33.1833 16.5164L8.00212 41.3522L7.87978 41.2282ZM37.2206 20.6099L12.0395 45.4457L12.1618 45.5698L37.343 20.734L37.2206 20.6099ZM8.12446 41.4763L33.3056 16.6405L33.428 16.7645L8.24681 41.6003L8.12446 41.4763ZM37.4653 20.858L12.2841 45.6938L12.4065 45.8179L37.5877 20.982L37.4653 20.858ZM8.36915 41.7244L33.5503 16.8886L33.6727 17.0126L8.49149 41.8484L8.36915 41.7244ZM37.71 21.1061L12.5288 45.9419L12.6512 46.066L37.8324 21.2301L37.71 21.1061ZM8.61384 41.9725L33.795 17.1366L33.9174 17.2607L8.73618 42.0965L8.61384 41.9725ZM37.9547 21.3542L12.7735 46.19L12.8959 46.3141L38.077 21.4782L37.9547 21.3542ZM8.85853 42.2206L34.0397 17.3847L34.162 17.5088L8.98087 42.3446L8.85853 42.2206ZM38.1994 21.6023L13.0182 46.4381L13.1406 46.5621L38.3217 21.7263L38.1994 21.6023ZM9.10322 42.4687L34.2844 17.6328L34.4067 17.7569L9.22556 42.5927L9.10322 42.4687ZM38.4441 21.8504L13.2629 46.6862L13.3852 46.8102L38.5664 21.9744L38.4441 21.8504ZM9.3479 42.7168L34.5291 17.8809L34.6514 18.005L9.47025 42.8408L9.3479 42.7168ZM38.6888 22.0985L13.5076 46.9343L13.6299 47.0583L38.8111 22.2225L38.6888 22.0985ZM9.59259 42.9648L34.7738 18.129L34.8961 18.2531L9.71494 43.0889L9.59259 42.9648ZM38.9335 22.3465L13.7523 47.1824L13.8746 47.3064L39.0558 22.4706L38.9335 22.3465ZM6.90102 40.2358L32.0822 15.4L32.2045 15.5241L7.02336 40.3599L6.90102 40.2358ZM39.1781 22.5946L13.997 47.4305L14.1193 47.5545L39.3005 22.7187L39.1781 22.5946ZM9.83728 43.2129L35.0185 18.3771L35.1408 18.5012L9.95963 43.337L9.83728 43.2129ZM39.4228 22.8427L14.2417 47.6786L14.364 47.8026L39.5452 22.9668L39.4228 22.8427ZM10.082 43.461L35.2631 18.6252L35.3855 18.7492L10.2043 43.5851L10.082 43.461ZM39.6675 23.0908L14.4863 47.9267L14.6087 48.0507L39.7899 23.2149L39.6675 23.0908ZM10.3267 43.7091L35.5078 18.8733L35.6302 18.9973L10.449 43.8332L10.3267 43.7091ZM39.9122 23.3389L14.731 48.1747L14.8534 48.2988L40.0346 23.463L39.9122 23.3389ZM40.1569 23.587L14.9757 48.4228L15.0981 48.5469L40.2792 23.7111L40.1569 23.587ZM10.816 44.2053L35.9972 19.3694L36.1196 19.4935L10.9384 44.3293L10.816 44.2053ZM40.4016 23.8351L15.2204 48.6709L15.3428 48.795L40.5239 23.9591L40.4016 23.8351ZM11.0607 44.4534L36.2419 19.6175L36.3642 19.7416L11.1831 44.5774L11.0607 44.4534ZM40.6463 24.0832L15.4651 48.919L15.5874 49.043L40.7686 24.2072L40.6463 24.0832ZM-1.66306 31.5527L23.5181 6.71685L23.6405 6.8409L-1.54072 31.6767L-1.66306 31.5527ZM27.6778 10.9344L2.49665 35.7702L2.61899 35.8943L27.8002 11.0584L27.6778 10.9344ZM-1.41837 31.8008L23.7628 6.96494L23.8851 7.08899L-1.29603 31.9248L-1.41837 31.8008ZM27.9225 11.1825L2.74132 36.0183L2.86366 36.1424L28.0448 11.3065L27.9225 11.1825ZM-1.17368 32.0489L24.0075 7.21303L24.1298 7.33708L-1.05134 32.1729L-1.17368 32.0489ZM28.1672 11.4306L2.986 36.2664L3.10835 36.3904L28.2895 11.5546L28.1672 11.4306ZM-0.928993 32.297L24.2522 7.46112L24.3745 7.58517L-0.806649 32.421L-0.928993 32.297ZM28.4119 11.6787L3.23069 36.5145L3.35303 36.6385L28.5342 11.8027L28.4119 11.6787ZM-0.684304 32.545L24.4969 7.70922L24.6192 7.83326L-0.56196 32.6691L-0.684304 32.545ZM28.6566 11.9267L3.47538 36.7626L3.59772 36.8866L28.7789 12.0508L28.6566 11.9267ZM-0.439618 32.7931L24.7416 7.95731L24.8639 8.08135L-0.317274 32.9172L-0.439618 32.7931ZM28.9012 12.1748L3.72007 37.0107L3.84241 37.1347L29.0236 12.2989L28.9012 12.1748ZM-0.194929 33.0412L24.9862 8.2054L25.1086 8.32944L-0.0725849 33.1653L-0.194929 33.0412ZM29.1459 12.4229L3.96476 37.2588L4.0871 37.3828L29.2683 12.547L29.1459 12.4229ZM0.0497598 33.2893L25.2309 8.45349L25.3533 8.57754L0.172104 33.4134L0.0497598 33.2893ZM29.3906 12.671L4.20945 37.5069L4.33179 37.6309L29.513 12.7951L29.3906 12.671ZM0.294448 33.5374L25.4756 8.70158L25.598 8.82563L0.416793 33.6615L0.294448 33.5374ZM29.6353 12.9191L4.45413 37.7549L4.57648 37.879L29.7577 13.0432L29.6353 12.9191ZM0.539137 33.7855L25.7203 8.94967L25.8427 9.07372L0.661481 33.9096L0.539137 33.7855ZM29.88 13.1672L4.69882 38.003L4.82117 38.1271L30.0023 13.2913L29.88 13.1672ZM0.783827 34.0336L25.965 9.19774L26.0873 9.32179L0.90617 34.1576L0.783827 34.0336ZM30.1247 13.4153L4.94351 38.2511L5.06586 38.3752L30.247 13.5393L30.1247 13.4153ZM-1.90775 31.3046L23.2734 6.46876L23.3958 6.5928L-1.7854 31.4286L-1.90775 31.3046ZM30.3694 13.6634L5.1882 38.4992L5.31054 38.6233L30.4917 13.7874L30.3694 13.6634ZM1.02852 34.2817L26.2097 9.44583L26.332 9.56988L1.15086 34.4057L1.02852 34.2817ZM30.6141 13.9115L5.43289 38.7473L5.55523 38.8714L30.7364 14.0355L30.6141 13.9115ZM1.2732 34.5298L26.4544 9.69393L26.5767 9.81797L1.39555 34.6538L1.2732 34.5298ZM30.8588 14.1596L5.67758 38.9954L5.79992 39.1194L30.9811 14.2836L30.8588 14.1596ZM1.51789 34.7778L26.6991 9.94202L26.8214 10.0661L1.64024 34.9019L1.51789 34.7778ZM31.1034 14.4076L5.92226 39.2435L6.04461 39.3675L31.2258 14.5317L31.1034 14.4076ZM1.76258 35.0259L26.9438 10.1901L27.0661 10.3142L1.88493 35.15L1.76258 35.0259ZM31.3481 14.6557L6.16695 39.4916L6.2893 39.6156L31.4705 14.7798L31.3481 14.6557ZM2.00727 35.274L27.1884 10.4382L27.3108 10.5622L2.12961 35.3981L2.00727 35.274ZM31.5928 14.9038L6.41164 39.7397L6.53399 39.8637L31.7152 15.0279L31.5928 14.9038ZM2.25196 35.5221L27.4331 10.6863L27.5555 10.8103L2.3743 35.6462L2.25196 35.5221ZM31.8375 15.1519L6.65633 39.9877L6.77868 40.1118L31.9599 15.276L31.8375 15.1519Z" fill="url(#paint2_linear_850_202)"/>
</g>
<path fill-rule="evenodd" clip-rule="evenodd" d="M0.69875 6.00923L0.500006 6.05826L0.500006 6.26296L0.5 20.9143L0.5 21.0629L0.627669 21.1389L9.31117 26.3077L9.40642 26.3644L9.5134 26.3353L13.7603 25.1808L19.405 28.6185L19.4974 28.6748L19.6025 28.6493L24.0889 27.5604L24.2886 27.5119V27.3064V22.3409V22.1998L24.1706 22.1224L22.9908 21.3482V8.22357V8.0779L22.867 8.00129L20.1137 6.29874L20.1073 6.27393L20.0835 6.28006L14.3356 2.72573L14.2421 2.66797L14.1355 2.69428L0.69875 6.00923ZM19.3817 6.46065L16.8942 4.92247L13.0041 5.92351L15.5067 7.45779L19.3817 6.46065ZM16.4833 4.6684L12.5907 5.67008L10.199 4.2038L14.1541 3.22805L16.4833 4.6684ZM12.1211 5.79092L9.72359 4.32108L5.81553 5.28523L8.24 6.78965L12.1211 5.79092ZM7.77284 6.90986L5.34265 5.40189L1.40265 6.37392L3.89618 7.90744L7.77284 6.90986ZM8.18272 7.16419L10.6641 8.70393L6.80572 9.69681L4.30864 8.16111L8.18272 7.16419ZM11.1313 8.58372L8.64988 7.04398L12.5282 6.04597V8.22424L11.1313 8.58372ZM11.074 8.95826L7.21818 9.95047L9.63781 11.4385L13.4599 10.4387L11.074 8.95826ZM13.9248 10.3171L11.5411 8.83805L15.4505 7.83206L17.8354 9.29414L13.9248 10.3171ZM13.7043 10.735L9.82771 11.7491V16.1834L13.7043 15.2174V10.735ZM13.7043 15.5765L9.82771 16.5425V20.956L13.7043 20.0241V15.5765ZM9.47925 16.5416V20.9781L6.95295 19.442V15.0056L9.47925 16.5416ZM9.43229 21.3573L6.95295 19.8498V24.2574H6.88867L9.47925 25.7995V21.3859L9.43229 21.3573ZM6.6045 14.7937V19.2301L3.86041 17.5616V13.1252L6.6045 14.7937ZM6.6045 19.6379L3.86041 17.9694V22.4549L6.6045 24.0883V19.6379ZM3.51196 12.9133V17.3497L1.02269 15.8361L1.02269 11.3997L3.51196 12.9133ZM3.51196 17.7575L1.02268 16.2439L1.02268 20.7658L3.51196 22.2475V17.7575ZM13.7043 20.3825L9.82771 21.3144V25.7082L13.7043 24.6544V20.3825ZM14.0527 24.7469V20.3613C14.0639 20.3676 14.0756 20.3742 14.0879 20.3812C14.2045 20.4474 14.3664 20.5417 14.5634 20.6579C14.9571 20.8903 15.4885 21.2087 16.0731 21.5613C16.2521 21.6692 16.4361 21.7804 16.6226 21.8932V26.312L14.0527 24.7469ZM16.971 26.5242L19.4538 28.0363V23.6147C18.7736 23.1992 17.861 22.6433 16.971 22.1041V26.5242ZM16.971 21.6172L20.9347 20.6361V16.1395L16.971 17.1325V21.6172ZM16.7897 16.8187L20.6442 15.8531L18.3497 14.419L14.4457 15.3918L16.7897 16.8187ZM14.0527 15.5605V19.9667C14.0571 19.9687 14.0608 19.9704 14.0634 19.9717L14.0639 19.9719C14.0782 19.9787 14.0951 19.9874 14.1136 19.9972C14.151 20.017 14.2004 20.0444 14.2599 20.0781C14.3791 20.1458 14.543 20.2413 14.7405 20.3578C15.1356 20.5911 15.6681 20.9102 16.253 21.2629C16.3742 21.336 16.4976 21.4105 16.6226 21.486V17.1249L14.0527 15.5605ZM21.2013 15.7903L18.8197 14.3018L22.4682 13.3927V17.8155L21.2832 18.1202V15.9381V15.8415L21.2013 15.7903ZM21.2832 20.542V18.48L22.4682 18.1753V21.2318L21.2832 20.542ZM21.2393 20.9197L22.5305 21.6713L23.5612 22.3477C22.8957 22.5347 22.0688 22.762 21.3447 22.9567C20.8927 23.0782 20.4813 23.1869 20.1746 23.2651C20.0211 23.3043 19.8947 23.3356 19.8027 23.357C19.7739 23.3637 19.749 23.3693 19.728 23.3739L19.7189 23.3683C19.0671 22.97 18.1786 22.4286 17.2985 21.8951L21.2393 20.9197ZM19.8022 23.7143V28.063L23.7659 27.1009V22.6521C23.0814 22.8451 22.2008 23.0874 21.4351 23.2932C20.9826 23.4149 20.5696 23.524 20.2607 23.6028C20.1064 23.6421 19.9772 23.6741 19.8818 23.6963C19.8524 23.7032 19.8257 23.7092 19.8022 23.7143ZM9.47925 16.1338V11.7501L6.95295 10.1964V14.5977L9.47925 16.1338ZM6.6045 14.3859V9.98213L3.86041 8.29452V12.7174L6.6045 14.3859ZM3.51196 12.5055V8.14138V8.08022L1.02269 6.54932L1.02269 11.0143L1.03262 10.9979L3.51196 12.5055ZM22.4682 13.0336V8.44244L18.452 9.49303V14.0344L22.4682 13.0336ZM18.1035 14.1212L14.0527 15.1306V10.6438L18.1035 9.58419V14.1212ZM15.0371 7.57862L12.8767 6.25413V8.13457L15.0371 7.57862ZM15.9201 7.71122L18.3027 9.1719L22.142 8.16757L19.7926 6.71472L15.9201 7.71122Z" fill="url(#paint3_linear_850_202)"/>
<path fill-rule="evenodd" clip-rule="evenodd" d="M66.0458 11.2083C66.3933 11.6137 66.8712 11.7205 67.4695 11.7383C67.4988 11.7338 67.534 11.7296 67.5734 11.7248C67.6906 11.7108 67.845 11.6922 67.9928 11.6493C68.4964 11.503 68.8656 11.1846 69.0335 10.6843C69.1915 10.2176 69.2053 9.73309 69.0453 9.26245C68.9427 8.95791 68.7827 8.67315 68.5043 8.49715C67.8546 8.08781 67.1714 8.04035 66.4723 8.36861C65.9648 8.60789 65.7121 9.03108 65.5995 9.56698C65.4672 10.1958 65.641 10.7357 66.0458 11.2083ZM57.0273 13.3322C56.9365 13.4053 56.8457 13.4805 56.7548 13.5556C56.7272 13.5477 56.6976 13.5378 56.6679 13.526V13.0751C56.6679 12.3998 56.6684 11.7239 56.6689 11.0481C56.6694 10.3723 56.6699 9.69651 56.6699 9.02119C56.6699 8.99548 56.6695 8.96978 56.669 8.94407C56.6682 8.89265 56.6673 8.84124 56.6699 8.78982C56.6798 8.61976 56.587 8.5545 56.431 8.55054C56.3925 8.55054 56.354 8.54956 56.3155 8.54857C56.277 8.54758 56.2384 8.54659 56.1999 8.54659H54.1265C53.542 8.54659 53.54 8.54659 53.54 9.12798C53.54 11.8312 53.54 14.5325 53.544 17.2358C53.544 17.6629 53.5538 18.094 53.5914 18.5192C53.7 19.7235 54.1798 20.7537 55.0447 21.606C55.8741 22.4247 56.8852 22.8875 58.0167 23.0338C59.1561 23.1821 60.2935 23.105 61.3796 22.6581C62.5071 22.1934 63.3839 21.4498 63.9408 20.3563C64.3791 19.496 64.543 18.5785 64.4897 17.6135C64.4167 16.3083 63.9941 15.1574 63.0995 14.1805C62.2998 13.3084 61.3203 12.82 60.1691 12.6262C59.6873 12.5451 59.2114 12.5708 58.7295 12.6203C58.0858 12.6875 57.525 12.9287 57.0273 13.3322ZM59.1401 20.1593H59.1401H59.14C59.0946 20.1579 59.0492 20.1565 59.004 20.1565C58.6071 20.1763 58.226 20.1111 57.8488 19.9706C57.211 19.7294 56.9187 19.2311 56.7884 18.6141C56.6877 18.1395 56.6877 17.6629 56.7627 17.1764C56.9049 16.2608 57.5388 15.6182 58.4649 15.547C58.8441 15.5173 59.2311 15.5213 59.6102 15.5529C60.2757 15.6102 60.7674 15.986 61.0636 16.5535C61.5237 17.4375 61.5218 18.3491 61.0083 19.2212C60.6588 19.8124 60.094 20.0794 59.4305 20.1546C59.3349 20.1653 59.2375 20.1623 59.1401 20.1593ZM39.3451 13.8855C39.3923 13.9044 39.4398 13.9235 39.488 13.9412C39.5023 13.9166 39.5157 13.8964 39.5274 13.8787L39.5274 13.8787C39.5449 13.8522 39.5588 13.8312 39.567 13.8087C39.5789 13.7553 39.5809 13.7 39.5809 13.6446C39.5818 13.2158 39.5818 12.7874 39.5818 12.3593V12.3585C39.5818 11.9301 39.5818 11.502 39.5828 11.0738C39.5828 10.8919 39.5433 10.7436 39.3459 10.6922C39.2644 10.6708 39.183 10.6478 39.1017 10.6248C38.8972 10.567 38.6926 10.5092 38.4849 10.4766C37.5193 10.3263 36.5497 10.2472 35.5702 10.2512C34.9482 10.2532 34.342 10.3362 33.7515 10.4944C32.2962 10.884 31.0916 11.6552 30.2346 12.9268C29.8555 13.4884 29.5869 14.1014 29.4052 14.7441C29.2334 15.3453 29.1702 15.9682 29.1643 16.599C29.1564 17.655 29.3302 18.6694 29.7765 19.6345C30.2919 20.7577 31.0936 21.6238 32.1382 22.2566C33.0762 22.8242 34.1208 23.0793 35.2049 23.1267C35.6907 23.148 36.18 23.1191 36.6683 23.0901L36.6687 23.0901C36.8154 23.0814 36.9621 23.0728 37.1085 23.0654C37.8569 23.0279 38.5856 22.8776 39.3083 22.6956C39.5532 22.6343 39.5769 22.6106 39.5789 22.3595C39.5828 21.4815 39.5809 20.6015 39.5769 19.7235C39.5756 19.6696 39.5596 19.6157 39.5426 19.5587C39.5347 19.532 39.5266 19.5046 39.5196 19.4763C39.4879 19.4828 39.4604 19.4872 39.4359 19.4911C39.3932 19.4979 39.3594 19.5033 39.3281 19.5158C38.7041 19.7689 38.0584 19.9172 37.3889 19.9924C36.4273 20.0992 35.4715 20.1723 34.5138 19.9588C33.5087 19.7353 32.8116 19.1717 32.5233 18.1711C32.3001 17.3939 32.2291 16.595 32.3732 15.7922C32.4522 15.3492 32.5786 14.9181 32.8195 14.5285C33.2046 13.9076 33.797 13.6011 34.4842 13.4567C35.4182 13.261 36.3641 13.2966 37.3001 13.4093C37.7337 13.4608 38.1619 13.566 38.5895 13.6711C38.7363 13.7072 38.883 13.7432 39.0299 13.7771C39.1363 13.8017 39.2398 13.8432 39.3451 13.8855L39.3451 13.8855ZM51.5337 15.6933C51.5337 15.957 51.5341 16.2206 51.5346 16.4843C51.5355 17.0116 51.5363 17.539 51.5337 18.0663C51.5278 19.2133 51.1723 20.2455 50.4851 21.1591C49.9737 21.8394 49.3122 22.3239 48.5341 22.6719C47.5251 23.1228 46.4666 23.1663 45.4042 23.0397C44.1207 22.8875 43.0129 22.3338 42.1677 21.3292C41.7194 20.7953 41.4074 20.1803 41.2139 19.5059C41.0263 18.8553 40.9691 18.1929 40.9691 17.5205V13.2372C40.9691 13.2175 40.969 13.1977 40.9689 13.1779C40.9686 13.0988 40.9683 13.0197 40.973 12.9406C40.9868 12.6895 41.0184 12.6479 41.2633 12.646C42.1302 12.64 42.9971 12.642 43.862 12.6479C44.1009 12.6499 44.1286 12.6816 44.1345 12.9169C44.14 13.1163 44.1388 13.3166 44.1375 13.5166V13.5166V13.5166V13.5167C44.137 13.6023 44.1365 13.6878 44.1365 13.7731C44.1365 14.1029 44.1366 14.4325 44.1367 14.7621V14.7623V14.7625V14.7627C44.1371 15.7512 44.1375 16.7391 44.1345 17.7282C44.1325 18.1494 44.1937 18.5567 44.3379 18.9542C44.5867 19.6365 45.2305 20.1229 45.9572 20.1565C46.1428 20.1644 46.3304 20.1664 46.516 20.1605C47.4026 20.1249 48.0642 19.6068 48.2597 18.7406C48.3544 18.3155 48.3959 17.8725 48.4018 17.4355C48.4124 16.4916 48.4106 15.5468 48.4089 14.6017C48.408 14.1292 48.4071 13.6565 48.4078 13.1838C48.4078 12.6479 48.4117 12.644 48.931 12.644C49.0804 12.644 49.2296 12.6439 49.3788 12.6438H49.3788H49.3789H49.3789C49.9755 12.6435 50.5713 12.6432 51.1684 12.6479C51.5179 12.6499 51.5377 12.6717 51.5396 13.0276C51.5409 13.6209 51.5405 14.2141 51.5401 14.8074L51.5401 14.818C51.5398 15.1111 51.5396 15.4042 51.5396 15.6973C51.5368 15.6944 51.536 15.6936 51.5351 15.6934C51.5349 15.6934 51.5347 15.6933 51.5346 15.6933C51.5343 15.6933 51.534 15.6933 51.5337 15.6933ZM79.1035 16.0786L79.1044 16.0789C79.1158 16.0526 79.1261 16.0319 79.1348 16.0146C79.1503 15.9837 79.1604 15.9633 79.1617 15.9405C79.1643 15.3408 79.1652 14.7403 79.1661 14.14V14.1396V14.1391L79.1661 14.1186C79.1666 13.8254 79.167 13.5322 79.1676 13.2392C79.1676 13.0988 79.0926 13.0158 78.9583 12.9841C78.8098 12.9498 78.6618 12.9116 78.5139 12.8733L78.5138 12.8733C78.1838 12.788 77.8541 12.7027 77.5188 12.6618C76.9224 12.5906 76.3162 12.5649 75.7139 12.5767C74.8154 12.5965 73.9584 12.8061 73.1507 13.2155C72.2522 13.6723 71.5374 14.3308 71.0872 15.2266C70.3131 16.7671 70.2499 18.3669 70.868 19.9786C71.2195 20.8941 71.8237 21.6278 72.6373 22.1736C73.5931 22.8143 74.6653 23.101 75.8067 23.1149C76.2865 23.1208 76.7723 23.103 77.2502 23.0437C77.7913 22.9765 78.3284 22.8637 78.8596 22.7431C79.1637 22.6739 79.1657 22.6462 79.1676 22.3338C79.1716 21.521 79.1696 20.7083 79.1676 19.8955C79.1676 19.8423 79.156 19.7881 79.1442 19.7331L79.1442 19.733C79.1384 19.7063 79.1327 19.6794 79.1281 19.6523C79.107 19.6542 79.0892 19.6553 79.0737 19.6563C79.0429 19.6582 79.0215 19.6595 79.0018 19.6661C78.3718 19.8975 77.7261 20.0596 77.0547 20.117C76.4406 20.1704 75.8264 20.2 75.2222 20.0656C74.8253 19.9766 74.4521 19.8105 74.1756 19.4862C73.6819 18.9067 73.52 18.2285 73.6049 17.4889C73.7273 16.4309 74.3533 15.7922 75.3821 15.6142C76.4366 15.4323 77.4773 15.5509 78.4943 15.8792C78.6973 15.9443 78.9003 16.0114 79.1034 16.0786L79.1035 16.0786ZM65.7969 17.8132V13.17C65.7969 12.6558 65.8049 12.6479 66.3044 12.6479C66.4881 12.6479 66.6718 12.6478 66.8554 12.6477C67.4063 12.6473 67.9573 12.647 68.5082 12.6499C68.915 12.6519 68.9426 12.6776 68.9486 13.0751C68.9528 13.3971 68.952 13.718 68.9512 14.0394C68.9509 14.1681 68.9505 14.2968 68.9505 14.4257L68.9446 22.4287C68.9446 22.9824 68.9426 22.9844 68.4055 22.9864H68.405C67.6923 22.9883 66.9796 22.9903 66.2669 22.9864C65.8206 22.9844 65.8009 22.9646 65.7989 22.5236C65.7976 21.4769 65.798 20.4301 65.7985 19.3833L65.7985 19.3646C65.7987 18.8475 65.7989 18.3303 65.7989 17.8132H65.7969Z" fill="url(#paint4_linear_850_202)"/>
</g>
<defs>
<linearGradient id="paint0_linear_850_202" x1="0.849235" y1="6.50286" x2="9.60417" y2="25.8857" gradientUnits="userSpaceOnUse">
<stop stop-color="#4CD0F8"/>
<stop offset="1" stop-color="#9188E8"/>
</linearGradient>
<linearGradient id="paint1_linear_850_202" x1="12.784" y1="5.93779" x2="15.441" y2="7.59296" gradientUnits="userSpaceOnUse">
<stop stop-color="#AA6DE2"/>
<stop offset="1" stop-color="#BF57DD"/>
</linearGradient>
<linearGradient id="paint2_linear_850_202" x1="19.4027" y1="28.3676" x2="13.871" y2="15.3876" gradientUnits="userSpaceOnUse">
<stop stop-color="#DE36D6"/>
<stop offset="1" stop-color="#B463E0"/>
</linearGradient>
<linearGradient id="paint3_linear_850_202" x1="0.506529" y1="12.7584" x2="22.9318" y2="12.5554" gradientUnits="userSpaceOnUse">
<stop stop-color="#4AD2F8"/>
<stop offset="1" stop-color="#F919CF"/>
</linearGradient>
<linearGradient id="paint4_linear_850_202" x1="29.1643" y1="16.4724" x2="79.1676" y2="16.8644" gradientUnits="userSpaceOnUse">
<stop stop-color="#2FD6FF"/>
<stop offset="1" stop-color="#F912CF"/>
</linearGradient>
</defs>
</svg>
