<svg width="24" height="24" viewBox="0 0 24 24" fill="none" xmlns="http://www.w3.org/2000/svg">
<path d="M4.31083 17.4936C4.2508 17.4936 4.19077 17.4836 4.13074 17.4636C3.86062 17.3635 3.72055 17.0634 3.8206 16.7833L5.9716 10.9806L4.31083 12.3712C3.96066 12.6714 3.45043 12.6914 3.07025 12.4212L2.63005 12.1111C2.3099 11.891 2.14983 11.5008 2.20985 11.1106L2.81013 7.44893L2.2999 6.96871C1.97975 6.64856 1.90971 6.16834 2.11981 5.76815C2.98021 4.10739 4.80105 4.02735 4.88109 4.01734C8.46275 3.6972 10.2336 7.89914 10.6938 9.18974L14.9958 9.16973C17.1568 6.83865 19.3278 8.06922 20.1582 8.70952C20.4483 8.92962 20.5984 9.29979 20.5383 9.65996C20.4783 10.0301 20.2282 10.3403 19.878 10.4703L18.7075 10.9005L18.3073 12.0411L20.2982 16.7532C20.4083 17.0234 20.2882 17.3335 20.0181 17.4436C19.748 17.5536 19.4378 17.4336 19.3278 17.1634L17.3369 12.4212C17.2368 12.1811 17.2268 11.921 17.3169 11.6809L17.737 10.5204C17.8371 10.2302 18.0572 10.0101 18.3473 9.91007L19.4678 9.50989C18.1572 8.53944 16.9067 8.6695 15.7561 9.90007C15.556 10.1102 15.2859 10.2302 15.0058 10.2302H10.6638C10.2336 10.2302 9.84339 9.9601 9.70332 9.54991C9.30314 8.42939 7.80244 4.81771 4.95112 5.06783C4.87109 5.06783 3.63051 5.13786 3.06025 6.24838L3.57048 6.7386C3.80059 6.96871 3.91064 7.29886 3.85061 7.61901L3.25034 11.2807L3.67053 11.5508L5.38132 10.0802C5.7715 9.75 6.35177 9.76 6.73195 10.1102C7.04209 10.3903 7.14214 10.8205 7.00207 11.2107L4.80105 17.1534C4.72102 17.3635 4.52092 17.4936 4.31083 17.4936Z" fill="#43CEFC"/>
<path d="M7.03951 19.374C6.94947 19.374 6.84942 19.354 6.76939 19.294C6.51927 19.1439 6.43923 18.8238 6.5893 18.5737C7.72983 16.6728 9.96086 15.4922 12.402 15.4922C14.7231 15.4922 16.8941 16.5827 18.0746 18.3536C18.2347 18.5937 18.1747 18.9238 17.9246 19.0839C17.6844 19.244 17.3543 19.1839 17.1942 18.9338C16.2138 17.4631 14.3729 16.5427 12.402 16.5427C10.331 16.5427 8.45016 17.5232 7.48972 19.1139C7.39968 19.284 7.21959 19.374 7.03951 19.374ZM14.9432 12.901H10.9413C10.6512 12.901 10.4111 12.6609 10.4111 12.3708V9.86963C10.4111 9.5795 10.6512 9.33939 10.9413 9.33939H14.9432C15.2333 9.33939 15.4734 9.5795 15.4734 9.86963V12.3708C15.4634 12.6609 15.2333 12.901 14.9432 12.901ZM11.4716 11.8405H14.4129V10.3999H11.4716V11.8405Z" fill="#43CEFC"/>
<path d="M12.1149 20.7349C8.37313 20.7349 4.91153 19.0341 2.62046 16.0828C2.44038 15.8526 2.4804 15.5225 2.71051 15.3424C2.94061 15.1623 3.27077 15.2023 3.45085 15.4325C5.54182 18.1337 8.70328 19.6744 12.1149 19.6744C15.6565 19.6744 18.9981 17.9436 21.049 15.0523C21.2191 14.8122 21.5492 14.7621 21.7793 14.9322C22.0194 15.1023 22.0695 15.4325 21.8994 15.6626C19.6584 18.844 15.9967 20.7349 12.1149 20.7349Z" fill="#43CEFC"/>
</svg>
