<svg width="7" height="7" viewBox="0 0 7 7" fill="none" xmlns="http://www.w3.org/2000/svg">
<path d="M6.23 2.946C6.27667 2.946 6.314 2.96467 6.342 3.002C6.37933 3.03 6.398 3.06733 6.398 3.114V4.472C6.398 4.51867 6.37933 4.56067 6.342 4.598C6.314 4.626 6.27667 4.64 6.23 4.64H4.312C4.26533 4.64 4.242 4.66333 4.242 4.71V6.6C4.242 6.64667 4.22333 6.68867 4.186 6.726C4.158 6.754 4.12067 6.768 4.074 6.768H2.73C2.68333 6.768 2.64133 6.754 2.604 6.726C2.576 6.68867 2.562 6.64667 2.562 6.6V4.71C2.562 4.66333 2.53867 4.64 2.492 4.64H0.574C0.527333 4.64 0.485333 4.626 0.448 4.598C0.42 4.56067 0.406 4.51867 0.406 4.472V3.114C0.406 3.06733 0.42 3.03 0.448 3.002C0.485333 2.96467 0.527333 2.946 0.574 2.946H2.492C2.53867 2.946 2.562 2.92267 2.562 2.876V0.944C2.562 0.897333 2.576 0.86 2.604 0.832C2.64133 0.794666 2.68333 0.776 2.73 0.776H4.074C4.12067 0.776 4.158 0.794666 4.186 0.832C4.22333 0.86 4.242 0.897333 4.242 0.944V2.876C4.242 2.92267 4.26533 2.946 4.312 2.946H6.23Z" fill="#F9C439"/>
</svg>
