<svg width="16" height="16" viewBox="0 0 16 16" fill="none" xmlns="http://www.w3.org/2000/svg">
<path fill-rule="evenodd" clip-rule="evenodd" d="M13.2637 1.59699C13.0307 1.44872 12.7216 1.51737 12.5734 1.75033L11.814 2.94338C11.6657 3.17634 11.7344 3.48539 11.9674 3.63367C12.2003 3.78194 12.5094 3.71329 12.6576 3.48033L13.417 2.28727C13.5653 2.05431 13.4966 1.74526 13.2637 1.59699ZM4.0957 3.4603C4.0681 3.00889 4.53087 2.69039 4.94265 2.87738L7.35597 3.97325C7.50391 4.04042 7.67276 4.04473 7.82393 3.98519L10.29 3.01389C10.7108 2.84815 11.1567 3.18985 11.1061 3.63926L10.8097 6.2731C10.7915 6.43456 10.8396 6.59648 10.9429 6.72185L12.6287 8.76709C12.9164 9.11607 12.7292 9.64574 12.2862 9.73651L10.4935 10.1038L13.8751 14.1277C14.0577 14.345 14.0379 14.6766 13.8308 14.8687C13.7397 14.9534 13.6221 15.0001 13.5004 15C13.3618 15 13.224 14.9399 13.1251 14.8222L9.4136 10.4058C9.37161 10.4428 9.33461 10.4858 9.304 10.5338L7.87981 12.7692C7.6368 13.1506 7.07521 13.1362 6.85197 12.7429L5.5437 10.4378C5.4635 10.2965 5.32943 10.1938 5.17213 10.1531L2.60611 9.48939C2.16827 9.37614 2.00836 8.8376 2.31344 8.50376L4.10143 6.5472C4.21103 6.42726 4.26731 6.26801 4.2574 6.10584L4.0957 3.4603ZM14.369 3.71655C14.6093 3.58052 14.9144 3.66506 15.0504 3.90537C15.1865 4.14568 15.1019 4.45077 14.8616 4.5868L13.6309 5.28345C13.3906 5.41948 13.0855 5.33495 12.9495 5.09463C12.8134 4.85432 12.898 4.54923 13.1383 4.4132L14.369 3.71655ZM1.26841 2.79516C1.03541 2.64695 0.72638 2.71569 0.578175 2.94869C0.429971 3.1817 0.498713 3.49073 0.731715 3.63893L1.92499 4.39793C2.158 4.54614 2.46703 4.4774 2.61523 4.24439C2.76343 4.01139 2.69469 3.70236 2.46169 3.55416L1.26841 2.79516Z" fill="url(#paint0_linear_1135_1352)"/>
<defs>
<linearGradient id="paint0_linear_1135_1352" x1="0.591346" y1="8.76491" x2="15.024" y2="8.76491" gradientUnits="userSpaceOnUse">
<stop offset="0.0001" stop-color="#C9A444"/>
<stop offset="0.400932" stop-color="#FFC42D"/>
<stop offset="0.997178" stop-color="#FFF7CA"/>
</linearGradient>
</defs>
</svg>
