<svg width="18" height="18" viewBox="0 0 18 18" fill="none" xmlns="http://www.w3.org/2000/svg">
<g clip-path="url(#clip0_1135_1157)">
<path fill-rule="evenodd" clip-rule="evenodd" d="M0.03125 8.26875C0.36875 3.65625 4.27812 0 8.975 0C13.9531 0 17.975 4.02187 17.975 9C17.975 13.9781 13.9531 18 8.975 18C4.86875 18 1.38125 15.2156 0.3125 11.4469L3.74375 12.9094C3.96875 14.0625 5.00938 14.9625 6.24688 14.9625C7.65313 14.9625 8.80625 13.8094 8.80625 12.4031V12.2906L11.8719 10.0969H11.9563C13.8406 10.0969 15.3594 8.57812 15.3594 6.69375C15.3594 4.80937 13.8406 3.29062 11.9563 3.29062C10.0719 3.29062 8.55313 4.8375 8.55313 6.69375V6.72187L6.41563 9.84375H6.275C5.74063 9.84375 5.2625 9.98438 4.84063 10.2656L0.03125 8.26875ZM4.55469 13.218L5.65156 13.668C6.38281 13.9492 7.19844 13.6117 7.53594 12.9086C7.84531 12.2055 7.47969 11.3898 6.77656 11.0805L5.62344 10.6023C6.07344 10.4617 6.57969 10.4336 7.02969 10.6305C7.47969 10.8273 7.84531 11.193 8.04219 11.6711C8.23906 12.1492 8.23906 12.6555 8.04219 13.1336C7.62031 14.0898 6.49531 14.568 5.53906 14.1461C5.08906 13.9773 4.75156 13.6398 4.55469 13.218ZM11.9234 4.38672C13.1891 4.38672 14.2016 5.42734 14.2016 6.66484C14.2016 7.93047 13.1609 8.94297 11.9234 8.94297C10.6859 8.94297 9.64531 7.93047 9.64531 6.66484C9.64531 5.39922 10.6859 4.38672 11.9234 4.38672ZM11.9516 4.97734C11.0234 4.97734 10.2641 5.70859 10.2641 6.66484C10.2641 7.62109 11.0234 8.38047 11.9516 8.35234C12.8797 8.35234 13.6391 7.62109 13.6391 6.66484C13.6391 5.73672 12.9078 4.97734 11.9516 4.97734Z" fill="url(#paint0_linear_1135_1157)"/>
</g>
<defs>
<linearGradient id="paint0_linear_1135_1157" x1="9" y1="3.29353e-07" x2="12.7226" y2="17.1941" gradientUnits="userSpaceOnUse">
<stop stop-color="#CAA444"/>
<stop offset="1" stop-color="#FFE591"/>
</linearGradient>
<clipPath id="clip0_1135_1157">
<rect width="18" height="18" fill="white"/>
</clipPath>
</defs>
</svg>
