<svg width="348" height="146" viewBox="0 0 348 146" fill="none" xmlns="http://www.w3.org/2000/svg">
<rect width="348" height="146" rx="12" fill="url(#paint0_linear_1135_1127)"/>
<rect x="1.5" y="1.5" width="345" height="143" rx="10.5" stroke="url(#paint1_linear_1135_1127)" stroke-opacity="0.2" stroke-width="3"/>
<rect width="348" height="146" rx="12" fill="url(#paint2_radial_1135_1127)" fill-opacity="0.4"/>
<mask id="mask0_1135_1127" style="mask-type:alpha" maskUnits="userSpaceOnUse" x="3" y="2" width="342" height="142">
<rect x="3" y="2.9787" width="342" height="140.041" rx="9" fill="#9F62E7"/>
</mask>
<g mask="url(#mask0_1135_1127)">
<path opacity="0.3" fill-rule="evenodd" clip-rule="evenodd" d="M212 45.5669C214.84 6.75988 247.731 -24.0018 287.248 -24.0018C329.131 -24.0018 362.969 9.83605 362.969 51.7192C362.969 93.6024 329.131 127.44 287.248 127.44C252.7 127.44 223.358 104.014 214.366 72.3059L243.235 84.6105C245.128 94.3123 253.883 101.884 264.295 101.884C276.126 101.884 285.828 92.1826 285.828 80.3512V79.4047L311.62 60.9477H312.33C328.184 60.9477 340.962 48.1698 340.962 32.3157C340.962 16.4616 328.184 3.68372 312.33 3.68372C296.476 3.68372 283.698 16.6983 283.698 32.3157V32.5523L265.715 58.8181H264.531C260.036 58.8181 256.013 60.0012 252.463 62.3675L212 45.5669ZM250.058 87.2069L259.286 90.9929C265.439 93.3592 272.301 90.5197 275.14 84.604C277.743 78.6883 274.667 71.826 268.751 69.2231L259.05 65.2005C262.836 64.0173 267.095 63.7807 270.881 65.4371C274.667 67.0935 277.743 70.1696 279.4 74.1923C281.056 78.215 281.056 82.4743 279.4 86.497C275.85 94.5423 266.385 98.565 258.34 95.0156C254.554 93.5958 251.714 90.7563 250.058 87.2069ZM312.054 12.9056C322.703 12.9056 331.221 21.6609 331.221 32.0725C331.221 42.7208 322.466 51.2394 312.054 51.2394C301.643 51.2394 292.887 42.7208 292.887 32.0725C292.887 21.4243 301.643 12.9056 312.054 12.9056ZM312.291 17.8748C304.482 17.8748 298.093 24.0272 298.093 32.0725C298.093 40.1179 304.482 46.5068 312.291 46.2702C320.1 46.2702 326.489 40.1179 326.489 32.0725C326.489 24.2638 320.336 17.8748 312.291 17.8748Z" fill="url(#paint3_linear_1135_1127)"/>
</g>
<defs>
<linearGradient id="paint0_linear_1135_1127" x1="174" y1="0" x2="174" y2="146" gradientUnits="userSpaceOnUse">
<stop stop-color="#19112A"/>
<stop offset="1" stop-color="#130D21" stop-opacity="0"/>
</linearGradient>
<linearGradient id="paint1_linear_1135_1127" x1="174" y1="-106.458" x2="174" y2="146" gradientUnits="userSpaceOnUse">
<stop stop-color="#B848E2" stop-opacity="0.5"/>
<stop offset="1" stop-color="#B848E2" stop-opacity="0"/>
</linearGradient>
<radialGradient id="paint2_radial_1135_1127" cx="0" cy="0" r="1" gradientUnits="userSpaceOnUse" gradientTransform="rotate(13.7879) scale(323.317 165.061)">
<stop stop-color="#9F62E7" stop-opacity="0.4"/>
<stop offset="1" stop-color="#19112A" stop-opacity="0"/>
</radialGradient>
<linearGradient id="paint3_linear_1135_1127" x1="287.458" y1="-24.0018" x2="318.778" y2="120.659" gradientUnits="userSpaceOnUse">
<stop stop-color="#412B68"/>
<stop offset="1" stop-color="#B6BDFF" stop-opacity="0.1"/>
</linearGradient>
</defs>
</svg>
