<svg width="106" height="24" viewBox="0 0 106 24" fill="none" xmlns="http://www.w3.org/2000/svg">
<g clip-path="url(#clip0_161_140)">
<path d="M4.07682 5.82491L8.97093 3L13.8651 5.82491L12.0657 6.8685L8.97093 5.0872L5.87614 6.8685L4.07682 5.82491ZM13.8651 9.38754L12.0657 8.34393L8.97093 10.1252L5.87614 8.34393L4.07682 9.38754V11.4747L7.17163 13.256V16.8186L8.97093 17.8623L10.7702 16.8186V13.256L13.8651 11.4747V9.38754ZM13.8651 15.0374V12.9502L12.0657 13.9938V16.0809L13.8651 15.0374ZM15.1425 15.7751L12.0477 17.5564V19.6436L16.9419 16.8186V11.1688L15.1425 12.2124V15.7751ZM13.3433 7.60622L15.1425 8.64981V10.737L16.9419 9.69341V7.60622L15.1425 6.56263L13.3433 7.60622ZM7.17163 18.3121V20.3993L8.97093 21.4428L10.7702 20.3993V18.3121L8.97093 19.3557L7.17163 18.3121ZM4.07682 15.0374L5.87614 16.0809V13.9938L4.07682 12.9502V15.0374ZM7.17163 7.60622L8.97093 8.64981L10.7702 7.60622L8.97093 6.56263L7.17163 7.60622ZM2.7993 8.64981L4.59861 7.60622L2.7993 6.56263L1 7.60622V9.69341L2.7993 10.737V8.64981ZM2.7993 12.2124L1 11.1688V16.8186L5.8941 19.6436V17.5564L2.7993 15.7751V12.2124Z" fill="#F0B90B"/>
<path d="M31.1272 14.574V14.5446C31.1272 13.1663 30.394 12.4772 29.2063 12.0226C29.9394 11.6121 30.5553 10.9669 30.5553 9.80855V9.77921C30.5553 8.16631 29.265 7.12524 27.1682 7.12524H22.4028V17.3893H27.2856C29.6023 17.3893 31.1272 16.4508 31.1272 14.574ZM28.3119 10.1898C28.3119 10.9522 27.6814 11.2748 26.6843 11.2748H24.6022V9.10473H26.8309C27.784 9.10473 28.3119 9.48596 28.3119 10.1605V10.1898ZM28.8838 14.2954C28.8838 15.0578 28.2825 15.4097 27.2856 15.4097H24.6022V13.1517H27.2121C28.3706 13.1517 28.8838 13.5769 28.8838 14.266V14.2954Z" fill="#F0B90B"/>
<path d="M42.2514 17.3893V7.12524H40.0226V13.4449L35.2132 7.12524H33.1311V17.3893H35.3599V10.8643L40.3305 17.3893H42.2514Z" fill="#F0B90B"/>
<path d="M53.5862 14.574V14.5446C53.5862 13.1663 52.853 12.4772 51.6654 12.0226C52.3985 11.6121 53.0144 10.9669 53.0144 9.80855V9.77921C53.0144 8.16631 51.724 7.12524 49.6272 7.12524H44.8618V17.3893H49.7445C52.0612 17.3893 53.5862 16.4508 53.5862 14.574ZM50.7709 10.1898C50.7709 10.9522 50.1404 11.2748 49.1434 11.2748H47.0613V9.10473H49.29C50.2431 9.10473 50.7709 9.48596 50.7709 10.1605V10.1898ZM51.3428 14.2954C51.3428 15.0578 50.7416 15.4097 49.7445 15.4097H47.0613V13.1517H49.6712C50.8296 13.1517 51.3428 13.5769 51.3428 14.266V14.2954Z" fill="#F0B90B"/>
<path d="M67.1953 15.5761L66.0368 14.4031C65.1571 15.2241 64.3507 15.7374 63.0896 15.7374C61.1248 15.7374 59.7025 14.0952 59.7025 12.0717C59.7025 10.0482 61.1248 8.43529 63.0896 8.43529C64.2627 8.43529 65.1424 8.94849 65.9635 9.71096L67.122 8.37664C66.1395 7.43821 64.9958 6.77838 63.1043 6.77838C59.9957 6.77838 57.811 9.16843 57.811 12.101C57.811 15.0629 60.0398 17.3943 63.031 17.3943C64.9518 17.3943 66.1249 16.6905 67.1953 15.5761Z" fill="#F0B90B"/>
<path d="M75.9388 12.8928V17.2183H77.7423V6.95435H75.9388V11.2212H71.0414V6.95435H69.2378V17.2183H71.0414V12.8928H75.9388Z" fill="#F0B90B"/>
<path d="M85.833 6.88104H84.1613L79.6453 17.2183H81.4927L82.5485 14.7404H87.4019L88.4429 17.2183H90.3491L85.833 6.88104ZM86.742 13.1421H83.2083L84.9679 9.03648L86.742 13.1421Z" fill="#F0B90B"/>
<path d="M92.3582 6.95435V17.2183H94.1617V6.95435H92.3582Z" fill="#F0B90B"/>
<path d="M104.226 14.0511L98.7272 6.95435H97.0557V17.2183H98.8299V9.91623L104.49 17.2183H106V6.95435H104.226V14.0511Z" fill="#F0B90B"/>
</g>
<defs>
<clipPath id="clip0_161_140">
<rect width="106" height="24" fill="white"/>
</clipPath>
</defs>
</svg>
