<svg width="176" height="40" viewBox="0 0 176 40" fill="none" xmlns="http://www.w3.org/2000/svg">
<path d="M5.15733 9.73507L13.3608 5L21.5642 9.73507L18.5482 11.4843L13.3608 8.49853L8.17332 11.4843L5.15733 9.73507ZM21.5642 15.7067L18.5482 13.9574L13.3608 16.9432L8.17332 13.9574L5.15733 15.7067V19.2052L10.3448 22.191V28.1626L13.3608 29.9119L16.3767 28.1626V22.191L21.5642 19.2052V15.7067ZM21.5642 25.1769V21.6783L18.5482 23.4276V26.9261L21.5642 25.1769ZM23.7055 26.4135L18.5181 29.3992V32.8978L26.7215 28.1626V18.6925L23.7055 20.4418V26.4135ZM20.6897 12.7209L23.7055 14.4701V17.9687L26.7215 16.2194V12.7209L23.7055 10.9716L20.6897 12.7209ZM10.3448 30.6659V34.1645L13.3608 35.9136L16.3767 34.1645V30.6659L13.3608 32.4152L10.3448 30.6659ZM5.15733 25.1769L8.17332 26.9261V23.4276L5.15733 21.6783V25.1769ZM10.3448 12.7209L13.3608 14.4701L16.3767 12.7209L13.3608 10.9716L10.3448 12.7209ZM3.01597 14.4701L6.03194 12.7209L3.01597 10.9716L0 12.7209V16.2194L3.01597 17.9687V14.4701ZM3.01597 20.4418L0 18.6925V28.1626L8.20344 32.8978V29.3992L3.01597 26.4135V20.4418Z" fill="#F0B90B"/>
<path d="M50.4986 24.4002V24.351C50.4986 22.0407 49.2698 20.8855 47.2789 20.1236C48.5078 19.4354 49.5401 18.354 49.5401 16.4124V16.3632C49.5401 13.6597 47.3772 11.9147 43.8627 11.9147H35.875V29.1191H44.0594C47.9426 29.1191 50.4986 27.5461 50.4986 24.4002ZM45.7798 17.0514C45.7798 18.3294 44.7229 18.8702 43.0516 18.8702H39.5615V15.2327H43.2973C44.8948 15.2327 45.7798 15.8717 45.7798 17.0023V17.0514ZM46.7383 23.9332C46.7383 25.2111 45.7305 25.801 44.0594 25.801H39.5615V22.0161H43.9363C45.8781 22.0161 46.7383 22.7289 46.7383 23.884V23.9332Z" fill="#F0B90B"/>
<path d="M69.1447 29.1191V11.9147H65.4089V22.5076L57.3475 11.9147H53.8574V29.1191H57.5932V18.182L65.925 29.1191H69.1447Z" fill="#F0B90B"/>
<path d="M88.1441 24.4002V24.351C88.1441 22.0407 86.9153 20.8855 84.9246 20.1236C86.1534 19.4354 87.1858 18.354 87.1858 16.4124V16.3632C87.1858 13.6597 85.0228 11.9147 81.5082 11.9147H73.5205V29.1191H81.7049C85.5881 29.1191 88.1441 27.5461 88.1441 24.4002ZM83.4253 17.0514C83.4253 18.3294 82.3684 18.8702 80.6973 18.8702H77.2072V15.2327H80.943C82.5405 15.2327 83.4253 15.8717 83.4253 17.0023V17.0514ZM84.3838 23.9332C84.3838 25.2111 83.3762 25.801 81.7049 25.801H77.2072V22.0161H81.582C83.5236 22.0161 84.3838 22.7289 84.3838 23.884V23.9332Z" fill="#F0B90B"/>
<path d="M110.955 26.0799L109.014 24.1137C107.539 25.49 106.187 26.3503 104.073 26.3503C100.78 26.3503 98.396 23.5976 98.396 20.2059C98.396 16.8141 100.78 14.1106 104.073 14.1106C106.04 14.1106 107.514 14.9708 108.891 16.2489L110.832 14.0123C109.186 12.4393 107.269 11.3333 104.098 11.3333C98.8876 11.3333 95.2256 15.3395 95.2256 20.255C95.2256 25.2197 98.9614 29.1276 103.975 29.1276C107.195 29.1276 109.161 27.9478 110.955 26.0799Z" fill="#F0B90B"/>
<path d="M125.611 21.5822V28.8326H128.634V11.6282H125.611V18.7803H117.402V11.6282H114.379V28.8326H117.402V21.5822H125.611Z" fill="#F0B90B"/>
<path d="M142.196 11.5053H139.394L131.824 28.8325H134.921L136.691 24.679H144.826L146.571 28.8325H149.766L142.196 11.5053ZM143.72 22H137.796L140.746 15.1182L143.72 22Z" fill="#F0B90B"/>
<path d="M153.134 11.6282V28.8326H156.157V11.6282H153.134Z" fill="#F0B90B"/>
<path d="M173.025 23.5238L163.809 11.6282H161.007V28.8326H163.981V16.5929L173.468 28.8326H175.999V11.6282H173.025V23.5238Z" fill="#F0B90B"/>
</svg>
