<svg width="176" height="40" viewBox="0 0 176 40" fill="none" xmlns="http://www.w3.org/2000/svg">
<path fill-rule="evenodd" clip-rule="evenodd" d="M62.9638 21.6388H63.0087C63.0087 22.7337 63.0077 23.8286 63.0067 24.9235C63.004 27.8955 63.0013 30.8677 63.0184 33.841C63.0243 34.8387 62.7861 35.6704 61.8158 36.0824C60.8357 36.4963 59.9903 36.2015 59.2465 35.4635C58.2135 34.439 57.1735 33.4214 56.1335 32.4039C55.2669 31.556 54.4003 30.7082 53.5378 29.8563C52.5889 28.9211 52.5811 28.5482 53.489 27.5701C53.8898 27.1396 54.3027 26.7204 54.7154 26.3013C55.0103 26.0019 55.3051 25.7025 55.5956 25.399C56.1051 24.8641 56.4409 24.2784 55.8494 23.599C55.4101 23.0953 54.6174 23.1909 53.9673 23.8372C53.4798 24.3216 52.992 24.8057 52.5041 25.2897C50.4302 27.3474 48.3561 29.4052 46.314 31.4963C44.3187 33.5404 41.9232 34.7743 39.0981 34.9851C36.0388 35.2136 33.3348 34.2061 31.0622 32.121C30.4394 31.549 29.842 30.9496 29.2543 30.3405C28.2118 29.2589 28.2059 28.1597 29.2582 27.0878C32.3156 23.9797 35.3789 20.8774 38.4519 17.7868C42.6495 13.5658 46.8529 9.34675 51.0661 5.14136C54.3441 1.87116 59.5549 2.40806 61.9798 6.33035C62.505 7.17963 62.8954 8.25928 62.9208 9.24522C62.9964 12.2614 62.9845 15.2796 62.9726 18.2977C62.9682 19.4114 62.9638 20.5252 62.9638 21.6388ZM40.5319 8.87225C41.9727 10.2858 41.9884 11.3693 40.5768 12.777C39.4475 13.9024 38.3172 15.0268 37.1871 16.1511C36.0588 17.2735 34.9307 18.3958 33.8041 19.5185L33.7946 19.5279C28.9344 24.3666 24.0743 29.2053 19.218 34.046C17.0216 36.2365 14.1165 36.9355 11.432 35.7855C8.53274 34.5438 7.08409 32.2322 7.03333 29.1202C6.98831 26.3699 6.99858 23.6196 7.00885 20.8686C7.01328 19.6827 7.01771 18.4966 7.01771 17.3103H7.01381C7.01381 16.4569 7.01362 15.6035 7.01342 14.7502C7.01275 11.7639 7.01207 8.77827 7.01967 5.79143C7.01967 5.37362 7.04309 4.93434 7.16804 4.54192C7.62685 3.10107 9.38007 2.54465 10.4695 3.58135C12.4159 5.43513 14.3036 7.35078 16.1907 9.26594C16.45 9.52915 16.7094 9.79235 16.9689 10.0554C17.5234 10.6196 17.4101 11.2248 16.8752 11.7774C16.535 12.1281 16.1986 12.4819 15.8622 12.8357C15.3916 13.3306 14.921 13.8254 14.4406 14.3115C13.892 14.866 13.7787 15.4478 14.3547 16.012C14.9209 16.5645 15.4831 16.342 15.981 15.8519C16.8862 14.9582 17.7883 14.0615 18.6903 13.1649C20.5567 11.3098 22.4229 9.4549 24.3156 7.62664C28.5483 3.5384 34.9286 3.5345 39.2043 7.57783C39.5478 7.90188 39.8844 8.23391 40.2211 8.56608C40.3246 8.6682 40.4282 8.77033 40.5319 8.87225Z" fill="url(#paint0_linear_42_2213)"/>
<path d="M72.8301 12.3111C75.2774 12.3111 77.6214 12.3111 80.0042 12.3111C80.0764 12.7938 80.1358 13.2094 80.1616 13.3798C81.7751 12.9823 83.3627 12.4169 84.9917 12.2414C86.822 12.0452 88.2754 13.021 89.3596 14.5751C91.0609 13.0778 92.7957 12.0194 95.0932 12.1768C97.2824 12.3266 99.3373 13.6122 99.4896 15.7755C99.7451 19.3948 99.5593 23.0425 99.5593 26.7548C97.3417 26.7548 95.1242 26.7548 92.7105 26.7548C92.7105 25.6912 92.7105 24.6353 92.7105 23.582C92.7105 21.7337 92.7285 19.8827 92.7001 18.0343C92.6847 17.0714 92.2019 16.5319 91.1719 16.5396C90.1573 16.5448 89.8863 17.0508 89.9043 18.0059C89.9534 20.8792 89.9224 23.755 89.9224 26.7289C87.5551 26.7289 85.3066 26.7289 82.9006 26.7289C82.9006 23.9202 82.9368 21.1399 82.8697 18.3622C82.8568 17.7917 82.6038 17.0198 82.1881 16.71C81.2562 16.0156 80.1281 16.7358 80.1203 17.9285C80.1074 20.3784 80.1152 22.8308 80.1152 25.2807C80.1152 25.7428 80.1152 26.2023 80.1152 26.747C77.6137 26.7496 75.2748 26.7496 72.8301 26.7496C72.8301 21.9557 72.8301 17.2057 72.8301 12.3111Z" fill="white"/>
<path d="M152.765 12.2982C155.308 12.2982 157.616 12.2982 160.007 12.2982C160.087 12.7629 160.164 13.2069 160.262 13.7826C160.554 13.6328 160.817 13.5451 161.026 13.3824C162.568 12.1975 164.328 11.9703 166.164 12.2982C168.177 12.6596 169.695 14.0614 169.796 16.1008C169.966 19.6091 169.842 23.1329 169.842 26.7393C167.576 26.7393 165.325 26.7393 162.937 26.7393C162.937 23.9073 162.983 21.1219 162.901 18.3415C162.883 17.7555 162.544 16.9295 162.09 16.6584C161.104 16.075 160.162 16.7771 160.154 17.9543C160.141 20.492 160.097 23.0322 160.174 25.5673C160.205 26.6257 159.836 26.889 158.848 26.8503C157.131 26.7806 155.406 26.8684 153.69 26.7961C153.375 26.7832 152.812 26.3391 152.809 26.0862C152.75 21.5375 152.765 16.9837 152.765 12.2982Z" fill="white"/>
<path d="M142.527 12.1097C145.449 11.9599 147.963 13.0313 149.487 15.7935C150.893 18.3467 150.852 21.0108 149.347 23.5175C148.839 24.3668 148.018 25.0922 147.199 25.6808C144.471 27.6402 139.914 27.4672 137.278 25.3942C134.728 23.3884 133.848 19.955 135.04 16.6661C136.114 13.6999 138.662 12.1148 142.527 12.1097ZM142.532 17.7865C141.52 17.7607 140.774 18.3931 140.725 19.3251C140.676 20.2338 141.442 21.0108 142.395 21.0237C143.459 21.0392 144.086 20.4454 144.076 19.3948C144.065 18.3828 143.583 17.802 142.532 17.7865Z" fill="white"/>
<path d="M117.257 20.4739C114.851 20.4739 112.43 20.4739 109.977 20.4739C110.651 23.2388 113.999 23.7138 117.296 21.5814C117.572 22.9419 117.428 24.0029 116.328 25.02C113.026 28.0714 104.6 27.9655 102.519 22.4514C100.526 17.1644 103.805 12.2414 109.069 12.0504C114.379 11.8568 117.668 15.711 117.257 20.4739ZM112.763 17.8382C112.603 16.2067 112.094 15.5768 110.981 15.631C109.603 15.6955 109.422 16.6817 109.355 17.8382C110.519 17.8382 111.637 17.8382 112.763 17.8382Z" fill="white"/>
<path d="M132.603 13.1321C131.934 14.4667 131.382 15.5716 130.904 16.5268C129.722 16.1086 128.668 15.6387 127.564 15.3986C127.174 15.316 126.663 15.8039 126.206 16.0311C126.526 16.4726 126.75 17.1025 127.184 17.3141C128.021 17.722 128.983 17.864 129.877 18.1661C131.542 18.7262 132.724 19.7589 132.943 21.6021C133.186 23.6183 132.352 25.051 130.592 26.0707C128.927 27.0362 127.122 27.142 125.341 26.9355C123.072 26.6722 120.839 26.1198 118.404 25.6577C119.052 24.0778 119.548 22.8619 119.93 21.9273C121.35 22.5004 122.633 23.1303 123.986 23.5021C124.391 23.6131 124.99 23.009 125.501 22.7328C125.165 22.2578 124.93 21.5969 124.473 21.3517C123.539 20.8508 122.465 20.6211 121.484 20.1977C119.816 19.4775 118.99 18.1557 119.016 16.3435C119.039 14.7145 120.126 13.2224 121.802 12.7061C125.364 11.6064 128.89 11.9368 132.603 13.1321Z" fill="white"/>
<defs>
<linearGradient id="paint0_linear_42_2213" x1="6.99819" y1="19.6904" x2="41.6241" y2="19.6904" gradientUnits="userSpaceOnUse">
<stop stop-color="#09CB87"/>
<stop offset="1" stop-color="#04C6D0"/>
</linearGradient>
</defs>
</svg>
