<svg width="106" height="24" viewBox="0 0 106 24" fill="none" xmlns="http://www.w3.org/2000/svg">
<path fill-rule="evenodd" clip-rule="evenodd" d="M37.5783 13.4333H37.6052C37.6052 14.0903 37.6046 14.7473 37.604 15.4043C37.6024 17.1874 37.6008 18.9707 37.6111 20.7547C37.6146 21.3533 37.4717 21.8523 36.8895 22.0995C36.3014 22.3478 35.7942 22.1709 35.3479 21.7281C34.7281 21.1134 34.1041 20.5029 33.4801 19.8924C32.9601 19.3837 32.4402 18.8749 31.9227 18.3638C31.3534 17.8027 31.3487 17.579 31.8934 16.9921C32.1339 16.7338 32.3816 16.4823 32.6293 16.2308C32.8062 16.0512 32.9831 15.8715 33.1573 15.6895C33.4631 15.3685 33.6646 15.0171 33.3096 14.6094C33.0461 14.3072 32.5705 14.3646 32.1804 14.7523C31.8879 15.043 31.5952 15.3334 31.3025 15.6239C30.0581 16.8585 28.8137 18.0932 27.5884 19.3478C26.3912 20.5743 24.9539 21.3146 23.2589 21.4411C21.4233 21.5782 19.8009 20.9737 18.4373 19.7227C18.0636 19.3794 17.7052 19.0198 17.3526 18.6543C16.7271 18.0054 16.7235 17.3458 17.3549 16.7027C19.1894 14.8378 21.0273 12.9765 22.8711 11.1221C25.3897 8.58951 27.9117 6.05809 30.4397 3.53486C32.4065 1.57273 35.533 1.89487 36.9879 4.24825C37.303 4.75781 37.5373 5.40561 37.5525 5.99717C37.5978 7.80688 37.5907 9.61785 37.5835 11.4287C37.5809 12.0969 37.5783 12.7652 37.5783 13.4333ZM24.1191 5.77339C24.9837 6.62149 24.993 7.27163 24.1461 8.11622C23.4686 8.79139 22.7905 9.46598 22.1125 10.1404C21.4354 10.814 20.7585 11.4874 20.0824 12.1611L20.0801 12.1635C17.1629 15.0678 14.2457 17.9721 11.3308 20.8776C10.013 22.1919 8.26989 22.6113 6.6592 21.9214C4.91965 21.1763 4.05046 19.7894 4.02 17.9221C3.99299 16.272 3.99915 14.6218 4.00531 12.9712C4.00797 12.2596 4.01063 11.548 4.01063 10.8362H4.00828C4.00828 10.3242 4.00817 9.81216 4.00805 9.30018C4.00765 7.50839 4.00724 5.717 4.0118 3.92489C4.0118 3.67421 4.02586 3.41064 4.10083 3.17519C4.37611 2.31068 5.42804 1.97683 6.08169 2.59885C7.24956 3.71111 8.38212 4.86049 9.5144 6.00959C9.67002 6.16752 9.82563 6.32544 9.98133 6.48326C10.314 6.8218 10.2461 7.18494 9.9251 7.51645C9.721 7.72691 9.51913 7.93919 9.3173 8.15144C9.03493 8.44838 8.75263 8.74526 8.46435 9.03695C8.13518 9.36963 8.06724 9.71871 8.41281 10.0573C8.75252 10.3888 9.08988 10.2552 9.3886 9.9612C9.93171 9.42495 10.473 8.88696 11.0142 8.34901C12.134 7.23591 13.2537 6.12298 14.3894 5.02602C16.929 2.57308 20.7572 2.57074 23.3226 4.99674C23.5286 5.19114 23.7306 5.39034 23.9326 5.58962C23.9947 5.65091 24.0569 5.71221 24.1191 5.77339Z" fill="url(#paint0_linear_161_164)"/>
<path d="M43.498 7.83674C44.9664 7.83674 46.3728 7.83674 47.8025 7.83674C47.8459 8.12639 47.8815 8.37576 47.897 8.47799C48.8651 8.23946 49.8176 7.90025 50.795 7.79492C51.8932 7.6772 52.7652 8.26269 53.4158 9.19514C54.4365 8.29677 55.4774 7.66171 56.8559 7.7562C58.1694 7.84603 59.4024 8.6174 59.4937 9.91539C59.6471 12.087 59.5356 14.2756 59.5356 16.5029C58.205 16.5029 56.8745 16.5029 55.4263 16.5029C55.4263 15.8648 55.4263 15.2313 55.4263 14.5993C55.4263 13.4903 55.4371 12.3797 55.4201 11.2707C55.4108 10.6929 55.1211 10.3692 54.5031 10.3739C53.8944 10.377 53.7318 10.6806 53.7426 11.2537C53.772 12.9776 53.7534 14.7031 53.7534 16.4875C52.3331 16.4875 50.984 16.4875 49.5404 16.4875C49.5404 14.8022 49.5621 13.134 49.5218 11.4674C49.5141 11.1251 49.3623 10.662 49.1129 10.4761C48.5537 10.0594 47.8768 10.4916 47.8722 11.2072C47.8645 12.6771 47.8691 14.1486 47.8691 15.6185C47.8691 15.8958 47.8691 16.1715 47.8691 16.4983C46.3682 16.4999 44.9649 16.4999 43.498 16.4999C43.498 13.6235 43.498 10.7735 43.498 7.83674Z" fill="white"/>
<path d="M91.4593 7.82894C92.985 7.82894 94.3698 7.82894 95.8041 7.82894C95.8521 8.10775 95.8985 8.37416 95.9574 8.71957C96.1324 8.62974 96.2904 8.57707 96.4159 8.47949C97.3406 7.76854 98.397 7.63223 99.4982 7.82894C100.706 8.04579 101.617 8.88686 101.678 10.1105C101.78 12.2155 101.705 14.3298 101.705 16.4936C100.346 16.4936 98.9948 16.4936 97.5621 16.4936C97.5621 14.7944 97.59 13.1232 97.5404 11.455C97.5296 11.1034 97.3267 10.6077 97.054 10.4451C96.4624 10.095 95.897 10.5163 95.8924 11.2226C95.8846 12.7452 95.8583 14.2694 95.9047 15.7904C95.9233 16.4255 95.7018 16.5834 95.1086 16.5602C94.0786 16.5184 93.0439 16.5711 92.0139 16.5277C91.8249 16.5199 91.4872 16.2535 91.4857 16.1017C91.45 13.3725 91.4593 10.6402 91.4593 7.82894Z" fill="white"/>
<path d="M85.3159 7.71584C87.0693 7.626 88.578 8.2688 89.4918 9.92615C90.336 11.458 90.3112 13.0565 89.4082 14.5605C89.1031 15.0701 88.6105 15.5054 88.1195 15.8585C86.4823 17.0341 83.7484 16.9304 82.167 15.6866C80.6367 14.4831 80.1085 12.423 80.8241 10.4497C81.4684 8.66997 82.9972 7.71894 85.3159 7.71584ZM85.319 11.1219C84.7119 11.1064 84.2642 11.4859 84.2348 12.0451C84.2054 12.5903 84.6654 13.0565 85.2369 13.0643C85.8751 13.0736 86.2515 12.7173 86.2453 12.0869C86.2391 11.4797 85.9495 11.1312 85.319 11.1219Z" fill="white"/>
<path d="M70.1543 12.7344C68.7107 12.7344 67.2578 12.7344 65.7863 12.7344C66.1906 14.3933 68.1995 14.6783 70.1775 13.3989C70.3432 14.2152 70.2565 14.8518 69.5966 15.4621C67.6156 17.2929 62.5599 17.2294 61.3115 13.9209C60.1157 10.7487 62.0828 7.7949 65.2411 7.68028C68.4272 7.56411 70.4005 9.87665 70.1543 12.7344ZM67.4576 11.153C67.3616 10.174 67.0564 9.79611 66.3888 9.82863C65.5617 9.86736 65.4533 10.459 65.413 11.153C66.1116 11.153 66.7823 11.153 67.4576 11.153Z" fill="white"/>
<path d="M79.3616 8.32926C78.9604 9.13005 78.629 9.79299 78.3424 10.3661C77.633 10.1152 77.001 9.83326 76.3381 9.68921C76.1042 9.63965 75.7975 9.93239 75.5234 10.0687C75.7154 10.3336 75.8502 10.7115 76.1104 10.8385C76.6123 11.0832 77.19 11.1684 77.7259 11.3497C78.725 11.6858 79.4344 12.3053 79.5661 13.4113C79.7116 14.621 79.2113 15.4806 78.155 16.0924C77.1559 16.6717 76.0732 16.7353 75.0045 16.6113C73.643 16.4533 72.3032 16.1219 70.8425 15.8446C71.2313 14.8967 71.5287 14.1671 71.7579 13.6064C72.6098 13.9503 73.3797 14.3282 74.1913 14.5513C74.4345 14.6179 74.7938 14.2554 75.1005 14.0897C74.8992 13.8047 74.7582 13.4082 74.484 13.261C73.9233 12.9605 73.279 12.8227 72.6904 12.5687C71.6898 12.1365 71.1941 11.3435 71.2096 10.2561C71.2236 9.27875 71.8757 8.38347 72.8809 8.07369C75.0184 7.41385 77.1342 7.61211 79.3616 8.32926Z" fill="white"/>
<defs>
<linearGradient id="paint0_linear_161_164" x1="3.99891" y1="12.2643" x2="24.7745" y2="12.2643" gradientUnits="userSpaceOnUse">
<stop stop-color="#09CB87"/>
<stop offset="1" stop-color="#04C6D0"/>
</linearGradient>
</defs>
</svg>
