<svg width="106" height="24" viewBox="0 0 106 24" fill="none" xmlns="http://www.w3.org/2000/svg">
<path d="M37.204 6.68005H39.0653V13.4481C39.0564 13.8325 39.1297 14.2145 39.2801 14.5681C39.412 14.8728 39.6073 15.1456 39.8528 15.3681C40.0826 15.5809 40.3533 15.7443 40.6483 15.8481C41.2496 16.0505 41.9002 16.0505 42.5017 15.8481C42.7954 15.7419 43.0657 15.5789 43.2971 15.3681C43.5426 15.1456 43.7379 14.8728 43.8699 14.5681C44.0203 14.2145 44.0935 13.8325 44.0846 13.4481V6.68005H45.954V13.4481C45.9695 14.1259 45.842 14.7993 45.5801 15.4241C45.3476 15.959 45.0093 16.4408 44.5858 16.8401C44.1809 17.2209 43.7013 17.5125 43.1778 17.6961C42.1364 18.0716 40.9976 18.0716 39.9562 17.6961C39.4336 17.5106 38.9544 17.2193 38.5483 16.8401C38.1249 16.4425 37.7889 15.9601 37.5619 15.4241C37.2972 14.7999 37.167 14.1265 37.1801 13.4481L37.204 6.68005Z" fill="white"/>
<path d="M47.4099 6.68015H50.9895C51.5347 6.67183 52.076 6.77526 52.5804 6.98416C53.0137 7.16724 53.4039 7.43978 53.7258 7.78416C54.0314 8.1112 54.2669 8.49784 54.4179 8.92016C54.7364 9.75448 54.7364 10.6778 54.4179 11.5122C54.2707 11.9363 54.0347 12.3237 53.7258 12.6482C53.4044 12.993 53.014 13.2657 52.5804 13.4482C52.0772 13.6606 51.5351 13.7642 50.9895 13.7522H49.2713V17.6002H47.4099V9.92816L49.2395 8.42416H47.4099V6.68015ZM49.2713 8.42416V12.0002H50.9895C51.316 12.0201 51.6411 11.9426 51.9241 11.7775C52.2071 11.6125 52.4354 11.3671 52.5804 11.0722C52.7139 10.8054 52.7835 10.5109 52.7835 10.2122C52.7835 9.91344 52.7139 9.61896 52.5804 9.35216C52.4422 9.08712 52.2398 8.86144 51.9917 8.69616C51.7009 8.50704 51.3594 8.41216 51.0133 8.42416H49.2713Z" fill="white"/>
<path d="M57.4333 9.94383C57.6207 10.2069 57.8728 10.4165 58.1652 10.5518C58.5152 10.7278 58.9049 10.9038 59.3424 11.0798C59.7799 11.2558 60.2413 11.4478 60.7027 11.6478C61.1588 11.8443 61.589 12.0969 61.9833 12.3998C62.364 12.6883 62.69 13.0433 62.9458 13.4478C63.2115 13.8971 63.3439 14.4133 63.3277 14.9358C63.339 15.4192 63.215 15.896 62.9697 16.3118C62.7356 16.6976 62.424 17.0301 62.0549 17.2878C61.6702 17.5529 61.2421 17.7479 60.7902 17.8638C60.3313 17.9904 59.8579 18.0549 59.3822 18.0558C58.9793 18.0542 58.5774 18.0168 58.1811 17.9438C57.788 17.8708 57.404 17.7555 57.0356 17.5998C56.6692 17.4437 56.3221 17.245 56.0015 17.0078C55.6794 16.7639 55.3928 16.4757 55.1504 16.1518L56.5902 15.0078C56.9068 15.4509 57.3553 15.7815 57.8709 15.9518C58.3831 16.126 58.9209 16.2125 59.4618 16.2078C59.6856 16.2077 59.9091 16.189 60.1299 16.1518C60.3624 16.1108 60.5876 16.0353 60.7981 15.9278C60.9952 15.8306 61.169 15.6914 61.3072 15.5198C61.4447 15.3328 61.5149 15.1042 61.5061 14.8718C61.508 14.7082 61.4732 14.5463 61.4044 14.3981C61.3355 14.2499 61.2344 14.1193 61.1084 14.0158C60.7946 13.7597 60.4498 13.5446 60.0822 13.3758C59.6686 13.1838 59.2152 12.9918 58.722 12.7998C58.2415 12.6093 57.7738 12.3875 57.322 12.1358C56.884 11.8865 56.4869 11.5709 56.1447 11.1998C55.8081 10.8481 55.5861 10.4017 55.5083 9.91983L57.4333 9.94383ZM55.6118 8.39982C55.7259 8.04886 55.91 7.72493 56.1527 7.44782C56.3757 7.17564 56.6451 6.94542 56.9481 6.76782C57.2738 6.58143 57.6249 6.44398 57.9902 6.35981C58.3707 6.26934 58.7604 6.22371 59.1515 6.22382C59.8631 6.22338 60.5671 6.37043 61.2197 6.65582C61.8714 6.93356 62.4652 7.33255 62.9697 7.83182L61.7447 9.20782C61.3949 8.84998 60.9787 8.56462 60.5197 8.36782C60.0688 8.16798 59.5806 8.06702 59.0879 8.07182C58.8582 8.06822 58.6288 8.08974 58.4038 8.13582C58.1977 8.18078 58.0011 8.26206 57.8231 8.37582C57.6511 8.48231 57.5088 8.63094 57.4095 8.80782C57.3012 9.01742 57.2491 9.25183 57.2583 9.48783C57.2568 9.59007 57.2786 9.69135 57.322 9.78383L55.6118 8.39982Z" fill="white"/>
<path d="M63.6531 8.42405V6.68005H72.586V8.42405H63.6531ZM69.0224 17.6001H67.161V9.94405L69.0224 8.42405V17.6001Z" fill="white"/>
<path d="M74.8059 9.94405H76.2934L74.8059 6.68005H76.7548L81.7502 17.6001H79.8253L79.1332 16.0721H73.9787L73.2787 17.6001H71.3457L74.8059 9.94405ZM78.29 14.3201L76.5241 10.4561L74.7582 14.3201H78.29Z" fill="white"/>
<path d="M84.5423 6.68005V17.6001H82.6809V9.94405L84.5423 8.42405H82.6809V6.68005H84.5423Z" fill="white"/>
<path d="M89.5539 6.6799C90.1839 6.66363 90.8099 6.79222 91.3834 7.0559C91.8575 7.27711 92.2696 7.61232 92.5846 8.03193C92.8757 8.42169 93.0746 8.87313 93.1653 9.35193C93.2687 9.82081 93.2687 10.307 93.1653 10.7759C93.0396 11.2495 92.8113 11.6893 92.4971 12.0639C92.1471 12.4699 91.7016 12.7808 91.2005 12.9679L94.3823 17.5999H92.0914L89.1562 13.2479H87.9789V17.5999H86.1255V9.92793L87.955 8.42393H86.1255V6.6799H89.5539ZM87.963 8.42393V11.5039H89.5539C89.8975 11.5146 90.2372 11.4346 90.5403 11.2719C90.7821 11.1372 90.9849 10.9415 91.1289 10.7039C91.257 10.4773 91.323 10.2205 91.3198 9.95993C91.323 9.70073 91.2538 9.44585 91.1209 9.22393C90.9738 8.98873 90.7717 8.79369 90.5323 8.65593C90.2324 8.49313 89.8944 8.41313 89.5539 8.42393H87.963Z" fill="white"/>
<path d="M96.7676 9.94382C96.9545 10.2069 97.2067 10.4165 97.4994 10.5518C97.8494 10.7278 98.2392 10.9038 98.6846 11.0798L100.037 11.6478C100.493 11.8443 100.923 12.0969 101.318 12.3998C101.698 12.6883 102.024 13.0433 102.28 13.4478C102.546 13.8971 102.678 14.4133 102.662 14.9358C102.673 15.4192 102.549 15.896 102.304 16.3118C102.072 16.6993 101.76 17.0322 101.389 17.2878C101.004 17.5529 100.576 17.7479 100.124 17.8638C99.6654 17.9904 99.1921 18.0549 98.7164 18.0558C98.3131 18.0542 97.9114 18.0168 97.5153 17.9438C97.1223 17.8708 96.7381 17.7555 96.3698 17.5998C96.0039 17.4419 95.6571 17.2433 95.3358 17.0078C95.0136 16.7639 94.7272 16.4757 94.4846 16.1518L95.9244 15.0078C96.241 15.4509 96.6896 15.7815 97.2051 15.9518C97.7173 16.1253 98.2551 16.2118 98.796 16.2078C99.0195 16.2077 99.243 16.189 99.4642 16.1518C99.6964 16.1108 99.9216 16.0353 100.132 15.9278C100.33 15.8306 100.503 15.6914 100.641 15.5198C100.781 15.3336 100.854 15.1051 100.848 14.8718C100.848 14.7077 100.812 14.5456 100.742 14.3974C100.672 14.2493 100.569 14.1189 100.443 14.0158C100.128 13.7597 99.7839 13.5446 99.4164 13.3758C99.0028 13.1838 98.5494 12.9918 98.0642 12.7998C97.5805 12.6109 97.1096 12.3891 96.6562 12.1358C96.2267 11.8905 95.8353 11.5832 95.4948 11.2238C95.1584 10.8721 94.9364 10.4257 94.8585 9.94382H96.7676ZM94.9539 8.39982C95.0653 8.04934 95.2467 7.72537 95.4869 7.44781C95.7096 7.17564 95.9793 6.94542 96.2823 6.76782C96.6085 6.58314 96.9593 6.44578 97.3244 6.35981C97.7046 6.26934 98.0944 6.22371 98.4858 6.22382C99.2001 6.22342 99.9064 6.37045 100.562 6.65582C101.21 6.93577 101.8 7.33456 102.304 7.83182L101.079 9.20782C100.731 8.85198 100.317 8.56678 99.8619 8.36782C99.4077 8.1687 98.9169 8.06782 98.4221 8.07182C98.1946 8.06814 97.9679 8.08958 97.746 8.13582C97.5368 8.17934 97.3371 8.2607 97.1573 8.37582C96.9871 8.48254 96.8479 8.63126 96.7517 8.80782C96.6403 9.0167 96.5854 9.25111 96.5926 9.48783C96.591 9.59007 96.6125 9.69134 96.6562 9.78382L94.9539 8.39982Z" fill="white"/>
<mask id="mask0_161_123" style="mask-type:luminance" maskUnits="userSpaceOnUse" x="3" y="0" width="27" height="24">
<path d="M29.8466 0H3V24H29.8466V0Z" fill="white"/>
</mask>
<g mask="url(#mask0_161_123)">
<path d="M16.4277 7.784L29.5527 15.384C29.6446 15.4443 29.7201 15.5268 29.7724 15.6239C29.8246 15.721 29.852 15.8296 29.852 15.94C29.852 16.0504 29.8246 16.1591 29.7724 16.2561C29.7201 16.3532 29.6446 16.4356 29.5527 16.496L16.738 23.936C16.6387 23.9789 16.5318 24.0011 16.4238 24.0011C16.3157 24.0011 16.2088 23.9789 16.1096 23.936L3.30272 16.496C3.21081 16.4356 3.1353 16.3532 3.08305 16.2561C3.03079 16.1591 3.00342 16.0504 3.00342 15.94C3.00342 15.8296 3.03079 15.721 3.08305 15.6239C3.1353 15.5268 3.21081 15.4443 3.30272 15.384L16.4277 7.784Z" fill="#7E46F2"/>
<path d="M15.7921 0.184064C15.9823 0.0623371 16.2031 -0.00231934 16.4285 -0.00231934C16.6539 -0.00231934 16.8747 0.0623371 17.0649 0.184064L29.5535 7.46407C29.6454 7.52536 29.7207 7.60858 29.7729 7.70629C29.825 7.804 29.8523 7.91317 29.8523 8.02402C29.8523 8.13498 29.825 8.24411 29.7729 8.34186C29.7207 8.43954 29.6454 8.52274 29.5535 8.58402L16.4285 16.184L3.30347 8.58402C3.21158 8.52274 3.13621 8.43954 3.08407 8.34186C3.03193 8.24411 3.00464 8.13498 3.00464 8.02402C3.00464 7.91317 3.03193 7.804 3.08407 7.70629C3.13621 7.60858 3.21158 7.52536 3.30347 7.46407L15.7921 0.184064Z" fill="url(#paint0_linear_161_123)"/>
<path fill-rule="evenodd" clip-rule="evenodd" d="M23.6825 11.9362L16.4439 16.1842L9.1814 11.9362L16.428 7.69617L23.6825 11.9362Z" fill="#00FFFF"/>
</g>
<defs>
<linearGradient id="paint0_linear_161_123" x1="16.4285" y1="-0.167936" x2="16.4285" y2="16.184" gradientUnits="userSpaceOnUse">
<stop stop-color="#01E7A2"/>
<stop offset="1" stop-color="#00E5A0"/>
</linearGradient>
</defs>
</svg>
