<svg width="106" height="24" viewBox="0 0 106 24" fill="none" xmlns="http://www.w3.org/2000/svg">
<path d="M70.2888 0.599976C70.4143 0.635412 70.5421 0.664439 70.665 0.707415C70.8712 0.779418 71.0194 0.920785 71.0247 1.14358C71.0303 1.3856 71.0217 1.64836 70.7932 1.80405C66.3867 4.80631 61.993 7.82781 57.4655 10.6487C56.4348 11.2907 55.3721 11.8668 54.1812 12.157C53.7869 12.2532 53.3794 12.3651 52.9805 12.3553C52.5233 12.3444 52.0622 12.2332 51.6151 12.1182C50.4163 11.8098 49.3548 11.2022 48.3147 10.5541C44.8525 8.39855 41.4815 6.10501 38.1023 3.82391C37.1353 3.17098 36.1755 2.50749 35.2078 1.85532C34.9172 1.65967 34.8821 1.37354 34.9225 1.07685C34.959 0.811084 35.189 0.718347 35.4227 0.6569C35.5008 0.636543 35.5795 0.618825 35.6583 0.599976C37.9572 0.599976 40.2556 0.599976 42.5544 0.599976C42.6076 0.614678 42.6603 0.633527 42.7146 0.642951C43.127 0.714954 43.4742 0.895528 43.7185 1.24536C45.2947 3.50234 47.0065 5.64585 48.9846 7.56958C49.7355 8.30016 50.4597 9.05902 51.3143 9.67425C52.0992 10.2397 52.9496 10.4192 53.8747 10.084C54.3901 9.89743 54.8191 9.56304 55.2224 9.20378C57.8594 6.85633 60.1703 4.22087 62.1683 1.31247C62.4182 0.948682 62.7526 0.737573 63.176 0.648606C63.2487 0.633527 63.3207 0.616186 63.3931 0.599976C65.6915 0.599976 67.9904 0.599976 70.2888 0.599976Z" fill="#005470"/>
<path d="M49.9602 3.60185C49.987 3.90607 50.0009 4.1496 50.0307 4.39162C50.1438 5.31824 50.7458 6.01904 51.6479 6.26445C52.3552 6.45709 53.0748 6.47066 53.7903 6.33118C54.7433 6.14533 55.3518 5.57948 55.5821 4.62459C55.7178 4.06252 55.7167 3.49705 55.6511 2.92743C55.5331 1.90318 54.9186 1.19445 53.9147 0.948664C53.1755 0.767714 52.4328 0.788071 51.7037 1.00031C50.8352 1.25326 50.2867 1.83155 50.0823 2.71255C50.0103 3.0213 49.9941 3.34248 49.9602 3.60185Z" fill="#005470"/>
<path d="M42.5547 19.9348C42.6094 19.9838 42.6573 20.0302 42.7081 20.0728C43.965 21.1231 45.2222 22.1733 46.4794 23.2232C46.5277 23.2636 46.582 23.2986 46.6216 23.3461C46.6547 23.3861 46.7019 23.4554 46.6872 23.4848C46.6653 23.5297 46.5993 23.5625 46.5454 23.5798C46.4938 23.5964 46.4335 23.5881 46.3769 23.5881C44.901 23.5885 43.4252 23.5915 41.9497 23.5825C41.8253 23.5817 41.6748 23.5267 41.5814 23.4456C40.1526 22.2099 38.7318 20.9647 37.306 19.7256C37.2073 19.6397 37.1613 19.553 37.1684 19.4206C37.1794 19.2205 37.1782 19.0191 37.1692 18.8186C37.162 18.655 37.2318 18.592 37.3901 18.5928C37.905 18.5954 38.4211 18.6131 38.9346 18.5849C39.2102 18.5698 39.4921 18.5016 39.7511 18.4047C40.0256 18.3018 40.1963 18.082 40.185 17.7642C40.1741 17.4551 39.9924 17.2564 39.7228 17.1618C39.4902 17.08 39.2384 17.0174 38.9934 17.0114C38.2153 16.9925 37.4361 17.0087 36.6572 17C36.491 16.9982 36.4454 17.0449 36.4458 17.2108C36.451 19.2242 36.4492 21.2377 36.4492 23.2511C36.4492 23.5791 36.4401 23.5889 36.1125 23.5889C34.7309 23.5893 33.3492 23.5893 31.9676 23.5889C31.6543 23.5889 31.6355 23.5697 31.6355 23.2613C31.6355 20.8275 31.6355 18.3941 31.6355 15.9603C31.6355 15.6817 31.6551 15.661 31.9352 15.661C35.4143 15.6606 38.8935 15.6606 42.3726 15.6614C42.9585 15.6614 43.5228 15.7564 44.031 16.0697C44.9259 16.6212 45.2709 17.7107 44.8117 18.5611C44.5026 19.1334 43.9835 19.4572 43.3973 19.6815C43.1311 19.7825 42.8499 19.847 42.5547 19.9348Z" fill="#005470"/>
<path d="M81.7312 15.6626C82.7924 15.6626 83.8536 15.6614 84.9148 15.6626C86.8928 15.6645 88.3751 16.9515 88.6364 18.9163C88.7547 19.8056 88.6997 20.6858 88.2831 21.5027C87.6019 22.8395 86.4985 23.5592 84.9985 23.5788C82.8139 23.6074 80.6282 23.6063 78.4432 23.5799C76.5485 23.5573 75.0591 22.2005 74.814 20.3092C74.6753 19.239 74.7922 18.2049 75.4115 17.2798C76.1214 16.2194 77.1355 15.695 78.3972 15.6678C79.5082 15.6433 80.6199 15.6626 81.7312 15.6626ZM79.7653 19.5051C79.7743 19.5055 79.7838 19.5063 79.7928 19.5066C79.7928 19.7449 79.774 19.985 79.797 20.221C79.8369 20.6304 79.8674 21.0458 79.9673 21.4428C80.085 21.911 80.4254 22.1998 80.9143 22.2262C81.4138 22.2533 81.9182 22.2454 82.4177 22.2118C82.8886 22.1802 83.1973 21.8925 83.3605 21.4586C83.4193 21.3018 83.4733 21.1333 83.4789 20.9682C83.5064 20.1735 83.523 19.3781 83.5283 18.583C83.5298 18.3534 83.4985 18.1197 83.4503 17.8947C83.3394 17.379 83.0556 17.0894 82.5327 17.0457C81.9782 16.9993 81.4157 16.9846 80.8612 17.0235C80.2497 17.0661 79.9263 17.4076 79.8576 18.0251C79.8022 18.5155 79.7943 19.0113 79.7653 19.5051Z" fill="#005470"/>
<path d="M95.4745 22.1896C95.0598 21.9325 94.6455 21.675 94.2305 21.4191C93.2432 20.8099 92.2551 20.2022 91.2682 19.5922C90.7864 19.2944 90.3216 18.974 89.9567 18.5325C89.6637 18.1782 89.4737 17.7884 89.5408 17.3085C89.5849 16.9918 89.7489 16.7464 89.9812 16.5443C90.5187 16.0765 91.1626 15.8398 91.8562 15.7414C92.2336 15.6878 92.6181 15.6667 92.9996 15.6656C95.3916 15.6592 97.7839 15.6622 100.176 15.6622C100.515 15.6622 100.515 15.6622 100.515 16.009C100.515 16.2537 100.516 16.498 100.515 16.7426C100.514 16.9805 100.494 17.0024 100.258 17.0027C99.4422 17.0039 98.626 17.0031 97.8099 17.0031C96.9059 17.0031 96.0015 17.0031 95.0975 17.0031C95.0315 17.0031 94.9652 17.0031 94.8992 17.0031C94.8951 17.0159 94.8909 17.0288 94.8868 17.042C94.9456 17.0823 95.0033 17.1253 95.064 17.163C96.4399 18.0262 97.8167 18.888 99.1915 19.7528C99.7238 20.0876 100.244 20.4419 100.663 20.9158C100.848 21.1243 101.015 21.3614 101.132 21.6125C101.34 22.0596 101.219 22.4757 100.836 22.7894C100.518 23.0495 100.139 23.1822 99.7498 23.2862C98.9076 23.5117 98.0459 23.5848 97.1781 23.5863C94.8612 23.5905 92.5446 23.5878 90.2277 23.5878C89.9065 23.5878 89.8918 23.572 89.8918 23.2463C89.8918 22.9892 89.8994 22.7317 89.8892 22.475C89.8824 22.2993 89.96 22.2394 90.124 22.2428C90.3498 22.2473 90.576 22.2435 90.8022 22.2431C92.2902 22.2431 93.7781 22.2431 95.2664 22.2431C95.3324 22.2431 95.3983 22.2431 95.4643 22.2431C95.467 22.2258 95.4707 22.2077 95.4745 22.1896Z" fill="#005470"/>
<path d="M66.878 23.5883C65.8609 23.5883 64.8434 23.5743 63.8267 23.5909C61.4114 23.6305 60.1941 21.7701 60.0396 20.2037C60.0173 19.9798 60.0026 19.754 60.0019 19.5289C59.9981 18.3313 60 17.1336 60 15.9356C60 15.6773 60.0162 15.6604 60.2808 15.66C61.7439 15.6592 63.2066 15.6592 64.6696 15.66C64.9282 15.66 64.946 15.6792 64.9471 15.9401C64.9539 17.5015 64.9531 19.063 64.9739 20.6241C64.9776 20.9072 65.0387 21.1986 65.1265 21.4693C65.2916 21.9778 65.6528 22.2364 66.1873 22.2398C67.4996 22.2485 68.8119 22.2504 70.1241 22.2398C70.8099 22.2341 71.3207 21.8353 71.5239 21.0874C71.6554 20.603 71.7354 20.0918 71.7486 19.59C71.7806 18.3678 71.7602 17.1445 71.7614 15.9216C71.7617 15.6837 71.7825 15.6611 72.017 15.6604C72.5191 15.6589 73.0216 15.663 73.5237 15.6581C73.6859 15.6566 73.765 15.7071 73.7639 15.8843C73.7556 17.2388 73.8084 18.5963 73.7349 19.947C73.6493 21.5194 72.8983 22.7065 71.4044 23.344C70.9546 23.5359 70.4717 23.5864 69.9858 23.5875C68.9499 23.5898 67.9139 23.5883 66.878 23.5883Z" fill="#005470"/>
<path d="M16.7346 20.8024C17.0215 20.5521 17.3001 20.3104 17.5772 20.0673C19.1948 18.6479 20.8132 17.2294 22.4278 15.8066C22.5541 15.6954 22.6819 15.643 22.8504 15.6475C23.1893 15.6573 23.5286 15.646 23.8675 15.6551C23.9462 15.6573 24.0235 15.7067 24.1016 15.7346C24.0567 15.8036 24.0243 15.8869 23.9647 15.9393C21.8661 17.7809 19.7652 19.6198 17.6643 21.4591C16.9182 22.112 16.171 22.7634 15.4284 23.4205C15.313 23.5223 15.1947 23.5754 15.0401 23.5728C14.6635 23.5668 14.2865 23.5796 13.9103 23.5653C13.8021 23.5611 13.6732 23.5155 13.5929 23.4446C10.7655 20.94 7.94233 18.4308 5.12063 15.9197C5.06899 15.8737 5.03958 15.8021 5 15.7425C5.07653 15.7124 5.15268 15.6566 5.22958 15.6558C6.20257 15.6494 7.17593 15.6509 8.14891 15.6506C8.93981 15.6502 9.7311 15.6543 10.522 15.6475C10.7014 15.646 10.8402 15.6909 10.9793 15.8119C12.8242 17.4194 14.6748 19.0204 16.5239 20.6229C16.5891 20.6798 16.6558 20.7356 16.7346 20.8024Z" fill="#005470"/>
<path d="M50.3894 17.0035C50.2808 17.0035 50.2062 17.0035 50.1316 17.0035C49.1016 17.0035 48.0717 17.0038 47.0422 17.0031C46.7712 17.0031 46.7504 16.9816 46.75 16.7162C46.7497 16.4339 46.7523 16.1519 46.7493 15.8695C46.7478 15.7285 46.8092 15.6584 46.9514 15.6607C47.0079 15.6614 47.0644 15.6599 47.121 15.6599C50.939 15.6599 54.7567 15.6599 58.5748 15.6599C58.6377 15.6599 58.7003 15.6603 58.7633 15.6614C58.8843 15.6637 58.9457 15.7183 58.9442 15.8469C58.9404 16.1666 58.9389 16.4866 58.945 16.8063C58.9476 16.9458 58.8835 17.0005 58.7546 17.002C58.698 17.0027 58.6415 17.0031 58.585 17.0031C57.5426 17.0031 56.5003 17.0031 55.4579 17.0031C55.3836 17.0031 55.3094 17.0031 55.2046 17.0031C55.2046 17.0962 55.2046 17.1746 55.2046 17.253C55.2046 19.2601 55.2046 21.2667 55.2046 23.2738C55.2046 23.5595 55.1786 23.587 54.8955 23.5874C53.495 23.5882 52.0949 23.5882 50.6944 23.5874C50.4056 23.5874 50.3905 23.5705 50.3902 23.2749C50.3902 21.2743 50.3902 19.2736 50.3902 17.273C50.3894 17.1931 50.3894 17.1132 50.3894 17.0035Z" fill="#005470"/>
<path d="M29.7343 19.6239C29.7343 20.8589 29.7343 22.0943 29.7343 23.3292C29.7343 23.5596 29.7098 23.5871 29.4753 23.5875C28.0504 23.5886 26.6254 23.589 25.2004 23.5875C24.961 23.5871 24.9256 23.5486 24.9256 23.316C24.9252 20.8521 24.9252 18.3882 24.9256 15.9242C24.9256 15.6943 24.9557 15.663 25.1853 15.663C26.6227 15.6622 28.0605 15.6645 29.498 15.6603C29.6744 15.66 29.7392 15.7158 29.7385 15.9001C29.7309 17.1411 29.7343 18.3825 29.7343 19.6239Z" fill="#005470"/>
<path d="M49.9602 3.60185C49.9941 3.34286 50.0103 3.0213 50.082 2.71255C50.2863 1.83155 50.8344 1.25326 51.7034 1.00031C52.4324 0.788071 53.1747 0.767714 53.9143 0.948664C54.9186 1.19445 55.5327 1.90355 55.6507 2.92743C55.7163 3.49705 55.7174 4.06289 55.5817 4.62459C55.3514 5.57948 54.7429 6.14533 53.7899 6.33118C53.0748 6.47066 52.3552 6.45709 51.6476 6.26445C50.7455 6.01904 50.1434 5.31824 50.0303 4.39162C50.0009 4.1496 49.9866 3.90569 49.9602 3.60185Z" fill="#F4811F"/>
</svg>
