<svg width="16" height="16" viewBox="0 0 16 16" fill="none" xmlns="http://www.w3.org/2000/svg">
<path d="M11.9317 13.3189L8.00033 9.38758L4.06835 13.3196C3.68518 13.7027 3.06397 13.7024 2.68079 13.3192C2.29762 12.9361 2.29731 12.3149 2.68048 11.9317L6.61246 7.99971L2.68109 4.06834C2.2976 3.68485 2.2976 3.06395 2.68078 2.68076C3.06381 2.29774 3.68489 2.29763 4.06834 2.68108L7.99969 6.61243L11.9317 2.68045C12.3147 2.29743 12.9361 2.29759 13.3192 2.68076C13.7024 3.06394 13.7026 3.68531 13.3195 4.06832L9.38755 8.00032L13.3189 11.9317C13.7024 12.3152 13.7023 12.9362 13.3193 13.3192C12.9361 13.7024 12.3152 13.7024 11.9317 13.3189L11.9317 13.3189Z" fill="#91A3B1" stroke="#91A3B1" stroke-width="0.5"/>
</svg>
