<svg width="12" height="12" viewBox="0 0 12 12" fill="none" xmlns="http://www.w3.org/2000/svg">
<path fill-rule="evenodd" clip-rule="evenodd" d="M10.4121 1.21967C10.1192 0.926777 9.64429 0.926777 9.3514 1.21967L5.88173 4.68934L2.41206 1.21967C2.11916 0.926777 1.64429 0.926777 1.3514 1.21967C1.0585 1.51256 1.0585 1.98744 1.3514 2.28033L4.82107 5.75L1.21967 9.3514C0.926777 9.64429 0.926777 10.1192 1.21967 10.4121C1.51256 10.705 1.98744 10.705 2.28033 10.4121L5.88173 6.81066L9.48313 10.4121C9.77602 10.705 10.2509 10.705 10.5438 10.4121C10.8367 10.1192 10.8367 9.64429 10.5438 9.3514L6.94239 5.75L10.4121 2.28033C10.705 1.98744 10.705 1.51256 10.4121 1.21967Z" fill="white"/>
</svg>
