<svg width="2222" height="525" viewBox="0 0 2222 525" fill="none" xmlns="http://www.w3.org/2000/svg">
<g opacity="0.5">
<mask id="mask0_1184_1557" style="mask-type:alpha" maskUnits="userSpaceOnUse" x="0" y="0" width="2222" height="525">
<rect width="2222" height="525" fill="#D9D9D9"/>
</mask>
<g mask="url(#mask0_1184_1557)">
<path d="M346.859 192.401C240.282 130.264 -24.9053 -89.7246 -82 -287.04C-36.5117 -229.345 66.2299 -113.956 113.29 -113.956C172.115 -113.956 163.464 -101.84 217.098 -89.7246C270.733 -77.6088 291.494 -131.265 386.652 -77.6088C462.779 -34.6841 443.747 49.8959 424.715 86.8203C428.176 102.398 443.747 134.591 478.35 138.745C521.603 143.938 511.223 218.364 549.286 223.556C579.736 227.71 610.417 274.76 621.952 297.766C574.661 288.534 453.436 254.538 346.859 192.401Z" fill="url(#paint0_linear_1184_1557)"/>
<path d="M2121.13 14.8633C2026.89 119.211 1719.42 363.572 1485.89 381.14C1560.91 343.888 1713.68 256.263 1724.68 203.776C1738.43 138.167 1749.92 150.646 1775.98 93.6577C1802.03 36.669 1747.01 0.973615 1829.12 -92.6198C1894.81 -167.495 1984.75 -126.502 2021.51 -96.6463C2039.7 -96.8653 2079.26 -106.709 2091.99 -144.332C2107.89 -191.36 2188.52 -162.389 2203.21 -203.629C2214.96 -236.62 2274.63 -259.845 2303 -267.333C2281.65 -216.746 2215.38 -89.484 2121.13 14.8633Z" fill="url(#paint1_linear_1184_1557)"/>
<path d="M610.559 456.31C487.474 424.612 353.409 331.51 276.976 280.575C348.505 324.648 466.823 357.181 517.041 367.939C541.59 373.197 562.184 352.784 619.455 361.432C675.477 369.893 675.443 422.964 688.67 432.751C699.251 440.58 783.567 474.985 824.403 491.209C787.883 487.22 693.283 477.614 610.559 456.31Z" fill="url(#paint2_linear_1184_1557)"/>
<path d="M1491.62 264.589C1549.65 239.973 1608.55 184.429 1642.29 153.814C1610.45 180.702 1554.81 205.377 1530.97 214.353C1519.32 218.741 1507.71 210.245 1480.26 218.706C1453.4 226.983 1457.33 253.013 1451.57 258.788C1446.95 263.408 1408.13 286.495 1389.3 297.462C1406.92 292.814 1452.61 281.134 1491.62 264.589Z" fill="url(#paint3_linear_1184_1557)"/>
</g>
</g>
<defs>
<linearGradient id="paint0_linear_1184_1557" x1="271.324" y1="-17.9709" x2="270.93" y2="297.767" gradientUnits="userSpaceOnUse">
<stop stop-color="#221152"/>
<stop offset="1" stop-color="#542D78"/>
</linearGradient>
<linearGradient id="paint1_linear_1184_1557" x1="1928.8" y1="-154.664" x2="1651.3" y2="339.686" gradientUnits="userSpaceOnUse">
<stop stop-color="#261152"/>
<stop offset="1" stop-color="#542D78"/>
</linearGradient>
<linearGradient id="paint2_linear_1184_1557" x1="551.088" y1="376.075" x2="559.381" y2="508.047" gradientUnits="userSpaceOnUse">
<stop stop-color="#452D78"/>
<stop offset="1" stop-color="#6F34A5"/>
</linearGradient>
<linearGradient id="paint3_linear_1184_1557" x1="1514.87" y1="220.852" x2="1520.53" y2="286.197" gradientUnits="userSpaceOnUse">
<stop stop-color="#452D78"/>
<stop offset="1" stop-color="#5E2A8D"/>
</linearGradient>
</defs>
</svg>
