<svg width="375" height="180" viewBox="0 0 375 180" fill="none" xmlns="http://www.w3.org/2000/svg">
<mask id="mask0_1184_2373" style="mask-type:alpha" maskUnits="userSpaceOnUse" x="0" y="0" width="375" height="180">
<rect width="375" height="180" fill="#D9D9D9"/>
</mask>
<g mask="url(#mask0_1184_2373)">
<g opacity="0.5">
<path d="M11.8995 79.831C-12.6782 61.6169 -73.8333 -2.86826 -87 -60.707C-76.5099 -43.7951 -52.8166 -9.97126 -41.9641 -9.97126C-28.3984 -9.97126 -30.3934 -6.41976 -18.0247 -2.86826C-5.65601 0.683247 -0.868141 -15.0448 21.0763 0.683247C38.6318 13.2657 34.2429 38.0586 29.854 48.8822C30.652 53.4484 34.2429 62.8853 42.2227 64.103C52.1975 65.625 49.8035 87.4414 58.5813 88.9635C65.6035 90.1811 72.6789 103.973 75.3389 110.716C64.4331 108.011 36.4773 98.0452 11.8995 79.831Z" fill="url(#paint0_linear_1184_2373)"/>
<path d="M421.056 27.782C399.322 58.3693 328.417 129.999 274.562 135.148C291.861 124.229 327.093 98.5434 329.629 83.1578C332.799 63.9259 335.451 67.5841 341.46 50.879C347.468 34.1739 334.779 23.7106 353.715 -3.72439C368.864 -25.6724 389.605 -13.6562 398.081 -4.90469C402.277 -4.96888 411.401 -7.85433 414.334 -18.8827C418.002 -32.6682 436.595 -24.1759 439.983 -36.2644C442.693 -45.9352 456.454 -52.743 462.996 -54.938C458.072 -40.1093 442.79 -2.80522 421.056 27.782Z" fill="url(#paint1_linear_1184_2373)"/>
<path d="M72.7092 157.189C44.3243 147.897 13.4075 120.606 -4.21875 105.676C12.2768 118.595 39.5622 128.131 51.143 131.285C56.8041 132.826 61.5535 126.842 74.7607 129.377C87.68 131.857 87.6722 147.414 90.7224 150.283C93.1626 152.578 112.607 162.663 122.024 167.419C113.602 166.249 91.7862 163.434 72.7092 157.189Z" fill="url(#paint2_linear_1184_2373)"/>
<path d="M275.894 100.983C289.278 93.7674 302.861 77.4858 310.641 68.5117C303.299 76.3934 290.468 83.6262 284.97 86.2573C282.283 87.5436 279.606 85.0532 273.275 87.5335C267.082 89.9597 267.988 97.5898 266.658 99.2826C265.594 100.637 256.641 107.404 252.298 110.619C256.361 109.257 266.899 105.833 275.894 100.983Z" fill="url(#paint3_linear_1184_2373)"/>
</g>
</g>
<defs>
<linearGradient id="paint0_linear_1184_2373" x1="-5.51957" y1="18.1649" x2="-5.66648" y2="110.717" gradientUnits="userSpaceOnUse">
<stop stop-color="#221152"/>
<stop offset="1" stop-color="#542D78"/>
</linearGradient>
<linearGradient id="paint1_linear_1184_2373" x1="376.701" y1="-21.9115" x2="286.598" y2="104.368" gradientUnits="userSpaceOnUse">
<stop stop-color="#261152"/>
<stop offset="1" stop-color="#542D78"/>
</linearGradient>
<linearGradient id="paint2_linear_1184_2373" x1="58.9946" y1="133.67" x2="62.0769" y2="172.261" gradientUnits="userSpaceOnUse">
<stop stop-color="#452D78"/>
<stop offset="1" stop-color="#6F34A5"/>
</linearGradient>
<linearGradient id="paint3_linear_1184_2373" x1="281.257" y1="88.1624" x2="283.355" y2="107.23" gradientUnits="userSpaceOnUse">
<stop stop-color="#452D78"/>
<stop offset="1" stop-color="#5E2A8D"/>
</linearGradient>
</defs>
</svg>
