<svg width="375" height="409" viewBox="0 0 375 409" fill="none" xmlns="http://www.w3.org/2000/svg">
<mask id="mask0_1184_2380" style="mask-type:alpha" maskUnits="userSpaceOnUse" x="0" y="0" width="375" height="409">
<rect width="375" height="409" fill="#D9D9D9"/>
</mask>
<g mask="url(#mask0_1184_2380)">
<path d="M326.62 188.273C326.62 188.273 373.536 140.369 378.601 144.326L413.233 224.534L439.845 246.605L452.272 277.109L453.716 276.958L453.734 320.124L453.716 391.724L360.927 397.426L290.431 401.546L192.49 404.82L326.62 188.273Z" fill="url(#paint0_linear_1184_2380)"/>
<path d="M413.232 224.535L387.581 262.01V266.531L364.083 296.19L360.932 303.312L348.492 328.928L365.89 297.751C365.89 297.751 394.133 287.279 395.715 285.295C397.297 283.312 397.523 280.97 397.523 280.97V276.959L397.071 257.945L414.921 236.308H417.795L439.844 246.606C439.844 246.606 437.522 243.018 413.232 224.535Z" fill="url(#paint1_linear_1184_2380)"/>
<path d="M260.39 298.074L319.488 224.533L334.708 192.521L355.796 168.781H359.292L354.591 174.44L359.292 172.879L350.819 195.904L363.937 169.887L365.142 156L377.148 144C377.148 144 363.108 149.16 326.618 188.272L260.39 298.074Z" fill="url(#paint2_linear_1184_2380)"/>
<path d="M369.657 209.097L386.986 207.275L409.016 221.032L388.486 202.397L385.021 201.357L384.72 199.015L376.241 193.031L357.625 209.097L350.244 229.845L350.935 241.553V230.398L357.079 221.747L369.657 209.097Z" fill="url(#paint3_linear_1184_2380)"/>
<path d="M195.07 341.198L192.491 349.144L193.156 355.507L180.139 387.009V384.646L190.332 354.922L189.88 348.287L191.166 339.105L195.07 341.198Z" fill="url(#paint4_linear_1184_2380)"/>
<path d="M260.181 395.727L265.911 395.911L306.707 362.631L308.954 368.799L319.492 379.163L327.187 394.513L320.477 375.369L326.17 360.756L338.628 379.163L332.283 365.038L348.495 328.928L365.893 297.752L395.718 285.296L397.525 280.971L397.073 257.946L414.923 236.309L439.846 246.607L452.273 277.112L414.114 351.357L360.934 397.439L265.208 403.521L260.181 395.727Z" fill="url(#paint5_linear_1184_2380)"/>
<path d="M12.4055 310.276L39.9765 290.189H54.0247L60.8452 310.037L82.4461 359.09L127.236 320.748L136.265 286.774L165 270.069L185.42 232.258L197.484 244.8L220.815 286.698L283.911 368.64L304.768 321.355L322.714 304.66L338.923 248.106L350.781 232.258L364.729 251.987L370.09 268.226L402.982 297.777L430.157 343.306L454.345 365.843L479.945 409.14L-24.0026 409.226" fill="url(#paint6_linear_1184_2380)"/>
<path d="M186.054 232.258V280.411L194.309 338.818L208.198 359.09L202.801 331.219L202.411 286.698L249.812 331.219L273.367 354.342L221.384 286.698L198.1 244.8L186.054 232.258Z" fill="url(#paint7_linear_1184_2380)"/>
<path d="M367.977 265.353L378.417 288.769L395.548 304.66L438.484 389.584L430.318 343.306L403.195 297.777L370.369 268.226L365.013 251.987L351.094 232.258L339.267 248.106L367.977 265.353Z" fill="url(#paint8_linear_1184_2380)"/>
<path d="M54.0238 290.195L46.3707 309.838L50.1972 331.226L56.811 324.841L80.9806 389.59L91.9922 380.475L60.8341 309.909L54.0238 290.195Z" fill="url(#paint9_linear_1184_2380)"/>
<path d="M136.263 286.775L170.383 328.012C170.383 328.012 181.957 356.609 181.803 355.969C181.656 355.33 171.079 324.261 171.079 324.261L146.933 286.168L164.997 270.07L136.263 286.775Z" fill="url(#paint10_linear_1184_2380)"/>
<path d="M304.643 321.469L337.895 339.214L363.251 329.816L374.141 298.184L359.743 325.631H337.895L319.65 308.341L304.643 321.469Z" fill="url(#paint11_linear_1184_2380)"/>
<path d="M76.8962 55.0176C76.8962 55.0176 112.758 22.4736 116.63 25.1617L143.103 79.652L163.445 94.6462L172.945 115.37L174.048 115.267L179.5 170L186.5 150.5L195.5 149L206.5 179.5L238 199.908L198 203.5L186.5 201.5L171.5 206.5L105.5 201.5L49.2331 199.908H-21L76.8962 55.0176Z" fill="url(#paint12_linear_1184_2380)"/>
<path d="M143.103 79.6562L123.495 105.115V108.187L105.533 128.336L103.125 133.174L93.6159 150.577L106.915 129.396C106.915 129.396 128.504 122.282 129.713 120.935C130.922 119.587 131.095 117.996 131.095 117.996V115.271L130.75 102.354L144.394 87.6541H146.591L163.445 94.6505C163.445 94.6505 161.67 92.2128 143.103 79.6562Z" fill="url(#paint13_linear_1184_2380)"/>
<path d="M26.2732 129.614L71.4477 79.6526L83.0819 57.9051L99.2019 41.7768H101.874L98.2808 45.621L101.874 44.5606L95.3974 60.2029L105.424 42.5279L106.346 33.094L115.523 24.9414C115.523 24.9414 104.791 28.4469 76.8978 55.0182L26.2732 129.614Z" fill="url(#paint14_linear_1184_2380)"/>
<path d="M109.797 69.1643L123.043 67.927L139.883 77.2726L124.19 64.613L121.541 63.906L121.311 62.3152L114.83 58.25L100.6 69.1643L94.9579 83.26L95.4856 91.2137V83.6356L100.182 77.7587L109.797 69.1643Z" fill="url(#paint15_linear_1184_2380)"/>
<path d="M26.1092 195.951L30.4894 196.077L61.674 173.467L63.3915 177.658L71.4468 184.698L77.3286 195.127L72.2 182.121L76.5514 172.193L86.0747 184.698L81.2243 175.102L93.6166 150.571L106.916 129.391L129.714 120.929L131.096 117.99L130.75 102.348L144.395 87.6484L163.446 94.6448L172.945 115.369L143.776 165.808L103.125 197.115L29.9521 201.247L26.1092 195.951Z" fill="url(#paint16_linear_1184_2380)"/>
<path d="M31.9159 103.902L12.308 129.362V132.433L-5.65431 152.582L-8.06271 157.421L-17.5716 174.823L-4.2726 153.642C-4.2726 153.642 11.7735 143.175 12.9825 141.827C14.1915 140.48 14.3642 138.889 14.3642 138.889V136.164L19.562 126.6L33.2064 111.9H35.4038L52.2578 118.897C52.2578 118.897 50.4827 116.459 31.9159 103.902Z" fill="url(#paint17_linear_1184_2380)"/>
<path d="M-85.0813 220.201L-80.7011 220.327L-49.5165 197.717L-47.799 201.908L-39.7438 208.948L-33.8619 219.377L-38.9905 206.371L-34.6391 196.443L-25.1158 208.948L-29.9662 199.352L-17.5739 174.821L-4.27492 153.641L12.1381 139.169L13.5198 136.231L19.5597 126.598L33.2041 111.898L52.2555 118.895L61.7548 139.619L77.9531 208.948L-8.06504 221.365L-81.2384 225.497L-85.0813 220.201Z" fill="url(#paint18_linear_1184_2380)"/>
<path d="M56.0625 144.001L50.4224 164.28C50.4224 164.28 35.9919 168.375 36.2514 168.188C36.5074 167.994 49.1534 161.098 49.1534 161.098L52.393 139.959L57.9724 131.877L60.924 138.175L56.0625 144.001Z" fill="url(#paint19_linear_1184_2380)"/>
<path fill-rule="evenodd" clip-rule="evenodd" d="M-64.7181 161.194C-64.7181 161.194 -54.6103 126.644 -54.2146 121.341C-53.8109 116.052 -52.2437 87.5156 -52.2437 87.5156C-52.2437 87.5156 -42.7059 87.7753 -38.7087 92.0667C-34.7036 96.3581 -32.7248 108.207 -32.7248 108.207C-32.7248 108.207 -29.1867 128.366 -29.9069 130.156C-30.6193 131.947 -32.7248 134.421 -32.7248 134.421C-32.7248 134.421 -27.9202 165.021 -27.0654 170.583C-26.2185 176.146 -12.6518 190.646 -12.6518 190.646C-12.6518 190.646 -0.620659 180.984 0.582458 175.449C1.78557 169.914 1.11277 168.547 1.11277 168.547C1.11277 168.547 -0.137833 161.495 -0.137833 158.994C-0.137833 156.493 18.0197 157.408 18.0197 157.408C18.0197 157.408 29.378 165.403 30.5732 170.966C31.7763 176.528 28.9743 179.152 28.9743 179.152C28.9743 179.152 45.1056 176.802 49.0394 179.152L53.2741 185.125L78.1753 190.236C78.1753 190.236 80.0592 173.207 82.3704 171.499C85.1724 169.422 104.565 190.66 104.565 190.66C104.565 190.66 114.3 216.723 117.229 218.8C120.158 220.878 128.271 222.422 131.413 220.878C134.555 219.32 143.856 214.14 147.457 216.736C151.059 219.32 167.253 234.299 167.253 234.299H-64.7181H-93L-84.9371 200.848L-81.2158 193.778C-81.2158 193.778 -78.9832 178.877 -77.4944 175.139C-76.0057 171.4 -64.7181 161.194 -64.7181 161.194Z" fill="url(#paint20_linear_1184_2380)"/>
<path fill-rule="evenodd" clip-rule="evenodd" d="M30.8317 172.636V172.746C29.3911 175.397 24.6183 175.793 24.6183 175.793L19.972 174.495L14.7243 175.793C14.7243 175.793 5.57426 170.354 4.07828 168.29C2.81977 166.555 0.706406 161.211 0.0494429 159.516C-0.0772006 159.188 -0.148438 158.997 -0.148438 158.997C2.53482 154.61 18.7373 157.931 18.7373 157.931C27.1353 162.25 29.7078 167.416 30.4834 170.368C30.4914 170.395 30.4993 170.409 30.4993 170.409C30.8001 171.543 30.8317 172.349 30.8317 172.636Z" fill="#24114A"/>
<path fill-rule="evenodd" clip-rule="evenodd" d="M28.9762 179.15L20.5781 186.42C20.5781 186.42 30.8996 185.641 34.3585 185.122C37.8254 184.603 39.4717 182.785 39.4717 182.785L42.9228 180.462L49.0333 179.15C49.0333 179.15 39.171 174.981 28.9762 179.15Z" fill="#24114A"/>
<path fill-rule="evenodd" clip-rule="evenodd" d="M53.5677 186.409L49.0323 187.967L38.7188 191.07C38.7188 191.07 52.0401 198.067 57.0029 199.612L60.6122 197.275C60.6122 197.275 67.5143 200.377 76.3556 202.195C85.2048 204.012 96.1516 202.195 96.1516 202.195C96.1516 202.195 86.028 191.821 78.1603 190.209C78.1682 190.222 60.0186 185.63 53.5677 186.409Z" fill="#24114A"/>
<path fill-rule="evenodd" clip-rule="evenodd" d="M82.3584 171.488C82.3584 171.488 80.9099 178.348 81.4877 181.861C82.0576 185.387 89.7116 194.967 94.809 196.512C99.9064 198.07 104.561 190.649 104.561 190.649C104.561 190.649 89.2604 171.05 82.3584 171.488Z" fill="#24114A"/>
<path fill-rule="evenodd" clip-rule="evenodd" d="M131.414 220.854C131.414 220.854 133.654 224.011 143.556 229.136C153.458 234.275 163.115 230.476 163.115 230.476C163.115 230.476 150.949 215.579 145.994 216.112C141.047 216.645 131.414 220.854 131.414 220.854Z" fill="#24114A"/>
<path fill-rule="evenodd" clip-rule="evenodd" d="M80.8493 221.894C80.8493 221.894 90.4584 219.311 96.1573 221.894C101.856 224.477 117.22 229.151 117.22 229.151C117.22 229.151 79.9074 231.734 68.9844 229.151C68.9923 229.151 75.4353 222.851 80.8493 221.894Z" fill="#24114A"/>
<path fill-rule="evenodd" clip-rule="evenodd" d="M141.453 214.382L139.156 190.523L143.538 186.192L154.244 187.408L161.534 205.772L163.133 213.172L141.453 214.382Z" fill="url(#paint21_radial_1184_2380)"/>
<path opacity="0.7" fill-rule="evenodd" clip-rule="evenodd" d="M139.156 190.523L150.418 193.193L154.604 190.27L154.244 187.408L143.538 186.192L139.156 190.523Z" fill="white"/>
<path fill-rule="evenodd" clip-rule="evenodd" d="M150.418 193.19L152.04 213.834L141.453 214.379L139.156 190.52L150.418 193.19Z" fill="white"/>
<path fill-rule="evenodd" clip-rule="evenodd" d="M149 192.857L151.254 192.614L150.498 194.18L149 192.857Z" fill="white"/>
<path fill-rule="evenodd" clip-rule="evenodd" d="M124 215.703L125.805 204.645L127.437 203.188L132.064 204.645L134.116 214.941L124 215.703Z" fill="url(#paint22_radial_1184_2380)"/>
<path opacity="0.7" fill-rule="evenodd" clip-rule="evenodd" d="M125.805 204.645L128.667 210.131L131.505 210.838L132.064 204.645L127.437 203.188L125.805 204.645Z" fill="white"/>
<path fill-rule="evenodd" clip-rule="evenodd" d="M128.667 210.131V215.319L124 215.703L125.805 204.645L128.667 210.131Z" fill="white"/>
<path fill-rule="evenodd" clip-rule="evenodd" d="M128.203 209.246L129.406 210.319L128.666 211.389L128.203 209.246Z" fill="white"/>
<path opacity="0.5" fill-rule="evenodd" clip-rule="evenodd" d="M141.453 214.386L148.996 218.464L161.631 216.703L163.132 213.176L141.453 214.386Z" fill="url(#paint23_linear_1184_2380)"/>
<path opacity="0.5" fill-rule="evenodd" clip-rule="evenodd" d="M124 215.704L126.334 218.465L132.709 217.581L134.116 214.942L124 215.704Z" fill="url(#paint24_linear_1184_2380)"/>
<path opacity="0.5" fill-rule="evenodd" clip-rule="evenodd" d="M156.977 222.839C144.16 229.054 130.264 221.405 125.935 205.755C121.607 190.104 128.488 172.377 141.305 166.161C154.122 159.946 168.018 167.595 172.348 183.245C176.673 198.898 169.793 216.623 156.977 222.839Z" fill="url(#paint25_radial_1184_2380)"/>
<g filter="url(#filter0_d_1184_2380)">
<path fill-rule="evenodd" clip-rule="evenodd" d="M221.358 106.002C220.744 106.053 220.266 106.979 220.295 108.041C220.324 109.102 220.861 109.928 221.475 109.877C222.089 109.827 222.567 108.9 222.538 107.839C222.499 106.76 221.972 105.952 221.358 106.002Z" fill="white"/>
<path fill-rule="evenodd" clip-rule="evenodd" d="M229.747 170.634C229.308 170.668 228.976 171.325 228.996 172.083C229.015 172.841 229.396 173.414 229.834 173.38C230.273 173.347 230.605 172.69 230.585 171.948C230.566 171.173 230.185 170.601 229.747 170.634Z" fill="white"/>
<path fill-rule="evenodd" clip-rule="evenodd" d="M239.361 180.103C239.039 180.137 238.796 180.609 238.815 181.165C238.835 181.721 239.108 182.142 239.429 182.108C239.751 182.075 239.995 181.603 239.975 181.047C239.956 180.491 239.683 180.07 239.361 180.103Z" fill="white"/>
<path fill-rule="evenodd" clip-rule="evenodd" d="M225.883 138.161C225.678 138.178 225.522 138.481 225.532 138.835C225.542 139.189 225.717 139.458 225.922 139.441C226.127 139.425 226.283 139.121 226.273 138.767C226.263 138.414 226.088 138.144 225.883 138.161Z" fill="white"/>
<path fill-rule="evenodd" clip-rule="evenodd" d="M230.25 174.899C230.045 174.916 229.889 175.219 229.899 175.573C229.909 175.927 230.084 176.197 230.289 176.18C230.494 176.163 230.65 175.86 230.64 175.506C230.63 175.152 230.455 174.882 230.25 174.899Z" fill="white"/>
<path fill-rule="evenodd" clip-rule="evenodd" d="M221.477 175.063C221.272 175.08 221.116 175.383 221.126 175.737C221.135 176.091 221.311 176.361 221.516 176.344C221.72 176.327 221.877 176.024 221.867 175.67C221.867 175.316 221.691 175.046 221.477 175.063Z" fill="white"/>
<path fill-rule="evenodd" clip-rule="evenodd" d="M223.461 166.587C223.256 166.604 223.1 166.907 223.11 167.261C223.12 167.615 223.295 167.884 223.5 167.867C223.705 167.85 223.861 167.547 223.851 167.193C223.841 166.84 223.666 166.57 223.461 166.587Z" fill="white"/>
<path fill-rule="evenodd" clip-rule="evenodd" d="M229.343 163.654C229.236 163.671 229.158 163.822 229.168 163.991C229.177 164.176 229.265 164.311 229.363 164.294C229.47 164.277 229.548 164.126 229.538 163.957C229.538 163.772 229.45 163.637 229.343 163.654Z" fill="white"/>
<path fill-rule="evenodd" clip-rule="evenodd" d="M233.21 203.539C233.103 203.556 233.025 203.708 233.035 203.876C233.045 204.045 233.132 204.196 233.23 204.179C233.337 204.162 233.415 204.011 233.405 203.842C233.405 203.674 233.318 203.539 233.21 203.539Z" fill="white"/>
<path fill-rule="evenodd" clip-rule="evenodd" d="M226.453 168.762C226.345 168.779 226.267 168.93 226.277 169.099C226.287 169.284 226.375 169.419 226.472 169.402C226.579 169.385 226.657 169.233 226.648 169.065C226.648 168.897 226.56 168.762 226.453 168.762Z" fill="white"/>
<path fill-rule="evenodd" clip-rule="evenodd" d="M232.43 165.762C232.225 165.779 232.069 166.082 232.079 166.436C232.089 166.79 232.264 167.06 232.469 167.043C232.674 167.026 232.83 166.723 232.82 166.369C232.81 166.015 232.635 165.745 232.43 165.762Z" fill="white"/>
<path fill-rule="evenodd" clip-rule="evenodd" d="M98.4205 236.405C97.8062 236.455 97.3284 237.382 97.3577 238.443C97.3869 239.505 97.9232 240.33 98.5375 240.28C99.1518 240.229 99.6295 239.302 99.6003 238.241C99.5613 237.163 99.0347 236.354 98.4205 236.405Z" fill="white"/>
<path fill-rule="evenodd" clip-rule="evenodd" d="M106.622 266.148C106.183 266.181 105.851 266.838 105.871 267.597C105.89 268.355 106.271 268.928 106.709 268.894C107.148 268.86 107.48 268.203 107.46 267.445C107.431 266.687 107.06 266.097 106.622 266.148Z" fill="white"/>
<path fill-rule="evenodd" clip-rule="evenodd" d="M116.228 275.594C115.907 275.628 115.663 276.099 115.682 276.655C115.702 277.211 115.975 277.633 116.297 277.599C116.618 277.565 116.862 277.093 116.843 276.537C116.823 275.998 116.55 275.577 116.228 275.594Z" fill="white"/>
<path fill-rule="evenodd" clip-rule="evenodd" d="M102.75 233.68C102.545 233.697 102.389 234.001 102.399 234.354C102.409 234.708 102.584 234.978 102.789 234.961C102.994 234.944 103.15 234.641 103.14 234.287C103.13 233.933 102.955 233.664 102.75 233.68Z" fill="white"/>
<path fill-rule="evenodd" clip-rule="evenodd" d="M107.133 270.403C106.928 270.42 106.772 270.723 106.782 271.077C106.792 271.431 106.967 271.7 107.172 271.684C107.377 271.667 107.533 271.363 107.523 271.01C107.513 270.656 107.338 270.386 107.133 270.403Z" fill="white"/>
<path fill-rule="evenodd" clip-rule="evenodd" d="M98.3517 270.559C98.147 270.576 97.991 270.88 98.0007 271.233C98.0105 271.587 98.186 271.857 98.3907 271.84C98.5955 271.823 98.7515 271.52 98.7418 271.166C98.732 270.829 98.5565 270.543 98.3517 270.559Z" fill="white"/>
<path fill-rule="evenodd" clip-rule="evenodd" d="M100.336 262.1C100.131 262.117 99.9753 262.42 99.9851 262.774C99.9948 263.128 100.17 263.398 100.375 263.381C100.58 263.364 100.736 263.061 100.726 262.707C100.726 262.353 100.541 262.067 100.336 262.1Z" fill="white"/>
<path fill-rule="evenodd" clip-rule="evenodd" d="M106.226 259.154C106.119 259.17 106.041 259.322 106.051 259.491C106.06 259.676 106.148 259.811 106.246 259.794C106.353 259.777 106.431 259.625 106.421 259.457C106.411 259.288 106.324 259.137 106.226 259.154Z" fill="white"/>
<path fill-rule="evenodd" clip-rule="evenodd" d="M103.328 264.275C103.22 264.292 103.142 264.443 103.152 264.612C103.162 264.797 103.25 264.932 103.347 264.915C103.454 264.898 103.532 264.747 103.523 264.578C103.513 264.393 103.425 264.258 103.328 264.275Z" fill="white"/>
<path fill-rule="evenodd" clip-rule="evenodd" d="M109.297 261.276C109.092 261.293 108.936 261.596 108.946 261.95C108.956 262.304 109.131 262.573 109.336 262.556C109.541 262.54 109.697 262.236 109.687 261.882C109.687 261.529 109.502 261.242 109.297 261.276Z" fill="white"/>
<path fill-rule="evenodd" clip-rule="evenodd" d="M233.711 195.331C233.506 195.348 233.35 195.651 233.36 196.005C233.37 196.359 233.545 196.628 233.75 196.611C233.955 196.594 234.111 196.291 234.101 195.937C234.091 195.583 233.916 195.297 233.711 195.331Z" fill="white"/>
<path fill-rule="evenodd" clip-rule="evenodd" d="M251.633 202.177C251.428 202.193 251.272 202.497 251.282 202.85C251.292 203.204 251.467 203.474 251.672 203.457C251.877 203.44 252.033 203.137 252.023 202.783C252.013 202.429 251.838 202.16 251.633 202.177Z" fill="white"/>
<path fill-rule="evenodd" clip-rule="evenodd" d="M207.022 221.647C206.408 221.697 205.93 222.624 205.959 223.685C205.988 224.747 206.525 225.572 207.139 225.522C207.753 225.471 208.231 224.545 208.202 223.483C208.173 222.405 207.646 221.596 207.022 221.647Z" fill="white"/>
<path fill-rule="evenodd" clip-rule="evenodd" d="M85.8736 244.578C85.2593 244.628 84.7815 245.555 84.8108 246.617C84.84 247.678 85.3763 248.504 85.9906 248.453C86.6049 248.402 87.0827 247.476 87.0534 246.414C87.0144 245.336 86.4879 244.51 85.8736 244.578Z" fill="white"/>
<path fill-rule="evenodd" clip-rule="evenodd" d="M179.772 232.073C179.158 232.123 178.68 233.05 178.709 234.111C178.738 235.173 179.275 235.998 179.889 235.948C180.503 235.897 180.981 234.97 180.952 233.909C180.923 232.848 180.386 232.022 179.772 232.073Z" fill="white"/>
<path fill-rule="evenodd" clip-rule="evenodd" d="M102.342 255.983C101.728 256.033 101.25 256.96 101.28 258.021C101.309 259.083 101.845 259.908 102.459 259.858C103.074 259.807 103.551 258.881 103.522 257.819C103.483 256.758 102.957 255.932 102.342 255.983Z" fill="white"/>
<path fill-rule="evenodd" clip-rule="evenodd" d="M228.264 221.631C227.65 221.682 227.172 222.608 227.201 223.67C227.231 224.731 227.767 225.557 228.381 225.506C228.996 225.456 229.473 224.529 229.444 223.468C229.405 222.389 228.879 221.581 228.264 221.631Z" fill="white"/>
<path fill-rule="evenodd" clip-rule="evenodd" d="M234.608 239.561C233.994 239.611 233.516 240.538 233.545 241.599C233.574 242.661 234.111 243.486 234.725 243.436C235.339 243.385 235.817 242.459 235.788 241.397C235.759 240.319 235.222 239.51 234.608 239.561Z" fill="white"/>
<path fill-rule="evenodd" clip-rule="evenodd" d="M201.653 196.865C201.214 196.898 200.883 197.555 200.902 198.314C200.922 199.072 201.302 199.645 201.741 199.611C202.179 199.577 202.511 198.92 202.491 198.162C202.472 197.404 202.092 196.831 201.653 196.865Z" fill="white"/>
<path fill-rule="evenodd" clip-rule="evenodd" d="M156.84 229.869C156.402 229.902 156.07 230.559 156.09 231.318C156.109 232.076 156.489 232.649 156.928 232.615C157.367 232.581 157.698 231.924 157.679 231.166C157.65 230.408 157.279 229.835 156.84 229.869Z" fill="white"/>
<path fill-rule="evenodd" clip-rule="evenodd" d="M165.661 228.822C165.222 228.855 164.89 229.513 164.91 230.271C164.929 231.029 165.31 231.602 165.748 231.568C166.187 231.534 166.519 230.877 166.499 230.119C166.48 229.361 166.099 228.788 165.661 228.822Z" fill="white"/>
<path fill-rule="evenodd" clip-rule="evenodd" d="M215.223 251.369C214.784 251.402 214.453 252.059 214.472 252.818C214.492 253.576 214.872 254.149 215.311 254.115C215.75 254.081 216.081 253.424 216.062 252.666C216.032 251.925 215.662 251.335 215.223 251.369Z" fill="white"/>
<path fill-rule="evenodd" clip-rule="evenodd" d="M224.52 181.722C224.081 181.755 223.75 182.413 223.769 183.171C223.789 183.929 224.169 184.502 224.608 184.468C225.047 184.434 225.378 183.777 225.359 183.036C225.329 182.261 224.959 181.671 224.52 181.722Z" fill="white"/>
<path fill-rule="evenodd" clip-rule="evenodd" d="M234.056 234.115C233.735 234.149 233.491 234.621 233.51 235.177C233.53 235.733 233.803 236.154 234.125 236.12C234.447 236.086 234.69 235.615 234.671 235.059C234.651 234.503 234.378 234.081 234.056 234.115Z" fill="white"/>
<path fill-rule="evenodd" clip-rule="evenodd" d="M272.549 215.369C272.227 215.403 271.983 215.874 272.003 216.43C272.022 216.986 272.295 217.408 272.617 217.374C272.939 217.34 273.182 216.868 273.163 216.313C273.143 215.773 272.87 215.335 272.549 215.369Z" fill="white"/>
<path fill-rule="evenodd" clip-rule="evenodd" d="M211.367 218.925C211.163 218.941 211.007 219.245 211.016 219.599C211.026 219.952 211.202 220.222 211.406 220.205C211.611 220.188 211.767 219.885 211.757 219.531C211.748 219.177 211.572 218.891 211.367 218.925Z" fill="white"/>
<path fill-rule="evenodd" clip-rule="evenodd" d="M215.735 255.653C215.53 255.67 215.374 255.973 215.384 256.327C215.393 256.681 215.569 256.95 215.774 256.934C215.978 256.917 216.134 256.613 216.125 256.26C216.115 255.906 215.939 255.636 215.735 255.653Z" fill="white"/>
<path fill-rule="evenodd" clip-rule="evenodd" d="M231.82 237.235C231.616 237.252 231.46 237.555 231.469 237.909C231.479 238.263 231.655 238.532 231.859 238.516C232.064 238.499 232.22 238.195 232.211 237.842C232.201 237.488 232.025 237.218 231.82 237.235Z" fill="white"/>
<path fill-rule="evenodd" clip-rule="evenodd" d="M206.953 255.801C206.749 255.818 206.593 256.122 206.602 256.475C206.612 256.829 206.788 257.099 206.992 257.082C207.197 257.065 207.353 256.762 207.343 256.408C207.334 256.071 207.158 255.785 206.953 255.801Z" fill="white"/>
<path fill-rule="evenodd" clip-rule="evenodd" d="M208.945 247.343C208.741 247.359 208.585 247.663 208.594 248.016C208.604 248.37 208.78 248.64 208.984 248.623C209.189 248.606 209.345 248.303 209.336 247.949C209.326 247.595 209.15 247.309 208.945 247.343Z" fill="white"/>
<path fill-rule="evenodd" clip-rule="evenodd" d="M235.274 210.966C235.069 210.982 234.913 211.286 234.923 211.64C234.932 211.993 235.108 212.263 235.313 212.246C235.517 212.229 235.673 211.926 235.664 211.572C235.654 211.218 235.478 210.949 235.274 210.966Z" fill="white"/>
<path fill-rule="evenodd" clip-rule="evenodd" d="M214.828 244.392C214.72 244.409 214.642 244.56 214.652 244.729C214.662 244.914 214.75 245.049 214.847 245.032C214.954 245.015 215.032 244.864 215.023 244.695C215.023 244.527 214.925 244.375 214.828 244.392Z" fill="white"/>
<path fill-rule="evenodd" clip-rule="evenodd" d="M239.054 213.474C238.947 213.491 238.869 213.643 238.879 213.811C238.888 213.996 238.976 214.131 239.074 214.114C239.181 214.097 239.259 213.946 239.249 213.777C239.239 213.592 239.152 213.457 239.054 213.474Z" fill="white"/>
<path fill-rule="evenodd" clip-rule="evenodd" d="M233.078 216.103C232.97 216.12 232.892 216.271 232.902 216.44C232.912 216.625 233 216.76 233.097 216.743C233.204 216.726 233.282 216.575 233.273 216.406C233.273 216.238 233.185 216.086 233.078 216.103Z" fill="white"/>
<path fill-rule="evenodd" clip-rule="evenodd" d="M234.453 238.243C234.345 238.26 234.267 238.412 234.277 238.58C234.287 238.766 234.375 238.901 234.472 238.884C234.579 238.867 234.657 238.715 234.648 238.547C234.638 238.378 234.55 238.227 234.453 238.243Z" fill="white"/>
<path fill-rule="evenodd" clip-rule="evenodd" d="M211.929 249.517C211.822 249.534 211.744 249.686 211.754 249.854C211.763 250.039 211.851 250.174 211.949 250.157C212.046 250.14 212.134 249.989 212.124 249.82C212.124 249.635 212.037 249.5 211.929 249.517Z" fill="white"/>
<path fill-rule="evenodd" clip-rule="evenodd" d="M207.256 204.329C206.758 204.38 206.378 205.104 206.407 205.964C206.437 206.823 206.856 207.48 207.353 207.429C207.851 207.379 208.231 206.654 208.202 205.795C208.172 204.936 207.753 204.296 207.256 204.329Z" fill="white"/>
<path fill-rule="evenodd" clip-rule="evenodd" d="M185.467 212.665C184.969 212.716 184.589 213.44 184.618 214.3C184.648 215.159 185.067 215.816 185.564 215.765C186.061 215.715 186.442 214.99 186.412 214.131C186.383 213.289 185.964 212.632 185.467 212.665Z" fill="white"/>
<path fill-rule="evenodd" clip-rule="evenodd" d="M202.961 184.529C202.61 184.563 202.347 185.085 202.366 185.675C202.386 186.281 202.688 186.736 203.029 186.703C203.38 186.669 203.643 186.147 203.624 185.557C203.614 184.95 203.312 184.495 202.961 184.529Z" fill="white"/>
<path fill-rule="evenodd" clip-rule="evenodd" d="M167.133 210.9C166.782 210.934 166.519 211.456 166.538 212.046C166.558 212.653 166.86 213.107 167.201 213.074C167.552 213.04 167.815 212.518 167.796 211.928C167.786 211.338 167.484 210.867 167.133 210.9Z" fill="white"/>
<path fill-rule="evenodd" clip-rule="evenodd" d="M174.195 210.076C173.844 210.11 173.581 210.632 173.601 211.222C173.62 211.828 173.922 212.283 174.264 212.249C174.615 212.216 174.878 211.693 174.858 211.104C174.839 210.514 174.546 210.042 174.195 210.076Z" fill="white"/>
<path fill-rule="evenodd" clip-rule="evenodd" d="M213.813 228.1C213.461 228.133 213.198 228.656 213.218 229.245C213.237 229.852 213.539 230.307 213.881 230.273C214.232 230.239 214.495 229.717 214.476 229.127C214.466 228.521 214.164 228.066 213.813 228.1Z" fill="white"/>
<path fill-rule="evenodd" clip-rule="evenodd" d="M210.719 202.141C210.553 202.157 210.426 202.393 210.436 202.68C210.446 202.966 210.582 203.185 210.748 203.168C210.914 203.152 211.04 202.916 211.031 202.629C211.031 202.36 210.884 202.141 210.719 202.141Z" fill="white"/>
<path fill-rule="evenodd" clip-rule="evenodd" d="M214.227 231.505C214.061 231.522 213.934 231.758 213.944 232.044C213.954 232.33 214.09 232.549 214.256 232.533C214.422 232.516 214.548 232.28 214.539 231.993C214.529 231.707 214.392 231.488 214.227 231.505Z" fill="white"/>
<path fill-rule="evenodd" clip-rule="evenodd" d="M207.203 231.642C207.037 231.658 206.911 231.894 206.92 232.181C206.93 232.467 207.067 232.686 207.232 232.669C207.398 232.652 207.525 232.417 207.515 232.13C207.515 231.844 207.369 231.625 207.203 231.642Z" fill="white"/>
<path fill-rule="evenodd" clip-rule="evenodd" d="M208.789 224.868C208.623 224.885 208.497 225.121 208.506 225.407C208.516 225.694 208.653 225.913 208.818 225.896C208.984 225.879 209.111 225.643 209.101 225.357C209.091 225.07 208.955 224.851 208.789 224.868Z" fill="white"/>
<path fill-rule="evenodd" clip-rule="evenodd" d="M213.491 222.525C213.413 222.525 213.345 222.66 213.355 222.795C213.355 222.929 213.433 223.047 213.511 223.03C213.589 223.03 213.657 222.896 213.648 222.761C213.648 222.626 213.579 222.508 213.491 222.525Z" fill="white"/>
<path fill-rule="evenodd" clip-rule="evenodd" d="M211.179 226.605C211.101 226.605 211.033 226.74 211.042 226.875C211.042 227.01 211.12 227.128 211.198 227.111C211.277 227.111 211.345 226.976 211.335 226.841C211.335 226.707 211.267 226.605 211.179 226.605Z" fill="white"/>
<path fill-rule="evenodd" clip-rule="evenodd" d="M233.203 233.445C233.095 233.462 233.017 233.614 233.027 233.782C233.037 233.968 233.125 234.102 233.222 234.086C233.329 234.069 233.407 233.917 233.398 233.749C233.388 233.58 233.31 233.445 233.203 233.445Z" fill="white"/>
<path fill-rule="evenodd" clip-rule="evenodd" d="M217.906 246.501C217.702 246.518 217.546 246.821 217.555 247.175C217.565 247.529 217.741 247.798 217.945 247.781C218.15 247.764 218.306 247.461 218.296 247.107C218.287 246.77 218.111 246.484 217.906 246.501Z" fill="white"/>
<path fill-rule="evenodd" clip-rule="evenodd" d="M237.625 224.137C237.42 224.154 237.264 224.458 237.274 224.811C237.284 225.165 237.459 225.435 237.664 225.418C237.869 225.401 238.025 225.098 238.015 224.744C238.005 224.39 237.83 224.121 237.625 224.137Z" fill="white"/>
<path fill-rule="evenodd" clip-rule="evenodd" d="M234.586 230.95C234.381 230.967 234.225 231.27 234.235 231.624C234.245 231.978 234.42 232.247 234.625 232.23C234.83 232.214 234.986 231.91 234.976 231.556C234.966 231.203 234.791 230.933 234.586 230.95Z" fill="white"/>
<path fill-rule="evenodd" clip-rule="evenodd" d="M75.0611 259.371C74.4468 259.422 73.969 260.348 73.9983 261.41C74.0275 262.471 74.5638 263.297 75.1781 263.246C75.7924 263.196 76.2702 262.269 76.2409 261.208C76.2117 260.129 75.6754 259.304 75.0611 259.371Z" fill="white"/>
<path fill-rule="evenodd" clip-rule="evenodd" d="M81.4127 277.301C80.7984 277.351 80.3206 278.278 80.3498 279.339C80.3791 280.401 80.9154 281.226 81.5297 281.176C82.144 281.125 82.6217 280.199 82.5925 279.137C82.5632 278.059 82.0367 277.233 81.4127 277.301Z" fill="white"/>
<path fill-rule="evenodd" clip-rule="evenodd" d="M80.8534 271.85C80.5316 271.883 80.2879 272.355 80.3074 272.911C80.3269 273.467 80.5999 273.888 80.9216 273.854C81.2434 273.821 81.4872 273.349 81.4677 272.793C81.4482 272.237 81.1752 271.816 80.8534 271.85Z" fill="white"/>
<path fill-rule="evenodd" clip-rule="evenodd" d="M78.6252 274.973C78.4204 274.99 78.2644 275.294 78.2741 275.647C78.2839 276.001 78.4594 276.271 78.6642 276.254C78.8689 276.237 79.0249 275.934 79.0152 275.58C79.0054 275.226 78.8299 274.957 78.6252 274.973Z" fill="white"/>
<path fill-rule="evenodd" clip-rule="evenodd" d="M79.8901 253.841C79.7829 253.858 79.7049 254.01 79.7146 254.178C79.7244 254.364 79.8121 254.498 79.9096 254.481C80.0169 254.465 80.0949 254.313 80.0851 254.145C80.0754 253.959 79.9876 253.824 79.8901 253.841Z" fill="white"/>
<path fill-rule="evenodd" clip-rule="evenodd" d="M81.2573 275.982C81.15 275.999 81.072 276.15 81.0818 276.319C81.0915 276.504 81.1793 276.639 81.2768 276.622C81.384 276.605 81.4621 276.454 81.4523 276.285C81.4523 276.1 81.3548 275.965 81.2573 275.982Z" fill="white"/>
<path fill-rule="evenodd" clip-rule="evenodd" d="M80.0073 271.18C79.9 271.197 79.822 271.348 79.8318 271.517C79.8415 271.702 79.9293 271.837 80.0268 271.82C80.134 271.803 80.2121 271.651 80.2023 271.483C80.2023 271.314 80.1145 271.18 80.0073 271.18Z" fill="white"/>
<path fill-rule="evenodd" clip-rule="evenodd" d="M84.422 261.884C84.2173 261.9 84.0613 262.204 84.071 262.557C84.0808 262.911 84.2563 263.181 84.461 263.164C84.6658 263.147 84.8218 262.844 84.8121 262.49C84.8023 262.136 84.6268 261.867 84.422 261.884Z" fill="white"/>
<path fill-rule="evenodd" clip-rule="evenodd" d="M81.3908 268.669C81.186 268.686 81.03 268.989 81.0398 269.343C81.0495 269.696 81.225 269.966 81.4298 269.949C81.6346 269.932 81.7906 269.629 81.7808 269.275C81.7711 268.938 81.5956 268.652 81.3908 268.669Z" fill="white"/>
<path fill-rule="evenodd" clip-rule="evenodd" d="M238.258 249.969C238.053 249.986 237.897 250.29 237.907 250.643C237.917 250.997 238.092 251.267 238.297 251.25C238.502 251.233 238.658 250.93 238.648 250.576C238.638 250.222 238.463 249.953 238.258 249.969Z" fill="white"/>
</g>
</g>
<defs>
<filter id="filter0_d_1184_2380" x="61.9971" y="94" width="223.167" height="199.178" filterUnits="userSpaceOnUse" color-interpolation-filters="sRGB">
<feFlood flood-opacity="0" result="BackgroundImageFix"/>
<feColorMatrix in="SourceAlpha" type="matrix" values="0 0 0 0 0 0 0 0 0 0 0 0 0 0 0 0 0 0 127 0" result="hardAlpha"/>
<feOffset/>
<feGaussianBlur stdDeviation="6"/>
<feComposite in2="hardAlpha" operator="out"/>
<feColorMatrix type="matrix" values="0 0 0 0 1 0 0 0 0 1 0 0 0 0 1 0 0 0 1 0"/>
<feBlend mode="normal" in2="BackgroundImageFix" result="effect1_dropShadow_1184_2380"/>
<feBlend mode="normal" in="SourceGraphic" in2="effect1_dropShadow_1184_2380" result="shape"/>
</filter>
<linearGradient id="paint0_linear_1184_2380" x1="319.382" y1="404.779" x2="319.382" y2="144.118" gradientUnits="userSpaceOnUse">
<stop stop-color="#724EBC"/>
<stop offset="1" stop-color="#25125C"/>
</linearGradient>
<linearGradient id="paint1_linear_1184_2380" x1="428.734" y1="228.474" x2="329.55" y2="281.909" gradientUnits="userSpaceOnUse">
<stop stop-color="#9A6AD7"/>
<stop offset="1" stop-color="#9A6AD7" stop-opacity="0"/>
</linearGradient>
<linearGradient id="paint2_linear_1184_2380" x1="362.949" y1="149.813" x2="228.623" y2="212.482" gradientUnits="userSpaceOnUse">
<stop stop-color="#9A6AD7"/>
<stop offset="1" stop-color="#9A6AD7" stop-opacity="0"/>
</linearGradient>
<linearGradient id="paint3_linear_1184_2380" x1="401.868" y1="194.862" x2="348.959" y2="234.317" gradientUnits="userSpaceOnUse">
<stop stop-color="#9A6AD7"/>
<stop offset="1" stop-color="#9A6AD7" stop-opacity="0"/>
</linearGradient>
<linearGradient id="paint4_linear_1184_2380" x1="194.832" y1="364.707" x2="153.111" y2="362.195" gradientUnits="userSpaceOnUse">
<stop stop-color="#006AB2"/>
<stop offset="0.0758" stop-color="#0A6CB5"/>
<stop offset="0.5018" stop-color="#3E77C8"/>
<stop offset="0.8229" stop-color="#5E7ED3"/>
<stop offset="1" stop-color="#6A81D7"/>
</linearGradient>
<linearGradient id="paint5_linear_1184_2380" x1="353.485" y1="403.495" x2="353.485" y2="236.324" gradientUnits="userSpaceOnUse">
<stop stop-color="#7652BE"/>
<stop offset="1" stop-color="#25125C"/>
</linearGradient>
<linearGradient id="paint6_linear_1184_2380" x1="220.777" y1="409.199" x2="220.777" y2="232.274" gradientUnits="userSpaceOnUse">
<stop stop-color="#6843B4"/>
<stop offset="1" stop-color="#25115F"/>
</linearGradient>
<linearGradient id="paint7_linear_1184_2380" x1="262.749" y1="237.043" x2="159.059" y2="280.989" gradientUnits="userSpaceOnUse">
<stop stop-color="#9A6AD7"/>
<stop offset="1" stop-color="#9A6AD7" stop-opacity="0"/>
</linearGradient>
<linearGradient id="paint8_linear_1184_2380" x1="426.418" y1="238.194" x2="305.634" y2="285.09" gradientUnits="userSpaceOnUse">
<stop stop-color="#9A6AD7"/>
<stop offset="1" stop-color="#9A6AD7" stop-opacity="0"/>
</linearGradient>
<linearGradient id="paint9_linear_1184_2380" x1="87.3893" y1="293.946" x2="27.0222" y2="311.406" gradientUnits="userSpaceOnUse">
<stop stop-color="#9A6AD7"/>
<stop offset="1" stop-color="#9A6AD7" stop-opacity="0"/>
</linearGradient>
<linearGradient id="paint10_linear_1184_2380" x1="176.266" y1="273.312" x2="118.609" y2="292.129" gradientUnits="userSpaceOnUse">
<stop stop-color="#9A6AD7"/>
<stop offset="1" stop-color="#9A6AD7" stop-opacity="0"/>
</linearGradient>
<linearGradient id="paint11_linear_1184_2380" x1="365.689" y1="299.732" x2="319.048" y2="348.368" gradientUnits="userSpaceOnUse">
<stop stop-color="#9A6AD7"/>
<stop offset="1" stop-color="#9A6AD7" stop-opacity="0"/>
</linearGradient>
<linearGradient id="paint12_linear_1184_2380" x1="71.3634" y1="202.104" x2="71.3634" y2="25.0206" gradientUnits="userSpaceOnUse">
<stop stop-color="#724EBC"/>
<stop offset="1" stop-color="#25125C"/>
</linearGradient>
<linearGradient id="paint13_linear_1184_2380" x1="154.953" y1="82.3322" x2="83.4169" y2="125.696" gradientUnits="userSpaceOnUse">
<stop stop-color="#9A6AD7"/>
<stop offset="1" stop-color="#9A6AD7" stop-opacity="0"/>
</linearGradient>
<linearGradient id="paint14_linear_1184_2380" x1="104.669" y1="28.8909" x2="6.65125" y2="80.3447" gradientUnits="userSpaceOnUse">
<stop stop-color="#9A6AD7"/>
<stop offset="1" stop-color="#9A6AD7" stop-opacity="0"/>
</linearGradient>
<linearGradient id="paint15_linear_1184_2380" x1="134.419" y1="59.4938" x2="97.486" y2="90.4825" gradientUnits="userSpaceOnUse">
<stop stop-color="#9A6AD7"/>
<stop offset="1" stop-color="#9A6AD7" stop-opacity="0"/>
</linearGradient>
<linearGradient id="paint16_linear_1184_2380" x1="97.431" y1="201.229" x2="97.431" y2="87.6591" gradientUnits="userSpaceOnUse">
<stop stop-color="#7652BE"/>
<stop offset="1" stop-color="#25125C"/>
</linearGradient>
<linearGradient id="paint17_linear_1184_2380" x1="43.7655" y1="106.578" x2="-27.7706" y2="149.942" gradientUnits="userSpaceOnUse">
<stop stop-color="#9A6AD7"/>
<stop offset="1" stop-color="#9A6AD7" stop-opacity="0"/>
</linearGradient>
<linearGradient id="paint18_linear_1184_2380" x1="-13.7596" y1="225.479" x2="-13.7596" y2="111.909" gradientUnits="userSpaceOnUse">
<stop stop-color="#7652BE"/>
<stop offset="1" stop-color="#25125C"/>
</linearGradient>
<linearGradient id="paint19_linear_1184_2380" x1="56.2539" y1="131.879" x2="69.4494" y2="141.643" gradientUnits="userSpaceOnUse">
<stop stop-color="#9A6AD7"/>
<stop offset="1" stop-color="#9A6AD7" stop-opacity="0"/>
</linearGradient>
<linearGradient id="paint20_linear_1184_2380" x1="51.2646" y1="234.275" x2="51.2646" y2="87.5294" gradientUnits="userSpaceOnUse">
<stop stop-color="#0D041F"/>
<stop offset="1" stop-color="#000027"/>
</linearGradient>
<radialGradient id="paint21_radial_1184_2380" cx="0" cy="0" r="1" gradientUnits="userSpaceOnUse" gradientTransform="translate(152.852 211.507) scale(13.6029 24.998)">
<stop stop-color="#07FFFF"/>
<stop offset="1" stop-color="#5174FF"/>
</radialGradient>
<radialGradient id="paint22_radial_1184_2380" cx="0" cy="0" r="1" gradientUnits="userSpaceOnUse" gradientTransform="translate(130.029 215.756) scale(5.86858 10.7846)">
<stop stop-color="#07FFFF"/>
<stop offset="1" stop-color="#5174FF"/>
</radialGradient>
<linearGradient id="paint23_linear_1184_2380" x1="152.293" y1="218.464" x2="152.293" y2="213.177" gradientUnits="userSpaceOnUse">
<stop stop-color="#C77CBD"/>
<stop offset="1" stop-color="#974577"/>
</linearGradient>
<linearGradient id="paint24_linear_1184_2380" x1="129.058" y1="218.465" x2="129.058" y2="214.941" gradientUnits="userSpaceOnUse">
<stop stop-color="#C77CBD"/>
<stop offset="1" stop-color="#974577"/>
</linearGradient>
<radialGradient id="paint25_radial_1184_2380" cx="0" cy="0" r="1" gradientUnits="userSpaceOnUse" gradientTransform="translate(149.14 194.5) rotate(74.5418) scale(29.4019 25.3662)">
<stop offset="0.00540541" stop-color="#474DFF"/>
<stop offset="1" stop-color="#474DFF" stop-opacity="0"/>
</radialGradient>
</defs>
</svg>
