<svg width="2220" height="600" viewBox="0 0 2220 600" fill="none" xmlns="http://www.w3.org/2000/svg">
<path d="M1793.98 100.08C1793.98 100.08 1924.23 -8.21046 1938.3 0.734073L2034.45 182.051L2108.33 231.944L2142.83 300.903L2146.84 300.56L2146.89 398.141L2146.84 560L1889.23 572.89L1693.51 582.202L1421.59 589.603L1793.98 100.08Z" fill="url(#paint0_linear_1192_2524)"/>
<path d="M2034.45 182.051L1963.23 266.767V276.986L1897.99 344.033L1889.25 360.133L1854.71 418.04L1903.01 347.562C1903.01 347.562 1981.42 323.889 1985.82 319.405C1990.21 314.92 1990.83 309.627 1990.83 309.627V300.56L1989.58 257.577L2039.14 208.664H2047.12L2108.33 231.944C2108.33 231.944 2101.88 223.833 2034.45 182.051Z" fill="url(#paint1_linear_1192_2524)"/>
<path d="M1610.11 348.298L1774.18 182.052L1816.44 109.687L1874.99 56.0197H1884.7L1871.64 68.8116L1884.7 65.2828L1861.17 117.333L1897.59 58.5193L1900.94 27.1277L1934.27 0C1934.27 0 1895.29 11.6646 1793.98 100.081L1610.11 348.298Z" fill="url(#paint2_linear_1192_2524)"/>
<path d="M1913.47 147.156L1961.58 143.039L2022.74 174.137L1965.74 132.012L1956.12 129.659L1955.29 124.366L1931.75 110.839L1880.06 147.156L1859.57 194.06L1861.49 220.526V195.31L1878.55 175.754L1913.47 147.156Z" fill="url(#paint3_linear_1192_2524)"/>
<path d="M1428.75 445.78L1421.59 463.742L1423.43 478.127L1387.29 549.34V543.998L1415.59 476.804L1414.34 461.806L1417.91 441.05L1428.75 445.78Z" fill="url(#paint4_linear_1192_2524)"/>
<path d="M1609.52 569.045L1625.43 569.461L1738.69 494.229L1744.93 508.173L1774.18 531.6L1795.55 566.3L1776.92 523.023L1792.72 489.99L1827.31 531.6L1809.7 499.67L1854.71 418.042L1903.01 347.564L1985.81 319.407L1990.83 309.629L1989.58 257.579L2039.13 208.666L2108.33 231.946L2142.83 300.905L2036.89 468.744L1889.24 572.917L1623.47 586.664L1609.52 569.045Z" fill="url(#paint5_linear_1192_2524)"/>
<path d="M921.952 376.366L998.498 330.957H1037.5L1056.44 375.827L1116.41 486.715L1240.76 400.038L1265.83 323.238L1345.6 285.475L1402.3 200L1435.79 228.352L1500.57 323.066L1675.74 508.304L1733.65 401.411L1783.47 363.672L1828.48 235.827L1861.4 200L1900.12 244.6L1915.01 281.309L2006.32 348.111L2081.77 451.034L2148.92 501.982L2220 600H820.836" fill="url(#paint6_linear_1192_2524)"/>
<path d="M1403.7 199.527V308.381L1426.62 440.417L1465.18 486.242L1450.2 423.238L1449.11 322.594L1580.71 423.238L1646.11 475.509L1501.79 322.594L1437.15 227.88L1403.7 199.527Z" fill="url(#paint7_linear_1192_2524)"/>
<path d="M1908.79 274.343L1937.77 327.275L1985.33 363.2L2104.54 555.176L2081.87 450.562L2006.57 347.639L1915.43 280.837L1900.56 244.127L1861.92 199.527L1829.08 235.354L1908.79 274.343Z" fill="url(#paint8_linear_1192_2524)"/>
<path d="M1037.13 330.489L1015.89 374.893L1026.51 423.242L1044.87 408.809L1116.32 486.5L1056.04 375.053L1037.13 330.489Z" fill="url(#paint9_linear_1192_2524)"/>
<path d="M1265.48 322.766L1360.21 415.985C1360.21 415.985 1392.34 480.631 1391.91 479.185C1391.5 477.739 1362.14 407.506 1362.14 407.506L1295.1 321.393L1345.25 285.003L1265.48 322.766Z" fill="url(#paint10_linear_1192_2524)"/>
<path d="M1732.96 401.192L1825.27 441.308L1895.67 420.061L1925.9 348.554L1885.93 410.602H1825.27L1774.62 371.516L1732.96 401.192Z" fill="url(#paint11_linear_1192_2524)"/>
<path d="M379.741 149.508C379.741 149.508 280.176 75.94 269.426 82.0166L195.928 205.197L139.452 239.092L113.078 285.941L101.484 300.326L82.9869 315.791L66.9895 373.661L52.9917 381.643L23.9962 433.028L0 470.719H306.935L456.543 477.045L664.399 482.073L379.741 149.508Z" fill="url(#paint12_linear_1192_2524)"/>
<path d="M195.927 205.197L250.365 262.75V269.692L300.234 315.242L306.921 326.18L333.321 365.519L296.398 317.639C296.398 317.639 236.459 301.557 233.102 298.51C229.746 295.464 229.266 291.868 229.266 291.868V285.708L230.225 256.507L192.344 223.277H186.243L139.451 239.093C139.451 239.093 144.379 233.582 195.927 205.197Z" fill="url(#paint13_linear_1192_2524)"/>
<path d="M520.293 318.138L394.873 205.197L362.573 156.034L317.818 119.575H310.399L320.375 128.265L310.399 125.868L328.381 161.229L300.542 121.273L297.985 99.9467L272.504 81.5171C272.504 81.5171 302.3 89.4416 379.742 149.508L520.293 318.138Z" fill="url(#paint14_linear_1192_2524)"/>
<path d="M288.407 181.493L251.631 178.696L204.878 199.822L248.447 171.204L255.8 169.606L256.439 166.01L274.434 156.82L313.941 181.493L329.605 213.357L328.14 231.337V214.206L315.099 200.921L288.407 181.493Z" fill="url(#paint15_linear_1192_2524)"/>
<path d="M520.747 468.104L508.586 468.387L422.007 417.277L417.238 426.75L394.874 442.666L378.544 466.24L392.783 436.839L380.702 414.397L354.262 442.666L367.728 420.973L333.323 365.518L296.401 317.638L233.105 298.509L229.269 291.867L230.228 256.506L192.346 223.276L139.453 239.092L113.08 285.94L194.065 399.963L306.923 470.735L510.077 480.074L520.747 468.104Z" fill="url(#paint16_linear_1192_2524)"/>
<path d="M504.632 260.011L559.07 317.564V324.507L608.939 370.056L615.626 380.994L642.026 420.334L605.103 372.453C605.103 372.453 560.554 348.791 557.197 345.745C553.841 342.698 553.361 339.102 553.361 339.102V332.942L538.93 311.321L501.049 278.091H494.948L448.156 293.907C448.156 293.907 453.084 288.397 504.632 260.011Z" fill="url(#paint17_linear_1192_2524)"/>
<path d="M829.446 522.919L817.285 523.202L730.706 472.092L725.938 481.565L703.574 497.48L687.244 521.054L701.483 491.653L689.402 469.212L662.962 497.48L676.428 475.788L642.023 420.332L605.1 372.452L559.532 339.738L555.696 333.095L538.927 311.32L501.046 278.09L448.153 293.906L421.78 340.754L376.808 497.48L615.623 525.549L818.777 534.889L829.446 522.919Z" fill="url(#paint18_linear_1192_2524)"/>
<path d="M437.579 350.666L453.237 396.509C453.237 396.509 493.301 405.767 492.581 405.343C491.87 404.906 456.761 389.315 456.761 389.315L447.766 341.53L432.276 323.259L424.081 337.497L437.579 350.666Z" fill="url(#paint19_linear_1192_2524)"/>
<path fill-rule="evenodd" clip-rule="evenodd" d="M146.51 434.741C146.51 434.741 174.572 356.637 175.671 344.65C176.792 332.694 181.143 268.184 181.143 268.184C181.143 268.184 207.623 268.771 218.72 278.472C229.84 288.173 235.334 314.96 235.334 314.96C235.334 314.96 245.157 360.53 243.157 364.577C241.179 368.625 235.334 374.217 235.334 374.217C235.334 374.217 248.673 443.391 251.046 455.966C253.398 468.54 291.063 501.32 291.063 501.32C291.063 501.32 324.466 479.477 327.806 466.965C331.146 454.452 329.278 451.362 329.278 451.362C329.278 451.362 325.806 435.42 325.806 429.767C325.806 424.113 376.217 426.183 376.217 426.183C376.217 426.183 407.752 444.257 411.07 456.831C414.41 469.405 406.631 475.337 406.631 475.337C406.631 475.337 451.417 470.023 462.339 475.337L474.095 488.838L543.23 500.393C543.23 500.393 548.46 461.898 554.877 458.036C562.656 453.34 616.496 501.351 616.496 501.351C616.496 501.351 643.525 560.268 651.656 564.965C659.787 569.661 682.312 573.152 691.036 569.661C699.76 566.139 725.581 554.429 735.58 560.299C745.579 566.139 790.54 600 790.54 600H67.9893L90.3747 524.383L100.706 508.4C100.706 508.4 106.905 474.714 111.038 466.263C115.171 457.813 146.51 434.741 146.51 434.741Z" fill="url(#paint20_linear_1192_2524)"/>
<path fill-rule="evenodd" clip-rule="evenodd" d="M181.144 268.214C181.144 268.214 188.439 308.193 194.263 327.688C200.086 347.183 207.162 353.022 207.162 353.022L218.721 348.913C218.721 348.913 225.907 362.105 228.83 364.577C231.753 367.048 243.158 364.577 243.158 364.577C243.158 364.577 241.312 330.746 236.324 305.597L232.983 295.649C232.983 295.649 221.93 276.927 218.721 271.365C215.513 265.804 181.144 268.214 181.144 268.214Z" fill="#24114A"/>
<path fill-rule="evenodd" clip-rule="evenodd" d="M251.05 455.962L237.58 450.772C237.58 450.772 240.634 474.19 244.304 478.856C247.974 483.552 255.05 493.5 255.05 493.5V487.661C255.05 487.661 260.873 492.944 266.301 497.609C271.707 502.305 284.563 505.796 284.563 505.796H295.463L291.067 501.316C291.067 501.316 254.94 461.153 251.05 455.962Z" fill="#24114A"/>
<path fill-rule="evenodd" clip-rule="evenodd" d="M125.849 451.247L114.03 462.216C114.03 462.216 122.388 479.693 126.997 482.221C131.614 484.778 140.741 490.543 140.741 490.543L145.729 492.274C145.729 492.274 151.525 495.18 155.59 489.229C162.613 483.039 156.55 473.691 156.55 473.691C156.55 473.691 153.4 467.715 150.645 463.841C147.89 459.966 141.691 454.638 141.691 454.638C141.691 454.638 134.185 449.531 125.849 451.247Z" fill="#24114A"/>
<path fill-rule="evenodd" clip-rule="evenodd" d="M411.796 460.599V460.846C407.796 466.84 394.545 467.736 394.545 467.736L381.646 464.801L367.076 467.736C367.076 467.736 341.673 455.44 337.519 450.774C334.025 446.851 328.158 434.771 326.334 430.94C325.982 430.198 325.785 429.766 325.785 429.766C333.234 419.848 378.218 427.356 378.218 427.356C401.534 437.119 408.676 448.797 410.829 455.47C410.851 455.532 410.873 455.563 410.873 455.563C411.708 458.127 411.796 459.95 411.796 460.599Z" fill="#24114A"/>
<path fill-rule="evenodd" clip-rule="evenodd" d="M406.63 475.333L383.314 491.769C383.314 491.769 411.97 490.008 421.573 488.834C431.199 487.66 435.77 483.551 435.77 483.551L445.351 478.299L462.316 475.333C462.316 475.333 434.934 465.91 406.63 475.333Z" fill="#24114A"/>
<path fill-rule="evenodd" clip-rule="evenodd" d="M474.907 491.741L462.315 495.263L433.682 502.277C433.682 502.277 470.666 518.095 484.445 521.586L494.465 516.303C494.465 516.303 513.628 523.316 538.174 527.425C562.743 531.534 593.134 527.425 593.134 527.425C593.134 527.425 565.028 503.976 543.185 500.33C543.207 500.361 492.817 489.98 474.907 491.741Z" fill="#24114A"/>
<path fill-rule="evenodd" clip-rule="evenodd" d="M554.853 458.004C554.853 458.004 550.831 473.513 552.436 481.453C554.018 489.424 575.268 511.082 589.42 514.573C603.572 518.095 616.494 501.319 616.494 501.319C616.494 501.319 574.015 457.015 554.853 458.004Z" fill="#24114A"/>
<path fill-rule="evenodd" clip-rule="evenodd" d="M691.036 569.596C691.036 569.596 697.255 576.732 724.746 588.318C752.237 599.935 779.047 591.346 779.047 591.346C779.047 591.346 745.271 557.67 731.514 558.875C717.78 560.08 691.036 569.596 691.036 569.596Z" fill="#24114A"/>
<path fill-rule="evenodd" clip-rule="evenodd" d="M550.656 571.947C550.656 571.947 577.334 566.108 593.157 571.947C608.979 577.786 651.633 588.352 651.633 588.352C651.633 588.352 548.041 594.191 517.715 588.352C517.737 588.352 535.625 574.109 550.656 571.947Z" fill="#24114A"/>
<path fill-rule="evenodd" clip-rule="evenodd" d="M742.703 515.152L736.326 464.374L748.492 455.157L778.215 457.745L798.453 496.827L802.893 512.577L742.703 515.152Z" fill="url(#paint21_radial_1192_2524)"/>
<path opacity="0.7" fill-rule="evenodd" clip-rule="evenodd" d="M736.326 464.374L767.592 470.057L779.215 463.836L778.215 457.745L748.492 455.157L736.326 464.374Z" fill="white"/>
<path fill-rule="evenodd" clip-rule="evenodd" d="M767.592 470.057L772.096 513.991L742.703 515.153L736.326 464.375L767.592 470.057Z" fill="white"/>
<path fill-rule="evenodd" clip-rule="evenodd" d="M763.646 469.342L769.904 468.823L767.804 472.157L763.646 469.342Z" fill="white"/>
<path fill-rule="evenodd" clip-rule="evenodd" d="M694.242 517.957L699.252 494.423L703.783 491.323L716.631 494.423L722.327 516.335L694.242 517.957Z" fill="url(#paint22_radial_1192_2524)"/>
<path opacity="0.7" fill-rule="evenodd" clip-rule="evenodd" d="M699.253 494.423L707.201 506.099L715.08 507.604L716.631 494.423L703.784 491.323L699.253 494.423Z" fill="white"/>
<path fill-rule="evenodd" clip-rule="evenodd" d="M707.2 506.099V517.139L694.242 517.957L699.252 494.423L707.2 506.099Z" fill="white"/>
<path fill-rule="evenodd" clip-rule="evenodd" d="M705.916 504.213L709.255 506.497L707.201 508.774L705.916 504.213Z" fill="white"/>
<path opacity="0.5" fill-rule="evenodd" clip-rule="evenodd" d="M742.703 515.154L763.646 523.833L798.725 520.084L802.892 512.579L742.703 515.154Z" fill="url(#paint23_linear_1192_2524)"/>
<path opacity="0.5" fill-rule="evenodd" clip-rule="evenodd" d="M694.242 517.955L700.721 523.832L718.422 521.951L722.327 516.334L694.242 517.955Z" fill="url(#paint24_linear_1192_2524)"/>
<path opacity="0.5" fill-rule="evenodd" clip-rule="evenodd" d="M783.939 558.803C748.248 577.212 709.549 554.554 697.494 508.194C685.443 461.834 704.604 409.324 740.295 390.908C775.987 372.499 814.686 395.157 826.741 441.517C838.787 487.884 819.627 540.387 783.939 558.803Z" fill="url(#paint25_radial_1192_2524)"/>
<g filter="url(#filter0_d_1192_2524)">
<path fill-rule="evenodd" clip-rule="evenodd" d="M779.278 60.0993C781.832 60.2134 783.818 62.3045 783.696 64.6997C783.575 67.095 781.345 68.958 778.792 68.8439C776.238 68.7298 774.252 66.6387 774.373 64.2435C774.536 61.8102 776.724 59.9852 779.278 60.0993Z" fill="white"/>
<path fill-rule="evenodd" clip-rule="evenodd" d="M744.413 205.943C746.237 206.019 747.615 207.501 747.534 209.212C747.453 210.923 745.872 212.216 744.048 212.14C742.224 212.064 740.846 210.581 740.927 208.908C741.008 207.159 742.589 205.867 744.413 205.943Z" fill="white"/>
<path fill-rule="evenodd" clip-rule="evenodd" d="M704.451 227.311C705.789 227.387 706.803 228.451 706.722 229.706C706.64 230.961 705.505 231.911 704.167 231.835C702.83 231.759 701.816 230.694 701.897 229.44C701.978 228.185 703.113 227.235 704.451 227.311Z" fill="white"/>
<path fill-rule="evenodd" clip-rule="evenodd" d="M760.471 132.679C761.322 132.717 761.971 133.402 761.93 134.2C761.89 134.998 761.16 135.607 760.308 135.569C759.457 135.531 758.808 134.846 758.849 134.048C758.89 133.249 759.619 132.641 760.471 132.679Z" fill="white"/>
<path fill-rule="evenodd" clip-rule="evenodd" d="M742.307 215.566C743.158 215.604 743.807 216.289 743.766 217.087C743.725 217.885 742.996 218.494 742.144 218.456C741.293 218.418 740.644 217.733 740.685 216.935C740.725 216.136 741.455 215.528 742.307 215.566Z" fill="white"/>
<path fill-rule="evenodd" clip-rule="evenodd" d="M778.787 215.942C779.638 215.98 780.287 216.665 780.247 217.463C780.206 218.262 779.476 218.87 778.625 218.832C777.773 218.794 777.125 218.109 777.165 217.311C777.165 216.513 777.895 215.904 778.787 215.942Z" fill="white"/>
<path fill-rule="evenodd" clip-rule="evenodd" d="M770.518 196.816C771.369 196.854 772.018 197.539 771.977 198.337C771.937 199.135 771.207 199.744 770.356 199.706C769.504 199.668 768.856 198.983 768.896 198.185C768.937 197.386 769.667 196.778 770.518 196.816Z" fill="white"/>
<path fill-rule="evenodd" clip-rule="evenodd" d="M746.077 190.205C746.523 190.243 746.847 190.585 746.807 190.966C746.766 191.384 746.401 191.688 745.996 191.65C745.55 191.612 745.226 191.27 745.266 190.889C745.266 190.471 745.631 190.167 746.077 190.205Z" fill="white"/>
<path fill-rule="evenodd" clip-rule="evenodd" d="M729.989 280.196C730.435 280.234 730.759 280.576 730.718 280.956C730.678 281.336 730.313 281.678 729.907 281.64C729.462 281.602 729.137 281.26 729.178 280.88C729.178 280.5 729.543 280.196 729.989 280.196Z" fill="white"/>
<path fill-rule="evenodd" clip-rule="evenodd" d="M758.118 201.724C758.564 201.762 758.888 202.105 758.848 202.485C758.807 202.903 758.442 203.207 758.037 203.169C757.591 203.131 757.267 202.789 757.307 202.409C757.307 202.029 757.672 201.724 758.118 201.724Z" fill="white"/>
<path fill-rule="evenodd" clip-rule="evenodd" d="M733.265 194.957C734.116 194.995 734.765 195.679 734.725 196.478C734.684 197.276 733.954 197.885 733.103 197.847C732.252 197.809 731.603 197.124 731.643 196.326C731.684 195.527 732.414 194.919 733.265 194.957Z" fill="white"/>
<path fill-rule="evenodd" clip-rule="evenodd" d="M1290.34 354.374C1292.89 354.488 1294.88 356.579 1294.76 358.974C1294.63 361.37 1292.4 363.233 1289.85 363.119C1287.3 363.004 1285.31 360.913 1285.43 358.518C1285.59 356.085 1287.78 354.26 1290.34 354.374Z" fill="white"/>
<path fill-rule="evenodd" clip-rule="evenodd" d="M1256.25 421.478C1258.07 421.554 1259.45 423.037 1259.37 424.748C1259.29 426.459 1257.71 427.752 1255.88 427.676C1254.06 427.599 1252.68 426.117 1252.76 424.406C1252.88 422.695 1254.43 421.364 1256.25 421.478Z" fill="white"/>
<path fill-rule="evenodd" clip-rule="evenodd" d="M1216.32 442.809C1217.66 442.885 1218.67 443.95 1218.59 445.205C1218.51 446.459 1217.38 447.41 1216.04 447.334C1214.7 447.258 1213.69 446.193 1213.77 444.939C1213.85 443.722 1214.98 442.771 1216.32 442.809Z" fill="white"/>
<path fill-rule="evenodd" clip-rule="evenodd" d="M1272.34 348.217C1273.19 348.255 1273.84 348.939 1273.8 349.738C1273.76 350.536 1273.03 351.144 1272.17 351.106C1271.32 351.068 1270.67 350.384 1270.71 349.585C1270.76 348.787 1271.49 348.179 1272.34 348.217Z" fill="white"/>
<path fill-rule="evenodd" clip-rule="evenodd" d="M1254.14 431.093C1254.99 431.131 1255.64 431.815 1255.6 432.613C1255.56 433.412 1254.83 434.02 1253.97 433.982C1253.12 433.944 1252.47 433.26 1252.52 432.461C1252.56 431.663 1253.29 431.054 1254.14 431.093Z" fill="white"/>
<path fill-rule="evenodd" clip-rule="evenodd" d="M1290.63 431.441C1291.48 431.479 1292.13 432.164 1292.09 432.962C1292.05 433.761 1291.32 434.369 1290.47 434.331C1289.62 434.293 1288.97 433.608 1289.01 432.81C1289.05 432.05 1289.78 431.403 1290.63 431.441Z" fill="white"/>
<path fill-rule="evenodd" clip-rule="evenodd" d="M1282.4 412.353C1283.25 412.391 1283.9 413.075 1283.85 413.873C1283.81 414.672 1283.08 415.28 1282.23 415.242C1281.38 415.204 1280.73 414.52 1280.77 413.721C1280.77 412.923 1281.54 412.276 1282.4 412.353Z" fill="white"/>
<path fill-rule="evenodd" clip-rule="evenodd" d="M1257.92 405.704C1258.36 405.742 1258.69 406.084 1258.65 406.464C1258.61 406.882 1258.24 407.187 1257.84 407.149C1257.39 407.111 1257.07 406.768 1257.11 406.388C1257.15 406.008 1257.51 405.666 1257.92 405.704Z" fill="white"/>
<path fill-rule="evenodd" clip-rule="evenodd" d="M1269.95 417.257C1270.39 417.295 1270.72 417.637 1270.68 418.017C1270.64 418.435 1270.27 418.739 1269.87 418.701C1269.42 418.663 1269.1 418.321 1269.14 417.941C1269.18 417.523 1269.54 417.219 1269.95 417.257Z" fill="white"/>
<path fill-rule="evenodd" clip-rule="evenodd" d="M1245.15 410.49C1246 410.528 1246.65 411.213 1246.61 412.011C1246.57 412.81 1245.84 413.418 1244.99 413.38C1244.13 413.342 1243.49 412.658 1243.53 411.859C1243.53 411.061 1244.3 410.414 1245.15 410.49Z" fill="white"/>
<path fill-rule="evenodd" clip-rule="evenodd" d="M727.92 261.682C728.772 261.72 729.42 262.404 729.38 263.203C729.339 264.001 728.61 264.61 727.758 264.572C726.907 264.534 726.258 263.849 726.299 263.051C726.339 262.252 727.069 261.606 727.92 261.682Z" fill="white"/>
<path fill-rule="evenodd" clip-rule="evenodd" d="M653.414 277.119C654.266 277.157 654.914 277.841 654.874 278.64C654.833 279.438 654.104 280.046 653.252 280.008C652.401 279.97 651.752 279.286 651.793 278.488C651.833 277.689 652.563 277.081 653.414 277.119Z" fill="white"/>
<path fill-rule="evenodd" clip-rule="evenodd" d="M838.866 321.067C841.419 321.181 843.405 323.272 843.284 325.667C843.162 328.063 840.933 329.926 838.379 329.812C835.825 329.698 833.839 327.607 833.961 325.211C834.082 322.778 836.271 320.953 838.866 321.067Z" fill="white"/>
<path fill-rule="evenodd" clip-rule="evenodd" d="M1342.51 372.812C1345.07 372.926 1347.05 375.017 1346.93 377.412C1346.81 379.808 1344.58 381.671 1342.03 381.557C1339.47 381.442 1337.49 379.351 1337.61 376.956C1337.77 374.523 1339.96 372.66 1342.51 372.812Z" fill="white"/>
<path fill-rule="evenodd" clip-rule="evenodd" d="M952.162 344.604C954.716 344.718 956.702 346.809 956.58 349.204C956.459 351.599 954.229 353.462 951.676 353.348C949.122 353.234 947.136 351.143 947.257 348.748C947.379 346.353 949.608 344.49 952.162 344.604Z" fill="white"/>
<path fill-rule="evenodd" clip-rule="evenodd" d="M1274.04 398.552C1276.6 398.666 1278.58 400.758 1278.46 403.153C1278.34 405.548 1276.11 407.411 1273.56 407.297C1271 407.183 1269.02 405.092 1269.14 402.697C1269.3 400.301 1271.49 398.438 1274.04 398.552Z" fill="white"/>
<path fill-rule="evenodd" clip-rule="evenodd" d="M750.582 321.029C753.136 321.143 755.122 323.234 755 325.629C754.879 328.024 752.649 329.887 750.095 329.773C747.542 329.659 745.556 327.568 745.677 325.173C745.839 322.74 748.028 320.915 750.582 321.029Z" fill="white"/>
<path fill-rule="evenodd" clip-rule="evenodd" d="M724.189 361.486C726.743 361.6 728.729 363.691 728.608 366.087C728.486 368.482 726.257 370.345 723.703 370.231C721.149 370.117 719.163 368.026 719.285 365.63C719.406 363.197 721.636 361.372 724.189 361.486Z" fill="white"/>
<path fill-rule="evenodd" clip-rule="evenodd" d="M861.194 265.142C863.018 265.218 864.396 266.701 864.315 268.412C864.234 270.123 862.653 271.415 860.829 271.339C859.005 271.263 857.627 269.781 857.708 268.07C857.789 266.359 859.37 265.066 861.194 265.142Z" fill="white"/>
<path fill-rule="evenodd" clip-rule="evenodd" d="M1047.49 339.62C1049.31 339.696 1050.69 341.179 1050.61 342.89C1050.53 344.601 1048.95 345.894 1047.12 345.818C1045.3 345.742 1043.92 344.259 1044 342.548C1044.12 340.837 1045.66 339.544 1047.49 339.62Z" fill="white"/>
<path fill-rule="evenodd" clip-rule="evenodd" d="M1010.81 337.264C1012.63 337.34 1014.01 338.823 1013.93 340.534C1013.85 342.245 1012.27 343.538 1010.44 343.462C1008.62 343.386 1007.24 341.903 1007.32 340.192C1007.4 338.481 1008.98 337.188 1010.81 337.264Z" fill="white"/>
<path fill-rule="evenodd" clip-rule="evenodd" d="M804.777 388.135C806.602 388.211 807.98 389.694 807.899 391.405C807.818 393.116 806.237 394.408 804.413 394.332C802.589 394.256 801.21 392.773 801.291 391.062C801.413 389.39 802.953 388.059 804.777 388.135Z" fill="white"/>
<path fill-rule="evenodd" clip-rule="evenodd" d="M766.139 230.96C767.963 231.036 769.341 232.519 769.26 234.23C769.179 235.941 767.598 237.233 765.774 237.157C763.95 237.081 762.572 235.599 762.653 233.926C762.774 232.177 764.315 230.846 766.139 230.96Z" fill="white"/>
<path fill-rule="evenodd" clip-rule="evenodd" d="M726.498 349.205C727.836 349.281 728.849 350.346 728.768 351.6C728.687 352.855 727.552 353.806 726.214 353.73C724.876 353.654 723.863 352.589 723.944 351.334C724.025 350.08 725.16 349.129 726.498 349.205Z" fill="white"/>
<path fill-rule="evenodd" clip-rule="evenodd" d="M566.47 306.888C567.808 306.964 568.821 308.029 568.74 309.284C568.659 310.538 567.524 311.489 566.186 311.413C564.848 311.337 563.835 310.272 563.916 309.017C563.997 307.801 565.132 306.812 566.47 306.888Z" fill="white"/>
<path fill-rule="evenodd" clip-rule="evenodd" d="M820.825 314.912C821.676 314.95 822.325 315.634 822.284 316.432C822.244 317.231 821.514 317.839 820.662 317.801C819.811 317.763 819.162 317.079 819.203 316.28C819.244 315.482 819.973 314.836 820.825 314.912Z" fill="white"/>
<path fill-rule="evenodd" clip-rule="evenodd" d="M802.665 397.791C803.517 397.829 804.165 398.514 804.125 399.312C804.084 400.11 803.355 400.719 802.503 400.681C801.652 400.643 801.003 399.958 801.044 399.16C801.084 398.362 801.814 397.753 802.665 397.791Z" fill="white"/>
<path fill-rule="evenodd" clip-rule="evenodd" d="M735.786 356.238C736.637 356.276 737.286 356.96 737.246 357.759C737.205 358.557 736.475 359.166 735.624 359.128C734.773 359.09 734.124 358.405 734.164 357.607C734.205 356.808 734.935 356.2 735.786 356.238Z" fill="white"/>
<path fill-rule="evenodd" clip-rule="evenodd" d="M839.152 398.132C840.003 398.17 840.652 398.854 840.611 399.652C840.571 400.451 839.841 401.059 838.99 401.021C838.138 400.983 837.49 400.299 837.53 399.5C837.571 398.74 838.3 398.094 839.152 398.132Z" fill="white"/>
<path fill-rule="evenodd" clip-rule="evenodd" d="M830.877 379.051C831.728 379.089 832.377 379.773 832.336 380.572C832.296 381.37 831.566 381.979 830.715 381.941C829.863 381.903 829.215 381.218 829.255 380.42C829.296 379.621 830.026 378.975 830.877 379.051Z" fill="white"/>
<path fill-rule="evenodd" clip-rule="evenodd" d="M721.435 296.962C722.286 297 722.935 297.684 722.894 298.482C722.854 299.281 722.124 299.889 721.273 299.851C720.421 299.813 719.773 299.129 719.813 298.33C719.854 297.532 720.584 296.924 721.435 296.962Z" fill="white"/>
<path fill-rule="evenodd" clip-rule="evenodd" d="M806.435 372.392C806.881 372.43 807.206 372.772 807.165 373.152C807.125 373.57 806.76 373.874 806.354 373.836C805.908 373.798 805.584 373.456 805.625 373.076C805.625 372.696 806.03 372.354 806.435 372.392Z" fill="white"/>
<path fill-rule="evenodd" clip-rule="evenodd" d="M705.707 302.628C706.153 302.666 706.478 303.009 706.437 303.389C706.397 303.807 706.032 304.111 705.626 304.073C705.18 304.035 704.856 303.693 704.896 303.313C704.937 302.895 705.302 302.59 705.707 302.628Z" fill="white"/>
<path fill-rule="evenodd" clip-rule="evenodd" d="M730.55 308.557C730.996 308.595 731.32 308.937 731.28 309.317C731.239 309.735 730.874 310.039 730.469 310.001C730.023 309.963 729.699 309.621 729.739 309.241C729.739 308.861 730.104 308.519 730.55 308.557Z" fill="white"/>
<path fill-rule="evenodd" clip-rule="evenodd" d="M724.836 358.519C725.282 358.557 725.606 358.899 725.565 359.279C725.525 359.697 725.16 360.001 724.755 359.963C724.309 359.925 723.984 359.583 724.025 359.203C724.065 358.823 724.43 358.481 724.836 358.519Z" fill="white"/>
<path fill-rule="evenodd" clip-rule="evenodd" d="M818.47 383.953C818.916 383.991 819.24 384.333 819.2 384.713C819.159 385.131 818.794 385.435 818.389 385.397C817.984 385.359 817.619 385.017 817.659 384.637C817.659 384.219 818.024 383.915 818.47 383.953Z" fill="white"/>
<path fill-rule="evenodd" clip-rule="evenodd" d="M837.894 281.983C839.961 282.097 841.542 283.732 841.421 285.671C841.299 287.61 839.556 289.093 837.489 288.979C835.421 288.865 833.841 287.23 833.962 285.291C834.084 283.352 835.827 281.907 837.894 281.983Z" fill="white"/>
<path fill-rule="evenodd" clip-rule="evenodd" d="M928.488 300.799C930.556 300.913 932.136 302.548 932.015 304.487C931.893 306.426 930.15 307.909 928.083 307.795C926.016 307.681 924.435 306.046 924.556 304.107C924.678 302.206 926.421 300.723 928.488 300.799Z" fill="white"/>
<path fill-rule="evenodd" clip-rule="evenodd" d="M855.764 237.309C857.224 237.385 858.319 238.564 858.237 239.894C858.156 241.263 856.9 242.29 855.481 242.213C854.021 242.137 852.927 240.959 853.008 239.628C853.048 238.259 854.305 237.233 855.764 237.309Z" fill="white"/>
<path fill-rule="evenodd" clip-rule="evenodd" d="M1004.69 296.81C1006.15 296.886 1007.24 298.065 1007.16 299.395C1007.08 300.764 1005.82 301.791 1004.4 301.715C1002.94 301.639 1001.85 300.46 1001.93 299.129C1001.97 297.799 1003.23 296.734 1004.69 296.81Z" fill="white"/>
<path fill-rule="evenodd" clip-rule="evenodd" d="M975.347 294.946C976.806 295.022 977.901 296.2 977.82 297.531C977.739 298.9 976.482 299.926 975.063 299.85C973.604 299.774 972.509 298.596 972.59 297.265C972.671 295.934 973.887 294.87 975.347 294.946Z" fill="white"/>
<path fill-rule="evenodd" clip-rule="evenodd" d="M810.651 335.626C812.111 335.702 813.205 336.88 813.124 338.211C813.043 339.58 811.786 340.606 810.367 340.53C808.908 340.454 807.813 339.275 807.894 337.945C807.935 336.576 809.192 335.55 810.651 335.626Z" fill="white"/>
<path fill-rule="evenodd" clip-rule="evenodd" d="M823.5 277.04C824.189 277.078 824.716 277.611 824.676 278.257C824.635 278.903 824.068 279.398 823.379 279.359C822.689 279.321 822.162 278.789 822.203 278.143C822.203 277.535 822.811 277.04 823.5 277.04Z" fill="white"/>
<path fill-rule="evenodd" clip-rule="evenodd" d="M808.944 343.307C809.633 343.345 810.16 343.878 810.12 344.524C810.079 345.17 809.512 345.664 808.822 345.626C808.133 345.588 807.606 345.056 807.647 344.41C807.687 343.763 808.255 343.269 808.944 343.307Z" fill="white"/>
<path fill-rule="evenodd" clip-rule="evenodd" d="M838.133 343.615C838.822 343.653 839.349 344.185 839.308 344.831C839.268 345.478 838.7 345.972 838.011 345.934C837.322 345.896 836.795 345.364 836.835 344.717C836.835 344.071 837.443 343.577 838.133 343.615Z" fill="white"/>
<path fill-rule="evenodd" clip-rule="evenodd" d="M831.524 328.327C832.213 328.366 832.74 328.898 832.7 329.544C832.659 330.19 832.092 330.685 831.402 330.647C830.713 330.609 830.186 330.076 830.227 329.43C830.267 328.784 830.835 328.289 831.524 328.327Z" fill="white"/>
<path fill-rule="evenodd" clip-rule="evenodd" d="M811.987 323.046C812.312 323.046 812.596 323.35 812.555 323.654C812.555 323.958 812.231 324.224 811.906 324.186C811.582 324.186 811.298 323.882 811.339 323.578C811.339 323.274 811.623 323.008 811.987 323.046Z" fill="white"/>
<path fill-rule="evenodd" clip-rule="evenodd" d="M821.601 332.244C821.926 332.244 822.209 332.548 822.169 332.852C822.169 333.157 821.845 333.423 821.52 333.385C821.196 333.385 820.912 333.081 820.953 332.776C820.953 332.472 821.236 332.244 821.601 332.244Z" fill="white"/>
<path fill-rule="evenodd" clip-rule="evenodd" d="M730.03 347.682C730.476 347.72 730.8 348.063 730.759 348.443C730.719 348.861 730.354 349.165 729.948 349.127C729.503 349.089 729.178 348.747 729.219 348.367C729.259 347.987 729.584 347.682 730.03 347.682Z" fill="white"/>
<path fill-rule="evenodd" clip-rule="evenodd" d="M793.625 377.149C794.476 377.187 795.125 377.871 795.084 378.67C795.044 379.468 794.314 380.077 793.463 380.039C792.611 380.001 791.963 379.316 792.003 378.518C792.044 377.757 792.774 377.111 793.625 377.149Z" fill="white"/>
<path fill-rule="evenodd" clip-rule="evenodd" d="M711.668 326.693C712.519 326.731 713.168 327.416 713.127 328.214C713.087 329.013 712.357 329.621 711.506 329.583C710.654 329.545 710.006 328.86 710.046 328.062C710.087 327.264 710.817 326.655 711.668 326.693Z" fill="white"/>
<path fill-rule="evenodd" clip-rule="evenodd" d="M724.271 342.055C725.123 342.093 725.771 342.777 725.731 343.575C725.69 344.374 724.961 344.982 724.109 344.944C723.258 344.906 722.609 344.222 722.65 343.423C722.69 342.625 723.42 342.017 724.271 342.055Z" fill="white"/>
<path fill-rule="evenodd" clip-rule="evenodd" d="M1387.46 406.193C1390.01 406.307 1392 408.398 1391.88 410.793C1391.75 413.188 1389.52 415.051 1386.97 414.937C1384.42 414.823 1382.43 412.732 1382.55 410.337C1382.67 407.904 1384.9 406.041 1387.46 406.193Z" fill="white"/>
<path fill-rule="evenodd" clip-rule="evenodd" d="M1361.07 446.651C1363.62 446.765 1365.61 448.856 1365.49 451.251C1365.37 453.646 1363.14 455.509 1360.58 455.395C1358.03 455.281 1356.04 453.19 1356.17 450.795C1356.29 448.361 1358.48 446.498 1361.07 446.651Z" fill="white"/>
<path fill-rule="evenodd" clip-rule="evenodd" d="M1363.39 434.366C1364.72 434.442 1365.74 435.506 1365.66 436.761C1365.58 438.016 1364.44 438.966 1363.1 438.89C1361.76 438.814 1360.75 437.75 1360.83 436.495C1360.91 435.24 1362.05 434.29 1363.39 434.366Z" fill="white"/>
<path fill-rule="evenodd" clip-rule="evenodd" d="M1372.66 441.401C1373.51 441.439 1374.16 442.124 1374.12 442.922C1374.08 443.721 1373.35 444.329 1372.5 444.291C1371.65 444.253 1371 443.568 1371.04 442.77C1371.08 441.972 1371.81 441.363 1372.66 441.401Z" fill="white"/>
<path fill-rule="evenodd" clip-rule="evenodd" d="M1367.4 393.723C1367.85 393.761 1368.17 394.103 1368.13 394.484C1368.09 394.902 1367.73 395.206 1367.32 395.168C1366.87 395.13 1366.55 394.788 1366.59 394.408C1366.63 393.989 1367 393.685 1367.4 393.723Z" fill="white"/>
<path fill-rule="evenodd" clip-rule="evenodd" d="M1361.72 443.679C1362.16 443.717 1362.49 444.059 1362.45 444.44C1362.41 444.858 1362.04 445.162 1361.64 445.124C1361.19 445.086 1360.87 444.744 1360.91 444.364C1360.91 443.945 1361.31 443.641 1361.72 443.679Z" fill="white"/>
<path fill-rule="evenodd" clip-rule="evenodd" d="M1366.91 432.848C1367.36 432.886 1367.68 433.229 1367.64 433.609C1367.6 434.027 1367.23 434.331 1366.83 434.293C1366.38 434.255 1366.06 433.913 1366.1 433.533C1366.1 433.153 1366.46 432.848 1366.91 432.848Z" fill="white"/>
<path fill-rule="evenodd" clip-rule="evenodd" d="M1348.55 411.859C1349.4 411.897 1350.05 412.582 1350.01 413.38C1349.97 414.179 1349.24 414.787 1348.39 414.749C1347.54 414.711 1346.89 414.026 1346.93 413.228C1346.97 412.43 1347.7 411.821 1348.55 411.859Z" fill="white"/>
<path fill-rule="evenodd" clip-rule="evenodd" d="M1361.15 427.179C1362 427.217 1362.65 427.902 1362.61 428.7C1362.57 429.499 1361.84 430.107 1360.99 430.069C1360.14 430.031 1359.49 429.346 1359.53 428.548C1359.57 427.788 1360.3 427.141 1361.15 427.179Z" fill="white"/>
<path fill-rule="evenodd" clip-rule="evenodd" d="M709.031 384.981C709.882 385.019 710.531 385.703 710.49 386.502C710.45 387.3 709.72 387.908 708.868 387.87C708.017 387.832 707.368 387.148 707.409 386.35C707.45 385.551 708.179 384.943 709.031 384.981Z" fill="white"/>
</g>
<defs>
<filter id="filter0_d_1192_2524" x="551.911" y="48.0942" width="851.969" height="419.306" filterUnits="userSpaceOnUse" color-interpolation-filters="sRGB">
<feFlood flood-opacity="0" result="BackgroundImageFix"/>
<feColorMatrix in="SourceAlpha" type="matrix" values="0 0 0 0 0 0 0 0 0 0 0 0 0 0 0 0 0 0 127 0" result="hardAlpha"/>
<feOffset/>
<feGaussianBlur stdDeviation="6"/>
<feComposite in2="hardAlpha" operator="out"/>
<feColorMatrix type="matrix" values="0 0 0 0 1 0 0 0 0 1 0 0 0 0 1 0 0 0 1 0"/>
<feBlend mode="normal" in2="BackgroundImageFix" result="effect1_dropShadow_1192_2524"/>
<feBlend mode="normal" in="SourceGraphic" in2="effect1_dropShadow_1192_2524" result="shape"/>
</filter>
<linearGradient id="paint0_linear_1192_2524" x1="1773.89" y1="589.51" x2="1773.89" y2="0.264407" gradientUnits="userSpaceOnUse">
<stop stop-color="#724EBC"/>
<stop offset="1" stop-color="#25125C"/>
</linearGradient>
<linearGradient id="paint1_linear_1192_2524" x1="2077.49" y1="190.955" x2="1830.38" y2="354.458" gradientUnits="userSpaceOnUse">
<stop stop-color="#9A6AD7"/>
<stop offset="1" stop-color="#9A6AD7" stop-opacity="0"/>
</linearGradient>
<linearGradient id="paint2_linear_1192_2524" x1="1894.85" y1="13.1419" x2="1552.98" y2="209.027" gradientUnits="userSpaceOnUse">
<stop stop-color="#9A6AD7"/>
<stop offset="1" stop-color="#9A6AD7" stop-opacity="0"/>
</linearGradient>
<linearGradient id="paint3_linear_1192_2524" x1="2002.9" y1="114.978" x2="1878.58" y2="228.827" gradientUnits="userSpaceOnUse">
<stop stop-color="#9A6AD7"/>
<stop offset="1" stop-color="#9A6AD7" stop-opacity="0"/>
</linearGradient>
<linearGradient id="paint4_linear_1192_2524" x1="1428.09" y1="498.924" x2="1312.47" y2="490.376" gradientUnits="userSpaceOnUse">
<stop stop-color="#006AB2"/>
<stop offset="0.0758" stop-color="#0A6CB5"/>
<stop offset="0.5018" stop-color="#3E77C8"/>
<stop offset="0.8229" stop-color="#5E7ED3"/>
<stop offset="1" stop-color="#6A81D7"/>
</linearGradient>
<linearGradient id="paint5_linear_1192_2524" x1="1868.56" y1="586.605" x2="1868.56" y2="208.702" gradientUnits="userSpaceOnUse">
<stop stop-color="#7652BE"/>
<stop offset="1" stop-color="#25125C"/>
</linearGradient>
<linearGradient id="paint6_linear_1192_2524" x1="1500.11" y1="599.99" x2="1500.11" y2="200.037" gradientUnits="userSpaceOnUse">
<stop stop-color="#6843B4"/>
<stop offset="1" stop-color="#25115F"/>
</linearGradient>
<linearGradient id="paint7_linear_1192_2524" x1="1616.63" y1="210.345" x2="1349.44" y2="349.424" gradientUnits="userSpaceOnUse">
<stop stop-color="#9A6AD7"/>
<stop offset="1" stop-color="#9A6AD7" stop-opacity="0"/>
</linearGradient>
<linearGradient id="paint8_linear_1192_2524" x1="2071.04" y1="212.946" x2="1756.64" y2="362.865" gradientUnits="userSpaceOnUse">
<stop stop-color="#9A6AD7"/>
<stop offset="1" stop-color="#9A6AD7" stop-opacity="0"/>
</linearGradient>
<linearGradient id="paint9_linear_1192_2524" x1="1051.83" y1="370.5" x2="1012.5" y2="440.883" gradientUnits="userSpaceOnUse">
<stop stop-color="#9A6AD7"/>
<stop offset="1" stop-color="#9A6AD7" stop-opacity="0"/>
</linearGradient>
<linearGradient id="paint10_linear_1192_2524" x1="1376.54" y1="292.33" x2="1223.93" y2="353.499" gradientUnits="userSpaceOnUse">
<stop stop-color="#9A6AD7"/>
<stop offset="1" stop-color="#9A6AD7" stop-opacity="0"/>
</linearGradient>
<linearGradient id="paint11_linear_1192_2524" x1="1902.44" y1="352.054" x2="1800.06" y2="483.169" gradientUnits="userSpaceOnUse">
<stop stop-color="#9A6AD7"/>
<stop offset="1" stop-color="#9A6AD7" stop-opacity="0"/>
</linearGradient>
<linearGradient id="paint12_linear_1192_2524" x1="395.102" y1="482.01" x2="395.102" y2="81.6976" gradientUnits="userSpaceOnUse">
<stop stop-color="#724EBC"/>
<stop offset="1" stop-color="#25125C"/>
</linearGradient>
<linearGradient id="paint13_linear_1192_2524" x1="163.028" y1="211.246" x2="337.767" y2="341.335" gradientUnits="userSpaceOnUse">
<stop stop-color="#9A6AD7"/>
<stop offset="1" stop-color="#9A6AD7" stop-opacity="0"/>
</linearGradient>
<linearGradient id="paint14_linear_1192_2524" x1="302.639" y1="90.4452" x2="547.842" y2="248.529" gradientUnits="userSpaceOnUse">
<stop stop-color="#9A6AD7"/>
<stop offset="1" stop-color="#9A6AD7" stop-opacity="0"/>
</linearGradient>
<linearGradient id="paint15_linear_1192_2524" x1="220.047" y1="159.632" x2="304.788" y2="246.956" gradientUnits="userSpaceOnUse">
<stop stop-color="#9A6AD7"/>
<stop offset="1" stop-color="#9A6AD7" stop-opacity="0"/>
</linearGradient>
<linearGradient id="paint16_linear_1192_2524" x1="322.733" y1="480.034" x2="322.733" y2="223.3" gradientUnits="userSpaceOnUse">
<stop stop-color="#7652BE"/>
<stop offset="1" stop-color="#25125C"/>
</linearGradient>
<linearGradient id="paint17_linear_1192_2524" x1="471.733" y1="266.061" x2="646.472" y2="396.15" gradientUnits="userSpaceOnUse">
<stop stop-color="#9A6AD7"/>
<stop offset="1" stop-color="#9A6AD7" stop-opacity="0"/>
</linearGradient>
<linearGradient id="paint18_linear_1192_2524" x1="631.433" y1="534.848" x2="631.433" y2="278.114" gradientUnits="userSpaceOnUse">
<stop stop-color="#7652BE"/>
<stop offset="1" stop-color="#25125C"/>
</linearGradient>
<linearGradient id="paint19_linear_1192_2524" x1="437.047" y1="323.264" x2="405.997" y2="351.482" gradientUnits="userSpaceOnUse">
<stop stop-color="#9A6AD7"/>
<stop offset="1" stop-color="#9A6AD7" stop-opacity="0"/>
</linearGradient>
<linearGradient id="paint20_linear_1192_2524" x1="468.515" y1="599.948" x2="468.515" y2="268.215" gradientUnits="userSpaceOnUse">
<stop stop-color="#0D041F"/>
<stop offset="1" stop-color="#000027"/>
</linearGradient>
<radialGradient id="paint21_radial_1192_2524" cx="0" cy="0" r="1" gradientUnits="userSpaceOnUse" gradientTransform="translate(774.349 509.033) scale(37.7663 53.2005)">
<stop stop-color="#07FFFF"/>
<stop offset="1" stop-color="#5174FF"/>
</radialGradient>
<radialGradient id="paint22_radial_1192_2524" cx="0" cy="0" r="1" gradientUnits="userSpaceOnUse" gradientTransform="translate(710.98 518.069) scale(16.2931 22.9517)">
<stop stop-color="#07FFFF"/>
<stop offset="1" stop-color="#5174FF"/>
</radialGradient>
<linearGradient id="paint23_linear_1192_2524" x1="772.797" y1="523.833" x2="772.797" y2="512.581" gradientUnits="userSpaceOnUse">
<stop stop-color="#C77CBD"/>
<stop offset="1" stop-color="#974577"/>
</linearGradient>
<linearGradient id="paint24_linear_1192_2524" x1="708.285" y1="523.833" x2="708.285" y2="516.333" gradientUnits="userSpaceOnUse">
<stop stop-color="#C77CBD"/>
<stop offset="1" stop-color="#974577"/>
</linearGradient>
<radialGradient id="paint25_radial_1192_2524" cx="0" cy="0" r="1" gradientUnits="userSpaceOnUse" gradientTransform="translate(762.114 474.857) rotate(75.4274) scale(86.7342 70.9314)">
<stop offset="0.00540541" stop-color="#474DFF"/>
<stop offset="1" stop-color="#474DFF" stop-opacity="0"/>
</radialGradient>
</defs>
</svg>
