<svg width="24" height="24" viewBox="0 0 24 24" fill="none" xmlns="http://www.w3.org/2000/svg">
<path d="M19.6549 5.01885C19.6487 5.00697 19.6386 4.99767 19.6262 4.9926C18.1966 4.33667 16.6879 3.86895 15.138 3.60112C15.1239 3.5985 15.1094 3.60039 15.0964 3.60652C15.0835 3.61265 15.0728 3.6227 15.0659 3.63525C14.8604 4.00811 14.674 4.39109 14.5071 4.78275C12.8364 4.52913 11.1369 4.52913 9.46616 4.78275C9.29822 4.3901 9.10875 4.00702 8.89859 3.63525C8.89139 3.62297 8.88065 3.61315 8.86778 3.60706C8.85491 3.60098 8.84051 3.59891 8.82644 3.60112C7.27634 3.86838 5.76758 4.33614 4.33814 4.99264C4.32591 4.99782 4.31558 5.00668 4.30859 5.01799C1.45001 9.28691 0.666931 13.4509 1.05108 17.5633C1.05216 17.5734 1.05526 17.5831 1.06019 17.592C1.06511 17.6008 1.07177 17.6086 1.07977 17.6148C2.7443 18.8473 4.60609 19.788 6.58571 20.3969C6.59965 20.4011 6.61453 20.4009 6.62836 20.3964C6.6422 20.3919 6.65431 20.3832 6.66307 20.3716C7.08825 19.7931 7.46499 19.1804 7.78946 18.54C7.79391 18.5312 7.79646 18.5216 7.79693 18.5117C7.79739 18.5019 7.79576 18.4921 7.79215 18.4829C7.78854 18.4737 7.78303 18.4654 7.77598 18.4585C7.76893 18.4516 7.7605 18.4463 7.75124 18.4429C7.15715 18.2156 6.582 17.9416 6.03119 17.6235C6.02119 17.6176 6.01278 17.6093 6.00673 17.5994C6.00067 17.5895 5.99714 17.5783 5.99645 17.5667C5.99577 17.5551 5.99794 17.5435 6.00279 17.533C6.00764 17.5224 6.01501 17.5133 6.02426 17.5062C6.14016 17.4197 6.25405 17.3304 6.36584 17.2386C6.37565 17.2305 6.38751 17.2253 6.4001 17.2236C6.41269 17.222 6.4255 17.2238 6.43709 17.229C10.0457 18.8759 13.9525 18.8759 17.5183 17.229C17.53 17.2235 17.5429 17.2214 17.5557 17.2229C17.5685 17.2245 17.5805 17.2296 17.5905 17.2377C17.7024 17.33 17.8166 17.4196 17.9329 17.5062C17.9422 17.5132 17.9497 17.5223 17.9546 17.5328C17.9595 17.5433 17.9618 17.5549 17.9612 17.5665C17.9606 17.5781 17.9571 17.5893 17.9512 17.5993C17.9452 17.6092 17.9368 17.6175 17.9269 17.6235C17.3773 17.9443 16.8016 18.2181 16.206 18.4421C16.1967 18.4456 16.1883 18.451 16.1813 18.458C16.1743 18.465 16.1689 18.4734 16.1653 18.4827C16.1618 18.4919 16.1603 18.5018 16.1608 18.5117C16.1613 18.5215 16.164 18.5312 16.1685 18.54C16.4984 19.1769 16.8746 19.7887 17.294 20.3706C17.3025 20.3825 17.3146 20.3915 17.3285 20.3962C17.3423 20.4009 17.3574 20.4011 17.3714 20.3968C19.3545 19.79 21.2196 18.8492 22.8862 17.6148C22.8943 17.6089 22.9011 17.6013 22.906 17.5926C22.911 17.5838 22.914 17.5741 22.9149 17.5641C23.3748 12.8098 22.1449 8.67993 19.6549 5.01885ZM8.32837 15.0592C7.24192 15.0592 6.34672 14.0622 6.34672 12.8378C6.34672 11.6133 7.22456 10.6162 8.32837 10.6162C9.44081 10.6162 10.3273 11.622 10.31 12.8377C10.31 14.0622 9.43211 15.0592 8.32837 15.0592ZM15.6551 15.0592C14.5687 15.0592 13.6735 14.0622 13.6735 12.8378C13.6735 11.6133 14.5513 10.6162 15.6551 10.6162C16.7676 10.6162 17.6541 11.622 17.6368 12.8377C17.6368 14.0622 16.7676 15.0592 15.6551 15.0592Z" fill="white"/>
</svg>
