<svg width="32" height="32" viewBox="0 0 32 32" fill="none" xmlns="http://www.w3.org/2000/svg">
<path d="M26.2065 6.69188C26.1984 6.67604 26.1848 6.66364 26.1683 6.65688C24.2622 5.78231 22.2506 5.15867 20.184 4.80158C20.1653 4.79809 20.1459 4.80061 20.1286 4.80877C20.1113 4.81694 20.0971 4.83035 20.0879 4.84708C19.814 5.34422 19.5653 5.85487 19.3429 6.37708C17.1152 6.03892 14.8493 6.03892 12.6216 6.37708C12.3977 5.85355 12.145 5.34277 11.8648 4.84708C11.8552 4.83071 11.8409 4.81762 11.8238 4.8095C11.8066 4.80138 11.7874 4.79862 11.7686 4.80158C9.70183 5.15793 7.69015 5.78161 5.78424 6.65693C5.76793 6.66385 5.75416 6.67566 5.74484 6.69073C1.93339 12.3826 0.889292 17.9346 1.40149 23.4178C1.40293 23.4312 1.40706 23.4442 1.41363 23.456C1.4202 23.4678 1.42908 23.4782 1.43974 23.4865C3.65911 25.1298 6.14151 26.3841 8.78099 27.196C8.79958 27.2016 8.81943 27.2013 8.83787 27.1953C8.85631 27.1892 8.87246 27.1777 8.88414 27.1622C9.45105 26.3908 9.95337 25.574 10.386 24.7201C10.3919 24.7084 10.3953 24.6955 10.396 24.6824C10.3966 24.6693 10.3944 24.6562 10.3896 24.6439C10.3848 24.6317 10.3774 24.6206 10.368 24.6115C10.3586 24.6023 10.3474 24.5952 10.335 24.5907C9.54292 24.2876 8.77606 23.9222 8.04164 23.498C8.0283 23.4902 8.0171 23.4792 8.00902 23.466C8.00094 23.4528 7.99624 23.4378 7.99532 23.4223C7.99441 23.4069 7.99731 23.3915 8.00378 23.3774C8.01024 23.3633 8.02007 23.3511 8.03239 23.3417C8.18693 23.2263 8.33879 23.1073 8.48784 22.9849C8.50091 22.9741 8.51673 22.9672 8.53352 22.9649C8.5503 22.9627 8.56739 22.9652 8.58284 22.9721C13.3943 25.1679 18.6033 25.1679 23.3578 22.9721C23.3733 22.9647 23.3906 22.9619 23.4076 22.964C23.4247 22.966 23.4408 22.9729 23.454 22.9837C23.6033 23.1068 23.7555 23.2262 23.9106 23.3417C23.923 23.351 23.9329 23.3632 23.9395 23.3772C23.9461 23.3912 23.9491 23.4066 23.9483 23.422C23.9475 23.4375 23.9429 23.4525 23.9349 23.4658C23.9269 23.479 23.9158 23.4901 23.9025 23.498C23.1698 23.9258 22.4022 24.2909 21.608 24.5895C21.5957 24.5942 21.5845 24.6015 21.5752 24.6108C21.5658 24.6201 21.5586 24.6313 21.5538 24.6436C21.5491 24.6559 21.5471 24.6691 21.5478 24.6823C21.5485 24.6955 21.552 24.7083 21.558 24.7201C21.9979 25.5693 22.4995 26.385 23.0587 27.1608C23.0701 27.1767 23.0862 27.1887 23.1047 27.195C23.1232 27.2012 23.1432 27.2015 23.1619 27.1958C25.8061 26.3867 28.2928 25.1323 30.515 23.4865C30.5258 23.4786 30.5348 23.4685 30.5414 23.4569C30.548 23.4452 30.552 23.4323 30.5532 23.4189C31.1664 17.0798 29.5266 11.5733 26.2065 6.69188ZM11.1045 20.0791C9.65594 20.0791 8.46234 18.7497 8.46234 17.1171C8.46234 15.4845 9.63279 14.1551 11.1045 14.1551C12.5878 14.1551 13.7698 15.4961 13.7467 17.117C13.7467 18.7497 12.5762 20.0791 11.1045 20.0791ZM20.8735 20.0791C19.425 20.0791 18.2314 18.7497 18.2314 17.1171C18.2314 15.4845 19.4018 14.1551 20.8735 14.1551C22.3569 14.1551 23.5389 15.4961 23.5157 17.117C23.5157 18.7497 22.3569 20.0791 20.8735 20.0791Z" fill="white"/>
</svg>
