<svg width="18" height="18" viewBox="0 0 18 18" fill="none" xmlns="http://www.w3.org/2000/svg">
<path d="M2.625 13.875C2.625 10.9863 2.625 4.125 2.625 4.125C2.625 2.88236 3.63236 1.875 4.875 1.875H13.125V11.625C13.125 11.625 6.83722 11.625 4.875 11.625C3.6375 11.625 2.625 12.6316 2.625 13.875Z" fill="white" stroke="white" stroke-width="1.5" stroke-linejoin="round"/>
<path d="M13.125 11.625C13.125 11.625 5.30764 11.625 4.875 11.625C3.63236 11.625 2.625 12.6324 2.625 13.875C2.625 15.1176 3.63236 16.125 4.875 16.125C5.70341 16.125 9.70343 16.125 15.375 16.125V2.625" stroke="white" stroke-width="1.5" stroke-linecap="round" stroke-linejoin="round"/>
<path d="M5.25 13.875H12.75" stroke="white" stroke-width="1.5" stroke-linecap="round" stroke-linejoin="round"/>
</svg>
