<svg width="24" height="24" viewBox="0 0 24 24" fill="none" xmlns="http://www.w3.org/2000/svg">
<g opacity="0.5">
<path d="M20.9726 8.59963V20.3184H3.39452V8.59963H20.9726ZM20.9726 6.64648H3.39452C2.31591 6.64648 1.44141 7.52101 1.44141 8.59963V20.3184C1.44141 21.397 2.31593 22.2715 3.39452 22.2715H20.9726C22.0513 22.2715 22.9258 21.397 22.9258 20.3184V8.59963C22.9258 7.52103 22.0513 6.64648 20.9726 6.64648Z" fill="white"/>
<path d="M20.9726 13.482V15.4351H16.0898C15.5513 15.4351 15.1133 14.9969 15.1133 14.4586C15.1133 13.9202 15.5513 13.482 16.0898 13.482H20.9726ZM22.9258 11.5289H16.0898C14.4719 11.5289 13.1601 12.8406 13.1601 14.4586C13.1601 16.0765 14.4719 17.3882 16.0898 17.3882H22.9258V11.5289ZM17.0664 3.71874V3.91234L17.1043 4.10164L17.6136 6.64843H3.39452V3.71874H17.0664ZM17.0664 1.76562H3.39452C2.31591 1.76562 1.44141 2.64015 1.44141 3.71874V8.60155H19.9961L19.0195 3.71874C19.0195 2.64015 18.145 1.76562 17.0664 1.76562Z" fill="white"/>
</g>
</svg>
