<svg width="32" height="32" viewBox="0 0 32 32" fill="none" xmlns="http://www.w3.org/2000/svg">
<path d="M29 7.94688C28.0437 8.35938 27.0031 8.65625 25.9312 8.77188C27.0375 8.1125 27.8781 7.07187 28.275 5.83437C27.2531 6.44375 26.0968 6.89062 24.8937 7.12187C23.9187 6.08125 22.5343 5.4375 21 5.4375C18.0468 5.4375 15.6718 7.83125 15.6718 10.7688C15.6718 11.1813 15.7218 11.5938 15.8031 11.9906C11.3812 11.7594 7.43745 9.64687 4.81558 6.4125C4.35308 7.20625 4.09058 8.1125 4.09058 9.10312C4.09058 10.9531 5.0312 12.5844 6.46558 13.5437C5.59058 13.5094 4.76558 13.2625 4.0562 12.8656V12.9312C4.0562 15.5219 5.88745 17.6688 8.32808 18.1625C7.8812 18.2781 7.40308 18.3438 6.92495 18.3438C6.57808 18.3438 6.24995 18.3094 5.9187 18.2625C6.5937 20.375 8.55933 21.9094 10.9 21.9594C9.0687 23.3938 6.77495 24.2375 4.28433 24.2375C3.83745 24.2375 3.42495 24.2219 2.99683 24.1719C5.35933 25.6875 8.16245 26.5625 11.1812 26.5625C20.9812 26.5625 26.3437 18.4438 26.3437 11.3969C26.3437 11.1656 26.3437 10.9344 26.3281 10.7031C27.3656 9.94375 28.275 9.00313 29 7.94688Z" fill="white"/>
</svg>
