<svg width="2880" height="809" viewBox="0 0 2880 809" fill="none" xmlns="http://www.w3.org/2000/svg">
<path d="M1858.61 467.015L1919.08 490.623L1928.54 523.923L1992.48 565.596L2001.34 643.724L2021.58 633.953L2031.29 659.043L2053.22 669.738L2076 712H1048L1078.94 675.801L1106.94 612.666L1118.05 614.723L1122.36 638.812H1146.03L1150.46 623.493L1158.58 621.436L1185.94 577.075L1194.48 528.12L1200.92 526.228L1211.34 515.862L1218.87 519.218L1214.2 555.434H1218.14L1230.01 504.097L1273.06 487.429L1285.98 479.103H1328.96L1348.58 496.906L1350.49 510.136L1362.69 514.792L1374.21 526.228L1411.98 533.879L1430.76 519.218L1455.23 507.692L1461.97 463.751L1473.26 461.299L1487.08 422.089L1507.81 426.005L1530.42 445.125V458.371L1569.35 463.274L1654.75 465.232L1727.17 370.127L1770.92 361.801V380.46L1777.83 379.473L1783.48 347.601L1805.45 327L1838.09 338.765L1858.61 467.015Z" fill="url(#paint0_linear_1184_1564)"/>
<path d="M877.29 152.015L846.055 175.623L841.167 208.923L808.142 250.596L803.567 328.724L793.108 318.953L788.096 344.043L776.766 354.738L765 397H1296L1280.02 360.801L1265.56 297.666L1259.82 299.723L1257.59 323.812H1245.37L1243.08 308.493L1238.88 306.436L1224.75 262.075L1220.34 213.12L1217.01 211.228L1211.63 200.862L1207.74 204.218L1210.15 240.434H1208.12L1201.99 189.097L1179.75 172.429L1173.07 164.103H1150.87L1140.74 181.906L1139.75 195.136L1133.45 199.792L1127.5 211.228L1107.99 218.879L1098.29 204.218L1085.65 192.692L1082.17 148.751L1076.34 146.299L1069.2 107.089L1058.49 111.005L1046.81 130.125V143.371L1026.7 148.274L982.593 150.232L945.183 55.1265L922.583 46.8007V65.4598L919.014 64.4725L916.097 32.6007L904.75 12L887.89 23.7648L877.29 152.015Z" fill="url(#paint1_linear_1184_1564)"/>
<path d="M2584.6 163.058L2593.25 207.252L2595.18 388.457L2640.09 377.508L2652.08 388.457L2697.57 501.856L2757.55 529.502L2880 809H1562L1599.47 739.387L1612.44 720.649L1626.47 662.946L1655.63 659.351L1679.94 566.315L1773.88 548.994L1848.59 512.208L1898.27 423.494L1981.24 398.619L1979.81 269.851L1991.48 259.102L1988.98 215.961C2086.15 140.755 2115.78 203.723 2115.78 203.723L2146.64 354.243L2179 367.244L2194.75 423.494L2231.74 431.468L2255.23 464.13L2274.61 431.468L2311.26 303.644L2330.15 284.978L2338.79 241.983L2370.89 171.825H2402.97V225.024H2415.31V53.2243L2446.17 18L2466.15 64.6113L2490.83 201.478L2521.62 346.333L2532.79 349.638V201.478L2563.65 163.058H2584.6Z" fill="url(#paint2_linear_1184_1564)"/>
<path d="M330.693 294.213L259.02 343.82L247.802 413.794L172.023 501.362L166.562 634.372L137.525 644.999L102.538 703.661L51.5192 717.707L0 809H1346L1289.48 748.138L1247.96 730.347L1221.62 600.269L1208.45 604.591L1203.35 655.209H1175.29L1170.04 623.02L1160.41 618.698L1127.99 525.483L1117.86 422.613L1110.22 418.637L1097.88 396.855L1088.95 403.908L1094.49 480.008H1089.82L1075.75 372.133L1024.72 337.109L1009.41 319.614H958.466L935.21 357.024L932.949 384.822L918.494 394.607L904.836 418.637L860.069 434.715L837.811 403.908L808.8 379.687L800.817 287.355L787.432 282.203L771.052 199.81L746.482 208.039L719.682 248.216V276.049L673.537 286.352L572.324 290.467L486.482 90.6217L434.623 73.1266V112.335L426.433 110.26L419.74 43.2882L393.704 0L355.016 24.7213L330.693 294.213Z" fill="url(#paint3_linear_1184_1564)"/>
<g filter="url(#filter0_d_1184_1564)">
<path d="M1942.16 672.335C1933.13 677.734 1923.64 668.415 1924.01 666.801C1924.38 665.187 1958.47 655.501 1959.39 656.885C1960.32 658.268 1951.43 666.801 1942.16 672.335Z" fill="url(#paint4_radial_1184_1564)"/>
<path d="M1906.74 665.232C1911.46 670.839 1919.8 666.738 1919.92 665.58C1920.04 664.422 1899.82 650.388 1898.9 651.105C1897.98 651.821 1901.9 659.484 1906.74 665.232Z" fill="url(#paint5_radial_1184_1564)"/>
</g>
<g filter="url(#filter1_d_1184_1564)">
<path d="M2088.46 536.335C2082.44 541.734 2076.11 532.415 2076.35 530.801C2076.6 529.187 2099.34 519.501 2099.96 520.885C2100.57 522.268 2094.64 530.801 2088.46 536.335Z" fill="url(#paint6_radial_1184_1564)"/>
<path d="M2064.83 529.232C2067.98 534.839 2073.54 530.738 2073.62 529.58C2073.7 528.422 2060.22 514.388 2059.6 515.105C2058.99 515.821 2061.6 523.484 2064.83 529.232Z" fill="url(#paint7_radial_1184_1564)"/>
</g>
<g filter="url(#filter2_d_1184_1564)">
<path d="M801.046 638.263C810.473 643.896 820.375 634.172 819.989 632.488C819.603 630.803 784.036 620.697 783.069 622.141C782.103 623.584 791.381 632.488 801.046 638.263Z" fill="url(#paint8_radial_1184_1564)"/>
<path d="M838.01 630.851C833.084 636.702 824.384 632.423 824.258 631.214C824.132 630.006 845.228 615.362 846.189 616.109C847.149 616.857 843.059 624.853 838.01 630.851Z" fill="url(#paint9_radial_1184_1564)"/>
</g>
<defs>
<filter id="filter0_d_1184_1564" x="1878.77" y="631.078" width="100.691" height="62.9219" filterUnits="userSpaceOnUse" color-interpolation-filters="sRGB">
<feFlood flood-opacity="0" result="BackgroundImageFix"/>
<feColorMatrix in="SourceAlpha" type="matrix" values="0 0 0 0 0 0 0 0 0 0 0 0 0 0 0 0 0 0 127 0" result="hardAlpha"/>
<feOffset/>
<feGaussianBlur stdDeviation="10"/>
<feComposite in2="hardAlpha" operator="out"/>
<feColorMatrix type="matrix" values="0 0 0 0 0.262745 0 0 0 0 0.807843 0 0 0 0 0.988235 0 0 0 1 0"/>
<feBlend mode="normal" in2="BackgroundImageFix" result="effect1_dropShadow_1184_1564"/>
<feBlend mode="normal" in="SourceGraphic" in2="effect1_dropShadow_1184_1564" result="shape"/>
</filter>
<filter id="filter1_d_1184_1564" x="2039.51" y="495.078" width="80.4868" height="62.9219" filterUnits="userSpaceOnUse" color-interpolation-filters="sRGB">
<feFlood flood-opacity="0" result="BackgroundImageFix"/>
<feColorMatrix in="SourceAlpha" type="matrix" values="0 0 0 0 0 0 0 0 0 0 0 0 0 0 0 0 0 0 127 0" result="hardAlpha"/>
<feOffset/>
<feGaussianBlur stdDeviation="10"/>
<feComposite in2="hardAlpha" operator="out"/>
<feColorMatrix type="matrix" values="0 0 0 0 0.262745 0 0 0 0 0.807843 0 0 0 0 0.988235 0 0 0 1 0"/>
<feBlend mode="normal" in2="BackgroundImageFix" result="effect1_dropShadow_1184_1564"/>
<feBlend mode="normal" in="SourceGraphic" in2="effect1_dropShadow_1184_1564" result="shape"/>
</filter>
<filter id="filter2_d_1184_1564" x="763" y="596.082" width="103.33" height="63.9185" filterUnits="userSpaceOnUse" color-interpolation-filters="sRGB">
<feFlood flood-opacity="0" result="BackgroundImageFix"/>
<feColorMatrix in="SourceAlpha" type="matrix" values="0 0 0 0 0 0 0 0 0 0 0 0 0 0 0 0 0 0 127 0" result="hardAlpha"/>
<feOffset/>
<feGaussianBlur stdDeviation="10"/>
<feComposite in2="hardAlpha" operator="out"/>
<feColorMatrix type="matrix" values="0 0 0 0 0.262745 0 0 0 0 0.807843 0 0 0 0 0.988235 0 0 0 1 0"/>
<feBlend mode="normal" in2="BackgroundImageFix" result="effect1_dropShadow_1184_1564"/>
<feBlend mode="normal" in="SourceGraphic" in2="effect1_dropShadow_1184_1564" result="shape"/>
</filter>
<linearGradient id="paint0_linear_1184_1564" x1="1576.68" y1="711.939" x2="1576.68" y2="327.036" gradientUnits="userSpaceOnUse">
<stop stop-color="#6843B4" stop-opacity="0"/>
<stop offset="1" stop-color="#25115F"/>
</linearGradient>
<linearGradient id="paint1_linear_1184_1564" x1="1022.92" y1="396.939" x2="1022.92" y2="12.0362" gradientUnits="userSpaceOnUse">
<stop stop-color="#40207E" stop-opacity="0"/>
<stop offset="1" stop-color="#190945"/>
</linearGradient>
<linearGradient id="paint2_linear_1184_1564" x1="2308.71" y1="18" x2="2308.71" y2="809" gradientUnits="userSpaceOnUse">
<stop stop-color="#3B1784"/>
<stop offset="1" stop-color="#0D041F"/>
</linearGradient>
<linearGradient id="paint3_linear_1184_1564" x1="682.253" y1="0" x2="682.253" y2="809" gradientUnits="userSpaceOnUse">
<stop stop-color="#3B1784"/>
<stop offset="1" stop-color="#0D041F"/>
</linearGradient>
<radialGradient id="paint4_radial_1184_1564" cx="0" cy="0" r="1" gradientUnits="userSpaceOnUse" gradientTransform="translate(1938.33 674.073) rotate(180) scale(20.5709 14.865)">
<stop stop-color="#07FFFF"/>
<stop offset="1" stop-color="#5174FF"/>
</radialGradient>
<radialGradient id="paint5_radial_1184_1564" cx="0" cy="0" r="1" gradientUnits="userSpaceOnUse" gradientTransform="translate(1908.87 667.244) rotate(18.6919) scale(14.2722 10.4585)">
<stop stop-color="#07FFFF"/>
<stop offset="1" stop-color="#5174FF"/>
</radialGradient>
<radialGradient id="paint6_radial_1184_1564" cx="0" cy="0" r="1" gradientUnits="userSpaceOnUse" gradientTransform="translate(2085.9 538.073) rotate(180) scale(13.7227 14.865)">
<stop stop-color="#07FFFF"/>
<stop offset="1" stop-color="#5174FF"/>
</radialGradient>
<radialGradient id="paint7_radial_1184_1564" cx="0" cy="0" r="1" gradientUnits="userSpaceOnUse" gradientTransform="translate(2066.25 531.244) rotate(26.8924) scale(10.1123 9.84689)">
<stop stop-color="#07FFFF"/>
<stop offset="1" stop-color="#5174FF"/>
</radialGradient>
<radialGradient id="paint8_radial_1184_1564" cx="0" cy="0" r="1" gradientUnits="userSpaceOnUse" gradientTransform="translate(805.051 640.076) scale(21.4653 15.5113)">
<stop stop-color="#07FFFF"/>
<stop offset="1" stop-color="#5174FF"/>
</radialGradient>
<radialGradient id="paint9_radial_1184_1564" cx="0" cy="0" r="1" gradientUnits="userSpaceOnUse" gradientTransform="translate(835.786 632.95) rotate(161.308) scale(14.8927 10.9133)">
<stop stop-color="#07FFFF"/>
<stop offset="1" stop-color="#5174FF"/>
</radialGradient>
</defs>
</svg>
