<svg width="256" height="80" viewBox="0 0 256 80" fill="none" xmlns="http://www.w3.org/2000/svg">
<path d="M79.7992 57.0281H68.9029V80H45.8285V57.51H0V34.3775H10.8963V22.8112H22.4335V11.4056H33.8105V0H68.4222V45.3012H79.7992V57.0281ZM45.508 45.4618V22.9719H33.8105V34.3775H22.9142V45.4618H45.508Z" fill="#797BF2"/>
<path d="M167.9 57.0281H157.003V68.4337H145.626V80H111.015V69.0763H99.6376V57.51H88.1004V22.8112H98.9967V11.4056H110.534V0H144.985V10.9237H156.523V22.3293H167.9V57.0281ZM144.985 68.4337V22.3293H133.608V11.4056H111.015V57.51H122.552V68.4337H144.985Z" fill="#797BF2"/>
<path d="M256 57.0281H245.104V80H222.029V57.51H176.201V34.3775H187.097V22.8112H198.634V11.4056H210.011V0H244.623V45.3012H256V57.0281ZM221.709 45.4618V22.9719H210.011V34.3775H199.115V45.4618H221.709Z" fill="#797BF2"/>
</svg>
