<svg width="200" height="200" viewBox="0 0 200 200" fill="none" xmlns="http://www.w3.org/2000/svg">
<circle cx="100" cy="100" r="100" fill="url(#paint0_linear_1351_560)"/>
<circle cx="100" cy="100" r="99.25" stroke="url(#paint1_linear_1351_560)" stroke-opacity="0.8" stroke-width="1.5"/>
<mask id="mask0_1351_560" style="mask-type:alpha" maskUnits="userSpaceOnUse" x="1" y="0" width="198" height="198">
<circle cx="100" cy="99" r="99" fill="white"/>
</mask>
<g mask="url(#mask0_1351_560)">
<circle opacity="0.4" cx="100.061" cy="99.0943" r="69.25" transform="rotate(-177.546 100.061 99.0943)" stroke="url(#paint2_linear_1351_560)" stroke-width="1.5"/>
<rect x="47" y="140.999" width="106" height="82" fill="url(#paint3_linear_1351_560)"/>
<ellipse cx="100" cy="143.999" rx="53" ry="12" fill="url(#paint4_linear_1351_560)"/>
<g filter="url(#filter0_f_1351_560)">
<ellipse cx="100" cy="148.499" rx="36" ry="9.5" fill="url(#paint5_linear_1351_560)" fill-opacity="0.8"/>
</g>
<g opacity="0.3">
<path d="M180.098 98.5274C189.042 103.232 200.538 98.9762 205.775 89.0207C211.012 79.0652 208.007 67.1805 199.063 62.4754C190.118 57.7703 178.622 62.0266 173.385 71.982C168.148 81.9375 171.153 93.8223 180.098 98.5274Z" fill="url(#paint6_linear_1351_560)"/>
<path d="M181.527 95.81C190.471 100.515 201.667 96.8299 206.534 87.579C211.4 78.3281 208.094 67.0145 199.15 62.3094C190.206 57.6043 179.01 61.2894 174.144 70.5403C169.277 79.7913 172.583 91.1049 181.527 95.81Z" fill="url(#paint7_linear_1351_560)"/>
<path d="M184.649 89.8752C190.425 92.9133 197.654 90.5338 200.796 84.5605C203.938 78.5873 201.804 71.2821 196.028 68.2441C190.253 65.206 183.024 67.5855 179.882 73.5588C176.74 79.532 178.874 86.8372 184.649 89.8752Z" fill="url(#paint8_linear_1351_560)"/>
<g style="mix-blend-mode:soft-light">
<path d="M172.517 73.8963C171.974 75.1918 177.71 76.5559 177.986 76.5576C178.263 76.5594 183.789 62.3617 196.179 68.0891C208.57 73.8165 200.534 86.1908 200.109 87.2612C199.715 88.2753 204.403 89.5197 205.731 88.7092C207.03 87.955 213.655 69.952 199.373 62.9416C185.198 55.9884 175.872 65.6716 172.517 73.8963Z" fill="white" fill-opacity="0.25"/>
</g>
<path opacity="0.5" d="M170.788 81.7337C171.586 80.7373 172.626 87.0908 176.139 92.1256C179.599 97.1322 179.039 97.5458 178.81 97.8503C178.528 98.1267 170.868 93.0351 170.788 81.7337Z" fill="#3E80BD"/>
<path opacity="0.5" d="M188.573 100.507C187.534 99.7484 191.508 98.4402 194.026 97.428C196.574 96.3602 198.26 96.5391 200.82 94.2746C203.381 92.0101 196.827 100.955 188.573 100.507Z" fill="#BD3EA9"/>
<g style="mix-blend-mode:soft-light" opacity="0.2">
<path d="M180.187 95.1051C179.48 95.0167 179.073 97.3519 179.195 97.7703C179.318 98.1887 184.957 100.093 186.487 100.048C188.017 100.003 190.257 99.1281 190.534 98.2115C190.864 97.3231 187.674 98.8317 180.187 95.1051Z" fill="white"/>
</g>
<path d="M171.897 79.626C171.897 79.626 172.117 90.0097 181.794 95.1712C191.471 100.333 200.372 94.6053 200.372 94.6053C200.372 94.6053 191.716 101.169 181.328 96.0586C170.939 90.9479 171.897 79.626 171.897 79.626Z" fill="#43CEFC"/>
<path opacity="0.5" d="M182.139 70.5681C179.167 75.3069 186.535 67.2865 193.545 69.8407C201.982 72.9337 198.684 82.4578 200.755 83.3352C202.827 84.2125 204.462 73.0346 196.91 68.7787C188.369 63.9314 182.139 70.5681 182.139 70.5681Z" fill="#0988C3"/>
<path d="M178.868 82.5146C178.868 82.5146 178.98 83.2113 179.381 84.2718C179.034 83.2395 178.868 82.5146 178.868 82.5146Z" fill="#FFD300"/>
<path d="M184.415 89.5398C181.412 87.9601 180.011 85.807 179.381 84.2717C180.055 86.1135 181.486 88.9905 184.328 90.4856C188.725 92.7988 194.876 90.0862 194.876 90.0862C194.876 90.0862 189.509 92.2198 184.415 89.5398Z" fill="#A2E4FF"/>
<path opacity="0.1" d="M181.171 95.0561C177.627 93.3334 184.345 92.4062 189.348 91.3557C194.35 90.3052 197.02 94.4712 196.694 95.2204C196.315 95.9415 190.272 99.4898 181.171 95.0561Z" fill="#F8FDFF"/>
<path opacity="0.8" d="M201.954 64.9173C199.414 63.3687 201.223 69.5606 203.775 72.3897C206.272 75.1906 208.639 69.0001 201.954 64.9173Z" fill="white"/>
<path d="M179.923 85.1935C178.079 83.2321 178.793 86.2989 180.681 87.7874C182.621 89.304 179.923 85.1935 179.923 85.1935Z" fill="white" fill-opacity="0.8"/>
<path d="M192.65 74.3271L188.363 79.1096" stroke="white" stroke-width="2" stroke-linecap="round"/>
<path d="M192.025 84.665L188.486 79.5526" stroke="white" stroke-width="2" stroke-linecap="round"/>
</g>
<g opacity="0.1">
<path d="M138.741 24.3145C144.046 18.505 143.105 9.00856 136.639 3.10367C130.172 -2.80122 120.63 -2.8785 115.324 2.93106C110.019 8.74062 110.961 18.2371 117.427 24.1419C123.894 30.0468 133.436 30.1241 138.741 24.3145Z" fill="url(#paint9_linear_1351_560)"/>
<path d="M136.976 22.7026C142.281 16.8931 141.711 7.73539 135.702 2.24839C129.693 -3.23861 120.522 -2.97713 115.217 2.83243C109.911 8.64198 110.482 17.7997 116.491 23.2867C122.499 28.7737 131.671 28.5122 136.976 22.7026Z" fill="url(#paint10_linear_1351_560)"/>
<path d="M133.121 19.1825C136.547 15.4313 136.178 9.5182 132.298 5.97527C128.419 2.43233 122.497 2.60117 119.071 6.35238C115.646 10.1036 116.014 16.0166 119.894 19.5596C123.774 23.1025 129.696 22.9337 133.121 19.1825Z" fill="url(#paint11_linear_1351_560)"/>
<g style="mix-blend-mode:soft-light">
<path d="M118.697 25.1723C119.566 25.8363 121.723 21.7855 121.779 21.5776C121.834 21.3696 112.23 14.4117 118.984 6.20802C125.738 -1.99565 133.474 6.4935 134.197 7.02389C134.883 7.52088 136.743 4.23526 136.395 3.07522C136.082 1.94858 123.829 -6.5871 115.736 2.78909C107.708 12.0947 113.164 21.0256 118.697 25.1723Z" fill="white" fill-opacity="0.25"/>
</g>
<path opacity="0.5" d="M124.26 28.0186C123.667 27.2213 128.657 27.6897 133.14 26.0352C137.592 24.4156 137.794 24.9187 137.978 25.151C138.131 25.418 132.787 30.1841 124.26 28.0186Z" fill="#3E80BD"/>
<path opacity="0.5" d="M141.901 18.3214C141.125 18.9542 140.923 15.7032 140.657 13.6074C140.354 11.4788 140.821 10.2442 139.62 7.86979C138.418 5.49538 143.864 12.1929 141.901 18.3214Z" fill="#BD3EA9"/>
<g style="mix-blend-mode:soft-light" opacity="0.2">
<path d="M136.181 23.5732C135.975 24.088 137.654 24.8543 137.993 24.8446C138.332 24.835 140.877 20.9628 141.144 19.8018C141.412 18.6407 141.194 16.7811 140.558 16.3921C139.954 15.9683 140.462 18.6678 136.181 23.5732Z" fill="white"/>
</g>
<path d="M122.891 26.7676C122.891 26.7676 130.755 28.6467 136.548 22.3751C142.341 16.1035 139.781 8.27202 139.781 8.27202C139.781 8.27202 143.019 16.0841 137.124 22.9015C131.229 29.7188 122.891 26.7676 122.891 26.7676Z" fill="#43CEFC"/>
<path opacity="0.5" d="M118.086 17.2702C121.07 20.4419 116.481 13.3128 119.785 8.53703C123.776 2.79174 130.299 7.15168 131.368 5.76422C132.437 4.37676 124.34 0.943709 119.648 5.79303C114.315 11.2713 118.086 17.2702 118.086 17.2702Z" fill="#0988C3"/>
<path d="M126.439 22.0869C126.439 22.0869 126.986 22.1392 127.863 22.0463C127.018 22.1043 126.439 22.0869 126.439 22.0869Z" fill="#FFD300"/>
<path d="M132.823 19.293C131.041 21.2435 129.144 21.8744 127.864 22.0466C129.384 21.9015 131.832 21.3906 133.518 19.5446C136.126 16.6884 135.295 11.5216 135.295 11.5216C135.295 11.5216 135.844 15.984 132.823 19.293Z" fill="#A2E4FF"/>
<path opacity="0.1" d="M136.338 22.8226C134.342 25.1525 134.967 19.9102 135.161 15.9355C135.355 11.9608 139.019 10.7708 139.519 11.1636C139.987 11.5913 141.469 16.8413 136.338 22.8226Z" fill="#F8FDFF"/>
<path opacity="0.8" d="M117.733 1.23378C116.067 2.84183 121.086 2.69872 123.719 1.33451C126.321 0.00513391 122.125 -2.99631 117.733 1.23378Z" fill="white"/>
<path d="M128.665 21.8202C126.824 22.8226 129.275 22.8884 130.767 21.7603C132.292 20.5973 128.665 21.8202 128.665 21.8202Z" fill="white" fill-opacity="0.8"/>
<path d="M122.987 10.0947L125.745 14.2654" stroke="white" stroke-width="2" stroke-linecap="round"/>
<path d="M130.65 12.6006L126.102 14.2596" stroke="white" stroke-width="2" stroke-linecap="round"/>
</g>
<g opacity="0.6">
<path d="M40.3112 35.883C33.1016 27.4011 19.6037 27.0304 10.1629 35.055C0.721969 43.0797 -1.08688 56.4609 6.12269 64.9429C13.3323 73.4248 26.8301 73.7955 36.271 65.7709C45.7119 57.7462 47.5207 44.3649 40.3112 35.883Z" fill="url(#paint12_linear_1351_560)"/>
<path d="M37.734 38.0733C30.5244 29.5914 17.5682 28.7603 8.79539 36.2171C0.022631 43.6738 -1.24459 56.5947 5.96497 65.0767C13.1745 73.5586 26.1308 74.3897 34.9035 66.9329C43.6763 59.4762 44.9435 46.5553 37.734 38.0733Z" fill="url(#paint13_linear_1351_560)"/>
<path d="M32.1061 42.8575C27.4509 37.3808 19.0851 36.8441 13.4206 41.6589C7.75608 46.4737 6.93784 54.8167 11.593 60.2934C16.2482 65.7702 24.614 66.3068 30.2785 61.492C35.943 56.6772 36.7613 48.3343 32.1061 42.8575Z" fill="url(#paint14_linear_1351_560)"/>
<g style="mix-blend-mode:soft-light">
<path d="M37.9437 64.1711C39.0305 63.0698 33.7288 59.3205 33.4468 59.2051C33.1648 59.0897 21.6866 71.3316 11.3746 60.3896C1.06256 49.4476 14.3573 40.1001 15.2306 39.1803C16.0505 38.3059 11.77 35.1089 10.0795 35.3918C8.44238 35.6293 -5.72258 51.309 5.99674 64.3393C17.6285 77.2666 31.137 71.1995 37.9437 64.1711Z" fill="white" fill-opacity="0.25"/>
</g>
<path opacity="0.5" d="M42.9295 56.8698C41.7046 57.5605 43.2512 50.6398 41.7278 44.0511C40.2476 37.5133 40.9898 37.3205 41.3486 37.1031C41.7506 36.9366 47.4887 45.2861 42.9295 56.8698Z" fill="#3E80BD"/>
<path opacity="0.5" d="M32.4618 30.379C33.2118 31.581 28.6123 31.286 25.623 31.2866C22.5812 31.3319 20.9313 30.4567 17.3843 31.7197C13.8373 32.9827 24.209 26.532 32.4618 30.379Z" fill="#BD3EA9"/>
<g style="mix-blend-mode:soft-light" opacity="0.2">
<path d="M38.8145 39.3449C39.5004 39.7254 40.8752 37.5057 40.9221 37.0279C40.9689 36.5501 35.9871 32.2879 34.405 31.7056C32.8228 31.1233 30.1737 31.0976 29.5144 31.9208C28.8119 32.6931 32.6916 32.4611 38.8145 39.3449Z" fill="white"/>
</g>
<path d="M40.9307 58.5684C40.9307 58.5684 44.9696 47.8649 37.1984 38.6156C29.4272 29.3663 17.978 31.5649 17.978 31.5649C17.978 31.5649 29.5209 28.4107 38.04 37.9003C46.559 47.3899 40.9307 58.5684 40.9307 58.5684Z" fill="#43CEFC"/>
<path opacity="0.5" d="M26.7429 63.621C31.7267 59.998 20.9019 65.1696 14.7868 59.6807C7.43336 53.0546 14.7157 44.6748 12.9586 42.9273C11.2015 41.1798 4.93986 51.933 10.9107 59.384C17.6502 67.8459 26.7429 63.621 26.7429 63.621Z" fill="#0988C3"/>
<path d="M34.9927 52.7549C34.9927 52.7549 35.1635 51.9965 35.1895 50.7481C35.1203 51.9457 34.9927 52.7549 34.9927 52.7549Z" fill="#FFD300"/>
<path d="M32.2078 43.2968C34.6284 46.1446 35.1758 48.9203 35.1893 50.7483C35.2565 48.5889 34.9757 45.061 32.6848 42.3657C29.1403 38.1957 21.7395 38.4422 21.7395 38.4422C21.7395 38.4422 28.1013 38.4656 32.2078 43.2968Z" fill="#A2E4FF"/>
<path opacity="0.1" d="M37.7889 38.9905C40.7037 42.2066 33.4566 40.3954 27.9119 39.4147C22.3671 38.434 21.3494 33.0797 21.99 32.4477C22.6737 31.8665 30.3073 30.7214 37.7889 38.9905Z" fill="#F8FDFF"/>
<path opacity="0.8" d="M4.16984 61.2591C6.13009 63.8851 6.82364 56.8135 5.37789 52.8743C3.97537 48.9859 -0.985454 54.3413 4.16984 61.2591Z" fill="white"/>
<path d="M35.0141 49.5831C36.0932 52.3449 36.6222 48.9169 35.3046 46.6207C33.9438 44.2736 35.0141 49.5831 35.0141 49.5831Z" fill="white" fill-opacity="0.8"/>
<path d="M17.5439 55.4639L23.8897 52.3364" stroke="white" stroke-width="2" stroke-linecap="round"/>
<path d="M22.4277 45.1533L23.9462 51.8322" stroke="white" stroke-width="2" stroke-linecap="round"/>
</g>
</g>
<path d="M99.8794 142.845C124.666 142.845 144.759 121.488 144.759 95.1429C144.759 68.7975 124.666 47.4404 99.8794 47.4404C75.0932 47.4404 55 68.7975 55 95.1429C55 121.488 75.0932 142.845 99.8794 142.845Z" fill="url(#paint15_linear_1351_560)"/>
<path d="M99.8794 135.653C124.666 135.653 144.759 115.807 144.759 91.3266C144.759 66.8457 124.666 47 99.8794 47C75.0932 47 55 66.8457 55 91.3266C55 115.807 75.0932 135.653 99.8794 135.653Z" fill="url(#paint16_linear_1351_560)"/>
<path d="M99.8793 119.948C115.884 119.948 128.858 107.134 128.858 91.3266C128.858 75.5194 115.884 62.7051 99.8793 62.7051C83.875 62.7051 70.9009 75.5194 70.9009 91.3266C70.9009 107.134 83.875 119.948 99.8793 119.948Z" fill="url(#paint17_linear_1351_560)"/>
<g style="mix-blend-mode:soft-light">
<path d="M55.3014 100.055C55.6026 103.332 69.6085 99.9061 70.211 99.6082C70.8134 99.3103 66.5965 63.857 100.03 62.2184C133.464 60.5798 130.151 94.9903 130.452 97.6717C130.753 100.204 142.349 97.6717 144.307 94.5434C146.265 91.5642 140.09 47.0241 101.084 48.0669C62.3796 49.1096 53.1929 79.3492 55.3014 100.055Z" fill="white" fill-opacity="0.25"/>
</g>
<path opacity="0.5" d="M60.4985 118.187C61.093 115.251 70.6038 127.287 83.9785 133.892C97.2045 140.497 96.4615 141.964 96.3129 142.845C96.0157 143.726 73.576 141.524 60.4985 118.187Z" fill="#3E80BD"/>
<path opacity="0.5" d="M120.536 137.708C117.415 137.268 124.548 130.223 128.858 125.379C133.167 120.389 137.031 118.921 140.003 111.435C142.976 103.95 138.963 129.636 120.536 137.708Z" fill="#BD3EA9"/>
<g style="mix-blend-mode:soft-light" opacity="0.2">
<path d="M96.1644 135.653C94.5297 136.24 96.313 141.524 97.0561 142.258C97.7991 142.992 112.214 140.79 115.483 139.029C118.753 137.268 122.617 133.011 122.171 130.809C121.873 128.608 116.672 135.213 96.1644 135.653Z" fill="white"/>
</g>
<path d="M60.4985 112.609C60.4985 112.609 72.8329 133.892 99.7308 134.039C126.629 134.186 139.409 112.609 139.409 112.609C139.409 112.609 128.115 135.653 99.7308 136.387C71.3469 137.121 60.4985 112.609 60.4985 112.609Z" fill="#43CEFC"/>
<path opacity="0.5" d="M72.3872 82.6671C71.347 95.7302 78.1829 71.0717 96.313 68.7233C118.158 65.9345 121.873 89.272 127.372 88.8317C132.87 88.3914 123.657 63.4393 102.406 62.8522C78.3315 62.1183 72.3872 82.6671 72.3872 82.6671Z" fill="#0988C3"/>
<path d="M78.9258 110.995C78.9258 110.995 79.966 112.316 82.0465 114.077C80.1146 112.316 78.9258 110.995 78.9258 110.995Z" fill="#FFD300"/>
<path d="M98.9876 119.508C90.6656 119.508 85.1671 116.572 82.0464 114.077C85.613 117.159 92.0031 121.563 99.8793 121.563C112.065 121.563 122.319 109.233 122.319 109.233C122.319 109.233 113.105 119.508 98.9876 119.508Z" fill="#A2E4FF"/>
<path opacity="0.1" d="M98.245 134.479C88.5855 134.773 102.109 125.526 111.768 117.893C121.428 110.261 131.979 115.985 132.127 117.893C132.127 119.802 123.062 133.745 98.245 134.479Z" fill="#F8FDFF"/>
<path opacity="0.8" d="M108.944 49.348C101.663 48.9076 112.66 59.7691 121.427 62.8514C130.047 65.9338 128.115 50.5222 108.944 49.348Z" fill="white"/>
<path d="M84.2756 115.398C78.0341 113.343 83.0867 118.921 88.8824 119.948C94.8267 120.976 84.2756 115.398 84.2756 115.398Z" fill="white" fill-opacity="0.8"/>
<path d="M99.4917 78.9971L95.6467 93.5843" stroke="white" stroke-width="7" stroke-linecap="round"/>
<path d="M109.94 101.106L96.4199 94.3693" stroke="white" stroke-width="7" stroke-linecap="round"/>
<defs>
<filter id="filter0_f_1351_560" x="54" y="128.999" width="92" height="39" filterUnits="userSpaceOnUse" color-interpolation-filters="sRGB">
<feFlood flood-opacity="0" result="BackgroundImageFix"/>
<feBlend mode="normal" in="SourceGraphic" in2="BackgroundImageFix" result="shape"/>
<feGaussianBlur stdDeviation="5" result="effect1_foregroundBlur_1351_560"/>
</filter>
<linearGradient id="paint0_linear_1351_560" x1="100" y1="-100" x2="100" y2="200" gradientUnits="userSpaceOnUse">
<stop stop-color="#090316" stop-opacity="0"/>
<stop offset="0.96"/>
</linearGradient>
<linearGradient id="paint1_linear_1351_560" x1="100" y1="0" x2="100" y2="266" gradientUnits="userSpaceOnUse">
<stop stop-color="white" stop-opacity="0.04"/>
<stop offset="0.323308" stop-color="#2DD6FF" stop-opacity="0"/>
<stop offset="1" stop-color="#C754EF"/>
</linearGradient>
<linearGradient id="paint2_linear_1351_560" x1="89.308" y1="33.5897" x2="100.061" y2="215.294" gradientUnits="userSpaceOnUse">
<stop stop-color="#2DD6FF" stop-opacity="0"/>
<stop offset="1" stop-color="#C754EF"/>
</linearGradient>
<linearGradient id="paint3_linear_1351_560" x1="24.0001" y1="174.999" x2="173" y2="171.999" gradientUnits="userSpaceOnUse">
<stop stop-color="#1C122F" stop-opacity="0.31"/>
<stop offset="0.309734" stop-color="#291B45" stop-opacity="0.6"/>
<stop offset="0.517228" stop-color="#22153C"/>
<stop offset="0.699115" stop-color="#22133F" stop-opacity="0.917093"/>
<stop offset="1" stop-color="#1C122F" stop-opacity="0.5"/>
</linearGradient>
<linearGradient id="paint4_linear_1351_560" x1="99.5047" y1="123.999" x2="99.5047" y2="163.999" gradientUnits="userSpaceOnUse">
<stop stop-color="#573B93"/>
<stop offset="1" stop-color="#2D1F4A"/>
</linearGradient>
<linearGradient id="paint5_linear_1351_560" x1="100" y1="127.999" x2="100" y2="157.999" gradientUnits="userSpaceOnUse">
<stop stop-color="#0D041F"/>
<stop offset="1" stop-color="#0D041F" stop-opacity="0"/>
</linearGradient>
<linearGradient id="paint6_linear_1351_560" x1="186.637" y1="100.471" x2="191.63" y2="60.4807" gradientUnits="userSpaceOnUse">
<stop stop-color="#027EBA"/>
<stop offset="0.5531" stop-color="#02E3FF"/>
<stop offset="1" stop-color="#FA9300"/>
</linearGradient>
<linearGradient id="paint7_linear_1351_560" x1="187.597" y1="97.722" x2="192.27" y2="60.2999" gradientUnits="userSpaceOnUse">
<stop stop-color="#0080BE"/>
<stop offset="1" stop-color="#9FF5FE"/>
</linearGradient>
<linearGradient id="paint8_linear_1351_560" x1="183.461" y1="92.1345" x2="196.59" y2="50.997" gradientUnits="userSpaceOnUse">
<stop stop-color="#0D8CC5"/>
<stop offset="1" stop-color="#0BDAF4"/>
</linearGradient>
<linearGradient id="paint9_linear_1351_560" x1="141.493" y1="19.7725" x2="112.358" y2="8.13583" gradientUnits="userSpaceOnUse">
<stop stop-color="#027EBA"/>
<stop offset="0.5531" stop-color="#02E3FF"/>
<stop offset="1" stop-color="#FA9300"/>
</linearGradient>
<linearGradient id="paint10_linear_1351_560" x1="139.612" y1="18.5076" x2="112.348" y2="7.61817" gradientUnits="userSpaceOnUse">
<stop stop-color="#0080BE"/>
<stop offset="1" stop-color="#9FF5FE"/>
</linearGradient>
<linearGradient id="paint11_linear_1351_560" x1="134.589" y1="20.5225" x2="106.192" y2="2.53292" gradientUnits="userSpaceOnUse">
<stop stop-color="#0D8CC5"/>
<stop offset="1" stop-color="#0BDAF4"/>
</linearGradient>
<linearGradient id="paint12_linear_1351_560" x1="34.4257" y1="31.2117" x2="12.9001" y2="70.0337" gradientUnits="userSpaceOnUse">
<stop stop-color="#027EBA"/>
<stop offset="0.5531" stop-color="#02E3FF"/>
<stop offset="1" stop-color="#FA9300"/>
</linearGradient>
<linearGradient id="paint13_linear_1351_560" x1="32.3151" y1="33.6264" x2="12.1716" y2="69.9557" gradientUnits="userSpaceOnUse">
<stop stop-color="#0080BE"/>
<stop offset="1" stop-color="#9FF5FE"/>
</linearGradient>
<linearGradient id="paint14_linear_1351_560" x1="34.2486" y1="41.0364" x2="3.93684" y2="77.6908" gradientUnits="userSpaceOnUse">
<stop stop-color="#0D8CC5"/>
<stop offset="1" stop-color="#0BDAF4"/>
</linearGradient>
<linearGradient id="paint15_linear_1351_560" x1="116.291" y1="139.743" x2="84.1859" y2="50.4336" gradientUnits="userSpaceOnUse">
<stop stop-color="#027EBA"/>
<stop offset="0.5531" stop-color="#02E3FF"/>
<stop offset="1" stop-color="#FA9300"/>
</linearGradient>
<linearGradient id="paint16_linear_1351_560" x1="115.238" y1="132.998" x2="85.1938" y2="49.4227" gradientUnits="userSpaceOnUse">
<stop stop-color="#0080BE"/>
<stop offset="1" stop-color="#9FF5FE"/>
</linearGradient>
<linearGradient id="paint17_linear_1351_560" x1="99.8793" y1="125.927" x2="82.9868" y2="26.0767" gradientUnits="userSpaceOnUse">
<stop stop-color="#0D8CC5"/>
<stop offset="1" stop-color="#0BDAF4"/>
</linearGradient>
</defs>
</svg>
