<svg width="32" height="32" viewBox="0 0 32 32" fill="none" xmlns="http://www.w3.org/2000/svg">
<circle cx="16" cy="16" r="15.25" stroke="white" stroke-width="1.5"/>
<circle cx="16.0001" cy="16.0001" r="12.4444" fill="url(#paint0_linear_6201_5248)" fill-opacity="0.15"/>
<path d="M21.3684 18.9568C21.3684 16.5076 19.7977 15.6291 17.5083 15.4161L15.4052 15.2298C13.7546 15.0966 13.1157 14.4311 13.1157 13.313C13.1157 11.9819 14.1273 11.1566 16.0441 11.1566C17.0998 11.1566 18.0589 11.3498 18.8714 11.7736C19.269 11.981 19.7689 11.9575 20.086 11.6404C20.459 11.2674 20.4283 10.6488 19.9644 10.3974C18.8851 9.81232 17.5355 9.53271 16.0707 9.53271C13.2754 9.53271 11.2522 10.9703 11.2522 13.3662C11.2522 15.5226 12.6099 16.6673 15.1656 16.8803L17.3219 17.0667C18.8394 17.1998 19.5049 17.8387 19.5049 18.9834C19.5049 20.5275 18.1738 21.2995 16.0175 21.2995C14.7272 21.2995 13.5713 21.0306 12.63 20.3726C12.2228 20.0879 11.6548 20.0716 11.3035 20.4229C10.9536 20.7728 10.9555 21.348 11.3547 21.6402C12.6504 22.5885 14.176 22.95 16.0441 22.95C19.2121 22.95 21.3684 21.4859 21.3684 18.9568Z" fill="#39FFD0"/>
<rect x="15.438" y="8" width="1.47898" height="2.95796" rx="0.739491" fill="#39FFD0"/>
<rect x="15.438" y="21.311" width="1.47898" height="2.95796" rx="0.739491" fill="#39FFD0"/>
<defs>
<linearGradient id="paint0_linear_6201_5248" x1="16.0001" y1="3.55566" x2="16.0001" y2="28.4446" gradientUnits="userSpaceOnUse">
<stop stop-color="white" stop-opacity="0.06"/>
<stop offset="1" stop-color="white"/>
</linearGradient>
</defs>
</svg>
