<svg width="335" height="64" viewBox="0 0 335 64" fill="none" xmlns="http://www.w3.org/2000/svg">
<rect width="335" height="64" rx="6" fill="url(#paint0_linear_13763_18107)"/>
<rect x="0.5" y="0.5" width="334" height="63" rx="5.5" stroke="url(#paint1_linear_13763_18107)" stroke-opacity="0.12"/>
<path fill-rule="evenodd" clip-rule="evenodd" d="M290.5 46.5239C289.765 47.7932 289.387 49.7145 289.387 51.2529C289.376 52.2681 289.552 53.2768 289.905 54.2287H304.654V43.0539C302.965 41.9355 300.978 41.3496 298.952 41.3719C295.189 41.3719 292.151 43.671 290.495 46.5265L290.5 46.5239ZM289.362 21.3524V39.5359H289.383C290.726 38.2059 294.247 36.5174 297.939 36.1655C300.549 35.9714 302.928 36.3686 304.667 37.0453V21.3524L296.974 8L289.362 21.3524ZM310.238 31.038V54.2261H323.552L310.238 31.038ZM283.759 54.2261V31.038L270.445 54.2261H283.759Z" fill="white" fill-opacity="0.08"/>
<path d="M59.1 45V37.432H62.62C63.1187 37.432 63.5147 37.509 63.808 37.663C64.1013 37.817 64.3103 38.037 64.435 38.323C64.5597 38.6017 64.622 38.939 64.622 39.335C64.622 39.6577 64.578 39.9437 64.49 40.193C64.402 40.435 64.2627 40.633 64.072 40.787C63.8887 40.941 63.643 41.051 63.335 41.117V41.161C63.709 41.227 63.995 41.348 64.193 41.524C64.391 41.6927 64.5267 41.9053 64.6 42.162C64.6733 42.4187 64.71 42.701 64.71 43.009C64.71 43.273 64.677 43.526 64.611 43.768C64.5523 44.01 64.446 44.2227 64.292 44.406C64.1453 44.5893 63.9327 44.736 63.654 44.846C63.3753 44.9487 63.016 45 62.576 45H59.1ZM60.046 44.186H62.356C62.7153 44.186 62.9977 44.1457 63.203 44.065C63.4083 43.977 63.5513 43.8377 63.632 43.647C63.72 43.449 63.764 43.196 63.764 42.888C63.764 42.5727 63.7163 42.3197 63.621 42.129C63.533 41.931 63.3863 41.7917 63.181 41.711C62.9757 41.623 62.7007 41.579 62.356 41.579H60.046V44.186ZM60.046 40.754H62.312C62.62 40.754 62.873 40.71 63.071 40.622C63.2763 40.534 63.4267 40.3983 63.522 40.215C63.6247 40.0243 63.676 39.7897 63.676 39.511C63.676 39.203 63.6357 38.9573 63.555 38.774C63.4817 38.5907 63.346 38.4587 63.148 38.378C62.95 38.29 62.6713 38.246 62.312 38.246H60.046V40.754ZM68.358 45.088C67.9474 45.088 67.6137 45.044 67.357 44.956C67.1077 44.868 66.917 44.736 66.785 44.56C66.653 44.384 66.5614 44.1603 66.51 43.889C66.466 43.6103 66.444 43.2803 66.444 42.899V39.39H67.346V42.591C67.346 42.965 67.3607 43.2657 67.39 43.493C67.4194 43.7203 67.4817 43.8927 67.577 44.01C67.6797 44.12 67.8227 44.1933 68.006 44.23C68.1894 44.2667 68.4277 44.285 68.721 44.285C69.0877 44.285 69.3737 44.241 69.579 44.153C69.7844 44.0577 69.931 43.9257 70.019 43.757C70.1144 43.581 70.173 43.372 70.195 43.13C70.2244 42.8807 70.239 42.5983 70.239 42.283V39.39H71.13V45H70.327L70.294 44.197H70.217C70.1437 44.373 70.0337 44.527 69.887 44.659C69.7477 44.791 69.5534 44.8973 69.304 44.978C69.0547 45.0513 68.7394 45.088 68.358 45.088ZM75.185 47.266C74.9723 47.266 74.7487 47.2587 74.514 47.244C74.2867 47.2367 74.0667 47.2257 73.854 47.211C73.6487 47.2037 73.4653 47.189 73.304 47.167V46.452C73.546 46.4593 73.766 46.4667 73.964 46.474C74.1693 46.4887 74.3563 46.496 74.525 46.496C74.701 46.5033 74.8587 46.507 74.998 46.507C75.4233 46.507 75.757 46.474 75.999 46.408C76.2483 46.342 76.4317 46.232 76.549 46.078C76.6663 45.9313 76.7397 45.7333 76.769 45.484C76.8057 45.2347 76.824 44.9303 76.824 44.571V44.241H76.758C76.6993 44.3877 76.6003 44.5233 76.461 44.648C76.3217 44.7727 76.131 44.8717 75.889 44.945C75.647 45.0183 75.3317 45.055 74.943 45.055C74.5323 45.055 74.1987 45.0147 73.942 44.934C73.6927 44.846 73.502 44.714 73.37 44.538C73.238 44.3547 73.1463 44.1273 73.095 43.856C73.051 43.5847 73.029 43.262 73.029 42.888V39.39H73.931V42.569C73.931 42.9503 73.9457 43.2547 73.975 43.482C74.0043 43.7093 74.0667 43.8817 74.162 43.999C74.2647 44.109 74.4077 44.1823 74.591 44.219C74.7743 44.2557 75.0127 44.274 75.306 44.274C75.6727 44.274 75.9587 44.23 76.164 44.142C76.3693 44.0467 76.516 43.911 76.604 43.735C76.6993 43.559 76.758 43.35 76.78 43.108C76.8093 42.8587 76.824 42.58 76.824 42.272V39.39H77.715V44.307C77.715 44.8423 77.6857 45.297 77.627 45.671C77.5757 46.0523 77.462 46.3567 77.286 46.584C77.1173 46.8187 76.8643 46.991 76.527 47.101C76.1897 47.211 75.7423 47.266 75.185 47.266ZM84.2488 45.088C83.8235 45.088 83.4715 45.0513 83.1928 44.978C82.9215 44.9047 82.7015 44.7947 82.5328 44.648C82.3715 44.5013 82.2505 44.3143 82.1698 44.087C82.0892 43.8597 82.0342 43.5883 82.0048 43.273C81.9828 42.9577 81.9718 42.5983 81.9718 42.195C81.9718 41.777 81.9865 41.4103 82.0158 41.095C82.0525 40.7797 82.1148 40.5083 82.2028 40.281C82.2982 40.0463 82.4265 39.8593 82.5878 39.72C82.7565 39.5807 82.9728 39.478 83.2368 39.412C83.5008 39.3387 83.8272 39.302 84.2158 39.302C84.4725 39.302 84.7402 39.3167 85.0188 39.346C85.3048 39.368 85.5395 39.401 85.7228 39.445V40.171C85.5542 40.1417 85.3452 40.116 85.0958 40.094C84.8538 40.072 84.6338 40.061 84.4358 40.061C84.0912 40.061 83.8125 40.0903 83.5998 40.149C83.3945 40.2077 83.2368 40.314 83.1268 40.468C83.0242 40.622 82.9545 40.8383 82.9178 41.117C82.8812 41.3957 82.8628 41.755 82.8628 42.195C82.8628 42.6423 82.8812 43.009 82.9178 43.295C82.9545 43.5737 83.0278 43.79 83.1378 43.944C83.2552 44.0907 83.4165 44.1933 83.6218 44.252C83.8345 44.3033 84.1132 44.329 84.4578 44.329C84.6632 44.329 84.8868 44.318 85.1288 44.296C85.3708 44.274 85.5872 44.2483 85.7778 44.219V44.945C85.5945 44.9817 85.3598 45.0147 85.0738 45.044C84.7878 45.0733 84.5128 45.088 84.2488 45.088ZM87.2624 45V39.39H88.0654L88.1094 40.468H88.1754C88.2707 40.1527 88.4064 39.9107 88.5824 39.742C88.7584 39.5733 88.9711 39.4597 89.2204 39.401C89.4697 39.335 89.7447 39.302 90.0454 39.302V40.182C89.5394 40.182 89.1507 40.2627 88.8794 40.424C88.6081 40.5853 88.4211 40.8347 88.3184 41.172C88.2157 41.5093 88.1644 41.9347 88.1644 42.448V45H87.2624ZM93.4575 47.266C93.2448 47.266 93.0211 47.2587 92.7865 47.244C92.5591 47.2367 92.3391 47.2257 92.1265 47.211C91.9211 47.2037 91.7378 47.189 91.5765 47.167V46.452C91.8185 46.4593 92.0385 46.4667 92.2365 46.474C92.4418 46.4887 92.6288 46.496 92.7975 46.496C92.9735 46.5033 93.1311 46.507 93.2705 46.507C93.6958 46.507 94.0295 46.474 94.2715 46.408C94.5208 46.342 94.7041 46.232 94.8215 46.078C94.9388 45.9313 95.0121 45.7333 95.0415 45.484C95.0781 45.2347 95.0965 44.9303 95.0965 44.571V44.241H95.0305C94.9718 44.3877 94.8728 44.5233 94.7335 44.648C94.5941 44.7727 94.4035 44.8717 94.1615 44.945C93.9195 45.0183 93.6041 45.055 93.2155 45.055C92.8048 45.055 92.4711 45.0147 92.2145 44.934C91.9651 44.846 91.7745 44.714 91.6425 44.538C91.5105 44.3547 91.4188 44.1273 91.3675 43.856C91.3235 43.5847 91.3015 43.262 91.3015 42.888V39.39H92.2035V42.569C92.2035 42.9503 92.2181 43.2547 92.2475 43.482C92.2768 43.7093 92.3391 43.8817 92.4345 43.999C92.5371 44.109 92.6801 44.1823 92.8635 44.219C93.0468 44.2557 93.2851 44.274 93.5785 44.274C93.9451 44.274 94.2311 44.23 94.4365 44.142C94.6418 44.0467 94.7885 43.911 94.8765 43.735C94.9718 43.559 95.0305 43.35 95.0525 43.108C95.0818 42.8587 95.0965 42.58 95.0965 42.272V39.39H95.9875V44.307C95.9875 44.8423 95.9581 45.297 95.8995 45.671C95.8481 46.0523 95.7345 46.3567 95.5585 46.584C95.3898 46.8187 95.1368 46.991 94.7995 47.101C94.4621 47.211 94.0148 47.266 93.4575 47.266ZM97.8864 47.189V39.39H98.7004L98.7334 40.193H98.7994C98.9094 39.9437 99.0598 39.753 99.2504 39.621C99.4411 39.489 99.6574 39.4047 99.8994 39.368C100.141 39.324 100.391 39.302 100.647 39.302C101.051 39.302 101.384 39.346 101.648 39.434C101.92 39.522 102.132 39.676 102.286 39.896C102.44 40.1087 102.55 40.402 102.616 40.776C102.682 41.15 102.715 41.6193 102.715 42.184C102.715 42.756 102.682 43.2327 102.616 43.614C102.558 43.988 102.451 44.2813 102.297 44.494C102.143 44.7067 101.934 44.8607 101.67 44.956C101.406 45.044 101.073 45.088 100.669 45.088C100.369 45.088 100.101 45.0623 99.8664 45.011C99.6318 44.967 99.4264 44.8863 99.2504 44.769C99.0818 44.6517 98.9461 44.4903 98.8434 44.285H98.7884V47.189H97.8864ZM100.295 44.285C100.633 44.285 100.9 44.263 101.098 44.219C101.304 44.175 101.458 44.0833 101.56 43.944C101.663 43.7973 101.733 43.5883 101.769 43.317C101.806 43.0383 101.824 42.6643 101.824 42.195C101.824 41.7257 101.806 41.3517 101.769 41.073C101.733 40.7943 101.663 40.5853 101.56 40.446C101.458 40.3067 101.304 40.215 101.098 40.171C100.9 40.1197 100.633 40.094 100.295 40.094C99.9214 40.094 99.6244 40.149 99.4044 40.259C99.1918 40.3617 99.0378 40.5267 98.9424 40.754C98.8691 40.93 98.8251 41.139 98.8104 41.381C98.7958 41.623 98.7884 41.8943 98.7884 42.195C98.7884 42.503 98.7958 42.7743 98.8104 43.009C98.8251 43.2363 98.8618 43.427 98.9204 43.581C99.0231 43.8377 99.1844 44.021 99.4044 44.131C99.6244 44.2337 99.9214 44.285 100.295 44.285ZM104.794 45V40.149H103.661V39.39H104.794V37.762H105.685V39.39H107.027V40.149H105.685V45H104.794ZM110.432 45.088C109.97 45.088 109.585 45.0587 109.277 45C108.976 44.9487 108.738 44.8607 108.562 44.736C108.386 44.6113 108.254 44.439 108.166 44.219C108.085 43.999 108.034 43.724 108.012 43.394C107.99 43.0567 107.979 42.657 107.979 42.195C107.979 41.733 107.99 41.337 108.012 41.007C108.034 40.6697 108.085 40.391 108.166 40.171C108.254 39.951 108.386 39.7787 108.562 39.654C108.738 39.5293 108.976 39.4413 109.277 39.39C109.585 39.3313 109.97 39.302 110.432 39.302C110.901 39.302 111.286 39.3313 111.587 39.39C111.887 39.4413 112.126 39.5293 112.302 39.654C112.485 39.7787 112.617 39.951 112.698 40.171C112.786 40.391 112.841 40.6697 112.863 41.007C112.885 41.337 112.896 41.733 112.896 42.195C112.896 42.657 112.885 43.0567 112.863 43.394C112.841 43.724 112.786 43.999 112.698 44.219C112.617 44.439 112.485 44.6113 112.302 44.736C112.126 44.8607 111.887 44.9487 111.587 45C111.286 45.0587 110.901 45.088 110.432 45.088ZM110.432 44.329C110.828 44.329 111.132 44.3033 111.345 44.252C111.557 44.2007 111.708 44.1017 111.796 43.955C111.891 43.8083 111.946 43.5957 111.961 43.317C111.983 43.031 111.994 42.657 111.994 42.195C111.994 41.733 111.983 41.3627 111.961 41.084C111.946 40.798 111.891 40.5817 111.796 40.435C111.708 40.2883 111.557 40.1893 111.345 40.138C111.132 40.0867 110.828 40.061 110.432 40.061C110.043 40.061 109.739 40.0867 109.519 40.138C109.306 40.1893 109.156 40.2883 109.068 40.435C108.98 40.5817 108.925 40.798 108.903 41.084C108.881 41.3627 108.87 41.733 108.87 42.195C108.87 42.657 108.881 43.031 108.903 43.317C108.925 43.5957 108.98 43.8083 109.068 43.955C109.156 44.1017 109.306 44.2007 109.519 44.252C109.739 44.3033 110.043 44.329 110.432 44.329ZM118.335 45L116.542 39.39H117.477L118.841 43.911H118.918L120.282 39.39H121.129L122.493 43.911H122.581L123.934 39.39H124.836L123.043 45H122.009L120.722 40.864H120.645L119.369 45H118.335ZM126.116 37.806V36.827H127.073V37.806H126.116ZM126.138 45V39.39H127.04V45H126.138ZM129.404 45V40.149H128.271V39.39H129.404V37.762H130.295V39.39H131.637V40.149H130.295V45H129.404ZM132.874 45V36.827H133.776V40.127H133.831C133.904 39.973 134.01 39.8337 134.15 39.709C134.289 39.5843 134.48 39.489 134.722 39.423C134.964 39.3497 135.272 39.313 135.646 39.313C136.056 39.313 136.386 39.357 136.636 39.445C136.892 39.5257 137.087 39.654 137.219 39.83C137.358 40.006 137.45 40.2333 137.494 40.512C137.538 40.7833 137.56 41.1097 137.56 41.491V45H136.669V41.799C136.669 41.4177 136.65 41.117 136.614 40.897C136.584 40.6697 136.522 40.501 136.427 40.391C136.331 40.2737 136.192 40.1967 136.009 40.16C135.825 40.1233 135.583 40.105 135.283 40.105C134.923 40.105 134.641 40.1527 134.436 40.248C134.23 40.336 134.08 40.468 133.985 40.644C133.889 40.8127 133.831 41.0217 133.809 41.271C133.787 41.513 133.776 41.7917 133.776 42.107V45H132.874ZM144.094 45.088C143.668 45.088 143.316 45.0513 143.038 44.978C142.766 44.9047 142.546 44.7947 142.378 44.648C142.216 44.5013 142.095 44.3143 142.015 44.087C141.934 43.8597 141.879 43.5883 141.85 43.273C141.828 42.9577 141.817 42.5983 141.817 42.195C141.817 41.777 141.831 41.4103 141.861 41.095C141.897 40.7797 141.96 40.5083 142.048 40.281C142.143 40.0463 142.271 39.8593 142.433 39.72C142.601 39.5807 142.818 39.478 143.082 39.412C143.346 39.3387 143.672 39.302 144.061 39.302C144.317 39.302 144.585 39.3167 144.864 39.346C145.15 39.368 145.384 39.401 145.568 39.445V40.171C145.399 40.1417 145.19 40.116 144.941 40.094C144.699 40.072 144.479 40.061 144.281 40.061C143.936 40.061 143.657 40.0903 143.445 40.149C143.239 40.2077 143.082 40.314 142.972 40.468C142.869 40.622 142.799 40.8383 142.763 41.117C142.726 41.3957 142.708 41.755 142.708 42.195C142.708 42.6423 142.726 43.009 142.763 43.295C142.799 43.5737 142.873 43.79 142.983 43.944C143.1 44.0907 143.261 44.1933 143.467 44.252C143.679 44.3033 143.958 44.329 144.303 44.329C144.508 44.329 144.732 44.318 144.974 44.296C145.216 44.274 145.432 44.2483 145.623 44.219V44.945C145.439 44.9817 145.205 45.0147 144.919 45.044C144.633 45.0733 144.358 45.088 144.094 45.088ZM148.614 45.088C148.203 45.088 147.859 45.0403 147.58 44.945C147.309 44.8497 147.103 44.6847 146.964 44.45C146.832 44.2153 146.766 43.8853 146.766 43.46C146.766 43.0347 146.814 42.701 146.909 42.459C147.012 42.2097 147.188 42.0337 147.437 41.931C147.686 41.8283 148.035 41.777 148.482 41.777C148.555 41.777 148.669 41.7807 148.823 41.788C148.984 41.788 149.168 41.7917 149.373 41.799C149.578 41.799 149.784 41.8027 149.989 41.81C150.202 41.81 150.396 41.8137 150.572 41.821V41.469C150.572 41.139 150.55 40.8823 150.506 40.699C150.469 40.5083 150.389 40.369 150.264 40.281C150.139 40.1857 149.963 40.127 149.736 40.105C149.516 40.0757 149.223 40.061 148.856 40.061C148.695 40.061 148.504 40.0683 148.284 40.083C148.064 40.0903 147.848 40.105 147.635 40.127C147.43 40.1417 147.265 40.16 147.14 40.182V39.456C147.419 39.4047 147.73 39.368 148.075 39.346C148.427 39.3167 148.79 39.302 149.164 39.302C149.56 39.302 149.894 39.3277 150.165 39.379C150.444 39.423 150.667 39.4963 150.836 39.599C151.012 39.7017 151.144 39.8373 151.232 40.006C151.32 40.1747 151.379 40.38 151.408 40.622C151.445 40.864 151.463 41.1463 151.463 41.469V45H150.66L150.627 44.208H150.561C150.444 44.4647 150.275 44.659 150.055 44.791C149.842 44.9157 149.608 44.9963 149.351 45.033C149.094 45.0697 148.849 45.088 148.614 45.088ZM148.944 44.351C149.157 44.351 149.355 44.34 149.538 44.318C149.721 44.2887 149.883 44.2373 150.022 44.164C150.161 44.0907 150.271 43.9807 150.352 43.834C150.433 43.68 150.488 43.515 150.517 43.339C150.554 43.1557 150.572 42.943 150.572 42.701V42.415H148.702C148.416 42.415 148.196 42.437 148.042 42.481C147.888 42.525 147.782 42.6167 147.723 42.756C147.672 42.8953 147.646 43.1043 147.646 43.383C147.646 43.6543 147.679 43.8597 147.745 43.999C147.811 44.1383 147.936 44.2337 148.119 44.285C148.31 44.329 148.585 44.351 148.944 44.351ZM153.37 45V39.39H154.173L154.217 40.468H154.283C154.378 40.1527 154.514 39.9107 154.69 39.742C154.866 39.5733 155.078 39.4597 155.328 39.401C155.577 39.335 155.852 39.302 156.153 39.302V40.182C155.647 40.182 155.258 40.2627 154.987 40.424C154.715 40.5853 154.528 40.8347 154.426 41.172C154.323 41.5093 154.272 41.9347 154.272 42.448V45H153.37ZM159.192 45.088C158.789 45.088 158.452 45.044 158.18 44.956C157.916 44.868 157.707 44.7177 157.553 44.505C157.399 44.285 157.289 43.988 157.223 43.614C157.157 43.24 157.124 42.7707 157.124 42.206C157.124 41.634 157.154 41.161 157.212 40.787C157.278 40.4057 157.388 40.1087 157.542 39.896C157.696 39.6833 157.905 39.533 158.169 39.445C158.433 39.3497 158.767 39.302 159.17 39.302C159.471 39.302 159.739 39.3277 159.973 39.379C160.208 39.423 160.41 39.5037 160.578 39.621C160.754 39.7383 160.894 39.8997 160.996 40.105H161.051V36.827H161.953V45H161.15L161.106 44.197H161.04C160.938 44.4537 160.787 44.648 160.589 44.78C160.399 44.9047 160.182 44.9853 159.94 45.022C159.698 45.066 159.449 45.088 159.192 45.088ZM159.544 44.296C159.918 44.296 160.215 44.2447 160.435 44.142C160.655 44.0393 160.809 43.878 160.897 43.658C160.971 43.4527 161.015 43.229 161.029 42.987C161.044 42.745 161.051 42.459 161.051 42.129C161.051 41.8577 161.044 41.612 161.029 41.392C161.015 41.1647 160.974 40.9667 160.908 40.798C160.813 40.5487 160.655 40.3727 160.435 40.27C160.215 40.16 159.911 40.105 159.522 40.105C159.192 40.105 158.928 40.127 158.73 40.171C158.532 40.215 158.382 40.3103 158.279 40.457C158.177 40.5963 158.107 40.8053 158.07 41.084C158.034 41.3553 158.015 41.7257 158.015 42.195C158.015 42.6643 158.034 43.0383 158.07 43.317C158.107 43.5957 158.177 43.8047 158.279 43.944C158.382 44.0833 158.532 44.1787 158.73 44.23C158.936 44.274 159.207 44.296 159.544 44.296ZM165.713 45.088C165.501 45.088 165.273 45.0807 165.031 45.066C164.789 45.0513 164.551 45.033 164.316 45.011C164.082 44.9963 163.869 44.9743 163.678 44.945V44.219C163.854 44.2337 164.023 44.2483 164.184 44.263C164.353 44.2777 164.518 44.2923 164.679 44.307C164.841 44.3143 165.002 44.3217 165.163 44.329C165.325 44.329 165.49 44.329 165.658 44.329C166.04 44.329 166.315 44.3033 166.483 44.252C166.659 44.1933 166.773 44.098 166.824 43.966C166.883 43.834 166.912 43.6617 166.912 43.449C166.912 43.207 166.89 43.031 166.846 42.921C166.81 42.811 166.74 42.7413 166.637 42.712C166.542 42.6753 166.395 42.646 166.197 42.624L164.745 42.459C164.401 42.4223 164.14 42.349 163.964 42.239C163.788 42.1217 163.667 41.9567 163.601 41.744C163.535 41.5313 163.502 41.2637 163.502 40.941C163.502 40.5743 163.554 40.281 163.656 40.061C163.759 39.841 163.906 39.676 164.096 39.566C164.287 39.456 164.518 39.3863 164.789 39.357C165.061 39.3203 165.365 39.302 165.702 39.302C165.893 39.302 166.095 39.3093 166.307 39.324C166.52 39.3387 166.729 39.357 166.934 39.379C167.14 39.401 167.316 39.4267 167.462 39.456V40.182C167.272 40.1527 167.077 40.1307 166.879 40.116C166.689 40.094 166.491 40.0793 166.285 40.072C166.087 40.0647 165.886 40.061 165.68 40.061C165.402 40.061 165.163 40.0757 164.965 40.105C164.767 40.1343 164.617 40.2077 164.514 40.325C164.419 40.4423 164.371 40.6367 164.371 40.908C164.371 41.1207 164.386 41.282 164.415 41.392C164.452 41.4947 164.522 41.568 164.624 41.612C164.727 41.6487 164.87 41.678 165.053 41.7L166.571 41.865C166.872 41.8943 167.107 41.953 167.275 42.041C167.451 42.1217 167.576 42.2683 167.649 42.481C167.73 42.6937 167.77 43.0127 167.77 43.438C167.77 43.79 167.726 44.076 167.638 44.296C167.558 44.5087 167.429 44.6737 167.253 44.791C167.077 44.9083 166.861 44.9853 166.604 45.022C166.348 45.066 166.051 45.088 165.713 45.088ZM168.86 46.32V45.891C169.036 45.891 169.171 45.8727 169.267 45.836C169.362 45.7993 169.424 45.7297 169.454 45.627C169.483 45.5243 169.498 45.3777 169.498 45.187V45H169.091V43.922H170.136V44.824C170.136 45.132 170.117 45.3813 170.081 45.572C170.051 45.77 169.993 45.9203 169.905 46.023C169.817 46.133 169.688 46.21 169.52 46.254C169.351 46.298 169.131 46.32 168.86 46.32ZM176.659 45.088C176.204 45.088 175.823 45.0587 175.515 45C175.214 44.9413 174.972 44.846 174.789 44.714C174.605 44.5747 174.466 44.395 174.371 44.175C174.275 43.9477 174.213 43.6727 174.184 43.35C174.154 43.0273 174.14 42.646 174.14 42.206C174.14 41.6853 174.162 41.2417 174.206 40.875C174.25 40.501 174.349 40.2003 174.503 39.973C174.664 39.7383 174.913 39.5697 175.251 39.467C175.588 39.357 176.043 39.302 176.615 39.302C177.047 39.302 177.399 39.335 177.671 39.401C177.949 39.467 178.169 39.5697 178.331 39.709C178.492 39.8483 178.609 40.0353 178.683 40.27C178.763 40.4973 178.815 40.7723 178.837 41.095C178.859 41.4103 178.87 41.777 178.87 42.195V42.492H175.031C175.031 42.8733 175.049 43.185 175.086 43.427C175.122 43.669 175.196 43.856 175.306 43.988C175.423 44.12 175.603 44.2117 175.845 44.263C176.094 44.3143 176.431 44.34 176.857 44.34C177.033 44.34 177.227 44.3363 177.44 44.329C177.652 44.3143 177.865 44.296 178.078 44.274C178.29 44.252 178.481 44.23 178.65 44.208V44.934C178.496 44.9633 178.305 44.989 178.078 45.011C177.858 45.033 177.623 45.0513 177.374 45.066C177.132 45.0807 176.893 45.088 176.659 45.088ZM178.001 42.041V41.744C178.001 41.3627 177.979 41.062 177.935 40.842C177.891 40.6147 177.814 40.446 177.704 40.336C177.601 40.2187 177.458 40.1417 177.275 40.105C177.091 40.0683 176.864 40.05 176.593 40.05C176.241 40.05 175.962 40.0757 175.757 40.127C175.551 40.171 175.397 40.2553 175.295 40.38C175.192 40.5047 175.122 40.6843 175.086 40.919C175.049 41.1537 175.031 41.4653 175.031 41.854H178.21L178.001 42.041ZM180.218 42.272V41.458H182.891V42.272H180.218ZM185.689 45L183.896 39.39H184.831L186.195 43.911H186.272L187.636 39.39H188.483L189.847 43.911H189.935L191.288 39.39H192.19L190.397 45H189.363L188.076 40.864H187.999L186.723 45H185.689ZM194.891 45.088C194.481 45.088 194.136 45.0403 193.857 44.945C193.586 44.8497 193.381 44.6847 193.241 44.45C193.109 44.2153 193.043 43.8853 193.043 43.46C193.043 43.0347 193.091 42.701 193.186 42.459C193.289 42.2097 193.465 42.0337 193.714 41.931C193.964 41.8283 194.312 41.777 194.759 41.777C194.833 41.777 194.946 41.7807 195.1 41.788C195.262 41.788 195.445 41.7917 195.65 41.799C195.856 41.799 196.061 41.8027 196.266 41.81C196.479 41.81 196.673 41.8137 196.849 41.821V41.469C196.849 41.139 196.827 40.8823 196.783 40.699C196.747 40.5083 196.666 40.369 196.541 40.281C196.417 40.1857 196.241 40.127 196.013 40.105C195.793 40.0757 195.5 40.061 195.133 40.061C194.972 40.061 194.781 40.0683 194.561 40.083C194.341 40.0903 194.125 40.105 193.912 40.127C193.707 40.1417 193.542 40.16 193.417 40.182V39.456C193.696 39.4047 194.008 39.368 194.352 39.346C194.704 39.3167 195.067 39.302 195.441 39.302C195.837 39.302 196.171 39.3277 196.442 39.379C196.721 39.423 196.945 39.4963 197.113 39.599C197.289 39.7017 197.421 39.8373 197.509 40.006C197.597 40.1747 197.656 40.38 197.685 40.622C197.722 40.864 197.74 41.1463 197.74 41.469V45H196.937L196.904 44.208H196.838C196.721 44.4647 196.552 44.659 196.332 44.791C196.12 44.9157 195.885 44.9963 195.628 45.033C195.372 45.0697 195.126 45.088 194.891 45.088ZM195.221 44.351C195.434 44.351 195.632 44.34 195.815 44.318C195.999 44.2887 196.16 44.2373 196.299 44.164C196.439 44.0907 196.549 43.9807 196.629 43.834C196.71 43.68 196.765 43.515 196.794 43.339C196.831 43.1557 196.849 42.943 196.849 42.701V42.415H194.979C194.693 42.415 194.473 42.437 194.319 42.481C194.165 42.525 194.059 42.6167 194 42.756C193.949 42.8953 193.923 43.1043 193.923 43.383C193.923 43.6543 193.956 43.8597 194.022 43.999C194.088 44.1383 194.213 44.2337 194.396 44.285C194.587 44.329 194.862 44.351 195.221 44.351ZM199.647 45V36.827H200.549V45H199.647ZM202.44 45V36.827H203.342V45H202.44ZM207.521 45.088C207.066 45.088 206.685 45.0587 206.377 45C206.076 44.9413 205.834 44.846 205.651 44.714C205.468 44.5747 205.328 44.395 205.233 44.175C205.138 43.9477 205.075 43.6727 205.046 43.35C205.017 43.0273 205.002 42.646 205.002 42.206C205.002 41.6853 205.024 41.2417 205.068 40.875C205.112 40.501 205.211 40.2003 205.365 39.973C205.526 39.7383 205.776 39.5697 206.113 39.467C206.45 39.357 206.905 39.302 207.477 39.302C207.91 39.302 208.262 39.335 208.533 39.401C208.812 39.467 209.032 39.5697 209.193 39.709C209.354 39.8483 209.472 40.0353 209.545 40.27C209.626 40.4973 209.677 40.7723 209.699 41.095C209.721 41.4103 209.732 41.777 209.732 42.195V42.492H205.893C205.893 42.8733 205.911 43.185 205.948 43.427C205.985 43.669 206.058 43.856 206.168 43.988C206.285 44.12 206.465 44.2117 206.707 44.263C206.956 44.3143 207.294 44.34 207.719 44.34C207.895 44.34 208.089 44.3363 208.302 44.329C208.515 44.3143 208.727 44.296 208.94 44.274C209.153 44.252 209.343 44.23 209.512 44.208V44.934C209.358 44.9633 209.167 44.989 208.94 45.011C208.72 45.033 208.485 45.0513 208.236 45.066C207.994 45.0807 207.756 45.088 207.521 45.088ZM208.863 42.041V41.744C208.863 41.3627 208.841 41.062 208.797 40.842C208.753 40.6147 208.676 40.446 208.566 40.336C208.463 40.2187 208.32 40.1417 208.137 40.105C207.954 40.0683 207.726 40.05 207.455 40.05C207.103 40.05 206.824 40.0757 206.619 40.127C206.414 40.171 206.26 40.2553 206.157 40.38C206.054 40.5047 205.985 40.6843 205.948 40.919C205.911 41.1537 205.893 41.4653 205.893 41.854H209.072L208.863 42.041ZM211.851 45V40.149H210.718V39.39H211.851V37.762H212.742V39.39H214.084V40.149H212.742V45H211.851ZM217.19 45.088C216.977 45.088 216.75 45.0807 216.508 45.066C216.266 45.0513 216.028 45.033 215.793 45.011C215.558 44.9963 215.346 44.9743 215.155 44.945V44.219C215.331 44.2337 215.5 44.2483 215.661 44.263C215.83 44.2777 215.995 44.2923 216.156 44.307C216.317 44.3143 216.479 44.3217 216.64 44.329C216.801 44.329 216.966 44.329 217.135 44.329C217.516 44.329 217.791 44.3033 217.96 44.252C218.136 44.1933 218.25 44.098 218.301 43.966C218.36 43.834 218.389 43.6617 218.389 43.449C218.389 43.207 218.367 43.031 218.323 42.921C218.286 42.811 218.217 42.7413 218.114 42.712C218.019 42.6753 217.872 42.646 217.674 42.624L216.222 42.459C215.877 42.4223 215.617 42.349 215.441 42.239C215.265 42.1217 215.144 41.9567 215.078 41.744C215.012 41.5313 214.979 41.2637 214.979 40.941C214.979 40.5743 215.03 40.281 215.133 40.061C215.236 39.841 215.382 39.676 215.573 39.566C215.764 39.456 215.995 39.3863 216.266 39.357C216.537 39.3203 216.842 39.302 217.179 39.302C217.37 39.302 217.571 39.3093 217.784 39.324C217.997 39.3387 218.206 39.357 218.411 39.379C218.616 39.401 218.792 39.4267 218.939 39.456V40.182C218.748 40.1527 218.554 40.1307 218.356 40.116C218.165 40.094 217.967 40.0793 217.762 40.072C217.564 40.0647 217.362 40.061 217.157 40.061C216.878 40.061 216.64 40.0757 216.442 40.105C216.244 40.1343 216.094 40.2077 215.991 40.325C215.896 40.4423 215.848 40.6367 215.848 40.908C215.848 41.1207 215.863 41.282 215.892 41.392C215.929 41.4947 215.998 41.568 216.101 41.612C216.204 41.6487 216.347 41.678 216.53 41.7L218.048 41.865C218.349 41.8943 218.583 41.953 218.752 42.041C218.928 42.1217 219.053 42.2683 219.126 42.481C219.207 42.6937 219.247 43.0127 219.247 43.438C219.247 43.79 219.203 44.076 219.115 44.296C219.034 44.5087 218.906 44.6737 218.73 44.791C218.554 44.9083 218.338 44.9853 218.081 45.022C217.824 45.066 217.527 45.088 217.19 45.088ZM224.905 45.088C224.494 45.088 224.15 45.0403 223.871 44.945C223.6 44.8497 223.394 44.6847 223.255 44.45C223.123 44.2153 223.057 43.8853 223.057 43.46C223.057 43.0347 223.105 42.701 223.2 42.459C223.303 42.2097 223.479 42.0337 223.728 41.931C223.977 41.8283 224.326 41.777 224.773 41.777C224.846 41.777 224.96 41.7807 225.114 41.788C225.275 41.788 225.459 41.7917 225.664 41.799C225.869 41.799 226.075 41.8027 226.28 41.81C226.493 41.81 226.687 41.8137 226.863 41.821V41.469C226.863 41.139 226.841 40.8823 226.797 40.699C226.76 40.5083 226.68 40.369 226.555 40.281C226.43 40.1857 226.254 40.127 226.027 40.105C225.807 40.0757 225.514 40.061 225.147 40.061C224.986 40.061 224.795 40.0683 224.575 40.083C224.355 40.0903 224.139 40.105 223.926 40.127C223.721 40.1417 223.556 40.16 223.431 40.182V39.456C223.71 39.4047 224.021 39.368 224.366 39.346C224.718 39.3167 225.081 39.302 225.455 39.302C225.851 39.302 226.185 39.3277 226.456 39.379C226.735 39.423 226.958 39.4963 227.127 39.599C227.303 39.7017 227.435 39.8373 227.523 40.006C227.611 40.1747 227.67 40.38 227.699 40.622C227.736 40.864 227.754 41.1463 227.754 41.469V45H226.951L226.918 44.208H226.852C226.735 44.4647 226.566 44.659 226.346 44.791C226.133 44.9157 225.899 44.9963 225.642 45.033C225.385 45.0697 225.14 45.088 224.905 45.088ZM225.235 44.351C225.448 44.351 225.646 44.34 225.829 44.318C226.012 44.2887 226.174 44.2373 226.313 44.164C226.452 44.0907 226.562 43.9807 226.643 43.834C226.724 43.68 226.779 43.515 226.808 43.339C226.845 43.1557 226.863 42.943 226.863 42.701V42.415H224.993C224.707 42.415 224.487 42.437 224.333 42.481C224.179 42.525 224.073 42.6167 224.014 42.756C223.963 42.8953 223.937 43.1043 223.937 43.383C223.937 43.6543 223.97 43.8597 224.036 43.999C224.102 44.1383 224.227 44.2337 224.41 44.285C224.601 44.329 224.876 44.351 225.235 44.351ZM229.661 45V39.39H230.475L230.508 40.193H230.574C230.655 40.017 230.765 39.863 230.904 39.731C231.051 39.599 231.245 39.4963 231.487 39.423C231.736 39.3423 232.052 39.302 232.433 39.302C232.851 39.302 233.185 39.346 233.434 39.434C233.683 39.522 233.874 39.654 234.006 39.83C234.145 40.006 234.237 40.2333 234.281 40.512C234.325 40.7833 234.347 41.1097 234.347 41.491V45H233.456V41.799C233.456 41.4177 233.438 41.117 233.401 40.897C233.372 40.6697 233.309 40.501 233.214 40.391C233.119 40.2737 232.979 40.1967 232.796 40.16C232.613 40.1233 232.371 40.105 232.07 40.105C231.711 40.105 231.428 40.1527 231.223 40.248C231.018 40.336 230.867 40.468 230.772 40.644C230.677 40.8127 230.618 41.0217 230.596 41.271C230.574 41.513 230.563 41.7917 230.563 42.107V45H229.661ZM238.083 45.088C237.679 45.088 237.342 45.044 237.071 44.956C236.807 44.868 236.598 44.7177 236.444 44.505C236.29 44.285 236.18 43.988 236.114 43.614C236.048 43.24 236.015 42.7707 236.015 42.206C236.015 41.634 236.044 41.161 236.103 40.787C236.169 40.4057 236.279 40.1087 236.433 39.896C236.587 39.6833 236.796 39.533 237.06 39.445C237.324 39.3497 237.657 39.302 238.061 39.302C238.361 39.302 238.629 39.3277 238.864 39.379C239.098 39.423 239.3 39.5037 239.469 39.621C239.645 39.7383 239.784 39.8997 239.887 40.105H239.942V36.827H240.844V45H240.041L239.997 44.197H239.931C239.828 44.4537 239.678 44.648 239.48 44.78C239.289 44.9047 239.073 44.9853 238.831 45.022C238.589 45.066 238.339 45.088 238.083 45.088ZM238.435 44.296C238.809 44.296 239.106 44.2447 239.326 44.142C239.546 44.0393 239.7 43.878 239.788 43.658C239.861 43.4527 239.905 43.229 239.92 42.987C239.934 42.745 239.942 42.459 239.942 42.129C239.942 41.8577 239.934 41.612 239.92 41.392C239.905 41.1647 239.865 40.9667 239.799 40.798C239.703 40.5487 239.546 40.3727 239.326 40.27C239.106 40.16 238.801 40.105 238.413 40.105C238.083 40.105 237.819 40.127 237.621 40.171C237.423 40.215 237.272 40.3103 237.17 40.457C237.067 40.5963 236.997 40.8053 236.961 41.084C236.924 41.3553 236.906 41.7257 236.906 42.195C236.906 42.6643 236.924 43.0383 236.961 43.317C236.997 43.5957 237.067 43.8047 237.17 43.944C237.272 44.0833 237.423 44.1787 237.621 44.23C237.826 44.274 238.097 44.296 238.435 44.296ZM248.084 45.088C247.827 45.088 247.578 45.066 247.336 45.022C247.094 44.9853 246.878 44.9047 246.687 44.78C246.496 44.648 246.346 44.4537 246.236 44.197H246.17L246.137 45H245.323V36.827H246.225V40.105H246.28C246.383 39.8997 246.518 39.7383 246.687 39.621C246.863 39.5037 247.068 39.423 247.303 39.379C247.538 39.3277 247.805 39.302 248.106 39.302C248.509 39.302 248.843 39.3497 249.107 39.445C249.371 39.533 249.58 39.6833 249.734 39.896C249.888 40.1087 249.994 40.402 250.053 40.776C250.119 41.15 250.152 41.623 250.152 42.195C250.152 42.767 250.119 43.24 250.053 43.614C249.987 43.988 249.877 44.2813 249.723 44.494C249.569 44.7067 249.356 44.8607 249.085 44.956C248.821 45.044 248.487 45.088 248.084 45.088ZM247.732 44.296C248.069 44.296 248.337 44.274 248.535 44.23C248.74 44.1787 248.894 44.0833 248.997 43.944C249.1 43.8047 249.169 43.5957 249.206 43.317C249.243 43.0383 249.261 42.6643 249.261 42.195C249.261 41.7257 249.243 41.3553 249.206 41.084C249.169 40.8053 249.1 40.5963 248.997 40.457C248.894 40.3103 248.74 40.215 248.535 40.171C248.337 40.127 248.069 40.105 247.732 40.105C247.373 40.105 247.087 40.1527 246.874 40.248C246.661 40.336 246.511 40.479 246.423 40.677C246.335 40.8677 246.28 41.0877 246.258 41.337C246.236 41.579 246.225 41.865 246.225 42.195C246.225 42.5177 246.232 42.8037 246.247 43.053C246.269 43.295 246.324 43.5113 246.412 43.702C246.507 43.9073 246.661 44.0577 246.874 44.153C247.087 44.2483 247.373 44.296 247.732 44.296ZM253.318 45.088C252.908 45.088 252.563 45.0403 252.284 44.945C252.013 44.8497 251.808 44.6847 251.668 44.45C251.536 44.2153 251.47 43.8853 251.47 43.46C251.47 43.0347 251.518 42.701 251.613 42.459C251.716 42.2097 251.892 42.0337 252.141 41.931C252.391 41.8283 252.739 41.777 253.186 41.777C253.26 41.777 253.373 41.7807 253.527 41.788C253.689 41.788 253.872 41.7917 254.077 41.799C254.283 41.799 254.488 41.8027 254.693 41.81C254.906 41.81 255.1 41.8137 255.276 41.821V41.469C255.276 41.139 255.254 40.8823 255.21 40.699C255.174 40.5083 255.093 40.369 254.968 40.281C254.844 40.1857 254.668 40.127 254.44 40.105C254.22 40.0757 253.927 40.061 253.56 40.061C253.399 40.061 253.208 40.0683 252.988 40.083C252.768 40.0903 252.552 40.105 252.339 40.127C252.134 40.1417 251.969 40.16 251.844 40.182V39.456C252.123 39.4047 252.435 39.368 252.779 39.346C253.131 39.3167 253.494 39.302 253.868 39.302C254.264 39.302 254.598 39.3277 254.869 39.379C255.148 39.423 255.372 39.4963 255.54 39.599C255.716 39.7017 255.848 39.8373 255.936 40.006C256.024 40.1747 256.083 40.38 256.112 40.622C256.149 40.864 256.167 41.1463 256.167 41.469V45H255.364L255.331 44.208H255.265C255.148 44.4647 254.979 44.659 254.759 44.791C254.547 44.9157 254.312 44.9963 254.055 45.033C253.799 45.0697 253.553 45.088 253.318 45.088ZM253.648 44.351C253.861 44.351 254.059 44.34 254.242 44.318C254.426 44.2887 254.587 44.2373 254.726 44.164C254.866 44.0907 254.976 43.9807 255.056 43.834C255.137 43.68 255.192 43.515 255.221 43.339C255.258 43.1557 255.276 42.943 255.276 42.701V42.415H253.406C253.12 42.415 252.9 42.437 252.746 42.481C252.592 42.525 252.486 42.6167 252.427 42.756C252.376 42.8953 252.35 43.1043 252.35 43.383C252.35 43.6543 252.383 43.8597 252.449 43.999C252.515 44.1383 252.64 44.2337 252.823 44.285C253.014 44.329 253.289 44.351 253.648 44.351ZM258.074 45V39.39H258.888L258.921 40.193H258.987C259.068 40.017 259.178 39.863 259.317 39.731C259.464 39.599 259.658 39.4963 259.9 39.423C260.149 39.3423 260.465 39.302 260.846 39.302C261.264 39.302 261.598 39.346 261.847 39.434C262.096 39.522 262.287 39.654 262.419 39.83C262.558 40.006 262.65 40.2333 262.694 40.512C262.738 40.7833 262.76 41.1097 262.76 41.491V45H261.869V41.799C261.869 41.4177 261.851 41.117 261.814 40.897C261.785 40.6697 261.722 40.501 261.627 40.391C261.532 40.2737 261.392 40.1967 261.209 40.16C261.026 40.1233 260.784 40.105 260.483 40.105C260.124 40.105 259.841 40.1527 259.636 40.248C259.431 40.336 259.28 40.468 259.185 40.644C259.09 40.8127 259.031 41.0217 259.009 41.271C258.987 41.513 258.976 41.7917 258.976 42.107V45H258.074ZM264.659 45V36.827H265.561V41.777H266.265L268.245 39.39H269.257L266.98 42.107L269.29 45H268.245L266.265 42.547H265.561V45H264.659ZM273.629 45V40.149H272.496V39.39H273.629V37.762H274.52V39.39H275.862V40.149H274.52V45H273.629ZM277.098 45V39.39H277.901L277.945 40.468H278.011C278.107 40.1527 278.242 39.9107 278.418 39.742C278.594 39.5733 278.807 39.4597 279.056 39.401C279.306 39.335 279.581 39.302 279.881 39.302V40.182C279.375 40.182 278.987 40.2627 278.715 40.424C278.444 40.5853 278.257 40.8347 278.154 41.172C278.052 41.5093 278 41.9347 278 42.448V45H277.098ZM282.537 45.088C282.126 45.088 281.782 45.0403 281.503 44.945C281.232 44.8497 281.026 44.6847 280.887 44.45C280.755 44.2153 280.689 43.8853 280.689 43.46C280.689 43.0347 280.737 42.701 280.832 42.459C280.935 42.2097 281.111 42.0337 281.36 41.931C281.609 41.8283 281.958 41.777 282.405 41.777C282.478 41.777 282.592 41.7807 282.746 41.788C282.907 41.788 283.091 41.7917 283.296 41.799C283.501 41.799 283.707 41.8027 283.912 41.81C284.125 41.81 284.319 41.8137 284.495 41.821V41.469C284.495 41.139 284.473 40.8823 284.429 40.699C284.392 40.5083 284.312 40.369 284.187 40.281C284.062 40.1857 283.886 40.127 283.659 40.105C283.439 40.0757 283.146 40.061 282.779 40.061C282.618 40.061 282.427 40.0683 282.207 40.083C281.987 40.0903 281.771 40.105 281.558 40.127C281.353 40.1417 281.188 40.16 281.063 40.182V39.456C281.342 39.4047 281.653 39.368 281.998 39.346C282.35 39.3167 282.713 39.302 283.087 39.302C283.483 39.302 283.817 39.3277 284.088 39.379C284.367 39.423 284.59 39.4963 284.759 39.599C284.935 39.7017 285.067 39.8373 285.155 40.006C285.243 40.1747 285.302 40.38 285.331 40.622C285.368 40.864 285.386 41.1463 285.386 41.469V45H284.583L284.55 44.208H284.484C284.367 44.4647 284.198 44.659 283.978 44.791C283.765 44.9157 283.531 44.9963 283.274 45.033C283.017 45.0697 282.772 45.088 282.537 45.088ZM282.867 44.351C283.08 44.351 283.278 44.34 283.461 44.318C283.644 44.2887 283.806 44.2373 283.945 44.164C284.084 44.0907 284.194 43.9807 284.275 43.834C284.356 43.68 284.411 43.515 284.44 43.339C284.477 43.1557 284.495 42.943 284.495 42.701V42.415H282.625C282.339 42.415 282.119 42.437 281.965 42.481C281.811 42.525 281.705 42.6167 281.646 42.756C281.595 42.8953 281.569 43.1043 281.569 43.383C281.569 43.6543 281.602 43.8597 281.668 43.999C281.734 44.1383 281.859 44.2337 282.042 44.285C282.233 44.329 282.508 44.351 282.867 44.351ZM287.293 45V39.39H288.107L288.14 40.193H288.206C288.286 40.017 288.396 39.863 288.536 39.731C288.682 39.599 288.877 39.4963 289.119 39.423C289.368 39.3423 289.683 39.302 290.065 39.302C290.483 39.302 290.816 39.346 291.066 39.434C291.315 39.522 291.506 39.654 291.638 39.83C291.777 40.006 291.869 40.2333 291.913 40.512C291.957 40.7833 291.979 41.1097 291.979 41.491V45H291.088V41.799C291.088 41.4177 291.069 41.117 291.033 40.897C291.003 40.6697 290.941 40.501 290.846 40.391C290.75 40.2737 290.611 40.1967 290.428 40.16C290.244 40.1233 290.002 40.105 289.702 40.105C289.342 40.105 289.06 40.1527 288.855 40.248C288.649 40.336 288.499 40.468 288.404 40.644C288.308 40.8127 288.25 41.0217 288.228 41.271C288.206 41.513 288.195 41.7917 288.195 42.107V45H287.293ZM295.748 45.088C295.535 45.088 295.308 45.0807 295.066 45.066C294.824 45.0513 294.585 45.033 294.351 45.011C294.116 44.9963 293.903 44.9743 293.713 44.945V44.219C293.889 44.2337 294.057 44.2483 294.219 44.263C294.387 44.2777 294.552 44.2923 294.714 44.307C294.875 44.3143 295.036 44.3217 295.198 44.329C295.359 44.329 295.524 44.329 295.693 44.329C296.074 44.329 296.349 44.3033 296.518 44.252C296.694 44.1933 296.807 44.098 296.859 43.966C296.917 43.834 296.947 43.6617 296.947 43.449C296.947 43.207 296.925 43.031 296.881 42.921C296.844 42.811 296.774 42.7413 296.672 42.712C296.576 42.6753 296.43 42.646 296.232 42.624L294.78 42.459C294.435 42.4223 294.175 42.349 293.999 42.239C293.823 42.1217 293.702 41.9567 293.636 41.744C293.57 41.5313 293.537 41.2637 293.537 40.941C293.537 40.5743 293.588 40.281 293.691 40.061C293.793 39.841 293.94 39.676 294.131 39.566C294.321 39.456 294.552 39.3863 294.824 39.357C295.095 39.3203 295.399 39.302 295.737 39.302C295.927 39.302 296.129 39.3093 296.342 39.324C296.554 39.3387 296.763 39.357 296.969 39.379C297.174 39.401 297.35 39.4267 297.497 39.456V40.182C297.306 40.1527 297.112 40.1307 296.914 40.116C296.723 40.094 296.525 40.0793 296.32 40.072C296.122 40.0647 295.92 40.061 295.715 40.061C295.436 40.061 295.198 40.0757 295 40.105C294.802 40.1343 294.651 40.2077 294.549 40.325C294.453 40.4423 294.406 40.6367 294.406 40.908C294.406 41.1207 294.42 41.282 294.45 41.392C294.486 41.4947 294.556 41.568 294.659 41.612C294.761 41.6487 294.904 41.678 295.088 41.7L296.606 41.865C296.906 41.8943 297.141 41.953 297.31 42.041C297.486 42.1217 297.61 42.2683 297.684 42.481C297.764 42.6937 297.805 43.0127 297.805 43.438C297.805 43.79 297.761 44.076 297.673 44.296C297.592 44.5087 297.464 44.6737 297.288 44.791C297.112 44.9083 296.895 44.9853 296.639 45.022C296.382 45.066 296.085 45.088 295.748 45.088ZM299.851 45V40.149H298.707V39.39H299.851V38.499C299.851 38.1837 299.877 37.927 299.928 37.729C299.979 37.5237 300.06 37.3623 300.17 37.245C300.287 37.1203 300.438 37.0287 300.621 36.97C300.804 36.9113 301.024 36.8747 301.281 36.86C301.545 36.8453 301.849 36.838 302.194 36.838V37.52C301.893 37.52 301.648 37.531 301.457 37.553C301.266 37.575 301.12 37.6153 301.017 37.674C300.914 37.7253 300.841 37.806 300.797 37.916C300.76 38.026 300.742 38.169 300.742 38.345V39.39H302.194V40.149H300.742V45H299.851ZM305.694 45.088C305.239 45.088 304.858 45.0587 304.55 45C304.249 44.9413 304.007 44.846 303.824 44.714C303.641 44.5747 303.501 44.395 303.406 44.175C303.311 43.9477 303.248 43.6727 303.219 43.35C303.19 43.0273 303.175 42.646 303.175 42.206C303.175 41.6853 303.197 41.2417 303.241 40.875C303.285 40.501 303.384 40.2003 303.538 39.973C303.699 39.7383 303.949 39.5697 304.286 39.467C304.623 39.357 305.078 39.302 305.65 39.302C306.083 39.302 306.435 39.335 306.706 39.401C306.985 39.467 307.205 39.5697 307.366 39.709C307.527 39.8483 307.645 40.0353 307.718 40.27C307.799 40.4973 307.85 40.7723 307.872 41.095C307.894 41.4103 307.905 41.777 307.905 42.195V42.492H304.066C304.066 42.8733 304.084 43.185 304.121 43.427C304.158 43.669 304.231 43.856 304.341 43.988C304.458 44.12 304.638 44.2117 304.88 44.263C305.129 44.3143 305.467 44.34 305.892 44.34C306.068 44.34 306.262 44.3363 306.475 44.329C306.688 44.3143 306.9 44.296 307.113 44.274C307.326 44.252 307.516 44.23 307.685 44.208V44.934C307.531 44.9633 307.34 44.989 307.113 45.011C306.893 45.033 306.658 45.0513 306.409 45.066C306.167 45.0807 305.929 45.088 305.694 45.088ZM307.036 42.041V41.744C307.036 41.3627 307.014 41.062 306.97 40.842C306.926 40.6147 306.849 40.446 306.739 40.336C306.636 40.2187 306.493 40.1417 306.31 40.105C306.127 40.0683 305.899 40.05 305.628 40.05C305.276 40.05 304.997 40.0757 304.792 40.127C304.587 40.171 304.433 40.2553 304.33 40.38C304.227 40.5047 304.158 40.6843 304.121 40.919C304.084 41.1537 304.066 41.4653 304.066 41.854H307.245L307.036 42.041ZM309.55 45V39.39H310.353L310.397 40.468H310.463C310.559 40.1527 310.694 39.9107 310.87 39.742C311.046 39.5733 311.259 39.4597 311.508 39.401C311.758 39.335 312.033 39.302 312.333 39.302V40.182C311.827 40.182 311.439 40.2627 311.167 40.424C310.896 40.5853 310.709 40.8347 310.606 41.172C310.504 41.5093 310.452 41.9347 310.452 42.448V45H309.55ZM315.46 45.088C315.247 45.088 315.02 45.0807 314.778 45.066C314.536 45.0513 314.297 45.033 314.063 45.011C313.828 44.9963 313.615 44.9743 313.425 44.945V44.219C313.601 44.2337 313.769 44.2483 313.931 44.263C314.099 44.2777 314.264 44.2923 314.426 44.307C314.587 44.3143 314.748 44.3217 314.91 44.329C315.071 44.329 315.236 44.329 315.405 44.329C315.786 44.329 316.061 44.3033 316.23 44.252C316.406 44.1933 316.519 44.098 316.571 43.966C316.629 43.834 316.659 43.6617 316.659 43.449C316.659 43.207 316.637 43.031 316.593 42.921C316.556 42.811 316.486 42.7413 316.384 42.712C316.288 42.6753 316.142 42.646 315.944 42.624L314.492 42.459C314.147 42.4223 313.887 42.349 313.711 42.239C313.535 42.1217 313.414 41.9567 313.348 41.744C313.282 41.5313 313.249 41.2637 313.249 40.941C313.249 40.5743 313.3 40.281 313.403 40.061C313.505 39.841 313.652 39.676 313.843 39.566C314.033 39.456 314.264 39.3863 314.536 39.357C314.807 39.3203 315.111 39.302 315.449 39.302C315.639 39.302 315.841 39.3093 316.054 39.324C316.266 39.3387 316.475 39.357 316.681 39.379C316.886 39.401 317.062 39.4267 317.209 39.456V40.182C317.018 40.1527 316.824 40.1307 316.626 40.116C316.435 40.094 316.237 40.0793 316.032 40.072C315.834 40.0647 315.632 40.061 315.427 40.061C315.148 40.061 314.91 40.0757 314.712 40.105C314.514 40.1343 314.363 40.2077 314.261 40.325C314.165 40.4423 314.118 40.6367 314.118 40.908C314.118 41.1207 314.132 41.282 314.162 41.392C314.198 41.4947 314.268 41.568 314.371 41.612C314.473 41.6487 314.616 41.678 314.8 41.7L316.318 41.865C316.618 41.8943 316.853 41.953 317.022 42.041C317.198 42.1217 317.322 42.2683 317.396 42.481C317.476 42.6937 317.517 43.0127 317.517 43.438C317.517 43.79 317.473 44.076 317.385 44.296C317.304 44.5087 317.176 44.6737 317 44.791C316.824 44.9083 316.607 44.9853 316.351 45.022C316.094 45.066 315.797 45.088 315.46 45.088ZM318.837 45V43.922H319.882V45H318.837Z" fill="white" fill-opacity="0.55"/>
<path d="M58.308 27L61.752 17.368H63.824L67.268 27H65.63L64.79 24.62H60.73L59.904 27H58.308ZM61.178 23.276H64.328L62.788 18.894H62.718L61.178 23.276ZM68.6763 27V16.598H70.1603V27H68.6763ZM75.0417 27.112C74.4911 27.112 74.0337 27.0653 73.6697 26.972C73.3151 26.8693 73.0304 26.7247 72.8157 26.538C72.6011 26.342 72.4424 26.0993 72.3397 25.81C72.2371 25.5113 72.1671 25.166 72.1297 24.774C72.1017 24.3727 72.0877 23.92 72.0877 23.416C72.0877 22.9213 72.1064 22.478 72.1437 22.086C72.1811 21.694 72.2557 21.3533 72.3677 21.064C72.4891 20.7653 72.6571 20.5227 72.8717 20.336C73.0864 20.14 73.3664 19.9953 73.7117 19.902C74.0571 19.7993 74.4911 19.748 75.0137 19.748C75.3497 19.748 75.6997 19.7667 76.0637 19.804C76.4371 19.8413 76.7451 19.888 76.9877 19.944V21.12C76.7824 21.0827 76.5257 21.0547 76.2177 21.036C75.9191 21.008 75.6437 20.994 75.3917 20.994C74.9904 20.994 74.6684 21.0267 74.4257 21.092C74.1924 21.1573 74.0151 21.2787 73.8937 21.456C73.7724 21.6333 73.6884 21.8807 73.6417 22.198C73.6044 22.5153 73.5857 22.926 73.5857 23.43C73.5857 23.9433 73.6044 24.3633 73.6417 24.69C73.6884 25.0167 73.7724 25.264 73.8937 25.432C74.0244 25.6 74.2111 25.7167 74.4537 25.782C74.6964 25.838 75.0184 25.866 75.4197 25.866C75.6531 25.866 75.9144 25.8567 76.2037 25.838C76.5024 25.81 76.7871 25.7773 77.0577 25.74V26.916C76.8057 26.972 76.4931 27.0187 76.1197 27.056C75.7464 27.0933 75.3871 27.112 75.0417 27.112ZM78.8208 27V16.598H80.3048V20.742H80.4028C80.5148 20.5273 80.6642 20.35 80.8508 20.21C81.0375 20.0607 81.2708 19.9487 81.5508 19.874C81.8402 19.7993 82.1902 19.762 82.6008 19.762C83.1048 19.762 83.5108 19.818 83.8188 19.93C84.1362 20.042 84.3742 20.2147 84.5328 20.448C84.6915 20.6813 84.7988 20.9707 84.8548 21.316C84.9202 21.6613 84.9528 22.0673 84.9528 22.534V27H83.4548V23.122C83.4548 22.6553 83.4362 22.2867 83.3988 22.016C83.3708 21.736 83.3055 21.5307 83.2028 21.4C83.1002 21.26 82.9462 21.1713 82.7408 21.134C82.5448 21.0967 82.2788 21.078 81.9428 21.078C81.5695 21.078 81.2708 21.1247 81.0468 21.218C80.8322 21.3113 80.6688 21.4513 80.5568 21.638C80.4542 21.8247 80.3842 22.058 80.3468 22.338C80.3188 22.618 80.3048 22.9447 80.3048 23.318V27H78.8208ZM90.1987 27.112C89.592 27.112 89.088 27.0747 88.6867 27C88.2854 26.916 87.9634 26.7853 87.7207 26.608C87.478 26.4213 87.296 26.188 87.1747 25.908C87.0534 25.6187 86.974 25.2733 86.9367 24.872C86.8994 24.4613 86.8807 23.9853 86.8807 23.444C86.8807 22.8 86.9134 22.2447 86.9787 21.778C87.044 21.3113 87.1794 20.9287 87.3847 20.63C87.59 20.322 87.9074 20.098 88.3367 19.958C88.7754 19.818 89.3587 19.748 90.0867 19.748C90.656 19.748 91.1227 19.7947 91.4867 19.888C91.8507 19.972 92.1354 20.1073 92.3407 20.294C92.5554 20.4807 92.7094 20.7233 92.8027 21.022C92.9054 21.3113 92.9707 21.6613 92.9987 22.072C93.0267 22.4733 93.0407 22.9307 93.0407 23.444V23.92H88.3787C88.3787 24.34 88.3974 24.6807 88.4347 24.942C88.472 25.194 88.556 25.39 88.6867 25.53C88.8267 25.6607 89.0414 25.754 89.3307 25.81C89.6294 25.8567 90.0307 25.88 90.5347 25.88C90.7494 25.88 90.9827 25.8753 91.2347 25.866C91.496 25.8567 91.762 25.838 92.0327 25.81C92.3034 25.782 92.546 25.7587 92.7607 25.74V26.902C92.5554 26.9393 92.308 26.972 92.0187 27C91.7294 27.0373 91.426 27.0653 91.1087 27.084C90.7914 27.1027 90.488 27.112 90.1987 27.112ZM91.6127 23.122V22.856C91.6127 22.436 91.5847 22.1047 91.5287 21.862C91.482 21.61 91.398 21.4233 91.2767 21.302C91.1647 21.1713 91.006 21.0873 90.8007 21.05C90.6047 21.0033 90.3574 20.98 90.0587 20.98C89.6854 20.98 89.3867 21.008 89.1627 21.064C88.948 21.1107 88.7847 21.204 88.6727 21.344C88.5607 21.484 88.4814 21.68 88.4347 21.932C88.3974 22.1747 88.3787 22.4967 88.3787 22.898H91.8647L91.6127 23.122ZM94.9673 27V19.86H96.3393L96.3813 20.812H96.4793C96.582 20.588 96.722 20.3967 96.8993 20.238C97.086 20.0793 97.3147 19.958 97.5853 19.874C97.8653 19.79 98.2013 19.748 98.5933 19.748C99.1907 19.748 99.6387 19.8367 99.9373 20.014C100.236 20.182 100.446 20.448 100.567 20.812H100.679C100.782 20.588 100.927 20.3967 101.113 20.238C101.309 20.0793 101.547 19.958 101.827 19.874C102.117 19.79 102.457 19.748 102.849 19.748C103.465 19.748 103.927 19.8507 104.235 20.056C104.543 20.2613 104.749 20.574 104.851 20.994C104.954 21.4047 105.005 21.918 105.005 22.534V27H103.521V23.122C103.521 22.6553 103.507 22.2867 103.479 22.016C103.451 21.736 103.391 21.5307 103.297 21.4C103.213 21.26 103.078 21.1713 102.891 21.134C102.714 21.0967 102.481 21.078 102.191 21.078C101.855 21.078 101.589 21.1247 101.393 21.218C101.197 21.302 101.053 21.4373 100.959 21.624C100.866 21.8013 100.805 22.03 100.777 22.31C100.749 22.59 100.735 22.926 100.735 23.318V27H99.2513V23.122C99.2513 22.6553 99.2327 22.2867 99.1953 22.016C99.1673 21.736 99.1067 21.5307 99.0133 21.4C98.9293 21.26 98.7987 21.1713 98.6213 21.134C98.444 21.0967 98.206 21.078 97.9073 21.078C97.5807 21.078 97.3193 21.1247 97.1233 21.218C96.9273 21.3113 96.778 21.4513 96.6753 21.638C96.582 21.8153 96.5213 22.0487 96.4933 22.338C96.4653 22.618 96.4513 22.9447 96.4513 23.318V27H94.9673ZM110.059 29.884C109.788 29.884 109.504 29.8747 109.205 29.856C108.916 29.8467 108.636 29.8327 108.365 29.814C108.104 29.7953 107.87 29.772 107.665 29.744V28.582C108.001 28.5913 108.29 28.6007 108.533 28.61C108.785 28.6193 109.009 28.624 109.205 28.624C109.401 28.6333 109.574 28.638 109.723 28.638C110.227 28.638 110.624 28.6053 110.913 28.54C111.202 28.4747 111.417 28.3627 111.557 28.204C111.697 28.0453 111.781 27.826 111.809 27.546C111.846 27.2753 111.865 26.93 111.865 26.51V26.076H111.781C111.688 26.2813 111.548 26.4587 111.361 26.608C111.184 26.748 110.946 26.86 110.647 26.944C110.358 27.0187 109.998 27.056 109.569 27.056C109.074 27.056 108.668 27 108.351 26.888C108.043 26.7667 107.805 26.594 107.637 26.37C107.478 26.1367 107.371 25.8473 107.315 25.502C107.259 25.1567 107.231 24.7553 107.231 24.298V19.86H108.715V23.71C108.715 24.1767 108.729 24.55 108.757 24.83C108.794 25.1007 108.864 25.3013 108.967 25.432C109.07 25.5627 109.219 25.6513 109.415 25.698C109.62 25.7353 109.891 25.754 110.227 25.754C110.6 25.754 110.899 25.7073 111.123 25.614C111.347 25.5207 111.51 25.3807 111.613 25.194C111.725 25.0073 111.795 24.774 111.823 24.494C111.851 24.214 111.865 23.8873 111.865 23.514V19.86H113.363V26.16C113.363 26.8227 113.326 27.3873 113.251 27.854C113.186 28.33 113.041 28.7173 112.817 29.016C112.602 29.3147 112.276 29.534 111.837 29.674C111.398 29.814 110.806 29.884 110.059 29.884ZM119.13 27V17.368H123.442C124.048 17.368 124.538 17.4427 124.912 17.592C125.285 17.7413 125.57 17.956 125.766 18.236C125.971 18.5067 126.106 18.8333 126.172 19.216C126.246 19.5987 126.284 20.0233 126.284 20.49C126.284 20.9287 126.251 21.3393 126.186 21.722C126.12 22.0953 125.985 22.4267 125.78 22.716C125.584 22.996 125.294 23.2153 124.912 23.374C124.529 23.5327 124.025 23.612 123.4 23.612H120.712V27H119.13ZM120.712 22.268H122.798C123.236 22.268 123.586 22.24 123.848 22.184C124.109 22.128 124.296 22.03 124.408 21.89C124.529 21.75 124.608 21.568 124.646 21.344C124.683 21.12 124.702 20.8353 124.702 20.49C124.702 20.1447 124.683 19.86 124.646 19.636C124.618 19.4027 124.543 19.2207 124.422 19.09C124.31 18.95 124.128 18.852 123.876 18.796C123.624 18.74 123.278 18.712 122.84 18.712H120.712V22.268ZM129.873 27.112C129.388 27.112 128.977 27.0467 128.641 26.916C128.315 26.7853 128.067 26.5707 127.899 26.272C127.731 25.964 127.647 25.5487 127.647 25.026C127.647 24.4753 127.713 24.0413 127.843 23.724C127.974 23.3973 128.198 23.164 128.515 23.024C128.833 22.884 129.281 22.814 129.859 22.814C129.953 22.814 130.088 22.8187 130.265 22.828C130.452 22.828 130.662 22.8327 130.895 22.842C131.138 22.842 131.376 22.8467 131.609 22.856C131.852 22.856 132.071 22.8607 132.267 22.87V22.534C132.267 22.17 132.244 21.8853 132.197 21.68C132.151 21.4747 132.053 21.3253 131.903 21.232C131.763 21.1293 131.558 21.064 131.287 21.036C131.017 21.008 130.667 20.994 130.237 20.994C130.032 20.994 129.789 21.0033 129.509 21.022C129.239 21.0313 128.973 21.0453 128.711 21.064C128.45 21.0827 128.249 21.106 128.109 21.134V19.958C128.492 19.8833 128.912 19.832 129.369 19.804C129.827 19.7667 130.284 19.748 130.741 19.748C131.273 19.748 131.717 19.7807 132.071 19.846C132.435 19.9113 132.729 20.014 132.953 20.154C133.177 20.294 133.345 20.476 133.457 20.7C133.569 20.924 133.649 21.1947 133.695 21.512C133.742 21.82 133.765 22.1747 133.765 22.576V27H132.393L132.337 26.076H132.253C132.095 26.3747 131.88 26.6033 131.609 26.762C131.348 26.9113 131.063 27.0047 130.755 27.042C130.447 27.0887 130.153 27.112 129.873 27.112ZM130.531 25.908C130.765 25.908 130.975 25.894 131.161 25.866C131.357 25.8287 131.525 25.7727 131.665 25.698C131.815 25.614 131.931 25.502 132.015 25.362C132.099 25.2033 132.16 25.0213 132.197 24.816C132.244 24.6107 132.267 24.368 132.267 24.088V23.836H130.223C129.915 23.836 129.677 23.8593 129.509 23.906C129.351 23.9527 129.243 24.0507 129.187 24.2C129.131 24.3493 129.103 24.578 129.103 24.886C129.103 25.1753 129.136 25.3947 129.201 25.544C129.267 25.684 129.402 25.782 129.607 25.838C129.822 25.8847 130.13 25.908 130.531 25.908ZM138.811 29.884C138.54 29.884 138.256 29.8747 137.957 29.856C137.668 29.8467 137.388 29.8327 137.117 29.814C136.856 29.7953 136.622 29.772 136.417 29.744V28.582C136.753 28.5913 137.042 28.6007 137.285 28.61C137.537 28.6193 137.761 28.624 137.957 28.624C138.153 28.6333 138.326 28.638 138.475 28.638C138.979 28.638 139.376 28.6053 139.665 28.54C139.954 28.4747 140.169 28.3627 140.309 28.204C140.449 28.0453 140.533 27.826 140.561 27.546C140.598 27.2753 140.617 26.93 140.617 26.51V26.076H140.533C140.44 26.2813 140.3 26.4587 140.113 26.608C139.936 26.748 139.698 26.86 139.399 26.944C139.11 27.0187 138.75 27.056 138.321 27.056C137.826 27.056 137.42 27 137.103 26.888C136.795 26.7667 136.557 26.594 136.389 26.37C136.23 26.1367 136.123 25.8473 136.067 25.502C136.011 25.1567 135.983 24.7553 135.983 24.298V19.86H137.467V23.71C137.467 24.1767 137.481 24.55 137.509 24.83C137.546 25.1007 137.616 25.3013 137.719 25.432C137.822 25.5627 137.971 25.6513 138.167 25.698C138.372 25.7353 138.643 25.754 138.979 25.754C139.352 25.754 139.651 25.7073 139.875 25.614C140.099 25.5207 140.262 25.3807 140.365 25.194C140.477 25.0073 140.547 24.774 140.575 24.494C140.603 24.214 140.617 23.8873 140.617 23.514V19.86H142.115V26.16C142.115 26.8227 142.078 27.3873 142.003 27.854C141.938 28.33 141.793 28.7173 141.569 29.016C141.354 29.3147 141.028 29.534 140.589 29.674C140.15 29.814 139.558 29.884 138.811 29.884Z" fill="white"/>
<circle cx="30" cy="32" r="20" fill="white"/>
<path fill-rule="evenodd" clip-rule="evenodd" d="M27.0475 38.5C26.7137 39.0766 26.542 39.9494 26.542 40.6482C26.5371 41.1094 26.6168 41.5676 26.7771 42H33.4774V36.9237C32.7099 36.4156 31.8076 36.1495 30.8872 36.1596C29.1775 36.1596 27.7974 37.204 27.0451 38.5012L27.0475 38.5ZM26.5309 27.0655V35.3256H26.5403C27.1503 34.7214 28.7496 33.9544 30.427 33.7945C31.6125 33.7064 32.6933 33.8868 33.4833 34.1942V27.0655L29.9885 21L26.5309 27.0655ZM36.0141 31.4653V41.9988H42.0619L36.0141 31.4653ZM23.9854 41.9988V31.4653L17.9375 41.9988H23.9854Z" fill="black"/>
<defs>
<linearGradient id="paint0_linear_13763_18107" x1="167.5" y1="59.4286" x2="167.441" y2="6.17319e-05" gradientUnits="userSpaceOnUse">
<stop stop-color="#7225D5"/>
<stop offset="1" stop-color="#9949FF"/>
</linearGradient>
<linearGradient id="paint1_linear_13763_18107" x1="167.5" y1="0" x2="167.5" y2="64" gradientUnits="userSpaceOnUse">
<stop stop-color="white"/>
<stop offset="1" stop-color="white" stop-opacity="0"/>
</linearGradient>
</defs>
</svg>
