<svg width="64" height="64" viewBox="0 0 64 64" fill="none" xmlns="http://www.w3.org/2000/svg">
<path d="M51.8093 30.476H54.857V33.5236H51.8093V30.476ZM51.8093 6.09521H54.857V9.14276H51.8093V6.09521ZM48.7617 33.5236H51.8093V36.5713H48.7617V33.5236Z" fill="#3A0D50"/>
<path d="M48.7617 30.4761H51.8093V33.5236H48.7617V30.4761Z" fill="#9742C3"/>
<path d="M48.7617 27.4285H51.8093V30.4761H48.7617V27.4285ZM48.7617 9.14282H51.8093V12.1904H48.7617V9.14282Z" fill="#3A0D50"/>
<path d="M48.7617 6.09521H51.8093V9.14276H48.7617V6.09521Z" fill="#9742C3"/>
<path d="M48.7619 3.04761H51.8094V6.09538H48.7619V3.04761ZM45.7144 36.5715H48.7619V39.619H45.7144V36.5715Z" fill="#3A0D50"/>
<path d="M45.7144 33.5236H48.7619V36.5714H45.7144V33.5236ZM45.7144 30.4761H48.7619V33.5236H45.7144V30.4761Z" fill="#9742C3"/>
<path d="M45.7144 27.4286H48.7619V30.4761H45.7144V27.4286ZM45.7144 12.1904H48.7619V15.2382H45.7144V12.1904Z" fill="#3A0D50"/>
<path d="M45.7144 9.14282H48.7619V12.1904H45.7144V9.14282Z" fill="#9742C3"/>
<path d="M45.7144 6.09521H48.7619V9.14276H45.7144V6.09521Z" fill="#9742C3"/>
<path d="M45.7143 3.04761H48.7618V6.09538H45.7143V3.04761ZM42.6665 39.619H45.7143V42.6666H42.6665V39.619Z" fill="#3A0D50"/>
<path d="M42.6665 36.5714H45.7143V39.6189H42.6665V36.5714ZM42.6665 33.5236H45.7143V36.5714H42.6665V33.5236ZM42.6665 30.4761H45.7143V33.5236H42.6665V30.4761Z" fill="#9742C3"/>
<path d="M42.6665 27.4287H45.7143V30.4762H42.6665V27.4287ZM42.6665 15.2383H45.7143V18.2858H42.6665V15.2383Z" fill="#3A0D50"/>
<path d="M42.6665 12.1904H45.7143V15.2381H42.6665V12.1904ZM42.6665 9.14282H45.7143V12.1904H42.6665V9.14282Z" fill="#9742C3"/>
<path d="M42.6665 6.09521H45.7143V9.14276H42.6665V6.09521Z" fill="#9742C3"/>
<path d="M42.6664 3.04761H45.7142V6.09538H42.6664V3.04761ZM39.6189 39.619H42.6664V42.6666H39.6189V39.619Z" fill="#3A0D50"/>
<path d="M39.6189 36.5714H42.6664V39.6189H39.6189V36.5714ZM39.6189 33.5236H42.6664V36.5714H39.6189V33.5236ZM39.6189 30.4761H42.6664V33.5236H39.6189V30.4761Z" fill="#9742C3"/>
<path d="M39.6189 27.4285H42.6664V30.476H39.6189V27.4285ZM39.6189 18.2856H42.6664V21.3332H39.6189V18.2856Z" fill="#3A0D50"/>
<path d="M39.6189 15.2381H42.6664V18.2857H39.6189V15.2381ZM39.6189 12.1904H42.6664V15.2381H39.6189V12.1904ZM39.6189 9.14282H42.6664V12.1904H39.6189V9.14282Z" fill="#9742C3"/>
<path d="M39.6189 6.09521H42.6664V9.14276H39.6189V6.09521Z" fill="#9742C3"/>
<path d="M39.6191 3.04761H42.6666V6.09538H39.6191V3.04761ZM36.5715 42.6666H39.6191V45.7144H36.5715V42.6666Z" fill="#3A0D50"/>
<path d="M36.5715 39.6191H39.6191V42.6666H36.5715V39.6191ZM36.5715 36.5715H39.6191V39.6191H36.5715V36.5715Z" fill="#9742C3"/>
<path d="M36.5715 33.5237H39.6191V36.5715H36.5715V33.5237Z" fill="white"/>
<path d="M36.5715 30.4761H39.6191V33.5236H36.5715V30.4761Z" fill="#9742C3"/>
<path d="M36.5715 27.4286H39.6191V30.4761H36.5715V27.4286ZM36.5715 21.3333H39.6191V24.381H36.5715V21.3333Z" fill="#3A0D50"/>
<path d="M36.5715 18.2857H39.6191V21.3332H36.5715V18.2857ZM36.5715 15.2381H39.6191V18.2857H36.5715V15.2381ZM36.5715 12.1904H39.6191V15.2381H36.5715V12.1904ZM36.5715 9.14282H39.6191V12.1904H36.5715V9.14282Z" fill="#9742C3"/>
<path d="M36.5715 6.09521H39.6191V9.14276H36.5715V6.09521Z" fill="#9742C3"/>
<path d="M36.5715 3.04761H39.619V6.09538H36.5715V3.04761ZM33.5237 45.7144H36.5715V48.7619H33.5237V45.7144Z" fill="#3A0D50"/>
<path d="M33.5237 42.6664H36.5715V45.7142H33.5237V42.6664ZM33.5237 39.6189H36.5715V42.6664H33.5237V39.6189ZM33.5237 36.5713H36.5715V39.6189H33.5237V36.5713ZM33.5237 33.5236H36.5715V36.5713H33.5237V33.5236ZM33.5237 30.476H36.5715V33.5236H33.5237V30.476ZM33.5237 27.4285H36.5715V30.476H33.5237V27.4285Z" fill="#9742C3"/>
<path d="M33.5237 24.3811H36.5715V27.4286H33.5237V24.3811Z" fill="#3A0D50"/>
<path d="M33.5237 21.3333H36.5715V24.3811H33.5237V21.3333ZM33.5237 18.2857H36.5715V21.3333H33.5237V18.2857ZM33.5237 15.2382H36.5715V18.2857H33.5237V15.2382ZM33.5237 12.1904H36.5715V15.2382H33.5237V12.1904Z" fill="#9742C3"/>
<path d="M33.5237 9.14282H36.5715V12.1904H33.5237V9.14282Z" fill="#F3D4FF"/>
<path d="M33.5237 6.09521H36.5715V9.14276H33.5237V6.09521Z" fill="#F3D4FF"/>
<path d="M33.5236 3.04761H36.5714V6.09538H33.5236V3.04761ZM30.4761 48.7619H33.5236V51.8094H30.4761V48.7619Z" fill="#3A0D50"/>
<path d="M30.4761 45.7144H33.5236V48.7619H30.4761V45.7144Z" fill="white"/>
<path d="M30.4761 42.6665H33.5236V45.7143H30.4761V42.6665Z" fill="#F3D4FF"/>
<path d="M30.4761 39.619H33.5236V42.6665H30.4761V39.619ZM30.4761 36.5715H33.5236V39.619H30.4761V36.5715ZM30.4761 33.5237H33.5236V36.5715H30.4761V33.5237Z" fill="#9742C3"/>
<path d="M30.4761 30.4761H33.5236V33.5236H30.4761V30.4761Z" fill="white"/>
<path d="M30.4761 27.4285H33.5236V30.476H30.4761V27.4285ZM30.4761 24.381H33.5236V27.4285H30.4761V24.381ZM30.4761 21.3332H33.5236V24.381H30.4761V21.3332ZM30.4761 18.2856H33.5236V21.3332H30.4761V18.2856Z" fill="#9742C3"/>
<path d="M30.4761 15.2381H33.5236V18.2857H30.4761V15.2381ZM30.4761 12.1904H33.5236V15.2381H30.4761V12.1904ZM30.4761 9.14282H33.5236V12.1904H30.4761V9.14282Z" fill="#F3D4FF"/>
<path d="M30.4761 6.09521H33.5236V9.14276H30.4761V6.09521Z" fill="#55007F"/>
<path d="M30.476 3.04761H33.5236V6.09538H30.476V3.04761ZM27.4285 51.8094H30.476V54.8572H27.4285V51.8094Z" fill="#3A0D50"/>
<path d="M27.4285 48.7617H30.476V51.8093H27.4285V48.7617Z" fill="#9742C3"/>
<path d="M27.4285 45.7144H30.476V48.7619H27.4285V45.7144Z" fill="#F3D4FF"/>
<path d="M27.4285 42.6665H30.476V45.7143H27.4285V42.6665Z" fill="#55007F"/>
<path d="M27.4285 39.6189H30.476V42.6664H27.4285V39.6189Z" fill="#3A0D50"/>
<path d="M27.4285 36.5714H30.476V39.619H27.4285V36.5714ZM27.4285 33.5237H30.476V36.5714H27.4285V33.5237ZM27.4285 30.4761H30.476V33.5237H27.4285V30.4761ZM27.4285 27.4286H30.476V30.4761H27.4285V27.4286ZM27.4285 24.381H30.476V27.4286H27.4285V24.381ZM27.4285 21.3333H30.476V24.381H27.4285V21.3333Z" fill="#9742C3"/>
<path d="M27.4285 18.2858H30.476V21.3334H27.4285V18.2858ZM27.4285 15.2383H30.476V18.2858H27.4285V15.2383Z" fill="#F3D4FF"/>
<path d="M27.4285 12.1904H30.476V15.2381H27.4285V12.1904ZM27.4285 9.14282H30.476V12.1904H27.4285V9.14282Z" fill="#55007F"/>
<path d="M27.4285 6.09521H30.476V9.14276H27.4285V6.09521Z" fill="#55007F"/>
<path d="M27.4286 3.04761H30.4762V6.09538H27.4286V3.04761ZM24.3811 54.8572H27.4286V57.9048H24.3811V54.8572Z" fill="#3A0D50"/>
<path d="M24.3811 51.8093H27.4286V54.8571H24.3811V51.8093Z" fill="#9742C3"/>
<path d="M24.3811 48.7617H27.4286V51.8093H24.3811V48.7617Z" fill="#F3D4FF"/>
<path d="M24.3811 45.7144H27.4286V48.7619H24.3811V45.7144Z" fill="#55007F"/>
<path d="M24.381 42.6666H27.4286V45.7144H24.381V42.6666ZM27.4286 36.5715V39.6191H21.3333V36.5715H27.4286Z" fill="#3A0D50"/>
<path d="M24.3811 33.5237H27.4286V36.5715H24.3811V33.5237ZM24.3811 30.4762H27.4286V33.5237H24.3811V30.4762ZM24.3811 27.4286H27.4286V30.4762H24.3811V27.4286ZM24.3811 24.3811H27.4286V27.4286H24.3811V24.3811Z" fill="#9742C3"/>
<path d="M24.3811 21.3332H27.4286V24.381H24.3811V21.3332ZM24.3811 18.2856H27.4286V21.3332H24.3811V18.2856Z" fill="#F3D4FF"/>
<path d="M24.3811 15.2383H27.4286V18.2858H24.3811V15.2383Z" fill="#55007F"/>
<path d="M24.3811 12.1904H27.4286V15.2381H24.3811V12.1904ZM24.3811 9.14282H27.4286V12.1904H24.3811V9.14282Z" fill="white"/>
<path d="M24.3811 6.09521H27.4286V9.14276H24.3811V6.09521Z" fill="#55007F"/>
<path d="M24.381 3.04761H27.4286V6.09538H24.381V3.04761ZM21.3333 57.9048H24.381V60.9523H21.3333V57.9048Z" fill="#3A0D50"/>
<path d="M21.3333 54.8572H24.381V57.9047H21.3333V54.8572Z" fill="#9742C3"/>
<path d="M21.3333 51.8093H24.381V54.8571H21.3333V51.8093Z" fill="#F3D4FF"/>
<path d="M21.3333 48.7617H24.381V51.8093H21.3333V48.7617Z" fill="#55007F"/>
<path d="M21.3333 45.7144H24.381V48.7619H21.3333V45.7144Z" fill="#3A0D50"/>
<path d="M21.3333 33.5236H24.381V36.5714H21.3333V33.5236ZM21.3333 30.4761H24.381V33.5236H21.3333V30.4761Z" fill="#9742C3"/>
<path d="M21.3333 27.4286H24.381V30.4761H21.3333V27.4286ZM21.3333 24.381H24.381V27.4286H21.3333V24.381ZM21.3333 21.3333H24.381V24.381H21.3333V21.3333Z" fill="#F3D4FF"/>
<path d="M21.3333 18.2858H24.381V21.3334H21.3333V18.2858ZM21.3333 15.2383H24.381V18.2858H21.3333V15.2383Z" fill="#55007F"/>
<path d="M21.3333 12.1904H24.381V15.2382H21.3333V12.1904Z" fill="white"/>
<path d="M21.3333 9.14282H24.381V12.1904H21.3333V9.14282Z" fill="#55007F"/>
<path d="M21.3332 6.09521H24.381V9.14276H21.3332V6.09521ZM18.2856 57.9046H21.3332V60.9521H18.2856V57.9046Z" fill="#3A0D50"/>
<path d="M18.2856 54.8572H21.3332V57.9047H18.2856V54.8572Z" fill="#55007F"/>
<path d="M18.2856 51.8095H21.3332V54.8572H18.2856V51.8095ZM18.2856 48.7619H21.3332V51.8095H18.2856V48.7619ZM18.2856 36.5715H21.3332V39.6191H18.2856V36.5715Z" fill="#3A0D50"/>
<path d="M18.2856 33.5237H21.3332V36.5715H18.2856V33.5237Z" fill="#9742C3"/>
<path d="M18.2856 30.476H21.3332V33.5236H18.2856V30.476ZM18.2856 27.4285H21.3332V30.476H18.2856V27.4285Z" fill="#F3D4FF"/>
<path d="M18.2856 24.3811H21.3332V27.4286H18.2856V24.3811ZM18.2856 21.3333H21.3332V24.3811H18.2856V21.3333ZM18.2856 18.2857H21.3332V21.3333H18.2856V18.2857ZM18.2856 15.2382H21.3332V18.2857H18.2856V15.2382ZM18.2856 12.1904H21.3332V15.2382H18.2856V12.1904Z" fill="#55007F"/>
<path d="M18.2858 9.14282H21.3334V12.1904H18.2858V9.14282ZM15.2383 54.8571H18.2858V57.9047H15.2383V54.8571ZM15.2383 36.5714H18.2858V39.6189H15.2383V36.5714Z" fill="#3A0D50"/>
<path d="M15.2383 33.5236H18.2858V36.5714H15.2383V33.5236ZM15.2383 30.4761H18.2858V33.5236H15.2383V30.4761Z" fill="#F3D4FF"/>
<path d="M15.2383 27.4286H18.2858V30.4762H15.2383V27.4286ZM15.2383 24.3811H18.2858V27.4286H15.2383V24.3811Z" fill="#55007F"/>
<path d="M15.2383 21.3333H18.2858V24.381H15.2383V21.3333Z" fill="#F3D4FF"/>
<path d="M15.2383 18.2858H18.2858V21.3334H15.2383V18.2858ZM15.2383 15.2383H18.2858V18.2858H15.2383V15.2383Z" fill="#55007F"/>
<path d="M15.2382 12.1904H18.2857V15.2382H15.2382V12.1904ZM12.1904 36.5715H15.2382V39.619H12.1904V36.5715Z" fill="#3A0D50"/>
<path d="M12.1904 33.5236H15.2382V36.5714H12.1904V33.5236ZM12.1904 30.4761H15.2382V33.5236H12.1904V30.4761Z" fill="#55007F"/>
<path d="M12.1904 27.4285H15.2382V30.476H12.1904V27.4285Z" fill="#F3D4FF"/>
<path d="M12.1904 24.381H15.2382V27.4286H12.1904V24.381ZM12.1904 21.3333H15.2382V24.381H12.1904V21.3333Z" fill="#55007F"/>
<path d="M12.1904 18.2858H15.2381V21.3334H12.1904V18.2858ZM12.1904 15.2383H15.2381V18.2858H12.1904V15.2383ZM9.14282 36.5715H12.1904V39.6191H9.14282V36.5715Z" fill="#3A0D50"/>
<path d="M9.14282 33.5236H12.1904V36.5713H9.14282V33.5236ZM9.14282 30.476H12.1904V33.5236H9.14282V30.476ZM9.14282 27.4285H12.1904V30.476H9.14282V27.4285Z" fill="#55007F"/>
<path d="M9.14276 24.381H12.1903V27.4286H9.14276V24.381ZM9.14276 21.3333H12.1903V24.381H9.14276V21.3333ZM6.09521 36.5714H9.14276V39.619H6.09521V36.5714Z" fill="#3A0D50"/>
<path d="M6.09521 33.5236H9.14276V36.5714H6.09521V33.5236ZM6.09521 30.4761H9.14276V33.5236H6.09521V30.4761Z" fill="#55007F"/>
<path d="M6.09538 27.4285H9.14292V30.476H6.09538V27.4285ZM3.04761 33.5236H6.09538V36.5713H3.04761V33.5236ZM3.04761 30.476H6.09538V33.5236H3.04761V30.476Z" fill="#3A0D50"/>
</svg>
