<svg width="2256" height="908" viewBox="0 0 2256 908" fill="none" xmlns="http://www.w3.org/2000/svg">
<path d="M2059.28 732.142L2087.04 866.048L2167.99 836L2256 907.5V0.5H0V804.744L16.0147 809.375L22.2199 863.604H56.3301L62.7211 829.118L74.4255 824.488L123.547 861.677L141.122 662.874L150.412 658.615L165.423 635.278L176.273 642.835L213.727 612.638H219.412L218.967 422.428L281.019 384.905L299.634 366.162H361.575L389.852 406.241L392.601 436.023L410.177 446.506L444.732 412.509L492.76 238.111L528.654 238.741L536.234 236L570.806 406.241L587.081 400.722L606.997 312.451L595.293 557.046L627.88 600.089V629.907L683.987 640.946L807.051 645.354L911.425 431.252L974.481 412.509V454.514L984.439 452.292L992.576 380.542L1024.23 334.166L1071.27 360.651L1069.9 570.27L1175.37 718.919L1718.27 765.999L1801.5 726.253L1809.93 720.363L1892.22 587.235L1903.67 585.013V536.451L1927.78 492.297L2007.41 557.046L2037.58 726.253L2059.28 732.142Z" fill="#0D041F"/>
</svg>
