<svg width="24" height="24" viewBox="0 0 24 24" fill="none" xmlns="http://www.w3.org/2000/svg">
<path fill-rule="evenodd" clip-rule="evenodd" d="M3.70706 2.29289C3.31653 1.90237 2.68337 1.90237 2.29284 2.29289C1.90232 2.68342 1.90232 3.31658 2.29284 3.70711L10.5857 12L2.29277 20.293C1.90225 20.6835 1.90225 21.3167 2.29277 21.7072C2.6833 22.0977 3.31646 22.0977 3.70698 21.7072L12 13.4142L20.2929 21.7072C20.6834 22.0977 21.3166 22.0977 21.7071 21.7072C22.0977 21.3167 22.0977 20.6835 21.7071 20.293L13.4142 12L21.7071 3.70711C22.0976 3.31658 22.0976 2.68342 21.7071 2.29289C21.3165 1.90237 20.6834 1.90237 20.2928 2.29289L12 10.5858L3.70706 2.29289Z" fill="white" fill-opacity="0.5"/>
</svg>
