<svg width="335" height="64" viewBox="0 0 335 64" fill="none" xmlns="http://www.w3.org/2000/svg">
<rect width="335" height="64" rx="6" fill="url(#paint0_linear_12153_14347)"/>
<rect x="0.5" y="0.5" width="334" height="63" rx="5.5" stroke="url(#paint1_linear_12153_14347)" stroke-opacity="0.16"/>
<path d="M58.308 45L61.168 37.432H62.356L65.205 45H64.226L63.445 42.932H60.046L59.265 45H58.308ZM60.332 42.107H63.159L61.773 38.4H61.718L60.332 42.107ZM68.3025 45.088C67.8992 45.088 67.5619 45.044 67.2905 44.956C67.0265 44.868 66.8175 44.7177 66.6635 44.505C66.5095 44.285 66.3995 43.988 66.3335 43.614C66.2675 43.24 66.2345 42.7707 66.2345 42.206C66.2345 41.634 66.2639 41.161 66.3225 40.787C66.3885 40.4057 66.4985 40.1087 66.6525 39.896C66.8065 39.6833 67.0155 39.533 67.2795 39.445C67.5435 39.3497 67.8772 39.302 68.2805 39.302C68.5812 39.302 68.8489 39.3277 69.0835 39.379C69.3182 39.423 69.5199 39.5037 69.6885 39.621C69.8645 39.7383 70.0039 39.8997 70.1065 40.105H70.1615V36.827H71.0635V45H70.2605L70.2165 44.197H70.1505C70.0479 44.4537 69.8975 44.648 69.6995 44.78C69.5089 44.9047 69.2925 44.9853 69.0505 45.022C68.8085 45.066 68.5592 45.088 68.3025 45.088ZM68.6545 44.296C69.0285 44.296 69.3255 44.2447 69.5455 44.142C69.7655 44.0393 69.9195 43.878 70.0075 43.658C70.0809 43.4527 70.1249 43.229 70.1395 42.987C70.1542 42.745 70.1615 42.459 70.1615 42.129C70.1615 41.8577 70.1542 41.612 70.1395 41.392C70.1249 41.1647 70.0845 40.9667 70.0185 40.798C69.9232 40.5487 69.7655 40.3727 69.5455 40.27C69.3255 40.16 69.0212 40.105 68.6325 40.105C68.3025 40.105 68.0385 40.127 67.8405 40.171C67.6425 40.215 67.4922 40.3103 67.3895 40.457C67.2869 40.5963 67.2172 40.8053 67.1805 41.084C67.1439 41.3553 67.1255 41.7257 67.1255 42.195C67.1255 42.6643 67.1439 43.0383 67.1805 43.317C67.2172 43.5957 67.2869 43.8047 67.3895 43.944C67.4922 44.0833 67.6425 44.1787 67.8405 44.23C68.0459 44.274 68.3172 44.296 68.6545 44.296ZM74.3618 45L72.3048 39.39H73.2398L74.8898 44.065H74.9778L76.6168 39.39H77.5408L75.4838 45H74.3618ZM80.1864 45.088C79.7757 45.088 79.4311 45.0403 79.1524 44.945C78.8811 44.8497 78.6757 44.6847 78.5364 44.45C78.4044 44.2153 78.3384 43.8853 78.3384 43.46C78.3384 43.0347 78.3861 42.701 78.4814 42.459C78.5841 42.2097 78.7601 42.0337 79.0094 41.931C79.2587 41.8283 79.6071 41.777 80.0544 41.777C80.1277 41.777 80.2414 41.7807 80.3954 41.788C80.5567 41.788 80.7401 41.7917 80.9454 41.799C81.1507 41.799 81.3561 41.8027 81.5614 41.81C81.7741 41.81 81.9684 41.8137 82.1444 41.821V41.469C82.1444 41.139 82.1224 40.8823 82.0784 40.699C82.0417 40.5083 81.9611 40.369 81.8364 40.281C81.7117 40.1857 81.5357 40.127 81.3084 40.105C81.0884 40.0757 80.7951 40.061 80.4284 40.061C80.2671 40.061 80.0764 40.0683 79.8564 40.083C79.6364 40.0903 79.4201 40.105 79.2074 40.127C79.0021 40.1417 78.8371 40.16 78.7124 40.182V39.456C78.9911 39.4047 79.3027 39.368 79.6474 39.346C79.9994 39.3167 80.3624 39.302 80.7364 39.302C81.1324 39.302 81.4661 39.3277 81.7374 39.379C82.0161 39.423 82.2397 39.4963 82.4084 39.599C82.5844 39.7017 82.7164 39.8373 82.8044 40.006C82.8924 40.1747 82.9511 40.38 82.9804 40.622C83.0171 40.864 83.0354 41.1463 83.0354 41.469V45H82.2324L82.1994 44.208H82.1334C82.0161 44.4647 81.8474 44.659 81.6274 44.791C81.4147 44.9157 81.1801 44.9963 80.9234 45.033C80.6667 45.0697 80.4211 45.088 80.1864 45.088ZM80.5164 44.351C80.7291 44.351 80.9271 44.34 81.1104 44.318C81.2937 44.2887 81.4551 44.2373 81.5944 44.164C81.7337 44.0907 81.8437 43.9807 81.9244 43.834C82.0051 43.68 82.0601 43.515 82.0894 43.339C82.1261 43.1557 82.1444 42.943 82.1444 42.701V42.415H80.2744C79.9884 42.415 79.7684 42.437 79.6144 42.481C79.4604 42.525 79.3541 42.6167 79.2954 42.756C79.2441 42.8953 79.2184 43.1043 79.2184 43.383C79.2184 43.6543 79.2514 43.8597 79.3174 43.999C79.3834 44.1383 79.5081 44.2337 79.6914 44.285C79.8821 44.329 80.1571 44.351 80.5164 44.351ZM84.9421 45V39.39H85.7561L85.7891 40.193H85.8551C85.9358 40.017 86.0458 39.863 86.1851 39.731C86.3318 39.599 86.5261 39.4963 86.7681 39.423C87.0174 39.3423 87.3328 39.302 87.7141 39.302C88.1321 39.302 88.4658 39.346 88.7151 39.434C88.9644 39.522 89.1551 39.654 89.2871 39.83C89.4264 40.006 89.5181 40.2333 89.5621 40.512C89.6061 40.7833 89.6281 41.1097 89.6281 41.491V45H88.7371V41.799C88.7371 41.4177 88.7188 41.117 88.6821 40.897C88.6528 40.6697 88.5904 40.501 88.4951 40.391C88.3998 40.2737 88.2604 40.1967 88.0771 40.16C87.8938 40.1233 87.6518 40.105 87.3511 40.105C86.9918 40.105 86.7094 40.1527 86.5041 40.248C86.2988 40.336 86.1484 40.468 86.0531 40.644C85.9578 40.8127 85.8991 41.0217 85.8771 41.271C85.8551 41.513 85.8441 41.7917 85.8441 42.107V45H84.9421ZM93.5731 45.088C93.1477 45.088 92.7957 45.0513 92.5171 44.978C92.2457 44.9047 92.0257 44.7947 91.8571 44.648C91.6957 44.5013 91.5747 44.3143 91.4941 44.087C91.4134 43.8597 91.3584 43.5883 91.3291 43.273C91.3071 42.9577 91.2961 42.5983 91.2961 42.195C91.2961 41.777 91.3107 41.4103 91.3401 41.095C91.3767 40.7797 91.4391 40.5083 91.5271 40.281C91.6224 40.0463 91.7507 39.8593 91.9121 39.72C92.0807 39.5807 92.2971 39.478 92.5611 39.412C92.8251 39.3387 93.1514 39.302 93.5401 39.302C93.7967 39.302 94.0644 39.3167 94.3431 39.346C94.6291 39.368 94.8637 39.401 95.0471 39.445V40.171C94.8784 40.1417 94.6694 40.116 94.4201 40.094C94.1781 40.072 93.9581 40.061 93.7601 40.061C93.4154 40.061 93.1367 40.0903 92.9241 40.149C92.7187 40.2077 92.5611 40.314 92.4511 40.468C92.3484 40.622 92.2787 40.8383 92.2421 41.117C92.2054 41.3957 92.1871 41.755 92.1871 42.195C92.1871 42.6423 92.2054 43.009 92.2421 43.295C92.2787 43.5737 92.3521 43.79 92.4621 43.944C92.5794 44.0907 92.7407 44.1933 92.9461 44.252C93.1587 44.3033 93.4374 44.329 93.7821 44.329C93.9874 44.329 94.2111 44.318 94.4531 44.296C94.6951 44.274 94.9114 44.2483 95.1021 44.219V44.945C94.9187 44.9817 94.6841 45.0147 94.3981 45.044C94.1121 45.0733 93.8371 45.088 93.5731 45.088ZM98.8746 45.088C98.42 45.088 98.0386 45.0587 97.7306 45C97.43 44.9413 97.188 44.846 97.0046 44.714C96.8213 44.5747 96.682 44.395 96.5866 44.175C96.4913 43.9477 96.429 43.6727 96.3996 43.35C96.3703 43.0273 96.3556 42.646 96.3556 42.206C96.3556 41.6853 96.3776 41.2417 96.4216 40.875C96.4656 40.501 96.5646 40.2003 96.7186 39.973C96.88 39.7383 97.1293 39.5697 97.4666 39.467C97.804 39.357 98.2586 39.302 98.8306 39.302C99.2633 39.302 99.6153 39.335 99.8866 39.401C100.165 39.467 100.385 39.5697 100.547 39.709C100.708 39.8483 100.825 40.0353 100.899 40.27C100.979 40.4973 101.031 40.7723 101.053 41.095C101.075 41.4103 101.086 41.777 101.086 42.195V42.492H97.2466C97.2466 42.8733 97.265 43.185 97.3016 43.427C97.3383 43.669 97.4116 43.856 97.5216 43.988C97.639 44.12 97.8186 44.2117 98.0606 44.263C98.31 44.3143 98.6473 44.34 99.0726 44.34C99.2486 44.34 99.443 44.3363 99.6556 44.329C99.8683 44.3143 100.081 44.296 100.294 44.274C100.506 44.252 100.697 44.23 100.866 44.208V44.934C100.712 44.9633 100.521 44.989 100.294 45.011C100.074 45.033 99.839 45.0513 99.5896 45.066C99.3476 45.0807 99.1093 45.088 98.8746 45.088ZM100.217 42.041V41.744C100.217 41.3627 100.195 41.062 100.151 40.842C100.107 40.6147 100.03 40.446 99.9196 40.336C99.817 40.2187 99.674 40.1417 99.4906 40.105C99.3073 40.0683 99.08 40.05 98.8086 40.05C98.4566 40.05 98.178 40.0757 97.9726 40.127C97.7673 40.171 97.6133 40.2553 97.5106 40.38C97.408 40.5047 97.3383 40.6843 97.3016 40.919C97.265 41.1537 97.2466 41.4653 97.2466 41.854H100.426L100.217 42.041ZM104.568 45.088C104.165 45.088 103.827 45.044 103.556 44.956C103.292 44.868 103.083 44.7177 102.929 44.505C102.775 44.285 102.665 43.988 102.599 43.614C102.533 43.24 102.5 42.7707 102.5 42.206C102.5 41.634 102.529 41.161 102.588 40.787C102.654 40.4057 102.764 40.1087 102.918 39.896C103.072 39.6833 103.281 39.533 103.545 39.445C103.809 39.3497 104.143 39.302 104.546 39.302C104.847 39.302 105.114 39.3277 105.349 39.379C105.584 39.423 105.785 39.5037 105.954 39.621C106.13 39.7383 106.269 39.8997 106.372 40.105H106.427V36.827H107.329V45H106.526L106.482 44.197H106.416C106.313 44.4537 106.163 44.648 105.965 44.78C105.774 44.9047 105.558 44.9853 105.316 45.022C105.074 45.066 104.825 45.088 104.568 45.088ZM104.92 44.296C105.294 44.296 105.591 44.2447 105.811 44.142C106.031 44.0393 106.185 43.878 106.273 43.658C106.346 43.4527 106.39 43.229 106.405 42.987C106.42 42.745 106.427 42.459 106.427 42.129C106.427 41.8577 106.42 41.612 106.405 41.392C106.39 41.1647 106.35 40.9667 106.284 40.798C106.189 40.5487 106.031 40.3727 105.811 40.27C105.591 40.16 105.287 40.105 104.898 40.105C104.568 40.105 104.304 40.127 104.106 40.171C103.908 40.215 103.758 40.3103 103.655 40.457C103.552 40.5963 103.483 40.8053 103.446 41.084C103.409 41.3553 103.391 41.7257 103.391 42.195C103.391 42.6643 103.409 43.0383 103.446 43.317C103.483 43.5957 103.552 43.8047 103.655 43.944C103.758 44.0833 103.908 44.1787 104.106 44.23C104.311 44.274 104.583 44.296 104.92 44.296ZM111.808 47.189V39.39H112.622L112.655 40.193H112.721C112.831 39.9437 112.982 39.753 113.172 39.621C113.363 39.489 113.579 39.4047 113.821 39.368C114.063 39.324 114.313 39.302 114.569 39.302C114.973 39.302 115.306 39.346 115.57 39.434C115.842 39.522 116.054 39.676 116.208 39.896C116.362 40.1087 116.472 40.402 116.538 40.776C116.604 41.15 116.637 41.6193 116.637 42.184C116.637 42.756 116.604 43.2327 116.538 43.614C116.48 43.988 116.373 44.2813 116.219 44.494C116.065 44.7067 115.856 44.8607 115.592 44.956C115.328 45.044 114.995 45.088 114.591 45.088C114.291 45.088 114.023 45.0623 113.788 45.011C113.554 44.967 113.348 44.8863 113.172 44.769C113.004 44.6517 112.868 44.4903 112.765 44.285H112.71V47.189H111.808ZM114.217 44.285C114.555 44.285 114.822 44.263 115.02 44.219C115.226 44.175 115.38 44.0833 115.482 43.944C115.585 43.7973 115.655 43.5883 115.691 43.317C115.728 43.0383 115.746 42.6643 115.746 42.195C115.746 41.7257 115.728 41.3517 115.691 41.073C115.655 40.7943 115.585 40.5853 115.482 40.446C115.38 40.3067 115.226 40.215 115.02 40.171C114.822 40.1197 114.555 40.094 114.217 40.094C113.843 40.094 113.546 40.149 113.326 40.259C113.114 40.3617 112.96 40.5267 112.864 40.754C112.791 40.93 112.747 41.139 112.732 41.381C112.718 41.623 112.71 41.8943 112.71 42.195C112.71 42.503 112.718 42.7743 112.732 43.009C112.747 43.2363 112.784 43.427 112.842 43.581C112.945 43.8377 113.106 44.021 113.326 44.131C113.546 44.2337 113.843 44.285 114.217 44.285ZM119.804 45.088C119.393 45.088 119.048 45.0403 118.77 44.945C118.498 44.8497 118.293 44.6847 118.154 44.45C118.022 44.2153 117.956 43.8853 117.956 43.46C117.956 43.0347 118.003 42.701 118.099 42.459C118.201 42.2097 118.377 42.0337 118.627 41.931C118.876 41.8283 119.224 41.777 119.672 41.777C119.745 41.777 119.859 41.7807 120.013 41.788C120.174 41.788 120.357 41.7917 120.563 41.799C120.768 41.799 120.973 41.8027 121.179 41.81C121.391 41.81 121.586 41.8137 121.762 41.821V41.469C121.762 41.139 121.74 40.8823 121.696 40.699C121.659 40.5083 121.578 40.369 121.454 40.281C121.329 40.1857 121.153 40.127 120.926 40.105C120.706 40.0757 120.412 40.061 120.046 40.061C119.884 40.061 119.694 40.0683 119.474 40.083C119.254 40.0903 119.037 40.105 118.825 40.127C118.619 40.1417 118.454 40.16 118.33 40.182V39.456C118.608 39.4047 118.92 39.368 119.265 39.346C119.617 39.3167 119.98 39.302 120.354 39.302C120.75 39.302 121.083 39.3277 121.355 39.379C121.633 39.423 121.857 39.4963 122.026 39.599C122.202 39.7017 122.334 39.8373 122.422 40.006C122.51 40.1747 122.568 40.38 122.598 40.622C122.634 40.864 122.653 41.1463 122.653 41.469V45H121.85L121.817 44.208H121.751C121.633 44.4647 121.465 44.659 121.245 44.791C121.032 44.9157 120.797 44.9963 120.541 45.033C120.284 45.0697 120.038 45.088 119.804 45.088ZM120.134 44.351C120.346 44.351 120.544 44.34 120.728 44.318C120.911 44.2887 121.072 44.2373 121.212 44.164C121.351 44.0907 121.461 43.9807 121.542 43.834C121.622 43.68 121.677 43.515 121.707 43.339C121.743 43.1557 121.762 42.943 121.762 42.701V42.415H119.892C119.606 42.415 119.386 42.437 119.232 42.481C119.078 42.525 118.971 42.6167 118.913 42.756C118.861 42.8953 118.836 43.1043 118.836 43.383C118.836 43.6543 118.869 43.8597 118.935 43.999C119.001 44.1383 119.125 44.2337 119.309 44.285C119.499 44.329 119.774 44.351 120.134 44.351ZM126.715 47.266C126.503 47.266 126.279 47.2587 126.044 47.244C125.817 47.2367 125.597 47.2257 125.384 47.211C125.179 47.2037 124.996 47.189 124.834 47.167V46.452C125.076 46.4593 125.296 46.4667 125.494 46.474C125.7 46.4887 125.887 46.496 126.055 46.496C126.231 46.5033 126.389 46.507 126.528 46.507C126.954 46.507 127.287 46.474 127.529 46.408C127.779 46.342 127.962 46.232 128.079 46.078C128.197 45.9313 128.27 45.7333 128.299 45.484C128.336 45.2347 128.354 44.9303 128.354 44.571V44.241H128.288C128.23 44.3877 128.131 44.5233 127.991 44.648C127.852 44.7727 127.661 44.8717 127.419 44.945C127.177 45.0183 126.862 45.055 126.473 45.055C126.063 45.055 125.729 45.0147 125.472 44.934C125.223 44.846 125.032 44.714 124.9 44.538C124.768 44.3547 124.677 44.1273 124.625 43.856C124.581 43.5847 124.559 43.262 124.559 42.888V39.39H125.461V42.569C125.461 42.9503 125.476 43.2547 125.505 43.482C125.535 43.7093 125.597 43.8817 125.692 43.999C125.795 44.109 125.938 44.1823 126.121 44.219C126.305 44.2557 126.543 44.274 126.836 44.274C127.203 44.274 127.489 44.23 127.694 44.142C127.9 44.0467 128.046 43.911 128.134 43.735C128.23 43.559 128.288 43.35 128.31 43.108C128.34 42.8587 128.354 42.58 128.354 42.272V39.39H129.245V44.307C129.245 44.8423 129.216 45.297 129.157 45.671C129.106 46.0523 128.992 46.3567 128.816 46.584C128.648 46.8187 128.395 46.991 128.057 47.101C127.72 47.211 127.273 47.266 126.715 47.266ZM131.144 45V39.39H131.958L131.991 40.193H132.057C132.123 40.017 132.222 39.863 132.354 39.731C132.494 39.599 132.673 39.4963 132.893 39.423C133.121 39.3423 133.41 39.302 133.762 39.302C134.261 39.302 134.631 39.3753 134.873 39.522C135.115 39.6613 135.284 39.885 135.379 40.193H135.445C135.519 40.017 135.625 39.863 135.764 39.731C135.904 39.599 136.091 39.4963 136.325 39.423C136.56 39.3423 136.85 39.302 137.194 39.302C137.7 39.302 138.078 39.379 138.327 39.533C138.577 39.687 138.742 39.9253 138.822 40.248C138.903 40.5707 138.943 40.985 138.943 41.491V45H138.052V41.799C138.052 41.4177 138.038 41.117 138.008 40.897C137.979 40.6697 137.924 40.501 137.843 40.391C137.763 40.2737 137.642 40.1967 137.48 40.16C137.319 40.1233 137.103 40.105 136.831 40.105C136.516 40.105 136.267 40.149 136.083 40.237C135.9 40.3177 135.764 40.4423 135.676 40.611C135.596 40.7797 135.544 40.9887 135.522 41.238C135.5 41.4873 135.489 41.777 135.489 42.107V45H134.598V41.799C134.598 41.4177 134.584 41.117 134.554 40.897C134.525 40.6697 134.47 40.501 134.389 40.391C134.309 40.2737 134.188 40.1967 134.026 40.16C133.865 40.1233 133.649 40.105 133.377 40.105C133.062 40.105 132.813 40.1527 132.629 40.248C132.446 40.336 132.314 40.4643 132.233 40.633C132.153 40.8017 132.101 41.0107 132.079 41.26C132.057 41.5093 132.046 41.7917 132.046 42.107V45H131.144ZM143.132 45.088C142.678 45.088 142.296 45.0587 141.988 45C141.688 44.9413 141.446 44.846 141.262 44.714C141.079 44.5747 140.94 44.395 140.844 44.175C140.749 43.9477 140.687 43.6727 140.657 43.35C140.628 43.0273 140.613 42.646 140.613 42.206C140.613 41.6853 140.635 41.2417 140.679 40.875C140.723 40.501 140.822 40.2003 140.976 39.973C141.138 39.7383 141.387 39.5697 141.724 39.467C142.062 39.357 142.516 39.302 143.088 39.302C143.521 39.302 143.873 39.335 144.144 39.401C144.423 39.467 144.643 39.5697 144.804 39.709C144.966 39.8483 145.083 40.0353 145.156 40.27C145.237 40.4973 145.288 40.7723 145.31 41.095C145.332 41.4103 145.343 41.777 145.343 42.195V42.492H141.504C141.504 42.8733 141.523 43.185 141.559 43.427C141.596 43.669 141.669 43.856 141.779 43.988C141.897 44.12 142.076 44.2117 142.318 44.263C142.568 44.3143 142.905 44.34 143.33 44.34C143.506 44.34 143.701 44.3363 143.913 44.329C144.126 44.3143 144.339 44.296 144.551 44.274C144.764 44.252 144.955 44.23 145.123 44.208V44.934C144.969 44.9633 144.779 44.989 144.551 45.011C144.331 45.033 144.097 45.0513 143.847 45.066C143.605 45.0807 143.367 45.088 143.132 45.088ZM144.474 42.041V41.744C144.474 41.3627 144.452 41.062 144.408 40.842C144.364 40.6147 144.287 40.446 144.177 40.336C144.075 40.2187 143.932 40.1417 143.748 40.105C143.565 40.0683 143.338 40.05 143.066 40.05C142.714 40.05 142.436 40.0757 142.23 40.127C142.025 40.171 141.871 40.2553 141.768 40.38C141.666 40.5047 141.596 40.6843 141.559 40.919C141.523 41.1537 141.504 41.4653 141.504 41.854H144.683L144.474 42.041ZM146.989 45V39.39H147.803L147.836 40.193H147.902C147.983 40.017 148.093 39.863 148.232 39.731C148.379 39.599 148.573 39.4963 148.815 39.423C149.064 39.3423 149.38 39.302 149.761 39.302C150.179 39.302 150.513 39.346 150.762 39.434C151.011 39.522 151.202 39.654 151.334 39.83C151.473 40.006 151.565 40.2333 151.609 40.512C151.653 40.7833 151.675 41.1097 151.675 41.491V45H150.784V41.799C150.784 41.4177 150.766 41.117 150.729 40.897C150.7 40.6697 150.637 40.501 150.542 40.391C150.447 40.2737 150.307 40.1967 150.124 40.16C149.941 40.1233 149.699 40.105 149.398 40.105C149.039 40.105 148.756 40.1527 148.551 40.248C148.346 40.336 148.195 40.468 148.1 40.644C148.005 40.8127 147.946 41.0217 147.924 41.271C147.902 41.513 147.891 41.7917 147.891 42.107V45H146.989ZM154.047 45V40.149H152.914V39.39H154.047V37.762H154.938V39.39H156.28V40.149H154.938V45H154.047ZM160.105 45V39.39H160.919L160.952 40.193H161.018C161.084 40.017 161.183 39.863 161.315 39.731C161.455 39.599 161.634 39.4963 161.854 39.423C162.082 39.3423 162.371 39.302 162.723 39.302C163.222 39.302 163.592 39.3753 163.834 39.522C164.076 39.6613 164.245 39.885 164.34 40.193H164.406C164.48 40.017 164.586 39.863 164.725 39.731C164.865 39.599 165.052 39.4963 165.286 39.423C165.521 39.3423 165.811 39.302 166.155 39.302C166.661 39.302 167.039 39.379 167.288 39.533C167.538 39.687 167.703 39.9253 167.783 40.248C167.864 40.5707 167.904 40.985 167.904 41.491V45H167.013V41.799C167.013 41.4177 166.999 41.117 166.969 40.897C166.94 40.6697 166.885 40.501 166.804 40.391C166.724 40.2737 166.603 40.1967 166.441 40.16C166.28 40.1233 166.064 40.105 165.792 40.105C165.477 40.105 165.228 40.149 165.044 40.237C164.861 40.3177 164.725 40.4423 164.637 40.611C164.557 40.7797 164.505 40.9887 164.483 41.238C164.461 41.4873 164.45 41.777 164.45 42.107V45H163.559V41.799C163.559 41.4177 163.545 41.117 163.515 40.897C163.486 40.6697 163.431 40.501 163.35 40.391C163.27 40.2737 163.149 40.1967 162.987 40.16C162.826 40.1233 162.61 40.105 162.338 40.105C162.023 40.105 161.774 40.1527 161.59 40.248C161.407 40.336 161.275 40.4643 161.194 40.633C161.114 40.8017 161.062 41.0107 161.04 41.26C161.018 41.5093 161.007 41.7917 161.007 42.107V45H160.105ZM172.093 45.088C171.639 45.088 171.257 45.0587 170.949 45C170.649 44.9413 170.407 44.846 170.223 44.714C170.04 44.5747 169.901 44.395 169.805 44.175C169.71 43.9477 169.648 43.6727 169.618 43.35C169.589 43.0273 169.574 42.646 169.574 42.206C169.574 41.6853 169.596 41.2417 169.64 40.875C169.684 40.501 169.783 40.2003 169.937 39.973C170.099 39.7383 170.348 39.5697 170.685 39.467C171.023 39.357 171.477 39.302 172.049 39.302C172.482 39.302 172.834 39.335 173.105 39.401C173.384 39.467 173.604 39.5697 173.765 39.709C173.927 39.8483 174.044 40.0353 174.117 40.27C174.198 40.4973 174.249 40.7723 174.271 41.095C174.293 41.4103 174.304 41.777 174.304 42.195V42.492H170.465C170.465 42.8733 170.484 43.185 170.52 43.427C170.557 43.669 170.63 43.856 170.74 43.988C170.858 44.12 171.037 44.2117 171.279 44.263C171.529 44.3143 171.866 44.34 172.291 44.34C172.467 44.34 172.662 44.3363 172.874 44.329C173.087 44.3143 173.3 44.296 173.512 44.274C173.725 44.252 173.916 44.23 174.084 44.208V44.934C173.93 44.9633 173.74 44.989 173.512 45.011C173.292 45.033 173.058 45.0513 172.808 45.066C172.566 45.0807 172.328 45.088 172.093 45.088ZM173.435 42.041V41.744C173.435 41.3627 173.413 41.062 173.369 40.842C173.325 40.6147 173.248 40.446 173.138 40.336C173.036 40.2187 172.893 40.1417 172.709 40.105C172.526 40.0683 172.299 40.05 172.027 40.05C171.675 40.05 171.397 40.0757 171.191 40.127C170.986 40.171 170.832 40.2553 170.729 40.38C170.627 40.5047 170.557 40.6843 170.52 40.919C170.484 41.1537 170.465 41.4653 170.465 41.854H173.644L173.435 42.041ZM176.423 45V40.149H175.29V39.39H176.423V37.762H177.314V39.39H178.656V40.149H177.314V45H176.423ZM179.892 45V36.827H180.794V40.127H180.849C180.923 39.973 181.029 39.8337 181.168 39.709C181.308 39.5843 181.498 39.489 181.74 39.423C181.982 39.3497 182.29 39.313 182.664 39.313C183.075 39.313 183.405 39.357 183.654 39.445C183.911 39.5257 184.105 39.654 184.237 39.83C184.377 40.006 184.468 40.2333 184.512 40.512C184.556 40.7833 184.578 41.1097 184.578 41.491V45H183.687V41.799C183.687 41.4177 183.669 41.117 183.632 40.897C183.603 40.6697 183.541 40.501 183.445 40.391C183.35 40.2737 183.211 40.1967 183.027 40.16C182.844 40.1233 182.602 40.105 182.301 40.105C181.942 40.105 181.66 40.1527 181.454 40.248C181.249 40.336 181.099 40.468 181.003 40.644C180.908 40.8127 180.849 41.0217 180.827 41.271C180.805 41.513 180.794 41.7917 180.794 42.107V45H179.892ZM188.699 45.088C188.237 45.088 187.852 45.0587 187.544 45C187.244 44.9487 187.005 44.8607 186.829 44.736C186.653 44.6113 186.521 44.439 186.433 44.219C186.353 43.999 186.301 43.724 186.279 43.394C186.257 43.0567 186.246 42.657 186.246 42.195C186.246 41.733 186.257 41.337 186.279 41.007C186.301 40.6697 186.353 40.391 186.433 40.171C186.521 39.951 186.653 39.7787 186.829 39.654C187.005 39.5293 187.244 39.4413 187.544 39.39C187.852 39.3313 188.237 39.302 188.699 39.302C189.169 39.302 189.554 39.3313 189.854 39.39C190.155 39.4413 190.393 39.5293 190.569 39.654C190.753 39.7787 190.885 39.951 190.965 40.171C191.053 40.391 191.108 40.6697 191.13 41.007C191.152 41.337 191.163 41.733 191.163 42.195C191.163 42.657 191.152 43.0567 191.13 43.394C191.108 43.724 191.053 43.999 190.965 44.219C190.885 44.439 190.753 44.6113 190.569 44.736C190.393 44.8607 190.155 44.9487 189.854 45C189.554 45.0587 189.169 45.088 188.699 45.088ZM188.699 44.329C189.095 44.329 189.4 44.3033 189.612 44.252C189.825 44.2007 189.975 44.1017 190.063 43.955C190.159 43.8083 190.214 43.5957 190.228 43.317C190.25 43.031 190.261 42.657 190.261 42.195C190.261 41.733 190.25 41.3627 190.228 41.084C190.214 40.798 190.159 40.5817 190.063 40.435C189.975 40.2883 189.825 40.1893 189.612 40.138C189.4 40.0867 189.095 40.061 188.699 40.061C188.311 40.061 188.006 40.0867 187.786 40.138C187.574 40.1893 187.423 40.2883 187.335 40.435C187.247 40.5817 187.192 40.798 187.17 41.084C187.148 41.3627 187.137 41.733 187.137 42.195C187.137 42.657 187.148 43.031 187.17 43.317C187.192 43.5957 187.247 43.8083 187.335 43.955C187.423 44.1017 187.574 44.2007 187.786 44.252C188.006 44.3033 188.311 44.329 188.699 44.329ZM194.663 45.088C194.26 45.088 193.922 45.044 193.651 44.956C193.387 44.868 193.178 44.7177 193.024 44.505C192.87 44.285 192.76 43.988 192.694 43.614C192.628 43.24 192.595 42.7707 192.595 42.206C192.595 41.634 192.624 41.161 192.683 40.787C192.749 40.4057 192.859 40.1087 193.013 39.896C193.167 39.6833 193.376 39.533 193.64 39.445C193.904 39.3497 194.238 39.302 194.641 39.302C194.942 39.302 195.209 39.3277 195.444 39.379C195.679 39.423 195.88 39.5037 196.049 39.621C196.225 39.7383 196.364 39.8997 196.467 40.105H196.522V36.827H197.424V45H196.621L196.577 44.197H196.511C196.408 44.4537 196.258 44.648 196.06 44.78C195.869 44.9047 195.653 44.9853 195.411 45.022C195.169 45.066 194.92 45.088 194.663 45.088ZM195.015 44.296C195.389 44.296 195.686 44.2447 195.906 44.142C196.126 44.0393 196.28 43.878 196.368 43.658C196.441 43.4527 196.485 43.229 196.5 42.987C196.515 42.745 196.522 42.459 196.522 42.129C196.522 41.8577 196.515 41.612 196.5 41.392C196.485 41.1647 196.445 40.9667 196.379 40.798C196.284 40.5487 196.126 40.3727 195.906 40.27C195.686 40.16 195.382 40.105 194.993 40.105C194.663 40.105 194.399 40.127 194.201 40.171C194.003 40.215 193.853 40.3103 193.75 40.457C193.647 40.5963 193.578 40.8053 193.541 41.084C193.504 41.3553 193.486 41.7257 193.486 42.195C193.486 42.6643 193.504 43.0383 193.541 43.317C193.578 43.5957 193.647 43.8047 193.75 43.944C193.853 44.0833 194.003 44.1787 194.201 44.23C194.406 44.274 194.678 44.296 195.015 44.296ZM203.091 45L201.298 39.39H202.233L203.597 43.911H203.674L205.038 39.39H205.885L207.249 43.911H207.337L208.69 39.39H209.592L207.799 45H206.765L205.478 40.864H205.401L204.125 45H203.091ZM210.872 37.806V36.827H211.829V37.806H210.872ZM210.894 45V39.39H211.796V45H210.894ZM214.16 45V40.149H213.027V39.39H214.16V37.762H215.051V39.39H216.393V40.149H215.051V45H214.16ZM217.63 45V36.827H218.532V40.127H218.587C218.66 39.973 218.766 39.8337 218.906 39.709C219.045 39.5843 219.236 39.489 219.478 39.423C219.72 39.3497 220.028 39.313 220.402 39.313C220.812 39.313 221.142 39.357 221.392 39.445C221.648 39.5257 221.843 39.654 221.975 39.83C222.114 40.006 222.206 40.2333 222.25 40.512C222.294 40.7833 222.316 41.1097 222.316 41.491V45H221.425V41.799C221.425 41.4177 221.406 41.117 221.37 40.897C221.34 40.6697 221.278 40.501 221.183 40.391C221.087 40.2737 220.948 40.1967 220.765 40.16C220.581 40.1233 220.339 40.105 220.039 40.105C219.679 40.105 219.397 40.1527 219.192 40.248C218.986 40.336 218.836 40.468 218.741 40.644C218.645 40.8127 218.587 41.0217 218.565 41.271C218.543 41.513 218.532 41.7917 218.532 42.107V45H217.63ZM228.849 45.088C228.424 45.088 228.072 45.0513 227.793 44.978C227.522 44.9047 227.302 44.7947 227.133 44.648C226.972 44.5013 226.851 44.3143 226.77 44.087C226.69 43.8597 226.635 43.5883 226.605 43.273C226.583 42.9577 226.572 42.5983 226.572 42.195C226.572 41.777 226.587 41.4103 226.616 41.095C226.653 40.7797 226.715 40.5083 226.803 40.281C226.899 40.0463 227.027 39.8593 227.188 39.72C227.357 39.5807 227.573 39.478 227.837 39.412C228.101 39.3387 228.428 39.302 228.816 39.302C229.073 39.302 229.341 39.3167 229.619 39.346C229.905 39.368 230.14 39.401 230.323 39.445V40.171C230.155 40.1417 229.946 40.116 229.696 40.094C229.454 40.072 229.234 40.061 229.036 40.061C228.692 40.061 228.413 40.0903 228.2 40.149C227.995 40.2077 227.837 40.314 227.727 40.468C227.625 40.622 227.555 40.8383 227.518 41.117C227.482 41.3957 227.463 41.755 227.463 42.195C227.463 42.6423 227.482 43.009 227.518 43.295C227.555 43.5737 227.628 43.79 227.738 43.944C227.856 44.0907 228.017 44.1933 228.222 44.252C228.435 44.3033 228.714 44.329 229.058 44.329C229.264 44.329 229.487 44.318 229.729 44.296C229.971 44.274 230.188 44.2483 230.378 44.219V44.945C230.195 44.9817 229.96 45.0147 229.674 45.044C229.388 45.0733 229.113 45.088 228.849 45.088ZM231.863 45V39.39H232.666L232.71 40.468H232.776C232.871 40.1527 233.007 39.9107 233.183 39.742C233.359 39.5733 233.572 39.4597 233.821 39.401C234.07 39.335 234.345 39.302 234.646 39.302V40.182C234.14 40.182 233.751 40.2627 233.48 40.424C233.209 40.5853 233.022 40.8347 232.919 41.172C232.816 41.5093 232.765 41.9347 232.765 42.448V45H231.863ZM238.058 47.266C237.845 47.266 237.622 47.2587 237.387 47.244C237.16 47.2367 236.94 47.2257 236.727 47.211C236.522 47.2037 236.338 47.189 236.177 47.167V46.452C236.419 46.4593 236.639 46.4667 236.837 46.474C237.042 46.4887 237.229 46.496 237.398 46.496C237.574 46.5033 237.732 46.507 237.871 46.507C238.296 46.507 238.63 46.474 238.872 46.408C239.121 46.342 239.305 46.232 239.422 46.078C239.539 45.9313 239.613 45.7333 239.642 45.484C239.679 45.2347 239.697 44.9303 239.697 44.571V44.241H239.631C239.572 44.3877 239.473 44.5233 239.334 44.648C239.195 44.7727 239.004 44.8717 238.762 44.945C238.52 45.0183 238.205 45.055 237.816 45.055C237.405 45.055 237.072 45.0147 236.815 44.934C236.566 44.846 236.375 44.714 236.243 44.538C236.111 44.3547 236.019 44.1273 235.968 43.856C235.924 43.5847 235.902 43.262 235.902 42.888V39.39H236.804V42.569C236.804 42.9503 236.819 43.2547 236.848 43.482C236.877 43.7093 236.94 43.8817 237.035 43.999C237.138 44.109 237.281 44.1823 237.464 44.219C237.647 44.2557 237.886 44.274 238.179 44.274C238.546 44.274 238.832 44.23 239.037 44.142C239.242 44.0467 239.389 43.911 239.477 43.735C239.572 43.559 239.631 43.35 239.653 43.108C239.682 42.8587 239.697 42.58 239.697 42.272V39.39H240.588V44.307C240.588 44.8423 240.559 45.297 240.5 45.671C240.449 46.0523 240.335 46.3567 240.159 46.584C239.99 46.8187 239.737 46.991 239.4 47.101C239.063 47.211 238.615 47.266 238.058 47.266ZM242.487 47.189V39.39H243.301L243.334 40.193H243.4C243.51 39.9437 243.66 39.753 243.851 39.621C244.042 39.489 244.258 39.4047 244.5 39.368C244.742 39.324 244.991 39.302 245.248 39.302C245.651 39.302 245.985 39.346 246.249 39.434C246.52 39.522 246.733 39.676 246.887 39.896C247.041 40.1087 247.151 40.402 247.217 40.776C247.283 41.15 247.316 41.6193 247.316 42.184C247.316 42.756 247.283 43.2327 247.217 43.614C247.158 43.988 247.052 44.2813 246.898 44.494C246.744 44.7067 246.535 44.8607 246.271 44.956C246.007 45.044 245.673 45.088 245.27 45.088C244.969 45.088 244.702 45.0623 244.467 45.011C244.232 44.967 244.027 44.8863 243.851 44.769C243.682 44.6517 243.547 44.4903 243.444 44.285H243.389V47.189H242.487ZM244.896 44.285C245.233 44.285 245.501 44.263 245.699 44.219C245.904 44.175 246.058 44.0833 246.161 43.944C246.264 43.7973 246.333 43.5883 246.37 43.317C246.407 43.0383 246.425 42.6643 246.425 42.195C246.425 41.7257 246.407 41.3517 246.37 41.073C246.333 40.7943 246.264 40.5853 246.161 40.446C246.058 40.3067 245.904 40.215 245.699 40.171C245.501 40.1197 245.233 40.094 244.896 40.094C244.522 40.094 244.225 40.149 244.005 40.259C243.792 40.3617 243.638 40.5267 243.543 40.754C243.47 40.93 243.426 41.139 243.411 41.381C243.396 41.623 243.389 41.8943 243.389 42.195C243.389 42.503 243.396 42.7743 243.411 43.009C243.426 43.2363 243.462 43.427 243.521 43.581C243.624 43.8377 243.785 44.021 244.005 44.131C244.225 44.2337 244.522 44.285 244.896 44.285ZM249.395 45V40.149H248.262V39.39H249.395V37.762H250.286V39.39H251.628V40.149H250.286V45H249.395ZM255.032 45.088C254.57 45.088 254.185 45.0587 253.877 45C253.577 44.9487 253.338 44.8607 253.162 44.736C252.986 44.6113 252.854 44.439 252.766 44.219C252.686 43.999 252.634 43.724 252.612 43.394C252.59 43.0567 252.579 42.657 252.579 42.195C252.579 41.733 252.59 41.337 252.612 41.007C252.634 40.6697 252.686 40.391 252.766 40.171C252.854 39.951 252.986 39.7787 253.162 39.654C253.338 39.5293 253.577 39.4413 253.877 39.39C254.185 39.3313 254.57 39.302 255.032 39.302C255.502 39.302 255.887 39.3313 256.187 39.39C256.488 39.4413 256.726 39.5293 256.902 39.654C257.086 39.7787 257.218 39.951 257.298 40.171C257.386 40.391 257.441 40.6697 257.463 41.007C257.485 41.337 257.496 41.733 257.496 42.195C257.496 42.657 257.485 43.0567 257.463 43.394C257.441 43.724 257.386 43.999 257.298 44.219C257.218 44.439 257.086 44.6113 256.902 44.736C256.726 44.8607 256.488 44.9487 256.187 45C255.887 45.0587 255.502 45.088 255.032 45.088ZM255.032 44.329C255.428 44.329 255.733 44.3033 255.945 44.252C256.158 44.2007 256.308 44.1017 256.396 43.955C256.492 43.8083 256.547 43.5957 256.561 43.317C256.583 43.031 256.594 42.657 256.594 42.195C256.594 41.733 256.583 41.3627 256.561 41.084C256.547 40.798 256.492 40.5817 256.396 40.435C256.308 40.2883 256.158 40.1893 255.945 40.138C255.733 40.0867 255.428 40.061 255.032 40.061C254.644 40.061 254.339 40.0867 254.119 40.138C253.907 40.1893 253.756 40.2883 253.668 40.435C253.58 40.5817 253.525 40.798 253.503 41.084C253.481 41.3627 253.47 41.733 253.47 42.195C253.47 42.657 253.481 43.031 253.503 43.317C253.525 43.5957 253.58 43.8083 253.668 43.955C253.756 44.1017 253.907 44.2007 254.119 44.252C254.339 44.3033 254.644 44.329 255.032 44.329ZM263.255 45.088C262.844 45.088 262.499 45.0403 262.221 44.945C261.949 44.8497 261.744 44.6847 261.605 44.45C261.473 44.2153 261.407 43.8853 261.407 43.46C261.407 43.0347 261.454 42.701 261.55 42.459C261.652 42.2097 261.828 42.0337 262.078 41.931C262.327 41.8283 262.675 41.777 263.123 41.777C263.196 41.777 263.31 41.7807 263.464 41.788C263.625 41.788 263.808 41.7917 264.014 41.799C264.219 41.799 264.424 41.8027 264.63 41.81C264.842 41.81 265.037 41.8137 265.213 41.821V41.469C265.213 41.139 265.191 40.8823 265.147 40.699C265.11 40.5083 265.029 40.369 264.905 40.281C264.78 40.1857 264.604 40.127 264.377 40.105C264.157 40.0757 263.863 40.061 263.497 40.061C263.335 40.061 263.145 40.0683 262.925 40.083C262.705 40.0903 262.488 40.105 262.276 40.127C262.07 40.1417 261.905 40.16 261.781 40.182V39.456C262.059 39.4047 262.371 39.368 262.716 39.346C263.068 39.3167 263.431 39.302 263.805 39.302C264.201 39.302 264.534 39.3277 264.806 39.379C265.084 39.423 265.308 39.4963 265.477 39.599C265.653 39.7017 265.785 39.8373 265.873 40.006C265.961 40.1747 266.019 40.38 266.049 40.622C266.085 40.864 266.104 41.1463 266.104 41.469V45H265.301L265.268 44.208H265.202C265.084 44.4647 264.916 44.659 264.696 44.791C264.483 44.9157 264.248 44.9963 263.992 45.033C263.735 45.0697 263.489 45.088 263.255 45.088ZM263.585 44.351C263.797 44.351 263.995 44.34 264.179 44.318C264.362 44.2887 264.523 44.2373 264.663 44.164C264.802 44.0907 264.912 43.9807 264.993 43.834C265.073 43.68 265.128 43.515 265.158 43.339C265.194 43.1557 265.213 42.943 265.213 42.701V42.415H263.343C263.057 42.415 262.837 42.437 262.683 42.481C262.529 42.525 262.422 42.6167 262.364 42.756C262.312 42.8953 262.287 43.1043 262.287 43.383C262.287 43.6543 262.32 43.8597 262.386 43.999C262.452 44.1383 262.576 44.2337 262.76 44.285C262.95 44.329 263.225 44.351 263.585 44.351ZM268.01 45V39.39H268.824L268.857 40.193H268.923C269.004 40.017 269.114 39.863 269.253 39.731C269.4 39.599 269.594 39.4963 269.836 39.423C270.086 39.3423 270.401 39.302 270.782 39.302C271.2 39.302 271.534 39.346 271.783 39.434C272.033 39.522 272.223 39.654 272.355 39.83C272.495 40.006 272.586 40.2333 272.63 40.512C272.674 40.7833 272.696 41.1097 272.696 41.491V45H271.805V41.799C271.805 41.4177 271.787 41.117 271.75 40.897C271.721 40.6697 271.659 40.501 271.563 40.391C271.468 40.2737 271.329 40.1967 271.145 40.16C270.962 40.1233 270.72 40.105 270.419 40.105C270.06 40.105 269.778 40.1527 269.572 40.248C269.367 40.336 269.217 40.468 269.121 40.644C269.026 40.8127 268.967 41.0217 268.945 41.271C268.923 41.513 268.912 41.7917 268.912 42.107V45H268.01ZM276.432 45.088C276.029 45.088 275.692 45.044 275.42 44.956C275.156 44.868 274.947 44.7177 274.793 44.505C274.639 44.285 274.529 43.988 274.463 43.614C274.397 43.24 274.364 42.7707 274.364 42.206C274.364 41.634 274.394 41.161 274.452 40.787C274.518 40.4057 274.628 40.1087 274.782 39.896C274.936 39.6833 275.145 39.533 275.409 39.445C275.673 39.3497 276.007 39.302 276.41 39.302C276.711 39.302 276.979 39.3277 277.213 39.379C277.448 39.423 277.65 39.5037 277.818 39.621C277.994 39.7383 278.134 39.8997 278.236 40.105H278.291V36.827H279.193V45H278.39L278.346 44.197H278.28C278.178 44.4537 278.027 44.648 277.829 44.78C277.639 44.9047 277.422 44.9853 277.18 45.022C276.938 45.066 276.689 45.088 276.432 45.088ZM276.784 44.296C277.158 44.296 277.455 44.2447 277.675 44.142C277.895 44.0393 278.049 43.878 278.137 43.658C278.211 43.4527 278.255 43.229 278.269 42.987C278.284 42.745 278.291 42.459 278.291 42.129C278.291 41.8577 278.284 41.612 278.269 41.392C278.255 41.1647 278.214 40.9667 278.148 40.798C278.053 40.5487 277.895 40.3727 277.675 40.27C277.455 40.16 277.151 40.105 276.762 40.105C276.432 40.105 276.168 40.127 275.97 40.171C275.772 40.215 275.622 40.3103 275.519 40.457C275.417 40.5963 275.347 40.8053 275.31 41.084C275.274 41.3553 275.255 41.7257 275.255 42.195C275.255 42.6643 275.274 43.0383 275.31 43.317C275.347 43.5957 275.417 43.8047 275.519 43.944C275.622 44.0833 275.772 44.1787 275.97 44.23C276.176 44.274 276.447 44.296 276.784 44.296ZM284.157 45V40.149H283.013V39.39H284.157V38.499C284.157 38.1837 284.182 37.927 284.234 37.729C284.285 37.5237 284.366 37.3623 284.476 37.245C284.593 37.1203 284.743 37.0287 284.927 36.97C285.11 36.9113 285.33 36.8747 285.587 36.86C285.851 36.8453 286.155 36.838 286.5 36.838V37.52C286.199 37.52 285.953 37.531 285.763 37.553C285.572 37.575 285.425 37.6153 285.323 37.674C285.22 37.7253 285.147 37.806 285.103 37.916C285.066 38.026 285.048 38.169 285.048 38.345V39.39H286.5V40.149H285.048V45H284.157ZM287.776 45V39.39H288.667V45H287.776ZM287.743 37.806V36.827H288.7V37.806H287.743ZM292.065 45.088C291.655 45.088 291.31 45.0403 291.031 44.945C290.76 44.8497 290.555 44.6847 290.415 44.45C290.283 44.2153 290.217 43.8853 290.217 43.46C290.217 43.0347 290.265 42.701 290.36 42.459C290.463 42.2097 290.639 42.0337 290.888 41.931C291.138 41.8283 291.486 41.777 291.933 41.777C292.007 41.777 292.12 41.7807 292.274 41.788C292.436 41.788 292.619 41.7917 292.824 41.799C293.03 41.799 293.235 41.8027 293.44 41.81C293.653 41.81 293.847 41.8137 294.023 41.821V41.469C294.023 41.139 294.001 40.8823 293.957 40.699C293.921 40.5083 293.84 40.369 293.715 40.281C293.591 40.1857 293.415 40.127 293.187 40.105C292.967 40.0757 292.674 40.061 292.307 40.061C292.146 40.061 291.955 40.0683 291.735 40.083C291.515 40.0903 291.299 40.105 291.086 40.127C290.881 40.1417 290.716 40.16 290.591 40.182V39.456C290.87 39.4047 291.182 39.368 291.526 39.346C291.878 39.3167 292.241 39.302 292.615 39.302C293.011 39.302 293.345 39.3277 293.616 39.379C293.895 39.423 294.119 39.4963 294.287 39.599C294.463 39.7017 294.595 39.8373 294.683 40.006C294.771 40.1747 294.83 40.38 294.859 40.622C294.896 40.864 294.914 41.1463 294.914 41.469V45H294.111L294.078 44.208H294.012C293.895 44.4647 293.726 44.659 293.506 44.791C293.294 44.9157 293.059 44.9963 292.802 45.033C292.546 45.0697 292.3 45.088 292.065 45.088ZM292.395 44.351C292.608 44.351 292.806 44.34 292.989 44.318C293.173 44.2887 293.334 44.2373 293.473 44.164C293.613 44.0907 293.723 43.9807 293.803 43.834C293.884 43.68 293.939 43.515 293.968 43.339C294.005 43.1557 294.023 42.943 294.023 42.701V42.415H292.153C291.867 42.415 291.647 42.437 291.493 42.481C291.339 42.525 291.233 42.6167 291.174 42.756C291.123 42.8953 291.097 43.1043 291.097 43.383C291.097 43.6543 291.13 43.8597 291.196 43.999C291.262 44.1383 291.387 44.2337 291.57 44.285C291.761 44.329 292.036 44.351 292.395 44.351ZM297.24 45V40.149H296.107V39.39H297.24V37.762H298.131V39.39H299.473V40.149H298.131V45H297.24ZM300.468 45V43.922H301.513V45H300.468Z" fill="white" fill-opacity="0.55"/>
<path d="M62.914 27.112C62.2233 27.112 61.6447 27.07 61.178 26.986C60.7113 26.8927 60.3287 26.7387 60.03 26.524C59.7407 26.3093 59.5167 26.02 59.358 25.656C59.2087 25.2827 59.106 24.8113 59.05 24.242C58.994 23.6727 58.966 22.9867 58.966 22.184C58.966 21.3813 58.994 20.6953 59.05 20.126C59.106 19.5567 59.2087 19.09 59.358 18.726C59.5167 18.3527 59.7407 18.0587 60.03 17.844C60.3287 17.6293 60.7113 17.48 61.178 17.396C61.6447 17.3027 62.2233 17.256 62.914 17.256C63.1847 17.256 63.46 17.2653 63.74 17.284C64.0293 17.3027 64.3047 17.3307 64.566 17.368C64.8273 17.396 65.0513 17.4333 65.238 17.48V18.74C65.0047 18.712 64.7713 18.6887 64.538 18.67C64.314 18.642 64.0947 18.6233 63.88 18.614C63.6653 18.6047 63.4787 18.6 63.32 18.6C62.8067 18.6 62.382 18.6187 62.046 18.656C61.71 18.6933 61.4393 18.7773 61.234 18.908C61.038 19.0387 60.8887 19.2347 60.786 19.496C60.6927 19.748 60.6273 20.0933 60.59 20.532C60.562 20.9707 60.548 21.5213 60.548 22.184C60.548 22.8373 60.562 23.388 60.59 23.836C60.6273 24.2747 60.6927 24.6247 60.786 24.886C60.8887 25.138 61.038 25.3293 61.234 25.46C61.4393 25.5907 61.71 25.6747 62.046 25.712C62.382 25.7493 62.8067 25.768 63.32 25.768C63.628 25.768 63.964 25.754 64.328 25.726C64.7013 25.698 65.0233 25.6653 65.294 25.628V26.916C65.0887 26.9533 64.846 26.986 64.566 27.014C64.2953 27.042 64.0153 27.0653 63.726 27.084C63.446 27.1027 63.1753 27.112 62.914 27.112ZM67.1314 29.786V19.86H68.5034L68.5454 20.812H68.6434C68.7927 20.5133 68.9841 20.2893 69.2174 20.14C69.4507 19.9813 69.7074 19.8787 69.9874 19.832C70.2767 19.776 70.5707 19.748 70.8694 19.748C71.3454 19.748 71.7421 19.8087 72.0594 19.93C72.3861 20.042 72.6474 20.238 72.8434 20.518C73.0394 20.7887 73.1841 21.162 73.2774 21.638C73.3707 22.114 73.4174 22.7067 73.4174 23.416C73.4174 24.1347 73.3707 24.732 73.2774 25.208C73.1934 25.684 73.0534 26.062 72.8574 26.342C72.6707 26.6127 72.4187 26.8087 72.1014 26.93C71.7841 27.0513 71.3874 27.112 70.9114 27.112C70.5754 27.112 70.2674 27.084 69.9874 27.028C69.7074 26.972 69.4601 26.8787 69.2454 26.748C69.0307 26.608 68.8534 26.412 68.7134 26.16H68.6154V29.786H67.1314ZM70.2534 25.782C70.6267 25.782 70.9207 25.7587 71.1354 25.712C71.3594 25.656 71.5274 25.5533 71.6394 25.404C71.7514 25.2453 71.8261 25.012 71.8634 24.704C71.9007 24.3867 71.9194 23.962 71.9194 23.43C71.9194 22.898 71.9007 22.478 71.8634 22.17C71.8261 21.8527 71.7514 21.6147 71.6394 21.456C71.5274 21.2973 71.3594 21.1947 71.1354 21.148C70.9207 21.092 70.6267 21.064 70.2534 21.064C69.8614 21.064 69.5534 21.12 69.3294 21.232C69.1054 21.344 68.9374 21.512 68.8254 21.736C68.7321 21.932 68.6714 22.1747 68.6434 22.464C68.6247 22.744 68.6154 23.066 68.6154 23.43C68.6154 23.8033 68.6247 24.13 68.6434 24.41C68.6714 24.6807 68.7274 24.9093 68.8114 25.096C68.9234 25.3387 69.0914 25.516 69.3154 25.628C69.5487 25.7307 69.8614 25.782 70.2534 25.782ZM77.1682 27.112C76.6829 27.112 76.2722 27.0467 75.9362 26.916C75.6095 26.7853 75.3622 26.5707 75.1942 26.272C75.0262 25.964 74.9422 25.5487 74.9422 25.026C74.9422 24.4753 75.0075 24.0413 75.1382 23.724C75.2689 23.3973 75.4929 23.164 75.8102 23.024C76.1275 22.884 76.5755 22.814 77.1542 22.814C77.2475 22.814 77.3829 22.8187 77.5602 22.828C77.7469 22.828 77.9569 22.8327 78.1902 22.842C78.4329 22.842 78.6709 22.8467 78.9042 22.856C79.1469 22.856 79.3662 22.8607 79.5622 22.87V22.534C79.5622 22.17 79.5389 21.8853 79.4922 21.68C79.4455 21.4747 79.3475 21.3253 79.1982 21.232C79.0582 21.1293 78.8529 21.064 78.5822 21.036C78.3115 21.008 77.9615 20.994 77.5322 20.994C77.3269 20.994 77.0842 21.0033 76.8042 21.022C76.5335 21.0313 76.2675 21.0453 76.0062 21.064C75.7449 21.0827 75.5442 21.106 75.4042 21.134V19.958C75.7869 19.8833 76.2069 19.832 76.6642 19.804C77.1215 19.7667 77.5789 19.748 78.0362 19.748C78.5682 19.748 79.0115 19.7807 79.3662 19.846C79.7302 19.9113 80.0242 20.014 80.2482 20.154C80.4722 20.294 80.6402 20.476 80.7522 20.7C80.8642 20.924 80.9435 21.1947 80.9902 21.512C81.0369 21.82 81.0602 22.1747 81.0602 22.576V27H79.6882L79.6322 26.076H79.5482C79.3895 26.3747 79.1749 26.6033 78.9042 26.762C78.6429 26.9113 78.3582 27.0047 78.0502 27.042C77.7422 27.0887 77.4482 27.112 77.1682 27.112ZM77.8262 25.908C78.0595 25.908 78.2695 25.894 78.4562 25.866C78.6522 25.8287 78.8202 25.7727 78.9602 25.698C79.1095 25.614 79.2262 25.502 79.3102 25.362C79.3942 25.2033 79.4549 25.0213 79.4922 24.816C79.5389 24.6107 79.5622 24.368 79.5622 24.088V23.836H77.5182C77.2102 23.836 76.9722 23.8593 76.8042 23.906C76.6455 23.9527 76.5382 24.0507 76.4822 24.2C76.4262 24.3493 76.3982 24.578 76.3982 24.886C76.3982 25.1753 76.4309 25.3947 76.4962 25.544C76.5615 25.684 76.6969 25.782 76.9022 25.838C77.1169 25.8847 77.4249 25.908 77.8262 25.908ZM86.1059 29.884C85.8352 29.884 85.5505 29.8747 85.2519 29.856C84.9625 29.8467 84.6825 29.8327 84.4119 29.814C84.1505 29.7953 83.9172 29.772 83.7119 29.744V28.582C84.0479 28.5913 84.3372 28.6007 84.5799 28.61C84.8319 28.6193 85.0559 28.624 85.2519 28.624C85.4479 28.6333 85.6205 28.638 85.7699 28.638C86.2739 28.638 86.6705 28.6053 86.9599 28.54C87.2492 28.4747 87.4639 28.3627 87.6039 28.204C87.7439 28.0453 87.8279 27.826 87.8559 27.546C87.8932 27.2753 87.9119 26.93 87.9119 26.51V26.076H87.8279C87.7345 26.2813 87.5945 26.4587 87.4079 26.608C87.2305 26.748 86.9925 26.86 86.6939 26.944C86.4045 27.0187 86.0452 27.056 85.6159 27.056C85.1212 27.056 84.7152 27 84.3979 26.888C84.0899 26.7667 83.8519 26.594 83.6839 26.37C83.5252 26.1367 83.4179 25.8473 83.3619 25.502C83.3059 25.1567 83.2779 24.7553 83.2779 24.298V19.86H84.7619V23.71C84.7619 24.1767 84.7759 24.55 84.8039 24.83C84.8412 25.1007 84.9112 25.3013 85.0139 25.432C85.1165 25.5627 85.2659 25.6513 85.4619 25.698C85.6672 25.7353 85.9379 25.754 86.2739 25.754C86.6472 25.754 86.9459 25.7073 87.1699 25.614C87.3939 25.5207 87.5572 25.3807 87.6599 25.194C87.7719 25.0073 87.8419 24.774 87.8699 24.494C87.8979 24.214 87.9119 23.8873 87.9119 23.514V19.86H89.4099V26.16C89.4099 26.8227 89.3725 27.3873 89.2979 27.854C89.2325 28.33 89.0879 28.7173 88.8639 29.016C88.6492 29.3147 88.3225 29.534 87.8839 29.674C87.4452 29.814 86.8525 29.884 86.1059 29.884Z" fill="white"/>
<circle cx="30" cy="32" r="20" fill="white"/>
<g clip-path="url(#clip0_12153_14347)">
<path d="M21.6618 28.3528L18 32.0014L21.6618 35.65L25.3239 32.0014L21.6618 28.3528Z" fill="#215DD4"/>
<path d="M34.4381 28.2685L38.1845 32.0014L34.4381 35.734L30.692 32.0014L34.4381 28.2685ZM34.4381 24.4666L26.876 32.0014L34.4381 39.5362L42.0005 32.0014L34.4381 24.4666Z" fill="#215DD4"/>
<path d="M31.3598 21.4001L29.9534 20L26.8406 23.1014L22.6406 27.2873L24.5513 29.1926L26.4599 27.29L26.4569 27.2873L28.7501 25.004L29.945 23.8121L29.9534 23.8037L31.4423 25.2872L33.3518 23.3861L31.3598 21.4001Z" fill="#222B3C"/>
<path d="M33.3491 40.6139L31.4402 38.7128L29.9513 40.1963L29.9426 40.1879L28.7474 38.996L26.4542 36.7127L26.4572 36.71L24.5477 34.8074L22.6367 36.7127L26.8367 40.8986L29.9507 44L31.3571 42.5999L33.3491 40.6139Z" fill="#222B3C"/>
</g>
<g clip-path="url(#clip1_12153_14347)">
<path d="M277.934 24.0977L270 32.003L277.934 39.9083L285.868 32.003L277.934 24.0977Z" fill="white" fill-opacity="0.08"/>
<path d="M305.616 23.9149L313.733 32.0029L305.616 40.0902L297.499 32.0029L305.616 23.9149ZM305.616 15.6775L289.231 32.0029L305.616 48.3283L322.001 32.0029L305.616 15.6775Z" fill="white" fill-opacity="0.08"/>
<path d="M298.946 9.03355L295.899 6L289.155 12.7197L280.055 21.7891L284.195 25.9173L288.33 21.795L288.323 21.7891L293.292 16.842L295.881 14.2596L295.899 14.2414L299.125 17.4556L303.262 13.3365L298.946 9.03355Z" fill="white" fill-opacity="0.08"/>
<path d="M303.257 50.6633L299.121 46.5442L295.895 49.7585L295.876 49.7403L293.287 47.1578L288.318 42.2107L288.325 42.2048L284.187 38.0825L280.047 42.2107L289.147 51.2801L295.894 57.9998L298.941 54.9663L303.257 50.6633Z" fill="white" fill-opacity="0.08"/>
</g>
<defs>
<linearGradient id="paint0_linear_12153_14347" x1="167.5" y1="59.4286" x2="167.441" y2="6.17319e-05" gradientUnits="userSpaceOnUse">
<stop stop-color="#1F4FC9"/>
<stop offset="1" stop-color="#497CFF"/>
</linearGradient>
<linearGradient id="paint1_linear_12153_14347" x1="167.5" y1="0" x2="167.5" y2="64" gradientUnits="userSpaceOnUse">
<stop stop-color="white"/>
<stop offset="1" stop-color="white" stop-opacity="0"/>
</linearGradient>
<clipPath id="clip0_12153_14347">
<rect width="24" height="24" fill="white" transform="translate(18 20)"/>
</clipPath>
<clipPath id="clip1_12153_14347">
<rect width="52" height="52" fill="white" transform="translate(270 6)"/>
</clipPath>
</defs>
</svg>
