<svg width="44" height="44" viewBox="0 0 44 44" fill="none" xmlns="http://www.w3.org/2000/svg">
<g opacity="0.6">
<circle cx="22" cy="22" r="22" fill="white"/>
<path d="M29.6558 15.0185C29.6497 15.0066 29.6396 14.9973 29.6272 14.9922C28.1976 14.3363 26.6889 13.8686 25.139 13.6008C25.1249 13.5981 25.1103 13.6 25.0974 13.6062C25.0844 13.6123 25.0738 13.6223 25.0669 13.6349C24.8614 14.0077 24.6749 14.3907 24.5081 14.7824C22.8374 14.5288 21.1379 14.5288 19.4671 14.7824C19.2992 14.3897 19.1097 14.0066 18.8996 13.6349C18.8924 13.6226 18.8816 13.6128 18.8688 13.6067C18.8559 13.6006 18.8415 13.5985 18.8274 13.6008C17.2773 13.868 15.7686 14.3358 14.3391 14.9923C14.3269 14.9975 14.3166 15.0063 14.3096 15.0176C11.451 19.2865 10.6679 23.4505 11.0521 27.5629C11.0531 27.573 11.0562 27.5827 11.0612 27.5916C11.0661 27.6005 11.0728 27.6082 11.0807 27.6145C12.7453 28.8469 14.6071 29.7877 16.5867 30.3966C16.6006 30.4007 16.6155 30.4005 16.6293 30.396C16.6432 30.3915 16.6553 30.3828 16.664 30.3712C17.0892 29.7927 17.466 29.1801 17.7904 28.5396C17.7949 28.5308 17.7974 28.5212 17.7979 28.5114C17.7984 28.5015 17.7967 28.4917 17.7931 28.4825C17.7895 28.4734 17.784 28.4651 17.777 28.4582C17.7699 28.4513 17.7615 28.446 17.7522 28.4426C17.1581 28.2153 16.583 27.9412 16.0322 27.6231C16.0222 27.6172 16.0138 27.609 16.0077 27.5991C16.0016 27.5892 15.9981 27.5779 15.9974 27.5663C15.9967 27.5547 15.9989 27.5432 16.0038 27.5326C16.0086 27.5221 16.016 27.5129 16.0252 27.5059C16.1411 27.4193 16.255 27.3301 16.3668 27.2382C16.3766 27.2302 16.3885 27.225 16.4011 27.2233C16.4137 27.2216 16.4265 27.2234 16.4381 27.2286C20.0467 28.8755 23.9534 28.8755 27.5193 27.2286C27.5309 27.2231 27.5439 27.221 27.5567 27.2225C27.5694 27.2241 27.5815 27.2292 27.5915 27.2374C27.7034 27.3297 27.8176 27.4192 27.9339 27.5059C27.9432 27.5128 27.9506 27.5219 27.9556 27.5325C27.9605 27.543 27.9628 27.5545 27.9622 27.5661C27.9616 27.5777 27.9581 27.5889 27.9521 27.5989C27.9461 27.6088 27.9378 27.6171 27.9278 27.6231C27.3783 27.9439 26.8026 28.2178 26.207 28.4417C26.1977 28.4452 26.1893 28.4507 26.1823 28.4577C26.1753 28.4647 26.1699 28.473 26.1663 28.4823C26.1628 28.4915 26.1612 28.5014 26.1618 28.5113C26.1623 28.5212 26.1649 28.5308 26.1695 28.5396C26.4994 29.1765 26.8756 29.7884 27.295 30.3702C27.3035 30.3821 27.3156 30.3911 27.3294 30.3958C27.3433 30.4005 27.3583 30.4007 27.3724 30.3964C29.3555 29.7896 31.2206 28.8488 32.8872 27.6145C32.8953 27.6085 32.9021 27.601 32.907 27.5922C32.912 27.5835 32.915 27.5738 32.9159 27.5638C33.3758 22.8094 32.1459 18.6796 29.6558 15.0185ZM18.3293 25.0589C17.2429 25.0589 16.3477 24.0619 16.3477 22.8374C16.3477 21.613 17.2255 20.6159 18.3293 20.6159C19.4418 20.6159 20.3283 21.6216 20.311 22.8373C20.311 24.0619 19.4331 25.0589 18.3293 25.0589ZM25.6561 25.0589C24.5697 25.0589 23.6745 24.0619 23.6745 22.8374C23.6745 21.613 24.5523 20.6159 25.6561 20.6159C26.7686 20.6159 27.6551 21.6216 27.6377 22.8373C27.6377 24.0619 26.7686 25.0589 25.6561 25.0589Z" fill="#0D041F"/>
</g>
</svg>
