<svg width="33" height="32" viewBox="0 0 33 32" fill="none" xmlns="http://www.w3.org/2000/svg">
<g opacity="0.6">
<circle cx="16.5" cy="16" r="16" fill="white"/>
<path d="M22.0687 10.9233C22.0643 10.9146 22.0569 10.9079 22.0479 10.9042C21.0081 10.4271 19.9109 10.087 18.7837 9.89219C18.7735 9.89029 18.7629 9.89166 18.7535 9.89612C18.7441 9.90057 18.7363 9.90788 18.7313 9.91701C18.5819 10.1882 18.4462 10.4667 18.3249 10.7516C17.1098 10.5671 15.8738 10.5671 14.6587 10.7516C14.5366 10.466 14.3988 10.1874 14.246 9.91701C14.2407 9.90808 14.2329 9.90094 14.2236 9.89651C14.2142 9.89209 14.2037 9.89058 14.1935 9.89219C13.0661 10.0866 11.9689 10.4268 10.9293 10.9042C10.9204 10.908 10.9129 10.9144 10.9078 10.9226C8.82881 14.0273 8.2593 17.0556 8.53868 20.0465C8.53947 20.0538 8.54172 20.0609 8.5453 20.0674C8.54889 20.0738 8.55373 20.0794 8.55954 20.084C9.77011 20.9803 11.1241 21.6645 12.5639 22.1073C12.574 22.1104 12.5848 22.1102 12.5949 22.1069C12.6049 22.1036 12.6138 22.0973 12.6201 22.0889C12.9293 21.6681 13.2033 21.2226 13.4393 20.7568C13.4426 20.7504 13.4444 20.7434 13.4447 20.7363C13.4451 20.7291 13.4439 20.722 13.4413 20.7153C13.4387 20.7086 13.4346 20.7026 13.4295 20.6976C13.4244 20.6926 13.4183 20.6887 13.4115 20.6862C12.9795 20.5209 12.5612 20.3216 12.1606 20.0903C12.1533 20.086 12.1472 20.08 12.1428 20.0728C12.1384 20.0656 12.1358 20.0574 12.1353 20.049C12.1348 20.0405 12.1364 20.0321 12.1399 20.0245C12.1435 20.0168 12.1488 20.0101 12.1555 20.005C12.2398 19.942 12.3227 19.8771 12.404 19.8104C12.4111 19.8045 12.4197 19.8007 12.4289 19.7995C12.438 19.7982 12.4474 19.7996 12.4558 19.8034C15.0802 21.0011 17.9215 21.0011 20.5149 19.8034C20.5233 19.7994 20.5327 19.7978 20.542 19.7989C20.5513 19.8001 20.5601 19.8038 20.5673 19.8097C20.6487 19.8769 20.7318 19.942 20.8164 20.005C20.8232 20.0101 20.8286 20.0167 20.8321 20.0243C20.8357 20.032 20.8374 20.0404 20.8369 20.0488C20.8365 20.0572 20.834 20.0654 20.8296 20.0727C20.8253 20.0799 20.8192 20.0859 20.812 20.0903C20.4123 20.3236 19.9936 20.5227 19.5604 20.6856C19.5537 20.6882 19.5476 20.6921 19.5425 20.6972C19.5374 20.7023 19.5334 20.7084 19.5309 20.7151C19.5283 20.7218 19.5272 20.729 19.5276 20.7362C19.528 20.7434 19.5299 20.7504 19.5332 20.7568C19.7731 21.22 20.0467 21.665 20.3517 22.0881C20.3579 22.0968 20.3667 22.1033 20.3768 22.1068C20.3869 22.1102 20.3978 22.1104 20.408 22.1072C21.8503 21.6659 23.2067 20.9817 24.4188 20.084C24.4247 20.0797 24.4296 20.0742 24.4332 20.0678C24.4368 20.0614 24.439 20.0544 24.4396 20.0471C24.7741 16.5894 23.8797 13.5859 22.0687 10.9233ZM13.8313 18.2254C13.0411 18.2254 12.3901 17.5003 12.3901 16.6098C12.3901 15.7193 13.0285 14.9941 13.8313 14.9941C14.6403 14.9941 15.2851 15.7256 15.2724 16.6097C15.2724 17.5003 14.634 18.2254 13.8313 18.2254ZM19.1598 18.2254C18.3697 18.2254 17.7186 17.5003 17.7186 16.6098C17.7186 15.7193 18.3571 14.9941 19.1598 14.9941C19.9689 14.9941 20.6136 15.7256 20.601 16.6097C20.601 17.5003 19.9689 18.2254 19.1598 18.2254Z" fill="#0D041F"/>
</g>
</svg>
