<svg width="64" height="64" viewBox="0 0 64 64" fill="none" xmlns="http://www.w3.org/2000/svg">
<path d="M47.1621 26.5809H49.8596V29.2785H47.1621V26.5809ZM28.2788 15.7905H30.9764V18.4881H28.2788V15.7905ZM39.0692 21.1856H41.7668V23.8834H39.0692V21.1856ZM44.4645 18.4881H47.1621V21.1856H44.4645V18.4881ZM44.4645 15.7905H47.1621V18.4881H44.4645V15.7905ZM47.1621 21.1856H49.8596V23.8834H47.1621V21.1856ZM47.1621 18.4881H49.8596V21.1856H47.1621V18.4881ZM41.7668 18.4881H44.4645V21.1856H41.7668V18.4881ZM47.1621 15.7905H49.8596V18.4881H47.1621V15.7905ZM33.6739 18.4881H36.3717V21.1856H33.6739V18.4881ZM36.3717 18.4881H39.0692V21.1856H36.3717V18.4881ZM39.0692 18.4881H41.7668V21.1856H39.0692V18.4881ZM28.2788 18.4881H30.9764V21.1856H28.2788V18.4881ZM30.9764 18.4881H33.6739V21.1856H30.9764V18.4881ZM25.5813 18.4881H28.2788V21.1856H25.5813V18.4881ZM22.8835 18.4881H25.5813V21.1856H22.8835V18.4881ZM33.6739 26.5809H36.3717V29.2785H33.6739V26.5809ZM44.4645 23.8834H47.1621V26.5809H44.4645V23.8834ZM47.1621 23.8834H49.8596V26.5809H47.1621V23.8834ZM41.7668 23.8834H44.4645V26.5809H41.7668V23.8834ZM33.6739 23.8834H36.3717V26.5809H33.6739V23.8834ZM36.3717 23.8834H39.0692V26.5809H36.3717V23.8834ZM30.9764 23.8834H33.6739V26.5809H30.9764V23.8834ZM39.0692 23.8834H41.7668V26.5809H39.0692V23.8834ZM25.5813 23.8834H28.2788V26.5809H25.5813V23.8834ZM28.2788 23.8834H30.9764V26.5809H28.2788V23.8834ZM22.8835 23.8834H25.5813V26.5809H22.8835V23.8834ZM39.0692 31.976H41.7668V34.6738H39.0692V31.976ZM30.9764 31.976H33.6739V34.6738H30.9764V31.976ZM47.1621 31.976H49.8596V34.6738H47.1621V31.976ZM47.1621 29.2785H49.8596V31.976H47.1621V29.2785ZM44.4645 29.2785H47.1621V31.976H44.4645V29.2785ZM39.0692 29.2785H41.7668V31.976H39.0692V29.2785ZM41.7668 29.2785H44.4645V31.976H41.7668V29.2785ZM36.3717 29.2785H39.0692V31.976H36.3717V29.2785ZM33.6739 29.2785H36.3717V31.976H33.6739V29.2785ZM30.9764 29.2785H33.6739V31.976H30.9764V29.2785ZM25.5813 29.2785H28.2788V31.976H25.5813V29.2785ZM28.2788 29.2785H30.9764V31.976H28.2788V29.2785ZM22.8835 29.2785H25.5813V31.976H22.8835V29.2785ZM41.7668 37.3713H44.4645V40.0689H41.7668V37.3713ZM39.0692 37.3713H41.7668V40.0689H39.0692V37.3713ZM44.4645 34.6738H47.1621V37.3713H44.4645V34.6738ZM41.7668 34.6738H44.4645V37.3713H41.7668V34.6738ZM39.0692 34.6738H41.7668V37.3713H39.0692V34.6738ZM36.3717 34.6738H39.0692V37.3713H36.3717V34.6738ZM30.9764 34.6738H33.6739V37.3713H30.9764V34.6738ZM33.6739 34.6738H36.3717V37.3713H33.6739V34.6738ZM25.5813 34.6738H28.2788V37.3713H25.5813V34.6738ZM28.2788 34.6738H30.9764V37.3713H28.2788V34.6738ZM22.8835 34.6738H25.5813V37.3713H22.8835V34.6738ZM36.3717 40.0689H39.0692V42.7666H36.3717V40.0689ZM30.9764 40.0689H33.6739V42.7666H30.9764V40.0689ZM33.6739 40.0689H36.3717V42.7666H33.6739V40.0689ZM28.2788 40.0689H30.9764V42.7666H28.2788V40.0689ZM25.5813 40.0689H28.2788V42.7666H25.5813V40.0689ZM22.8835 40.0689H25.5813V42.7666H22.8835V40.0689ZM36.3717 37.3713H39.0692V40.0689H36.3717V37.3713ZM33.6739 37.3713H36.3717V40.0689H33.6739V37.3713Z" fill="#D9DEF4"/>
<path d="M30.9764 37.3713H33.6739V40.0689H30.9764V37.3713ZM25.5813 37.3713H28.2788V40.0689H25.5813V37.3713ZM28.2788 37.3713H30.9764V40.0689H28.2788V37.3713ZM22.8835 37.3713H25.5813V40.0689H22.8835V37.3713ZM44.4645 31.976H47.1621V34.6738H44.4645V31.976ZM41.7668 31.976H44.4645V34.6738H41.7668V31.976ZM33.6739 31.976H36.3717V34.6738H33.6739V31.976ZM36.3717 31.976H39.0692V34.6738H36.3717V31.976ZM22.8835 31.976H25.5813V34.6738H22.8835V31.976ZM25.5813 31.976H28.2788V34.6738H25.5813V31.976ZM28.2788 31.976H30.9764V34.6738H28.2788V31.976ZM44.4645 26.5809H47.1621V29.2785H44.4645V26.5809ZM41.7668 26.5809H44.4645V29.2785H41.7668V26.5809ZM39.0692 26.5809H41.7668V29.2785H39.0692V26.5809ZM36.3717 26.5809H39.0692V29.2785H36.3717V26.5809ZM30.9764 26.5809H33.6739V29.2785H30.9764V26.5809ZM28.2788 26.5809H30.9764V29.2785H28.2788V26.5809ZM25.5813 26.5809H28.2788V29.2785H25.5813V26.5809ZM22.8835 26.5809H25.5813V29.2785H22.8835V26.5809ZM44.4645 21.1856H47.1621V23.8834H44.4645V21.1856ZM41.7668 21.1856H44.4645V23.8834H41.7668V21.1856ZM36.3717 21.1856H39.0692V23.8834H36.3717V21.1856ZM33.6739 21.1856H36.3717V23.8834H33.6739V21.1856ZM25.5813 21.1856H28.2788V23.8834H25.5813V21.1856ZM30.9764 21.1856H33.6739V23.8834H30.9764V21.1856ZM28.2788 21.1856H30.9764V23.8834H28.2788V21.1856ZM22.8835 21.1856H25.5813V23.8834H22.8835V21.1856ZM41.7668 15.7905H44.4645V18.4881H41.7668V15.7905ZM33.6739 15.7905H36.3717V18.4881H33.6739V15.7905ZM36.3717 15.7905H39.0692V18.4881H36.3717V15.7905ZM39.0692 15.7905H41.7668V18.4881H39.0692V15.7905ZM30.9764 15.7905H33.6739V18.4881H30.9764V15.7905ZM25.5813 15.7905H28.2788V18.4881H25.5813V15.7905ZM22.8835 15.7905H25.5813V18.4881H22.8835V15.7905Z" fill="#4951F1"/>
<path d="M41.7669 42.7666H44.4646V45.4641H41.7669V42.7666ZM39.0693 42.7666H41.7669V45.4641H39.0693V42.7666ZM41.7669 40.0688H44.4646V42.7666H41.7669V40.0688ZM39.0693 40.0688H41.7669V42.7666H39.0693V40.0688Z" fill="#4951F1"/>
<path d="M44.4641 45.4641H47.1616V48.1617H44.4641V45.4641ZM39.0688 45.4641H41.7663V48.1617H39.0688V45.4641ZM41.7663 45.4641H44.4641V48.1617H41.7663V45.4641ZM36.3712 45.4641H39.0688V48.1617H36.3712V45.4641ZM30.9759 45.4641H33.6735V48.1617H30.9759V45.4641ZM33.6735 45.4641H36.3712V48.1617H33.6735V45.4641ZM22.8831 45.4641H25.5808V48.1617H22.8831V45.4641ZM25.5808 45.4641H28.2784V48.1617H25.5808V45.4641ZM28.2784 45.4641H30.9759V48.1617H28.2784V45.4641ZM30.9759 42.7666H33.6735V45.4641H30.9759V42.7666ZM33.6735 42.7666H36.3712V45.4641H33.6735V42.7666ZM36.3712 42.7666H39.0688V45.4641H36.3712V42.7666ZM28.2784 42.7666H30.9759V45.4641H28.2784V42.7666ZM25.5808 42.7666H28.2784V45.4641H25.5808V42.7666ZM22.8831 42.7666H25.5808V45.4641H22.8831V42.7666ZM20.1855 48.1617H22.8831V50.8594H20.1855V48.1617Z" fill="#D9DEF4"/>
<path d="M20.1858 42.7665H22.8834V45.4641H20.1858V42.7665ZM17.4883 26.5808H20.1858V29.2784H17.4883V26.5808Z" fill="white"/>
<path d="M20.1855 26.5811H22.8831V29.2786H20.1855V26.5811ZM20.1855 23.8835H22.8831V26.5811H20.1855V23.8835Z" fill="#D9DEF4"/>
<path d="M20.1855 40.0688H22.8831V42.7666H20.1855V40.0688Z" fill="white"/>
<path d="M20.1858 37.3713H22.8834V40.0689H20.1858V37.3713ZM20.1858 15.7905H22.8834V18.4881H20.1858V15.7905ZM20.1858 31.976H22.8834V34.6738H20.1858V31.976ZM20.1858 29.2785H22.8834V31.976H20.1858V29.2785ZM20.1858 18.4881H22.8834V21.1856H20.1858V18.4881ZM17.4883 34.6738H20.1858V37.3713H17.4883V34.6738ZM17.4883 18.4881H20.1858V21.1856H17.4883V18.4881ZM17.4883 15.7905H20.1858V18.4881H17.4883V15.7905ZM20.1858 21.1856H22.8834V23.8834H20.1858V21.1856ZM17.4883 21.1856H20.1858V23.8834H17.4883V21.1856Z" fill="#D9DEF4"/>
<path d="M17.4883 37.3713H20.1858V40.0689H17.4883V37.3713Z" fill="white"/>
<path d="M17.4883 23.8835H20.1858V26.5811H17.4883V23.8835ZM20.1858 34.6739H22.8834V37.3715H20.1858V34.6739ZM20.1858 45.4643H22.8834V48.1619H20.1858V45.4643Z" fill="#D9DEF4"/>
<path d="M17.4883 31.9761H20.1858V34.6739H17.4883V31.9761ZM17.4883 29.2786H20.1858V31.9761H17.4883V29.2786ZM17.4883 40.069H20.1858V42.7667H17.4883V40.069Z" fill="white"/>
<path d="M14.7905 50.8596H17.4883V53.5572H14.7905V50.8596ZM17.4883 50.8596H20.1858V53.5572H17.4883V50.8596ZM17.4883 45.4643H20.1858V48.1619H17.4883V45.4643ZM17.4883 48.1619H20.1858V50.8596H17.4883V48.1619ZM14.7905 34.6739H17.4883V37.3715H14.7905V34.6739ZM14.7905 23.8835H17.4883V26.5811H14.7905V23.8835ZM14.7905 31.9762H17.4883V34.6739H14.7905V31.9762ZM14.7905 40.069H17.4883V42.7668H14.7905V40.069Z" fill="#D9DEF4"/>
<path d="M14.7905 26.5808H17.4883V29.2784H14.7905V26.5808Z" fill="white"/>
<path d="M14.7905 21.1855H17.4883V23.8832H14.7905V21.1855ZM17.4883 42.7665H20.1858V45.464H17.4883V42.7665ZM14.7905 42.7665H17.4883V45.464H14.7905V42.7665ZM14.7905 45.464H17.4883V48.1616H14.7905V45.464ZM14.7905 18.4879H17.4883V21.1855H14.7905V18.4879ZM14.7905 48.1616H17.4883V50.8593H14.7905V48.1616ZM14.7905 29.2783H17.4883V31.9759H14.7905V29.2783ZM14.7905 37.3712H17.4883V40.0687H14.7905V37.3712ZM14.7905 15.7904H17.4883V18.4879H14.7905V15.7904ZM47.1619 40.0687H49.8595V42.7665H47.1619V40.0687ZM49.8595 13.0926H52.5572V15.7904H49.8595V13.0926ZM49.8595 10.3951H52.5572V13.0926H49.8595V10.3951ZM49.8595 15.7904H52.5572V18.4879H49.8595V15.7904ZM47.1619 42.7665H49.8595V45.464H47.1619V42.7665ZM47.1619 37.3712H49.8595V40.0687H47.1619V37.3712ZM47.1619 45.464H49.8595V48.1616H47.1619V45.464ZM47.1619 34.6736H49.8595V37.3712H47.1619V34.6736ZM49.8595 18.4879H52.5572V21.1855H49.8595V18.4879ZM44.4644 10.3951H47.1619V13.0926H44.4644V10.3951ZM41.7666 7.69751H44.4644V10.3951H41.7666V7.69751ZM44.4644 13.0926H47.1619V15.7904H44.4644V13.0926Z" fill="#D9DEF4"/>
<path d="M44.4644 7.69751H47.1619V10.3951H44.4644V7.69751ZM47.1619 10.3951H49.8595V13.0926H47.1619V10.3951ZM44.4644 37.3712H47.1619V40.0687H44.4644V37.3712ZM44.4644 42.7665H47.1619V45.464H44.4644V42.7665Z" fill="#D9DEF4"/>
<path d="M47.1616 13.0928H49.8592V15.7905H47.1616V13.0928Z" fill="white"/>
<path d="M44.4639 40.0687H47.1615V42.7665H44.4639V40.0687ZM47.1615 7.69751H49.859V10.3951H47.1615V7.69751ZM41.7662 10.3951H44.4639V13.0926H41.7662V10.3951ZM41.7662 13.0926H44.4639V15.7904H41.7662V13.0926ZM36.3711 13.0926H39.0686V15.7904H36.3711V13.0926ZM33.6733 7.69751H36.3711V10.3951H33.6733V7.69751ZM39.0686 13.0926H41.7662V15.7904H39.0686V13.0926ZM39.0686 7.69751H41.7662V10.3951H39.0686V7.69751Z" fill="#D9DEF4"/>
<path d="M33.6733 10.3953H36.3711V13.0928H33.6733V10.3953ZM33.6733 13.0928H36.3711V15.7906H33.6733V13.0928ZM36.3711 10.3953H39.0686V13.0928H36.3711V10.3953Z" fill="#D9DEF4"/>
<path d="M36.3714 7.69751H39.069V10.3951H36.3714V7.69751ZM39.069 10.3951H41.7665V13.0926H39.069V10.3951ZM28.2786 13.0926H30.9761V15.7904H28.2786V13.0926ZM30.9761 13.0926H33.6737V15.7904H30.9761V13.0926ZM30.9761 10.3951H33.6737V13.0926H30.9761V10.3951Z" fill="#D9DEF4"/>
<path d="M30.9759 7.69751H33.6735V10.3951H30.9759V7.69751ZM28.2784 10.3951H30.9759V13.0926H28.2784V10.3951ZM25.5808 7.69751H28.2784V10.3951H25.5808V7.69751Z" fill="#D9DEF4"/>
<path d="M25.5811 10.3951H28.2787V13.0926H25.5811V10.3951ZM28.2787 7.69751H30.9762V10.3951H28.2787V7.69751ZM25.5811 13.0926H28.2787V15.7904H25.5811V13.0926ZM20.1858 10.3951H22.8834V13.0926H20.1858V10.3951ZM20.1858 13.0926H22.8834V15.7904H20.1858V13.0926ZM17.4883 13.0926H20.1858V15.7904H17.4883V13.0926ZM22.8834 7.69751H25.5811V10.3951H22.8834V7.69751ZM17.4883 10.3951H20.1858V13.0926H17.4883V10.3951Z" fill="#D9DEF4"/>
<path d="M20.1859 7.69751H22.8834V10.3951H20.1859V7.69751ZM17.4883 7.69751H20.1859V10.3951H17.4883V7.69751ZM22.8834 13.0926H25.5812V15.7904H22.8834V13.0926ZM22.8834 10.3951H25.5812V13.0926H22.8834V10.3951ZM12.093 7.69751H14.7906V10.3951H12.093V7.69751ZM14.7906 13.0926H17.4883V15.7904H14.7906V13.0926ZM14.7906 10.3951H17.4883V13.0926H14.7906V10.3951Z" fill="#D9DEF4"/>
<path d="M14.7905 7.69751H17.4883V10.3951H14.7905V7.69751Z" fill="white"/>
<path d="M49.8596 26.5808H52.5574V29.2784H49.8596V26.5808ZM49.8596 45.4641H52.5574V48.1616H49.8596V45.4641ZM49.8596 23.8833H52.5574V26.5808H49.8596V23.8833ZM49.8596 34.6737H52.5574V37.3712H49.8596V34.6737ZM49.8596 21.1855H52.5574V23.8833H49.8596V21.1855ZM49.8596 29.2784H52.5574V31.9759H49.8596V29.2784ZM49.8596 31.9759H52.5574V34.6737H49.8596V31.9759Z" fill="#D9DEF4"/>
<path d="M52.5573 53.5571H55.2548V56.2546H52.5573V53.5571ZM22.8834 53.5571H25.5812V56.2546H22.8834V53.5571ZM47.162 50.8595H49.8595V53.5571H47.162V50.8595ZM39.0691 50.8595H41.7667V53.5571H39.0691V50.8595ZM44.4644 50.8595H47.162V53.5571H44.4644V50.8595ZM41.7667 50.8595H44.4644V53.5571H41.7667V50.8595ZM33.6738 50.8595H36.3716V53.5571H33.6738V50.8595ZM30.9763 50.8595H33.6738V53.5571H30.9763V50.8595ZM36.3716 50.8595H39.0691V53.5571H36.3716V50.8595ZM25.5812 50.8595H28.2787V53.5571H25.5812V50.8595ZM28.2787 50.8595H30.9763V53.5571H28.2787V50.8595ZM47.162 53.5571H49.8595V56.2546H47.162V53.5571ZM47.162 48.1618H49.8595V50.8595H47.162V48.1618ZM44.4644 53.5571H47.162V56.2546H44.4644V53.5571ZM39.0691 53.5571H41.7667V56.2546H39.0691V53.5571ZM41.7667 53.5571H44.4644V56.2546H41.7667V53.5571ZM41.7667 48.1618H44.4644V50.8595H41.7667V48.1618ZM44.4644 48.1618H47.162V50.8595H44.4644V48.1618ZM39.0691 48.1618H41.7667V50.8595H39.0691V48.1618ZM33.6738 48.1618H36.3716V50.8595H33.6738V48.1618ZM36.3716 48.1618H39.0691V50.8595H36.3716V48.1618ZM36.3716 53.5571H39.0691V56.2546H36.3716V53.5571ZM30.9763 48.1618H33.6738V50.8595H30.9763V48.1618ZM30.9763 53.5571H33.6738V56.2546H30.9763V53.5571ZM33.6738 53.5571H36.3716V56.2546H33.6738V53.5571ZM25.5812 53.5571H28.2787V56.2546H25.5812V53.5571ZM25.5812 48.1618H28.2787V50.8595H25.5812V48.1618ZM28.2787 48.1618H30.9763V50.8595H28.2787V48.1618ZM28.2787 53.5571H30.9763V56.2546H28.2787V53.5571ZM49.8595 50.8595H52.5573V53.5571H49.8595V50.8595ZM55.2548 50.8595H57.9524V53.5571H55.2548V50.8595ZM55.2548 48.1618H57.9524V50.8595H55.2548V48.1618ZM52.5573 48.1618H55.2548V50.8595H52.5573V48.1618ZM49.8595 48.1618H52.5573V50.8595H49.8595V48.1618ZM49.8595 53.5571H52.5573V56.2546H49.8595V53.5571ZM52.5573 50.8595H55.2548V53.5571H52.5573V50.8595ZM22.8834 50.8595H25.5812V53.5571H22.8834V50.8595ZM22.8834 48.1618H25.5812V50.8595H22.8834V48.1618ZM17.4883 53.5571H20.1859V56.2546H17.4883V53.5571ZM20.1859 53.5571H22.8834V56.2546H20.1859V53.5571ZM20.1859 50.8595H22.8834V53.5571H20.1859V50.8595ZM12.093 13.0928H14.7906V15.7906H12.093V13.0928ZM12.093 10.3953H14.7906V13.0928H12.093V10.3953Z" fill="#797BF2"/>
<path d="M9.39526 7.69751H12.0928V10.3951H9.39526V7.69751ZM9.39526 13.0926H12.0928V15.7904H9.39526V13.0926Z" fill="#797BF2"/>
<path d="M9.39526 10.3953H12.0928V13.0928H9.39526V10.3953ZM6.69751 13.0928H9.39526V15.7906H6.69751V13.0928ZM6.69751 10.3953H9.39526V13.0928H6.69751V10.3953Z" fill="#797BF2"/>
<path d="M57.9525 50.8595H60.6502V53.5571H57.9525V50.8595ZM57.9525 48.1618H60.6502V50.8595H57.9525V48.1618ZM55.2549 53.5571H57.9525V56.2546H55.2549V53.5571ZM55.2549 45.4642H57.9525V48.1618H55.2549V45.4642ZM52.5574 56.2546H55.2549V58.9524H52.5574V56.2546ZM52.5574 45.4642H55.2549V48.1618H52.5574V45.4642ZM52.5574 42.7667H55.2549V45.4642H52.5574V42.7667ZM52.5574 40.0689H55.2549V42.7667H52.5574V40.0689ZM52.5574 37.3714H55.2549V40.0689H52.5574V37.3714ZM52.5574 34.6738H55.2549V37.3714H52.5574V34.6738ZM52.5574 31.9761H55.2549V34.6738H52.5574V31.9761ZM52.5574 29.2785H55.2549V31.9761H52.5574V29.2785ZM52.5574 26.581H55.2549V29.2785H52.5574V26.581ZM52.5574 23.8834H55.2549V26.581H52.5574V23.8834ZM52.5574 21.1857H55.2549V23.8834H52.5574V21.1857ZM52.5574 18.4881H55.2549V21.1857H52.5574V18.4881ZM52.5574 15.7906H55.2549V18.4881H52.5574V15.7906ZM52.5574 13.0928H55.2549V15.7906H52.5574V13.0928ZM52.5574 10.3953H55.2549V13.0928H52.5574V10.3953ZM49.8596 56.2546H52.5574V58.9524H49.8596V56.2546Z" fill="#4951F1"/>
<path d="M49.8596 42.7666H52.5574V45.4642H49.8596V42.7666Z" fill="white"/>
<path d="M49.8596 40.0689H52.5574V42.7666H49.8596V40.0689ZM49.8596 37.3713H52.5574V40.0689H49.8596V37.3713Z" fill="#D9DEF4"/>
<path d="M49.8595 7.69775H52.5573V10.3953H49.8595V7.69775ZM47.162 56.2546H49.8595V58.9524H47.162V56.2546ZM47.162 5H49.8595V7.69775H47.162V5ZM44.4644 56.2546H47.162V58.9524H44.4644V56.2546ZM44.4644 5H47.162V7.69775H44.4644V5ZM41.7667 56.2546H44.4644V58.9524H41.7667V56.2546ZM41.7667 5H44.4644V7.69775H41.7667V5ZM39.0691 56.2546H41.7667V58.9524H39.0691V56.2546ZM39.0691 5H41.7667V7.69775H39.0691V5ZM36.3716 56.2546H39.0691V58.9524H36.3716V56.2546ZM36.3716 5H39.0691V7.69775H36.3716V5ZM33.6738 56.2546H36.3716V58.9524H33.6738V56.2546ZM33.6738 5H36.3716V7.69775H33.6738V5ZM30.9763 56.2546H33.6738V58.9524H30.9763V56.2546ZM30.9763 5H33.6738V7.69775H30.9763V5ZM28.2787 56.2546H30.9763V58.9524H28.2787V56.2546ZM28.2787 5H30.9763V7.69775H28.2787V5ZM25.5812 56.2546H28.2787V58.9524H25.5812V56.2546ZM25.5812 5H28.2787V7.69775H25.5812V5ZM22.8834 56.2546H25.5812V58.9524H22.8834V56.2546ZM22.8834 5H25.5812V7.69775H22.8834V5ZM20.1859 56.2546H22.8834V58.9524H20.1859V56.2546ZM20.1859 5H22.8834V7.69775H20.1859V5ZM17.4883 56.2546H20.1859V58.9524H17.4883V56.2546ZM17.4883 5H20.1859V7.69775H17.4883V5ZM14.7906 53.5571H17.4883V56.2546H14.7906V53.5571ZM14.7906 5H17.4883V7.69775H14.7906V5ZM12.093 50.8595H14.7906V53.5571H12.093V50.8595ZM12.093 48.1618H14.7906V50.8595H12.093V48.1618ZM12.093 45.4642H14.7906V48.1618H12.093V45.4642ZM12.093 42.7667H14.7906V45.4642H12.093V42.7667ZM12.093 40.0689H14.7906V42.7667H12.093V40.0689ZM12.093 37.3714H14.7906V40.0689H12.093V37.3714ZM12.093 34.6738H14.7906V37.3714H12.093V34.6738ZM12.093 31.9761H14.7906V34.6738H12.093V31.9761ZM12.093 29.2785H14.7906V31.9761H12.093V29.2785ZM12.093 26.581H14.7906V29.2785H12.093V26.581ZM12.093 23.8834H14.7906V26.581H12.093V23.8834ZM12.093 21.1857H14.7906V23.8834H12.093V21.1857ZM12.093 18.4881H14.7906V21.1857H12.093V18.4881ZM12.093 15.7906H14.7906V18.4881H12.093V15.7906ZM12.093 5H14.7906V7.69775H12.093V5Z" fill="#4951F1"/>
<path d="M9.3953 15.7906H12.0928V18.4881H9.3953V15.7906ZM9.3953 5H12.0928V7.69775H9.3953V5ZM6.69755 15.7906H9.3953V18.4881H6.69755V15.7906ZM6.69755 7.69775H9.3953V10.3953H6.69755V7.69775ZM4 13.0928H6.69755V15.7906H4V13.0928ZM4 10.3953H6.69755V13.0928H4V10.3953Z" fill="#4951F1"/>
</svg>
