<svg width="104" height="104" viewBox="0 0 104 104" fill="none" xmlns="http://www.w3.org/2000/svg">
<circle opacity="0.5" cx="52" cy="52" r="52" fill="url(#paint0_radial_457_4722)"/>
<circle cx="52" cy="52" r="31" stroke="#43CEFC" stroke-width="2"/>
<path d="M63.9972 48.2759C62.6032 45.0434 59.9392 42.4883 56.6341 41.2334C56.4648 41.1699 56.3438 41.0187 56.3226 40.8403C56.0686 38.6782 54.2301 37 51.9985 37C49.6702 37 47.7682 38.8294 47.6502 41.1276C47.6472 41.2032 47.6442 41.2788 47.6442 41.3543C47.6442 41.9621 47.7682 42.5397 47.9919 43.0628C48.6572 44.6171 50.1993 45.7087 51.9985 45.7087C53.6405 45.7087 55.0708 44.7985 55.8116 43.4559C55.9326 43.2382 56.1987 43.1445 56.4285 43.2412C56.5918 43.3108 56.7581 43.3864 56.8367 43.4227C57.9586 43.9639 58.9776 44.6897 59.8666 45.5787C60.7193 46.4314 61.4178 47.399 61.9531 48.4665C62.0952 48.7507 61.9319 49.0954 61.6204 49.1589L60.7677 49.3343C60.677 49.3524 60.6407 49.4643 60.7012 49.5339L63.0568 52.1828L64.0305 53.2744C64.0909 53.3439 64.2058 53.3197 64.2361 53.232L64.8832 51.2756L65.8115 48.4785C65.8417 48.3909 65.7631 48.3032 65.6724 48.3213L64.5415 48.5541C64.3147 48.6055 64.0879 48.4876 63.9972 48.2759ZM54.1152 42.5216C53.704 43.2654 52.9087 43.7734 51.9985 43.7734C51.0884 43.7734 50.2931 43.2684 49.8818 42.5216C49.6883 42.1738 49.5795 41.7777 49.5795 41.3543C49.5795 41.0852 49.6248 40.8282 49.7034 40.5863C50.024 39.6277 50.9341 38.9353 51.9985 38.9353C53.0629 38.9353 53.9731 39.6277 54.2936 40.5863C54.3753 40.8282 54.4176 41.0852 54.4176 41.3543C54.4176 41.7777 54.3088 42.1768 54.1152 42.5216ZM64.8953 55.5302C64.3419 55.1945 63.7069 54.9798 63.0296 54.9194C62.9026 54.9073 62.7725 54.9012 62.6425 54.9012C60.2385 54.9012 58.2882 56.8516 58.2882 59.2556C58.2882 60.1083 58.5331 60.9066 58.9594 61.5779C59.0925 61.7895 59.0471 62.0677 58.8506 62.222C58.0795 62.8237 57.2389 63.3226 56.3317 63.7036C54.9589 64.2842 53.5014 64.5775 51.9985 64.5775C51.7385 64.5775 51.4784 64.5685 51.2214 64.5503C50.8948 64.5292 50.6832 64.1996 50.8011 63.8941L51.1277 63.0444C51.1609 62.9568 51.0884 62.866 50.9946 62.8812L47.1785 63.4829L46.0476 63.6613C45.9569 63.6764 45.9145 63.7853 45.972 63.8579L47.4658 65.7054L49.1198 67.7526C49.1773 67.8252 49.2922 67.807 49.3255 67.7193L49.7186 66.7003C49.8002 66.4916 50.0119 66.3646 50.2356 66.3949C50.8132 66.4735 51.3998 66.5128 51.9985 66.5128C55.2431 66.5128 58.2126 65.3305 60.4986 63.371C60.6377 63.2531 60.8282 63.2198 60.9975 63.2894C61.4632 63.4799 61.9682 63.5918 62.5004 63.6099C64.9346 63.6885 66.9757 61.7351 66.9999 59.3009C67.012 57.7013 66.1653 56.2982 64.8953 55.5302ZM62.6425 61.6746C62.4853 61.6746 62.331 61.6595 62.1829 61.6293C61.5086 61.4993 60.934 61.091 60.5863 60.5256C60.3565 60.1567 60.2234 59.7182 60.2234 59.2525C60.2234 57.9311 61.2878 56.8546 62.6032 56.8335H62.6425C63.3289 56.8335 63.9518 57.1207 64.3933 57.5834C64.8076 58.0188 65.0616 58.6054 65.0616 59.2525C65.0616 60.5891 63.976 61.6746 62.6425 61.6746ZM41.3939 54.9133C41.1459 54.9103 40.9403 54.7198 40.9161 54.4718C40.8859 54.1362 40.8708 53.7945 40.8708 53.4528C40.8708 51.9499 41.1641 50.4924 41.7447 49.1226C42.041 48.4211 42.4039 47.7589 42.8332 47.139C43.0147 46.8759 43.4017 46.8608 43.6043 47.1118L44.1184 47.7468C44.1758 47.8193 44.2907 47.8012 44.324 47.7135L45.6182 44.3328L46.1141 43.0356C46.1474 42.9479 46.0748 42.8572 45.9811 42.8723L43.8946 43.2049L41.0371 43.6585C40.9464 43.6736 40.904 43.7825 40.9615 43.8551L41.7144 44.7834C41.8565 44.9588 41.8596 45.2098 41.7205 45.3882C39.9757 47.6047 38.9355 50.4047 38.9355 53.4498C38.9355 54.0515 38.9748 54.6472 39.0564 55.2278C39.0806 55.4062 39.005 55.5846 38.8569 55.6904C37.7229 56.4827 36.9851 57.8041 37.0002 59.2979C37.0244 61.7321 39.0655 63.6885 41.4997 63.6069C42.1347 63.5857 42.7335 63.4315 43.2687 63.1654C43.8674 62.8721 44.3875 62.4457 44.7897 61.9256C45.3642 61.1878 45.7059 60.2595 45.7059 59.2525C45.7059 57.0119 44.0125 55.1643 41.8354 54.9254C41.7598 54.9194 41.5753 54.9133 41.3939 54.9133ZM43.4108 60.5286C43.06 61.091 42.4855 61.5023 41.8142 61.6323C41.666 61.6625 41.5118 61.6777 41.3546 61.6777C40.0211 61.6777 38.9355 60.5921 38.9355 59.2586C38.9355 58.6115 39.1895 58.0249 39.6038 57.5894C40.0452 57.1268 40.6651 56.8395 41.3546 56.8395H41.3939C42.7093 56.8607 43.7737 57.9372 43.7737 59.2586C43.7737 59.7212 43.6406 60.1597 43.4108 60.5286Z" fill="#43CEFC"/>
<defs>
<radialGradient id="paint0_radial_457_4722" cx="0" cy="0" r="1" gradientUnits="userSpaceOnUse" gradientTransform="translate(51.8076 51.8097) rotate(71.1324) scale(51.2455 52.664)">
<stop offset="0.00540541" stop-color="#474DFF"/>
<stop offset="1" stop-color="#474DFF" stop-opacity="0"/>
</radialGradient>
</defs>
</svg>
