<svg width="100" height="40" viewBox="0 0 100 40" fill="none" xmlns="http://www.w3.org/2000/svg">
<mask id="mask0_457_5979" style="mask-type:alpha" maskUnits="userSpaceOnUse" x="0" y="0" width="100" height="40">
<rect width="100" height="40" fill="#D9D9D9"/>
</mask>
<g mask="url(#mask0_457_5979)">
<mask id="mask1_457_5979" style="mask-type:alpha" maskUnits="userSpaceOnUse" x="0" y="7" width="12" height="26">
<path d="M0.442627 7.83533L11.3319 14.4778V32.7717L0.442627 26.1292V7.83533Z" fill="#D9D9D9"/>
</mask>
<g mask="url(#mask1_457_5979)">
<path fill-rule="evenodd" clip-rule="evenodd" d="M-2.76555 43.2928L28.7109 12.248L28.8638 12.4031L-2.61262 43.4479L-2.76555 43.2928ZM29.6285 13.1784L-1.84797 44.2231L-1.69504 44.3782L29.7814 13.3334L29.6285 13.1784ZM24.4289 7.90644L-7.0476 38.9512L-6.89467 39.1063L24.5818 8.06149L24.4289 7.90644ZM-6.74174 39.2613L24.7347 8.21655L24.8877 8.37161L-6.58881 39.4164L-6.74174 39.2613ZM29.9343 13.4885L-1.54214 44.5333L-1.3892 44.6883L30.0873 13.6435L29.9343 13.4885ZM-6.43588 39.5715L25.0406 8.52667L25.1935 8.68172L-6.28295 39.7265L-6.43588 39.5715ZM30.2402 13.7986L-1.23627 44.8434L-1.08334 44.9984L30.3931 13.9536L30.2402 13.7986ZM-6.13002 39.8816L25.3464 8.83678L25.4994 8.99184L-5.97709 40.0366L-6.13002 39.8816ZM30.5461 14.1087L-0.930413 45.1535L-0.777483 45.3085L30.699 14.2638L30.5461 14.1087ZM-5.82416 40.1917L25.6523 9.14689L25.8052 9.30195L-5.67123 40.3467L-5.82416 40.1917ZM30.8519 14.4188L-0.624555 45.4636L-0.471625 45.6187L31.0048 14.5739L30.8519 14.4188ZM-5.5183 40.5018L25.9582 9.45701L26.1111 9.61206L-5.36537 40.6569L-5.5183 40.5018ZM31.1578 14.7289L-0.318693 45.7737L-0.165764 45.9288L31.3107 14.884L31.1578 14.7289ZM-5.21244 40.8119L26.264 9.76712L26.417 9.92218L-5.05951 40.967L-5.21244 40.8119ZM31.4636 15.039L-0.0128328 46.0838L0.140097 46.2389L31.6166 15.1941L31.4636 15.039ZM-4.90658 41.122L26.5699 10.0772L26.7228 10.2323L-4.75365 41.2771L-4.90658 41.122ZM31.7695 15.3492L0.293029 46.3939L0.445958 46.549L31.9224 15.5042L31.7695 15.3492ZM-4.60072 41.4321L26.8758 10.3874L27.0287 10.5424L-4.44779 41.5872L-4.60072 41.4321ZM32.0754 15.6593L0.59889 46.7041L0.75182 46.8591L32.2283 15.8143L32.0754 15.6593ZM-4.29485 41.7423L27.1816 10.6975L27.3345 10.8525L-4.14193 41.8973L-4.29485 41.7423ZM32.3812 15.9694L0.90475 47.0142L1.05768 47.1692L32.5341 16.1244L32.3812 15.9694ZM-3.98899 42.0524L27.4875 11.0076L27.6404 11.1626L-3.83606 42.2074L-3.98899 42.0524ZM32.6871 16.2795L1.21061 47.3243L1.36354 47.4793L32.84 16.4346L32.6871 16.2795ZM-7.35346 38.6411L24.123 7.59632L24.2759 7.75138L-7.20053 38.7962L-7.35346 38.6411ZM32.9929 16.5896L1.51647 47.6344L1.6694 47.7895L33.1459 16.7447L32.9929 16.5896ZM-3.68313 42.3625L27.7933 11.3177L27.9463 11.4728L-3.5302 42.5175L-3.68313 42.3625ZM33.2988 16.8997L1.82233 47.9445L1.97526 48.0996L33.4517 17.0548L33.2988 16.8997ZM-3.37727 42.6726L28.0992 11.6278L28.2521 11.7829L-3.22434 42.8277L-3.37727 42.6726ZM33.6047 17.2098L2.12819 48.2546L2.28112 48.4097L33.7576 17.3649L33.6047 17.2098ZM-3.07141 42.9827L28.4051 11.9379L28.558 12.093L-2.91848 43.1378L-3.07141 42.9827ZM33.9105 17.52L2.43405 48.5647L2.58698 48.7198L34.0635 17.675L33.9105 17.52ZM34.2164 17.8301L2.73991 48.8749L2.89284 49.0299L34.3693 17.9851L34.2164 17.8301ZM-2.45969 43.6029L29.0168 12.5581L29.1697 12.7132L-2.30676 43.758L-2.45969 43.6029ZM34.5222 18.1402L3.04577 49.185L3.1987 49.34L34.6752 18.2952L34.5222 18.1402ZM-2.15383 43.913L29.3226 12.8682L29.4756 13.0233L-2.0009 44.0681L-2.15383 43.913ZM34.8281 18.4503L3.35163 49.4951L3.50456 49.6501L34.981 18.6053L34.8281 18.4503ZM-18.0586 27.7872L13.4179 -3.25762L13.5708 -3.10257L-17.9056 27.9422L-18.0586 27.7872ZM18.6175 2.01429L-12.8589 33.0591L-12.706 33.2141L18.7705 2.16935L18.6175 2.01429ZM-17.7527 28.0973L13.7238 -2.94751L13.8767 -2.79245L-17.5998 28.2523L-17.7527 28.0973ZM18.9234 2.32441L-12.5531 33.3692L-12.4002 33.5243L19.0763 2.47946L18.9234 2.32441ZM-17.4468 28.4074L14.0296 -2.63739L14.1826 -2.48234L-17.2939 28.5624L-17.4468 28.4074ZM19.2292 2.63452L-12.2472 33.6793L-12.0943 33.8344L19.3822 2.78958L19.2292 2.63452ZM-17.141 28.7175L14.3355 -2.32728L14.4884 -2.17222L-16.988 28.8726L-17.141 28.7175ZM19.5351 2.94464L-11.9414 33.9894L-11.7884 34.1445L19.688 3.09969L19.5351 2.94464ZM-16.8351 29.0276L14.6414 -2.01717L14.7943 -1.86211L-16.6822 29.1827L-16.8351 29.0276ZM19.841 3.25475L-11.6355 34.2995L-11.4826 34.4546L19.9939 3.40981L19.841 3.25475ZM-16.5293 29.3377L14.9472 -1.70705L15.1001 -1.552L-16.3763 29.4928L-16.5293 29.3377ZM20.1468 3.56486L-11.3297 34.6097L-11.1767 34.7647L20.2997 3.71992L20.1468 3.56486ZM-16.2234 29.6479L15.2531 -1.39694L15.406 -1.24188L-16.0705 29.8029L-16.2234 29.6479ZM20.4527 3.87498L-11.0238 34.9198L-10.8709 35.0748L20.6056 4.03003L20.4527 3.87498ZM-15.9175 29.958L15.5589 -1.08682L15.7119 -0.931767L-15.7646 30.113L-15.9175 29.958ZM20.7585 4.18509L-10.7179 35.2299L-10.565 35.3849L20.9115 4.34015L20.7585 4.18509ZM-15.6117 30.2681L15.8648 -0.776709L16.0177 -0.621653L-15.4587 30.4231L-15.6117 30.2681ZM21.0644 4.49521L-10.4121 35.54L-10.2591 35.6951L21.2173 4.65026L21.0644 4.49521ZM-15.3058 30.5782L16.1707 -0.466595L16.3236 -0.311539L-15.1529 30.7332L-15.3058 30.5782ZM21.3703 4.80532L-10.1062 35.8501L-9.95328 36.0052L21.5232 4.96038L21.3703 4.80532ZM-15 30.8883L16.4765 -0.156507L16.6294 -0.00145091L-14.847 31.0433L-15 30.8883ZM21.6761 5.11544L-9.80035 36.1602L-9.64742 36.3153L21.8291 5.27049L21.6761 5.11544ZM-18.3644 27.4771L13.112 -3.56774L13.265 -3.41268L-18.2115 27.6321L-18.3644 27.4771ZM21.982 5.42555L-9.49449 36.4703L-9.34156 36.6254L22.1349 5.58061L21.982 5.42555ZM-14.6941 31.1984L16.7824 0.153607L16.9353 0.308663L-14.5412 31.3535L-14.6941 31.1984ZM22.2878 5.73566L-9.18863 36.7805L-9.0357 36.9355L22.4408 5.89072L22.2878 5.73566ZM-14.3882 31.5085L17.0882 0.463721L17.2412 0.618778L-14.2353 31.6636L-14.3882 31.5085ZM22.5937 6.04575L-8.88277 37.0905L-8.72984 37.2456L22.7466 6.20081L22.5937 6.04575ZM-14.0824 31.8186L17.3941 0.773835L17.547 0.928892L-13.9294 31.9737L-14.0824 31.8186ZM22.8996 6.35587L-8.5769 37.4007L-8.42398 37.5557L23.0525 6.51092L22.8996 6.35587ZM-13.7765 32.1287L17.7 1.08395L17.8529 1.23901L-13.6236 32.2838L-13.7765 32.1287ZM23.2054 6.66598L-8.27104 37.7108L-8.11811 37.8658L23.3584 6.82104L23.2054 6.66598ZM-13.4706 32.4389L18.0058 1.39406L18.1587 1.54912L-13.3177 32.5939L-13.4706 32.4389ZM23.5113 6.97609L-7.96518 38.0209L-7.81225 38.1759L23.6642 7.13115L23.5113 6.97609ZM-13.1648 32.749L18.3117 1.70418L18.4646 1.85923L-13.0119 32.904L-13.1648 32.749ZM23.8171 7.28621L-7.65932 38.331L-7.50639 38.4861L23.9701 7.44127L23.8171 7.28621Z" fill="url(#paint0_linear_457_5979)"/>
</g>
<mask id="mask2_457_5979" style="mask-type:alpha" maskUnits="userSpaceOnUse" x="15" y="7" width="4" height="4">
<path d="M15.2539 10.3936V7.39905L18.6296 9.468L15.2539 10.3936Z" fill="#D9D9D9"/>
</mask>
<g mask="url(#mask2_457_5979)">
<path fill-rule="evenodd" clip-rule="evenodd" d="M10.9552 43.1838L42.4316 12.139L42.5845 12.2941L11.1081 43.3388L10.9552 43.1838ZM43.3492 13.0693L11.8727 44.1141L12.0257 44.2692L43.5021 13.2244L43.3492 13.0693ZM38.1496 7.79743L6.6731 38.8422L6.82603 38.9973L38.3025 7.95248L38.1496 7.79743ZM6.97896 39.1523L38.4554 8.10754L38.6084 8.2626L7.13189 39.3074L6.97896 39.1523ZM43.655 13.3795L12.1786 44.4242L12.3315 44.5793L43.808 13.5345L43.655 13.3795ZM7.28482 39.4624L38.7613 8.41766L38.9142 8.57271L7.43775 39.6175L7.28482 39.4624ZM43.9609 13.6896L12.4844 44.7344L12.6374 44.8894L44.1138 13.8446L43.9609 13.6896ZM7.59069 39.7726L39.0672 8.72777L39.2201 8.88283L7.74362 39.9276L7.59069 39.7726ZM44.2668 13.9997L12.7903 45.0445L12.9432 45.1995L44.4197 14.1547L44.2668 13.9997ZM7.89655 40.0827L39.373 9.03789L39.5259 9.19294L8.04948 40.2377L7.89655 40.0827ZM44.5726 14.3098L13.0961 45.3546L13.2491 45.5096L44.7255 14.4649L44.5726 14.3098ZM8.20241 40.3928L39.6789 9.348L39.8318 9.50306L8.35533 40.5478L8.20241 40.3928ZM44.8785 14.6199L13.402 45.6647L13.5549 45.8198L45.0314 14.775L44.8785 14.6199ZM8.50827 40.7029L39.9847 9.65811L40.1377 9.81317L8.6612 40.858L8.50827 40.7029ZM45.1843 14.93L13.7079 45.9748L13.8608 46.1299L45.3373 15.0851L45.1843 14.93ZM8.81413 41.013L40.2906 9.96823L40.4435 10.1233L8.96706 41.1681L8.81413 41.013ZM45.4902 15.2401L14.0137 46.2849L14.1667 46.44L45.6431 15.3952L45.4902 15.2401ZM9.11999 41.3231L40.5965 10.2783L40.7494 10.4334L9.27292 41.4782L9.11999 41.3231ZM45.7961 15.5503L14.3196 46.595L14.4725 46.7501L45.949 15.7053L45.7961 15.5503ZM9.42585 41.6332L40.9023 10.5885L41.0552 10.7435L9.57878 41.7883L9.42585 41.6332ZM46.1019 15.8604L14.6255 46.9052L14.7784 47.0602L46.2549 16.0154L46.1019 15.8604ZM9.73171 41.9434L41.2082 10.8986L41.3611 11.0536L9.88464 42.0984L9.73171 41.9434ZM46.4078 16.1705L14.9313 47.2153L15.0842 47.3703L46.5607 16.3255L46.4078 16.1705ZM6.36724 38.5321L37.8437 7.48731L37.9966 7.64237L6.52017 38.6872L6.36724 38.5321ZM46.7136 16.4806L15.2372 47.5254L15.3901 47.6804L46.8666 16.6357L46.7136 16.4806ZM10.0376 42.2535L41.514 11.2087L41.667 11.3637L10.1905 42.4085L10.0376 42.2535ZM47.0195 16.7907L15.543 47.8355L15.696 47.9906L47.1724 16.9458L47.0195 16.7907ZM10.3434 42.5636L41.8199 11.5188L41.9728 11.6739L10.4964 42.7186L10.3434 42.5636ZM47.3254 17.1008L15.8489 48.1456L16.0018 48.3007L47.4783 17.2559L47.3254 17.1008ZM10.6493 42.8737L42.1258 11.8289L42.2787 11.984L10.8022 43.0288L10.6493 42.8737ZM47.6312 17.4109L16.1548 48.4557L16.3077 48.6108L47.7842 17.566L47.6312 17.4109ZM47.9371 17.7211L16.4606 48.7658L16.6135 48.9209L48.09 17.8761L47.9371 17.7211ZM11.261 43.4939L42.7375 12.4491L42.8904 12.6042L11.4139 43.649L11.261 43.4939ZM48.2429 18.0312L16.7665 49.076L16.9194 49.231L48.3959 18.1862L48.2429 18.0312ZM11.5669 43.804L43.0433 12.7592L43.1963 12.9143L11.7198 43.9591L11.5669 43.804ZM48.5488 18.3413L17.0723 49.3861L17.2253 49.5411L48.7017 18.4963L48.5488 18.3413ZM-4.33785 27.6782L27.1386 -3.36663L27.2915 -3.21158L-4.18492 27.8332L-4.33785 27.6782ZM32.3382 1.90528L0.861776 32.9501L1.01471 33.1051L32.4912 2.06034L32.3382 1.90528ZM-4.03199 27.9883L27.4445 -3.05652L27.5974 -2.90146L-3.87906 28.1433L-4.03199 27.9883ZM32.6441 2.2154L1.16761 33.2602L1.32054 33.4152L32.797 2.37045L32.6441 2.2154ZM-3.72613 28.2984L27.7503 -2.7464L27.9033 -2.59135L-3.5732 28.4534L-3.72613 28.2984ZM32.9499 2.52551L1.47347 33.5703L1.6264 33.7254L33.1029 2.68057L32.9499 2.52551ZM-3.42027 28.6085L28.0562 -2.43629L28.2091 -2.28123L-3.26734 28.7636L-3.42027 28.6085ZM33.2558 2.83563L1.77933 33.8804L1.93226 34.0355L33.4087 2.99068L33.2558 2.83563ZM-3.11441 28.9186L28.3621 -2.12618L28.515 -1.97112L-2.96148 29.0737L-3.11441 28.9186ZM33.5617 3.14574L2.08519 34.1905L2.23812 34.3456L33.7146 3.3008L33.5617 3.14574ZM-2.80855 29.2287L28.6679 -1.81606L28.8208 -1.661L-2.65562 29.3838L-2.80855 29.2287ZM33.8675 3.45586L2.39105 34.5006L2.54398 34.6557L34.0205 3.61091L33.8675 3.45586ZM-2.50269 29.5388L28.9738 -1.50595L29.1267 -1.35089L-2.34976 29.6939L-2.50269 29.5388ZM34.1734 3.76597L2.69691 34.8108L2.84984 34.9658L34.3263 3.92103L34.1734 3.76597ZM-2.19683 29.849L29.2796 -1.19583L29.4326 -1.04078L-2.0439 30.004L-2.19683 29.849ZM34.4792 4.07608L3.00277 35.1209L3.1557 35.2759L34.6322 4.23114L34.4792 4.07608ZM-1.89097 30.1591L29.5855 -0.885718L29.7384 -0.730662L-1.73804 30.3141L-1.89097 30.1591ZM34.7851 4.3862L3.30863 35.431L3.46156 35.586L34.938 4.54125L34.7851 4.3862ZM-1.58511 30.4692L29.8914 -0.575604L30.0443 -0.420547L-1.43218 30.6242L-1.58511 30.4692ZM35.091 4.69631L3.6145 35.7411L3.76743 35.8962L35.2439 4.85137L35.091 4.69631ZM-1.27925 30.7793L30.1972 -0.265516L30.3501 -0.11046L-1.12632 30.9343L-1.27925 30.7793ZM35.3968 5.00643L3.92036 36.0512L4.07329 36.2063L35.5498 5.16148L35.3968 5.00643ZM-4.64372 27.368L26.8328 -3.67675L26.9857 -3.52169L-4.49079 27.5231L-4.64372 27.368ZM35.7027 5.31654L4.22621 36.3613L4.37914 36.5164L35.8556 5.4716L35.7027 5.31654ZM-0.97339 31.0894L30.5031 0.044598L30.656 0.199654L-0.82046 31.2444L-0.97339 31.0894ZM36.0085 5.62666L4.53208 36.6714L4.68501 36.8265L36.1615 5.78171L36.0085 5.62666ZM-0.667528 31.3995L30.8089 0.354712L30.9619 0.509769L-0.514599 31.5546L-0.667528 31.3995ZM36.3144 5.93674L4.83794 36.9815L4.99087 37.1366L36.4673 6.0918L36.3144 5.93674ZM-0.361668 31.7096L31.1148 0.664827L31.2677 0.819883L-0.208738 31.8647L-0.361668 31.7096ZM36.6203 6.24686L5.1438 37.2916L5.29673 37.4467L36.7732 6.40191L36.6203 6.24686ZM-0.0558065 32.0197L31.4207 0.974941L31.5736 1.13L0.0971234 32.1748L-0.0558065 32.0197ZM36.9261 6.55697L5.44966 37.6018L5.60259 37.7568L37.0791 6.71203L36.9261 6.55697ZM0.250054 32.3298L31.7265 1.28506L31.8795 1.44011L0.402984 32.4849L0.250054 32.3298ZM37.232 6.86709L5.75552 37.9119L5.90845 38.0669L37.3849 7.02214L37.232 6.86709ZM0.555915 32.64L32.0324 1.59517L32.1853 1.75023L0.708845 32.795L0.555915 32.64ZM37.5378 7.1772L6.06138 38.222L6.21431 38.377L37.6908 7.33226L37.5378 7.1772Z" fill="url(#paint1_linear_457_5979)"/>
</g>
<mask id="mask3_457_5979" style="mask-type:alpha" maskUnits="userSpaceOnUse" x="16" y="19" width="8" height="17">
<path d="M16.8328 31.3001V19.1586L20.4262 21.282V27.271L23.9652 29.5033L23.8563 35.4924L16.8328 31.3001Z" fill="#D9D9D9"/>
</mask>
<g mask="url(#mask3_457_5979)">
<path fill-rule="evenodd" clip-rule="evenodd" d="M12.5892 54.9432L44.0657 23.8984L44.2186 24.0535L12.7421 55.0982L12.5892 54.9432ZM44.9832 24.8287L13.5068 55.8735L13.6597 56.0286L45.1362 24.9838L44.9832 24.8287ZM39.7836 19.5568L8.30714 50.6016L8.46007 50.7567L39.9365 19.7119L39.7836 19.5568ZM8.613 50.9117L40.0895 19.8669L40.2424 20.022L8.76593 51.0668L8.613 50.9117ZM45.2891 25.1389L13.8126 56.1836L13.9655 56.3387L45.442 25.2939L45.2891 25.1389ZM8.91886 51.2218L40.3953 20.1771L40.5483 20.3321L9.07179 51.3769L8.91886 51.2218ZM45.5949 25.449L14.1185 56.4938L14.2714 56.6488L45.7479 25.604L45.5949 25.449ZM9.22472 51.532L40.7012 20.4872L40.8541 20.6422L9.37765 51.687L9.22472 51.532ZM45.9008 25.7591L14.4243 56.8039L14.5773 56.9589L46.0537 25.9141L45.9008 25.7591ZM9.53058 51.8421L41.007 20.7973L41.16 20.9523L9.68351 51.9971L9.53058 51.8421ZM46.2067 26.0692L14.7302 57.114L14.8831 57.269L46.3596 26.2243L46.2067 26.0692ZM9.83644 52.1522L41.3129 21.1074L41.4658 21.2625L9.98937 52.3072L9.83644 52.1522ZM46.5125 26.3793L15.036 57.4241L15.189 57.5792L46.6654 26.5344L46.5125 26.3793ZM10.1423 52.4623L41.6188 21.4175L41.7717 21.5726L10.2952 52.6174L10.1423 52.4623ZM46.8184 26.6894L15.3419 57.7342L15.4948 57.8893L46.9713 26.8445L46.8184 26.6894ZM10.4482 52.7724L41.9246 21.7276L42.0776 21.8827L10.6011 52.9275L10.4482 52.7724ZM47.1242 26.9995L15.6478 58.0443L15.8007 58.1994L47.2772 27.1546L47.1242 26.9995ZM10.754 53.0825L42.2305 22.0377L42.3834 22.1928L10.907 53.2376L10.754 53.0825ZM47.4301 27.3097L15.9536 58.3544L16.1066 58.5095L47.583 27.4647L47.4301 27.3097ZM11.0599 53.3926L42.5364 22.3479L42.6893 22.5029L11.2128 53.5477L11.0599 53.3926ZM47.736 27.6198L16.2595 58.6646L16.4124 58.8196L47.8889 27.7748L47.736 27.6198ZM11.3657 53.7028L42.8422 22.658L42.9951 22.813L11.5187 53.8578L11.3657 53.7028ZM48.0418 27.9299L16.5653 58.9747L16.7183 59.1297L48.1947 28.0849L48.0418 27.9299ZM8.00127 50.2915L39.4777 19.2467L39.6307 19.4018L8.1542 50.4466L8.00127 50.2915ZM48.3477 28.24L16.8712 59.2848L17.0241 59.4398L48.5006 28.3951L48.3477 28.24ZM11.6716 54.0129L43.1481 22.9681L43.301 23.1231L11.8245 54.1679L11.6716 54.0129ZM48.6535 28.5501L17.1771 59.5949L17.33 59.75L48.8065 28.7052L48.6535 28.5501ZM11.9775 54.323L43.4539 23.2782L43.6069 23.4333L12.1304 54.478L11.9775 54.323ZM48.9594 28.8602L17.4829 59.905L17.6359 60.0601L49.1123 29.0153L48.9594 28.8602ZM12.2833 54.6331L43.7598 23.5883L43.9127 23.7434L12.4363 54.7882L12.2833 54.6331ZM49.2653 29.1703L17.7888 60.2151L17.9417 60.3702L49.4182 29.3254L49.2653 29.1703ZM49.5711 29.4805L18.0946 60.5252L18.2476 60.6803L49.724 29.6355L49.5711 29.4805ZM12.895 55.2533L44.3715 24.2085L44.5244 24.3636L13.048 55.4084L12.895 55.2533ZM49.877 29.7906L18.4005 60.8354L18.5534 60.9904L50.0299 29.9456L49.877 29.7906ZM13.2009 55.5634L44.6774 24.5186L44.8303 24.6737L13.3538 55.7185L13.2009 55.5634ZM50.1828 30.1007L18.7064 61.1455L18.8593 61.3005L50.3358 30.2557L50.1828 30.1007ZM-2.70382 39.4376L28.7726 8.39277L28.9256 8.54782L-2.55089 39.5926L-2.70382 39.4376ZM33.9723 13.6647L2.49581 44.7095L2.64874 44.8645L34.1252 13.8197L33.9723 13.6647ZM-2.39796 39.7477L29.0785 8.70288L29.2314 8.85794L-2.24503 39.9027L-2.39796 39.7477ZM34.2781 13.9748L2.80164 45.0196L2.95457 45.1746L34.431 14.1299L34.2781 13.9748ZM-2.0921 40.0578L29.3844 9.013L29.5373 9.16805L-1.93917 40.2128L-2.0921 40.0578ZM34.584 14.2849L3.1075 45.3297L3.26044 45.4848L34.7369 14.44L34.584 14.2849ZM-1.78624 40.3679L29.6902 9.32311L29.8432 9.47817L-1.63331 40.523L-1.78624 40.3679ZM34.8898 14.595L3.41336 45.6398L3.56629 45.7949L35.0428 14.7501L34.8898 14.595ZM-1.48038 40.678L29.9961 9.63322L30.149 9.78828L-1.32745 40.8331L-1.48038 40.678ZM35.1957 14.9051L3.71922 45.9499L3.87215 46.105L35.3486 15.0602L35.1957 14.9051ZM-1.17452 40.9881L30.3019 9.94334L30.4549 10.0984L-1.02159 41.1432L-1.17452 40.9881ZM35.5016 15.2153L4.02508 46.26L4.17802 46.4151L35.6545 15.3703L35.5016 15.2153ZM-0.868659 41.2982L30.6078 10.2535L30.7607 10.4085L-0.715729 41.4533L-0.868659 41.2982ZM35.8074 15.5254L4.33095 46.5702L4.48388 46.7252L35.9603 15.6804L35.8074 15.5254ZM-0.562798 41.6084L30.9137 10.5636L31.0666 10.7186L-0.409868 41.7634L-0.562798 41.6084ZM36.1133 15.8355L4.63681 46.8803L4.78974 47.0353L36.2662 15.9905L36.1133 15.8355ZM-0.256937 41.9185L31.2195 10.8737L31.3725 11.0287L-0.104007 42.0735L-0.256937 41.9185ZM36.4191 16.1456L4.94267 47.1904L5.0956 47.3454L36.5721 16.3007L36.4191 16.1456ZM0.0489241 42.2286L31.5254 11.1838L31.6783 11.3389L0.201854 42.3836L0.0489241 42.2286ZM36.725 16.4557L5.24853 47.5005L5.40146 47.6556L36.8779 16.6108L36.725 16.4557ZM0.354783 42.5387L31.8313 11.4939L31.9842 11.6489L0.507713 42.6937L0.354783 42.5387ZM37.0309 16.7658L5.55439 47.8106L5.70732 47.9657L37.1838 16.9209L37.0309 16.7658ZM-3.00968 39.1274L28.4668 8.08265L28.6197 8.23771L-2.85675 39.2825L-3.00968 39.1274ZM37.3367 17.0759L5.86025 48.1207L6.01318 48.2758L37.4896 17.231L37.3367 17.0759ZM0.660644 42.8488L32.1371 11.804L32.29 11.9591L0.813573 43.0038L0.660644 42.8488ZM37.6426 17.3861L6.16611 48.4308L6.31904 48.5859L37.7955 17.5411L37.6426 17.3861ZM0.966505 43.1589L32.443 12.1141L32.5959 12.2692L1.11943 43.314L0.966505 43.1589ZM37.9484 17.6961L6.47197 48.7409L6.6249 48.896L38.1014 17.8512L37.9484 17.6961ZM1.27237 43.469L32.7488 12.4242L32.9018 12.5793L1.4253 43.6241L1.27237 43.469ZM38.2543 18.0063L6.77783 49.051L6.93076 49.2061L38.4072 18.1613L38.2543 18.0063ZM1.57823 43.7791L33.0547 12.7343L33.2076 12.8894L1.73116 43.9342L1.57823 43.7791ZM38.5602 18.3164L7.08369 49.3612L7.23662 49.5162L38.7131 18.4714L38.5602 18.3164ZM1.88409 44.0892L33.3606 13.0445L33.5135 13.1995L2.03702 44.2443L1.88409 44.0892ZM38.866 18.6265L7.38955 49.6713L7.54248 49.8263L39.019 18.7815L38.866 18.6265ZM2.18995 44.3994L33.6664 13.3546L33.8193 13.5096L2.34288 44.5544L2.18995 44.3994ZM39.1719 18.9366L7.69541 49.9814L7.84834 50.1364L39.3248 19.0917L39.1719 18.9366Z" fill="url(#paint2_linear_457_5979)"/>
</g>
<path fill-rule="evenodd" clip-rule="evenodd" d="M0.248437 7.50995L8.07847e-06 7.57124L7.75751e-06 7.82711L0 26.1413L4.93764e-07 26.327L0.159587 26.422L11.014 32.883L11.133 32.9539L11.2667 32.9175L16.5753 31.4744L23.6312 35.7716L23.7467 35.8419L23.8782 35.81L29.4861 34.4489L29.7357 34.3883V34.1314V27.9246V27.7482L29.5883 27.6515L28.1136 26.6837V10.2779V10.0958L27.9587 10L24.5171 7.87184L24.5091 7.84082L24.4793 7.84849L17.2944 3.40558L17.1777 3.33337L17.0444 3.36626L0.248437 7.50995ZM23.6021 8.07422L20.4928 6.15151L15.6301 7.40281L18.7584 9.32065L23.6021 8.07422ZM19.9792 5.83391L15.1134 7.08602L12.1237 5.25316L17.0676 4.03348L19.9792 5.83391ZM14.5264 7.23706L11.5295 5.39977L6.64441 6.60495L9.675 8.48547L14.5264 7.23706ZM9.09105 8.63574L6.05331 6.75078L1.12832 7.96582L4.24522 9.88271L9.09105 8.63574ZM9.6034 8.95365L12.7051 10.8783L7.88215 12.1194L4.7608 10.1998L9.6034 8.95365ZM13.2891 10.7281L10.1873 8.80339L15.0353 7.55587V10.2787L13.2891 10.7281ZM13.2175 11.1962L8.39773 12.4365L11.4223 14.2966L16.1998 13.0468L13.2175 11.1962ZM16.781 12.8948L13.8014 11.046L18.6881 9.78848L21.6692 11.6161L16.781 12.8948ZM16.5053 13.4171L11.6596 14.6847V20.2276L16.5053 19.0202V13.4171ZM16.5053 19.4691L11.6596 20.6765V26.1934L16.5053 25.0285V19.4691ZM11.2241 20.6755V26.221L8.06619 24.3009V18.7554L11.2241 20.6755ZM11.1654 26.6951L8.06619 24.8106V30.3202H7.98584L11.2241 32.2477V26.7308L11.1654 26.6951ZM7.63062 18.4905V24.036L4.20051 21.9504V16.4049L7.63062 18.4905ZM7.63062 24.5458L4.20051 22.4602V28.067L7.63062 30.1088V24.5458ZM3.76494 16.14V21.6855L0.653356 19.7936L0.653359 14.2481L3.76494 16.14ZM3.76494 22.1953L0.653356 20.3033L0.653354 25.9556L3.76494 27.8078V22.1953ZM16.5053 25.4765L11.6596 26.6414V32.1337L16.5053 30.8164V25.4765ZM16.9409 30.9321V25.4501C16.9549 25.4579 16.9696 25.4662 16.9849 25.4749C17.1307 25.5576 17.333 25.6755 17.5792 25.8208C18.0714 26.1113 18.7356 26.5093 19.4664 26.95C19.6901 27.085 19.9201 27.2239 20.1532 27.3649V32.8885L16.9409 30.9321ZM20.5888 33.1537L23.6922 35.0438V29.5168C22.842 28.9974 21.7012 28.3025 20.5888 27.6286V33.1537ZM20.5888 27.0199L25.5434 25.7935V20.1728L20.5888 21.4141V27.0199ZM20.3622 21.0218L25.1803 19.8147L22.3121 18.0221L17.4322 19.2381L20.3622 21.0218ZM16.9409 19.449V24.9568C16.9464 24.9592 16.9509 24.9614 16.9542 24.963L16.9548 24.9633C16.9727 24.9718 16.9939 24.9826 17.0171 24.9949C17.0637 25.0196 17.1255 25.0539 17.1998 25.0961C17.3489 25.1806 17.5537 25.3 17.8006 25.4457C18.2946 25.7372 18.9602 26.1361 19.6913 26.577C19.8428 26.6684 19.997 26.7615 20.1532 26.8559V21.4045L16.9409 19.449ZM25.8766 19.7363L22.8997 17.8757L27.4602 16.7393V22.2678L25.979 22.6487V19.921V19.8003L25.8766 19.7363ZM25.979 25.676V23.0984L27.4602 22.7175V26.5382L25.979 25.676ZM25.9241 26.148L27.5381 27.0875L28.8266 27.933C27.9947 28.1668 26.961 28.4509 26.0558 28.6943C25.4908 28.8462 24.9767 28.982 24.5933 29.0798C24.4014 29.1287 24.2433 29.1679 24.1284 29.1946C24.0924 29.203 24.0612 29.2101 24.035 29.2158L24.0236 29.2088C23.2088 28.7109 22.0983 28.0342 20.9981 27.3673L25.9241 26.148ZM24.1278 29.6413V35.0771L29.0824 33.8746V28.3135C28.2268 28.5548 27.126 28.8576 26.1689 29.1149C25.6032 29.267 25.087 29.4034 24.7009 29.5019C24.508 29.5511 24.3465 29.591 24.2272 29.6188C24.1905 29.6274 24.1572 29.635 24.1278 29.6413ZM11.2241 20.1657V14.686L8.06619 12.744V18.2456L11.2241 20.1657ZM7.63062 17.9807V12.4761L4.20051 10.3666V15.8951L7.63062 17.9807ZM3.76494 15.6303V10.1751V10.0987L0.653361 8.18507L0.653359 13.7662L0.66577 13.7458L3.76494 15.6303ZM27.4602 16.2904V10.5515L22.44 11.8647V17.5414L27.4602 16.2904ZM22.0044 17.6499L16.9409 18.9116V13.3032L22.0044 11.9786V17.6499ZM18.1714 9.47169L15.4709 7.81608V10.1666L18.1714 9.47169ZM19.2751 9.63744L22.2534 11.4633L27.0525 10.2079L24.1157 8.39182L19.2751 9.63744Z" fill="url(#paint3_linear_457_5979)"/>
<path fill-rule="evenodd" clip-rule="evenodd" d="M81.929 14.0137C82.3635 14.5204 82.9608 14.6539 83.7087 14.6762C83.7454 14.6706 83.7894 14.6653 83.8386 14.6594C83.9851 14.6418 84.1781 14.6186 84.3629 14.5649C84.9923 14.382 85.4539 13.984 85.6637 13.3586C85.8612 12.7753 85.8784 12.1697 85.6785 11.5814C85.5502 11.2007 85.3502 10.8447 85.0022 10.6247C84.1901 10.1131 83.336 10.0537 82.4622 10.4641C81.8278 10.7632 81.5119 11.2921 81.3712 11.962C81.2058 12.7481 81.423 13.4229 81.929 14.0137ZM70.656 16.6685C70.5424 16.76 70.4289 16.8539 70.3154 16.9478C70.2808 16.9379 70.2438 16.9256 70.2068 16.9107V16.3471C70.2068 15.503 70.2074 14.6582 70.208 13.8135C70.2086 12.9687 70.2092 12.1239 70.2092 11.2798C70.2092 11.2476 70.2087 11.2155 70.2081 11.1834C70.207 11.1191 70.2059 11.0548 70.2092 10.9906C70.2216 10.778 70.1055 10.6964 69.9105 10.6915C69.8624 10.6915 69.8143 10.6902 69.7661 10.689C69.718 10.6878 69.6699 10.6865 69.6217 10.6865H67.03C66.2993 10.6865 66.2969 10.6865 66.2969 11.4133C66.2969 14.7923 66.2969 18.1689 66.3018 21.548C66.3018 22.0819 66.3141 22.6208 66.361 23.1522C66.4968 24.6576 67.0966 25.9455 68.1777 27.0109C69.2145 28.0342 70.4783 28.6126 71.8927 28.7956C73.3169 28.9809 74.7387 28.8845 76.0963 28.3259C77.5057 27.745 78.6017 26.8156 79.2978 25.4486C79.8457 24.3734 80.0506 23.2264 79.984 22.0201C79.8927 20.3887 79.3644 18.95 78.2462 17.7289C77.2466 16.6388 76.0222 16.0283 74.5832 15.786C73.9809 15.6847 73.386 15.7168 72.7837 15.7786C71.979 15.8627 71.278 16.1642 70.656 16.6685ZM73.297 25.2025H73.2969H73.2969C73.2401 25.2007 73.1833 25.199 73.1268 25.199C72.6307 25.2237 72.1543 25.1421 71.6828 24.9666C70.8856 24.665 70.5202 24.0421 70.3573 23.2709C70.2314 22.6776 70.2314 22.0819 70.3252 21.4738C70.503 20.3294 71.2953 19.526 72.453 19.437C72.9269 19.3999 73.4107 19.4049 73.8846 19.4444C74.7165 19.5161 75.3311 19.9858 75.7014 20.6952C76.2765 21.8001 76.274 22.9397 75.6322 24.0298C75.1953 24.7689 74.4894 25.1026 73.66 25.1965C73.5405 25.21 73.4187 25.2062 73.297 25.2025ZM48.5532 17.3601C48.6122 17.3838 48.6715 17.4076 48.7319 17.4298C48.7497 17.399 48.7664 17.3738 48.7811 17.3516L48.7811 17.3516C48.8029 17.3186 48.8203 17.2923 48.8306 17.2642C48.8454 17.1975 48.8479 17.1283 48.8479 17.059C48.8491 16.523 48.8491 15.9876 48.8491 15.4525V15.4514C48.8491 14.9159 48.8491 14.3808 48.8504 13.8456C48.8504 13.6182 48.801 13.4328 48.5542 13.3685C48.4523 13.3418 48.3506 13.313 48.2489 13.2843C47.9933 13.2121 47.7375 13.1398 47.4779 13.0991C46.2709 12.9112 45.0589 12.8123 43.8346 12.8173C43.0571 12.8198 42.2993 12.9236 41.5613 13.1213C39.7421 13.6083 38.2364 14.5723 37.1651 16.1617C36.6912 16.8638 36.3555 17.63 36.1284 18.4334C35.9136 19.1849 35.8346 19.9635 35.8272 20.752C35.8174 22.072 36.0346 23.3401 36.5924 24.5464C37.2367 25.9504 38.2388 27.0331 39.5446 27.8241C40.7171 28.5335 42.0228 28.8524 43.378 28.9117C43.9852 28.9383 44.5968 28.9021 45.2072 28.866L45.2077 28.8659C45.3911 28.8551 45.5744 28.8442 45.7575 28.8351C46.693 28.7881 47.6038 28.6003 48.5073 28.3729C48.8133 28.2962 48.843 28.2666 48.8454 27.9526C48.8504 26.8551 48.8479 25.7551 48.843 24.6576C48.8413 24.5903 48.8213 24.5229 48.8001 24.4516C48.7902 24.4183 48.78 24.3841 48.7714 24.3486C48.7317 24.3567 48.6973 24.3622 48.6666 24.3671C48.6133 24.3756 48.5711 24.3824 48.5319 24.3981C47.7519 24.7145 46.9448 24.8999 46.108 24.9938C44.9059 25.1273 43.7112 25.2187 42.514 24.9518C41.2576 24.6724 40.3863 23.968 40.0259 22.7172C39.747 21.7457 39.6581 20.7471 39.8383 19.7435C39.9371 19.1898 40.095 18.6509 40.3962 18.164C40.8775 17.3878 41.618 17.0047 42.477 16.8242C43.6446 16.5795 44.8269 16.624 45.9969 16.7649C46.539 16.8293 47.0742 16.9608 47.6087 17.0922C47.7922 17.1372 47.9756 17.1823 48.1592 17.2247C48.2922 17.2554 48.4216 17.3073 48.5532 17.3601L48.5532 17.3601ZM63.789 19.6199C63.789 19.9495 63.7895 20.2791 63.7901 20.6087C63.7911 21.2678 63.7922 21.927 63.789 22.5862C63.7815 24.0199 63.3372 25.3102 62.4782 26.4522C61.8389 27.3025 61.012 27.9082 60.0395 28.3432C58.7782 28.9068 57.4551 28.9612 56.1271 28.803C54.5227 28.6126 53.1379 27.9205 52.0815 26.6648C51.5211 25.9974 51.1311 25.2286 50.8892 24.3857C50.6547 23.5725 50.5832 22.7444 50.5832 21.9039V16.5498C50.5832 16.5251 50.5831 16.5004 50.583 16.4757C50.5826 16.3768 50.5822 16.2779 50.5881 16.1791C50.6054 15.8651 50.6449 15.8132 50.9509 15.8108C52.0346 15.8033 53.1182 15.8058 54.1993 15.8132C54.498 15.8157 54.5326 15.8552 54.54 16.1494C54.5469 16.3986 54.5453 16.6491 54.5438 16.899V16.8991V16.8991V16.8991C54.5431 17.0061 54.5424 17.113 54.5424 17.2197C54.5424 17.6319 54.5426 18.044 54.5427 18.4559V18.4562V18.4564V18.4566C54.5432 19.6922 54.5437 20.9272 54.54 22.1635C54.5375 22.69 54.614 23.1992 54.7942 23.6961C55.1052 24.5489 55.9099 25.1569 56.8183 25.199C57.0503 25.2089 57.2848 25.2113 57.5168 25.2039C58.6251 25.1594 59.452 24.5118 59.6964 23.4291C59.8149 22.8976 59.8667 22.3439 59.8741 21.7977C59.8873 20.6178 59.8851 19.4368 59.8829 18.2555C59.8818 17.6647 59.8807 17.0739 59.8815 16.4831C59.8815 15.8132 59.8865 15.8083 60.5356 15.8083C60.7223 15.8083 60.9088 15.8082 61.0953 15.8081H61.0954H61.0954H61.0954C61.8412 15.8077 62.5859 15.8073 63.3323 15.8132C63.7692 15.8157 63.7939 15.8429 63.7964 16.2878C63.798 17.0294 63.7975 17.771 63.7969 18.5125L63.7969 18.5258C63.7966 18.8921 63.7964 19.2585 63.7964 19.6249C63.7928 19.6213 63.7918 19.6203 63.7906 19.62C63.7904 19.62 63.7902 19.62 63.79 19.62C63.7897 19.6199 63.7894 19.6199 63.789 19.6199ZM98.2512 20.1015L98.2524 20.1019C98.2666 20.0691 98.2795 20.0432 98.2903 20.0215C98.3097 19.9829 98.3224 19.9574 98.324 19.9289C98.3273 19.1793 98.3283 18.4286 98.3294 17.6783V17.6777V17.6772L98.3295 17.6516C98.33 17.285 98.3306 16.9185 98.3314 16.5523C98.3314 16.3768 98.2376 16.273 98.0697 16.2334C97.884 16.1906 97.6991 16.1428 97.5142 16.0949L97.514 16.0949C97.1016 15.9883 96.6895 15.8817 96.2703 15.8305C95.5248 15.7415 94.767 15.7094 94.0142 15.7242C92.8911 15.7489 91.8198 16.011 90.8102 16.5226C89.6871 17.0936 88.7936 17.9168 88.2308 19.0366C87.2632 20.9621 87.1842 22.9619 87.9568 24.9765C88.3962 26.121 89.1515 27.038 90.1685 27.7203C91.3631 28.5212 92.7035 28.8796 94.1302 28.8969C94.73 28.9043 95.3372 28.8821 95.9346 28.8079C96.6109 28.7239 97.2823 28.583 97.9463 28.4322C98.3264 28.3457 98.3289 28.3111 98.3314 27.9205C98.3363 26.9046 98.3338 25.8886 98.3314 24.8727C98.3314 24.8061 98.3168 24.7385 98.3021 24.6697L98.302 24.6695C98.2949 24.6362 98.2876 24.6025 98.282 24.5686C98.2556 24.5711 98.2333 24.5725 98.214 24.5737C98.1755 24.576 98.1487 24.5777 98.124 24.5859C97.3366 24.8751 96.5295 25.0778 95.6902 25.1495C94.9225 25.2163 94.1549 25.2533 93.3996 25.0853C92.9034 24.974 92.4369 24.7664 92.0913 24.361C91.4742 23.6367 91.2718 22.7889 91.378 21.8644C91.531 20.5419 92.3135 19.7435 93.5995 19.521C94.9176 19.2936 96.2184 19.4419 97.4897 19.8523C97.7434 19.9337 97.9972 20.0176 98.251 20.1015L98.2512 20.1015ZM81.618 22.2698V16.4658C81.618 15.8231 81.6279 15.8132 82.2524 15.8132C82.482 15.8132 82.7115 15.8131 82.9411 15.8129C83.6298 15.8124 84.3184 15.812 85.0071 15.8157C85.5156 15.8182 85.5501 15.8503 85.5575 16.3471C85.5628 16.7496 85.5618 17.1508 85.5608 17.5526C85.5604 17.7134 85.56 17.8743 85.56 18.0354L85.5526 28.0392C85.5526 28.7313 85.5501 28.7338 84.8787 28.7362H84.8781C83.9873 28.7387 83.0964 28.7412 82.2055 28.7362C81.6476 28.7338 81.623 28.709 81.6205 28.1578C81.6188 26.8494 81.6194 25.5409 81.6199 24.2325L81.6199 24.2091C81.6202 23.5627 81.6205 22.9162 81.6205 22.2698H81.618Z" fill="url(#paint4_linear_457_5979)"/>
</g>
<defs>
<linearGradient id="paint0_linear_457_5979" x1="0.433371" y1="8.12528" x2="11.377" y2="32.3538" gradientUnits="userSpaceOnUse">
<stop stop-color="#4CD0F8"/>
<stop offset="1" stop-color="#9188E8"/>
</linearGradient>
<linearGradient id="paint1_linear_457_5979" x1="15.3519" y1="7.41736" x2="18.6731" y2="9.48631" gradientUnits="userSpaceOnUse">
<stop stop-color="#AA6DE2"/>
<stop offset="1" stop-color="#BF57DD"/>
</linearGradient>
<linearGradient id="paint2_linear_457_5979" x1="23.6283" y1="35.4562" x2="16.7137" y2="19.2312" gradientUnits="userSpaceOnUse">
<stop stop-color="#DE36D6"/>
<stop offset="1" stop-color="#B463E0"/>
</linearGradient>
<linearGradient id="paint3_linear_457_5979" x1="0.00816185" y1="15.9464" x2="28.0398" y2="15.6926" gradientUnits="userSpaceOnUse">
<stop stop-color="#4AD2F8"/>
<stop offset="1" stop-color="#F919CF"/>
</linearGradient>
<linearGradient id="paint4_linear_457_5979" x1="35.8272" y1="20.5938" x2="98.3314" y2="21.0839" gradientUnits="userSpaceOnUse">
<stop stop-color="#2FD6FF"/>
<stop offset="1" stop-color="#F912CF"/>
</linearGradient>
</defs>
</svg>
