<svg width="104" height="104" viewBox="0 0 104 104" fill="none" xmlns="http://www.w3.org/2000/svg">
<g opacity="0.5">
<circle cx="52" cy="52" r="31" stroke="#43CEFC" stroke-width="2"/>
<path d="M59.0312 39C55.9873 39 53.3418 40.7544 52 43.3303C50.6582 40.7544 48.0127 39 44.9688 39C40.5684 39 37 42.6653 37 47.1852C37 57.2963 52 65 52 65C52 65 67 57.2963 67 47.1852C67 42.6653 63.4316 39 59.0312 39ZM38.875 47.1852C38.875 45.512 39.5078 43.9412 40.6592 42.7586C41.8105 41.5759 43.3398 40.9259 44.9688 40.9259C47.2217 40.9259 49.2812 42.1958 50.3477 44.2391L52 47.4139L53.6523 44.2391C54.7188 42.1958 56.7783 40.9259 59.0312 40.9259C60.6602 40.9259 62.1895 41.5759 63.3408 42.7586C64.4922 43.9412 65.125 45.512 65.125 47.1852C65.125 47.5042 65.1074 47.8231 65.0693 48.1481H58.9844L56.2715 52.5266L53.9717 48.2745L49.4775 54.7414L45.6455 43.4236L43.0176 48.1481H38.9307C38.8926 47.8231 38.875 47.5042 38.875 47.1852ZM64.5947 50.1914C64.2607 51.1544 63.7656 52.1414 63.1211 53.1315C61.9873 54.8708 60.3848 56.6282 58.3574 58.3586C55.8379 60.5102 53.2803 62.081 52 62.8153C50.7197 62.081 48.1621 60.5102 45.6426 58.3586C43.6182 56.6282 42.0156 54.8708 40.8789 53.1315C40.2344 52.1414 39.7363 51.1544 39.4053 50.1914C39.3906 50.1523 39.3789 50.1132 39.3643 50.0741H44.1045L45.2266 48.0579L48.8945 58.8912L53.7725 51.8766L56.1602 56.2912L60.0156 50.0741H64.6357C64.6211 50.1132 64.6094 50.1523 64.5947 50.1914Z" fill="#44CDFC"/>
</g>
</svg>
