<svg width="64" height="64" viewBox="0 0 64 64" fill="none" xmlns="http://www.w3.org/2000/svg">
<path d="M57.3331 26.6666H59.9999V29.3332H57.3331V26.6666ZM57.3331 24H59.9999V26.6666H57.3331V24ZM57.3331 21.3332H59.9999V24H57.3331V21.3332ZM57.3331 18.6666H59.9999V21.3332H57.3331V18.6666ZM57.3331 16H59.9999V18.6666H57.3331V16ZM54.6665 31.9998H57.3331V34.6666H54.6665V31.9998ZM54.6665 29.3332H57.3331V31.9998H54.6665V29.3332Z" fill="#6E0085"/>
<path d="M54.6665 26.6666H57.3331V29.3332H54.6665V26.6666ZM54.6665 24H57.3331V26.6666H54.6665V24ZM54.6665 21.3332H57.3331V24H54.6665V21.3332ZM54.6665 18.6666H57.3331V21.3332H54.6665V18.6666ZM54.6665 16H57.3331V18.6666H54.6665V16Z" fill="#FF01F5"/>
<path d="M54.6664 13.3333H57.3329V16H54.6664V13.3333ZM51.9998 37.3332H54.6664V39.9998H51.9998V37.3332ZM51.9998 34.6666H54.6664V37.3332H51.9998V34.6666Z" fill="#6E0085"/>
<path d="M51.9998 31.9997H54.6664V34.6665H51.9998V31.9997ZM51.9998 29.3331H54.6664V31.9997H51.9998V29.3331Z" fill="#FF01F5"/>
<path d="M51.9998 26.6665H54.6664V29.3331H51.9998V26.6665ZM51.9998 23.9999H54.6664V26.6665H51.9998V23.9999Z" fill="#860181"/>
<path d="M51.9998 21.3332H54.6664V24H51.9998V21.3332ZM51.9998 18.6666H54.6664V21.3332H51.9998V18.6666Z" fill="#FF01F5"/>
<path d="M51.9998 16H54.6664V18.6666H51.9998V16Z" fill="white"/>
<path d="M51.9998 13.3333H54.6664V16H51.9998V13.3333Z" fill="#FF01F5"/>
<path d="M52 10.6665H54.6666V13.3331H52V10.6665ZM49.3333 39.9997H52V42.6665H49.3333V39.9997Z" fill="#6E0085"/>
<path d="M49.3333 37.3331H52V39.9997H49.3333V37.3331ZM49.3333 34.6665H52V37.3331H49.3333V34.6665Z" fill="#FF01F5"/>
<path d="M49.3333 31.9998H52V34.6666H49.3333V31.9998Z" fill="#860181"/>
<path d="M49.3333 29.3331H52V31.9997H49.3333V29.3331Z" fill="#6E0085"/>
<path d="M49.3333 26.6665H52V29.3331H49.3333V26.6665ZM49.3333 23.9999H52V26.6665H49.3333V23.9999Z" fill="#860181"/>
<path d="M49.3333 21.3331H52V23.9999H49.3333V21.3331ZM49.3333 18.6665H52V21.3331H49.3333V18.6665ZM49.3333 15.9999H52V18.6665H49.3333V15.9999ZM49.3333 13.3331H52V15.9999H49.3333V13.3331ZM49.3333 10.6665H52V13.3331H49.3333V10.6665Z" fill="#FF01F5"/>
<path d="M49.3331 8H51.9999V10.6666H49.3331V8ZM46.6665 42.6665H49.3331V45.3331H46.6665V42.6665Z" fill="#6E0085"/>
<path d="M46.6665 39.9998H49.3331V42.6666H46.6665V39.9998Z" fill="#FF01F5"/>
<path d="M46.6665 37.3331H49.3331V39.9997H46.6665V37.3331ZM46.6665 34.6665H49.3331V37.3331H46.6665V34.6665Z" fill="#860181"/>
<path d="M46.6665 31.9997H49.3331V34.6665H46.6665V31.9997ZM46.6665 29.3331H49.3331V31.9997H46.6665V29.3331ZM46.6665 26.6665H49.3331V29.3331H46.6665V26.6665ZM46.6665 23.9999H49.3331V26.6665H46.6665V23.9999ZM46.6665 21.3331H49.3331V23.9999H46.6665V21.3331Z" fill="#6E0085"/>
<path d="M46.6665 18.6666H49.3331V21.3332H46.6665V18.6666ZM46.6665 16H49.3331V18.6666H46.6665V16Z" fill="#FF01F5"/>
<path d="M46.6665 13.3333H49.3331V16H46.6665V13.3333Z" fill="#860181"/>
<path d="M46.6665 10.6665H49.3331V13.3331H46.6665V10.6665Z" fill="#FF01F5"/>
<path d="M46.6666 8H49.3332V10.6666H46.6666V8ZM44 45.3331H46.6666V47.9997H44V45.3331Z" fill="#6E0085"/>
<path d="M44 42.6665H46.6666V45.3331H44V42.6665Z" fill="#FF01F5"/>
<path d="M44 39.9997H46.6666V42.6665H44V39.9997ZM44 37.3331H46.6666V39.9997H44V37.3331Z" fill="#860181"/>
<path d="M44 34.6665H46.6666V37.3331H44V34.6665Z" fill="#6E0085"/>
<path d="M44 31.9998H46.6666V34.6666H44V31.9998Z" fill="white"/>
<path d="M44 29.3332H46.6666V31.9998H44V29.3332ZM44 26.6666H46.6666V29.3332H44V26.6666Z" fill="#6E0085"/>
<path d="M44 23.9999H46.6666V26.6665H44V23.9999Z" fill="#860181"/>
<path d="M44 21.3331H46.6666V23.9999H44V21.3331Z" fill="#FF01F5"/>
<path d="M44 18.6666H46.6666V21.3332H44V18.6666Z" fill="#6E0085"/>
<path d="M44 16H46.6666V18.6666H44V16ZM44 13.3333H46.6666V16H44V13.3333Z" fill="#860181"/>
<path d="M44 10.6665H46.6666V13.3331H44V10.6665Z" fill="#FF01F5"/>
<path d="M44 8H46.6666V10.6666H44V8ZM41.3333 45.3331H44V47.9997H41.3333V45.3331Z" fill="#6E0085"/>
<path d="M41.3333 42.6665H44V45.3331H41.3333V42.6665Z" fill="#FF01F5"/>
<path d="M41.3333 39.9998H44V42.6666H41.3333V39.9998Z" fill="#860181"/>
<path d="M41.3333 37.3332H44V39.9998H41.3333V37.3332ZM41.3333 34.6666H44V37.3332H41.3333V34.6666ZM41.3333 31.9998H44V34.6666H41.3333V31.9998ZM41.3333 29.3332H44V31.9998H41.3333V29.3332ZM41.3333 26.6666H44V29.3332H41.3333V26.6666ZM41.3333 24H44V26.6666H41.3333V24ZM41.3333 21.3332H44V24H41.3333V21.3332ZM41.3333 18.6666H44V21.3332H41.3333V18.6666Z" fill="#6E0085"/>
<path d="M41.3333 16H44V18.6666H41.3333V16ZM41.3333 13.3333H44V16H41.3333V13.3333Z" fill="#860181"/>
<path d="M41.3333 10.6665H44V13.3331H41.3333V10.6665Z" fill="#FF01F5"/>
<path d="M41.3333 8H44.0001V10.6666H41.3333V8ZM38.6667 47.9997H41.3333V50.6665H38.6667V47.9997Z" fill="#6E0085"/>
<path d="M38.6667 45.3331H41.3333V47.9997H38.6667V45.3331Z" fill="#FF01F5"/>
<path d="M38.6667 42.6665H41.3333V45.3331H38.6667V42.6665Z" fill="#860181"/>
<path d="M38.6667 39.9998H41.3333V42.6666H38.6667V39.9998Z" fill="#6E0085"/>
<path d="M38.6667 37.3331H41.3333V39.9997H38.6667V37.3331Z" fill="white"/>
<path d="M38.6667 34.6666H41.3333V37.3332H38.6667V34.6666ZM38.6667 31.9998H41.3333V34.6666H38.6667V31.9998ZM38.6667 29.3332H41.3333V31.9998H38.6667V29.3332ZM38.6667 26.6666H41.3333V29.3332H38.6667V26.6666ZM38.6667 24H41.3333V26.6666H38.6667V24ZM38.6667 21.3332H41.3333V24H38.6667V21.3332ZM38.6667 18.6666H41.3333V21.3332H38.6667V18.6666Z" fill="#6E0085"/>
<path d="M38.6667 16H41.3333V18.6666H38.6667V16ZM38.6667 13.3333H41.3333V16H38.6667V13.3333Z" fill="#860181"/>
<path d="M38.6667 10.6665H41.3333V13.3331H38.6667V10.6665Z" fill="#FF01F5"/>
<path d="M38.6664 8H41.3329V10.6666H38.6664V8ZM35.9998 47.9997H38.6664V50.6665H35.9998V47.9997Z" fill="#6E0085"/>
<path d="M35.9998 45.3331H38.6664V47.9997H35.9998V45.3331Z" fill="#FF01F5"/>
<path d="M35.9998 42.6666H38.6664V45.3332H35.9998V42.6666ZM35.9998 39.9998H38.6664V42.6666H35.9998V39.9998ZM35.9998 37.3332H38.6664V39.9998H35.9998V37.3332ZM35.9998 34.6666H38.6664V37.3332H35.9998V34.6666ZM35.9998 31.9998H38.6664V34.6666H35.9998V31.9998ZM35.9998 29.3332H38.6664V31.9998H35.9998V29.3332ZM35.9998 26.6666H38.6664V29.3332H35.9998V26.6666ZM35.9998 24H38.6664V26.6666H35.9998V24ZM35.9998 21.3332H38.6664V24H35.9998V21.3332ZM35.9998 18.6666H38.6664V21.3332H35.9998V18.6666Z" fill="#6E0085"/>
<path d="M35.9998 16H38.6664V18.6666H35.9998V16ZM35.9998 13.3333H38.6664V16H35.9998V13.3333Z" fill="#860181"/>
<path d="M35.9998 10.6665H38.6664V13.3331H35.9998V10.6665Z" fill="#FF01F5"/>
<path d="M35.9998 8H38.6664V10.6666H35.9998V8ZM33.333 50.6665H35.9998V53.3331H33.333V50.6665Z" fill="#6E0085"/>
<path d="M33.333 47.9996H35.9998V50.6664H33.333V47.9996Z" fill="#FF01F5"/>
<path d="M33.333 45.3331H35.9998V47.9997H33.333V45.3331Z" fill="#860181"/>
<path d="M33.333 42.6666H35.9998V45.3331H33.333V42.6666ZM33.333 39.9998H35.9998V42.6666H33.333V39.9998Z" fill="#6E0085"/>
<path d="M33.333 37.3331H35.9998V39.9997H33.333V37.3331Z" fill="#860181"/>
<path d="M33.333 34.6665H35.9998V37.3331H33.333V34.6665Z" fill="#6E0085"/>
<path d="M33.333 31.9998H35.9998V34.6666H33.333V31.9998Z" fill="white"/>
<path d="M33.333 29.3332H35.9998V31.9998H33.333V29.3332ZM33.333 26.6666H35.9998V29.3332H33.333V26.6666ZM33.333 24H35.9998V26.6666H33.333V24ZM33.333 21.3332H35.9998V24H33.333V21.3332ZM33.333 18.6666H35.9998V21.3332H33.333V18.6666Z" fill="#6E0085"/>
<path d="M33.333 16H35.9998V18.6666H33.333V16Z" fill="#860181"/>
<path d="M33.333 13.3333H35.9998V16H33.333V13.3333Z" fill="#FF01F5"/>
<path d="M33.3331 10.6665H35.9999V13.3331H33.3331V10.6665ZM30.6665 53.333H33.3331V55.9996H30.6665V53.333Z" fill="#6E0085"/>
<path d="M30.6665 50.6665H33.3331V53.3331H30.6665V50.6665Z" fill="#FF01F5"/>
<path d="M30.6665 47.9997H33.3331V50.6665H30.6665V47.9997ZM30.6665 45.3331H33.3331V47.9997H30.6665V45.3331Z" fill="#860181"/>
<path d="M30.6665 42.6665H33.3331V45.3331H30.6665V42.6665Z" fill="#6E0085"/>
<path d="M30.6665 39.9998H33.3331V42.6666H30.6665V39.9998Z" fill="#860181"/>
<path d="M30.6665 37.3331H33.3331V39.9997H30.6665V37.3331ZM30.6665 34.6665H33.3331V37.3331H30.6665V34.6665ZM30.6665 31.9997H33.3331V34.6665H30.6665V31.9997ZM30.6665 29.3331H33.3331V31.9997H30.6665V29.3331ZM30.6665 26.6665H33.3331V29.3331H30.6665V26.6665ZM30.6665 23.9999H33.3331V26.6665H30.6665V23.9999ZM30.6665 21.3331H33.3331V23.9999H30.6665V21.3331Z" fill="#6E0085"/>
<path d="M30.6665 18.6666H33.3331V21.3332H30.6665V18.6666Z" fill="#860181"/>
<path d="M30.6665 16H33.3331V18.6666H30.6665V16Z" fill="#FF01F5"/>
<path d="M30.6666 13.3333H33.3332V16H30.6666V13.3333ZM28 50.6666H30.6666V53.3332H28V50.6666Z" fill="#6E0085"/>
<path d="M28 47.9996H30.6666V50.6664H28V47.9996Z" fill="#FF01F5"/>
<path d="M28 45.3331H30.6666V47.9997H28V45.3331Z" fill="#860181"/>
<path d="M28 42.6665H30.6666V45.3331H28V42.6665ZM28 39.9997H30.6666V42.6665H28V39.9997ZM28 37.3331H30.6666V39.9997H28V37.3331ZM28 34.6665H30.6666V37.3331H28V34.6665Z" fill="#6E0085"/>
<path d="M28 31.9998H30.6666V34.6666H28V31.9998Z" fill="#860181"/>
<path d="M28 29.3332H30.6666V31.9998H28V29.3332ZM28 26.6666H30.6666V29.3332H28V26.6666ZM28 24H30.6666V26.6666H28V24ZM28 21.3332H30.6666V24H28V21.3332ZM28 18.6666H30.6666V21.3332H28V18.6666Z" fill="#6E0085"/>
<path d="M28 16H30.6666V18.6666H28V16Z" fill="#860181"/>
<path d="M28 13.3333H30.6666V16H28V13.3333Z" fill="#FF01F5"/>
<path d="M27.9998 10.6665H30.6664V13.3331H27.9998V10.6665ZM25.3333 47.9996H27.9998V50.6664H25.3333V47.9996Z" fill="#6E0085"/>
<path d="M25.3333 45.3331H27.9998V47.9997H25.3333V45.3331Z" fill="#FF01F5"/>
<path d="M25.3333 42.6665H27.9998V45.3331H25.3333V42.6665Z" fill="#860181"/>
<path d="M25.3333 39.9997H27.9998V42.6665H25.3333V39.9997ZM25.3333 37.3331H27.9998V39.9997H25.3333V37.3331ZM25.3333 34.6665H27.9998V37.3331H25.3333V34.6665ZM25.3333 31.9997H27.9998V34.6665H25.3333V31.9997ZM25.3333 29.3331H27.9998V31.9997H25.3333V29.3331Z" fill="#6E0085"/>
<path d="M25.3333 26.6666H27.9998V29.3332H25.3333V26.6666Z" fill="#860181"/>
<path d="M25.3333 23.9999H27.9998V26.6665H25.3333V23.9999ZM25.3333 21.3331H27.9998V23.9999H25.3333V21.3331Z" fill="#FF01F5"/>
<path d="M25.3333 18.6666H27.9998V21.3332H25.3333V18.6666Z" fill="#6E0085"/>
<path d="M25.3333 16H27.9998V18.6666H25.3333V16ZM25.3333 13.3333H27.9998V16H25.3333V13.3333Z" fill="#860181"/>
<path d="M25.3333 10.6665H27.9998V13.3331H25.3333V10.6665Z" fill="#FF01F5"/>
<path d="M25.3335 8H28.0001V10.6666H25.3335V8ZM22.6667 47.9997H25.3335V50.6665H22.6667V47.9997Z" fill="#6E0085"/>
<path d="M22.6667 45.3331H25.3335V47.9997H22.6667V45.3331Z" fill="#FF01F5"/>
<path d="M22.6667 42.6665H25.3335V45.3331H22.6667V42.6665Z" fill="#860181"/>
<path d="M22.6667 39.9997H25.3335V42.6665H22.6667V39.9997ZM22.6667 37.3331H25.3335V39.9997H22.6667V37.3331ZM22.6667 34.6665H25.3335V37.3331H22.6667V34.6665Z" fill="#6E0085"/>
<path d="M22.6667 31.9998H25.3335V34.6666H22.6667V31.9998Z" fill="#860181"/>
<path d="M22.6667 29.3332H25.3335V31.9998H22.6667V29.3332ZM22.6667 26.6666H25.3335V29.3332H22.6667V26.6666ZM22.6667 24H25.3335V26.6666H22.6667V24ZM22.6667 21.3332H25.3335V24H22.6667V21.3332ZM22.6667 18.6666H25.3335V21.3332H22.6667V18.6666Z" fill="#6E0085"/>
<path d="M22.6667 16H25.3335V18.6666H22.6667V16Z" fill="#860181"/>
<path d="M22.6667 13.3333H25.3335V16H22.6667V13.3333Z" fill="#860181"/>
<path d="M22.6667 10.6665H25.3335V13.3331H22.6667V10.6665Z" fill="#FF01F5"/>
<path d="M22.6666 8H25.3334V10.6666H22.6666V8ZM20 45.3331H22.6666V47.9997H20V45.3331Z" fill="#6E0085"/>
<path d="M20 42.6665H22.6666V45.3331H20V42.6665Z" fill="#FF01F5"/>
<path d="M20 39.9998H22.6666V42.6666H20V39.9998Z" fill="#860181"/>
<path d="M20 37.3331H22.6666V39.9997H20V37.3331Z" fill="white"/>
<path d="M20 34.6665H22.6666V37.3331H20V34.6665Z" fill="#6E0085"/>
<path d="M20 31.9998H22.6666V34.6666H20V31.9998Z" fill="#860181"/>
<path d="M20 29.3332H22.6666V31.9998H20V29.3332ZM20 26.6666H22.6666V29.3332H20V26.6666Z" fill="#6E0085"/>
<path d="M20 23.9999H22.6666V26.6665H20V23.9999Z" fill="#860181"/>
<path d="M20 21.3331H22.6666V23.9999H20V21.3331Z" fill="#FF01F5"/>
<path d="M20 18.6666H22.6666V21.3332H20V18.6666Z" fill="#6E0085"/>
<path d="M20 16H22.6666V18.6666H20V16Z" fill="#860181"/>
<path d="M20 13.3333H22.6666V16H20V13.3333Z" fill="#860181"/>
<path d="M20 10.6665H22.6666V13.3331H20V10.6665Z" fill="#FF01F5"/>
<path d="M20.0001 8H22.6667V10.6666H20.0001V8ZM17.3335 45.3331H20.0001V47.9997H17.3335V45.3331Z" fill="#6E0085"/>
<path d="M17.3335 42.6665H20.0001V45.3331H17.3335V42.6665Z" fill="#FF01F5"/>
<path d="M17.3335 39.9998H20.0001V42.6666H17.3335V39.9998Z" fill="#860181"/>
<path d="M17.3335 37.3331H20.0001V39.9997H17.3335V37.3331ZM17.3335 34.6666H20.0001V37.3331H17.3335V34.6666ZM17.3335 31.9998H20.0001V34.6666H17.3335V31.9998Z" fill="#6E0085"/>
<path d="M17.3335 29.3331H20.0001V31.9997H17.3335V29.3331Z" fill="#860181"/>
<path d="M17.3335 26.6665H20.0001V29.3331H17.3335V26.6665ZM17.3335 23.9999H20.0001V26.6665H17.3335V23.9999Z" fill="#6E0085"/>
<path d="M17.3335 21.3331H20.0001V23.9999H17.3335V21.3331Z" fill="#FF01F5"/>
<path d="M17.3335 18.6666H20.0001V21.3332H17.3335V18.6666Z" fill="#6E0085"/>
<path d="M17.3335 16H20.0001V18.6666H17.3335V16Z" fill="#860181"/>
<path d="M17.3335 13.3333H20.0001V16H17.3335V13.3333Z" fill="#860181"/>
<path d="M17.3335 10.6665H20.0001V13.3331H17.3335V10.6665Z" fill="#FF01F5"/>
<path d="M17.3333 8H19.9999V10.6666H17.3333V8ZM14.6665 42.6665H17.3333V45.3331H14.6665V42.6665Z" fill="#6E0085"/>
<path d="M14.6665 39.9998H17.3333V42.6666H14.6665V39.9998Z" fill="#FF01F5"/>
<path d="M14.6665 37.3331H17.3333V39.9997H14.6665V37.3331ZM14.6665 34.6665H17.3333V37.3331H14.6665V34.6665Z" fill="#860181"/>
<path d="M14.6665 31.9998H17.3333V34.6666H14.6665V31.9998ZM14.6665 29.3332H17.3333V31.9998H14.6665V29.3332ZM14.6665 26.6666H17.3333V29.3332H14.6665V26.6666Z" fill="#6E0085"/>
<path d="M14.6665 23.9999H17.3333V26.6665H14.6665V23.9999ZM14.6665 21.3331H17.3333V23.9999H14.6665V21.3331Z" fill="#FF01F5"/>
<path d="M14.6665 18.6666H17.3333V21.3332H14.6665V18.6666Z" fill="#6E0085"/>
<path d="M14.6665 16H17.3333V18.6666H14.6665V16Z" fill="#860181"/>
<path d="M14.6665 13.3333H17.3333V16H14.6665V13.3333Z" fill="#860181"/>
<path d="M14.6665 10.6665H17.3333V13.3331H14.6665V10.6665Z" fill="#FF01F5"/>
<path d="M14.6668 8H17.3336V10.6666H14.6668V8ZM12.0002 39.9998H14.6668V42.6665H12.0002V39.9998Z" fill="#6E0085"/>
<path d="M12.0002 37.3331H14.6668V39.9997H12.0002V37.3331ZM12.0002 34.6665H14.6668V37.3331H12.0002V34.6665Z" fill="#FF01F5"/>
<path d="M12.0002 31.9998H14.6668V34.6666H12.0002V31.9998Z" fill="#860181"/>
<path d="M12.0002 29.3332H14.6668V31.9998H12.0002V29.3332ZM12.0002 26.6666H14.6668V29.3332H12.0002V26.6666Z" fill="#6E0085"/>
<path d="M12.0002 24H14.6668V26.6666H12.0002V24ZM12.0002 21.3332H14.6668V24H12.0002V21.3332ZM12.0002 18.6666H14.6668V21.3332H12.0002V18.6666Z" fill="#FF01F5"/>
<path d="M12.0002 16H14.6668V18.6666H12.0002V16Z" fill="#860181"/>
<path d="M12.0002 13.3333H14.6668V16H12.0002V13.3333Z" fill="#860181"/>
<path d="M12.0002 10.6665H14.6668V13.3331H12.0002V10.6665Z" fill="#FF01F5"/>
<path d="M11.9998 8H14.6664V10.6666H11.9998V8ZM9.33325 37.3332H11.9998V39.9998H9.33325V37.3332ZM9.33325 34.6666H11.9998V37.3332H9.33325V34.6666Z" fill="#6E0085"/>
<path d="M9.33325 31.9997H11.9998V34.6665H9.33325V31.9997ZM9.33325 29.3331H11.9998V31.9997H9.33325V29.3331Z" fill="#FF01F5"/>
<path d="M9.33325 26.6665H11.9998V29.3331H9.33325V26.6665ZM9.33325 23.9999H11.9998V26.6665H9.33325V23.9999Z" fill="#6E0085"/>
<path d="M9.33325 21.3332H11.9998V24H9.33325V21.3332ZM9.33325 18.6666H11.9998V21.3332H9.33325V18.6666ZM9.33325 16H11.9998V18.6666H9.33325V16ZM9.33325 13.3333H11.9998V16H9.33325V13.3333Z" fill="#FF01F5"/>
<path d="M9.3333 10.6665H11.9999V13.3331H9.3333V10.6665ZM6.6665 31.9997H9.3333V34.6665H6.6665V31.9997ZM6.6665 29.3331H9.3333V31.9997H6.6665V29.3331Z" fill="#6E0085"/>
<path d="M6.6665 26.6666H9.3333V29.3332H6.6665V26.6666ZM6.6665 24H9.3333V26.6666H6.6665V24ZM6.6665 21.3332H9.3333V24H6.6665V21.3332ZM6.6665 18.6666H9.3333V21.3332H6.6665V18.6666ZM6.6665 16H9.3333V18.6666H6.6665V16Z" fill="#FF01F5"/>
<path d="M6.6666 13.3333H9.33339V16H6.6666V13.3333ZM4 26.6666H6.6666V29.3332H4V26.6666ZM4 24H6.6666V26.6666H4V24ZM4 21.3332H6.6666V24H4V21.3332ZM4 18.6666H6.6666V21.3332H4V18.6666ZM4 16H6.6666V18.6666H4V16Z" fill="#6E0085"/>
</svg>
