<svg width="64" height="64" viewBox="0 0 64 64" fill="none" xmlns="http://www.w3.org/2000/svg">
<path d="M45.6189 55.5237H48.095V58H45.6189V55.5237ZM55.5236 28.2857H57.9999V30.7618H55.5236V28.2857ZM55.5236 25.8096H57.9999V28.2857H55.5236V25.8096ZM55.5236 23.3333H57.9999V25.8096H55.5236V23.3333ZM53.0475 33.238H55.5236V35.7143H53.0475V33.238ZM53.0475 30.7618H55.5236V33.238H53.0475V30.7618ZM53.0475 28.2857H55.5236V30.7618H53.0475V28.2857Z" fill="#05248C"/>
<path d="M53.0474 25.8096H55.5235V28.2857H53.0474V25.8096Z" fill="#3562FB"/>
<path d="M53.0474 23.3333H55.5236V25.8096H53.0474V23.3333ZM50.5713 48.0951H53.0474V50.5714H50.5713V48.0951ZM50.5713 45.619H53.0474V48.0951H50.5713V45.619ZM50.5713 35.7143H53.0474V38.1904H50.5713V35.7143ZM50.5713 33.238H53.0474V35.7143H50.5713V33.238Z" fill="#05248C"/>
<path d="M50.5713 30.7618H53.0474V33.238H50.5713V30.7618ZM50.5713 28.2857H53.0474V30.7618H50.5713V28.2857ZM50.5713 25.8096H53.0474V28.2857H50.5713V25.8096ZM50.5713 23.3333H53.0474V25.8096H50.5713V23.3333Z" fill="#3562FB"/>
<path d="M50.5718 20.8569H53.0479V23.3331H50.5718V20.8569ZM48.0955 50.5712H50.5718V53.0474H48.0955V50.5712Z" fill="#05248C"/>
<path d="M48.0955 48.095H50.5718V50.5713H48.0955V48.095ZM48.0955 45.6189H50.5718V48.095H48.0955V45.6189Z" fill="#3562FB"/>
<path d="M48.0955 43.1432H50.5718V45.6193H48.0955V43.1432ZM48.0955 38.1907H50.5718V40.6669H48.0955V38.1907ZM48.0955 35.7146H50.5718V38.1907H48.0955V35.7146Z" fill="#05248C"/>
<path d="M48.0955 33.2379H50.5718V35.7142H48.0955V33.2379ZM48.0955 30.7617H50.5718V33.2379H48.0955V30.7617Z" fill="#3562FB"/>
<path d="M48.0955 28.2856H50.5718V30.7618H48.0955V28.2856Z" fill="#0F9AFF"/>
<path d="M48.0955 25.8096H50.5718V28.2857H48.0955V25.8096ZM48.0955 23.3333H50.5718V25.8096H48.0955V23.3333Z" fill="#3562FB"/>
<path d="M48.095 20.8569H50.5713V23.3331H48.095V20.8569ZM45.6189 53.0474H48.095V55.5235H45.6189V53.0474Z" fill="#05248C"/>
<path d="M45.6189 50.5716H48.095V53.0478H45.6189V50.5716ZM45.6189 48.0953H48.095V50.5716H45.6189V48.0953ZM45.6189 45.6192H48.095V48.0953H45.6189V45.6192ZM45.6189 43.1431H48.095V45.6192H45.6189V43.1431Z" fill="#3562FB"/>
<path d="M45.6189 40.6666H48.095V43.1429H45.6189V40.6666ZM45.6189 38.1904H48.095V40.6666H45.6189V38.1904Z" fill="#05248C"/>
<path d="M45.6189 35.7142H48.095V38.1903H45.6189V35.7142ZM45.6189 33.2379H48.095V35.7142H45.6189V33.2379ZM45.6189 30.7617H48.095V33.2379H45.6189V30.7617Z" fill="#3562FB"/>
<path d="M45.6189 28.2856H48.095V30.7618H45.6189V28.2856Z" fill="#0F9AFF"/>
<path d="M45.6189 25.8096H48.095V28.2857H45.6189V25.8096ZM45.6189 23.3333H48.095V25.8096H45.6189V23.3333Z" fill="#3562FB"/>
<path d="M45.619 20.8569H48.0951V23.3331H45.619V20.8569ZM43.1428 55.5235H45.619V57.9998H43.1428V55.5235Z" fill="#05248C"/>
<path d="M43.1428 53.0474H45.619V55.5236H43.1428V53.0474ZM43.1428 50.5713H45.619V53.0474H43.1428V50.5713Z" fill="#3562FB"/>
<path d="M43.1428 48.0952H45.619V50.5715H43.1428V48.0952Z" fill="#0F9AFF"/>
<path d="M43.1428 45.6191H45.619V48.0952H43.1428V45.6191ZM43.1428 43.1429H45.619V45.6191H43.1428V43.1429ZM43.1428 40.6666H45.619V43.1429H43.1428V40.6666ZM43.1428 38.1905H45.619V40.6666H43.1428V38.1905ZM43.1428 35.7144H45.619V38.1905H43.1428V35.7144ZM43.1428 33.238H45.619V35.7144H43.1428V33.238Z" fill="#3562FB"/>
<path d="M43.1428 30.7618H45.619V33.238H43.1428V30.7618ZM43.1428 28.2857H45.619V30.7618H43.1428V28.2857ZM43.1428 25.8096H45.619V28.2857H43.1428V25.8096Z" fill="#0F9AFF"/>
<path d="M43.1428 23.3331H45.619V25.8094H43.1428V23.3331ZM43.1428 20.8569H45.619V23.3331H43.1428V20.8569Z" fill="#3562FB"/>
<path d="M43.1426 18.3811H45.6187V20.8572H43.1426V18.3811ZM40.6663 55.5238H43.1426V58.0001H40.6663V55.5238Z" fill="#05248C"/>
<path d="M40.6663 53.0477H43.1426V55.5238H40.6663V53.0477ZM40.6663 50.5715H43.1426V53.0477H40.6663V50.5715ZM40.6663 48.0952H43.1426V50.5715H40.6663V48.0952Z" fill="#3562FB"/>
<path d="M40.6663 45.619H43.1426V48.0951H40.6663V45.619ZM40.6663 43.1429H43.1426V45.619H40.6663V43.1429ZM40.6663 40.6666H43.1426V43.1429H40.6663V40.6666ZM40.6663 38.1904H43.1426V40.6666H40.6663V38.1904Z" fill="#0F9AFF"/>
<path d="M40.6663 35.7146H43.1426V38.1907H40.6663V35.7146Z" fill="#3562FB"/>
<path d="M40.6663 33.238H43.1426V35.7143H40.6663V33.238ZM40.6663 30.7618H43.1426V33.238H40.6663V30.7618ZM40.6663 28.2857H43.1426V30.7618H40.6663V28.2857ZM40.6663 25.8096H43.1426V28.2857H40.6663V25.8096Z" fill="#0F9AFF"/>
<path d="M40.6663 23.3331H43.1426V25.8094H40.6663V23.3331ZM40.6663 20.8569H43.1426V23.3331H40.6663V20.8569Z" fill="#3562FB"/>
<path d="M40.6663 18.3811H43.1426V20.8572H40.6663V18.3811ZM38.1902 53.0477H40.6663V55.5238H38.1902V53.0477Z" fill="#05248C"/>
<path d="M38.1902 50.5713H40.6663V53.0475H38.1902V50.5713ZM38.1902 48.095H40.6663V50.5713H38.1902V48.095ZM38.1902 45.6189H40.6663V48.095H38.1902V45.6189Z" fill="#3562FB"/>
<path d="M38.1902 43.1429H40.6663V45.619H38.1902V43.1429ZM38.1902 40.6665H40.6663V43.1429H38.1902V40.6665ZM38.1902 38.1904H40.6663V40.6665H38.1902V38.1904ZM38.1902 35.7143H40.6663V38.1904H38.1902V35.7143ZM38.1902 33.238H40.6663V35.7143H38.1902V33.238ZM38.1902 30.7618H40.6663V33.238H38.1902V30.7618ZM38.1902 28.2857H40.6663V30.7618H38.1902V28.2857ZM38.1902 25.8096H40.6663V28.2857H38.1902V25.8096ZM38.1902 23.3333H40.6663V25.8096H38.1902V23.3333Z" fill="#0F9AFF"/>
<path d="M38.1902 20.8572H40.6663V23.3334H38.1902V20.8572ZM38.1902 18.3811H40.6663V20.8572H38.1902V18.3811Z" fill="#3562FB"/>
<path d="M38.19 15.9046H40.6661V18.3809H38.19V15.9046ZM38.19 13.4285H40.6661V15.9046H38.19V13.4285ZM35.7139 53.0475H38.19V55.5236H35.7139V53.0475Z" fill="#05248C"/>
<path d="M35.7139 50.5713H38.19V53.0475H35.7139V50.5713ZM35.7139 48.095H38.19V50.5713H35.7139V48.095ZM35.7139 45.6189H38.19V48.095H35.7139V45.6189Z" fill="#3562FB"/>
<path d="M35.7139 43.1428H38.19V45.6189H35.7139V43.1428ZM35.7139 40.6665H38.19V43.1428H35.7139V40.6665ZM35.7139 38.1904H38.19V40.6665H35.7139V38.1904ZM35.7139 35.7142H38.19V38.1904H35.7139V35.7142ZM35.7139 33.2379H38.19V35.7142H35.7139V33.2379ZM35.7139 30.7618H38.19V33.2379H35.7139V30.7618ZM35.7139 28.2856H38.19V30.7618H35.7139V28.2856Z" fill="#0F9AFF"/>
<path d="M35.7139 25.8096H38.19V28.2857H35.7139V25.8096Z" fill="white"/>
<path d="M35.7139 23.3331H38.19V25.8094H35.7139V23.3331ZM35.7139 20.8569H38.19V23.3331H35.7139V20.8569Z" fill="#0F9AFF"/>
<path d="M35.7139 18.3809H38.19V20.857H35.7139V18.3809ZM35.7139 15.9046H38.19V18.3809H35.7139V15.9046ZM35.7139 13.4285H38.19V15.9046H35.7139V13.4285Z" fill="#3562FB"/>
<path d="M35.7141 10.9526H38.1902V13.4288H35.7141V10.9526ZM35.7141 8.47632H38.1902V10.9526H35.7141V8.47632ZM33.2378 53.0478H35.7141V55.5239H33.2378V53.0478ZM33.2378 50.5717H35.7141V53.0478H33.2378V50.5717Z" fill="#05248C"/>
<path d="M33.2378 48.0953H35.7141V50.5716H33.2378V48.0953ZM33.2378 45.6192H35.7141V48.0953H33.2378V45.6192ZM33.2378 43.1431H35.7141V45.6192H33.2378V43.1431Z" fill="#3562FB"/>
<path d="M33.2378 40.6665H35.7141V43.1429H33.2378V40.6665ZM33.2378 38.1904H35.7141V40.6665H33.2378V38.1904ZM33.2378 35.7143H35.7141V38.1904H33.2378V35.7143ZM33.2378 33.238H35.7141V35.7143H33.2378V33.238ZM33.2378 30.7618H35.7141V33.238H33.2378V30.7618ZM33.2378 28.2857H35.7141V30.7618H33.2378V28.2857ZM33.2378 25.8096H35.7141V28.2857H33.2378V25.8096Z" fill="#0F9AFF"/>
<path d="M33.2378 23.3333H35.7141V25.8096H33.2378V23.3333Z" fill="white"/>
<path d="M33.2378 20.8572H35.7141V23.3334H33.2378V20.8572ZM33.2378 18.3811H35.7141V20.8572H33.2378V18.3811Z" fill="#0F9AFF"/>
<path d="M33.2378 15.9046H35.7141V18.3809H33.2378V15.9046ZM33.2378 13.4285H35.7141V15.9046H33.2378V13.4285Z" fill="#3562FB"/>
<path d="M33.2378 10.9524H35.7141V13.4285H33.2378V10.9524Z" fill="#3562FB"/>
<path d="M33.2383 8.47613H35.7147V10.9524H33.2383V8.47613ZM33.2383 6H35.7147V8.47613H33.2383V6ZM30.7622 50.5715H33.2383V53.0476H30.7622V50.5715Z" fill="#05248C"/>
<path d="M30.7622 48.0951H33.2383V50.5714H30.7622V48.0951ZM30.7622 45.619H33.2383V48.0951H30.7622V45.619ZM30.7622 43.1428H33.2383V45.619H30.7622V43.1428ZM30.7622 40.6665H33.2383V43.1428H30.7622V40.6665Z" fill="#3562FB"/>
<path d="M30.7622 38.1905H33.2383V40.6666H30.7622V38.1905ZM30.7622 35.7144H33.2383V38.1905H30.7622V35.7144ZM30.7622 33.2381H33.2383V35.7144H30.7622V33.2381ZM30.7622 30.7619H33.2383V33.2381H30.7622V30.7619ZM30.7622 28.2858H33.2383V30.7619H30.7622V28.2858ZM30.7622 25.8097H33.2383V28.2858H30.7622V25.8097ZM30.7622 23.3334H33.2383V25.8097H30.7622V23.3334ZM30.7622 20.8572H33.2383V23.3334H30.7622V20.8572ZM30.7622 18.3811H33.2383V20.8572H30.7622V18.3811ZM30.7622 15.9048H33.2383V18.3811H30.7622V15.9048Z" fill="#0F9AFF"/>
<path d="M30.7622 13.4285H33.2383V15.9046H30.7622V13.4285Z" fill="#3562FB"/>
<path d="M30.7622 10.9526H33.2383V13.4288H30.7622V10.9526ZM30.7622 8.47632H33.2383V10.9526H30.7622V8.47632Z" fill="#3562FB"/>
<path d="M30.7623 6H33.2384V8.47613H30.7623V6ZM28.2861 50.5715H30.7623V53.0476H28.2861V50.5715Z" fill="#05248C"/>
<path d="M28.2861 48.0953H30.7623V50.5716H28.2861V48.0953ZM28.2861 45.6192H30.7623V48.0953H28.2861V45.6192ZM28.2861 43.1431H30.7623V45.6192H28.2861V43.1431Z" fill="#3562FB"/>
<path d="M28.2861 40.6667H30.7623V43.143H28.2861V40.6667ZM28.2861 38.1905H30.7623V40.6667H28.2861V38.1905ZM28.2861 35.7144H30.7623V38.1905H28.2861V35.7144ZM28.2861 33.2381H30.7623V35.7144H28.2861V33.2381ZM28.2861 30.7619H30.7623V33.2381H28.2861V30.7619ZM28.2861 28.2858H30.7623V30.7619H28.2861V28.2858ZM28.2861 25.8097H30.7623V28.2858H28.2861V25.8097ZM28.2861 23.3334H30.7623V25.8097H28.2861V23.3334ZM28.2861 20.8572H30.7623V23.3334H28.2861V20.8572ZM28.2861 18.3811H30.7623V20.8572H28.2861V18.3811Z" fill="#0F9AFF"/>
<path d="M28.2861 15.9046H30.7623V18.3809H28.2861V15.9046ZM28.2861 13.4285H30.7623V15.9046H28.2861V13.4285Z" fill="#3562FB"/>
<path d="M28.2861 10.9524H30.7623V13.4285H28.2861V10.9524Z" fill="#3562FB"/>
<path d="M28.2857 8.47613H30.7618V10.9524H28.2857V8.47613ZM28.2857 6H30.7618V8.47613H28.2857V6ZM25.8096 53.0476H28.2857V55.5237H25.8096V53.0476ZM25.8096 50.5715H28.2857V53.0476H25.8096V50.5715Z" fill="#05248C"/>
<path d="M25.8096 48.0953H28.2857V50.5716H25.8096V48.0953ZM25.8096 45.6192H28.2857V48.0953H25.8096V45.6192ZM25.8096 43.1431H28.2857V45.6192H25.8096V43.1431Z" fill="#3562FB"/>
<path d="M25.8096 40.6664H28.2857V43.1427H25.8096V40.6664ZM25.8096 38.1902H28.2857V40.6664H25.8096V38.1902ZM25.8096 35.7141H28.2857V38.1902H25.8096V35.7141ZM25.8096 33.2378H28.2857V35.7141H25.8096V33.2378ZM25.8096 30.7616H28.2857V33.2378H25.8096V30.7616ZM25.8096 28.2855H28.2857V30.7616H25.8096V28.2855ZM25.8096 25.8094H28.2857V28.2855H25.8096V25.8094ZM25.8096 23.3331H28.2857V25.8094H25.8096V23.3331ZM25.8096 20.8569H28.2857V23.3331H25.8096V20.8569Z" fill="#0F9AFF"/>
<path d="M25.8096 18.3809H28.2857V20.857H25.8096V18.3809ZM25.8096 15.9046H28.2857V18.3809H25.8096V15.9046ZM25.8096 13.4285H28.2857V15.9046H25.8096V13.4285Z" fill="#3562FB"/>
<path d="M25.8101 10.9526H28.2862V13.4288H25.8101V10.9526ZM25.8101 8.47632H28.2862V10.9526H25.8101V8.47632ZM23.3337 53.0478H25.8101V55.5239H23.3337V53.0478Z" fill="#05248C"/>
<path d="M23.3337 50.5713H25.8101V53.0475H23.3337V50.5713ZM23.3337 48.095H25.8101V50.5713H23.3337V48.095ZM23.3337 45.6189H25.8101V48.095H23.3337V45.6189Z" fill="#3562FB"/>
<path d="M23.3337 43.1431H25.8101V45.6192H23.3337V43.1431Z" fill="#0F9AFF"/>
<path d="M23.3337 40.6665H25.8101V43.1428H23.3337V40.6665Z" fill="white"/>
<path d="M23.3337 38.1904H25.8101V40.6665H23.3337V38.1904ZM23.3337 35.7143H25.8101V38.1904H23.3337V35.7143ZM23.3337 33.238H25.8101V35.7143H23.3337V33.238ZM23.3337 30.7618H25.8101V33.238H23.3337V30.7618ZM23.3337 28.2857H25.8101V30.7618H23.3337V28.2857ZM23.3337 25.8096H25.8101V28.2857H23.3337V25.8096ZM23.3337 23.3333H25.8101V25.8096H23.3337V23.3333Z" fill="#0F9AFF"/>
<path d="M23.3337 20.8572H25.8101V23.3334H23.3337V20.8572ZM23.3337 18.3811H25.8101V20.8572H23.3337V18.3811Z" fill="#3562FB"/>
<path d="M23.3333 15.9046H25.8096V18.3809H23.3333V15.9046ZM23.3333 13.4285H25.8096V15.9046H23.3333V13.4285ZM20.8572 53.0475H23.3333V55.5236H20.8572V53.0475Z" fill="#05248C"/>
<path d="M20.8572 50.5715H23.3333V53.0477H20.8572V50.5715ZM20.8572 48.0952H23.3333V50.5715H20.8572V48.0952Z" fill="#3562FB"/>
<path d="M20.8572 45.6189H23.3333V48.095H20.8572V45.6189Z" fill="#0F9AFF"/>
<path d="M20.8572 43.1431H23.3333V45.6192H20.8572V43.1431Z" fill="white"/>
<path d="M20.8572 40.6666H23.3333V43.1429H20.8572V40.6666ZM20.8572 38.1904H23.3333V40.6666H20.8572V38.1904Z" fill="#0F9AFF"/>
<path d="M20.8572 35.7146H23.3333V38.1907H20.8572V35.7146Z" fill="#3562FB"/>
<path d="M20.8572 33.238H23.3333V35.7143H20.8572V33.238ZM20.8572 30.7618H23.3333V33.238H20.8572V30.7618ZM20.8572 28.2857H23.3333V30.7618H20.8572V28.2857ZM20.8572 25.8096H23.3333V28.2857H20.8572V25.8096ZM20.8572 23.3333H23.3333V25.8096H20.8572V23.3333Z" fill="#0F9AFF"/>
<path d="M20.8572 20.8569H23.3333V23.3331H20.8572V20.8569Z" fill="#3562FB"/>
<path d="M20.8572 18.3811H23.3334V20.8572H20.8572V18.3811ZM18.3811 55.5238H20.8572V58.0001H18.3811V55.5238Z" fill="#05248C"/>
<path d="M18.3811 53.0474H20.8572V55.5236H18.3811V53.0474ZM18.3811 50.5713H20.8572V53.0474H18.3811V50.5713Z" fill="#3562FB"/>
<path d="M18.3811 48.0952H20.8572V50.5715H18.3811V48.0952Z" fill="#0F9AFF"/>
<path d="M18.3811 45.6191H20.8572V48.0952H18.3811V45.6191ZM18.3811 43.1429H20.8572V45.6191H18.3811V43.1429ZM18.3811 40.6666H20.8572V43.1429H18.3811V40.6666ZM18.3811 38.1905H20.8572V40.6666H18.3811V38.1905ZM18.3811 35.7144H20.8572V38.1905H18.3811V35.7144ZM18.3811 33.238H20.8572V35.7144H18.3811V33.238Z" fill="#3562FB"/>
<path d="M18.3811 30.7618H20.8572V33.238H18.3811V30.7618ZM18.3811 28.2857H20.8572V30.7618H18.3811V28.2857ZM18.3811 25.8096H20.8572V28.2857H18.3811V25.8096Z" fill="#0F9AFF"/>
<path d="M18.3811 23.3331H20.8572V25.8094H18.3811V23.3331ZM18.3811 20.8569H20.8572V23.3331H18.3811V20.8569Z" fill="#3562FB"/>
<path d="M18.3809 18.3811H20.857V20.8572H18.3809V18.3811ZM15.9045 55.5238H18.3809V58.0001H15.9045V55.5238ZM15.9045 53.0477H18.3809V55.5238H15.9045V53.0477Z" fill="#05248C"/>
<path d="M15.9045 50.5714H18.3809V53.0475H15.9045V50.5714ZM15.9045 48.0951H18.3809V50.5714H15.9045V48.0951ZM15.9045 45.619H18.3809V48.0951H15.9045V45.619ZM15.9045 43.1428H18.3809V45.619H15.9045V43.1428ZM15.9045 40.6665H18.3809V43.1428H15.9045V40.6665Z" fill="#3562FB"/>
<path d="M15.9045 38.1907H18.3809V40.6669H15.9045V38.1907ZM15.9045 35.7146H18.3809V38.1907H15.9045V35.7146Z" fill="#05248C"/>
<path d="M15.9045 33.2379H18.3809V35.7142H15.9045V33.2379ZM15.9045 30.7617H18.3809V33.2379H15.9045V30.7617Z" fill="#3562FB"/>
<path d="M15.9045 28.2856H18.3809V30.7618H15.9045V28.2856Z" fill="#0F9AFF"/>
<path d="M15.9045 25.8096H18.3809V28.2857H15.9045V25.8096ZM15.9045 23.3333H18.3809V25.8096H15.9045V23.3333Z" fill="#3562FB"/>
<path d="M15.9051 20.8569H18.3814V23.3331H15.9051V20.8569ZM13.429 50.5712H15.9051V53.0474H13.429V50.5712Z" fill="#05248C"/>
<path d="M13.429 48.095H15.9051V50.5713H13.429V48.095ZM13.429 45.6189H15.9051V48.095H13.429V45.6189Z" fill="#3562FB"/>
<path d="M13.429 43.1429H15.9051V45.6191H13.429V43.1429ZM13.429 40.6666H15.9051V43.1429H13.429V40.6666ZM13.429 35.7144H15.9051V38.1905H13.429V35.7144ZM13.429 33.238H15.9051V35.7144H13.429V33.238Z" fill="#05248C"/>
<path d="M13.429 30.7617H15.9051V33.2379H13.429V30.7617Z" fill="#3562FB"/>
<path d="M13.429 28.2856H15.9051V30.7618H13.429V28.2856Z" fill="#0F9AFF"/>
<path d="M13.429 25.8096H15.9051V28.2857H13.429V25.8096ZM13.429 23.3333H15.9051V25.8096H13.429V23.3333Z" fill="#3562FB"/>
<path d="M13.4288 20.8569H15.9049V23.3331H13.4288V20.8569ZM10.9526 48.0949H13.4288V50.5712H10.9526V48.0949ZM10.9526 45.6188H13.4288V48.0949H10.9526V45.6188ZM10.9526 33.2378H13.4288V35.7141H10.9526V33.2378Z" fill="#05248C"/>
<path d="M10.9526 30.7618H13.4288V33.238H10.9526V30.7618ZM10.9526 28.2857H13.4288V30.7618H10.9526V28.2857ZM10.9526 25.8096H13.4288V28.2857H10.9526V25.8096ZM10.9526 23.3333H13.4288V25.8096H10.9526V23.3333Z" fill="#3562FB"/>
<path d="M10.9524 20.8569H13.4285V23.3331H10.9524V20.8569ZM8.47607 30.7616H10.9524V33.2378H8.47607V30.7616ZM8.47607 28.2855H10.9524V30.7616H8.47607V28.2855Z" fill="#05248C"/>
<path d="M8.47607 25.8096H10.9524V28.2857H8.47607V25.8096ZM8.47607 23.3333H10.9524V25.8096H8.47607V23.3333Z" fill="#3562FB"/>
<path d="M8.47613 20.8569H10.9524V23.3331H8.47613V20.8569ZM6 28.2855H8.47613V30.7616H6V28.2855ZM6 25.8094H8.47613V28.2855H6V25.8094ZM6 23.3331H8.47613V25.8094H6V23.3331Z" fill="#05248C"/>
</svg>
