<svg width="88" height="88" viewBox="0 0 88 88" fill="none" xmlns="http://www.w3.org/2000/svg">
<g opacity="0.5">
<circle cx="44" cy="44" r="27" stroke="#43CEFC" stroke-width="2"/>
<path d="M57.1248 47.0408H49.9361V40.3316H57.1248V47.0408ZM51.8134 45.1907H55.2475V42.1818H51.8134V45.1907ZM53.4221 38.4592H46.2354V31.75H53.4221V38.4592ZM48.1127 36.609H51.5447V33.6002H48.1127V36.609ZM52.4423 55.3747H45.2539V48.6655H52.4423V55.3747ZM47.1312 53.5245H50.565V50.5157H47.1312V53.5245Z" fill="#46CBFC"/>
<path d="M30.875 42.8047H51.1409V44.6549H30.875V42.8047Z" fill="#46CBFC"/>
<path d="M34.3822 44.3371L33.0508 43.0327L41.744 34.4141H47.557V36.2642H42.5252L34.3822 44.3371ZM46.1921 52.9439H42.7015L36.5544 44.2553L38.0944 43.1972L43.6812 51.0937H46.1921V52.9439Z" fill="#46CBFC"/>
</g>
</svg>
