<svg width="88" height="88" viewBox="0 0 88 88" fill="none" xmlns="http://www.w3.org/2000/svg">
<g opacity="0.5">
<circle cx="44" cy="44" r="27" stroke="#43CEFC" stroke-width="2"/>
<path d="M46.1583 49.2988L39.5094 44.875H33.5V56.25H45.5189L58 50.5625C57.2296 49.2986 54.9491 46.9604 51.9906 47.7188C49.0321 48.4771 45.5189 49.6146 44.1321 50.0885H39.5094" stroke="#43CEFC" stroke-width="2"/>
<path d="M37.9114 45.1835C37.7701 44.6093 37.6953 44.0101 37.6953 43.394C37.6953 39.1508 41.2432 35.7109 45.6198 35.7109C49.9964 35.7109 53.5444 39.1508 53.5444 43.394C53.5444 44.9073 53.0931 46.3184 52.314 47.5077" stroke="#43CEFC" stroke-width="2"/>
<path d="M45.943 39.2402L45.9426 37.8754V37.875H44.7336L44.734 39.2294C43.2696 39.3679 42.25 40.0477 42.25 41.2285C42.25 42.4391 43.4368 43.2191 45.1946 43.2527L45.43 43.255C46.5861 43.2793 47.1664 43.6627 47.1664 44.1218C47.1664 44.6329 46.5007 44.9898 45.3127 44.9898C44.1448 44.9898 43.459 44.5674 43.459 44.1214H42.25L42.2516 44.2005C42.3004 45.239 43.3147 45.9623 44.7336 46.1166V47.5H45.9426L45.943 46.1159C47.3796 45.9666 48.375 45.2888 48.375 44.1222C48.375 42.8842 47.1346 42.0969 45.3123 42.0969L45.1954 42.0953C44.0393 42.0714 43.4586 41.688 43.4586 41.2289C43.4586 40.7174 44.1239 40.3609 45.3123 40.3609C46.481 40.3609 47.166 40.7829 47.166 41.2289H48.375L48.373 41.1498C48.325 40.1237 47.3353 39.4057 45.943 39.2402Z" fill="#43CEFC"/>
<path d="M43.1405 35.7123L40.6641 31.75H50.0744L47.598 35.7123" stroke="#43CEFC" stroke-width="2"/>
</g>
</svg>
