<svg width="88" height="88" viewBox="0 0 88 88" fill="none" xmlns="http://www.w3.org/2000/svg">
<g opacity="0.5">
<circle cx="44" cy="44" r="27" stroke="#43CEFC" stroke-width="2"/>
<path d="M54.4975 40.7415C53.2778 37.913 50.9468 35.6773 48.0548 34.5792C47.9067 34.5237 47.8008 34.3914 47.7823 34.2353C47.5601 32.3435 45.9514 30.875 43.9987 30.875C41.9614 30.875 40.2971 32.4758 40.194 34.4866C40.1913 34.5528 40.1887 34.6189 40.1887 34.6851C40.1887 35.2169 40.2971 35.7222 40.4929 36.18C41.075 37.5399 42.4244 38.4951 43.9987 38.4951C45.4354 38.4951 46.6869 37.6987 47.3352 36.5239C47.441 36.3334 47.6738 36.2514 47.8749 36.3361C48.0178 36.3969 48.1633 36.4631 48.2321 36.4948C49.2137 36.9684 50.1054 37.6035 50.8833 38.3813C51.6294 39.1275 52.2406 39.9742 52.7089 40.9081C52.8333 41.1569 52.6904 41.4585 52.4179 41.514L51.6717 41.6675C51.5924 41.6834 51.5606 41.7813 51.6135 41.8421L53.6747 44.1599L54.5266 45.1151C54.5796 45.1759 54.6801 45.1548 54.7066 45.078L55.2728 43.3662L56.0851 40.9187C56.1115 40.842 56.0427 40.7653 55.9634 40.7811L54.9738 40.9849C54.7754 41.0299 54.5769 40.9267 54.4975 40.7415ZM45.8508 35.7064C45.491 36.3572 44.7951 36.8018 43.9987 36.8018C43.2023 36.8018 42.5064 36.3599 42.1466 35.7064C41.9773 35.4021 41.882 35.0555 41.882 34.6851C41.882 34.4496 41.9217 34.2247 41.9905 34.013C42.271 33.1743 43.0674 32.5684 43.9987 32.5684C44.9301 32.5684 45.7265 33.1743 46.0069 34.013C46.0784 34.2247 46.1154 34.4496 46.1154 34.6851C46.1154 35.0555 46.0202 35.4047 45.8508 35.7064ZM55.2834 47.0889C54.7992 46.7952 54.2435 46.6073 53.6509 46.5544C53.5397 46.5438 53.426 46.5386 53.3122 46.5386C51.2087 46.5386 49.5021 48.2451 49.5021 50.3486C49.5021 51.0947 49.7164 51.7933 50.0895 52.3806C50.2059 52.5659 50.1662 52.8093 49.9943 52.9442C49.3196 53.4707 48.584 53.9073 47.7903 54.2407C46.589 54.7487 45.3137 55.0053 43.9987 55.0053C43.7712 55.0053 43.5436 54.9974 43.3187 54.9815C43.033 54.963 42.8478 54.6746 42.951 54.4074L43.2367 53.6639C43.2658 53.5872 43.2023 53.5078 43.1203 53.521L39.7812 54.0475L38.7916 54.2036C38.7123 54.2169 38.6752 54.3121 38.7255 54.3756L40.0326 55.9923L41.4799 57.7835C41.5301 57.847 41.6307 57.8311 41.6598 57.7544L42.0037 56.8627C42.0752 56.6802 42.2604 56.5691 42.4562 56.5955C42.9615 56.6643 43.4748 56.6987 43.9987 56.6987C46.8377 56.6987 49.436 55.6642 51.4363 53.9496C51.558 53.8465 51.7247 53.8174 51.8728 53.8782C52.2803 54.0449 52.7222 54.1428 53.1878 54.1587C55.3178 54.2275 57.1037 52.5182 57.1249 50.3883C57.1355 48.9886 56.3946 47.761 55.2834 47.0889ZM53.3122 52.4653C53.1746 52.4653 53.0397 52.4521 52.91 52.4256C52.32 52.3118 51.8173 51.9547 51.513 51.4599C51.3119 51.1371 51.1955 50.7534 51.1955 50.346C51.1955 49.1897 52.1268 48.2478 53.2778 48.2293H53.3122C53.9128 48.2293 54.4579 48.4806 54.8441 48.8854C55.2066 49.2665 55.4289 49.7798 55.4289 50.346C55.4289 51.5154 54.479 52.4653 53.3122 52.4653ZM34.7197 46.5491C34.5027 46.5465 34.3228 46.3798 34.3016 46.1628C34.2751 45.8692 34.2619 45.5702 34.2619 45.2712C34.2619 43.9562 34.5186 42.6809 35.0266 41.4823C35.2859 40.8685 35.6034 40.289 35.9791 39.7466C36.1378 39.5164 36.4765 39.5032 36.6538 39.7228L37.1036 40.2784C37.1539 40.3419 37.2544 40.3261 37.2835 40.2493L38.4159 37.2912L38.8499 36.1562C38.879 36.0794 38.8155 36.0001 38.7334 36.0133L36.9078 36.3043L34.4074 36.7012C34.3281 36.7144 34.291 36.8097 34.3413 36.8732L35.0001 37.6855C35.1245 37.8389 35.1271 38.0585 35.0054 38.2146C33.4787 40.1541 32.5686 42.6041 32.5686 45.2685C32.5686 45.7951 32.603 46.3163 32.6744 46.8243C32.6956 46.9804 32.6294 47.1365 32.4998 47.2291C31.5076 47.9223 30.862 49.0786 30.8752 50.3857C30.8964 52.5156 32.6823 54.2275 34.8123 54.156C35.3679 54.1375 35.8918 54.0026 36.3601 53.7697C36.884 53.5131 37.3391 53.14 37.691 52.6849C38.1937 52.0393 38.4927 51.227 38.4927 50.346C38.4927 48.3854 37.011 46.7687 35.1059 46.5597C35.0398 46.5544 34.8784 46.5491 34.7197 46.5491ZM36.4844 51.4625C36.1775 51.9547 35.6748 52.3145 35.0874 52.4283C34.9578 52.4547 34.8228 52.468 34.6853 52.468C33.5184 52.468 32.5686 51.5181 32.5686 50.3513C32.5686 49.785 32.7908 49.2717 33.1533 48.8907C33.5396 48.4859 34.082 48.2346 34.6853 48.2346H34.7197C35.8706 48.2531 36.802 49.195 36.802 50.3513C36.802 50.7561 36.6855 51.1397 36.4844 51.4625Z" fill="#43CEFC"/>
</g>
</svg>
