<svg width="176" height="40" viewBox="0 0 176 40" fill="none" xmlns="http://www.w3.org/2000/svg">
<path d="M116.815 1C117.024 1.05906 117.237 1.10744 117.442 1.17907C117.785 1.29907 118.032 1.53468 118.041 1.90601C118.05 2.30938 118.036 2.7473 117.655 3.00679C110.311 8.01057 102.988 13.0464 95.4423 17.748C93.7245 18.8179 91.9533 19.778 89.9685 20.2618C89.3113 20.422 88.6322 20.6086 87.9674 20.5923C87.2053 20.574 86.4369 20.3887 85.6917 20.1971C83.6937 19.6831 81.9244 18.6703 80.1909 17.5902C74.4206 13.9976 68.8024 10.1751 63.1703 6.37322C61.5587 5.285 59.9591 4.1792 58.3462 3.09224C57.8618 2.76615 57.8034 2.28927 57.8706 1.7948C57.9316 1.35185 58.3148 1.19729 58.7044 1.09487C58.8344 1.06095 58.9657 1.03141 59.0971 1C62.9284 1 66.7592 1 70.5905 1C70.6791 1.0245 70.7671 1.05592 70.8576 1.07163C71.5449 1.19163 72.1236 1.49259 72.5307 2.07565C75.1576 5.83728 78.0107 9.40979 81.3074 12.616C82.559 13.8336 83.766 15.0984 85.1903 16.1238C86.4984 17.0662 87.9159 17.3653 89.4577 16.8068C90.3166 16.4958 91.0316 15.9384 91.7039 15.3397C96.0989 11.4273 99.9503 7.03482 103.28 2.18749C103.697 1.58118 104.254 1.22933 104.96 1.08105C105.081 1.05592 105.201 1.02702 105.322 1C109.152 1 112.984 1 116.815 1Z" fill="#005470"/>
<path d="M82.9336 6.00308C82.9782 6.51012 83.0014 6.916 83.0511 7.31937C83.2396 8.86373 84.243 10.0317 85.7465 10.4408C86.9252 10.7618 88.1246 10.7844 89.3171 10.552C90.9055 10.2422 91.9195 9.29914 92.3034 7.70765C92.5296 6.77086 92.5277 5.82841 92.4184 4.87905C92.2217 3.17196 91.1976 1.99076 89.5245 1.58111C88.2924 1.27952 87.0546 1.31345 85.8395 1.66718C84.3919 2.08877 83.4777 3.05258 83.1372 4.52092C83.0172 5.0355 82.9901 5.57081 82.9336 6.00308Z" fill="#005470"/>
<path d="M70.5913 33.2248C70.6824 33.3064 70.7622 33.3837 70.847 33.4547C72.9417 35.2052 75.0371 36.9556 77.1325 38.7054C77.2129 38.7726 77.3034 38.8311 77.3694 38.9102C77.4247 38.9768 77.5032 39.0925 77.4787 39.1415C77.4422 39.2162 77.3323 39.2709 77.2424 39.2998C77.1564 39.3274 77.0558 39.3136 76.9616 39.3136C74.5018 39.3142 72.042 39.3193 69.5829 39.3042C69.3755 39.3029 69.1248 39.2112 68.969 39.0761C66.5877 37.0166 64.2197 34.9413 61.8435 32.8761C61.6788 32.7328 61.6022 32.5883 61.6141 32.3678C61.6324 32.0341 61.6305 31.6986 61.6154 31.3644C61.6034 31.0917 61.7197 30.9868 61.9836 30.988C62.8418 30.9924 63.702 31.0219 64.5577 30.9748C65.017 30.9497 65.487 30.836 65.9186 30.6745C66.376 30.503 66.6606 30.1367 66.6418 29.607C66.6236 29.0918 66.3207 28.7607 65.8715 28.603C65.4838 28.4666 65.0641 28.3624 64.6557 28.3523C63.3589 28.3209 62.0602 28.3479 60.7622 28.3335C60.4851 28.3303 60.409 28.4082 60.4097 28.6847C60.4185 32.0404 60.4153 35.3962 60.4153 38.7519C60.4153 39.2985 60.4003 39.3149 59.8543 39.3149C57.5515 39.3155 55.2488 39.3155 52.9461 39.3149C52.424 39.3149 52.3926 39.2828 52.3926 38.7689C52.3926 34.7126 52.3926 30.6569 52.3926 26.6006C52.3926 26.1363 52.4253 26.1017 52.8921 26.1017C58.6907 26.1011 64.4892 26.1011 70.2878 26.1024C71.2642 26.1024 72.2047 26.2607 73.0517 26.7828C74.5433 27.702 75.1182 29.5178 74.3529 30.9352C73.8377 31.889 72.9725 32.4287 71.9955 32.8025C71.5519 32.9709 71.0832 33.0784 70.5913 33.2248Z" fill="#005470"/>
<path d="M135.885 26.1044C137.654 26.1044 139.423 26.1025 141.191 26.1044C144.488 26.1075 146.959 28.2525 147.394 31.5272C147.591 33.0094 147.5 34.4764 146.805 35.838C145.67 38.0659 143.831 39.2653 141.331 39.298C137.69 39.3458 134.047 39.3439 130.405 39.2999C127.248 39.2622 124.765 37.001 124.357 33.8488C124.126 32.065 124.32 30.3416 125.353 28.7998C126.536 27.0324 128.226 26.1584 130.329 26.1132C132.18 26.0723 134.033 26.1044 135.885 26.1044ZM132.609 32.5086C132.624 32.5092 132.64 32.5105 132.655 32.5111C132.655 32.9082 132.623 33.3084 132.662 33.7018C132.728 34.3841 132.779 35.0765 132.946 35.7381C133.142 36.5184 133.709 36.9997 134.524 37.0437C135.356 37.0889 136.197 37.0757 137.03 37.0198C137.814 36.967 138.329 36.4876 138.601 35.7645C138.699 35.5031 138.789 35.2222 138.798 34.947C138.844 33.6226 138.872 32.2969 138.88 30.9718C138.883 30.5892 138.831 30.1996 138.75 29.8245C138.566 28.965 138.093 28.4825 137.221 28.4096C136.297 28.3323 135.359 28.3078 134.435 28.3725C133.416 28.4435 132.877 29.0128 132.763 30.0419C132.67 30.8593 132.657 31.6855 132.609 32.5086Z" fill="#005470"/>
<path d="M158.791 36.9827C158.1 36.5542 157.409 36.1251 156.717 35.6985C155.072 34.6832 153.425 33.6703 151.78 32.6537C150.977 32.1574 150.203 31.6233 149.594 30.8876C149.106 30.297 148.79 29.6473 148.901 28.8475C148.975 28.3197 149.248 27.9107 149.635 27.5739C150.531 26.7942 151.604 26.3996 152.76 26.2357C153.389 26.1464 154.03 26.1113 154.666 26.1094C158.653 26.0987 162.64 26.1037 166.627 26.1037C167.191 26.1037 167.191 26.1037 167.192 26.6818C167.192 27.0895 167.193 27.4967 167.191 27.9044C167.19 28.3009 167.157 28.3373 166.764 28.338C165.404 28.3398 164.043 28.3386 162.683 28.3386C161.176 28.3386 159.669 28.3386 158.163 28.3386C158.053 28.3386 157.942 28.3386 157.832 28.3386C157.825 28.3599 157.818 28.3813 157.811 28.4033C157.909 28.4705 158.005 28.5421 158.107 28.605C160.4 30.0438 162.694 31.4801 164.986 32.9214C165.873 33.4793 166.741 34.0699 167.439 34.8597C167.746 35.2071 168.025 35.6024 168.22 36.0208C168.566 36.766 168.365 37.4596 167.727 37.9823C167.197 38.4159 166.565 38.637 165.916 38.8104C164.513 39.1862 163.076 39.3081 161.63 39.3106C157.769 39.3175 153.908 39.3131 150.046 39.3131C149.511 39.3131 149.486 39.2867 149.486 38.7438C149.486 38.3153 149.499 37.8862 149.482 37.4583C149.471 37.1656 149.6 37.0657 149.873 37.0713C150.25 37.0789 150.627 37.0726 151.004 37.0719C153.484 37.0719 155.963 37.0719 158.444 37.0719C158.554 37.0719 158.664 37.0719 158.774 37.0719C158.778 37.043 158.785 37.0129 158.791 36.9827Z" fill="#005470"/>
<path d="M111.13 39.3138C109.435 39.3138 107.739 39.2905 106.045 39.3182C102.019 39.3841 99.9904 36.2835 99.7328 33.6729C99.6957 33.2997 99.6712 32.9233 99.6699 32.5482C99.6637 30.5521 99.6668 28.556 99.6668 26.5593C99.6668 26.1289 99.6938 26.1006 100.135 26.1C102.573 26.0987 105.011 26.0987 107.45 26.1C107.881 26.1 107.91 26.132 107.912 26.5668C107.923 29.1692 107.922 31.7717 107.957 34.3734C107.963 34.8453 108.065 35.331 108.211 35.7821C108.486 36.6297 109.088 37.0607 109.979 37.0663C112.166 37.0808 114.353 37.0839 116.54 37.0663C117.683 37.0569 118.535 36.3922 118.873 35.1456C119.093 34.3383 119.226 33.4863 119.248 32.65C119.301 30.6131 119.267 28.5742 119.269 26.536C119.27 26.1396 119.304 26.1019 119.695 26.1006C120.532 26.0981 121.37 26.105 122.206 26.0969C122.477 26.0943 122.609 26.1785 122.607 26.4738C122.593 28.7313 122.681 30.9938 122.558 33.245C122.416 35.8657 121.164 37.8442 118.674 38.9066C117.925 39.2264 117.12 39.3106 116.31 39.3125C114.583 39.3163 112.857 39.3138 111.13 39.3138Z" fill="#005470"/>
<path d="M27.5577 34.6707C28.0358 34.2535 28.5002 33.8507 28.962 33.4455C31.658 31.0799 34.3553 28.7157 37.0463 26.3444C37.2568 26.1591 37.4698 26.0718 37.7506 26.0793C38.3154 26.0956 38.8809 26.0768 39.4458 26.0919C39.5771 26.0956 39.7059 26.1779 39.8359 26.2244C39.7612 26.3394 39.7071 26.4783 39.6079 26.5656C36.1101 29.6349 32.6086 32.6997 29.1071 35.7652C27.8637 36.8534 26.6184 37.9391 25.3806 39.0342C25.1884 39.2039 24.9911 39.2924 24.7335 39.288C24.1058 39.278 23.4775 39.2994 22.8505 39.2755C22.6702 39.2686 22.4553 39.1925 22.3215 39.0744C17.6092 34.9 12.9039 30.718 8.20106 26.5329C8.11498 26.4563 8.06597 26.3369 8 26.2376C8.12754 26.1874 8.25446 26.0944 8.38263 26.0931C10.0043 26.0824 11.6265 26.085 13.2482 26.0843C14.5664 26.0837 15.8852 26.0906 17.2033 26.0793C17.5024 26.0768 17.7336 26.1516 17.9655 26.3532C21.0404 29.0323 24.1247 31.7007 27.2065 34.3716C27.3152 34.4665 27.4264 34.5595 27.5577 34.6707Z" fill="#005470"/>
<path d="M83.6489 28.3391C83.468 28.3391 83.3436 28.3391 83.2192 28.3391C81.5027 28.3391 79.7862 28.3397 78.0703 28.3385C77.6185 28.3385 77.584 28.3027 77.5833 27.8603C77.5827 27.3898 77.5871 26.9198 77.5821 26.4492C77.5796 26.2142 77.682 26.0973 77.9188 26.1011C78.0131 26.1024 78.1073 26.0999 78.2016 26.0999C84.565 26.0999 90.9278 26.0999 97.2912 26.0999C97.3961 26.0999 97.5004 26.1005 97.6054 26.1024C97.807 26.1061 97.9094 26.1972 97.9069 26.4115C97.9007 26.9443 97.8981 27.4777 97.9082 28.0105C97.9126 28.243 97.8058 28.3341 97.5909 28.3366C97.4967 28.3379 97.4024 28.3385 97.3082 28.3385C95.5709 28.3385 93.8337 28.3385 92.0964 28.3385C91.9726 28.3385 91.8489 28.3385 91.6742 28.3385C91.6742 28.4937 91.6742 28.6244 91.6742 28.755C91.6742 32.1001 91.6742 35.4446 91.6742 38.7896C91.6742 39.2659 91.6309 39.3117 91.159 39.3124C88.8249 39.3136 86.4914 39.3136 84.1572 39.3124C83.676 39.3124 83.6508 39.2841 83.6502 38.7915C83.6502 35.4571 83.6502 32.1227 83.6502 28.7883C83.6489 28.6551 83.6489 28.5219 83.6489 28.3391Z" fill="#005470"/>
<path d="M49.224 32.7065C49.224 34.7648 49.224 36.8238 49.224 38.8821C49.224 39.266 49.1832 39.3118 48.7924 39.3125C46.4174 39.3144 44.0425 39.315 41.6675 39.3125C41.2685 39.3118 41.2095 39.2478 41.2095 38.8601C41.2088 34.7535 41.2088 30.647 41.2095 26.5404C41.2095 26.1571 41.2597 26.105 41.6424 26.105C44.0381 26.1037 46.4344 26.1075 48.8301 26.1006C49.1241 26.1 49.2322 26.1929 49.231 26.5002C49.2184 28.5685 49.224 30.6375 49.224 32.7065Z" fill="#005470"/>
<path d="M82.9336 6.00308C82.9901 5.57144 83.0172 5.0355 83.1365 4.52092C83.4771 3.05258 84.3906 2.08877 85.8389 1.66718C87.054 1.31345 88.2911 1.27952 89.5238 1.58111C91.1976 1.99076 92.2211 3.17259 92.4178 4.87905C92.5271 5.82841 92.529 6.77149 92.3028 7.70765C91.9189 9.29914 90.9048 10.2422 89.3165 10.552C88.1246 10.7844 86.9252 10.7618 85.7459 10.4408C84.2423 10.0317 83.2389 8.86373 83.0505 7.31937C83.0014 6.916 82.9776 6.50949 82.9336 6.00308Z" fill="#F4811F"/>
</svg>
