<svg width="88" height="88" viewBox="0 0 88 88" fill="none" xmlns="http://www.w3.org/2000/svg">
<circle opacity="0.5" cx="44" cy="44" r="44" fill="url(#paint0_radial_699_7161)"/>
<circle cx="44" cy="44" r="27" stroke="#43CEFC" stroke-width="2"/>
<path d="M50.1523 32.625C47.4889 32.625 45.1741 34.1601 44 36.414C42.8259 34.1601 40.5111 32.625 37.8477 32.625C33.9973 32.625 30.875 35.8321 30.875 39.787C30.875 48.6343 44 55.375 44 55.375C44 55.375 57.125 48.6343 57.125 39.787C57.125 35.8321 54.0027 32.625 50.1523 32.625ZM32.5156 39.787C32.5156 38.323 33.0693 36.9486 34.0768 35.9137C35.0842 34.8789 36.4224 34.3102 37.8477 34.3102C39.819 34.3102 41.6211 35.4214 42.5542 37.2092L44 39.9872L45.4458 37.2092C46.3789 35.4214 48.181 34.3102 50.1523 34.3102C51.5776 34.3102 52.9158 34.8789 53.9232 35.9137C54.9307 36.9486 55.4844 38.323 55.4844 39.787C55.4844 40.0661 55.469 40.3453 55.4357 40.6296H50.1113L47.7375 44.4608L45.7252 40.7402L41.7928 46.3988L38.4398 36.4957L36.1404 40.6296H32.5643C32.531 40.3453 32.5156 40.0661 32.5156 39.787ZM55.0204 42.4175C54.7281 43.2601 54.2949 44.1238 53.731 44.99C52.7389 46.512 51.3367 48.0497 49.5627 49.5637C47.3582 51.4464 45.1202 52.8209 44 53.4634C42.8798 52.8209 40.6418 51.4464 38.4373 49.5637C36.6659 48.0497 35.2637 46.512 34.269 44.99C33.7051 44.1238 33.2693 43.2601 32.9796 42.4175C32.9668 42.3833 32.9565 42.349 32.9437 42.3148H37.0914L38.0732 40.5506L41.2827 50.0298L45.5509 43.892L47.6401 47.7548L51.0137 42.3148H55.0563C55.0435 42.349 55.0332 42.3833 55.0204 42.4175Z" fill="#44CDFC"/>
<defs>
<radialGradient id="paint0_radial_699_7161" cx="0" cy="0" r="1" gradientUnits="userSpaceOnUse" gradientTransform="translate(43.8372 43.839) rotate(71.1324) scale(43.3616 44.5619)">
<stop offset="0.00540541" stop-color="#474DFF"/>
<stop offset="1" stop-color="#474DFF" stop-opacity="0"/>
</radialGradient>
</defs>
</svg>
