<svg width="176" height="40" viewBox="0 0 176 40" fill="none" xmlns="http://www.w3.org/2000/svg">
<path d="M61.3325 11.1334H64.4525V22.4134C64.4376 23.0542 64.5604 23.6908 64.8125 24.2801C65.0336 24.788 65.3609 25.2426 65.7725 25.6134C66.1577 25.9682 66.6114 26.2405 67.1058 26.4134C68.1138 26.7509 69.2044 26.7509 70.2125 26.4134C70.7049 26.2365 71.158 25.9648 71.5458 25.6134C71.9573 25.2426 72.2846 24.788 72.5058 24.2801C72.758 23.6908 72.8808 23.0542 72.8658 22.4134V11.1334H75.9992V22.4134C76.0252 23.5432 75.8116 24.6656 75.3725 25.7068C74.9828 26.5984 74.4157 27.4013 73.7058 28.0668C73.0272 28.7016 72.2233 29.1876 71.3458 29.4934C69.6002 30.1193 67.6914 30.1193 65.9458 29.4934C65.0698 29.1844 64.2665 28.6988 63.5858 28.0668C62.8761 27.4041 62.3129 26.6001 61.9325 25.7068C61.4888 24.6665 61.2706 23.5441 61.2925 22.4134L61.3325 11.1334Z" fill="white"/>
<path d="M78.4395 11.1336H84.4395C85.3535 11.1197 86.2608 11.2921 87.1061 11.6403C87.8324 11.9454 88.4865 12.3996 89.0261 12.9736C89.5383 13.5187 89.9331 14.1631 90.1861 14.8669C90.72 16.2575 90.72 17.7964 90.1861 19.1869C89.9395 19.8939 89.5439 20.5395 89.0261 21.0803C88.4873 21.6551 87.8329 22.1095 87.1061 22.4136C86.2627 22.7677 85.354 22.9403 84.4395 22.9203H81.5595V29.3336H78.4395V16.5469L81.5061 14.0403H78.4395V11.1336ZM81.5595 14.0403V20.0003H84.4395C84.9868 20.0335 85.5317 19.9044 86.0061 19.6292C86.4805 19.3541 86.8631 18.9452 87.1061 18.4536C87.33 18.0089 87.4467 17.5181 87.4467 17.0203C87.4467 16.5224 87.33 16.0316 87.1061 15.5869C86.8745 15.1452 86.5352 14.7691 86.1195 14.4936C85.632 14.1784 85.0596 14.0203 84.4795 14.0403H81.5595Z" fill="white"/>
<path d="M95.2407 16.5731C95.5547 17.0116 95.9774 17.3608 96.4674 17.5864C97.0541 17.8797 97.7074 18.1731 98.4407 18.4664C99.1741 18.7597 99.9474 19.0797 100.721 19.4131C101.485 19.7405 102.206 20.1615 102.867 20.6664C103.505 21.1472 104.052 21.7388 104.481 22.4131C104.926 23.1619 105.148 24.0223 105.121 24.8931C105.14 25.6987 104.932 26.4933 104.521 27.1864C104.128 27.8293 103.606 28.3835 102.987 28.8131C102.342 29.2549 101.625 29.5799 100.867 29.7731C100.098 29.984 99.3047 30.0916 98.5074 30.0931C97.8321 30.0904 97.1583 30.028 96.4941 29.9064C95.8353 29.7847 95.1915 29.5925 94.5741 29.3331C93.9598 29.0728 93.3781 28.7417 92.8407 28.3464C92.3007 27.9399 91.8205 27.4596 91.4141 26.9197L93.8274 25.0131C94.3582 25.7516 95.1099 26.3025 95.9741 26.5864C96.8327 26.8767 97.7342 27.0209 98.6407 27.0131C99.0159 27.0129 99.3906 26.9817 99.7607 26.9197C100.15 26.8513 100.528 26.7256 100.881 26.5464C101.211 26.3844 101.502 26.1524 101.734 25.8664C101.965 25.5547 102.082 25.1737 102.067 24.7864C102.071 24.5137 102.012 24.2439 101.897 23.9969C101.782 23.7499 101.612 23.5321 101.401 23.3597C100.875 22.9328 100.297 22.5744 99.6807 22.2931C98.9874 21.9731 98.2274 21.6531 97.4007 21.3331C96.5953 21.0156 95.8114 20.6459 95.0541 20.2264C94.3199 19.8109 93.6543 19.2848 93.0807 18.6664C92.5165 18.0803 92.1443 17.3361 92.0141 16.5331L95.2407 16.5731ZM92.1874 13.9997C92.3787 13.4148 92.6873 12.8749 93.0941 12.413C93.4679 11.9594 93.9194 11.5757 94.4274 11.2797C94.9733 10.9691 95.5618 10.74 96.1741 10.5997C96.8119 10.4489 97.4651 10.3729 98.1207 10.373C99.3134 10.3723 100.494 10.6174 101.587 11.093C102.68 11.556 103.675 12.2209 104.521 13.053L102.467 15.3464C101.881 14.75 101.183 14.2744 100.414 13.9464C99.6582 13.6133 98.8399 13.4451 98.0141 13.4531C97.629 13.4471 97.2446 13.4829 96.8674 13.5597C96.5219 13.6347 96.1923 13.7701 95.8941 13.9597C95.6057 14.1372 95.3671 14.3849 95.2007 14.6797C95.0193 15.0291 94.9319 15.4197 94.9474 15.8131C94.9449 15.9835 94.9814 16.1523 95.0541 16.3064L92.1874 13.9997Z" fill="white"/>
<path d="M105.666 14.0401V11.1334H120.639V14.0401H105.666ZM114.666 29.3334H111.546V16.5734L114.666 14.0401V29.3334Z" fill="white"/>
<path d="M124.361 16.5734H126.854L124.361 11.1334H127.627L136.001 29.3334H132.774L131.614 26.7868H122.974L121.801 29.3334H118.561L124.361 16.5734ZM130.201 23.8668L127.241 17.4268L124.281 23.8668H130.201Z" fill="white"/>
<path d="M140.681 11.1334V29.3334H137.561V16.5734L140.681 14.0401H137.561V11.1334H140.681Z" fill="white"/>
<path d="M149.081 11.1331C150.137 11.106 151.186 11.3203 152.147 11.7598C152.942 12.1285 153.633 12.6872 154.161 13.3865C154.649 14.0361 154.982 14.7885 155.134 15.5865C155.307 16.368 155.307 17.1783 155.134 17.9599C154.923 18.7491 154.541 19.4821 154.014 20.1065C153.427 20.7832 152.681 21.3013 151.841 21.6132L157.174 29.3332H153.334L148.414 22.0799H146.441V29.3332H143.334V16.5465L146.401 14.0399H143.334V11.1331H149.081ZM146.414 14.0399V19.1732H149.081C149.657 19.1909 150.226 19.0576 150.734 18.7865C151.139 18.562 151.479 18.2357 151.721 17.8399C151.935 17.4621 152.046 17.0341 152.041 16.5999C152.046 16.1679 151.93 15.7431 151.707 15.3732C151.461 14.9812 151.122 14.6561 150.721 14.4265C150.218 14.1552 149.651 14.0219 149.081 14.0399H146.414Z" fill="white"/>
<path d="M161.172 16.5731C161.486 17.0116 161.908 17.3608 162.399 17.5864C162.986 17.8797 163.639 18.1731 164.386 18.4664L166.652 19.4131C167.416 19.7405 168.138 20.1615 168.799 20.6664C169.436 21.1472 169.983 21.7388 170.412 22.4131C170.858 23.1619 171.079 24.0223 171.052 24.8931C171.071 25.6987 170.863 26.4933 170.452 27.1864C170.063 27.8323 169.54 28.3871 168.919 28.8131C168.274 29.2549 167.556 29.5799 166.799 29.7731C166.03 29.984 165.236 30.0916 164.439 30.0931C163.763 30.0904 163.09 30.028 162.426 29.9064C161.767 29.7847 161.123 29.5925 160.506 29.3331C159.892 29.0699 159.311 28.7389 158.772 28.3464C158.232 27.9399 157.752 27.4596 157.346 26.9197L159.759 25.0131C160.29 25.7516 161.042 26.3025 161.906 26.5864C162.764 26.8755 163.666 27.0197 164.572 27.0131C164.947 27.0129 165.322 26.9817 165.692 26.9197C166.082 26.8513 166.459 26.7256 166.812 26.5464C167.143 26.3844 167.434 26.1524 167.666 25.8664C167.9 25.556 168.022 25.1752 168.012 24.7864C168.012 24.5128 167.952 24.2427 167.834 23.9957C167.716 23.7488 167.544 23.5315 167.332 23.3597C166.806 22.9328 166.228 22.5744 165.612 22.2931C164.919 21.9731 164.159 21.6531 163.346 21.3331C162.535 21.0183 161.746 20.6485 160.986 20.2264C160.266 19.8175 159.61 19.3053 159.039 18.7064C158.475 18.1203 158.103 17.3761 157.972 16.5731H161.172ZM158.132 13.9997C158.319 13.4156 158.623 12.8756 159.026 12.413C159.399 11.9594 159.851 11.5757 160.359 11.2797C160.906 10.9719 161.494 10.743 162.106 10.5997C162.743 10.4489 163.396 10.3729 164.052 10.373C165.25 10.3724 166.434 10.6174 167.532 11.093C168.619 11.5596 169.608 12.2243 170.452 13.053L168.399 15.3464C167.815 14.7533 167.122 14.278 166.359 13.9464C165.598 13.6145 164.775 13.4464 163.946 13.4531C163.564 13.4469 163.184 13.4827 162.812 13.5597C162.462 13.6323 162.127 13.7679 161.826 13.9597C161.54 14.1376 161.307 14.3855 161.146 14.6797C160.959 15.0279 160.867 15.4185 160.879 15.8131C160.876 15.9835 160.912 16.1523 160.986 16.3064L158.132 13.9997Z" fill="white"/>
<mask id="mask0_239_492" style="mask-type:luminance" maskUnits="userSpaceOnUse" x="4" y="0" width="45" height="40">
<path d="M49 0H4V40H49V0Z" fill="white"/>
</mask>
<g mask="url(#mask0_239_492)">
<path d="M26.5078 12.9734L48.5078 25.6401C48.6618 25.7406 48.7884 25.8781 48.876 26.0398C48.9636 26.2017 49.0094 26.3827 49.0094 26.5667C49.0094 26.7507 48.9636 26.9318 48.876 27.0935C48.7884 27.2554 48.6618 27.3927 48.5078 27.4934L27.0278 39.8934C26.8614 39.9649 26.6822 40.0018 26.5012 40.0018C26.32 40.0018 26.1408 39.9649 25.9745 39.8934L4.50779 27.4934C4.35373 27.3927 4.22717 27.2554 4.13957 27.0935C4.05198 26.9318 4.0061 26.7507 4.0061 26.5667C4.0061 26.3827 4.05198 26.2017 4.13957 26.0398C4.22717 25.8781 4.35373 25.7406 4.50779 25.6401L26.5078 12.9734Z" fill="#7E46F2"/>
<path d="M25.4421 0.306733C25.7609 0.103854 26.1309 -0.00390625 26.5088 -0.00390625C26.8866 -0.00390625 27.2566 0.103854 27.5754 0.306733L48.5088 12.4401C48.6628 12.5422 48.789 12.6809 48.8765 12.8438C48.9638 13.0066 49.0096 13.1886 49.0096 13.3733C49.0096 13.5583 48.9638 13.7401 48.8765 13.9031C48.789 14.0659 48.6628 14.2045 48.5088 14.3067L26.5088 26.9733L4.50871 14.3067C4.35469 14.2045 4.22835 14.0659 4.14095 13.9031C4.05355 13.7401 4.00781 13.5583 4.00781 13.3733C4.00781 13.1886 4.05355 13.0066 4.14095 12.8438C4.22835 12.6809 4.35469 12.5422 4.50871 12.4401L25.4421 0.306733Z" fill="url(#paint0_linear_239_492)"/>
<path fill-rule="evenodd" clip-rule="evenodd" d="M38.668 19.8935L26.5346 26.9735L14.3613 19.8935L26.508 12.8269L38.668 19.8935Z" fill="#00FFFF"/>
</g>
<defs>
<linearGradient id="paint0_linear_239_492" x1="26.5088" y1="-0.279933" x2="26.5088" y2="26.9733" gradientUnits="userSpaceOnUse">
<stop stop-color="#01E7A2"/>
<stop offset="1" stop-color="#00E5A0"/>
</linearGradient>
</defs>
</svg>
