<svg width="2036" height="261" viewBox="0 0 2036 261" fill="none" xmlns="http://www.w3.org/2000/svg">
<path d="M468.399 141.876C459.851 141.876 406 141.911 406 141.911L356 158.418L297 175.5L280 204L233.5 215.5L159 260.999H1761.22H1975.95C1975.95 260.999 1724.29 234.243 1712.31 234.243C1700.33 234.243 1692.34 225.684 1681.03 224.551C1669.73 223.418 1630.13 217.718 1622.72 215.435C1615.3 213.151 1591.61 209.16 1591.61 209.16C1591.61 209.16 1581.63 212.018 1570.49 209.16C1559.34 206.301 1515.43 201.176 1515.43 201.176C1515.43 201.176 1500.6 205.743 1495.3 205.238C1490.02 204.732 1441.83 205.743 1429.78 204.035C1417.73 202.327 1403.04 207.451 1399.48 204.035C1395.92 200.601 1371.08 197.184 1360.18 197.184C1349.27 197.184 1234.72 190.352 1230.01 187.493C1225.3 184.634 1222.73 181.793 1212.93 181.218C1203.12 180.642 1190.88 187.493 1190.88 187.493C1190.88 187.493 1155.5 176 1149.26 172.676C1141 171 1125.5 182.5 1125.5 182.5L1102.5 169C1102.5 165.008 1089 158 1089 158C1089 158 1078.55 152.367 1069.5 153.5C1060.46 154.633 1052.16 126.484 1052.16 126.484C1037.91 131.609 993.913 155.559 993.913 155.559L979.347 158.418C979.347 158.418 928.304 157.285 917.471 155.001C906.638 152.718 813.049 150.435 813.049 150.435L801.064 135.043L793.075 136.176C785.085 137.326 753.703 143.602 740.009 145.885C726.315 148.169 662.974 150.435 662.974 150.435L655.438 144.456C655.438 144.456 647.571 147.576 633.58 147.576C619.59 147.576 553.65 139.192 529.856 130.929C519.581 131.557 505.8 139.244 498.176 141.318C494.688 142.259 476.964 141.876 468.399 141.876Z" fill="url(#paint0_linear_462_6584)"/>
<path fill-rule="evenodd" clip-rule="evenodd" d="M1424.27 247.856C1424.27 247.856 1322.29 241.668 1322.04 237.816C1321.8 233.981 1328.41 231.994 1328.41 231.994C1328.41 231.994 1262.72 224.063 1246.98 223.401C1231.25 222.738 1205.46 228.02 1205.46 228.02C1205.46 228.02 1177.67 224.604 1168.76 223.331C1159.85 222.059 1138.04 216.777 1138.04 216.777C1138.04 216.777 1001.85 199.642 976.731 196.975C951.611 194.308 920.298 188.295 920.298 188.295C920.298 188.295 876.914 184.599 849.822 180.869C822.714 177.139 779.242 166.994 762.967 167.761C746.691 168.545 726.857 172.258 710.337 167.761C693.817 163.264 663.394 167.534 651.497 167.378C639.599 167.221 579.434 171.491 579.434 171.491L593.982 180.869C593.982 180.869 687.136 190.543 707.685 192.321C728.235 194.099 819.26 198.265 836.844 199.921C854.445 201.577 968.794 208.062 985.994 213.082C1003.18 218.102 1058.7 231.959 1058.7 231.959C1058.7 231.959 1097.15 229.31 1119.9 227.34C1142.64 225.353 1225.94 233.947 1237.84 233.947C1249.74 233.947 1311.87 237.781 1311.87 237.781C1311.87 237.781 1330.63 247.212 1338.11 248.833C1345.59 250.489 1424.27 247.856 1424.27 247.856Z" fill="url(#paint1_linear_462_6584)"/>
<path fill-rule="evenodd" clip-rule="evenodd" d="M973.73 240.571C973.73 240.571 1053.42 248.502 1067.97 247.839C1082.51 247.177 1226.24 257.88 1226.24 257.88L1254.39 261H1148.75C1148.75 261 1079.2 258.664 1056.07 257.88C1032.94 257.095 977.167 241.895 964.397 240.571C951.628 239.246 920.176 237.799 920.176 237.799C920.176 237.799 949.116 230.652 957.978 231.315C966.805 231.995 973.73 240.571 973.73 240.571Z" fill="url(#paint2_linear_462_6584)"/>
<path fill-rule="evenodd" clip-rule="evenodd" d="M986.898 160.841C986.898 160.841 1011.43 161.19 1022.83 160.841C1034.24 160.492 1051.88 150.818 1056.73 147.733C1061.58 144.648 1062.89 129.622 1060.69 124.829C1058.49 120.035 990.666 155.455 986.898 160.841Z" fill="#723EA9"/>
<path fill-rule="evenodd" clip-rule="evenodd" d="M1118.57 109.088C1118.57 109.088 1132.07 110.709 1136.92 107.397C1141.77 104.086 1144.32 89.1123 1144.32 89.1123L1130.71 90.96C1130.71 90.9426 1119.62 102.168 1118.57 109.088Z" fill="#723EA9"/>
<path fill-rule="evenodd" clip-rule="evenodd" d="M1149.29 172.676C1149.29 172.676 1142.5 170.5 1125.46 182.891C1125.46 182.891 1149.26 185.087 1165.13 186.412C1180.99 187.737 1188.89 186.987 1188.89 186.987C1188.89 186.987 1154 175 1149.29 172.676Z" fill="#723EA9"/>
<path fill-rule="evenodd" clip-rule="evenodd" d="M1193.01 186.412C1193.01 186.412 1198.61 188.487 1209.63 188.33C1220.66 188.173 1222.84 183.257 1222.84 183.257C1222.84 183.257 1208.57 175.849 1193.01 186.412Z" fill="#723EA9"/>
<path fill-rule="evenodd" clip-rule="evenodd" d="M728.234 150.539C728.234 150.539 782.103 134.52 801.082 135.025L806.996 144.978C806.996 144.996 772.404 161.782 728.234 150.539Z" fill="#723EA9"/>
<path fill-rule="evenodd" clip-rule="evenodd" d="M633.578 147.576C633.578 147.576 645.196 149.755 651.476 150.087C657.756 150.418 660.948 148.832 660.948 148.832L655.436 144.456C655.436 144.456 641.463 144.09 633.578 147.576Z" fill="#723EA9"/>
<path fill-rule="evenodd" clip-rule="evenodd" d="M529.855 130.93C529.855 130.93 512.777 131.243 498.176 141.319C498.176 141.319 512.009 145.188 520.592 142.678C529.192 140.168 532.838 133.893 529.855 130.93Z" fill="#723EA9"/>
<path fill-rule="evenodd" clip-rule="evenodd" d="M1282.88 206.057C1282.88 206.057 1343.15 195.825 1360.21 197.202C1377.29 198.579 1399.52 204.052 1399.52 204.052C1399.52 204.052 1360.84 210.136 1347.27 210.502C1333.7 210.85 1282.88 206.057 1282.88 206.057Z" fill="#723EA9"/>
<path fill-rule="evenodd" clip-rule="evenodd" d="M1498.49 207.557L1515.48 201.177C1515.48 201.177 1545.89 205.447 1559.11 213.1C1559.11 213.117 1527.12 210.032 1498.49 207.557Z" fill="#723EA9"/>
<path fill-rule="evenodd" clip-rule="evenodd" d="M1591.66 209.159L1579.02 213.099C1579.02 213.099 1602.08 216.864 1629.83 221.117C1629.85 221.134 1608.57 208.323 1591.66 209.159Z" fill="#723EA9"/>
<path fill-rule="evenodd" clip-rule="evenodd" d="M849.805 180.904C849.805 180.904 913.32 187.127 924.153 189.062C934.986 190.979 1016.63 201.717 1038.22 204.384C1059.82 207.05 1138.02 216.812 1138.02 216.812C1138.02 216.812 1052.6 194.361 1044.07 192.6C1035.55 190.84 996.826 187.127 990.407 187.214C983.987 187.319 954.628 190.108 928.462 184.547C880.001 174.245 849.805 180.904 849.805 180.904Z" fill="url(#paint3_linear_462_6584)"/>
<path fill-rule="evenodd" clip-rule="evenodd" d="M1056.05 207.138L1058.7 231.994L1119.9 227.375L1131.45 216.794L1056.05 207.138Z" fill="#0071F2"/>
<path fill-rule="evenodd" clip-rule="evenodd" d="M1206.44 231.768L1205.46 228.02C1205.46 228.02 1234.89 223.139 1242.48 223.348C1250.07 223.558 1268.59 225.231 1268.59 225.231L1271.56 235.445L1206.44 231.768Z" fill="#0064D6"/>
<path fill-rule="evenodd" clip-rule="evenodd" d="M1315.83 230.495L1311.89 237.816L1322.04 242.662V237.816L1328.41 231.994C1328.41 231.994 1319.74 230.948 1315.83 230.495Z" fill="#0064D6"/>
<path fill-rule="evenodd" clip-rule="evenodd" d="M1362.59 243.395L1378.65 249.077L1424.27 247.857L1362.59 243.395Z" fill="#0064D6"/>
<path fill-rule="evenodd" clip-rule="evenodd" d="M797.211 172.677L812.562 199.852L851.777 201.089L893.208 203.791L931.9 206.859V191.485L915.676 188.347C915.694 188.33 803.002 176.546 797.211 172.677Z" fill="#0BB8FF"/>
<path fill-rule="evenodd" clip-rule="evenodd" d="M993.914 199.956L1001.85 217.439L1058.7 231.994L1056.05 207.138L993.914 199.956Z" fill="#0094FF"/>
<path fill-rule="evenodd" clip-rule="evenodd" d="M1028.3 160.981C1028.3 160.981 1036.9 169.016 1040.86 169.226C1044.82 169.452 1060.36 167.779 1060.36 167.779C1060.36 167.779 1067.74 158.436 1068.4 155.124C1069.06 151.829 1061.72 125.613 1061.72 125.613C1061.72 125.613 1060.69 143.323 1058.72 145.502C1056.71 147.733 1037.77 158.471 1028.3 160.981Z" fill="url(#paint4_linear_462_6584)"/>
<path fill-rule="evenodd" clip-rule="evenodd" d="M1399.51 204.035L1355.33 210.519H1340.85C1340.85 210.519 1360.18 212.071 1370.19 213.117C1380.2 214.162 1410.92 204.75 1410.92 204.75L1399.51 204.035Z" fill="url(#paint5_linear_462_6584)"/>
<path fill-rule="evenodd" clip-rule="evenodd" d="M1233.76 188.348C1233.76 188.348 1224.18 195.39 1218.01 197.063C1211.83 198.754 1188.89 192.705 1188.89 192.705L1203.47 192.845L1207.45 188.33C1207.45 188.33 1218.86 186.692 1222.84 183.258L1233.76 188.348Z" fill="url(#paint6_linear_462_6584)"/>
<path fill-rule="evenodd" clip-rule="evenodd" d="M813.067 150.434C813.067 150.434 802.059 156.71 794.977 158.348C787.895 159.987 753.512 158.348 753.512 158.348L740.742 154.409C740.742 154.409 766.246 155.437 783.045 151.62C799.844 147.802 806.996 144.979 806.996 144.979L813.067 150.434Z" fill="url(#paint7_linear_462_6584)"/>
<path fill-rule="evenodd" clip-rule="evenodd" d="M655.438 144.456L648.652 147.28H634.312C634.312 147.28 650.902 154.078 662.974 150.417L655.438 144.456Z" fill="url(#paint8_linear_462_6584)"/>
<path fill-rule="evenodd" clip-rule="evenodd" d="M529.857 130.93C529.857 130.93 525.618 140.377 520.594 142.696C520.594 142.696 538.003 144.892 550.79 136.821L529.857 130.93Z" fill="url(#paint9_linear_462_6584)"/>
<path fill-rule="evenodd" clip-rule="evenodd" d="M1102.1 168.424V180.904C1102.1 180.904 1095.46 180.782 1087.1 180.73C1078.75 180.695 1068.44 178.795 1068.44 178.795L1050.77 168.424C1050.77 168.424 1081.4 169.731 1090.64 169.261C1099.91 168.807 1102.1 168.424 1102.1 168.424Z" fill="url(#paint10_linear_462_6584)"/>
<path fill-rule="evenodd" clip-rule="evenodd" d="M1050.77 168.424C1050.77 168.424 1081.54 158.471 1088.52 158.349C1095.49 158.227 1102.1 168.424 1102.1 168.424C1102.1 168.424 1098.27 171.614 1088.52 171.527C1078.75 171.439 1050.77 168.424 1050.77 168.424Z" fill="#723EA9"/>
<path fill-rule="evenodd" clip-rule="evenodd" d="M1144.72 227.637L1126.42 227.079C1126.42 227.079 1065.3 222.007 1061.44 221.798C1057.59 221.606 974.759 206.842 974.759 206.842C974.759 206.842 912.57 206.057 903.987 205.726C895.387 205.395 787.563 193.734 782.382 194.135C777.201 194.535 668.348 188.33 668.348 188.33C668.348 188.33 746.446 194.623 753.511 195.146C760.576 195.669 876.582 205.238 885.845 205.238C895.108 205.238 977.393 213.1 977.393 213.1C977.393 213.1 1056.45 231.977 1061.7 231.977C1066.95 231.977 1125.46 229.397 1125.46 229.397L1144.72 227.637Z" fill="white"/>
<path fill-rule="evenodd" clip-rule="evenodd" d="M1213.05 231.995C1213.05 231.995 1269.03 231.332 1275.25 231.995C1281.48 232.657 1310.23 237.817 1310.23 237.817L1213.05 231.995Z" fill="white"/>
<path fill-rule="evenodd" clip-rule="evenodd" d="M78.569 143.323C78.569 143.323 106.649 87.752 107.748 79.2229C108.87 70.7157 113.224 24.8166 113.224 24.8166C113.224 24.8166 139.72 25.2343 150.825 32.1367C161.951 39.0392 167.448 58.0979 167.448 58.0979C167.448 58.0979 177.278 90.5218 175.277 93.4015C173.298 96.2812 167.448 100.26 167.448 100.26C167.448 100.26 180.796 149.478 183.171 158.425C185.523 167.372 223.213 190.695 223.213 190.695C223.213 190.695 256.636 175.154 259.978 166.251C263.32 157.348 261.451 155.15 261.451 155.15C261.451 155.15 257.977 143.807 257.977 139.784C257.977 135.761 308.42 137.234 308.42 137.234C308.42 137.234 339.974 150.094 343.294 159.041C346.637 167.988 338.853 172.208 338.853 172.208C338.853 172.208 383.666 168.427 394.595 172.208L406.359 181.814L475.536 190.036C475.536 190.036 480.77 162.646 487.19 159.898C494.974 156.557 548.847 190.717 548.847 190.717C548.847 190.717 575.894 232.638 584.03 235.979C592.166 239.32 614.704 241.804 623.434 239.32C632.164 236.814 658.001 228.483 668.006 232.66C678.011 236.814 723 260.907 723 260.907H78.569H0L22.3992 207.105L32.7374 195.733C32.7374 195.733 38.9396 171.765 43.0755 165.752C47.2113 159.74 78.569 143.323 78.569 143.323Z" fill="url(#paint11_linear_462_6584)"/>
<path fill-rule="evenodd" clip-rule="evenodd" d="M113.223 24.8376C113.223 24.8376 120.523 53.2828 126.35 67.1536C132.177 81.0245 139.257 85.1792 139.257 85.1792L150.824 82.2555C150.824 82.2555 158.014 91.642 160.939 93.4006C163.863 95.1592 175.275 93.4006 175.275 93.4006C175.275 93.4006 173.428 69.3299 168.437 51.4363L165.095 44.358C165.095 44.358 154.034 31.0366 150.824 27.0798C147.613 23.123 113.223 24.8376 113.223 24.8376Z" fill="#24114A"/>
<path fill-rule="evenodd" clip-rule="evenodd" d="M183.175 158.424L169.695 154.731C169.695 154.731 172.752 171.393 176.424 174.713C180.096 178.054 187.177 185.132 187.177 185.132V180.978C187.177 180.978 193.004 184.737 198.435 188.056C203.844 191.397 216.708 193.881 216.708 193.881H227.614L223.216 190.694C223.216 190.694 187.067 162.117 183.175 158.424Z" fill="#24114A"/>
<path fill-rule="evenodd" clip-rule="evenodd" d="M57.8942 155.069L46.068 162.873C46.068 162.873 54.4311 175.308 59.0428 177.107C63.6623 178.926 72.7951 183.028 72.7951 183.028L77.7866 184.259C77.7866 184.259 83.5863 186.328 87.6541 182.093C94.6809 177.689 88.6146 171.038 88.6146 171.038C88.6146 171.038 85.4624 166.786 82.7056 164.029C79.9487 161.272 73.7459 157.481 73.7459 157.481C73.7459 157.481 66.235 153.847 57.8942 155.069Z" fill="#24114A"/>
<path fill-rule="evenodd" clip-rule="evenodd" d="M344.022 161.723V161.899C340.02 166.164 326.761 166.801 326.761 166.801L313.853 164.713L299.274 166.801C299.274 166.801 273.855 158.052 269.699 154.733C266.203 151.941 260.332 143.346 258.507 140.62C258.155 140.093 257.957 139.785 257.957 139.785C265.411 132.729 310.423 138.07 310.423 138.07C333.753 145.017 340.899 153.326 343.054 158.074C343.076 158.118 343.098 158.14 343.098 158.14C343.934 159.965 344.022 161.262 344.022 161.723Z" fill="#24114A"/>
<path fill-rule="evenodd" clip-rule="evenodd" d="M338.854 172.207L315.523 183.901C315.523 183.901 344.197 182.648 353.806 181.813C363.437 180.978 368.011 178.054 368.011 178.054L377.598 174.317L394.574 172.207C394.574 172.207 367.176 165.502 338.854 172.207Z" fill="#24114A"/>
<path fill-rule="evenodd" clip-rule="evenodd" d="M407.173 183.88L394.574 186.386L365.922 191.376C365.922 191.376 402.929 202.631 416.717 205.115L426.744 201.356C426.744 201.356 445.918 206.346 470.48 209.269C495.063 212.193 525.474 209.269 525.474 209.269C525.474 209.269 497.35 192.585 475.493 189.991C475.515 190.013 425.094 182.627 407.173 183.88Z" fill="#24114A"/>
<path fill-rule="evenodd" clip-rule="evenodd" d="M487.168 159.875C487.168 159.875 483.144 170.91 484.749 176.56C486.332 182.231 507.596 197.641 521.757 200.125C535.918 202.631 548.847 190.694 548.847 190.694C548.847 190.694 506.342 159.172 487.168 159.875Z" fill="#24114A"/>
<path fill-rule="evenodd" clip-rule="evenodd" d="M623.434 239.276C623.434 239.276 629.657 244.354 657.165 252.597C684.673 260.862 711.499 254.751 711.499 254.751C711.499 254.751 677.702 230.79 663.937 231.648C650.194 232.505 623.434 239.276 623.434 239.276Z" fill="#24114A"/>
<path fill-rule="evenodd" clip-rule="evenodd" d="M482.969 240.946C482.969 240.946 509.664 236.792 525.496 240.946C541.328 245.101 584.009 252.619 584.009 252.619C584.009 252.619 480.353 256.774 450.008 252.619C450.03 252.619 467.929 242.485 482.969 240.946Z" fill="#24114A"/>
<path fill-rule="evenodd" clip-rule="evenodd" d="M1967.97 159.081C1967.97 159.081 1962.86 154.716 1961.91 147.331C1960.94 139.965 1959.68 131.683 1956.77 122.362C1953.85 113.04 1934.23 100.585 1924.61 106.562C1914.98 112.538 1910.22 129.04 1910.22 129.04C1910.22 129.04 1896.96 130.046 1895.34 134.229C1895.34 134.229 1879.46 164.41 1877.4 172.157C1875.37 179.904 1842.73 200.098 1842.73 200.098C1842.73 200.098 1813.79 186.641 1810.9 178.933C1808.01 171.224 1809.62 169.321 1809.62 169.321C1809.62 169.321 1812.63 159.5 1812.63 156.017C1812.63 152.534 1768.96 153.809 1768.96 153.809C1768.96 153.809 1741.64 164.943 1738.76 172.69C1735.87 180.436 1742.61 184.091 1742.61 184.091C1742.61 184.091 1703.81 180.817 1694.34 184.091L1684.16 192.408L1624.26 199.527C1624.26 199.527 1619.73 175.811 1614.17 173.432C1607.43 170.539 1560.78 200.117 1560.78 200.117C1560.78 200.117 1537.37 236.413 1530.32 239.306C1523.28 242.199 1503.76 244.35 1496.2 242.199C1488.65 240.03 1466.28 232.816 1457.61 236.432C1448.95 240.03 1410 260.89 1410 260.89H1967.97H2036L2016.61 214.306L2007.65 204.459C2007.65 204.459 2002.28 183.707 1998.7 178.501C1995.12 173.295 1967.97 159.081 1967.97 159.081Z" fill="url(#paint12_linear_462_6584)"/>
<path fill-rule="evenodd" clip-rule="evenodd" d="M1927.19 105.025C1924.69 105.196 1920.75 107.8 1917.69 111.524C1913.37 116.765 1910.19 125.695 1911.18 127.024C1912.67 132.347 1922.56 132.085 1933.69 125.695C1942.69 120.525 1944.69 113.525 1943.19 111.525C1941.69 109.525 1933.19 104.611 1927.19 105.025Z" fill="#24114A"/>
<path fill-rule="evenodd" clip-rule="evenodd" d="M1877.4 172.158L1889.07 168.96C1889.07 168.96 1886.43 183.387 1883.25 186.261C1880.07 189.154 1873.94 195.283 1873.94 195.283V191.686C1873.94 191.686 1868.89 194.94 1864.19 197.814C1859.51 200.707 1848.37 202.858 1848.37 202.858H1838.93L1842.73 200.098C1842.73 200.098 1874.03 175.355 1877.4 172.158Z" fill="#24114A"/>
<path fill-rule="evenodd" clip-rule="evenodd" d="M1985.87 169.251L1996.11 176.008C1996.11 176.008 1988.87 186.775 1984.88 188.332C1980.88 189.908 1972.97 193.459 1972.97 193.459L1968.65 194.525C1968.65 194.525 1963.63 196.316 1960.1 192.65C1954.02 188.836 1959.27 183.077 1959.27 183.077C1959.27 183.077 1962 179.396 1964.39 177.009C1966.78 174.622 1972.15 171.34 1972.15 171.34C1972.15 171.34 1978.65 168.193 1985.87 169.251Z" fill="#24114A"/>
<path fill-rule="evenodd" clip-rule="evenodd" d="M1738.13 175.012V175.164C1741.59 178.856 1753.08 179.408 1753.08 179.408L1764.25 177.6L1776.87 179.408C1776.87 179.408 1798.88 171.833 1802.48 168.959C1805.51 166.542 1810.59 159.1 1812.17 156.74C1812.48 156.283 1812.65 156.017 1812.65 156.017C1806.19 149.907 1767.22 154.532 1767.22 154.532C1747.02 160.546 1740.83 167.741 1738.97 171.852C1738.95 171.89 1738.93 171.909 1738.93 171.909C1738.21 173.489 1738.13 174.612 1738.13 175.012Z" fill="#24114A"/>
<path fill-rule="evenodd" clip-rule="evenodd" d="M1742.6 184.092L1762.8 194.217C1762.8 194.217 1737.98 193.133 1729.66 192.409C1721.32 191.686 1717.36 189.155 1717.36 189.155L1709.06 185.919L1694.36 184.092C1694.36 184.092 1718.08 178.287 1742.6 184.092Z" fill="#24114A"/>
<path fill-rule="evenodd" clip-rule="evenodd" d="M1683.45 194.198L1694.36 196.368L1719.17 200.688C1719.17 200.688 1687.13 210.434 1675.19 212.584L1666.51 209.33C1666.51 209.33 1649.91 213.65 1628.64 216.182C1607.36 218.713 1581.02 216.182 1581.02 216.182C1581.02 216.182 1605.38 201.735 1624.3 199.489C1624.28 199.508 1667.94 193.113 1683.45 194.198Z" fill="#24114A"/>
<path fill-rule="evenodd" clip-rule="evenodd" d="M1614.19 173.413C1614.19 173.413 1617.68 182.968 1616.29 187.86C1614.92 192.77 1596.5 206.112 1584.24 208.263C1571.98 210.433 1560.79 200.098 1560.79 200.098C1560.79 200.098 1597.59 172.804 1614.19 173.413Z" fill="#24114A"/>
<path fill-rule="evenodd" clip-rule="evenodd" d="M1496.2 242.161C1496.2 242.161 1490.82 246.558 1467 253.695C1443.18 260.852 1419.95 255.561 1419.95 255.561C1419.95 255.561 1449.21 234.814 1461.13 235.557C1473.03 236.299 1496.2 242.161 1496.2 242.161Z" fill="#24114A"/>
<path fill-rule="evenodd" clip-rule="evenodd" d="M1617.83 243.608C1617.83 243.608 1594.71 240.01 1581.01 243.608C1567.3 247.205 1530.34 253.714 1530.34 253.714C1530.34 253.714 1620.09 257.312 1646.37 253.714C1646.35 253.714 1630.85 244.94 1617.83 243.608Z" fill="#24114A"/>
<g filter="url(#filter0_d_462_6584)">
<path fill-rule="evenodd" clip-rule="evenodd" d="M1003.99 12.0027C1005.28 12.0642 1006.29 13.191 1006.22 14.4817C1006.16 15.7724 1005.03 16.7763 1003.74 16.7149C1002.45 16.6534 1001.45 15.5266 1001.51 14.2359C1001.59 12.9247 1002.7 11.9413 1003.99 12.0027Z" fill="white"/>
<path fill-rule="evenodd" clip-rule="evenodd" d="M986.344 90.5878C987.267 90.6288 987.964 91.4278 987.923 92.3498C987.882 93.2717 987.082 93.9683 986.159 93.9273C985.236 93.8863 984.539 93.0873 984.58 92.1859C984.621 91.2434 985.421 90.5469 986.344 90.5878Z" fill="white"/>
<path fill-rule="evenodd" clip-rule="evenodd" d="M966.119 102.1C966.796 102.141 967.309 102.715 967.268 103.391C967.227 104.067 966.652 104.579 965.975 104.538C965.298 104.497 964.785 103.924 964.827 103.248C964.868 102.571 965.442 102.059 966.119 102.1Z" fill="white"/>
<path fill-rule="evenodd" clip-rule="evenodd" d="M994.47 51.1114C994.901 51.1318 995.229 51.5006 995.208 51.9309C995.188 52.3611 994.819 52.6889 994.388 52.6684C993.957 52.6479 993.629 52.2792 993.649 51.8489C993.67 51.4187 994.039 51.0909 994.47 51.1114Z" fill="white"/>
<path fill-rule="evenodd" clip-rule="evenodd" d="M985.278 95.7712C985.709 95.7917 986.037 96.1605 986.017 96.5907C985.996 97.021 985.627 97.3488 985.196 97.3283C984.766 97.3078 984.437 96.939 984.458 96.5088C984.478 96.0785 984.848 95.7507 985.278 95.7712Z" fill="white"/>
<path fill-rule="evenodd" clip-rule="evenodd" d="M1003.74 95.9753C1004.17 95.9958 1004.5 96.3646 1004.48 96.7948C1004.46 97.225 1004.09 97.5528 1003.66 97.5324C1003.23 97.5119 1002.9 97.1431 1002.92 96.7129C1002.92 96.2826 1003.29 95.9548 1003.74 95.9753Z" fill="white"/>
<path fill-rule="evenodd" clip-rule="evenodd" d="M999.556 85.6703C999.987 85.6907 1000.31 86.0595 1000.29 86.4898C1000.27 86.92 999.905 87.2478 999.474 87.2273C999.043 87.2068 998.715 86.8381 998.735 86.4078C998.756 85.9776 999.125 85.6498 999.556 85.6703Z" fill="white"/>
<path fill-rule="evenodd" clip-rule="evenodd" d="M987.185 82.106C987.411 82.1265 987.575 82.3109 987.555 82.5158C987.534 82.7411 987.35 82.905 987.144 82.8846C986.919 82.8641 986.755 82.6797 986.775 82.4748C986.775 82.2494 986.96 82.0855 987.185 82.106Z" fill="white"/>
<path fill-rule="evenodd" clip-rule="evenodd" d="M979.045 130.597C979.27 130.617 979.435 130.802 979.414 131.007C979.394 131.212 979.209 131.396 979.004 131.375C978.778 131.355 978.614 131.171 978.635 130.966C978.635 130.761 978.819 130.597 979.045 130.597Z" fill="white"/>
<path fill-rule="evenodd" clip-rule="evenodd" d="M993.279 88.3138C993.505 88.3343 993.669 88.5187 993.648 88.7236C993.628 88.9489 993.443 89.1128 993.238 89.0923C993.013 89.0719 992.848 88.8875 992.869 88.6826C992.869 88.4777 993.054 88.3138 993.279 88.3138Z" fill="white"/>
<path fill-rule="evenodd" clip-rule="evenodd" d="M980.704 84.6666C981.135 84.687 981.463 85.0558 981.443 85.4861C981.422 85.9163 981.053 86.2441 980.622 86.2236C980.191 86.2031 979.863 85.8343 979.884 85.4041C979.904 84.9739 980.273 84.6461 980.704 84.6666Z" fill="white"/>
<path fill-rule="evenodd" clip-rule="evenodd" d="M1262.61 170.565C1263.91 170.627 1264.91 171.754 1264.85 173.044C1264.79 174.335 1263.66 175.339 1262.37 175.278C1261.08 175.216 1260.07 174.089 1260.13 172.799C1260.21 171.487 1261.32 170.504 1262.61 170.565Z" fill="white"/>
<path fill-rule="evenodd" clip-rule="evenodd" d="M1245.36 206.723C1246.29 206.764 1246.98 207.563 1246.94 208.485C1246.9 209.407 1246.1 210.103 1245.18 210.062C1244.26 210.021 1243.56 209.222 1243.6 208.301C1243.66 207.379 1244.44 206.662 1245.36 206.723Z" fill="white"/>
<path fill-rule="evenodd" clip-rule="evenodd" d="M1225.16 218.216C1225.83 218.257 1226.35 218.831 1226.31 219.507C1226.27 220.183 1225.69 220.695 1225.01 220.654C1224.34 220.613 1223.82 220.04 1223.87 219.363C1223.91 218.708 1224.48 218.196 1225.16 218.216Z" fill="white"/>
<path fill-rule="evenodd" clip-rule="evenodd" d="M1253.51 167.247C1253.94 167.268 1254.26 167.637 1254.24 168.067C1254.22 168.497 1253.85 168.825 1253.42 168.805C1252.99 168.784 1252.66 168.415 1252.68 167.985C1252.71 167.555 1253.07 167.227 1253.51 167.247Z" fill="white"/>
<path fill-rule="evenodd" clip-rule="evenodd" d="M1244.29 211.905C1244.72 211.926 1245.05 212.295 1245.03 212.725C1245.01 213.155 1244.64 213.483 1244.21 213.462C1243.78 213.442 1243.45 213.073 1243.47 212.643C1243.49 212.213 1243.86 211.885 1244.29 211.905Z" fill="white"/>
<path fill-rule="evenodd" clip-rule="evenodd" d="M1262.76 212.091C1263.19 212.111 1263.52 212.48 1263.5 212.91C1263.48 213.341 1263.11 213.668 1262.68 213.648C1262.25 213.627 1261.92 213.259 1261.94 212.828C1261.96 212.419 1262.33 212.07 1262.76 212.091Z" fill="white"/>
<path fill-rule="evenodd" clip-rule="evenodd" d="M1258.59 201.806C1259.03 201.826 1259.35 202.195 1259.33 202.625C1259.31 203.056 1258.94 203.384 1258.51 203.363C1258.08 203.343 1257.75 202.974 1257.77 202.544C1257.77 202.113 1258.16 201.765 1258.59 201.806Z" fill="white"/>
<path fill-rule="evenodd" clip-rule="evenodd" d="M1246.2 198.221C1246.43 198.242 1246.59 198.426 1246.57 198.631C1246.55 198.857 1246.37 199.02 1246.16 199C1245.94 198.98 1245.77 198.795 1245.79 198.59C1245.82 198.385 1246 198.201 1246.2 198.221Z" fill="white"/>
<path fill-rule="evenodd" clip-rule="evenodd" d="M1252.29 204.45C1252.52 204.47 1252.68 204.655 1252.66 204.859C1252.64 205.085 1252.46 205.249 1252.25 205.228C1252.03 205.208 1251.86 205.023 1251.88 204.818C1251.91 204.593 1252.09 204.429 1252.29 204.45Z" fill="white"/>
<path fill-rule="evenodd" clip-rule="evenodd" d="M1239.74 200.803C1240.17 200.824 1240.5 201.192 1240.48 201.623C1240.46 202.053 1240.09 202.381 1239.66 202.36C1239.23 202.34 1238.9 201.971 1238.92 201.541C1238.92 201.11 1239.31 200.762 1239.74 200.803Z" fill="white"/>
<path fill-rule="evenodd" clip-rule="evenodd" d="M977.997 120.62C978.428 120.641 978.756 121.01 978.736 121.44C978.715 121.87 978.346 122.198 977.915 122.177C977.485 122.157 977.156 121.788 977.177 121.358C977.197 120.928 977.567 120.579 977.997 120.62Z" fill="white"/>
<path fill-rule="evenodd" clip-rule="evenodd" d="M940.294 128.937C940.725 128.957 941.053 129.326 941.033 129.756C941.012 130.187 940.643 130.514 940.212 130.494C939.781 130.473 939.453 130.105 939.474 129.674C939.494 129.244 939.863 128.916 940.294 128.937Z" fill="white"/>
<path fill-rule="evenodd" clip-rule="evenodd" d="M1034.14 152.62C1035.43 152.681 1036.44 153.808 1036.38 155.099C1036.32 156.389 1035.19 157.393 1033.89 157.332C1032.6 157.27 1031.6 156.143 1031.66 154.853C1031.72 153.541 1032.83 152.558 1034.14 152.62Z" fill="white"/>
<path fill-rule="evenodd" clip-rule="evenodd" d="M1289.02 180.501C1290.31 180.563 1291.31 181.69 1291.25 182.98C1291.19 184.271 1290.06 185.275 1288.77 185.213C1287.48 185.152 1286.47 184.025 1286.53 182.734C1286.62 181.423 1287.72 180.419 1289.02 180.501Z" fill="white"/>
<path fill-rule="evenodd" clip-rule="evenodd" d="M1091.48 165.3C1092.77 165.362 1093.77 166.488 1093.71 167.779C1093.65 169.07 1092.52 170.074 1091.23 170.012C1089.94 169.951 1088.93 168.824 1088.99 167.533C1089.06 166.243 1090.18 165.239 1091.48 165.3Z" fill="white"/>
<path fill-rule="evenodd" clip-rule="evenodd" d="M1254.37 194.37C1255.66 194.432 1256.67 195.559 1256.6 196.849C1256.54 198.14 1255.41 199.144 1254.12 199.082C1252.83 199.021 1251.82 197.894 1251.89 196.603C1251.97 195.313 1253.08 194.309 1254.37 194.37Z" fill="white"/>
<path fill-rule="evenodd" clip-rule="evenodd" d="M989.465 152.598C990.758 152.659 991.763 153.786 991.701 155.077C991.64 156.368 990.511 157.372 989.219 157.31C987.927 157.249 986.922 156.122 986.983 154.831C987.065 153.52 988.173 152.537 989.465 152.598Z" fill="white"/>
<path fill-rule="evenodd" clip-rule="evenodd" d="M976.11 174.396C977.402 174.458 978.407 175.585 978.346 176.875C978.284 178.166 977.156 179.17 975.864 179.108C974.571 179.047 973.566 177.92 973.628 176.629C973.689 175.318 974.817 174.335 976.11 174.396Z" fill="white"/>
<path fill-rule="evenodd" clip-rule="evenodd" d="M1045.44 122.484C1046.36 122.525 1047.06 123.324 1047.02 124.246C1046.98 125.168 1046.18 125.864 1045.26 125.823C1044.33 125.782 1043.64 124.983 1043.68 124.062C1043.72 123.14 1044.52 122.443 1045.44 122.484Z" fill="white"/>
<path fill-rule="evenodd" clip-rule="evenodd" d="M1139.72 162.617C1140.64 162.658 1141.34 163.457 1141.3 164.379C1141.26 165.301 1140.46 165.997 1139.53 165.956C1138.61 165.915 1137.91 165.116 1137.95 164.194C1138.02 163.272 1138.8 162.576 1139.72 162.617Z" fill="white"/>
<path fill-rule="evenodd" clip-rule="evenodd" d="M1121.16 161.346C1122.08 161.387 1122.78 162.186 1122.74 163.108C1122.69 164.03 1121.89 164.727 1120.97 164.686C1120.05 164.645 1119.35 163.846 1119.39 162.924C1119.43 162.002 1120.23 161.305 1121.16 161.346Z" fill="white"/>
<path fill-rule="evenodd" clip-rule="evenodd" d="M1016.89 188.756C1017.81 188.797 1018.51 189.596 1018.47 190.518C1018.43 191.44 1017.63 192.137 1016.71 192.096C1015.78 192.055 1015.09 191.256 1015.13 190.334C1015.19 189.433 1015.97 188.715 1016.89 188.756Z" fill="white"/>
<path fill-rule="evenodd" clip-rule="evenodd" d="M997.34 104.067C998.263 104.108 998.961 104.907 998.92 105.829C998.879 106.751 998.079 107.448 997.155 107.407C996.232 107.366 995.535 106.567 995.576 105.665C995.637 104.723 996.417 104.006 997.34 104.067Z" fill="white"/>
<path fill-rule="evenodd" clip-rule="evenodd" d="M977.279 167.779C977.956 167.82 978.469 168.394 978.428 169.07C978.387 169.746 977.812 170.258 977.135 170.217C976.458 170.176 975.946 169.602 975.987 168.926C976.028 168.25 976.602 167.738 977.279 167.779Z" fill="white"/>
<path fill-rule="evenodd" clip-rule="evenodd" d="M896.295 144.979C896.972 145.02 897.484 145.594 897.443 146.27C897.402 146.946 896.828 147.458 896.151 147.417C895.474 147.376 894.961 146.802 895.002 146.126C895.043 145.471 895.618 144.938 896.295 144.979Z" fill="white"/>
<path fill-rule="evenodd" clip-rule="evenodd" d="M1025.01 149.301C1025.44 149.321 1025.77 149.69 1025.75 150.12C1025.73 150.551 1025.36 150.879 1024.93 150.858C1024.5 150.838 1024.17 150.469 1024.19 150.039C1024.21 149.608 1024.58 149.26 1025.01 149.301Z" fill="white"/>
<path fill-rule="evenodd" clip-rule="evenodd" d="M1015.83 193.96C1016.26 193.981 1016.58 194.35 1016.56 194.78C1016.54 195.21 1016.17 195.538 1015.74 195.517C1015.31 195.497 1014.98 195.128 1015 194.698C1015.03 194.268 1015.39 193.94 1015.83 193.96Z" fill="white"/>
<path fill-rule="evenodd" clip-rule="evenodd" d="M981.978 171.569C982.408 171.59 982.737 171.959 982.716 172.389C982.696 172.819 982.326 173.147 981.896 173.126C981.465 173.106 981.137 172.737 981.157 172.307C981.178 171.877 981.547 171.549 981.978 171.569Z" fill="white"/>
<path fill-rule="evenodd" clip-rule="evenodd" d="M1034.29 194.145C1034.72 194.165 1035.05 194.534 1035.02 194.964C1035 195.395 1034.63 195.722 1034.2 195.702C1033.77 195.681 1033.45 195.313 1033.47 194.882C1033.49 194.473 1033.86 194.124 1034.29 194.145Z" fill="white"/>
<path fill-rule="evenodd" clip-rule="evenodd" d="M1030.1 183.861C1030.53 183.881 1030.86 184.25 1030.84 184.68C1030.82 185.111 1030.45 185.439 1030.02 185.418C1029.59 185.398 1029.26 185.029 1029.28 184.599C1029.3 184.168 1029.67 183.82 1030.1 183.861Z" fill="white"/>
<path fill-rule="evenodd" clip-rule="evenodd" d="M974.716 139.63C975.147 139.651 975.475 140.02 975.454 140.45C975.434 140.88 975.065 141.208 974.634 141.187C974.203 141.167 973.875 140.798 973.895 140.368C973.916 139.938 974.285 139.61 974.716 139.63Z" fill="white"/>
<path fill-rule="evenodd" clip-rule="evenodd" d="M1017.73 180.276C1017.96 180.296 1018.12 180.48 1018.1 180.685C1018.08 180.911 1017.9 181.075 1017.69 181.054C1017.47 181.034 1017.3 180.849 1017.32 180.644C1017.32 180.439 1017.53 180.255 1017.73 180.276Z" fill="white"/>
<path fill-rule="evenodd" clip-rule="evenodd" d="M966.756 142.685C966.981 142.705 967.145 142.89 967.125 143.094C967.104 143.32 966.92 143.484 966.715 143.463C966.489 143.443 966.325 143.258 966.345 143.053C966.366 142.828 966.551 142.664 966.756 142.685Z" fill="white"/>
<path fill-rule="evenodd" clip-rule="evenodd" d="M979.33 145.88C979.555 145.9 979.719 146.084 979.699 146.289C979.678 146.515 979.494 146.679 979.289 146.658C979.063 146.638 978.899 146.453 978.919 146.248C978.919 146.043 979.104 145.859 979.33 145.88Z" fill="white"/>
<path fill-rule="evenodd" clip-rule="evenodd" d="M976.439 172.799C976.665 172.819 976.829 173.003 976.809 173.208C976.788 173.434 976.603 173.598 976.398 173.577C976.173 173.557 976.009 173.372 976.029 173.167C976.05 172.962 976.234 172.778 976.439 172.799Z" fill="white"/>
<path fill-rule="evenodd" clip-rule="evenodd" d="M1023.82 186.503C1024.05 186.523 1024.21 186.708 1024.19 186.913C1024.17 187.138 1023.99 187.302 1023.78 187.281C1023.58 187.261 1023.39 187.076 1023.41 186.872C1023.41 186.646 1023.6 186.482 1023.82 186.503Z" fill="white"/>
<path fill-rule="evenodd" clip-rule="evenodd" d="M1033.65 131.559C1034.7 131.621 1035.5 132.502 1035.43 133.547C1035.37 134.591 1034.49 135.39 1033.44 135.329C1032.4 135.268 1031.6 134.387 1031.66 133.342C1031.72 132.297 1032.6 131.518 1033.65 131.559Z" fill="white"/>
<path fill-rule="evenodd" clip-rule="evenodd" d="M1079.5 141.7C1080.54 141.762 1081.34 142.643 1081.28 143.687C1081.22 144.732 1080.34 145.531 1079.29 145.47C1078.25 145.408 1077.45 144.527 1077.51 143.483C1077.57 142.458 1078.45 141.659 1079.5 141.7Z" fill="white"/>
<path fill-rule="evenodd" clip-rule="evenodd" d="M1042.69 107.488C1043.43 107.529 1043.99 108.164 1043.95 108.882C1043.9 109.619 1043.27 110.172 1042.55 110.131C1041.81 110.09 1041.26 109.455 1041.3 108.738C1041.32 108.001 1041.96 107.447 1042.69 107.488Z" fill="white"/>
<path fill-rule="evenodd" clip-rule="evenodd" d="M1118.06 139.549C1118.8 139.59 1119.35 140.226 1119.31 140.943C1119.27 141.68 1118.63 142.233 1117.91 142.192C1117.18 142.151 1116.62 141.516 1116.66 140.799C1116.68 140.082 1117.32 139.509 1118.06 139.549Z" fill="white"/>
<path fill-rule="evenodd" clip-rule="evenodd" d="M1103.21 138.545C1103.95 138.586 1104.5 139.221 1104.46 139.938C1104.42 140.675 1103.78 141.229 1103.07 141.188C1102.33 141.147 1101.77 140.511 1101.81 139.794C1101.86 139.077 1102.47 138.504 1103.21 138.545Z" fill="white"/>
<path fill-rule="evenodd" clip-rule="evenodd" d="M1019.87 160.465C1020.6 160.506 1021.16 161.141 1021.12 161.858C1021.08 162.596 1020.44 163.149 1019.72 163.108C1018.98 163.067 1018.43 162.432 1018.47 161.715C1018.49 160.977 1019.13 160.424 1019.87 160.465Z" fill="white"/>
<path fill-rule="evenodd" clip-rule="evenodd" d="M1026.37 128.896C1026.72 128.916 1026.98 129.203 1026.96 129.551C1026.94 129.9 1026.66 130.166 1026.31 130.146C1025.96 130.125 1025.69 129.838 1025.71 129.49C1025.71 129.162 1026.02 128.896 1026.37 128.896Z" fill="white"/>
<path fill-rule="evenodd" clip-rule="evenodd" d="M1019 164.604C1019.35 164.625 1019.62 164.912 1019.6 165.26C1019.58 165.608 1019.29 165.875 1018.94 165.854C1018.59 165.834 1018.32 165.547 1018.34 165.198C1018.37 164.85 1018.65 164.584 1019 164.604Z" fill="white"/>
<path fill-rule="evenodd" clip-rule="evenodd" d="M1033.77 164.767C1034.12 164.788 1034.39 165.075 1034.37 165.423C1034.35 165.771 1034.06 166.038 1033.71 166.017C1033.36 165.997 1033.09 165.71 1033.11 165.362C1033.11 165.013 1033.42 164.747 1033.77 164.767Z" fill="white"/>
<path fill-rule="evenodd" clip-rule="evenodd" d="M1030.43 156.532C1030.78 156.552 1031.04 156.839 1031.02 157.187C1031 157.536 1030.71 157.802 1030.37 157.781C1030.02 157.761 1029.75 157.474 1029.77 157.126C1029.79 156.778 1030.08 156.511 1030.43 156.532Z" fill="white"/>
<path fill-rule="evenodd" clip-rule="evenodd" d="M1020.54 153.685C1020.71 153.685 1020.85 153.849 1020.83 154.013C1020.83 154.177 1020.66 154.32 1020.5 154.3C1020.34 154.3 1020.19 154.136 1020.21 153.972C1020.21 153.808 1020.36 153.665 1020.54 153.685Z" fill="white"/>
<path fill-rule="evenodd" clip-rule="evenodd" d="M1025.4 158.643C1025.57 158.643 1025.71 158.807 1025.69 158.971C1025.69 159.134 1025.53 159.278 1025.36 159.257C1025.2 159.257 1025.06 159.093 1025.08 158.93C1025.08 158.766 1025.22 158.643 1025.4 158.643Z" fill="white"/>
<path fill-rule="evenodd" clip-rule="evenodd" d="M979.064 166.959C979.29 166.98 979.454 167.164 979.434 167.369C979.413 167.595 979.228 167.758 979.023 167.738C978.798 167.718 978.634 167.533 978.654 167.328C978.675 167.123 978.839 166.959 979.064 166.959Z" fill="white"/>
<path fill-rule="evenodd" clip-rule="evenodd" d="M1011.25 182.837C1011.68 182.858 1012.01 183.226 1011.99 183.657C1011.97 184.087 1011.6 184.415 1011.17 184.394C1010.73 184.374 1010.41 184.005 1010.43 183.575C1010.45 183.165 1010.82 182.817 1011.25 182.837Z" fill="white"/>
<path fill-rule="evenodd" clip-rule="evenodd" d="M969.775 155.652C970.205 155.672 970.534 156.041 970.513 156.471C970.493 156.901 970.123 157.229 969.693 157.209C969.262 157.188 968.934 156.819 968.954 156.389C968.975 155.959 969.344 155.631 969.775 155.652Z" fill="white"/>
<path fill-rule="evenodd" clip-rule="evenodd" d="M976.15 163.928C976.58 163.949 976.909 164.318 976.888 164.748C976.868 165.178 976.498 165.506 976.068 165.485C975.637 165.465 975.309 165.096 975.329 164.666C975.35 164.236 975.719 163.908 976.15 163.928Z" fill="white"/>
<path fill-rule="evenodd" clip-rule="evenodd" d="M1311.76 198.488C1313.05 198.55 1314.06 199.677 1314 200.967C1313.94 202.258 1312.81 203.262 1311.52 203.2C1310.22 203.139 1309.22 202.012 1309.28 200.721C1309.34 199.41 1310.47 198.406 1311.76 198.488Z" fill="white"/>
<path fill-rule="evenodd" clip-rule="evenodd" d="M1298.41 220.286C1299.7 220.347 1300.71 221.474 1300.65 222.765C1300.58 224.055 1299.46 225.059 1298.16 224.998C1296.87 224.936 1295.87 223.809 1295.93 222.519C1295.99 221.207 1297.1 220.204 1298.41 220.286Z" fill="white"/>
<path fill-rule="evenodd" clip-rule="evenodd" d="M1299.58 213.668C1300.26 213.709 1300.77 214.283 1300.73 214.959C1300.69 215.635 1300.11 216.147 1299.44 216.106C1298.76 216.065 1298.25 215.492 1298.29 214.816C1298.33 214.14 1298.9 213.627 1299.58 213.668Z" fill="white"/>
<path fill-rule="evenodd" clip-rule="evenodd" d="M1304.27 217.458C1304.71 217.478 1305.03 217.847 1305.01 218.277C1304.99 218.707 1304.62 219.035 1304.19 219.015C1303.76 218.994 1303.43 218.626 1303.45 218.195C1303.47 217.765 1303.84 217.437 1304.27 217.458Z" fill="white"/>
<path fill-rule="evenodd" clip-rule="evenodd" d="M1301.61 191.768C1301.84 191.789 1302 191.973 1301.98 192.178C1301.96 192.403 1301.78 192.567 1301.57 192.547C1301.34 192.526 1301.18 192.342 1301.2 192.137C1301.22 191.911 1301.41 191.748 1301.61 191.768Z" fill="white"/>
<path fill-rule="evenodd" clip-rule="evenodd" d="M1298.74 218.687C1298.96 218.707 1299.13 218.892 1299.11 219.097C1299.08 219.322 1298.9 219.486 1298.7 219.465C1298.47 219.445 1298.31 219.261 1298.33 219.056C1298.33 218.83 1298.53 218.666 1298.74 218.687Z" fill="white"/>
<path fill-rule="evenodd" clip-rule="evenodd" d="M1301.37 212.849C1301.59 212.869 1301.75 213.054 1301.73 213.259C1301.71 213.484 1301.53 213.648 1301.32 213.627C1301.1 213.607 1300.93 213.422 1300.95 213.218C1300.95 213.013 1301.14 212.849 1301.37 212.849Z" fill="white"/>
<path fill-rule="evenodd" clip-rule="evenodd" d="M1292.07 201.54C1292.5 201.561 1292.83 201.929 1292.81 202.36C1292.79 202.79 1292.42 203.118 1291.99 203.097C1291.56 203.077 1291.23 202.708 1291.25 202.278C1291.27 201.847 1291.64 201.52 1292.07 201.54Z" fill="white"/>
<path fill-rule="evenodd" clip-rule="evenodd" d="M1298.45 209.796C1298.88 209.817 1299.21 210.185 1299.19 210.616C1299.17 211.046 1298.8 211.374 1298.37 211.353C1297.94 211.333 1297.61 210.964 1297.63 210.534C1297.65 210.124 1298.02 209.776 1298.45 209.796Z" fill="white"/>
<path fill-rule="evenodd" clip-rule="evenodd" d="M968.439 187.057C968.869 187.077 969.198 187.446 969.177 187.876C969.157 188.306 968.787 188.634 968.357 188.614C967.926 188.593 967.598 188.224 967.618 187.794C967.639 187.364 968.008 187.036 968.439 187.057Z" fill="white"/>
</g>
<defs>
<filter id="filter0_d_462_6584" x="883" y="0" width="443.001" height="237" filterUnits="userSpaceOnUse" color-interpolation-filters="sRGB">
<feFlood flood-opacity="0" result="BackgroundImageFix"/>
<feColorMatrix in="SourceAlpha" type="matrix" values="0 0 0 0 0 0 0 0 0 0 0 0 0 0 0 0 0 0 127 0" result="hardAlpha"/>
<feOffset/>
<feGaussianBlur stdDeviation="6"/>
<feComposite in2="hardAlpha" operator="out"/>
<feColorMatrix type="matrix" values="0 0 0 0 1 0 0 0 0 1 0 0 0 0 1 0 0 0 1 0"/>
<feBlend mode="normal" in2="BackgroundImageFix" result="effect1_dropShadow_462_6584"/>
<feBlend mode="normal" in="SourceGraphic" in2="effect1_dropShadow_462_6584" result="shape"/>
</filter>
<linearGradient id="paint0_linear_462_6584" x1="1191" y1="261" x2="1191" y2="112.64" gradientUnits="userSpaceOnUse">
<stop stop-color="#0E0420"/>
<stop offset="1" stop-color="#87369C"/>
</linearGradient>
<linearGradient id="paint1_linear_462_6584" x1="592.806" y1="249.733" x2="1384" y2="249" gradientUnits="userSpaceOnUse">
<stop stop-color="#6BD1FF"/>
<stop offset="1" stop-color="#5174FF"/>
</linearGradient>
<linearGradient id="paint2_linear_462_6584" x1="920.146" y1="246.144" x2="1254.37" y2="246.144" gradientUnits="userSpaceOnUse">
<stop stop-color="#4F2580"/>
<stop offset="1" stop-color="#200377"/>
</linearGradient>
<linearGradient id="paint3_linear_462_6584" x1="849.806" y1="197.793" x2="1138.02" y2="197.793" gradientUnits="userSpaceOnUse">
<stop stop-color="#6A40AE"/>
<stop offset="1" stop-color="#3D14A8"/>
</linearGradient>
<linearGradient id="paint4_linear_462_6584" x1="1048.36" y1="169.248" x2="1048.36" y2="125.603" gradientUnits="userSpaceOnUse">
<stop stop-color="#1B0245"/>
<stop offset="1" stop-color="#612597"/>
</linearGradient>
<linearGradient id="paint5_linear_462_6584" x1="1375.88" y1="213.189" x2="1375.88" y2="204.029" gradientUnits="userSpaceOnUse">
<stop stop-color="#4F2580"/>
<stop offset="1" stop-color="#200377"/>
</linearGradient>
<linearGradient id="paint6_linear_462_6584" x1="1211.32" y1="197.358" x2="1211.32" y2="183.253" gradientUnits="userSpaceOnUse">
<stop stop-color="#4F2580"/>
<stop offset="1" stop-color="#200377"/>
</linearGradient>
<linearGradient id="paint7_linear_462_6584" x1="740.732" y1="152.033" x2="813.059" y2="152.033" gradientUnits="userSpaceOnUse">
<stop stop-color="#4F2580"/>
<stop offset="1" stop-color="#200377"/>
</linearGradient>
<linearGradient id="paint8_linear_462_6584" x1="634.319" y1="147.984" x2="662.985" y2="147.984" gradientUnits="userSpaceOnUse">
<stop stop-color="#4F2580"/>
<stop offset="1" stop-color="#200377"/>
</linearGradient>
<linearGradient id="paint9_linear_462_6584" x1="520.602" y1="136.944" x2="550.79" y2="136.944" gradientUnits="userSpaceOnUse">
<stop stop-color="#4F2580"/>
<stop offset="1" stop-color="#200377"/>
</linearGradient>
<linearGradient id="paint10_linear_462_6584" x1="1059.5" y1="169.5" x2="1102" y2="172" gradientUnits="userSpaceOnUse">
<stop stop-color="#1B0245"/>
<stop offset="1" stop-color="#612597"/>
</linearGradient>
<linearGradient id="paint11_linear_462_6584" x1="400.776" y1="260.87" x2="400.776" y2="24.8388" gradientUnits="userSpaceOnUse">
<stop stop-color="#0D041F"/>
<stop offset="1" stop-color="#000027"/>
</linearGradient>
<linearGradient id="paint12_linear_462_6584" x1="1688.99" y1="260.857" x2="1688.99" y2="56.491" gradientUnits="userSpaceOnUse">
<stop stop-color="#0D041F"/>
<stop offset="1" stop-color="#000027"/>
</linearGradient>
</defs>
</svg>
