<svg width="124" height="28" viewBox="0 0 124 28" fill="none" xmlns="http://www.w3.org/2000/svg">
<path fill-rule="evenodd" clip-rule="evenodd" d="M43.8414 15.6722H43.8728C43.8728 16.4387 43.8721 17.2052 43.8714 17.9717C43.8695 20.052 43.8677 22.1325 43.8797 24.2138C43.8838 24.9121 43.717 25.4943 43.0378 25.7827C42.3517 26.0724 41.76 25.8661 41.2393 25.3495C40.5162 24.6324 39.7883 23.9202 39.0604 23.208C38.4537 22.6144 37.847 22.0208 37.2432 21.4244C36.579 20.7698 36.5735 20.5088 37.209 19.8241C37.4896 19.5227 37.7786 19.2293 38.0676 18.9359C38.274 18.7263 38.4804 18.5168 38.6836 18.3044C39.0403 17.9299 39.2754 17.5199 38.8613 17.0443C38.5538 16.6917 37.999 16.7587 37.5439 17.2111C37.2026 17.5502 36.8611 17.8891 36.5196 18.2279C35.0678 19.6683 33.616 21.1087 32.1866 22.5724C30.7899 24.0033 29.113 24.867 27.1354 25.0146C24.9939 25.1745 23.1011 24.4693 21.5103 23.0098C21.0743 22.6093 20.6561 22.1898 20.2448 21.7634C19.515 21.0062 19.5109 20.2368 20.2475 19.4865C22.3877 17.3108 24.532 15.1392 26.6831 12.9758C29.6214 10.0211 32.5638 7.06777 35.513 4.124C37.8076 1.83486 41.4552 2.21069 43.1526 4.95629C43.5202 5.55078 43.7936 6.30654 43.8113 6.9967C43.8642 9.108 43.8559 11.2208 43.8475 13.3334C43.8445 14.113 43.8414 14.8927 43.8414 15.6722ZM28.1391 6.73562C29.1477 7.72507 29.1586 8.48356 28.1705 9.46892C27.3801 10.2566 26.5891 11.0435 25.7982 11.8303C25.0082 12.6162 24.2184 13.4019 23.4296 14.188C20.0253 17.5773 16.6209 20.9666 13.2194 24.3572C11.6819 25.8906 9.64829 26.3799 7.76915 25.5749C5.73967 24.7057 4.72561 23.0876 4.69008 20.9092C4.65857 18.9839 4.66576 17.0587 4.67295 15.1331C4.67605 14.3029 4.67915 13.4727 4.67915 12.6423H4.67641C4.67641 12.0449 4.67628 11.4475 4.67614 10.8502C4.67567 8.75979 4.6752 6.66983 4.68051 4.57904C4.68051 4.28658 4.69691 3.97908 4.78438 3.70438C5.10554 2.69579 6.3328 2.3063 7.09539 3.03199C8.45791 4.32963 9.77923 5.67058 11.1002 7.01119C11.2818 7.19544 11.4633 7.37968 11.645 7.56381C12.0331 7.95877 11.9538 8.38243 11.5794 8.76919C11.3412 9.01472 11.1057 9.26239 10.8703 9.51002C10.5408 9.85645 10.2115 10.2028 9.87515 10.5431C9.49113 10.9312 9.41186 11.3385 9.81502 11.7335C10.2114 12.1202 10.6049 11.9644 10.9534 11.6214C11.5871 10.9958 12.2186 10.3681 12.85 9.7405C14.1565 8.44188 15.4628 7.14347 16.7877 5.86369C19.7506 3.00192 24.2168 2.99919 27.2098 5.82953C27.4501 6.0563 27.6857 6.28867 27.9213 6.52113C27.9939 6.59267 28.0664 6.66422 28.1391 6.73562Z" fill="url(#paint0_linear_274_513)"/>
<path d="M50.7477 9.14279C52.4608 9.14279 54.1016 9.14279 55.7695 9.14279C55.8201 9.48071 55.8617 9.77165 55.8798 9.89092C57.0092 9.61263 58.1205 9.21688 59.2608 9.094C60.542 8.95666 61.5594 9.63974 62.3184 10.7276C63.5092 9.67949 64.7236 8.93859 66.3319 9.04882C67.8643 9.15363 69.3027 10.0536 69.4093 11.5679C69.5882 14.1014 69.4581 16.6548 69.4581 19.2534C67.9058 19.2534 66.3536 19.2534 64.664 19.2534C64.664 18.5089 64.664 17.7698 64.664 17.0325C64.664 15.7386 64.6766 14.4429 64.6567 13.1491C64.6459 12.475 64.308 12.0974 63.5869 12.1028C62.8768 12.1064 62.687 12.4606 62.6997 13.1292C62.734 15.1405 62.7123 17.1535 62.7123 19.2353C61.0552 19.2353 59.4813 19.2353 57.7971 19.2353C57.7971 17.2692 57.8224 15.323 57.7754 13.3786C57.7664 12.9792 57.5893 12.4389 57.2983 12.222C56.646 11.7359 55.8563 12.2401 55.8509 13.075C55.8418 14.7899 55.8472 16.5066 55.8472 18.2215C55.8472 18.545 55.8472 18.8667 55.8472 19.2479C54.0962 19.2498 52.459 19.2498 50.7477 19.2498C50.7477 15.894 50.7477 12.569 50.7477 9.14279Z" fill="white"/>
<path d="M106.703 9.13377C108.483 9.13377 110.098 9.13377 111.771 9.13377C111.827 9.45904 111.882 9.76986 111.95 10.1728C112.155 10.068 112.339 10.0066 112.485 9.89274C113.564 9.06329 114.796 8.90427 116.081 9.13377C117.491 9.38676 118.553 10.368 118.624 11.7956C118.743 14.2514 118.656 16.7181 118.656 19.2425C117.07 19.2425 115.494 19.2425 113.822 19.2425C113.822 17.2602 113.855 15.3103 113.797 13.3641C113.784 12.9539 113.548 12.3757 113.23 12.1859C112.539 11.7775 111.88 12.269 111.874 13.0931C111.865 14.8694 111.835 16.6476 111.889 18.4221C111.911 19.163 111.652 19.3474 110.96 19.3202C109.758 19.2715 108.551 19.3329 107.349 19.2823C107.129 19.2733 106.735 18.9624 106.733 18.7853C106.692 15.6013 106.703 12.4136 106.703 9.13377Z" fill="white"/>
<path d="M99.5355 9.00181C101.581 8.897 103.341 9.64694 104.407 11.5805C105.392 13.3677 105.363 15.2326 104.31 16.9873C103.954 17.5818 103.379 18.0896 102.806 18.5016C100.896 19.8732 97.7068 19.7521 95.8617 18.301C94.0763 16.8969 93.4601 14.4935 94.295 12.1913C95.0467 10.115 96.8303 9.00543 99.5355 9.00181ZM99.5391 12.9756C98.8308 12.9575 98.3085 13.4002 98.2742 14.0526C98.2398 14.6887 98.7765 15.2326 99.4433 15.2416C100.188 15.2525 100.627 14.8369 100.62 14.1014C100.613 13.393 100.275 12.9864 99.5391 12.9756Z" fill="white"/>
<path d="M81.8468 14.8568C80.1626 14.8568 78.4676 14.8568 76.7509 14.8568C77.2225 16.7921 79.5663 17.1246 81.8739 15.632C82.0673 16.5843 81.9661 17.327 81.1963 18.039C78.885 20.175 72.9867 20.1009 71.5302 16.241C70.1352 12.5401 72.4301 9.094 76.1148 8.96028C79.8319 8.82475 82.1341 11.5227 81.8468 14.8568ZM78.7007 13.0117C78.5886 11.8697 78.2327 11.4287 77.4538 11.4667C76.4888 11.5119 76.3623 12.2022 76.3153 13.0117C77.1303 13.0117 77.9128 13.0117 78.7007 13.0117Z" fill="white"/>
<path d="M92.5887 9.71743C92.1207 10.6517 91.7339 11.4251 91.3996 12.0937C90.572 11.801 89.8347 11.4721 89.0613 11.304C88.7884 11.2462 88.4306 11.5878 88.1108 11.7468C88.3348 12.0558 88.4921 12.4967 88.7956 12.6449C89.3811 12.9304 90.0552 13.0298 90.6804 13.2412C91.846 13.6334 92.6736 14.3562 92.8272 15.6464C92.9971 17.0578 92.4134 18.0607 91.181 18.7745C90.0154 19.4503 88.7523 19.5244 87.5054 19.3799C85.917 19.1955 84.3539 18.8088 82.6498 18.4854C83.1034 17.3794 83.4503 16.5283 83.7178 15.8741C84.7117 16.2753 85.6098 16.7162 86.5567 16.9764C86.8404 17.0541 87.2596 16.6313 87.6174 16.4379C87.3825 16.1054 87.2181 15.6428 86.8982 15.4712C86.2441 15.1206 85.4923 14.9598 84.8056 14.6634C83.6383 14.1592 83.06 13.234 83.0781 11.9654C83.0943 10.8252 83.8551 9.78068 85.0279 9.41926C87.5217 8.64945 89.9901 8.88075 92.5887 9.71743Z" fill="white"/>
<defs>
<linearGradient id="paint0_linear_274_513" x1="4.66548" y1="14.3083" x2="28.9036" y2="14.3083" gradientUnits="userSpaceOnUse">
<stop stop-color="#09CB87"/>
<stop offset="1" stop-color="#04C6D0"/>
</linearGradient>
</defs>
</svg>
