<svg width="124" height="28" viewBox="0 0 124 28" fill="none" xmlns="http://www.w3.org/2000/svg">
<g clip-path="url(#clip0_278_1678)">
<path d="M43.6103 7.99689H45.7922V15.8929C45.7817 16.3414 45.8676 16.787 46.0439 17.1996C46.1985 17.5551 46.4274 17.8733 46.7152 18.1329C46.9846 18.3812 47.3019 18.5718 47.6476 18.6929C48.3525 18.9291 49.1152 18.9291 49.8202 18.6929C50.1645 18.569 50.4813 18.3788 50.7526 18.1329C51.0403 17.8733 51.2692 17.5551 51.4239 17.1996C51.6002 16.787 51.6861 16.3414 51.6756 15.8929V7.99689H53.8668V15.8929C53.885 16.6837 53.7356 17.4694 53.4286 18.1982C53.156 18.8223 52.7595 19.3844 52.2631 19.8502C51.7885 20.2946 51.2263 20.6348 50.6127 20.8489C49.392 21.287 48.0572 21.287 46.8365 20.8489C46.2239 20.6325 45.6621 20.2926 45.1861 19.8502C44.6898 19.3864 44.2959 18.8236 44.0299 18.1982C43.7196 17.47 43.5671 16.6844 43.5823 15.8929L43.6103 7.99689Z" fill="white"/>
<path d="M55.5729 7.99694H59.7687C60.4079 7.98723 61.0424 8.10791 61.6335 8.35162C62.1414 8.56521 62.5988 8.88318 62.9762 9.28495C63.3343 9.6665 63.6104 10.1176 63.7874 10.6103C64.1607 11.5837 64.1607 12.6609 63.7874 13.6343C63.6149 14.1291 63.3382 14.5811 62.9762 14.9596C62.5994 15.362 62.1418 15.6801 61.6335 15.893C61.0437 16.1408 60.4082 16.2616 59.7687 16.2476H57.7547V20.737H55.5729V11.7863L57.7174 10.0316H55.5729V7.99694ZM57.7547 10.0316V14.2036H59.7687C60.1515 14.2269 60.5325 14.1365 60.8643 13.9439C61.196 13.7513 61.4635 13.4651 61.6335 13.121C61.7901 12.8097 61.8717 12.4661 61.8717 12.1176C61.8717 11.7691 61.7901 11.4256 61.6335 11.1143C61.4716 10.8051 61.2343 10.5418 60.9435 10.349C60.6027 10.1283 60.2024 10.0176 59.7967 10.0316H57.7547Z" fill="white"/>
<path d="M67.3219 11.8045C67.5415 12.1115 67.837 12.3559 68.1797 12.5138C68.59 12.7192 69.0468 12.9245 69.5597 13.1298C70.0725 13.3352 70.6133 13.5592 71.1541 13.7925C71.6887 14.0217 72.193 14.3164 72.6553 14.6698C73.1014 15.0064 73.4836 15.4205 73.7835 15.8925C74.0948 16.4166 74.2501 17.0189 74.231 17.6285C74.2444 18.1924 74.099 18.7487 73.8114 19.2338C73.537 19.6839 73.1718 20.0718 72.7392 20.3725C72.2882 20.6818 71.7864 20.9092 71.2567 21.0445C70.7188 21.1921 70.1639 21.2675 69.6063 21.2685C69.134 21.2666 68.6629 21.2229 68.1984 21.1378C67.7377 21.0526 67.2875 20.9181 66.8557 20.7365C66.4261 20.5543 66.0193 20.3226 65.6436 20.0458C65.2659 19.7612 64.9301 19.4251 64.6459 19.0472L66.3335 17.7125C66.7047 18.2295 67.2304 18.6151 67.8347 18.8138C68.4352 19.017 69.0656 19.118 69.6995 19.1125C69.9619 19.1124 70.2239 19.0906 70.4827 19.0472C70.7553 18.9993 71.0193 18.9113 71.266 18.7858C71.497 18.6724 71.7007 18.51 71.8627 18.3098C72.0239 18.0916 72.1062 17.825 72.0958 17.5538C72.0981 17.363 72.0573 17.174 71.9767 17.0012C71.8959 16.8282 71.7773 16.6758 71.6296 16.5552C71.2619 16.2563 70.8577 16.0054 70.4268 15.8085C69.942 15.5845 69.4105 15.3605 68.8324 15.1365C68.2691 14.9143 67.721 14.6554 67.1914 14.3618C66.678 14.071 66.2125 13.7027 65.8114 13.2698C65.4168 12.8595 65.1566 12.3386 65.0655 11.7765L67.3219 11.8045ZM65.1867 10.0032C65.3205 9.5937 65.5362 9.21578 65.8207 8.89248C66.0822 8.57494 66.3979 8.30635 66.7531 8.09915C67.1348 7.8817 67.5464 7.72133 67.9746 7.62314C68.4206 7.51759 68.8774 7.46436 69.3359 7.46448C70.1699 7.46397 70.9952 7.63553 71.7602 7.96848C72.5241 8.29251 73.22 8.758 73.8114 9.34048L72.3755 10.9458C71.9655 10.5283 71.4776 10.1954 70.9396 9.96582C70.411 9.73267 69.8388 9.61489 69.2613 9.62049C68.992 9.61629 68.7232 9.64139 68.4594 9.69515C68.2178 9.74761 67.9873 9.84244 67.7788 9.97516C67.5771 10.0994 67.4103 10.2728 67.2939 10.4792C67.167 10.7237 67.1059 10.9972 67.1168 11.2725C67.115 11.3918 67.1405 11.5099 67.1914 11.6178L65.1867 10.0032Z" fill="white"/>
<path d="M74.6125 10.0316V7.99689H85.0835V10.0316H74.6125ZM80.9063 20.7369H78.7245V11.8049L80.9063 10.0316V20.7369Z" fill="white"/>
<path d="M87.6857 11.8049H89.4293L87.6857 7.99689H89.9701L95.8257 20.7369H93.5692L92.758 18.9542H86.716L85.8955 20.7369H83.6298L87.6857 11.8049ZM91.7697 16.9102L89.6997 12.4022L87.6298 16.9102H91.7697Z" fill="white"/>
<path d="M99.0988 7.99689V20.7369H96.917V11.8049L99.0988 10.0316H96.917V7.99689H99.0988Z" fill="white"/>
<path d="M104.972 7.99684C105.711 7.97786 106.445 8.12788 107.117 8.43551C107.673 8.69358 108.156 9.08466 108.525 9.57421C108.866 10.0289 109.099 10.5556 109.206 11.1142C109.327 11.6612 109.327 12.2284 109.206 12.7755C109.058 13.328 108.791 13.8411 108.422 14.2782C108.012 14.7519 107.49 15.1146 106.902 15.3329L110.632 20.7369H107.947L104.506 15.6595H103.126V20.7369H100.954V11.7862L103.098 10.0315H100.954V7.99684H104.972ZM103.108 10.0315V13.6249H104.972C105.375 13.6373 105.773 13.544 106.129 13.3542C106.412 13.197 106.65 12.9687 106.819 12.6915C106.969 12.4271 107.046 12.1275 107.042 11.8235C107.046 11.5211 106.965 11.2238 106.809 10.9649C106.637 10.6905 106.4 10.4629 106.119 10.3022C105.768 10.1123 105.371 10.0189 104.972 10.0315H103.108Z" fill="white"/>
<path d="M113.428 11.8045C113.647 12.1115 113.943 12.3559 114.286 12.5138C114.696 12.7192 115.153 12.9245 115.675 13.1298L117.261 13.7925C117.795 14.0217 118.299 14.3164 118.762 14.6698C119.207 15.0064 119.59 15.4205 119.89 15.8925C120.201 16.4166 120.356 17.0189 120.337 17.6285C120.351 18.1924 120.205 18.7487 119.918 19.2338C119.646 19.6859 119.28 20.0743 118.846 20.3725C118.394 20.6818 117.893 20.9092 117.363 21.0445C116.825 21.1921 116.27 21.2675 115.713 21.2685C115.24 21.2666 114.769 21.2229 114.305 21.1378C113.844 21.0526 113.394 20.9181 112.962 20.7365C112.533 20.5522 112.127 20.3206 111.75 20.0458C111.372 19.7612 111.037 19.4251 110.752 19.0472L112.44 17.7125C112.811 18.2295 113.337 18.6151 113.941 18.8138C114.542 19.0162 115.172 19.1172 115.806 19.1125C116.068 19.1124 116.33 19.0906 116.589 19.0472C116.861 18.9993 117.125 18.9113 117.372 18.7858C117.604 18.6724 117.807 18.51 117.969 18.3098C118.133 18.0925 118.218 17.826 118.212 17.5538C118.212 17.3623 118.17 17.1732 118.087 17.0004C118.005 16.8275 117.884 16.6754 117.736 16.5552C117.368 16.2563 116.964 16.0054 116.533 15.8085C116.048 15.5845 115.517 15.3605 114.948 15.1365C114.381 14.9161 113.829 14.6573 113.298 14.3618C112.794 14.0756 112.336 13.7171 111.936 13.2978C111.542 12.8875 111.282 12.3666 111.191 11.8045H113.428ZM111.302 10.0032C111.433 9.59426 111.646 9.21629 111.927 8.89247C112.188 8.57494 112.504 8.30635 112.86 8.09915C113.242 7.88369 113.653 7.72343 114.081 7.62314C114.527 7.51759 114.984 7.46436 115.442 7.46448C116.28 7.46401 117.108 7.63555 117.876 7.96848C118.636 8.29509 119.328 8.76035 119.918 9.34048L118.482 10.9458C118.074 10.5307 117.589 10.1979 117.055 9.96582C116.523 9.73351 115.948 9.61582 115.368 9.62049C115.101 9.61619 114.835 9.64121 114.575 9.69515C114.33 9.74593 114.096 9.84085 113.885 9.97515C113.686 10.0997 113.523 10.2732 113.41 10.4792C113.279 10.7228 113.215 10.9963 113.223 11.2725C113.221 11.3918 113.247 11.5099 113.298 11.6178L111.302 10.0032Z" fill="white"/>
<mask id="mask0_278_1678" style="mask-type:luminance" maskUnits="userSpaceOnUse" x="3" y="0" width="32" height="29">
<path d="M34.9854 0.203369H3.5166V28.2034H34.9854V0.203369Z" fill="white"/>
</mask>
<g mask="url(#mask0_278_1678)">
<path d="M19.2571 9.28479L34.6418 18.1515C34.7495 18.2218 34.838 18.3181 34.8992 18.4313C34.9605 18.5446 34.9926 18.6713 34.9926 18.8001C34.9926 18.9289 34.9605 19.0557 34.8992 19.1689C34.838 19.2822 34.7495 19.3783 34.6418 19.4488L19.6207 28.1288C19.5043 28.1788 19.379 28.2047 19.2524 28.2047C19.1257 28.2047 19.0004 28.1788 18.8841 28.1288L3.87232 19.4488C3.76458 19.3783 3.67608 19.2822 3.61482 19.1689C3.55356 19.0557 3.52148 18.9289 3.52148 18.8001C3.52148 18.6713 3.55356 18.5446 3.61482 18.4313C3.67608 18.3181 3.76458 18.2218 3.87232 18.1515L19.2571 9.28479Z" fill="#7E46F2"/>
<path d="M18.5119 0.418131C18.7349 0.276116 18.9936 0.200684 19.2579 0.200684C19.5221 0.200684 19.7809 0.276116 20.0038 0.418131L34.6426 8.91147C34.7503 8.98298 34.8386 9.08006 34.8998 9.19406C34.9608 9.30806 34.9928 9.43542 34.9928 9.56475C34.9928 9.69421 34.9608 9.82151 34.8998 9.93557C34.8386 10.0495 34.7503 10.1466 34.6426 10.2181L19.2579 19.0848L3.87311 10.2181C3.7654 10.1466 3.67705 10.0495 3.61593 9.93557C3.55481 9.82151 3.52283 9.69421 3.52283 9.56475C3.52283 9.43542 3.55481 9.30806 3.61593 9.19406C3.67705 9.08006 3.7654 8.98298 3.87311 8.91147L18.5119 0.418131Z" fill="url(#paint0_linear_278_1678)"/>
<path fill-rule="evenodd" clip-rule="evenodd" d="M27.7612 14.1291L19.2763 19.0851L10.7634 14.1291L19.2576 9.18243L27.7612 14.1291Z" fill="#00FFFF"/>
</g>
</g>
<defs>
<linearGradient id="paint0_linear_278_1678" x1="19.2579" y1="0.00746463" x2="19.2579" y2="19.0848" gradientUnits="userSpaceOnUse">
<stop stop-color="#01E7A2"/>
<stop offset="1" stop-color="#00E5A0"/>
</linearGradient>
<clipPath id="clip0_278_1678">
<rect width="124" height="28" fill="white"/>
</clipPath>
</defs>
</svg>
