<svg width="124" height="28" viewBox="0 0 124 28" fill="none" xmlns="http://www.w3.org/2000/svg">
<path d="M82.0034 0.700012C82.1498 0.741354 82.2989 0.77522 82.4423 0.825358C82.6829 0.909362 82.8557 1.07429 82.8619 1.33422C82.8685 1.61658 82.8584 1.92312 82.5918 2.10476C77.4509 5.60741 72.3249 9.13248 67.0428 12.4236C65.8404 13.1726 64.6005 13.8446 63.2112 14.1833C62.7511 14.2954 62.2757 14.426 61.8104 14.4146C61.2769 14.4018 60.739 14.2721 60.2174 14.138C58.8188 13.7782 57.5803 13.0692 56.3669 12.3132C52.3277 9.79835 48.3949 7.12255 44.4524 4.46126C43.3243 3.69951 42.2046 2.92545 41.0756 2.16458C40.7365 1.93632 40.6956 1.6025 40.7426 1.25637C40.7853 0.946306 41.0536 0.838112 41.3263 0.766423C41.4173 0.742674 41.5092 0.722003 41.6011 0.700012C44.2831 0.700012 46.9646 0.700012 49.6466 0.700012C49.7086 0.717165 49.7702 0.739155 49.8335 0.750151C50.3146 0.834154 50.7197 1.04482 51.0047 1.45297C52.8436 4.08611 54.8407 6.58686 57.1484 8.83121C58.0245 9.68357 58.8694 10.5689 59.8664 11.2867C60.7821 11.9464 61.7743 12.1557 62.8536 11.7647C63.4548 11.547 63.9553 11.1569 64.4259 10.7378C67.5024 7.99909 70.1984 4.92438 72.5294 1.53125C72.821 1.10684 73.2111 0.860543 73.705 0.756748C73.7899 0.739155 73.8739 0.718924 73.9584 0.700012C76.6399 0.700012 79.3218 0.700012 82.0034 0.700012Z" fill="#005470"/>
<path d="M58.2867 4.20215C58.318 4.55708 58.3342 4.8412 58.369 5.12356C58.5009 6.20461 59.2033 7.02221 60.2558 7.30853C61.0809 7.53327 61.9204 7.54911 62.7552 7.38638C63.867 7.16955 64.5769 6.5094 64.8456 5.39536C65.004 4.7396 65.0026 4.07989 64.9261 3.41534C64.7884 2.22037 64.0716 1.39353 62.9003 1.10677C62.0379 0.895666 61.1715 0.919416 60.3209 1.16703C59.3075 1.46214 58.6676 2.13681 58.4292 3.16464C58.3452 3.52485 58.3263 3.89957 58.2867 4.20215Z" fill="#005470"/>
<path d="M49.6472 23.2573C49.7109 23.3145 49.7668 23.3686 49.8262 23.4183C51.2925 24.6436 52.7593 25.8689 54.226 27.0938C54.2823 27.1409 54.3456 27.1818 54.3918 27.2372C54.4305 27.2838 54.4855 27.3647 54.4684 27.399C54.4428 27.4514 54.3659 27.4896 54.303 27.5099C54.2427 27.5292 54.1724 27.5195 54.1064 27.5195C52.3845 27.52 50.6627 27.5235 48.9413 27.5129C48.7961 27.5121 48.6207 27.4479 48.5116 27.3533C46.8447 25.9116 45.1871 24.4589 43.5237 23.0133C43.4085 22.913 43.3548 22.8118 43.3632 22.6574C43.3759 22.4239 43.3746 22.189 43.364 21.9551C43.3557 21.7642 43.4371 21.6907 43.6218 21.6916C44.2226 21.6947 44.8247 21.7154 45.4237 21.6824C45.7452 21.6648 46.0742 21.5852 46.3763 21.4722C46.6965 21.3521 46.8957 21.0957 46.8825 20.7249C46.8698 20.3643 46.6578 20.1325 46.3433 20.0221C46.072 19.9267 45.7782 19.8537 45.4923 19.8466C44.5845 19.8246 43.6754 19.8435 42.7668 19.8334C42.5728 19.8312 42.5196 19.8858 42.5201 20.0793C42.5262 22.4283 42.524 24.7773 42.524 27.1263C42.524 27.509 42.5135 27.5204 42.1313 27.5204C40.5194 27.5209 38.9075 27.5209 37.2956 27.5204C36.9301 27.5204 36.9081 27.498 36.9081 27.1382C36.9081 24.2988 36.9081 21.4598 36.9081 18.6204C36.9081 18.2954 36.931 18.2712 37.2577 18.2712C41.3167 18.2708 45.3757 18.2708 49.4347 18.2717C50.1182 18.2717 50.7766 18.3825 51.3695 18.748C52.4136 19.3914 52.816 20.6625 52.2803 21.6547C51.9197 22.3223 51.314 22.7001 50.6301 22.9618C50.3196 23.0797 49.9915 23.1549 49.6472 23.2573Z" fill="#005470"/>
<path d="M95.353 18.2731C96.5911 18.2731 97.8291 18.2718 99.0672 18.2731C101.375 18.2753 103.104 19.7768 103.409 22.0691C103.547 23.1066 103.483 24.1335 102.997 25.0866C102.202 26.6462 100.915 27.4858 99.1649 27.5086C96.6162 27.5421 94.0661 27.5407 91.517 27.51C89.3065 27.4836 87.5688 25.9007 87.283 23.6942C87.1211 22.4456 87.2574 21.2392 87.9801 20.1599C88.8082 18.9227 89.9913 18.3109 91.4633 18.2792C92.7595 18.2506 94.0565 18.2731 95.353 18.2731ZM93.0594 22.7561C93.07 22.7565 93.081 22.7574 93.0915 22.7578C93.0915 23.0358 93.0695 23.3159 93.0964 23.5913C93.143 24.0689 93.1786 24.5536 93.2952 25.0167C93.4324 25.5629 93.8295 25.8998 94.4 25.9306C94.9827 25.9623 95.5712 25.953 96.1539 25.9139C96.7032 25.8769 97.0634 25.5414 97.2539 25.0351C97.3225 24.8522 97.3854 24.6556 97.392 24.463C97.4241 23.5358 97.4434 22.6078 97.4496 21.6803C97.4514 21.4124 97.4149 21.1398 97.3586 20.8772C97.2293 20.2755 96.8981 19.9378 96.2881 19.8867C95.6411 19.8326 94.9849 19.8155 94.3379 19.8608C93.6246 19.9105 93.2472 20.309 93.1672 21.0294C93.1025 21.6016 93.0933 22.1799 93.0594 22.7561Z" fill="#005470"/>
<path d="M111.387 25.8879C110.903 25.588 110.42 25.2876 109.935 24.9889C108.784 24.2782 107.631 23.5692 106.479 22.8576C105.917 22.5102 105.375 22.1363 104.949 21.6213C104.608 21.2079 104.386 20.7531 104.464 20.1933C104.516 19.8238 104.707 19.5375 104.978 19.3018C105.605 18.756 106.356 18.4798 107.166 18.365C107.606 18.3025 108.054 18.2779 108.499 18.2766C111.29 18.2691 114.081 18.2726 116.872 18.2726C117.267 18.2726 117.267 18.2726 117.268 18.6772C117.268 18.9627 117.268 19.2477 117.267 19.5331C117.266 19.8106 117.243 19.8361 116.968 19.8366C116.016 19.8379 115.064 19.837 114.111 19.837C113.057 19.837 112.002 19.837 110.947 19.837C110.87 19.837 110.793 19.837 110.716 19.837C110.711 19.852 110.706 19.8669 110.701 19.8823C110.77 19.9294 110.837 19.9795 110.908 20.0235C112.513 21.0307 114.119 22.0361 115.723 23.045C116.344 23.4355 116.952 23.849 117.44 24.4018C117.655 24.645 117.851 24.9217 117.987 25.2146C118.229 25.7362 118.089 26.2217 117.642 26.5877C117.271 26.8911 116.829 27.0459 116.375 27.1673C115.392 27.4303 114.387 27.5157 113.374 27.5174C110.671 27.5223 107.969 27.5192 105.266 27.5192C104.891 27.5192 104.874 27.5007 104.874 27.1207C104.874 26.8208 104.882 26.5204 104.871 26.2209C104.863 26.0159 104.953 25.946 105.145 25.9499C105.408 25.9552 105.672 25.9508 105.936 25.9504C107.672 25.9504 109.408 25.9504 111.144 25.9504C111.221 25.9504 111.298 25.9504 111.375 25.9504C111.378 25.9301 111.382 25.909 111.387 25.8879Z" fill="#005470"/>
<path d="M78.0244 27.5196C76.8378 27.5196 75.6507 27.5034 74.4646 27.5227C71.6467 27.5689 70.2266 25.3984 70.0462 23.571C70.0203 23.3098 70.0031 23.0463 70.0023 22.7838C69.9979 21.3865 70.0001 19.9892 70.0001 18.5915C70.0001 18.2902 70.019 18.2704 70.3277 18.27C72.0346 18.2691 73.7411 18.2691 75.448 18.27C75.7497 18.27 75.7704 18.2924 75.7717 18.5968C75.7796 20.4185 75.7787 22.2402 75.8029 24.0614C75.8073 24.3917 75.8786 24.7317 75.981 25.0475C76.1737 25.6408 76.595 25.9425 77.2187 25.9464C78.7496 25.9566 80.2806 25.9588 81.8116 25.9464C82.6116 25.9398 83.2075 25.4745 83.4446 24.6019C83.5981 24.0368 83.6913 23.4404 83.7067 22.855C83.7441 21.4292 83.7204 20.002 83.7217 18.5752C83.7221 18.2977 83.7463 18.2713 84.0199 18.2704C84.6057 18.2687 85.192 18.2735 85.7778 18.2678C85.9669 18.266 86.0593 18.325 86.0579 18.5317C86.0483 20.1119 86.1098 21.6957 86.0241 23.2715C85.9242 25.106 85.0481 26.4909 83.3052 27.2346C82.7805 27.4585 82.2171 27.5174 81.6502 27.5188C80.4416 27.5214 79.233 27.5196 78.0244 27.5196Z" fill="#005470"/>
<path d="M19.5236 24.2695C19.8583 23.9774 20.1834 23.6955 20.5066 23.4118C22.3938 21.7559 24.2819 20.1009 26.1656 18.4411C26.313 18.3114 26.4621 18.2502 26.6587 18.2555C27.0541 18.2669 27.4499 18.2537 27.8453 18.2643C27.9372 18.2669 28.0274 18.3246 28.1184 18.3571C28.0661 18.4376 28.0282 18.5348 27.9587 18.5959C25.5103 20.7444 23.0593 22.8898 20.6082 25.0356C19.7378 25.7974 18.8661 26.5573 17.9997 27.3239C17.8651 27.4427 17.727 27.5047 17.5467 27.5016C17.1073 27.4946 16.6675 27.5095 16.2286 27.4928C16.1024 27.488 15.952 27.4348 15.8583 27.3521C12.5597 24.43 9.26597 21.5026 5.97399 18.573C5.91374 18.5194 5.87943 18.4358 5.83325 18.3663C5.92253 18.3311 6.01137 18.2661 6.1011 18.2652C7.23624 18.2577 8.37183 18.2595 9.50698 18.259C10.4297 18.2586 11.3529 18.2634 12.2756 18.2555C12.4849 18.2537 12.6468 18.3061 12.8091 18.4473C14.9615 20.3226 17.1205 22.1905 19.2778 24.0601C19.3539 24.1265 19.4317 24.1916 19.5236 24.2695Z" fill="#005470"/>
<path d="M58.7876 19.8374C58.6609 19.8374 58.5739 19.8374 58.4868 19.8374C57.2852 19.8374 56.0837 19.8379 54.8825 19.837C54.5663 19.837 54.5421 19.8119 54.5417 19.5023C54.5412 19.1729 54.5443 18.8439 54.5408 18.5145C54.539 18.35 54.6107 18.2682 54.7765 18.2708C54.8425 18.2717 54.9085 18.27 54.9745 18.27C59.4288 18.27 63.8828 18.27 68.3372 18.27C68.4106 18.27 68.4837 18.2704 68.5571 18.2717C68.6983 18.2744 68.77 18.3381 68.7682 18.4881C68.7638 18.8611 68.762 19.2345 68.7691 19.6074C68.7722 19.7701 68.6974 19.8339 68.547 19.8357C68.481 19.8366 68.415 19.837 68.3491 19.837C67.133 19.837 65.9169 19.837 64.7008 19.837C64.6142 19.837 64.5276 19.837 64.4053 19.837C64.4053 19.9456 64.4053 20.0371 64.4053 20.1286C64.4053 22.4701 64.4053 24.8112 64.4053 27.1528C64.4053 27.4862 64.375 27.5183 64.0447 27.5187C62.4108 27.5196 60.7773 27.5196 59.1434 27.5187C58.8065 27.5187 58.7889 27.4989 58.7885 27.1541C58.7885 24.82 58.7885 22.486 58.7885 20.1519C58.7876 20.0587 58.7876 19.9654 58.7876 19.8374Z" fill="#005470"/>
<path d="M34.6901 22.8946C34.6901 24.3354 34.6901 25.7767 34.6901 27.2175C34.6901 27.4862 34.6615 27.5183 34.388 27.5188C32.7255 27.5201 31.063 27.5205 29.4005 27.5188C29.1213 27.5183 29.0799 27.4735 29.0799 27.2021C29.0795 24.3275 29.0795 21.4529 29.0799 18.5783C29.0799 18.31 29.1151 18.2735 29.3829 18.2735C31.0599 18.2726 32.7374 18.2753 34.4144 18.2704C34.6202 18.27 34.6958 18.3351 34.695 18.5502C34.6862 19.998 34.6901 21.4463 34.6901 22.8946Z" fill="#005470"/>
<path d="M58.2867 4.20215C58.3263 3.90001 58.3452 3.52485 58.4288 3.16464C58.6672 2.13681 59.3067 1.46214 60.3204 1.16703C61.171 0.919416 62.037 0.895666 62.8999 1.10677C64.0716 1.39353 64.788 2.22081 64.9257 3.41534C65.0022 4.07989 65.0035 4.74004 64.8452 5.39536C64.5765 6.5094 63.8666 7.16955 62.7548 7.38638C61.9204 7.54911 61.0809 7.53327 60.2553 7.30853C59.2029 7.02221 58.5005 6.20461 58.3685 5.12356C58.3342 4.8412 58.3175 4.55664 58.2867 4.20215Z" fill="#F4811F"/>
</svg>
