<svg width="1820" height="1473" viewBox="0 0 1820 1473" fill="none" xmlns="http://www.w3.org/2000/svg">
<path d="M103.942 1347.73C76.9053 1361.18 26.9291 1369.46 43.3176 1295C51.4852 1257.89 58.7793 1103.79 67.8822 1019.45C68.2241 1016.28 58.365 1006.15 58.7044 1002.97C58.741 1002.63 57.0301 991.217 54.3059 983.676C51.8011 979.967 43.6003 980.776 43.3163 979.044C43.0324 977.311 54.9679 980.058 54.7117 978.422C53.7181 972.075 53.0316 966.932 53.4172 966.708C53.8155 966.475 60.2542 997.076 61.3 998.453C65.4386 1003.9 69.6968 1002.47 69.865 1000.88C72.5133 975.821 77.3714 927.221 79.7766 902.743C83.8869 859.934 89.9643 794.54 92.5292 764.592C104.008 730.889 124.106 684.166 112.661 766.899C98.3557 870.316 99.2267 945.208 99.5904 952.722C100.49 971.303 101.987 1265.9 103.942 1347.73Z" fill="#15052F"/>
<path d="M1437 1394C1401.02 1419.45 1330.8 1442.6 1337.75 1331.54C1341.21 1276.19 1325.75 1032.88 1319.98 909.197C1319.76 904.552 1303.27 892.157 1303.05 887.496C1303.03 886.993 1298 870.913 1292.38 860.648C1287.94 855.86 1276.29 858.865 1275.49 856.429C1274.7 853.994 1292.53 855.282 1291.79 852.979C1288.94 844.048 1286.79 836.785 1287.3 836.374C1287.82 835.95 1303.96 878.64 1305.78 880.393C1312.97 887.328 1318.79 884.307 1318.68 881.974C1316.88 845.238 1313 774.056 1310.98 738.214C1307.32 675.552 1301.43 579.875 1298.41 536.109C1307.42 484.927 1325.93 413.037 1327.97 534.924C1330.51 687.283 1348.55 795.1 1350.76 805.857C1356.22 832.453 1415.84 1276.42 1437 1394Z" fill="#15052F"/>
<path d="M1819.22 1420.96C1783.24 1446.42 1713.02 1469.56 1719.97 1358.5C1723.43 1303.15 1717.75 1108.88 1711.98 985.197C1711.76 980.552 1695.27 968.157 1695.05 963.496C1695.03 962.993 1690 946.913 1684.38 936.648C1679.94 931.86 1668.29 934.865 1667.49 932.429C1666.7 929.994 1684.53 931.282 1683.79 928.979C1680.94 920.048 1678.79 912.785 1679.3 912.374C1679.82 911.95 1695.96 954.64 1697.78 956.393C1704.97 963.328 1710.79 960.307 1710.68 957.974C1708.88 921.238 1705 850.056 1702.98 814.214C1699.32 751.552 1693.43 655.875 1690.41 612.109C1699.42 560.927 1717.93 489.037 1719.97 610.924C1722.51 763.283 1740.55 871.1 1742.76 881.857C1748.22 908.453 1798.06 1303.38 1819.22 1420.96Z" fill="#15052F"/>
<path d="M1509.69 1385.54C1486.84 1406.37 1442.05 1425.02 1445.66 1333C1447.46 1287.14 1431.37 1065.32 1426.73 962.729C1426.56 958.876 1415.91 948.475 1415.73 944.609C1415.71 944.191 1412.37 930.822 1408.69 922.269C1405.81 918.265 1398.38 920.669 1397.85 918.643C1397.32 916.618 1408.74 917.821 1408.26 915.906C1406.36 908.48 1404.93 902.442 1405.25 902.105C1405.59 901.757 1416.25 937.274 1417.42 938.74C1422.08 944.545 1425.78 942.084 1425.69 940.149C1424.26 909.679 1421.24 850.633 1419.67 820.901C1416.85 768.922 1412.36 689.552 1410.1 653.243C1415.47 610.878 1426.79 551.415 1429.01 652.485C1431.79 778.823 1444.16 868.35 1445.66 877.284C1449.36 899.377 1495.25 1287.9 1509.69 1385.54Z" fill="#15052F"/>
<path d="M1670 837.5L1610 583L1419.5 621L1409 777.5L1457.5 821.5V948L1610 984V882L1670 837.5Z" fill="url(#paint0_linear_469_7486)"/>
<path d="M286.999 726.935L249.298 567L129.597 590.88L122.999 689.229L153.474 716.88V796.377L249.298 819V754.9L286.999 726.935Z" fill="url(#paint1_linear_469_7486)"/>
<path d="M632.999 254.5L572.999 0L382.499 38L371.999 194.5L420.499 238.5V365L572.999 401V299L632.999 254.5Z" fill="url(#paint2_linear_469_7486)"/>
<path d="M453.999 208C457.416 314 492.034 526 603.166 526C714.298 526 731.083 300.004 723.394 208" stroke="#110725" stroke-width="4"/>
<path d="M185.851 1360.5C254.833 1370.12 385.444 1370.24 356.035 1293.82C341.378 1255.73 325.239 1129.32 316.946 1041.1C316.635 1037.79 344.601 1025.3 344.299 1021.97C344.266 1021.61 350.926 1009.16 359.541 1000.66C366.858 996.275 388.394 995.711 389.469 993.817C390.544 991.922 358.467 996.923 359.451 995.136C363.265 988.206 366.043 982.612 365.065 982.439C364.056 982.261 341.304 1015.96 338.281 1017.61C326.316 1024.13 315.324 1023.35 315.177 1021.68C312.861 995.462 309.107 944.563 307.326 918.92C307.012 914.4 349.289 858.423 349.289 858.423L344.044 856.489C344.044 856.489 305.724 895.026 305.497 891.455C302.636 846.592 300.628 805.491 299.448 774.053C275.397 740.166 230.991 693.915 245.777 780.009C264.26 887.627 244.696 967.626 245.579 975.577C246.285 981.938 201.037 967.086 190.106 956.225L168.993 917.671L135.094 893.261L126.103 891.744L164.906 926.174L138.182 921.091L138.513 924.072L165.623 932.634L185.851 976.82C197.868 989.908 231.292 1009.41 235.531 1018.6C239.771 1027.78 206.329 1273.04 185.851 1360.5Z" fill="#15052F"/>
<path d="M1334 1451.5C1247.1 1476.36 1080.73 1495.03 1110.5 1370.8C1125.34 1308.89 1128.12 1088.91 1129.81 949.138C1129.87 943.889 1092.99 928.212 1093.04 922.943C1093.05 922.375 1083.31 903.755 1071.48 891.615C1061.72 885.761 1034.23 887.92 1032.67 885.095C1031.11 882.271 1072.47 885.592 1071.04 882.923C1065.48 872.575 1061.38 864.177 1062.61 863.768C1063.88 863.346 1096.25 913.075 1100.27 915.238C1116.16 923.796 1130.09 921.008 1130.11 918.37C1130.42 876.847 1130.08 796.345 1129.76 755.804C1129.71 748.657 1070.22 666.684 1070.22 666.684L1076.71 662.905C1076.71 662.905 1129.4 718.035 1129.33 712.391C1128.46 641.5 1126.88 576.638 1125.22 527.076C1152.44 470.432 1204.35 391.485 1194.18 528.846C1181.47 700.547 1214.45 823.473 1214.12 836.09C1213.87 846.184 1270.01 816.451 1282.84 797.841L1305.85 734.28L1346.58 691.134L1357.88 687.478L1311.92 747.061L1345.45 735.296L1345.33 740.027L1311.65 757.313L1290.33 829.598C1276.34 851.86 1235.73 887.223 1231.25 902.259C1226.78 917.295 1299.11 1316.98 1334 1451.5Z" fill="#15052F"/>
<path d="M1051.62 1357.81C1014.13 1368.54 942.354 1376.59 955.197 1323C961.598 1296.29 967.215 1162.06 967.942 1101.76C967.969 1099.5 952.058 1092.73 952.079 1090.46C952.082 1090.21 947.881 1082.18 942.778 1076.94C938.566 1074.42 926.707 1075.35 926.034 1074.13C925.361 1072.91 943.206 1074.35 942.587 1073.2C940.19 1068.73 938.421 1065.11 938.95 1064.93C939.498 1064.75 953.464 1086.2 955.197 1087.14C962.055 1090.83 968.062 1089.63 968.071 1088.49C968.204 1070.57 968.057 1035.85 967.922 1018.36C967.899 1015.27 942.234 979.909 942.234 979.909L945.033 978.279C945.033 978.279 967.765 1002.06 967.735 999.627C967.359 969.045 966.677 941.063 965.96 919.682C965.619 909.499 967.001 889.5 972.502 919.682C985.818 992.754 1004.46 1047.55 1004.32 1052.99C1004.2 1057.35 1028.42 1044.52 1033.96 1036.49L1043.89 1009.07L1061.46 990.457L1066.33 988.88L1046.5 1014.58L1060.97 1009.51L1060.92 1011.55L1046.39 1019.01L1037.19 1050.19C1031.16 1059.79 1013.64 1075.05 1011.71 1081.54C1009.77 1088.02 1036.56 1299.78 1051.62 1357.81Z" fill="#15052F"/>
<path d="M199.089 962.221C197.538 977.15 198.664 1007.6 215.575 1009.95C232.486 1012.31 238.253 990.417 238.88 977.359" stroke="#4D2770"/>
<path d="M140.46 897.506C139.877 903.146 139.78 918.614 146.262 919.518C152.744 920.421 154.903 913.067 155.134 908.133" stroke="#4D2770"/>
<path d="M199.089 962.221C195.194 993.987 191.659 1058.11 208.675 1060.49C225.691 1062.86 234.991 1015.73 237.648 988.058" stroke="#4D2770"/>
<path d="M633.819 1382.57C607.271 1396.96 557.616 1406.99 571.384 1332C578.245 1294.63 581.548 1153.07 587.689 1068.46C587.919 1065.28 577.711 1055.5 577.939 1052.32C577.964 1051.97 575.853 1040.62 572.867 1033.18C570.233 1029.56 562.066 1030.66 561.721 1028.94C561.377 1027.22 573.401 1029.54 573.088 1027.92C571.872 1021.61 571.006 1016.49 571.384 1016.26C571.773 1016.01 579.281 1046.37 580.374 1047.71C584.702 1053.01 588.907 1051.43 589.019 1049.83C590.787 1024.69 593.939 975.953 595.484 951.406C598.091 908.48 601.872 842.912 603.385 812.894C613.676 778.808 632.123 731.409 623.586 814.493C612.915 918.348 616.411 993.163 617.038 1000.66C618.588 1019.2 628.997 1300.86 633.819 1382.57Z" fill="#15052F"/>
<defs>
<linearGradient id="paint0_linear_469_7486" x1="1540" y1="767.5" x2="1539.5" y2="984" gradientUnits="userSpaceOnUse">
<stop stop-color="#542D78"/>
<stop offset="1" stop-color="#331152"/>
</linearGradient>
<linearGradient id="paint1_linear_469_7486" x1="205.314" y1="682.945" x2="204.999" y2="819" gradientUnits="userSpaceOnUse">
<stop stop-color="#542D78"/>
<stop offset="1" stop-color="#331152"/>
</linearGradient>
<linearGradient id="paint2_linear_469_7486" x1="502.999" y1="184.5" x2="502.499" y2="401" gradientUnits="userSpaceOnUse">
<stop stop-color="#542D78"/>
<stop offset="1" stop-color="#331152"/>
</linearGradient>
</defs>
</svg>
