<svg width="52" height="52" viewBox="0 0 52 52" fill="none" xmlns="http://www.w3.org/2000/svg">
<rect width="8.66665" height="8.66665" transform="matrix(-1 0 0 1 52.0002 8.6665)" fill="#4951F1"/>
<rect width="8.66665" height="8.66665" transform="matrix(-1 0 0 1 52.0002 17.3333)" fill="#3131A9"/>
<rect width="8.66665" height="8.66665" transform="matrix(-1 0 0 1 43.3337 17.3333)" fill="#4951F1"/>
<rect width="8.66665" height="8.66665" transform="matrix(-1 0 0 1 52.0002 43.3332)" fill="#4951F1"/>
<rect width="8.66665" height="8.66665" transform="matrix(-1 0 0 1 52.0002 34.6667)" fill="#3131A9"/>
<rect width="8.66665" height="8.66665" transform="matrix(-1 0 0 1 26.0002 43.3332)" fill="#3131A9"/>
<rect width="8.66665" height="8.66665" transform="matrix(-1 0 0 1 17.3333 43.3332)" fill="#4951F1"/>
<rect width="8.66665" height="8.66665" transform="matrix(-1 0 0 1 8.66675 34.6667)" fill="#4951F1"/>
<rect width="8.66665" height="8.66665" transform="matrix(-1 0 0 1 34.6667 8.6665)" fill="#4951F1"/>
<rect width="8.66665" height="8.66665" transform="matrix(-1 0 0 1 26.0002 0)" fill="#4951F1"/>
<rect width="8.66665" height="8.66665" transform="matrix(-1 0 0 1 34.6667 26)" fill="#4951F1"/>
<rect width="8.66665" height="8.66665" transform="matrix(-1 0 0 1 43.3337 34.6667)" fill="#4951F1"/>
<rect width="8.66665" height="8.66665" transform="matrix(-1 0 0 1 34.6667 43.3332)" fill="#3131A9"/>
<rect width="8.66665" height="8.66665" transform="matrix(-1 0 0 1 43.3337 43.3332)" fill="#3131A9"/>
</svg>
