<svg width="1920" height="525" viewBox="0 0 1920 525" fill="none" xmlns="http://www.w3.org/2000/svg">
<mask id="mask0_467_6725" style="mask-type:alpha" maskUnits="userSpaceOnUse" x="0" y="0" width="1920" height="525">
<rect width="1920" height="525" fill="#D9D9D9"/>
</mask>
<g mask="url(#mask0_467_6725)">
<path d="M196.859 192.401C90.2823 130.264 -174.905 -89.7244 -232 -287.039C-186.512 -229.345 -83.7701 -113.956 -36.7102 -113.956C22.1146 -113.956 13.4639 -101.84 67.0983 -89.7244C120.733 -77.6086 141.494 -131.264 236.652 -77.6086C312.779 -34.6839 293.747 49.8961 274.715 86.8206C278.176 102.398 293.747 134.592 328.35 138.746C371.603 143.938 361.223 218.364 399.286 223.556C429.736 227.71 460.417 274.76 471.952 297.766C424.661 288.535 303.436 254.538 196.859 192.401Z" fill="url(#paint0_linear_467_6725)"/>
<path d="M1971.13 14.8633C1876.89 119.211 1569.42 363.572 1335.89 381.14C1410.91 343.888 1563.68 256.263 1574.68 203.776C1588.43 138.167 1599.92 150.646 1625.98 93.6577C1652.03 36.669 1597.01 0.973615 1679.12 -92.6198C1744.81 -167.495 1834.75 -126.502 1871.51 -96.6463C1889.7 -96.8653 1929.26 -106.709 1941.99 -144.332C1957.89 -191.36 2038.52 -162.389 2053.21 -203.629C2064.96 -236.62 2124.63 -259.845 2153 -267.333C2131.65 -216.746 2065.38 -89.484 1971.13 14.8633Z" fill="url(#paint1_linear_467_6725)"/>
<path d="M460.559 456.31C337.473 424.611 203.408 331.51 126.975 280.575C198.505 324.648 316.823 357.181 367.041 367.938C391.589 373.197 412.184 352.783 469.455 361.432C525.477 369.892 525.443 422.964 538.67 432.751C549.251 440.58 633.567 474.985 674.402 491.209C637.883 487.22 543.283 477.614 460.559 456.31Z" fill="url(#paint2_linear_467_6725)"/>
<path d="M1341.62 264.589C1399.65 239.973 1458.55 184.429 1492.29 153.814C1460.45 180.702 1404.81 205.377 1380.97 214.353C1369.32 218.741 1357.71 210.245 1330.26 218.706C1303.4 226.983 1307.33 253.013 1301.57 258.788C1296.95 263.408 1258.13 286.495 1239.3 297.462C1256.92 292.814 1302.61 281.134 1341.62 264.589Z" fill="url(#paint3_linear_467_6725)"/>
</g>
<defs>
<linearGradient id="paint0_linear_467_6725" x1="121.324" y1="-17.9706" x2="120.93" y2="297.767" gradientUnits="userSpaceOnUse">
<stop stop-color="#221152"/>
<stop offset="1" stop-color="#542D78"/>
</linearGradient>
<linearGradient id="paint1_linear_467_6725" x1="1778.8" y1="-154.664" x2="1501.3" y2="339.686" gradientUnits="userSpaceOnUse">
<stop stop-color="#261152"/>
<stop offset="1" stop-color="#542D78"/>
</linearGradient>
<linearGradient id="paint2_linear_467_6725" x1="401.088" y1="376.075" x2="409.381" y2="508.047" gradientUnits="userSpaceOnUse">
<stop stop-color="#452D78"/>
<stop offset="1" stop-color="#6F34A5"/>
</linearGradient>
<linearGradient id="paint3_linear_467_6725" x1="1364.87" y1="220.852" x2="1370.53" y2="286.197" gradientUnits="userSpaceOnUse">
<stop stop-color="#452D78"/>
<stop offset="1" stop-color="#5E2A8D"/>
</linearGradient>
</defs>
</svg>
