<svg width="2276" height="426" viewBox="0 0 2276 426" fill="none" xmlns="http://www.w3.org/2000/svg">
<path d="M1850.16 71.1075C1850.16 71.1075 1980.47 -5.8326 1994.54 0.522489L2090.73 129.348L2164.64 164.797L2199.15 213.792L2203.16 213.548L2203.22 282.88L2203.16 397.881L1945.45 407.039L1749.65 413.655L1477.62 418.914L1850.16 71.1075Z" fill="url(#paint0_linear_467_6726)"/>
<path d="M2090.73 129.348L2019.48 189.539V196.799L1954.21 244.436L1945.46 255.875L1910.91 297.018L1959.23 246.944C1959.23 246.944 2037.68 230.124 2042.07 226.938C2046.47 223.752 2047.09 219.991 2047.09 219.991V213.549L2045.84 183.01L2095.41 148.257H2103.4L2164.64 164.797C2164.64 164.797 2158.19 159.034 2090.73 129.348Z" fill="url(#paint1_linear_467_6726)"/>
<path d="M1666.22 247.465L1830.36 129.348L1872.63 77.9325L1931.2 39.802H1940.91L1927.86 48.8906L1940.91 46.3834L1917.38 83.3648L1953.81 41.5779L1957.16 19.2742L1990.51 0C1990.51 0 1951.51 8.28773 1850.16 71.1073L1666.22 247.465Z" fill="url(#paint2_linear_467_6726)"/>
<path d="M1969.7 104.555L2017.83 101.63L2079.01 123.724L2021.99 93.7945L2012.37 92.123L2011.53 88.3622L1987.98 78.7512L1936.28 104.555L1915.78 137.88L1917.7 156.684V138.768L1934.76 124.873L1969.7 104.555Z" fill="url(#paint3_linear_467_6726)"/>
<path d="M1484.78 316.728L1477.62 329.49L1479.47 339.711L1443.31 390.308V386.512L1471.62 338.771L1470.37 328.115L1473.94 313.368L1484.78 316.728Z" fill="url(#paint4_linear_467_6726)"/>
<path d="M1665.63 404.306L1681.54 404.602L1794.85 351.15L1801.09 361.057L1830.36 377.702L1851.73 402.356L1833.1 371.608L1848.91 348.137L1883.51 377.702L1865.89 355.015L1910.91 297.018L1959.23 246.944L2042.07 226.938L2047.09 219.991L2045.84 183.01L2095.41 148.257L2164.64 164.798L2199.15 213.793L2093.17 333.042L1945.46 407.057L1679.59 416.825L1665.63 404.306Z" fill="url(#paint5_linear_467_6726)"/>
<path d="M977.429 267.071L1054.01 234.808H1093.02L1111.97 266.688L1171.96 345.473L1296.37 283.89L1321.44 229.323L1401.25 202.492L1457.97 141.762L1491.48 161.907L1556.28 229.201L1731.52 360.812L1789.45 284.865L1839.3 258.052L1884.32 167.217L1917.25 141.762L1955.99 173.451L1970.88 199.533L2062.24 246.995L2137.72 320.122L2204.9 356.32L2276 425.861L876.307 426" fill="url(#paint6_linear_467_6726)"/>
<path d="M1459.72 141.762V219.103L1482.65 312.914L1521.23 345.473L1506.24 300.709L1505.15 229.201L1636.81 300.709L1702.23 337.847L1557.85 229.201L1493.18 161.907L1459.72 141.762Z" fill="url(#paint7_linear_467_6726)"/>
<path d="M1965.01 194.919L1994.01 232.527L2041.59 258.052L2160.84 394.451L2138.16 320.122L2062.83 246.995L1971.65 199.533L1956.78 173.451L1918.12 141.762L1885.27 167.217L1965.01 194.919Z" fill="url(#paint8_linear_467_6726)"/>
<path d="M1093.03 234.809L1071.77 266.358L1082.4 300.71L1100.77 290.455L1167.9 394.452L1198.48 379.81L1111.94 266.472L1093.03 234.809Z" fill="url(#paint9_linear_467_6726)"/>
<path d="M1321.45 229.323L1416.21 295.555C1416.21 295.555 1448.36 341.486 1447.93 340.459C1447.52 339.431 1418.15 289.531 1418.15 289.531L1351.08 228.348L1401.25 202.492L1321.45 229.323Z" fill="url(#paint10_linear_467_6726)"/>
<path d="M1789.11 285.047L1881.46 313.549L1951.89 298.454L1982.13 247.648L1942.15 291.733H1881.46L1830.79 263.962L1789.11 285.047Z" fill="url(#paint11_linear_467_6726)"/>
<path d="M415.843 108.223C415.843 108.223 316.237 55.9523 305.483 60.2698L231.955 147.789L175.456 171.872L149.072 205.158L146.008 204.992L145.968 252.093L117.974 269.117L86.9807 301.5H51.9884L0 361.5H703.345L593.37 246L558.229 226.366L415.843 108.223Z" fill="url(#paint12_linear_467_6726)"/>
<path d="M231.956 147.79L286.416 188.681V193.614L336.306 225.977L342.995 233.748L369.405 261.699L332.468 227.68C332.468 227.68 272.505 216.253 269.147 214.089C265.789 211.924 265.309 209.369 265.309 209.369V204.993L266.269 184.245L228.372 160.636H222.269L175.457 171.873C175.457 171.873 180.388 167.957 231.956 147.79Z" fill="url(#paint13_linear_467_6726)"/>
<path d="M556.449 228.034L430.979 147.789L398.666 112.859L353.893 86.9549H346.471L356.452 93.1294L346.471 91.426L364.46 116.55L336.61 88.1614L334.052 73.009L308.561 59.9148C308.561 59.9148 338.369 65.5452 415.842 108.223L556.449 228.034Z" fill="url(#paint14_linear_467_6726)"/>
<path d="M324.47 130.946L287.679 128.958L240.908 143.969L284.495 123.636L291.85 122.5L292.49 119.945L310.492 113.416L350.014 130.946L365.685 153.586L364.219 166.36V154.189L351.174 144.75L324.47 130.946Z" fill="url(#paint15_linear_467_6726)"/>
<path d="M556.903 334.585L544.737 334.786L458.123 298.473L453.353 305.203L430.98 316.511L414.643 333.261L428.888 312.371L416.802 296.426L390.352 316.511L403.823 301.099L369.404 261.698L332.467 227.679L269.146 214.088L265.308 209.368L266.267 184.245L228.371 160.635L175.456 171.872L149.072 205.157L230.09 286.171L342.994 336.454L546.23 343.09L556.903 334.585Z" fill="url(#paint16_linear_467_6726)"/>
<path d="M540.783 186.734L595.243 227.626V232.558L645.132 264.921L651.822 272.692L678.232 300.643L641.295 266.624C641.295 266.624 596.727 249.812 593.369 247.648C590.012 245.483 589.532 242.928 589.532 242.928V238.552L575.095 223.19L537.198 199.58H531.095L484.284 210.817C484.284 210.817 489.214 206.902 540.783 186.734Z" fill="url(#paint17_linear_467_6726)"/>
<path d="M865.73 373.53L853.564 373.731L766.95 337.417L762.18 344.148L739.807 355.456L723.47 372.205L737.715 351.316L725.629 335.371L699.178 355.456L712.65 340.043L678.231 300.642L641.294 266.624L595.708 243.38L591.87 238.66L575.094 223.189L537.197 199.579L484.283 210.816L457.899 244.102L412.909 355.456L651.821 375.399L855.056 382.035L865.73 373.53Z" fill="url(#paint18_linear_467_6726)"/>
<path d="M473.704 251.143L489.369 283.715C489.369 283.715 529.449 290.293 528.728 289.991C528.017 289.681 492.893 278.603 492.893 278.603L483.895 244.652L468.399 231.67L460.201 241.787L473.704 251.143Z" fill="url(#paint19_linear_467_6726)"/>
<defs>
<linearGradient id="paint0_linear_467_6726" x1="1830.06" y1="418.848" x2="1830.06" y2="0.188791" gradientUnits="userSpaceOnUse">
<stop stop-color="#724EBC"/>
<stop offset="1" stop-color="#25125C"/>
</linearGradient>
<linearGradient id="paint1_linear_467_6726" x1="2133.78" y1="135.675" x2="1943.5" y2="312.948" gradientUnits="userSpaceOnUse">
<stop stop-color="#9A6AD7"/>
<stop offset="1" stop-color="#9A6AD7" stop-opacity="0"/>
</linearGradient>
<linearGradient id="paint2_linear_467_6726" x1="1951.07" y1="9.3373" x2="1675.89" y2="231.345" gradientUnits="userSpaceOnUse">
<stop stop-color="#9A6AD7"/>
<stop offset="1" stop-color="#9A6AD7" stop-opacity="0"/>
</linearGradient>
<linearGradient id="paint3_linear_467_6726" x1="2059.16" y1="81.6917" x2="1973.29" y2="192.428" gradientUnits="userSpaceOnUse">
<stop stop-color="#9A6AD7"/>
<stop offset="1" stop-color="#9A6AD7" stop-opacity="0"/>
</linearGradient>
<linearGradient id="paint4_linear_467_6726" x1="1484.12" y1="354.487" x2="1369.07" y2="342.51" gradientUnits="userSpaceOnUse">
<stop stop-color="#006AB2"/>
<stop offset="0.0758" stop-color="#0A6CB5"/>
<stop offset="0.5018" stop-color="#3E77C8"/>
<stop offset="0.8229" stop-color="#5E7ED3"/>
<stop offset="1" stop-color="#6A81D7"/>
</linearGradient>
<linearGradient id="paint5_linear_467_6726" x1="1924.77" y1="416.782" x2="1924.77" y2="148.282" gradientUnits="userSpaceOnUse">
<stop stop-color="#7652BE"/>
<stop offset="1" stop-color="#25125C"/>
</linearGradient>
<linearGradient id="paint6_linear_467_6726" x1="1556.17" y1="425.955" x2="1556.17" y2="141.789" gradientUnits="userSpaceOnUse">
<stop stop-color="#6843B4"/>
<stop offset="1" stop-color="#25115F"/>
</linearGradient>
<linearGradient id="paint7_linear_467_6726" x1="1672.74" y1="149.449" x2="1451.73" y2="311.427" gradientUnits="userSpaceOnUse">
<stop stop-color="#9A6AD7"/>
<stop offset="1" stop-color="#9A6AD7" stop-opacity="0"/>
</linearGradient>
<linearGradient id="paint8_linear_467_6726" x1="2127.33" y1="151.297" x2="1861.24" y2="329.953" gradientUnits="userSpaceOnUse">
<stop stop-color="#9A6AD7"/>
<stop offset="1" stop-color="#9A6AD7" stop-opacity="0"/>
</linearGradient>
<linearGradient id="paint9_linear_467_6726" x1="1185.7" y1="240.832" x2="1040.36" y2="313.526" gradientUnits="userSpaceOnUse">
<stop stop-color="#9A6AD7"/>
<stop offset="1" stop-color="#9A6AD7" stop-opacity="0"/>
</linearGradient>
<linearGradient id="paint10_linear_467_6726" x1="1432.55" y1="207.699" x2="1298.16" y2="283.545" gradientUnits="userSpaceOnUse">
<stop stop-color="#9A6AD7"/>
<stop offset="1" stop-color="#9A6AD7" stop-opacity="0"/>
</linearGradient>
<linearGradient id="paint11_linear_467_6726" x1="1958.66" y1="250.134" x2="1895.06" y2="364.82" gradientUnits="userSpaceOnUse">
<stop stop-color="#9A6AD7"/>
<stop offset="1" stop-color="#9A6AD7" stop-opacity="0"/>
</linearGradient>
<linearGradient id="paint12_linear_467_6726" x1="431.21" y1="344.465" x2="431.21" y2="60.043" gradientUnits="userSpaceOnUse">
<stop stop-color="#724EBC"/>
<stop offset="1" stop-color="#25125C"/>
</linearGradient>
<linearGradient id="paint13_linear_467_6726" x1="199.044" y1="152.088" x2="328.497" y2="287.786" gradientUnits="userSpaceOnUse">
<stop stop-color="#9A6AD7"/>
<stop offset="1" stop-color="#9A6AD7" stop-opacity="0"/>
</linearGradient>
<linearGradient id="paint14_linear_467_6726" x1="338.708" y1="66.2582" x2="529.088" y2="239.079" gradientUnits="userSpaceOnUse">
<stop stop-color="#9A6AD7"/>
<stop offset="1" stop-color="#9A6AD7" stop-opacity="0"/>
</linearGradient>
<linearGradient id="paint15_linear_467_6726" x1="256.083" y1="115.413" x2="312.374" y2="197.089" gradientUnits="userSpaceOnUse">
<stop stop-color="#9A6AD7"/>
<stop offset="1" stop-color="#9A6AD7" stop-opacity="0"/>
</linearGradient>
<linearGradient id="paint16_linear_467_6726" x1="358.81" y1="343.061" x2="358.81" y2="160.652" gradientUnits="userSpaceOnUse">
<stop stop-color="#7652BE"/>
<stop offset="1" stop-color="#25125C"/>
</linearGradient>
<linearGradient id="paint17_linear_467_6726" x1="507.871" y1="191.032" x2="637.324" y2="326.73" gradientUnits="userSpaceOnUse">
<stop stop-color="#9A6AD7"/>
<stop offset="1" stop-color="#9A6AD7" stop-opacity="0"/>
</linearGradient>
<linearGradient id="paint18_linear_467_6726" x1="667.637" y1="382.006" x2="667.637" y2="199.597" gradientUnits="userSpaceOnUse">
<stop stop-color="#7652BE"/>
<stop offset="1" stop-color="#25125C"/>
</linearGradient>
<linearGradient id="paint19_linear_467_6726" x1="473.172" y1="231.674" x2="451.666" y2="259.192" gradientUnits="userSpaceOnUse">
<stop stop-color="#9A6AD7"/>
<stop offset="1" stop-color="#9A6AD7" stop-opacity="0"/>
</linearGradient>
</defs>
</svg>
