<svg width="64" height="64" viewBox="0 0 64 64" fill="none" xmlns="http://www.w3.org/2000/svg">
<path d="M60.9523 33.5236H64.0001V36.5714H60.9523V33.5236ZM60.9523 30.4761H64.0001V33.5236H60.9523V30.4761ZM57.9048 36.5714H60.9523V39.6189H57.9048V36.5714Z" fill="black"/>
<path d="M57.9048 33.5236H60.9523V36.5714H57.9048V33.5236ZM57.9048 30.4761H60.9523V33.5236H57.9048V30.4761Z" fill="#FE892D"/>
<path d="M57.9047 27.4285H60.9523V30.4761H57.9047V27.4285ZM57.9047 24.381H60.9523V27.4285H57.9047V24.381ZM57.9047 21.3332H60.9523V24.381H57.9047V21.3332ZM57.9047 18.2857H60.9523V21.3332H57.9047V18.2857ZM57.9047 15.2381H60.9523V18.2857H57.9047V15.2381ZM57.9047 12.1904H60.9523V15.2381H57.9047V12.1904ZM57.9047 9.14282H60.9523V12.1904H57.9047V9.14282ZM54.8572 48.7618H57.9047V51.8093H54.8572V48.7618ZM54.8572 45.7143H57.9047V48.7618H54.8572V45.7143ZM54.8572 42.6665H57.9047V45.7143H54.8572V42.6665ZM54.8572 39.6189H57.9047V42.6665H54.8572V39.6189ZM54.8572 36.5714H57.9047V39.6189H54.8572V36.5714Z" fill="black"/>
<path d="M54.8572 33.5237H57.9047V36.5715H54.8572V33.5237Z" fill="#FE892D"/>
<path d="M54.8572 30.4761H57.9047V33.5236H54.8572V30.4761Z" fill="#DD0030"/>
<path d="M54.8572 27.4286H57.9047V30.4762H54.8572V27.4286ZM54.8572 24.3811H57.9047V27.4286H54.8572V24.3811ZM54.8572 21.3333H57.9047V24.3811H54.8572V21.3333ZM54.8572 18.2858H57.9047V21.3333H54.8572V18.2858Z" fill="#FE892D"/>
<path d="M54.8572 15.2382H57.9047V18.2857H54.8572V15.2382Z" fill="white"/>
<path d="M54.8572 12.1904H57.9047V15.2381H54.8572V12.1904ZM54.8572 9.14282H57.9047V12.1904H54.8572V9.14282Z" fill="#FE892D"/>
<path d="M54.8571 6.09534H57.9046V9.14288H54.8571V6.09534ZM51.8093 51.8094H54.8571V54.8572H51.8093V51.8094ZM51.8093 48.7619H54.8571V51.8094H51.8093V48.7619Z" fill="black"/>
<path d="M51.8093 45.7143H54.8571V48.7618H51.8093V45.7143ZM51.8093 42.6665H54.8571V45.7143H51.8093V42.6665ZM51.8093 39.619H54.8571V42.6665H51.8093V39.619ZM51.8093 36.5714H54.8571V39.619H51.8093V36.5714Z" fill="#7A3B0F"/>
<path d="M51.8093 33.5237H54.8571V36.5714H51.8093V33.5237ZM51.8093 30.4761H54.8571V33.5237H51.8093V30.4761ZM51.8093 27.4286H54.8571V30.4761H51.8093V27.4286Z" fill="#FE892D"/>
<path d="M51.8093 24.381H54.8571V27.4285H51.8093V24.381Z" fill="white"/>
<path d="M51.8093 21.3333H54.8571V24.3811H51.8093V21.3333ZM51.8093 18.2857H54.8571V21.3333H51.8093V18.2857ZM51.8093 15.2382H54.8571V18.2857H51.8093V15.2382ZM51.8093 12.1904H54.8571V15.2382H51.8093V12.1904Z" fill="#7A3B0F"/>
<path d="M51.8093 9.14282H54.8571V12.1904H51.8093V9.14282Z" fill="#FE892D"/>
<path d="M51.8093 6.09534H54.857V9.14288H51.8093V6.09534ZM48.7617 54.8572H51.8093V57.9047H48.7617V54.8572Z" fill="black"/>
<path d="M48.7617 51.8093H51.8093V54.8571H48.7617V51.8093ZM48.7617 48.7618H51.8093V51.8093H48.7617V48.7618ZM48.7617 45.7142H51.8093V48.7618H48.7617V45.7142Z" fill="#7A3B0F"/>
<path d="M48.7617 42.6665H51.8093V45.7143H48.7617V42.6665Z" fill="#311809"/>
<path d="M48.7617 39.619H51.8093V42.6666H48.7617V39.619Z" fill="white"/>
<path d="M48.7617 36.5714H51.8093V39.619H48.7617V36.5714Z" fill="#311809"/>
<path d="M48.7617 33.5237H51.8093V36.5715H48.7617V33.5237Z" fill="#FC9956"/>
<path d="M48.7617 30.4761H51.8093V33.5236H48.7617V30.4761Z" fill="#FE892D"/>
<path d="M48.7617 27.4285H51.8093V30.4761H48.7617V27.4285ZM48.7617 24.381H51.8093V27.4285H48.7617V24.381Z" fill="#7A3B0F"/>
<path d="M48.7617 21.3333H51.8093V24.381H48.7617V21.3333Z" fill="#FE892D"/>
<path d="M48.7617 18.2858H51.8093V21.3333H48.7617V18.2858Z" fill="white"/>
<path d="M48.7617 15.2382H51.8093V18.2857H48.7617V15.2382ZM48.7617 12.1904H51.8093V15.2382H48.7617V12.1904Z" fill="#7A3B0F"/>
<path d="M48.7617 9.14282H51.8093V12.1904H48.7617V9.14282Z" fill="#FE892D"/>
<path d="M48.7619 6.09534H51.8094V9.14288H48.7619V6.09534ZM45.7144 54.8572H48.7619V57.9047H45.7144V54.8572Z" fill="black"/>
<path d="M45.7144 51.8094H48.7619V54.8572H45.7144V51.8094ZM45.7144 48.7618H48.7619V51.8094H45.7144V48.7618Z" fill="#7A3B0F"/>
<path d="M45.7144 45.7142H48.7619V48.7618H45.7144V45.7142Z" fill="#311809"/>
<path d="M45.7144 42.6665H48.7619V45.7143H45.7144V42.6665Z" fill="#7A3B0F"/>
<path d="M45.7144 39.619H48.7619V42.6665H45.7144V39.619ZM45.7144 36.5714H48.7619V39.619H45.7144V36.5714Z" fill="#311809"/>
<path d="M45.7144 33.5237H48.7619V36.5715H45.7144V33.5237Z" fill="#FC9956"/>
<path d="M45.7144 30.4761H48.7619V33.5237H45.7144V30.4761ZM45.7144 27.4286H48.7619V30.4761H45.7144V27.4286ZM45.7144 24.381H48.7619V27.4286H45.7144V24.381ZM45.7144 21.3333H48.7619V24.381H45.7144V21.3333Z" fill="#FE892D"/>
<path d="M45.7144 18.2858H48.7619V21.3333H45.7144V18.2858Z" fill="white"/>
<path d="M45.7144 15.2382H48.7619V18.2857H45.7144V15.2382ZM45.7144 12.1904H48.7619V15.2382H45.7144V12.1904Z" fill="#FE892D"/>
<path d="M45.7143 9.14282H48.7618V12.1904H45.7143V9.14282ZM42.6665 51.8093H45.7143V54.8571H42.6665V51.8093Z" fill="black"/>
<path d="M42.6665 48.7618H45.7143V51.8093H42.6665V48.7618ZM42.6665 45.7142H45.7143V48.7618H42.6665V45.7142Z" fill="#7A3B0F"/>
<path d="M42.6665 42.6665H45.7143V45.7143H42.6665V42.6665ZM42.6665 39.619H45.7143V42.6665H42.6665V39.619ZM42.6665 36.5714H45.7143V39.619H42.6665V36.5714Z" fill="#311809"/>
<path d="M42.6665 33.5237H45.7143V36.5715H42.6665V33.5237Z" fill="#FC9956"/>
<path d="M42.6665 30.4761H45.7143V33.5236H42.6665V30.4761Z" fill="#FE892D"/>
<path d="M42.6665 27.4286H45.7143V30.4761H42.6665V27.4286ZM42.6665 24.3811H45.7143V27.4286H42.6665V24.3811ZM42.6665 21.3333H45.7143V24.3811H42.6665V21.3333ZM42.6665 18.2857H45.7143V21.3333H42.6665V18.2857ZM42.6665 15.2382H45.7143V18.2857H42.6665V15.2382ZM42.6665 12.1904H45.7143V15.2382H42.6665V12.1904Z" fill="#7A3B0F"/>
<path d="M42.6664 9.14282H45.7142V12.1904H42.6664V9.14282ZM39.6189 51.8093H42.6664V54.8571H39.6189V51.8093Z" fill="black"/>
<path d="M39.6189 48.7618H42.6664V51.8094H39.6189V48.7618Z" fill="#7A3B0F"/>
<path d="M39.6189 45.7142H42.6664V48.7618H39.6189V45.7142Z" fill="#311809"/>
<path d="M39.6189 42.6665H42.6664V45.7143H39.6189V42.6665Z" fill="#7A3B0F"/>
<path d="M39.6189 39.619H42.6664V42.6665H39.6189V39.619ZM39.6189 36.5714H42.6664V39.619H39.6189V36.5714Z" fill="#311809"/>
<path d="M39.6189 33.5237H42.6664V36.5715H39.6189V33.5237Z" fill="#FC9956"/>
<path d="M39.6189 30.4761H42.6664V33.5236H39.6189V30.4761Z" fill="#FE892D"/>
<path d="M39.6189 27.4286H42.6664V30.4761H39.6189V27.4286ZM39.6189 24.3811H42.6664V27.4286H39.6189V24.3811ZM39.6189 21.3333H42.6664V24.3811H39.6189V21.3333ZM39.6189 18.2857H42.6664V21.3333H39.6189V18.2857ZM39.6189 15.2382H42.6664V18.2857H39.6189V15.2382ZM39.6189 12.1904H42.6664V15.2382H39.6189V12.1904Z" fill="#7A3B0F"/>
<path d="M39.6191 9.14282H42.6666V12.1904H39.6191V9.14282ZM36.5715 51.8093H39.6191V54.8571H36.5715V51.8093Z" fill="black"/>
<path d="M36.5715 48.7618H39.6191V51.8094H36.5715V48.7618ZM36.5715 45.7143H39.6191V48.7618H36.5715V45.7143ZM36.5715 42.6665H39.6191V45.7143H36.5715V42.6665Z" fill="#7A3B0F"/>
<path d="M36.5715 39.619H39.6191V42.6665H36.5715V39.619ZM36.5715 36.5715H39.6191V39.619H36.5715V36.5715ZM36.5715 33.5237H39.6191V36.5715H36.5715V33.5237Z" fill="#311809"/>
<path d="M36.5715 30.4761H39.6191V33.5237H36.5715V30.4761ZM36.5715 27.4286H39.6191V30.4761H36.5715V27.4286ZM36.5715 24.381H39.6191V27.4286H36.5715V24.381ZM36.5715 21.3333H39.6191V24.381H36.5715V21.3333Z" fill="#FE892D"/>
<path d="M36.5715 18.2857H39.6191V21.3333H36.5715V18.2857ZM36.5715 15.2382H39.6191V18.2857H36.5715V15.2382ZM36.5715 12.1904H39.6191V15.2382H36.5715V12.1904Z" fill="#7A3B0F"/>
<path d="M36.5715 9.14282H39.619V12.1904H36.5715V9.14282ZM33.5237 51.8093H36.5715V54.8571H33.5237V51.8093Z" fill="black"/>
<path d="M33.5237 48.7618H36.5715V51.8094H33.5237V48.7618Z" fill="#7A3B0F"/>
<path d="M33.5237 45.7143H36.5715V48.7618H33.5237V45.7143ZM33.5237 42.6665H36.5715V45.7143H33.5237V42.6665ZM33.5237 39.619H36.5715V42.6665H33.5237V39.619ZM33.5237 36.5714H36.5715V39.619H33.5237V36.5714Z" fill="#311809"/>
<path d="M33.5237 33.5236H36.5715V36.5714H33.5237V33.5236ZM33.5237 30.4761H36.5715V33.5236H33.5237V30.4761Z" fill="#FE892D"/>
<path d="M33.5237 27.4286H36.5715V30.4761H33.5237V27.4286Z" fill="black"/>
<path d="M33.5237 24.381H36.5715V27.4285H33.5237V24.381Z" fill="#FE892D"/>
<path d="M33.5237 21.3333H36.5715V24.381H33.5237V21.3333Z" fill="white"/>
<path d="M33.5237 18.2857H36.5715V21.3333H33.5237V18.2857ZM33.5237 15.2382H36.5715V18.2857H33.5237V15.2382ZM33.5237 12.1904H36.5715V15.2382H33.5237V12.1904Z" fill="#FE892D"/>
<path d="M33.5236 9.14282H36.5714V12.1904H33.5236V9.14282ZM30.4761 51.8093H33.5236V54.8571H30.4761V51.8093Z" fill="black"/>
<path d="M30.4761 48.7618H33.5236V51.8094H30.4761V48.7618Z" fill="#7A3B0F"/>
<path d="M30.4761 45.7143H33.5236V48.7618H30.4761V45.7143ZM30.4761 42.6665H33.5236V45.7143H30.4761V42.6665ZM30.4761 39.619H33.5236V42.6665H30.4761V39.619ZM30.4761 36.5714H33.5236V39.619H30.4761V36.5714Z" fill="#311809"/>
<path d="M30.4761 33.5237H33.5236V36.5715H30.4761V33.5237Z" fill="#FE892D"/>
<path d="M30.4761 30.4761H33.5236V33.5237H30.4761V30.4761ZM30.4761 27.4286H33.5236V30.4761H30.4761V27.4286Z" fill="black"/>
<path d="M30.4761 24.381H33.5236V27.4285H30.4761V24.381Z" fill="#FE892D"/>
<path d="M30.4761 21.3333H33.5236V24.381H30.4761V21.3333Z" fill="#DD0030"/>
<path d="M30.4761 18.2858H33.5236V21.3333H30.4761V18.2858Z" fill="#FE892D"/>
<path d="M30.4761 15.2382H33.5236V18.2857H30.4761V15.2382Z" fill="#DD0030"/>
<path d="M30.4761 12.1904H33.5236V15.2382H30.4761V12.1904Z" fill="#FE892D"/>
<path d="M30.476 9.14282H33.5236V12.1904H30.476V9.14282ZM27.4285 51.8093H30.476V54.8571H27.4285V51.8093Z" fill="black"/>
<path d="M27.4285 48.7618H30.476V51.8094H27.4285V48.7618Z" fill="#7A3B0F"/>
<path d="M27.4285 45.7143H30.476V48.7618H27.4285V45.7143ZM27.4285 42.6665H30.476V45.7143H27.4285V42.6665ZM27.4285 39.619H30.476V42.6665H27.4285V39.619ZM27.4285 36.5714H30.476V39.619H27.4285V36.5714Z" fill="#311809"/>
<path d="M27.4285 33.5236H30.476V36.5714H27.4285V33.5236ZM27.4285 30.4761H30.476V33.5236H27.4285V30.4761Z" fill="#FE892D"/>
<path d="M27.4285 27.4286H30.476V30.4761H27.4285V27.4286Z" fill="black"/>
<path d="M27.4285 24.381H30.476V27.4286H27.4285V24.381ZM27.4285 21.3333H30.476V24.381H27.4285V21.3333Z" fill="#FE892D"/>
<path d="M27.4285 18.2858H30.476V21.3333H27.4285V18.2858Z" fill="white"/>
<path d="M27.4285 15.2382H30.476V18.2857H27.4285V15.2382ZM27.4285 12.1904H30.476V15.2382H27.4285V12.1904Z" fill="#FE892D"/>
<path d="M27.4286 9.14282H30.4762V12.1904H27.4286V9.14282ZM24.3811 51.8093H27.4286V54.8571H24.3811V51.8093Z" fill="black"/>
<path d="M24.3811 48.7618H27.4286V51.8094H24.3811V48.7618ZM24.3811 45.7143H27.4286V48.7618H24.3811V45.7143ZM24.3811 42.6665H27.4286V45.7143H24.3811V42.6665Z" fill="#7A3B0F"/>
<path d="M24.3811 39.619H27.4286V42.6665H24.3811V39.619ZM24.3811 36.5715H27.4286V39.619H24.3811V36.5715ZM24.3811 33.5237H27.4286V36.5715H24.3811V33.5237Z" fill="#311809"/>
<path d="M24.3811 30.4761H27.4286V33.5237H24.3811V30.4761ZM24.3811 27.4286H27.4286V30.4761H24.3811V27.4286ZM24.3811 24.381H27.4286V27.4286H24.3811V24.381ZM24.3811 21.3333H27.4286V24.381H24.3811V21.3333Z" fill="#FE892D"/>
<path d="M24.3811 18.2857H27.4286V21.3333H24.3811V18.2857ZM24.3811 15.2382H27.4286V18.2857H24.3811V15.2382ZM24.3811 12.1904H27.4286V15.2382H24.3811V12.1904Z" fill="#7A3B0F"/>
<path d="M24.381 9.14282H27.4286V12.1904H24.381V9.14282ZM21.3333 51.8093H24.381V54.8571H21.3333V51.8093Z" fill="black"/>
<path d="M21.3333 48.7618H24.381V51.8094H21.3333V48.7618Z" fill="#7A3B0F"/>
<path d="M21.3333 45.7142H24.381V48.7618H21.3333V45.7142Z" fill="#311809"/>
<path d="M21.3333 42.6665H24.381V45.7143H21.3333V42.6665Z" fill="#7A3B0F"/>
<path d="M21.3333 39.619H24.381V42.6666H21.3333V39.619Z" fill="white"/>
<path d="M21.3333 36.5714H24.381V39.619H21.3333V36.5714Z" fill="#311809"/>
<path d="M21.3333 33.5237H24.381V36.5715H21.3333V33.5237Z" fill="#FC9956"/>
<path d="M21.3333 30.4761H24.381V33.5236H21.3333V30.4761Z" fill="#FE892D"/>
<path d="M21.3333 27.4286H24.381V30.4761H21.3333V27.4286ZM21.3333 24.3811H24.381V27.4286H21.3333V24.3811ZM21.3333 21.3333H24.381V24.3811H21.3333V21.3333ZM21.3333 18.2857H24.381V21.3333H21.3333V18.2857ZM21.3333 15.2382H24.381V18.2857H21.3333V15.2382ZM21.3333 12.1904H24.381V15.2382H21.3333V12.1904Z" fill="#7A3B0F"/>
<path d="M21.3332 9.14282H24.381V12.1904H21.3332V9.14282ZM18.2856 51.8093H21.3332V54.8571H18.2856V51.8093Z" fill="black"/>
<path d="M18.2856 48.7618H21.3332V51.8093H18.2856V48.7618ZM18.2856 45.7142H21.3332V48.7618H18.2856V45.7142Z" fill="#7A3B0F"/>
<path d="M18.2856 42.6665H21.3332V45.7143H18.2856V42.6665Z" fill="#311809"/>
<path d="M18.2856 39.619H21.3332V42.6665H18.2856V39.619ZM18.2856 36.5714H21.3332V39.619H18.2856V36.5714Z" fill="white"/>
<path d="M18.2856 33.5237H21.3332V36.5715H18.2856V33.5237Z" fill="#FC9956"/>
<path d="M18.2856 30.4761H21.3332V33.5236H18.2856V30.4761Z" fill="#FE892D"/>
<path d="M18.2856 27.4286H21.3332V30.4761H18.2856V27.4286ZM18.2856 24.3811H21.3332V27.4286H18.2856V24.3811ZM18.2856 21.3333H21.3332V24.3811H18.2856V21.3333ZM18.2856 18.2857H21.3332V21.3333H18.2856V18.2857ZM18.2856 15.2382H21.3332V18.2857H18.2856V15.2382ZM18.2856 12.1904H21.3332V15.2382H18.2856V12.1904Z" fill="#7A3B0F"/>
<path d="M18.2858 9.14282H21.3334V12.1904H18.2858V9.14282ZM15.2383 54.8571H18.2858V57.9047H15.2383V54.8571Z" fill="black"/>
<path d="M15.2383 51.8094H18.2858V54.8572H15.2383V51.8094ZM15.2383 48.7618H18.2858V51.8094H15.2383V48.7618Z" fill="#7A3B0F"/>
<path d="M15.2383 45.7142H18.2858V48.7618H15.2383V45.7142Z" fill="#311809"/>
<path d="M15.2383 42.6665H18.2858V45.7143H15.2383V42.6665Z" fill="#7A3B0F"/>
<path d="M15.2383 39.619H18.2858V42.6665H15.2383V39.619ZM15.2383 36.5714H18.2858V39.619H15.2383V36.5714Z" fill="#311809"/>
<path d="M15.2383 33.5237H18.2858V36.5715H15.2383V33.5237Z" fill="#FC9956"/>
<path d="M15.2383 30.4761H18.2858V33.5237H15.2383V30.4761ZM15.2383 27.4286H18.2858V30.4761H15.2383V27.4286ZM15.2383 24.381H18.2858V27.4286H15.2383V24.381ZM15.2383 21.3333H18.2858V24.381H15.2383V21.3333Z" fill="#FE892D"/>
<path d="M15.2383 18.2858H18.2858V21.3333H15.2383V18.2858Z" fill="white"/>
<path d="M15.2383 15.2382H18.2858V18.2857H15.2383V15.2382ZM15.2383 12.1904H18.2858V15.2382H15.2383V12.1904Z" fill="#FE892D"/>
<path d="M15.2382 9.14282H18.2857V12.1904H15.2382V9.14282ZM12.1904 54.8571H15.2382V57.9047H12.1904V54.8571Z" fill="black"/>
<path d="M12.1904 51.8093H15.2382V54.8571H12.1904V51.8093ZM12.1904 48.7618H15.2382V51.8093H12.1904V48.7618ZM12.1904 45.7142H15.2382V48.7618H12.1904V45.7142Z" fill="#7A3B0F"/>
<path d="M12.1904 42.6665H15.2382V45.7143H12.1904V42.6665ZM12.1904 39.619H15.2382V42.6665H12.1904V39.619ZM12.1904 36.5714H15.2382V39.619H12.1904V36.5714Z" fill="#311809"/>
<path d="M12.1904 33.5237H15.2382V36.5715H12.1904V33.5237Z" fill="#FC9956"/>
<path d="M12.1904 30.4761H15.2382V33.5236H12.1904V30.4761Z" fill="#FE892D"/>
<path d="M12.1904 27.4286H15.2382V30.4761H12.1904V27.4286Z" fill="white"/>
<path d="M12.1904 24.381H15.2382V27.4285H12.1904V24.381Z" fill="#7A3B0F"/>
<path d="M12.1904 21.3333H15.2382V24.381H12.1904V21.3333Z" fill="#FE892D"/>
<path d="M12.1904 18.2858H15.2382V21.3333H12.1904V18.2858Z" fill="white"/>
<path d="M12.1904 15.2382H15.2382V18.2857H12.1904V15.2382ZM12.1904 12.1904H15.2382V15.2382H12.1904V12.1904Z" fill="#7A3B0F"/>
<path d="M12.1904 9.14282H15.2382V12.1904H12.1904V9.14282Z" fill="#FE892D"/>
<path d="M12.1904 6.09534H15.2381V9.14288H12.1904V6.09534ZM9.14282 51.8094H12.1904V54.8572H9.14282V51.8094ZM9.14282 48.7619H12.1904V51.8094H9.14282V48.7619Z" fill="black"/>
<path d="M9.14282 45.7143H12.1904V48.7618H9.14282V45.7143ZM9.14282 42.6665H12.1904V45.7143H9.14282V42.6665ZM9.14282 39.619H12.1904V42.6665H9.14282V39.619ZM9.14282 36.5714H12.1904V39.619H9.14282V36.5714Z" fill="#7A3B0F"/>
<path d="M9.14282 33.5237H12.1904V36.5714H9.14282V33.5237ZM9.14282 30.4761H12.1904V33.5237H9.14282V30.4761ZM9.14282 27.4286H12.1904V30.4761H9.14282V27.4286Z" fill="#FE892D"/>
<path d="M9.14282 24.3811H12.1904V27.4286H9.14282V24.3811ZM9.14282 21.3333H12.1904V24.3811H9.14282V21.3333ZM9.14282 18.2857H12.1904V21.3333H9.14282V18.2857ZM9.14282 15.2382H12.1904V18.2857H9.14282V15.2382ZM9.14282 12.1904H12.1904V15.2382H9.14282V12.1904Z" fill="#7A3B0F"/>
<path d="M9.14282 9.14282H12.1904V12.1904H9.14282V9.14282Z" fill="#FE892D"/>
<path d="M9.14276 6.09534H12.1903V9.14288H9.14276V6.09534ZM6.09521 48.7619H9.14276V51.8094H6.09521V48.7619ZM6.09521 45.7143H9.14276V48.7619H6.09521V45.7143ZM6.09521 42.6665H9.14276V45.7143H6.09521V42.6665ZM6.09521 39.619H9.14276V42.6665H6.09521V39.619ZM6.09521 36.5715H9.14276V39.619H6.09521V36.5715Z" fill="black"/>
<path d="M6.09521 33.5237H9.14276V36.5715H6.09521V33.5237Z" fill="#FE892D"/>
<path d="M6.09521 30.4761H9.14276V33.5236H6.09521V30.4761Z" fill="#DD0030"/>
<path d="M6.09521 27.4286H9.14276V30.4762H6.09521V27.4286ZM6.09521 24.3811H9.14276V27.4286H6.09521V24.3811ZM6.09521 21.3333H9.14276V24.3811H6.09521V21.3333ZM6.09521 18.2858H9.14276V21.3333H6.09521V18.2858Z" fill="#FE892D"/>
<path d="M6.09521 15.2382H9.14276V18.2857H6.09521V15.2382Z" fill="white"/>
<path d="M6.09521 12.1904H9.14276V15.2381H6.09521V12.1904ZM6.09521 9.14282H9.14276V12.1904H6.09521V9.14282Z" fill="#FE892D"/>
<path d="M6.09538 6.09534H9.14292V9.14288H6.09538V6.09534ZM3.04761 36.5715H6.09538V39.619H3.04761V36.5715Z" fill="black"/>
<path d="M3.04761 33.5236H6.09538V36.5714H3.04761V33.5236ZM3.04761 30.4761H6.09538V33.5236H3.04761V30.4761Z" fill="#FE892D"/>
<path d="M3.04754 27.4285H6.09531V30.4761H3.04754V27.4285ZM3.04754 24.381H6.09531V27.4285H3.04754V24.381ZM3.04754 21.3332H6.09531V24.381H3.04754V21.3332ZM3.04754 18.2857H6.09531V21.3332H3.04754V18.2857ZM3.04754 15.2381H6.09531V18.2857H3.04754V15.2381ZM3.04754 12.1904H6.09531V15.2381H3.04754V12.1904ZM3.04754 9.14282H6.09531V12.1904H3.04754V9.14282ZM0 33.5236H3.04754V36.5714H0V33.5236ZM0 30.4761H3.04754V33.5236H0V30.4761Z" fill="black"/>
</svg>
