<svg width="176" height="40" viewBox="0 0 176 40" fill="none" xmlns="http://www.w3.org/2000/svg">
<path d="M116.815 1C117.024 1.05906 117.237 1.10744 117.442 1.17907C117.785 1.29907 118.032 1.53468 118.041 1.90601C118.05 2.30938 118.036 2.7473 117.655 3.00679C110.311 8.01057 102.988 13.0464 95.4423 17.748C93.7245 18.8179 91.9533 19.778 89.9685 20.2618C89.3113 20.422 88.6322 20.6086 87.9674 20.5923C87.2053 20.574 86.4369 20.3887 85.6917 20.1971C83.6937 19.6831 81.9244 18.6703 80.1909 17.5902C74.4206 13.9976 68.8024 10.1751 63.1703 6.37322C61.5587 5.285 59.9591 4.1792 58.3462 3.09224C57.8618 2.76615 57.8034 2.28927 57.8706 1.7948C57.9316 1.35185 58.3148 1.19729 58.7044 1.09487C58.8344 1.06095 58.9657 1.03141 59.0971 1C62.9284 1 66.7592 1 70.5905 1C70.6791 1.0245 70.7671 1.05592 70.8576 1.07163C71.5449 1.19163 72.1236 1.49259 72.5307 2.07565C75.1576 5.83728 78.0107 9.40979 81.3074 12.616C82.559 13.8336 83.766 15.0984 85.1903 16.1238C86.4984 17.0662 87.9159 17.3653 89.4577 16.8068C90.3166 16.4958 91.0316 15.9384 91.7039 15.3397C96.0989 11.4273 99.9503 7.03482 103.28 2.18749C103.697 1.58118 104.254 1.22933 104.96 1.08105C105.081 1.05592 105.201 1.02702 105.322 1C109.152 1 112.984 1 116.815 1Z" fill="#F5FDFF"/>
<path d="M82.9336 6.00369C82.9782 6.51073 83.0014 6.91661 83.0511 7.31998C83.2396 8.86434 84.243 10.0323 85.7465 10.4414C86.9252 10.7624 88.1246 10.785 89.3171 10.5526C90.9055 10.2428 91.9195 9.29975 92.3034 7.70827C92.5296 6.77147 92.5277 5.82902 92.4184 4.87966C92.2217 3.17257 91.1976 1.99137 89.5245 1.58172C88.2924 1.28013 87.0546 1.31406 85.8395 1.66779C84.3919 2.08938 83.4777 3.05319 83.1372 4.52153C83.0172 5.03611 82.9901 5.57142 82.9336 6.00369Z" fill="#005470"/>
<path d="M70.5893 33.225C70.6804 33.3067 70.7602 33.384 70.845 33.455C72.9398 35.2054 75.0352 36.9558 77.1305 38.7057C77.211 38.7729 77.3014 38.8313 77.3674 38.9105C77.4227 38.9771 77.5012 39.0927 77.4767 39.1417C77.4403 39.2165 77.3303 39.2711 77.2405 39.3C77.1544 39.3277 77.0539 39.3139 76.9596 39.3139C74.4999 39.3145 72.0401 39.3195 69.5809 39.3044C69.3736 39.3032 69.1229 39.2114 68.9671 39.0764C66.5858 37.0168 64.2177 34.9415 61.8415 32.8763C61.6769 32.733 61.6002 32.5885 61.6122 32.368C61.6304 32.0344 61.6285 31.6989 61.6134 31.3646C61.6015 31.0919 61.7177 30.987 61.9816 30.9883C62.8399 30.9927 63.7 31.0222 64.5558 30.9751C65.015 30.9499 65.485 30.8362 65.9167 30.6747C66.3741 30.5032 66.6587 30.1369 66.6398 29.6073C66.6216 29.0921 66.3188 28.7609 65.8695 28.6032C65.4819 28.4669 65.0622 28.3626 64.6538 28.3525C63.357 28.3211 62.0583 28.3481 60.7602 28.3337C60.4831 28.3306 60.4071 28.4085 60.4077 28.6849C60.4165 32.0407 60.4134 35.3964 60.4134 38.7522C60.4134 39.2988 60.3983 39.3151 59.8523 39.3151C57.5496 39.3157 55.2469 39.3157 52.9442 39.3151C52.422 39.3151 52.3906 39.2831 52.3906 38.7691C52.3906 34.7128 52.3906 30.6571 52.3906 26.6008C52.3906 26.1365 52.4233 26.102 52.8901 26.102C58.6887 26.1013 64.4873 26.1013 70.2859 26.1026C71.2622 26.1026 72.2028 26.2609 73.0497 26.7831C74.5413 27.7023 75.1162 29.518 74.3509 30.9355C73.8357 31.8892 72.9706 32.429 71.9936 32.8028C71.55 32.9712 71.0813 33.0786 70.5893 33.225Z" fill="#F7FDFF"/>
<path d="M135.885 26.1038C137.654 26.1038 139.423 26.1019 141.191 26.1038C144.488 26.1069 146.959 28.2519 147.394 31.5266C147.591 33.0088 147.5 34.4758 146.805 35.8374C145.67 38.0653 143.831 39.2647 141.331 39.2974C137.69 39.3452 134.047 39.3433 130.405 39.2993C127.248 39.2616 124.765 37.0003 124.357 33.8482C124.126 32.0644 124.32 30.341 125.353 28.7992C126.536 27.0317 128.226 26.1578 130.329 26.1125C132.18 26.0717 134.033 26.1038 135.885 26.1038ZM132.609 32.508C132.624 32.5086 132.64 32.5099 132.655 32.5105C132.655 32.9076 132.623 33.3078 132.662 33.7011C132.728 34.3835 132.779 35.0759 132.946 35.7375C133.142 36.5178 133.709 36.9991 134.524 37.0431C135.356 37.0883 136.197 37.0751 137.03 37.0192C137.814 36.9664 138.329 36.487 138.601 35.7639C138.699 35.5025 138.789 35.2216 138.798 34.9464C138.844 33.622 138.872 32.2963 138.88 30.9712C138.883 30.5886 138.831 30.199 138.75 29.8239C138.566 28.9644 138.093 28.4819 137.221 28.409C136.297 28.3317 135.359 28.3072 134.435 28.3719C133.416 28.4429 132.877 29.0121 132.763 30.0413C132.67 30.8587 132.657 31.6849 132.609 32.508Z" fill="#F7FDFF"/>
<path d="M158.791 36.9817C158.1 36.5532 157.409 36.1241 156.717 35.6975C155.072 34.6822 153.425 33.6694 151.78 32.6528C150.977 32.1564 150.203 31.6224 149.594 30.8866C149.106 30.296 148.79 29.6464 148.901 28.8465C148.975 28.3188 149.248 27.9097 149.635 27.573C150.531 26.7932 151.604 26.3987 152.76 26.2347C153.389 26.1455 154.03 26.1103 154.666 26.1084C158.653 26.0977 162.64 26.1027 166.627 26.1027C167.191 26.1027 167.191 26.1027 167.192 26.6808C167.192 27.0885 167.193 27.4957 167.191 27.9034C167.19 28.2999 167.157 28.3363 166.764 28.337C165.404 28.3389 164.043 28.3376 162.683 28.3376C161.176 28.3376 159.669 28.3376 158.163 28.3376C158.053 28.3376 157.942 28.3376 157.832 28.3376C157.825 28.359 157.818 28.3803 157.811 28.4023C157.909 28.4695 158.005 28.5412 158.107 28.604C160.4 30.0428 162.694 31.4791 164.986 32.9204C165.873 33.4784 166.741 34.069 167.439 34.8587C167.746 35.2062 168.025 35.6014 168.22 36.0198C168.566 36.765 168.365 37.4586 167.727 37.9814C167.197 38.4149 166.565 38.6361 165.916 38.8095C164.513 39.1852 163.076 39.3071 161.63 39.3096C157.769 39.3165 153.908 39.3121 150.046 39.3121C149.511 39.3121 149.486 39.2857 149.486 38.7429C149.486 38.3144 149.499 37.8852 149.482 37.4574C149.471 37.1646 149.6 37.0647 149.873 37.0703C150.25 37.0779 150.627 37.0716 151.004 37.071C153.484 37.071 155.963 37.071 158.444 37.071C158.554 37.071 158.664 37.071 158.774 37.071C158.778 37.0421 158.785 37.0119 158.791 36.9817Z" fill="#F7FDFF"/>
<path d="M111.128 39.3146C109.433 39.3146 107.737 39.2914 106.043 39.319C102.017 39.385 99.9884 36.2843 99.7308 33.6737C99.6938 33.3005 99.6692 32.9242 99.668 32.5491C99.6617 30.553 99.6648 28.5569 99.6648 26.5601C99.6648 26.1298 99.6919 26.1015 100.133 26.1009C102.571 26.0996 105.009 26.0996 107.448 26.1009C107.879 26.1009 107.908 26.1329 107.91 26.5677C107.921 29.1701 107.92 31.7725 107.955 34.3743C107.961 34.8462 108.063 35.3318 108.209 35.7829C108.484 36.6305 109.086 37.0615 109.977 37.0672C112.164 37.0816 114.351 37.0848 116.538 37.0672C117.681 37.0578 118.533 36.393 118.871 35.1465C119.091 34.3391 119.224 33.4871 119.246 32.6509C119.299 30.6139 119.265 28.5751 119.267 26.5369C119.268 26.1404 119.302 26.1027 119.693 26.1015C120.53 26.099 121.368 26.1059 122.204 26.0977C122.475 26.0952 122.607 26.1794 122.605 26.4747C122.591 28.7322 122.679 30.9947 122.556 33.2459C122.414 35.8665 121.162 37.845 118.672 38.9075C117.923 39.2273 117.118 39.3115 116.308 39.3134C114.581 39.3171 112.855 39.3146 111.128 39.3146Z" fill="#F7FDFF"/>
<path d="M27.5577 34.6699C28.0358 34.2528 28.5002 33.85 28.962 33.4448C31.658 31.0792 34.3553 28.7149 37.0463 26.3437C37.2568 26.1584 37.4698 26.071 37.7506 26.0786C38.3154 26.0949 38.8809 26.0761 39.4458 26.0911C39.5771 26.0949 39.7059 26.1772 39.8359 26.2237C39.7612 26.3387 39.7071 26.4775 39.6079 26.5649C36.1101 29.6341 32.6086 32.699 29.1071 35.7644C27.8637 36.8527 26.6184 37.9384 25.3806 39.0335C25.1884 39.2031 24.9911 39.2917 24.7335 39.2873C24.1058 39.2773 23.4775 39.2986 22.8505 39.2747C22.6702 39.2678 22.4553 39.1918 22.3215 39.0737C17.6092 34.8993 12.9039 30.7173 8.20106 26.5322C8.11498 26.4556 8.06597 26.3362 8 26.2369C8.12754 26.1866 8.25446 26.0937 8.38263 26.0924C10.0043 26.0817 11.6265 26.0842 13.2482 26.0836C14.5664 26.083 15.8852 26.0899 17.2033 26.0786C17.5024 26.0761 17.7336 26.1508 17.9655 26.3525C21.0404 29.0316 24.1247 31.7 27.2065 34.3709C27.3152 34.4657 27.4264 34.5587 27.5577 34.6699Z" fill="#F7FDFF"/>
<path d="M83.6489 28.3389C83.468 28.3389 83.3436 28.3389 83.2192 28.3389C81.5027 28.3389 79.7862 28.3395 78.0703 28.3382C77.6185 28.3382 77.584 28.3024 77.5833 27.8601C77.5827 27.3895 77.5871 26.9195 77.5821 26.4489C77.5796 26.214 77.682 26.0971 77.9188 26.1009C78.0131 26.1021 78.1073 26.0996 78.2016 26.0996C84.565 26.0996 90.9278 26.0996 97.2912 26.0996C97.3961 26.0996 97.5004 26.1002 97.6054 26.1021C97.807 26.1059 97.9094 26.197 97.9069 26.4112C97.9007 26.944 97.8981 27.4775 97.9082 28.0103C97.9126 28.2427 97.8058 28.3338 97.5909 28.3364C97.4967 28.3376 97.4024 28.3382 97.3082 28.3382C95.5709 28.3382 93.8337 28.3382 92.0964 28.3382C91.9726 28.3382 91.8489 28.3382 91.6742 28.3382C91.6742 28.4934 91.6742 28.6241 91.6742 28.7548C91.6742 32.0999 91.6742 35.4443 91.6742 38.7894C91.6742 39.2656 91.6309 39.3115 91.159 39.3121C88.8249 39.3134 86.4914 39.3134 84.1572 39.3121C83.676 39.3121 83.6508 39.2838 83.6502 38.7913C83.6502 35.4569 83.6502 32.1225 83.6502 28.7881C83.6489 28.6549 83.6489 28.5217 83.6489 28.3389Z" fill="#F7FDFF"/>
<path d="M49.226 32.7075C49.226 34.7658 49.226 36.8248 49.226 38.8831C49.226 39.267 49.1852 39.3128 48.7944 39.3134C46.4194 39.3153 44.0444 39.316 41.6694 39.3134C41.2705 39.3128 41.2114 39.2487 41.2114 38.8611C41.2108 34.7545 41.2108 30.6479 41.2114 26.5414C41.2114 26.1581 41.2617 26.106 41.6443 26.106C44.04 26.1047 46.4363 26.1085 48.8321 26.1016C49.1261 26.1009 49.2342 26.1939 49.2329 26.5012C49.2203 28.5695 49.226 30.6385 49.226 32.7075Z" fill="#F7FDFF"/>
<path d="M82.9336 6.00369C82.9901 5.57205 83.0172 5.03611 83.1365 4.52153C83.4771 3.05319 84.3906 2.08938 85.8388 1.66779C87.054 1.31406 88.2911 1.28013 89.5238 1.58172C91.1976 1.99137 92.2211 3.1732 92.4178 4.87966C92.5271 5.82902 92.529 6.7721 92.3028 7.70827C91.9189 9.29975 90.9048 10.2428 89.3165 10.5526C88.1246 10.785 86.9252 10.7624 85.7459 10.4414C84.2423 10.0323 83.2389 8.86434 83.0505 7.31998C83.0014 6.91661 82.9776 6.5101 82.9336 6.00369Z" fill="#F4811F"/>
</svg>
