<svg width="64" height="64" viewBox="0 0 64 64" fill="none" xmlns="http://www.w3.org/2000/svg">
<g clip-path="url(#clip0_243_16912)">
<path d="M60.9523 45.7142H64.0001V48.7618H60.9523V45.7142ZM60.9523 42.6665H64.0001V45.7142H60.9523V42.6665ZM60.9523 39.6189H64.0001V42.6665H60.9523V39.6189ZM60.9523 36.5714H64.0001V39.6189H60.9523V36.5714ZM60.9523 33.5236H64.0001V36.5714H60.9523V33.5236ZM60.9523 30.4761H64.0001V33.5236H60.9523V30.4761ZM60.9523 27.4285H64.0001V30.4761H60.9523V27.4285ZM60.9523 24.381H64.0001V27.4285H60.9523V24.381ZM57.9048 48.7618H60.9523V51.8093H57.9048V48.7618Z" fill="#1B1A52"/>
<path d="M57.9048 45.7143H60.9523V48.7618H57.9048V45.7143ZM57.9048 42.6665H60.9523V45.7143H57.9048V42.6665ZM57.9048 39.619H60.9523V42.6665H57.9048V39.619ZM57.9048 36.5714H60.9523V39.619H57.9048V36.5714ZM57.9048 33.5237H60.9523V36.5714H57.9048V33.5237ZM57.9048 30.4761H60.9523V33.5237H57.9048V30.4761ZM57.9048 27.4286H60.9523V30.4761H57.9048V27.4286Z" fill="#797BF2"/>
<path d="M57.9048 24.381H60.9523V27.4285H57.9048V24.381Z" fill="#BFC4D9"/>
<path d="M57.9047 21.3333H60.9523V24.3811H57.9047V21.3333ZM57.9047 18.2858H60.9523V21.3333H57.9047V18.2858ZM54.8572 51.8094H57.9047V54.8572H54.8572V51.8094Z" fill="#1B1A52"/>
<path d="M54.8572 48.7618H57.9047V51.8093H54.8572V48.7618ZM54.8572 45.7142H57.9047V48.7618H54.8572V45.7142Z" fill="#4951F1"/>
<path d="M54.8572 42.6666H57.9047V45.7143H54.8572V42.6666ZM54.8572 39.619H57.9047V42.6666H54.8572V39.619Z" fill="#797BF2"/>
<path d="M54.8572 36.5714H57.9047V39.6189H54.8572V36.5714ZM54.8572 33.5236H57.9047V36.5714H54.8572V33.5236ZM54.8572 30.4761H57.9047V33.5236H54.8572V30.4761Z" fill="#BFC4D9"/>
<path d="M54.8572 27.4286H57.9047V30.4761H54.8572V27.4286Z" fill="#4951F1"/>
<path d="M54.8572 24.381H57.9047V27.4285H54.8572V24.381Z" fill="#BFC4D9"/>
<path d="M54.8572 21.3333H57.9047V24.3811H54.8572V21.3333ZM54.8572 18.2858H57.9047V21.3333H54.8572V18.2858Z" fill="#4951F1"/>
<path d="M54.8571 15.2382H57.9046V18.2857H54.8571V15.2382ZM54.8571 12.1904H57.9046V15.2382H54.8571V12.1904ZM51.8093 48.7619H54.8571V51.8094H51.8093V48.7619Z" fill="#1B1A52"/>
<path d="M51.8093 45.7142H54.8571V48.7618H51.8093V45.7142Z" fill="#4951F1"/>
<path d="M51.8093 42.6665H54.8571V45.7143H51.8093V42.6665ZM51.8093 39.619H54.8571V42.6665H51.8093V39.619ZM51.8093 36.5715H54.8571V39.619H51.8093V36.5715ZM51.8093 33.5237H54.8571V36.5715H51.8093V33.5237Z" fill="#BFC4D9"/>
<path d="M51.8093 30.4761H54.8571V33.5236H51.8093V30.4761Z" fill="#4951F1"/>
<path d="M51.8093 27.4286H54.8571V30.4761H51.8093V27.4286Z" fill="#0974EB"/>
<path d="M51.8093 24.381H54.8571V27.4285H51.8093V24.381Z" fill="#4951F1"/>
<path d="M51.8093 21.3333H54.8571V24.381H51.8093V21.3333Z" fill="#BFC4D9"/>
<path d="M51.8093 18.2858H54.8571V21.3333H51.8093V18.2858Z" fill="#4951F1"/>
<path d="M51.8093 15.2382H54.857V18.2857H51.8093V15.2382ZM51.8093 12.1904H54.857V15.2382H51.8093V12.1904ZM48.7617 48.7619H51.8093V51.8094H48.7617V48.7619Z" fill="#1B1A52"/>
<path d="M48.7617 45.7142H51.8093V48.7618H48.7617V45.7142Z" fill="#4951F1"/>
<path d="M48.7617 42.6665H51.8093V45.7143H48.7617V42.6665Z" fill="#BFC4D9"/>
<path d="M48.7617 39.619H51.8093V42.6666H48.7617V39.619Z" fill="#BFC4D9"/>
<path d="M48.7617 36.5714H51.8093V39.619H48.7617V36.5714Z" fill="#BFC4D9"/>
<path d="M48.7617 33.5237H51.8093V36.5715H48.7617V33.5237Z" fill="#4951F1"/>
<path d="M48.7617 30.4761H51.8093V33.5236H48.7617V30.4761Z" fill="#529EFE"/>
<path d="M48.7617 27.4286H51.8093V30.4761H48.7617V27.4286Z" fill="#0974EB"/>
<path d="M48.7617 24.381H51.8093V27.4285H48.7617V24.381Z" fill="#D9DEF4"/>
<path d="M48.7617 21.3333H51.8093V24.381H48.7617V21.3333Z" fill="#4951F1"/>
<path d="M48.7617 18.2857H51.8093V21.3332H48.7617V18.2857ZM48.7617 15.2382H51.8093V18.2857H48.7617V15.2382Z" fill="#4951F1"/>
<path d="M48.7619 12.1904H51.8094V15.2382H48.7619V12.1904ZM45.7144 45.7143H48.7619V48.7619H45.7144V45.7143Z" fill="#1B1A52"/>
<path d="M45.7144 42.6665H48.7619V45.7143H45.7144V42.6665Z" fill="#4951F1"/>
<path d="M45.7144 39.619H48.7619V42.6666H45.7144V39.619Z" fill="#BFC4D9"/>
<path d="M45.7144 36.5714H48.7619V39.619H45.7144V36.5714Z" fill="#BFC4D9"/>
<path d="M45.7144 33.5237H48.7619V36.5715H45.7144V33.5237Z" fill="#4951F1"/>
<path d="M45.7144 30.4761H48.7619V33.5236H45.7144V30.4761Z" fill="#529EFE"/>
<path d="M45.7144 27.4286H48.7619V30.4761H45.7144V27.4286Z" fill="#529EFE"/>
<path d="M45.7144 24.381H48.7619V27.4285H45.7144V24.381Z" fill="#D9DEF4"/>
<path d="M45.7144 21.3333H48.7619V24.381H45.7144V21.3333Z" fill="#4951F1"/>
<path d="M45.7144 18.2857H48.7619V21.3332H45.7144V18.2857ZM45.7144 15.2382H48.7619V18.2857H45.7144V15.2382Z" fill="#4951F1"/>
<path d="M45.7143 12.1904H48.7618V15.2382H45.7143V12.1904ZM42.6665 45.7143H45.7143V48.7619H42.6665V45.7143ZM42.6665 42.6665H45.7143V45.7143H42.6665V42.6665Z" fill="#1B1A52"/>
<path d="M42.6665 39.619H45.7143V42.6665H42.6665V39.619ZM42.6665 36.5715H45.7143V39.619H42.6665V36.5715ZM42.6665 33.5237H45.7143V36.5715H42.6665V33.5237Z" fill="#BFC4D9"/>
<path d="M42.6665 30.4761H45.7143V33.5236H42.6665V30.4761Z" fill="#4951F1"/>
<path d="M42.6665 27.4286H45.7143V30.4761H42.6665V27.4286Z" fill="#529EFE"/>
<path d="M42.6665 24.381H45.7143V27.4285H42.6665V24.381Z" fill="#4951F1"/>
<path d="M42.6665 21.3333H45.7143V24.381H42.6665V21.3333Z" fill="#BFC4D9"/>
<path d="M42.6665 18.2857H45.7143V21.3332H42.6665V18.2857ZM42.6665 15.2382H45.7143V18.2857H42.6665V15.2382Z" fill="#4951F1"/>
<path d="M42.6664 12.1904H45.7142V15.2382H42.6664V12.1904ZM39.6189 48.7619H42.6664V51.8094H39.6189V48.7619ZM39.6189 45.7143H42.6664V48.7619H39.6189V45.7143Z" fill="#1B1A52"/>
<path d="M39.6189 42.6665H42.6664V45.7143H39.6189V42.6665Z" fill="#BFC4D9"/>
<path d="M39.6189 39.619H42.6664V42.6665H39.6189V39.619ZM39.6189 36.5714H42.6664V39.619H39.6189V36.5714Z" fill="#529EFE"/>
<path d="M39.6189 33.5236H42.6664V36.5714H39.6189V33.5236ZM39.6189 30.4761H42.6664V33.5236H39.6189V30.4761Z" fill="#BFC4D9"/>
<path d="M39.6189 27.4286H42.6664V30.4761H39.6189V27.4286Z" fill="#4951F1"/>
<path d="M39.6189 24.381H42.6664V27.4286H39.6189V24.381ZM39.6189 21.3333H42.6664V24.381H39.6189V21.3333Z" fill="#BFC4D9"/>
<path d="M39.6189 18.2858H42.6664V21.3333H39.6189V18.2858Z" fill="#4951F1"/>
<path d="M39.6191 15.2382H42.6666V18.2857H39.6191V15.2382ZM36.5715 45.7143H39.6191V48.7618H36.5715V45.7143ZM36.5715 42.6665H39.6191V45.7143H36.5715V42.6665Z" fill="#1B1A52"/>
<path d="M36.5715 39.619H39.6191V42.6665H36.5715V39.619ZM36.5715 36.5714H39.6191V39.619H36.5715V36.5714Z" fill="#529EFE"/>
<path d="M36.5715 33.5237H39.6191V36.5715H36.5715V33.5237Z" fill="#BFC4D9"/>
<path d="M36.5715 30.4761H39.6191V33.5236H36.5715V30.4761Z" fill="#232B38"/>
<path d="M36.5715 27.4286H39.6191V30.4761H36.5715V27.4286Z" fill="#BFC4D9"/>
<path d="M36.5715 24.381H39.6191V27.4285H36.5715V24.381Z" fill="#529EFE"/>
<path d="M36.5715 21.3333H39.6191V24.381H36.5715V21.3333Z" fill="#BFC4D9"/>
<path d="M36.5715 18.2858H39.619V21.3333H36.5715V18.2858ZM33.5237 42.6666H36.5715V45.7143H33.5237V42.6666Z" fill="#1B1A52"/>
<path d="M33.5237 39.619H36.5715V42.6665H33.5237V39.619ZM33.5237 36.5715H36.5715V39.619H33.5237V36.5715ZM33.5237 33.5237H36.5715V36.5715H33.5237V33.5237Z" fill="#BFC4D9"/>
<path d="M33.5237 30.4761H36.5715V33.5236H33.5237V30.4761Z" fill="#232B38"/>
<path d="M33.5237 27.4286H36.5715V30.4761H33.5237V27.4286Z" fill="#BFC4D9"/>
<path d="M33.5237 24.381H36.5715V27.4285H33.5237V24.381Z" fill="#529EFE"/>
<path d="M33.5237 21.3333H36.5715V24.381H33.5237V21.3333Z" fill="#BFC4D9"/>
<path d="M33.5236 18.2858H36.5714V21.3333H33.5236V18.2858ZM30.4761 42.6666H33.5236V45.7143H30.4761V42.6666Z" fill="#1B1A52"/>
<path d="M30.4761 39.619H33.5236V42.6666H30.4761V39.619Z" fill="#BFC4D9"/>
<path d="M30.4761 36.5714H33.5236V39.619H30.4761V36.5714Z" fill="#4951F1"/>
<path d="M30.4761 33.5237H33.5236V36.5714H30.4761V33.5237ZM30.4761 30.4761H33.5236V33.5237H30.4761V30.4761ZM30.4761 27.4286H33.5236V30.4761H30.4761V27.4286ZM30.4761 24.381H33.5236V27.4286H30.4761V24.381ZM30.4761 21.3333H33.5236V24.381H30.4761V21.3333Z" fill="#BFC4D9"/>
<path d="M30.476 18.2858H33.5236V21.3333H30.476V18.2858ZM27.4285 42.6666H30.476V45.7143H27.4285V42.6666Z" fill="#1B1A52"/>
<path d="M27.4285 39.619H30.476V42.6665H27.4285V39.619ZM27.4285 36.5715H30.476V39.619H27.4285V36.5715ZM27.4285 33.5237H30.476V36.5715H27.4285V33.5237Z" fill="#BFC4D9"/>
<path d="M27.4285 30.4761H30.476V33.5236H27.4285V30.4761Z" fill="#232B38"/>
<path d="M27.4285 27.4286H30.476V30.4761H27.4285V27.4286Z" fill="#BFC4D9"/>
<path d="M27.4285 24.381H30.476V27.4285H27.4285V24.381Z" fill="#529EFE"/>
<path d="M27.4285 21.3333H30.476V24.381H27.4285V21.3333Z" fill="#BFC4D9"/>
<path d="M27.4286 18.2858H30.4762V21.3333H27.4286V18.2858ZM24.3811 45.7143H27.4286V48.7619H24.3811V45.7143ZM24.3811 42.6666H27.4286V45.7143H24.3811V42.6666Z" fill="#1B1A52"/>
<path d="M24.3811 39.619H27.4286V42.6665H24.3811V39.619ZM24.3811 36.5715H27.4286V39.619H24.3811V36.5715ZM24.3811 33.5237H27.4286V36.5715H24.3811V33.5237Z" fill="#BFC4D9"/>
<path d="M24.3811 30.4761H27.4286V33.5236H24.3811V30.4761Z" fill="#232B38"/>
<path d="M24.3811 27.4286H27.4286V30.4761H24.3811V27.4286Z" fill="#BFC4D9"/>
<path d="M24.3811 24.381H27.4286V27.4285H24.3811V24.381Z" fill="#529EFE"/>
<path d="M24.3811 21.3333H27.4286V24.381H24.3811V21.3333Z" fill="#BFC4D9"/>
<path d="M24.381 18.2858H27.4286V21.3333H24.381V18.2858ZM21.3333 48.7619H24.381V51.8094H21.3333V48.7619ZM21.3333 45.7143H24.381V48.7619H21.3333V45.7143Z" fill="#1B1A52"/>
<path d="M21.3333 42.6665H24.381V45.7143H21.3333V42.6665Z" fill="#BFC4D9"/>
<path d="M21.3333 39.619H24.381V42.6665H21.3333V39.619ZM21.3333 36.5714H24.381V39.619H21.3333V36.5714Z" fill="#529EFE"/>
<path d="M21.3333 33.5236H24.381V36.5714H21.3333V33.5236ZM21.3333 30.4761H24.381V33.5236H21.3333V30.4761Z" fill="#BFC4D9"/>
<path d="M21.3333 27.4286H24.381V30.4761H21.3333V27.4286Z" fill="#4951F1"/>
<path d="M21.3333 24.381H24.381V27.4286H21.3333V24.381ZM21.3333 21.3333H24.381V24.381H21.3333V21.3333Z" fill="#BFC4D9"/>
<path d="M21.3333 18.2858H24.381V21.3333H21.3333V18.2858Z" fill="#4951F1"/>
<path d="M21.3332 15.2382H24.381V18.2857H21.3332V15.2382ZM18.2856 45.7143H21.3332V48.7618H18.2856V45.7143ZM18.2856 42.6665H21.3332V45.7143H18.2856V42.6665Z" fill="#1B1A52"/>
<path d="M18.2856 39.619H21.3332V42.6665H18.2856V39.619ZM18.2856 36.5714H21.3332V39.619H18.2856V36.5714Z" fill="#529EFE"/>
<path d="M18.2856 33.5237H21.3332V36.5715H18.2856V33.5237Z" fill="#BFC4D9"/>
<path d="M18.2856 30.4761H21.3332V33.5236H18.2856V30.4761Z" fill="#4951F1"/>
<path d="M18.2856 27.4286H21.3332V30.4761H18.2856V27.4286Z" fill="#232B38"/>
<path d="M18.2856 24.381H21.3332V27.4285H18.2856V24.381Z" fill="#4951F1"/>
<path d="M18.2856 21.3333H21.3332V24.381H18.2856V21.3333Z" fill="#BFC4D9"/>
<path d="M18.2856 18.2857H21.3332V21.3332H18.2856V18.2857ZM18.2856 15.2382H21.3332V18.2857H18.2856V15.2382Z" fill="#4951F1"/>
<path d="M18.2858 12.1904H21.3334V15.2382H18.2858V12.1904ZM15.2383 45.7143H18.2858V48.7619H15.2383V45.7143Z" fill="#1B1A52"/>
<path d="M15.2383 42.6665H18.2858V45.7143H15.2383V42.6665Z" fill="#4951F1"/>
<path d="M15.2383 39.619H18.2858V42.6665H15.2383V39.619ZM15.2383 36.5714H18.2858V39.619H15.2383V36.5714Z" fill="#BFC4D9"/>
<path d="M15.2383 33.5237H18.2858V36.5715H15.2383V33.5237Z" fill="#4951F1"/>
<path d="M15.2383 30.4761H18.2858V33.5236H15.2383V30.4761ZM15.2383 27.4285H18.2858V30.4761H15.2383V27.4285ZM15.2383 24.381H18.2858V27.4285H15.2383V24.381Z" fill="#232B38"/>
<path d="M15.2383 21.3333H18.2858V24.381H15.2383V21.3333Z" fill="#4951F1"/>
<path d="M15.2383 18.2857H18.2858V21.3332H15.2383V18.2857ZM15.2383 15.2382H18.2858V18.2857H15.2383V15.2382Z" fill="#4951F1"/>
<path d="M15.2382 12.1904H18.2857V15.2382H15.2382V12.1904ZM12.1904 48.7619H15.2382V51.8094H12.1904V48.7619Z" fill="#1B1A52"/>
<path d="M12.1904 45.7142H15.2382V48.7618H12.1904V45.7142Z" fill="#4951F1"/>
<path d="M12.1904 42.6665H15.2382V45.7143H12.1904V42.6665Z" fill="#BFC4D9"/>
<path d="M12.1904 39.619H15.2382V42.6666H12.1904V39.619Z" fill="#BFC4D9"/>
<path d="M12.1904 36.5714H15.2382V39.619H12.1904V36.5714Z" fill="#BFC4D9"/>
<path d="M12.1904 33.5237H15.2382V36.5715H12.1904V33.5237Z" fill="#4951F1"/>
<path d="M12.1904 30.4761H15.2382V33.5236H12.1904V30.4761ZM12.1904 27.4285H15.2382V30.4761H12.1904V27.4285ZM12.1904 24.381H15.2382V27.4285H12.1904V24.381Z" fill="#232B38"/>
<path d="M12.1904 21.3333H15.2382V24.381H12.1904V21.3333Z" fill="#4951F1"/>
<path d="M12.1904 18.2857H15.2382V21.3332H12.1904V18.2857ZM12.1904 15.2382H15.2382V18.2857H12.1904V15.2382Z" fill="#4951F1"/>
<path d="M12.1904 12.1904H15.2381V15.2382H12.1904V12.1904ZM9.14282 51.8094H12.1904V54.8572H9.14282V51.8094Z" fill="#1B1A52"/>
<path d="M9.14282 48.7618H12.1904V51.8093H9.14282V48.7618ZM9.14282 45.7142H12.1904V48.7618H9.14282V45.7142Z" fill="#4951F1"/>
<path d="M9.14282 42.6666H12.1904V45.7143H9.14282V42.6666ZM9.14282 39.619H12.1904V42.6666H9.14282V39.619Z" fill="#BFC4D9"/>
<path d="M9.14282 36.5714H12.1904V39.619H9.14282V36.5714Z" fill="#BFC4D9"/>
<path d="M9.14282 33.5237H12.1904V36.5715H9.14282V33.5237Z" fill="#BFC4D9"/>
<path d="M9.14282 30.4761H12.1904V33.5236H9.14282V30.4761Z" fill="#4951F1"/>
<path d="M9.14282 27.4286H12.1904V30.4761H9.14282V27.4286Z" fill="#232B38"/>
<path d="M9.14282 24.381H12.1904V27.4285H9.14282V24.381Z" fill="#4951F1"/>
<path d="M9.14282 21.3333H12.1904V24.3811H9.14282V21.3333ZM9.14282 18.2858H12.1904V21.3333H9.14282V18.2858Z" fill="#4951F1"/>
<path d="M9.14276 15.2382H12.1903V18.2857H9.14276V15.2382ZM9.14276 12.1904H12.1903V15.2382H9.14276V12.1904ZM6.09521 48.7619H9.14276V51.8094H6.09521V48.7619Z" fill="#1B1A52"/>
<path d="M6.09521 45.7142H9.14276V48.7618H6.09521V45.7142Z" fill="#4951F1"/>
<path d="M6.09521 42.6666H9.14276V45.7143H6.09521V42.6666ZM6.09521 39.619H9.14276V42.6666H6.09521V39.619Z" fill="#797BF2"/>
<path d="M6.09521 36.5714H9.14276V39.619H6.09521V36.5714Z" fill="#4951F1"/>
<path d="M6.09521 33.5237H9.14276V36.5715H6.09521V33.5237Z" fill="#BFC4D9"/>
<path d="M6.09521 30.4761H9.14276V33.5236H6.09521V30.4761Z" fill="#BFC4D9"/>
<path d="M6.09521 27.4286H9.14276V30.4761H6.09521V27.4286Z" fill="#4951F1"/>
<path d="M6.09521 24.3811H9.14276V27.4286H6.09521V24.3811ZM6.09521 21.3333H9.14276V24.3811H6.09521V21.3333ZM6.09521 18.2858H9.14276V21.3333H6.09521V18.2858Z" fill="#4951F1"/>
<path d="M6.09538 15.2382H9.14292V18.2857H6.09538V15.2382ZM3.04761 48.7618H6.09538V51.8094H3.04761V48.7618Z" fill="#1B1A52"/>
<path d="M3.04761 45.7143H6.09538V48.7618H3.04761V45.7143ZM3.04761 42.6665H6.09538V45.7143H3.04761V42.6665ZM3.04761 39.619H6.09538V42.6665H3.04761V39.619ZM3.04761 36.5714H6.09538V39.619H3.04761V36.5714ZM3.04761 33.5237H6.09538V36.5714H3.04761V33.5237ZM3.04761 30.4761H6.09538V33.5237H3.04761V30.4761ZM3.04761 27.4286H6.09538V30.4761H3.04761V27.4286Z" fill="#797BF2"/>
<path d="M3.04761 24.381H6.09538V27.4285H3.04761V24.381Z" fill="#BFC4D9"/>
<path d="M3.04754 21.3333H6.09531V24.3811H3.04754V21.3333ZM3.04754 18.2858H6.09531V21.3333H3.04754V18.2858ZM0 45.7143H3.04754V48.7619H0V45.7143ZM0 42.6666H3.04754V45.7143H0V42.6666ZM0 39.619H3.04754V42.6666H0V39.619ZM0 36.5715H3.04754V39.619H0V36.5715ZM0 33.5237H3.04754V36.5715H0V33.5237ZM0 30.4762H3.04754V33.5237H0V30.4762ZM0 27.4286H3.04754V30.4762H0V27.4286ZM0 24.3811H3.04754V27.4286H0V24.3811Z" fill="#1B1A52"/>
</g>
<defs>
<clipPath id="clip0_243_16912">
<rect width="64" height="64" fill="white"/>
</clipPath>
</defs>
</svg>
