<svg width="335" height="64" viewBox="0 0 335 64" fill="none" xmlns="http://www.w3.org/2000/svg">
<rect width="335" height="64" rx="6" fill="url(#paint0_linear_12170_15206)"/>
<rect x="0.5" y="0.5" width="334" height="63" rx="5.5" stroke="url(#paint1_linear_12170_15206)" stroke-opacity="0.16"/>
<path d="M59.98 45V38.51L58.418 39.269V38.422L60.255 37.432H60.926V45H59.98ZM65.8207 45.088C65.2707 45.088 64.8161 45.0587 64.4567 45C64.1047 44.934 63.8261 44.8203 63.6207 44.659C63.4227 44.4977 63.2761 44.274 63.1807 43.988C63.0927 43.6947 63.0341 43.3243 63.0047 42.877C62.9827 42.4223 62.9717 41.8687 62.9717 41.216C62.9717 40.5633 62.9827 40.0133 63.0047 39.566C63.0341 39.1113 63.0927 38.741 63.1807 38.455C63.2761 38.1617 63.4227 37.9343 63.6207 37.773C63.8261 37.6117 64.1047 37.5017 64.4567 37.443C64.8161 37.377 65.2707 37.344 65.8207 37.344C66.3707 37.344 66.8217 37.377 67.1737 37.443C67.5331 37.5017 67.8117 37.6117 68.0097 37.773C68.2151 37.9343 68.3654 38.1617 68.4607 38.455C68.5561 38.741 68.6147 39.1113 68.6367 39.566C68.6587 40.0133 68.6697 40.5633 68.6697 41.216C68.6697 41.8687 68.6587 42.4223 68.6367 42.877C68.6147 43.3243 68.5561 43.6947 68.4607 43.988C68.3654 44.274 68.2151 44.4977 68.0097 44.659C67.8117 44.8203 67.5331 44.934 67.1737 45C66.8217 45.0587 66.3707 45.088 65.8207 45.088ZM65.8207 44.274C66.1947 44.274 66.4991 44.263 66.7337 44.241C66.9684 44.2117 67.1517 44.1493 67.2837 44.054C67.4231 43.9587 67.5221 43.801 67.5807 43.581C67.6467 43.361 67.6871 43.0603 67.7017 42.679C67.7237 42.2977 67.7347 41.81 67.7347 41.216C67.7347 40.622 67.7237 40.1343 67.7017 39.753C67.6871 39.3717 67.6467 39.071 67.5807 38.851C67.5221 38.631 67.4231 38.4733 67.2837 38.378C67.1517 38.2827 66.9684 38.224 66.7337 38.202C66.4991 38.1727 66.1947 38.158 65.8207 38.158C65.4614 38.158 65.1607 38.1727 64.9187 38.202C64.6767 38.224 64.4861 38.2827 64.3467 38.378C64.2147 38.4733 64.1157 38.631 64.0497 38.851C63.9911 39.071 63.9544 39.3717 63.9397 39.753C63.9251 40.1343 63.9177 40.622 63.9177 41.216C63.9177 41.81 63.9251 42.2977 63.9397 42.679C63.9544 43.0603 63.9911 43.361 64.0497 43.581C64.1157 43.801 64.2147 43.9587 64.3467 44.054C64.4861 44.1493 64.6731 44.2117 64.9077 44.241C65.1497 44.263 65.4541 44.274 65.8207 44.274ZM73.2006 45.088C72.6506 45.088 72.196 45.0587 71.8366 45C71.4846 44.934 71.206 44.8203 71.0006 44.659C70.8026 44.4977 70.656 44.274 70.5606 43.988C70.4726 43.6947 70.414 43.3243 70.3846 42.877C70.3626 42.4223 70.3516 41.8687 70.3516 41.216C70.3516 40.5633 70.3626 40.0133 70.3846 39.566C70.414 39.1113 70.4726 38.741 70.5606 38.455C70.656 38.1617 70.8026 37.9343 71.0006 37.773C71.206 37.6117 71.4846 37.5017 71.8366 37.443C72.196 37.377 72.6506 37.344 73.2006 37.344C73.7506 37.344 74.2016 37.377 74.5536 37.443C74.913 37.5017 75.1916 37.6117 75.3896 37.773C75.595 37.9343 75.7453 38.1617 75.8406 38.455C75.936 38.741 75.9946 39.1113 76.0166 39.566C76.0386 40.0133 76.0496 40.5633 76.0496 41.216C76.0496 41.8687 76.0386 42.4223 76.0166 42.877C75.9946 43.3243 75.936 43.6947 75.8406 43.988C75.7453 44.274 75.595 44.4977 75.3896 44.659C75.1916 44.8203 74.913 44.934 74.5536 45C74.2016 45.0587 73.7506 45.088 73.2006 45.088ZM73.2006 44.274C73.5746 44.274 73.879 44.263 74.1136 44.241C74.3483 44.2117 74.5316 44.1493 74.6636 44.054C74.803 43.9587 74.902 43.801 74.9606 43.581C75.0266 43.361 75.067 43.0603 75.0816 42.679C75.1036 42.2977 75.1146 41.81 75.1146 41.216C75.1146 40.622 75.1036 40.1343 75.0816 39.753C75.067 39.3717 75.0266 39.071 74.9606 38.851C74.902 38.631 74.803 38.4733 74.6636 38.378C74.5316 38.2827 74.3483 38.224 74.1136 38.202C73.879 38.1727 73.5746 38.158 73.2006 38.158C72.8413 38.158 72.5406 38.1727 72.2986 38.202C72.0566 38.224 71.866 38.2827 71.7266 38.378C71.5946 38.4733 71.4956 38.631 71.4296 38.851C71.371 39.071 71.3343 39.3717 71.3196 39.753C71.305 40.1343 71.2976 40.622 71.2976 41.216C71.2976 41.81 71.305 42.2977 71.3196 42.679C71.3343 43.0603 71.371 43.361 71.4296 43.581C71.4956 43.801 71.5946 43.9587 71.7266 44.054C71.866 44.1493 72.053 44.2117 72.2876 44.241C72.5296 44.263 72.834 44.274 73.2006 44.274ZM79.4915 44.428V42.58H77.6655V41.854H79.4915V40.028H80.2175V41.854H82.0655V42.58H80.2175V44.428H79.4915ZM88.4168 45.088C87.9915 45.088 87.6395 45.0513 87.3608 44.978C87.0895 44.9047 86.8695 44.7947 86.7008 44.648C86.5395 44.5013 86.4185 44.3143 86.3378 44.087C86.2571 43.8597 86.2021 43.5883 86.1728 43.273C86.1508 42.9577 86.1398 42.5983 86.1398 42.195C86.1398 41.777 86.1545 41.4103 86.1838 41.095C86.2205 40.7797 86.2828 40.5083 86.3708 40.281C86.4661 40.0463 86.5945 39.8593 86.7558 39.72C86.9245 39.5807 87.1408 39.478 87.4048 39.412C87.6688 39.3387 87.9951 39.302 88.3838 39.302C88.6405 39.302 88.9081 39.3167 89.1868 39.346C89.4728 39.368 89.7075 39.401 89.8908 39.445V40.171C89.7221 40.1417 89.5131 40.116 89.2638 40.094C89.0218 40.072 88.8018 40.061 88.6038 40.061C88.2591 40.061 87.9805 40.0903 87.7678 40.149C87.5625 40.2077 87.4048 40.314 87.2948 40.468C87.1921 40.622 87.1225 40.8383 87.0858 41.117C87.0491 41.3957 87.0308 41.755 87.0308 42.195C87.0308 42.6423 87.0491 43.009 87.0858 43.295C87.1225 43.5737 87.1958 43.79 87.3058 43.944C87.4231 44.0907 87.5845 44.1933 87.7898 44.252C88.0025 44.3033 88.2811 44.329 88.6258 44.329C88.8311 44.329 89.0548 44.318 89.2968 44.296C89.5388 44.274 89.7551 44.2483 89.9458 44.219V44.945C89.7625 44.9817 89.5278 45.0147 89.2418 45.044C88.9558 45.0733 88.6808 45.088 88.4168 45.088ZM93.3444 45.088C92.9337 45.088 92.6 45.044 92.3434 44.956C92.094 44.868 91.9034 44.736 91.7714 44.56C91.6394 44.384 91.5477 44.1603 91.4964 43.889C91.4524 43.6103 91.4304 43.2803 91.4304 42.899V39.39H92.3324V42.591C92.3324 42.965 92.347 43.2657 92.3764 43.493C92.4057 43.7203 92.468 43.8927 92.5634 44.01C92.666 44.12 92.809 44.1933 92.9924 44.23C93.1757 44.2667 93.414 44.285 93.7074 44.285C94.074 44.285 94.36 44.241 94.5654 44.153C94.7707 44.0577 94.9174 43.9257 95.0054 43.757C95.1007 43.581 95.1594 43.372 95.1814 43.13C95.2107 42.8807 95.2254 42.5983 95.2254 42.283V39.39H96.1164V45H95.3134L95.2804 44.197H95.2034C95.13 44.373 95.02 44.527 94.8734 44.659C94.734 44.791 94.5397 44.8973 94.2904 44.978C94.041 45.0513 93.7257 45.088 93.3444 45.088ZM98.0153 45V39.39H98.8183L98.8623 40.468H98.9283C99.0237 40.1527 99.1593 39.9107 99.3353 39.742C99.5113 39.5733 99.724 39.4597 99.9733 39.401C100.223 39.335 100.498 39.302 100.798 39.302V40.182C100.292 40.182 99.9037 40.2627 99.6323 40.424C99.361 40.5853 99.174 40.8347 99.0713 41.172C98.9687 41.5093 98.9173 41.9347 98.9173 42.448V45H98.0153ZM102.054 45V39.39H102.857L102.901 40.468H102.967C103.063 40.1527 103.198 39.9107 103.374 39.742C103.55 39.5733 103.763 39.4597 104.012 39.401C104.262 39.335 104.537 39.302 104.837 39.302V40.182C104.331 40.182 103.943 40.2627 103.671 40.424C103.4 40.5853 103.213 40.8347 103.11 41.172C103.008 41.5093 102.956 41.9347 102.956 42.448V45H102.054ZM108.328 45.088C107.873 45.088 107.492 45.0587 107.184 45C106.883 44.9413 106.641 44.846 106.458 44.714C106.274 44.5747 106.135 44.395 106.04 44.175C105.944 43.9477 105.882 43.6727 105.853 43.35C105.823 43.0273 105.809 42.646 105.809 42.206C105.809 41.6853 105.831 41.2417 105.875 40.875C105.919 40.501 106.018 40.2003 106.172 39.973C106.333 39.7383 106.582 39.5697 106.92 39.467C107.257 39.357 107.712 39.302 108.284 39.302C108.716 39.302 109.068 39.335 109.34 39.401C109.618 39.467 109.838 39.5697 110 39.709C110.161 39.8483 110.278 40.0353 110.352 40.27C110.432 40.4973 110.484 40.7723 110.506 41.095C110.528 41.4103 110.539 41.777 110.539 42.195V42.492H106.7C106.7 42.8733 106.718 43.185 106.755 43.427C106.791 43.669 106.865 43.856 106.975 43.988C107.092 44.12 107.272 44.2117 107.514 44.263C107.763 44.3143 108.1 44.34 108.526 44.34C108.702 44.34 108.896 44.3363 109.109 44.329C109.321 44.3143 109.534 44.296 109.747 44.274C109.959 44.252 110.15 44.23 110.319 44.208V44.934C110.165 44.9633 109.974 44.989 109.747 45.011C109.527 45.033 109.292 45.0513 109.043 45.066C108.801 45.0807 108.562 45.088 108.328 45.088ZM109.67 42.041V41.744C109.67 41.3627 109.648 41.062 109.604 40.842C109.56 40.6147 109.483 40.446 109.373 40.336C109.27 40.2187 109.127 40.1417 108.944 40.105C108.76 40.0683 108.533 40.05 108.262 40.05C107.91 40.05 107.631 40.0757 107.426 40.127C107.22 40.171 107.066 40.2553 106.964 40.38C106.861 40.5047 106.791 40.6843 106.755 40.919C106.718 41.1537 106.7 41.4653 106.7 41.854H109.879L109.67 42.041ZM112.184 45V39.39H112.998L113.031 40.193H113.097C113.178 40.017 113.288 39.863 113.427 39.731C113.574 39.599 113.768 39.4963 114.01 39.423C114.26 39.3423 114.575 39.302 114.956 39.302C115.374 39.302 115.708 39.346 115.957 39.434C116.207 39.522 116.397 39.654 116.529 39.83C116.669 40.006 116.76 40.2333 116.804 40.512C116.848 40.7833 116.87 41.1097 116.87 41.491V45H115.979V41.799C115.979 41.4177 115.961 41.117 115.924 40.897C115.895 40.6697 115.833 40.501 115.737 40.391C115.642 40.2737 115.503 40.1967 115.319 40.16C115.136 40.1233 114.894 40.105 114.593 40.105C114.234 40.105 113.952 40.1527 113.746 40.248C113.541 40.336 113.391 40.468 113.295 40.644C113.2 40.8127 113.141 41.0217 113.119 41.271C113.097 41.513 113.086 41.7917 113.086 42.107V45H112.184ZM120.815 45.088C120.39 45.088 120.038 45.0513 119.759 44.978C119.488 44.9047 119.268 44.7947 119.099 44.648C118.938 44.5013 118.817 44.3143 118.736 44.087C118.656 43.8597 118.601 43.5883 118.571 43.273C118.549 42.9577 118.538 42.5983 118.538 42.195C118.538 41.777 118.553 41.4103 118.582 41.095C118.619 40.7797 118.681 40.5083 118.769 40.281C118.865 40.0463 118.993 39.8593 119.154 39.72C119.323 39.5807 119.539 39.478 119.803 39.412C120.067 39.3387 120.394 39.302 120.782 39.302C121.039 39.302 121.307 39.3167 121.585 39.346C121.871 39.368 122.106 39.401 122.289 39.445V40.171C122.121 40.1417 121.912 40.116 121.662 40.094C121.42 40.072 121.2 40.061 121.002 40.061C120.658 40.061 120.379 40.0903 120.166 40.149C119.961 40.2077 119.803 40.314 119.693 40.468C119.591 40.622 119.521 40.8383 119.484 41.117C119.448 41.3957 119.429 41.755 119.429 42.195C119.429 42.6423 119.448 43.009 119.484 43.295C119.521 43.5737 119.594 43.79 119.704 43.944C119.822 44.0907 119.983 44.1933 120.188 44.252C120.401 44.3033 120.68 44.329 121.024 44.329C121.23 44.329 121.453 44.318 121.695 44.296C121.937 44.274 122.154 44.2483 122.344 44.219V44.945C122.161 44.9817 121.926 45.0147 121.64 45.044C121.354 45.0733 121.079 45.088 120.815 45.088ZM123.807 37.806V36.827H124.764V37.806H123.807ZM123.829 45V39.39H124.731V45H123.829ZM128.91 45.088C128.455 45.088 128.074 45.0587 127.766 45C127.465 44.9413 127.223 44.846 127.04 44.714C126.856 44.5747 126.717 44.395 126.622 44.175C126.526 43.9477 126.464 43.6727 126.435 43.35C126.405 43.0273 126.391 42.646 126.391 42.206C126.391 41.6853 126.413 41.2417 126.457 40.875C126.501 40.501 126.6 40.2003 126.754 39.973C126.915 39.7383 127.164 39.5697 127.502 39.467C127.839 39.357 128.294 39.302 128.866 39.302C129.298 39.302 129.65 39.335 129.922 39.401C130.2 39.467 130.42 39.5697 130.582 39.709C130.743 39.8483 130.86 40.0353 130.934 40.27C131.014 40.4973 131.066 40.7723 131.088 41.095C131.11 41.4103 131.121 41.777 131.121 42.195V42.492H127.282C127.282 42.8733 127.3 43.185 127.337 43.427C127.373 43.669 127.447 43.856 127.557 43.988C127.674 44.12 127.854 44.2117 128.096 44.263C128.345 44.3143 128.682 44.34 129.108 44.34C129.284 44.34 129.478 44.3363 129.691 44.329C129.903 44.3143 130.116 44.296 130.329 44.274C130.541 44.252 130.732 44.23 130.901 44.208V44.934C130.747 44.9633 130.556 44.989 130.329 45.011C130.109 45.033 129.874 45.0513 129.625 45.066C129.383 45.0807 129.144 45.088 128.91 45.088ZM130.252 42.041V41.744C130.252 41.3627 130.23 41.062 130.186 40.842C130.142 40.6147 130.065 40.446 129.955 40.336C129.852 40.2187 129.709 40.1417 129.526 40.105C129.342 40.0683 129.115 40.05 128.844 40.05C128.492 40.05 128.213 40.0757 128.008 40.127C127.802 40.171 127.648 40.2553 127.546 40.38C127.443 40.5047 127.373 40.6843 127.337 40.919C127.3 41.1537 127.282 41.4653 127.282 41.854H130.461L130.252 42.041ZM134.636 45.088C134.424 45.088 134.196 45.0807 133.954 45.066C133.712 45.0513 133.474 45.033 133.239 45.011C133.005 44.9963 132.792 44.9743 132.601 44.945V44.219C132.777 44.2337 132.946 44.2483 133.107 44.263C133.276 44.2777 133.441 44.2923 133.602 44.307C133.764 44.3143 133.925 44.3217 134.086 44.329C134.248 44.329 134.413 44.329 134.581 44.329C134.963 44.329 135.238 44.3033 135.406 44.252C135.582 44.1933 135.696 44.098 135.747 43.966C135.806 43.834 135.835 43.6617 135.835 43.449C135.835 43.207 135.813 43.031 135.769 42.921C135.733 42.811 135.663 42.7413 135.56 42.712C135.465 42.6753 135.318 42.646 135.12 42.624L133.668 42.459C133.324 42.4223 133.063 42.349 132.887 42.239C132.711 42.1217 132.59 41.9567 132.524 41.744C132.458 41.5313 132.425 41.2637 132.425 40.941C132.425 40.5743 132.477 40.281 132.579 40.061C132.682 39.841 132.829 39.676 133.019 39.566C133.21 39.456 133.441 39.3863 133.712 39.357C133.984 39.3203 134.288 39.302 134.625 39.302C134.816 39.302 135.018 39.3093 135.23 39.324C135.443 39.3387 135.652 39.357 135.857 39.379C136.063 39.401 136.239 39.4267 136.385 39.456V40.182C136.195 40.1527 136 40.1307 135.802 40.116C135.612 40.094 135.414 40.0793 135.208 40.072C135.01 40.0647 134.809 40.061 134.603 40.061C134.325 40.061 134.086 40.0757 133.888 40.105C133.69 40.1343 133.54 40.2077 133.437 40.325C133.342 40.4423 133.294 40.6367 133.294 40.908C133.294 41.1207 133.309 41.282 133.338 41.392C133.375 41.4947 133.445 41.568 133.547 41.612C133.65 41.6487 133.793 41.678 133.976 41.7L135.494 41.865C135.795 41.8943 136.03 41.953 136.198 42.041C136.374 42.1217 136.499 42.2683 136.572 42.481C136.653 42.6937 136.693 43.0127 136.693 43.438C136.693 43.79 136.649 44.076 136.561 44.296C136.481 44.5087 136.352 44.6737 136.176 44.791C136 44.9083 135.784 44.9853 135.527 45.022C135.271 45.066 134.974 45.088 134.636 45.088ZM137.783 46.32V45.891C137.959 45.891 138.094 45.8727 138.19 45.836C138.285 45.7993 138.347 45.7297 138.377 45.627C138.406 45.5243 138.421 45.3777 138.421 45.187V45H138.014V43.922H139.059V44.824C139.059 45.132 139.04 45.3813 139.004 45.572C138.974 45.77 138.916 45.9203 138.828 46.023C138.74 46.133 138.611 46.21 138.443 46.254C138.274 46.298 138.054 46.32 137.783 46.32ZM143.448 45V37.432H146.968C147.466 37.432 147.862 37.509 148.156 37.663C148.449 37.817 148.658 38.037 148.783 38.323C148.907 38.6017 148.97 38.939 148.97 39.335C148.97 39.6577 148.926 39.9437 148.838 40.193C148.75 40.435 148.61 40.633 148.42 40.787C148.236 40.941 147.991 41.051 147.683 41.117V41.161C148.057 41.227 148.343 41.348 148.541 41.524C148.739 41.6927 148.874 41.9053 148.948 42.162C149.021 42.4187 149.058 42.701 149.058 43.009C149.058 43.273 149.025 43.526 148.959 43.768C148.9 44.01 148.794 44.2227 148.64 44.406C148.493 44.5893 148.28 44.736 148.002 44.846C147.723 44.9487 147.364 45 146.924 45H143.448ZM144.394 44.186H146.704C147.063 44.186 147.345 44.1457 147.551 44.065C147.756 43.977 147.899 43.8377 147.98 43.647C148.068 43.449 148.112 43.196 148.112 42.888C148.112 42.5727 148.064 42.3197 147.969 42.129C147.881 41.931 147.734 41.7917 147.529 41.711C147.323 41.623 147.048 41.579 146.704 41.579H144.394V44.186ZM144.394 40.754H146.66C146.968 40.754 147.221 40.71 147.419 40.622C147.624 40.534 147.774 40.3983 147.87 40.215C147.972 40.0243 148.024 39.7897 148.024 39.511C148.024 39.203 147.983 38.9573 147.903 38.774C147.829 38.5907 147.694 38.4587 147.496 38.378C147.298 38.29 147.019 38.246 146.66 38.246H144.394V40.754ZM152.299 45.088C151.888 45.088 151.543 45.0403 151.265 44.945C150.993 44.8497 150.788 44.6847 150.649 44.45C150.517 44.2153 150.451 43.8853 150.451 43.46C150.451 43.0347 150.498 42.701 150.594 42.459C150.696 42.2097 150.872 42.0337 151.122 41.931C151.371 41.8283 151.719 41.777 152.167 41.777C152.24 41.777 152.354 41.7807 152.508 41.788C152.669 41.788 152.852 41.7917 153.058 41.799C153.263 41.799 153.468 41.8027 153.674 41.81C153.886 41.81 154.081 41.8137 154.257 41.821V41.469C154.257 41.139 154.235 40.8823 154.191 40.699C154.154 40.5083 154.073 40.369 153.949 40.281C153.824 40.1857 153.648 40.127 153.421 40.105C153.201 40.0757 152.907 40.061 152.541 40.061C152.379 40.061 152.189 40.0683 151.969 40.083C151.749 40.0903 151.532 40.105 151.32 40.127C151.114 40.1417 150.949 40.16 150.825 40.182V39.456C151.103 39.4047 151.415 39.368 151.76 39.346C152.112 39.3167 152.475 39.302 152.849 39.302C153.245 39.302 153.578 39.3277 153.85 39.379C154.128 39.423 154.352 39.4963 154.521 39.599C154.697 39.7017 154.829 39.8373 154.917 40.006C155.005 40.1747 155.063 40.38 155.093 40.622C155.129 40.864 155.148 41.1463 155.148 41.469V45H154.345L154.312 44.208H154.246C154.128 44.4647 153.96 44.659 153.74 44.791C153.527 44.9157 153.292 44.9963 153.036 45.033C152.779 45.0697 152.533 45.088 152.299 45.088ZM152.629 44.351C152.841 44.351 153.039 44.34 153.223 44.318C153.406 44.2887 153.567 44.2373 153.707 44.164C153.846 44.0907 153.956 43.9807 154.037 43.834C154.117 43.68 154.172 43.515 154.202 43.339C154.238 43.1557 154.257 42.943 154.257 42.701V42.415H152.387C152.101 42.415 151.881 42.437 151.727 42.481C151.573 42.525 151.466 42.6167 151.408 42.756C151.356 42.8953 151.331 43.1043 151.331 43.383C151.331 43.6543 151.364 43.8597 151.43 43.999C151.496 44.1383 151.62 44.2337 151.804 44.285C151.994 44.329 152.269 44.351 152.629 44.351ZM157.054 45V39.39H157.868L157.901 40.193H157.967C158.048 40.017 158.158 39.863 158.297 39.731C158.444 39.599 158.638 39.4963 158.88 39.423C159.13 39.3423 159.445 39.302 159.826 39.302C160.244 39.302 160.578 39.346 160.827 39.434C161.077 39.522 161.267 39.654 161.399 39.83C161.539 40.006 161.63 40.2333 161.674 40.512C161.718 40.7833 161.74 41.1097 161.74 41.491V45H160.849V41.799C160.849 41.4177 160.831 41.117 160.794 40.897C160.765 40.6697 160.703 40.501 160.607 40.391C160.512 40.2737 160.373 40.1967 160.189 40.16C160.006 40.1233 159.764 40.105 159.463 40.105C159.104 40.105 158.822 40.1527 158.616 40.248C158.411 40.336 158.261 40.468 158.165 40.644C158.07 40.8127 158.011 41.0217 157.989 41.271C157.967 41.513 157.956 41.7917 157.956 42.107V45H157.054ZM163.023 45L165.146 42.151L163.1 39.39H164.123L165.674 41.48H165.74L167.302 39.39H168.281L166.246 42.14L168.369 45H167.335L165.707 42.822H165.641L164.013 45H163.023ZM171.151 45.088C170.741 45.088 170.396 45.0403 170.117 44.945C169.846 44.8497 169.641 44.6847 169.501 44.45C169.369 44.2153 169.303 43.8853 169.303 43.46C169.303 43.0347 169.351 42.701 169.446 42.459C169.549 42.2097 169.725 42.0337 169.974 41.931C170.224 41.8283 170.572 41.777 171.019 41.777C171.093 41.777 171.206 41.7807 171.36 41.788C171.522 41.788 171.705 41.7917 171.91 41.799C172.116 41.799 172.321 41.8027 172.526 41.81C172.739 41.81 172.933 41.8137 173.109 41.821V41.469C173.109 41.139 173.087 40.8823 173.043 40.699C173.007 40.5083 172.926 40.369 172.801 40.281C172.677 40.1857 172.501 40.127 172.273 40.105C172.053 40.0757 171.76 40.061 171.393 40.061C171.232 40.061 171.041 40.0683 170.821 40.083C170.601 40.0903 170.385 40.105 170.172 40.127C169.967 40.1417 169.802 40.16 169.677 40.182V39.456C169.956 39.4047 170.268 39.368 170.612 39.346C170.964 39.3167 171.327 39.302 171.701 39.302C172.097 39.302 172.431 39.3277 172.702 39.379C172.981 39.423 173.205 39.4963 173.373 39.599C173.549 39.7017 173.681 39.8373 173.769 40.006C173.857 40.1747 173.916 40.38 173.945 40.622C173.982 40.864 174 41.1463 174 41.469V45H173.197L173.164 44.208H173.098C172.981 44.4647 172.812 44.659 172.592 44.791C172.38 44.9157 172.145 44.9963 171.888 45.033C171.632 45.0697 171.386 45.088 171.151 45.088ZM171.481 44.351C171.694 44.351 171.892 44.34 172.075 44.318C172.259 44.2887 172.42 44.2373 172.559 44.164C172.699 44.0907 172.809 43.9807 172.889 43.834C172.97 43.68 173.025 43.515 173.054 43.339C173.091 43.1557 173.109 42.943 173.109 42.701V42.415H171.239C170.953 42.415 170.733 42.437 170.579 42.481C170.425 42.525 170.319 42.6167 170.26 42.756C170.209 42.8953 170.183 43.1043 170.183 43.383C170.183 43.6543 170.216 43.8597 170.282 43.999C170.348 44.1383 170.473 44.2337 170.656 44.285C170.847 44.329 171.122 44.351 171.481 44.351ZM175.434 46.32V45.891C175.61 45.891 175.746 45.8727 175.841 45.836C175.936 45.7993 175.999 45.7297 176.028 45.627C176.057 45.5243 176.072 45.3777 176.072 45.187V45H175.665V43.922H176.71V44.824C176.71 45.132 176.692 45.3813 176.655 45.572C176.626 45.77 176.567 45.9203 176.479 46.023C176.391 46.133 176.263 46.21 176.094 46.254C175.925 46.298 175.705 46.32 175.434 46.32ZM180.318 45L183.134 41.205L180.362 37.432H181.484L183.684 40.402H183.772L185.983 37.432H187.061L184.289 41.172L187.094 45H185.983L183.739 41.964H183.651L181.396 45H180.318ZM189.66 45.088C189.249 45.088 188.905 45.0403 188.626 44.945C188.355 44.8497 188.149 44.6847 188.01 44.45C187.878 44.2153 187.812 43.8853 187.812 43.46C187.812 43.0347 187.86 42.701 187.955 42.459C188.058 42.2097 188.234 42.0337 188.483 41.931C188.732 41.8283 189.081 41.777 189.528 41.777C189.601 41.777 189.715 41.7807 189.869 41.788C190.03 41.788 190.214 41.7917 190.419 41.799C190.624 41.799 190.83 41.8027 191.035 41.81C191.248 41.81 191.442 41.8137 191.618 41.821V41.469C191.618 41.139 191.596 40.8823 191.552 40.699C191.515 40.5083 191.435 40.369 191.31 40.281C191.185 40.1857 191.009 40.127 190.782 40.105C190.562 40.0757 190.269 40.061 189.902 40.061C189.741 40.061 189.55 40.0683 189.33 40.083C189.11 40.0903 188.894 40.105 188.681 40.127C188.476 40.1417 188.311 40.16 188.186 40.182V39.456C188.465 39.4047 188.776 39.368 189.121 39.346C189.473 39.3167 189.836 39.302 190.21 39.302C190.606 39.302 190.94 39.3277 191.211 39.379C191.49 39.423 191.713 39.4963 191.882 39.599C192.058 39.7017 192.19 39.8373 192.278 40.006C192.366 40.1747 192.425 40.38 192.454 40.622C192.491 40.864 192.509 41.1463 192.509 41.469V45H191.706L191.673 44.208H191.607C191.49 44.4647 191.321 44.659 191.101 44.791C190.888 44.9157 190.654 44.9963 190.397 45.033C190.14 45.0697 189.895 45.088 189.66 45.088ZM189.99 44.351C190.203 44.351 190.401 44.34 190.584 44.318C190.767 44.2887 190.929 44.2373 191.068 44.164C191.207 44.0907 191.317 43.9807 191.398 43.834C191.479 43.68 191.534 43.515 191.563 43.339C191.6 43.1557 191.618 42.943 191.618 42.701V42.415H189.748C189.462 42.415 189.242 42.437 189.088 42.481C188.934 42.525 188.828 42.6167 188.769 42.756C188.718 42.8953 188.692 43.1043 188.692 43.383C188.692 43.6543 188.725 43.8597 188.791 43.999C188.857 44.1383 188.982 44.2337 189.165 44.285C189.356 44.329 189.631 44.351 189.99 44.351ZM194.416 45V39.39H195.23L195.263 40.193H195.329C195.409 40.017 195.519 39.863 195.659 39.731C195.805 39.599 196 39.4963 196.242 39.423C196.491 39.3423 196.806 39.302 197.188 39.302C197.606 39.302 197.939 39.346 198.189 39.434C198.438 39.522 198.629 39.654 198.761 39.83C198.9 40.006 198.992 40.2333 199.036 40.512C199.08 40.7833 199.102 41.1097 199.102 41.491V45H198.211V41.799C198.211 41.4177 198.192 41.117 198.156 40.897C198.126 40.6697 198.064 40.501 197.969 40.391C197.873 40.2737 197.734 40.1967 197.551 40.16C197.367 40.1233 197.125 40.105 196.825 40.105C196.465 40.105 196.183 40.1527 195.978 40.248C195.772 40.336 195.622 40.468 195.527 40.644C195.431 40.8127 195.373 41.0217 195.351 41.271C195.329 41.513 195.318 41.7917 195.318 42.107V45H194.416ZM201.155 45V37.432H204.466C204.95 37.432 205.335 37.4943 205.621 37.619C205.914 37.7363 206.13 37.9013 206.27 38.114C206.416 38.3267 206.515 38.5797 206.567 38.873C206.618 39.159 206.644 39.4743 206.644 39.819C206.644 40.149 206.618 40.4607 206.567 40.754C206.523 41.04 206.427 41.293 206.281 41.513C206.134 41.733 205.914 41.9053 205.621 42.03C205.327 42.1547 204.935 42.217 204.444 42.217H202.101V45H201.155ZM202.101 41.392H204.136C204.495 41.392 204.777 41.3627 204.983 41.304C205.195 41.2453 205.353 41.1537 205.456 41.029C205.558 40.897 205.624 40.732 205.654 40.534C205.683 40.336 205.698 40.0977 205.698 39.819C205.698 39.5403 205.683 39.302 205.654 39.104C205.632 38.906 205.569 38.7447 205.467 38.62C205.371 38.4953 205.217 38.4037 205.005 38.345C204.799 38.279 204.517 38.246 204.158 38.246H202.101V41.392ZM210.398 45.088C209.936 45.088 209.551 45.0587 209.243 45C208.943 44.9487 208.704 44.8607 208.528 44.736C208.352 44.6113 208.22 44.439 208.132 44.219C208.052 43.999 208 43.724 207.978 43.394C207.956 43.0567 207.945 42.657 207.945 42.195C207.945 41.733 207.956 41.337 207.978 41.007C208 40.6697 208.052 40.391 208.132 40.171C208.22 39.951 208.352 39.7787 208.528 39.654C208.704 39.5293 208.943 39.4413 209.243 39.39C209.551 39.3313 209.936 39.302 210.398 39.302C210.868 39.302 211.253 39.3313 211.553 39.39C211.854 39.4413 212.092 39.5293 212.268 39.654C212.452 39.7787 212.584 39.951 212.664 40.171C212.752 40.391 212.807 40.6697 212.829 41.007C212.851 41.337 212.862 41.733 212.862 42.195C212.862 42.657 212.851 43.0567 212.829 43.394C212.807 43.724 212.752 43.999 212.664 44.219C212.584 44.439 212.452 44.6113 212.268 44.736C212.092 44.8607 211.854 44.9487 211.553 45C211.253 45.0587 210.868 45.088 210.398 45.088ZM210.398 44.329C210.794 44.329 211.099 44.3033 211.311 44.252C211.524 44.2007 211.674 44.1017 211.762 43.955C211.858 43.8083 211.913 43.5957 211.927 43.317C211.949 43.031 211.96 42.657 211.96 42.195C211.96 41.733 211.949 41.3627 211.927 41.084C211.913 40.798 211.858 40.5817 211.762 40.435C211.674 40.2883 211.524 40.1893 211.311 40.138C211.099 40.0867 210.794 40.061 210.398 40.061C210.01 40.061 209.705 40.0867 209.485 40.138C209.273 40.1893 209.122 40.2883 209.034 40.435C208.946 40.5817 208.891 40.798 208.869 41.084C208.847 41.3627 208.836 41.733 208.836 42.195C208.836 42.657 208.847 43.031 208.869 43.317C208.891 43.5957 208.946 43.8083 209.034 43.955C209.122 44.1017 209.273 44.2007 209.485 44.252C209.705 44.3033 210.01 44.329 210.398 44.329ZM216.747 45.088C216.285 45.088 215.9 45.0587 215.592 45C215.291 44.9487 215.053 44.8607 214.877 44.736C214.701 44.6113 214.569 44.439 214.481 44.219C214.4 43.999 214.349 43.724 214.327 43.394C214.305 43.0567 214.294 42.657 214.294 42.195C214.294 41.733 214.305 41.337 214.327 41.007C214.349 40.6697 214.4 40.391 214.481 40.171C214.569 39.951 214.701 39.7787 214.877 39.654C215.053 39.5293 215.291 39.4413 215.592 39.39C215.9 39.3313 216.285 39.302 216.747 39.302C217.216 39.302 217.601 39.3313 217.902 39.39C218.203 39.4413 218.441 39.5293 218.617 39.654C218.8 39.7787 218.932 39.951 219.013 40.171C219.101 40.391 219.156 40.6697 219.178 41.007C219.2 41.337 219.211 41.733 219.211 42.195C219.211 42.657 219.2 43.0567 219.178 43.394C219.156 43.724 219.101 43.999 219.013 44.219C218.932 44.439 218.8 44.6113 218.617 44.736C218.441 44.8607 218.203 44.9487 217.902 45C217.601 45.0587 217.216 45.088 216.747 45.088ZM216.747 44.329C217.143 44.329 217.447 44.3033 217.66 44.252C217.873 44.2007 218.023 44.1017 218.111 43.955C218.206 43.8083 218.261 43.5957 218.276 43.317C218.298 43.031 218.309 42.657 218.309 42.195C218.309 41.733 218.298 41.3627 218.276 41.084C218.261 40.798 218.206 40.5817 218.111 40.435C218.023 40.2883 217.873 40.1893 217.66 40.138C217.447 40.0867 217.143 40.061 216.747 40.061C216.358 40.061 216.054 40.0867 215.834 40.138C215.621 40.1893 215.471 40.2883 215.383 40.435C215.295 40.5817 215.24 40.798 215.218 41.084C215.196 41.3627 215.185 41.733 215.185 42.195C215.185 42.657 215.196 43.031 215.218 43.317C215.24 43.5957 215.295 43.8083 215.383 43.955C215.471 44.1017 215.621 44.2007 215.834 44.252C216.054 44.3033 216.358 44.329 216.747 44.329ZM220.874 45V36.827H221.776V45H220.874ZM228.331 45V43.922H229.376V45H228.331ZM223.425 45V43.922H224.47V45H223.425ZM225.878 45V43.922H226.923V45H225.878ZM235.689 45V43.922H236.734V45H235.689ZM230.783 45V43.922H231.828V45H230.783ZM233.236 45V43.922H234.281V45H233.236Z" fill="white" fill-opacity="0.55"/>
<path d="M61.276 27V18.754H58.35V17.368H65.77V18.754H62.858V27H61.276ZM67.2271 27V16.598H68.7111V20.742H68.8091C68.9211 20.5273 69.0704 20.35 69.2571 20.21C69.4438 20.0607 69.6771 19.9487 69.9571 19.874C70.2464 19.7993 70.5964 19.762 71.0071 19.762C71.5111 19.762 71.9171 19.818 72.2251 19.93C72.5424 20.042 72.7804 20.2147 72.9391 20.448C73.0978 20.6813 73.2051 20.9707 73.2611 21.316C73.3264 21.6613 73.3591 22.0673 73.3591 22.534V27H71.8611V23.122C71.8611 22.6553 71.8424 22.2867 71.8051 22.016C71.7771 21.736 71.7118 21.5307 71.6091 21.4C71.5064 21.26 71.3524 21.1713 71.1471 21.134C70.9511 21.0967 70.6851 21.078 70.3491 21.078C69.9758 21.078 69.6771 21.1247 69.4531 21.218C69.2384 21.3113 69.0751 21.4513 68.9631 21.638C68.8604 21.8247 68.7904 22.058 68.7531 22.338C68.7251 22.618 68.7111 22.9447 68.7111 23.318V27H67.2271ZM75.5389 18.068V16.598H77.0929V18.068H75.5389ZM75.5669 27V19.86H77.0509V27H75.5669ZM79.2583 27V19.86H80.6163L80.6723 21.148H80.7843C80.9057 20.7747 81.0737 20.4853 81.2883 20.28C81.503 20.0747 81.7643 19.9347 82.0723 19.86C82.3803 19.7853 82.7303 19.748 83.1223 19.748V21.204C82.4877 21.204 81.9977 21.2973 81.6523 21.484C81.3163 21.6707 81.0783 21.9693 80.9383 22.38C80.8077 22.7813 80.7423 23.3087 80.7423 23.962V27H79.2583ZM86.7763 27.112C86.3003 27.112 85.899 27.056 85.5723 26.944C85.2457 26.8227 84.9843 26.6267 84.7883 26.356C84.5923 26.076 84.4477 25.698 84.3543 25.222C84.2703 24.746 84.2283 24.1533 84.2283 23.444C84.2283 22.7253 84.2703 22.128 84.3543 21.652C84.4477 21.176 84.5877 20.8027 84.7743 20.532C84.9703 20.252 85.227 20.0513 85.5443 19.93C85.8617 19.8087 86.2537 19.748 86.7203 19.748C87.0657 19.748 87.3783 19.776 87.6583 19.832C87.9383 19.888 88.1857 19.986 88.4003 20.126C88.6243 20.2567 88.8017 20.448 88.9323 20.7H89.0303V16.598H90.5143V27H89.1423L89.0863 26.062H89.0023C88.8623 26.3607 88.671 26.5847 88.4283 26.734C88.195 26.8833 87.9337 26.9813 87.6443 27.028C87.355 27.084 87.0657 27.112 86.7763 27.112ZM87.3783 25.796C87.789 25.796 88.1063 25.7447 88.3303 25.642C88.5637 25.53 88.727 25.3573 88.8203 25.124C88.9137 24.9093 88.9697 24.662 88.9883 24.382C89.0163 24.102 89.0303 23.7753 89.0303 23.402C89.0303 23.0473 89.0163 22.7393 88.9883 22.478C88.9697 22.2073 88.9183 21.9787 88.8343 21.792C88.7317 21.54 88.5637 21.358 88.3303 21.246C88.1063 21.134 87.789 21.078 87.3783 21.078C87.005 21.078 86.7063 21.106 86.4823 21.162C86.2677 21.2087 86.1043 21.3113 85.9923 21.47C85.8897 21.6193 85.8197 21.8527 85.7823 22.17C85.745 22.478 85.7263 22.898 85.7263 23.43C85.7263 23.962 85.745 24.3867 85.7823 24.704C85.8197 25.012 85.8943 25.2453 86.0063 25.404C86.1183 25.5627 86.2817 25.67 86.4963 25.726C86.7203 25.7727 87.0143 25.796 87.3783 25.796ZM92.4031 23.668V22.352H95.9451V23.668H92.4031ZM98.0204 27V17.368H102.332C102.939 17.368 103.429 17.4427 103.802 17.592C104.176 17.7413 104.46 17.956 104.656 18.236C104.862 18.5067 104.997 18.8333 105.062 19.216C105.137 19.5987 105.174 20.0233 105.174 20.49C105.174 20.9287 105.142 21.3393 105.076 21.722C105.011 22.0953 104.876 22.4267 104.67 22.716C104.474 22.996 104.185 23.2153 103.802 23.374C103.42 23.5327 102.916 23.612 102.29 23.612H99.6024V27H98.0204ZM99.6024 22.268H101.688C102.127 22.268 102.477 22.24 102.738 22.184C103 22.128 103.186 22.03 103.298 21.89C103.42 21.75 103.499 21.568 103.536 21.344C103.574 21.12 103.592 20.8353 103.592 20.49C103.592 20.1447 103.574 19.86 103.536 19.636C103.508 19.4027 103.434 19.2207 103.312 19.09C103.2 18.95 103.018 18.852 102.766 18.796C102.514 18.74 102.169 18.712 101.73 18.712H99.6024V22.268ZM108.764 27.112C108.279 27.112 107.868 27.0467 107.532 26.916C107.205 26.7853 106.958 26.5707 106.79 26.272C106.622 25.964 106.538 25.5487 106.538 25.026C106.538 24.4753 106.603 24.0413 106.734 23.724C106.865 23.3973 107.089 23.164 107.406 23.024C107.723 22.884 108.171 22.814 108.75 22.814C108.843 22.814 108.979 22.8187 109.156 22.828C109.343 22.828 109.553 22.8327 109.786 22.842C110.029 22.842 110.267 22.8467 110.5 22.856C110.743 22.856 110.962 22.8607 111.158 22.87V22.534C111.158 22.17 111.135 21.8853 111.088 21.68C111.041 21.4747 110.943 21.3253 110.794 21.232C110.654 21.1293 110.449 21.064 110.178 21.036C109.907 21.008 109.557 20.994 109.128 20.994C108.923 20.994 108.68 21.0033 108.4 21.022C108.129 21.0313 107.863 21.0453 107.602 21.064C107.341 21.0827 107.14 21.106 107 21.134V19.958C107.383 19.8833 107.803 19.832 108.26 19.804C108.717 19.7667 109.175 19.748 109.632 19.748C110.164 19.748 110.607 19.7807 110.962 19.846C111.326 19.9113 111.62 20.014 111.844 20.154C112.068 20.294 112.236 20.476 112.348 20.7C112.46 20.924 112.539 21.1947 112.586 21.512C112.633 21.82 112.656 22.1747 112.656 22.576V27H111.284L111.228 26.076H111.144C110.985 26.3747 110.771 26.6033 110.5 26.762C110.239 26.9113 109.954 27.0047 109.646 27.042C109.338 27.0887 109.044 27.112 108.764 27.112ZM109.422 25.908C109.655 25.908 109.865 25.894 110.052 25.866C110.248 25.8287 110.416 25.7727 110.556 25.698C110.705 25.614 110.822 25.502 110.906 25.362C110.99 25.2033 111.051 25.0213 111.088 24.816C111.135 24.6107 111.158 24.368 111.158 24.088V23.836H109.114C108.806 23.836 108.568 23.8593 108.4 23.906C108.241 23.9527 108.134 24.0507 108.078 24.2C108.022 24.3493 107.994 24.578 107.994 24.886C107.994 25.1753 108.027 25.3947 108.092 25.544C108.157 25.684 108.293 25.782 108.498 25.838C108.713 25.8847 109.021 25.908 109.422 25.908ZM114.874 27V19.86H116.232L116.288 21.148H116.4C116.521 20.7747 116.689 20.4853 116.904 20.28C117.118 20.0747 117.38 19.9347 117.688 19.86C117.996 19.7853 118.346 19.748 118.738 19.748V21.204C118.103 21.204 117.613 21.2973 117.268 21.484C116.932 21.6707 116.694 21.9693 116.554 22.38C116.423 22.7813 116.358 23.3087 116.358 23.962V27H114.874ZM120.836 27V21.106H119.408V19.86H120.836V17.788H122.32V19.86H123.986V21.106H122.32V27H120.836ZM128.256 29.884C127.986 29.884 127.701 29.8747 127.402 29.856C127.113 29.8467 126.833 29.8327 126.562 29.814C126.301 29.7953 126.068 29.772 125.862 29.744V28.582C126.198 28.5913 126.488 28.6007 126.73 28.61C126.982 28.6193 127.206 28.624 127.402 28.624C127.598 28.6333 127.771 28.638 127.92 28.638C128.424 28.638 128.821 28.6053 129.11 28.54C129.4 28.4747 129.614 28.3627 129.754 28.204C129.894 28.0453 129.978 27.826 130.006 27.546C130.044 27.2753 130.062 26.93 130.062 26.51V26.076H129.978C129.885 26.2813 129.745 26.4587 129.558 26.608C129.381 26.748 129.143 26.86 128.844 26.944C128.555 27.0187 128.196 27.056 127.766 27.056C127.272 27.056 126.866 27 126.548 26.888C126.24 26.7667 126.002 26.594 125.834 26.37C125.676 26.1367 125.568 25.8473 125.512 25.502C125.456 25.1567 125.428 24.7553 125.428 24.298V19.86H126.912V23.71C126.912 24.1767 126.926 24.55 126.954 24.83C126.992 25.1007 127.062 25.3013 127.164 25.432C127.267 25.5627 127.416 25.6513 127.612 25.698C127.818 25.7353 128.088 25.754 128.424 25.754C128.798 25.754 129.096 25.7073 129.32 25.614C129.544 25.5207 129.708 25.3807 129.81 25.194C129.922 25.0073 129.992 24.774 130.02 24.494C130.048 24.214 130.062 23.8873 130.062 23.514V19.86H131.56V26.16C131.56 26.8227 131.523 27.3873 131.448 27.854C131.383 28.33 131.238 28.7173 131.014 29.016C130.8 29.3147 130.473 29.534 130.034 29.674C129.596 29.814 129.003 29.884 128.256 29.884ZM137.327 27V17.368H141.639C142.246 17.368 142.736 17.4427 143.109 17.592C143.482 17.7413 143.767 17.956 143.963 18.236C144.168 18.5067 144.304 18.8333 144.369 19.216C144.444 19.5987 144.481 20.0233 144.481 20.49C144.481 20.9287 144.448 21.3393 144.383 21.722C144.318 22.0953 144.182 22.4267 143.977 22.716C143.781 22.996 143.492 23.2153 143.109 23.374C142.726 23.5327 142.222 23.612 141.597 23.612H138.909V27H137.327ZM138.909 22.268H140.995C141.434 22.268 141.784 22.24 142.045 22.184C142.306 22.128 142.493 22.03 142.605 21.89C142.726 21.75 142.806 21.568 142.843 21.344C142.88 21.12 142.899 20.8353 142.899 20.49C142.899 20.1447 142.88 19.86 142.843 19.636C142.815 19.4027 142.74 19.2207 142.619 19.09C142.507 18.95 142.325 18.852 142.073 18.796C141.821 18.74 141.476 18.712 141.037 18.712H138.909V22.268ZM148.071 27.112C147.585 27.112 147.175 27.0467 146.839 26.916C146.512 26.7853 146.265 26.5707 146.097 26.272C145.929 25.964 145.845 25.5487 145.845 25.026C145.845 24.4753 145.91 24.0413 146.041 23.724C146.171 23.3973 146.395 23.164 146.713 23.024C147.03 22.884 147.478 22.814 148.057 22.814C148.15 22.814 148.285 22.8187 148.463 22.828C148.649 22.828 148.859 22.8327 149.093 22.842C149.335 22.842 149.573 22.8467 149.807 22.856C150.049 22.856 150.269 22.8607 150.465 22.87V22.534C150.465 22.17 150.441 21.8853 150.395 21.68C150.348 21.4747 150.25 21.3253 150.101 21.232C149.961 21.1293 149.755 21.064 149.485 21.036C149.214 21.008 148.864 20.994 148.435 20.994C148.229 20.994 147.987 21.0033 147.707 21.022C147.436 21.0313 147.17 21.0453 146.909 21.064C146.647 21.0827 146.447 21.106 146.307 21.134V19.958C146.689 19.8833 147.109 19.832 147.567 19.804C148.024 19.7667 148.481 19.748 148.939 19.748C149.471 19.748 149.914 19.7807 150.269 19.846C150.633 19.9113 150.927 20.014 151.151 20.154C151.375 20.294 151.543 20.476 151.655 20.7C151.767 20.924 151.846 21.1947 151.893 21.512C151.939 21.82 151.963 22.1747 151.963 22.576V27H150.591L150.535 26.076H150.451C150.292 26.3747 150.077 26.6033 149.807 26.762C149.545 26.9113 149.261 27.0047 148.953 27.042C148.645 27.0887 148.351 27.112 148.071 27.112ZM148.729 25.908C148.962 25.908 149.172 25.894 149.359 25.866C149.555 25.8287 149.723 25.7727 149.863 25.698C150.012 25.614 150.129 25.502 150.213 25.362C150.297 25.2033 150.357 25.0213 150.395 24.816C150.441 24.6107 150.465 24.368 150.465 24.088V23.836H148.421C148.113 23.836 147.875 23.8593 147.707 23.906C147.548 23.9527 147.441 24.0507 147.385 24.2C147.329 24.3493 147.301 24.578 147.301 24.886C147.301 25.1753 147.333 25.3947 147.399 25.544C147.464 25.684 147.599 25.782 147.805 25.838C148.019 25.8847 148.327 25.908 148.729 25.908ZM157.008 29.884C156.738 29.884 156.453 29.8747 156.154 29.856C155.865 29.8467 155.585 29.8327 155.314 29.814C155.053 29.7953 154.82 29.772 154.614 29.744V28.582C154.95 28.5913 155.24 28.6007 155.482 28.61C155.734 28.6193 155.958 28.624 156.154 28.624C156.35 28.6333 156.523 28.638 156.672 28.638C157.176 28.638 157.573 28.6053 157.862 28.54C158.152 28.4747 158.366 28.3627 158.506 28.204C158.646 28.0453 158.73 27.826 158.758 27.546C158.796 27.2753 158.814 26.93 158.814 26.51V26.076H158.73C158.637 26.2813 158.497 26.4587 158.31 26.608C158.133 26.748 157.895 26.86 157.596 26.944C157.307 27.0187 156.948 27.056 156.518 27.056C156.024 27.056 155.618 27 155.3 26.888C154.992 26.7667 154.754 26.594 154.586 26.37C154.428 26.1367 154.32 25.8473 154.264 25.502C154.208 25.1567 154.18 24.7553 154.18 24.298V19.86H155.664V23.71C155.664 24.1767 155.678 24.55 155.706 24.83C155.744 25.1007 155.814 25.3013 155.916 25.432C156.019 25.5627 156.168 25.6513 156.364 25.698C156.57 25.7353 156.84 25.754 157.176 25.754C157.55 25.754 157.848 25.7073 158.072 25.614C158.296 25.5207 158.46 25.3807 158.562 25.194C158.674 25.0073 158.744 24.774 158.772 24.494C158.8 24.214 158.814 23.8873 158.814 23.514V19.86H160.312V26.16C160.312 26.8227 160.275 27.3873 160.2 27.854C160.135 28.33 159.99 28.7173 159.766 29.016C159.552 29.3147 159.225 29.534 158.786 29.674C158.348 29.814 157.755 29.884 157.008 29.884ZM162.52 27V19.86H163.892L163.934 20.812H164.032C164.135 20.588 164.275 20.3967 164.452 20.238C164.639 20.0793 164.867 19.958 165.138 19.874C165.418 19.79 165.754 19.748 166.146 19.748C166.743 19.748 167.191 19.8367 167.49 20.014C167.789 20.182 167.999 20.448 168.12 20.812H168.232C168.335 20.588 168.479 20.3967 168.666 20.238C168.862 20.0793 169.1 19.958 169.38 19.874C169.669 19.79 170.01 19.748 170.402 19.748C171.018 19.748 171.48 19.8507 171.788 20.056C172.096 20.2613 172.301 20.574 172.404 20.994C172.507 21.4047 172.558 21.918 172.558 22.534V27H171.074V23.122C171.074 22.6553 171.06 22.2867 171.032 22.016C171.004 21.736 170.943 21.5307 170.85 21.4C170.766 21.26 170.631 21.1713 170.444 21.134C170.267 21.0967 170.033 21.078 169.744 21.078C169.408 21.078 169.142 21.1247 168.946 21.218C168.75 21.302 168.605 21.4373 168.512 21.624C168.419 21.8013 168.358 22.03 168.33 22.31C168.302 22.59 168.288 22.926 168.288 23.318V27H166.804V23.122C166.804 22.6553 166.785 22.2867 166.748 22.016C166.72 21.736 166.659 21.5307 166.566 21.4C166.482 21.26 166.351 21.1713 166.174 21.134C165.997 21.0967 165.759 21.078 165.46 21.078C165.133 21.078 164.872 21.1247 164.676 21.218C164.48 21.3113 164.331 21.4513 164.228 21.638C164.135 21.8153 164.074 22.0487 164.046 22.338C164.018 22.618 164.004 22.9447 164.004 23.318V27H162.52ZM177.822 27.112C177.215 27.112 176.711 27.0747 176.31 27C175.908 26.916 175.586 26.7853 175.344 26.608C175.101 26.4213 174.919 26.188 174.798 25.908C174.676 25.6187 174.597 25.2733 174.56 24.872C174.522 24.4613 174.504 23.9853 174.504 23.444C174.504 22.8 174.536 22.2447 174.602 21.778C174.667 21.3113 174.802 20.9287 175.008 20.63C175.213 20.322 175.53 20.098 175.96 19.958C176.398 19.818 176.982 19.748 177.71 19.748C178.279 19.748 178.746 19.7947 179.11 19.888C179.474 19.972 179.758 20.1073 179.964 20.294C180.178 20.4807 180.332 20.7233 180.426 21.022C180.528 21.3113 180.594 21.6613 180.622 22.072C180.65 22.4733 180.664 22.9307 180.664 23.444V23.92H176.002C176.002 24.34 176.02 24.6807 176.058 24.942C176.095 25.194 176.179 25.39 176.31 25.53C176.45 25.6607 176.664 25.754 176.954 25.81C177.252 25.8567 177.654 25.88 178.158 25.88C178.372 25.88 178.606 25.8753 178.858 25.866C179.119 25.8567 179.385 25.838 179.656 25.81C179.926 25.782 180.169 25.7587 180.384 25.74V26.902C180.178 26.9393 179.931 26.972 179.642 27C179.352 27.0373 179.049 27.0653 178.732 27.084C178.414 27.1027 178.111 27.112 177.822 27.112ZM179.236 23.122V22.856C179.236 22.436 179.208 22.1047 179.152 21.862C179.105 21.61 179.021 21.4233 178.9 21.302C178.788 21.1713 178.629 21.0873 178.424 21.05C178.228 21.0033 177.98 20.98 177.682 20.98C177.308 20.98 177.01 21.008 176.786 21.064C176.571 21.1107 176.408 21.204 176.296 21.344C176.184 21.484 176.104 21.68 176.058 21.932C176.02 22.1747 176.002 22.4967 176.002 22.898H179.488L179.236 23.122ZM182.59 27V19.86H183.962L184.004 20.812H184.116C184.228 20.5787 184.378 20.3873 184.564 20.238C184.751 20.0793 184.994 19.958 185.292 19.874C185.591 19.79 185.955 19.748 186.384 19.748C186.888 19.748 187.294 19.8087 187.602 19.93C187.91 20.042 188.144 20.2147 188.302 20.448C188.461 20.6813 188.568 20.9707 188.624 21.316C188.69 21.6613 188.722 22.0673 188.722 22.534V27H187.224V23.122C187.224 22.6553 187.206 22.2867 187.168 22.016C187.14 21.736 187.075 21.5307 186.972 21.4C186.87 21.26 186.716 21.1713 186.51 21.134C186.314 21.0967 186.048 21.078 185.712 21.078C185.339 21.078 185.04 21.1247 184.816 21.218C184.602 21.3113 184.438 21.4513 184.326 21.638C184.224 21.8247 184.154 22.058 184.116 22.338C184.088 22.618 184.074 22.9447 184.074 23.318V27H182.59ZM191.574 27V21.106H190.146V19.86H191.574V17.788H193.058V19.86H194.724V21.106H193.058V27H191.574Z" fill="white"/>
<circle cx="30" cy="32" r="20" fill="white"/>
<g clip-path="url(#clip0_12170_15206)">
<path fill-rule="evenodd" clip-rule="evenodd" d="M25.2505 38.8992C24.9962 38.6467 24.6527 38.5047 24.2944 38.5039C23.9635 38.5039 23.6462 38.6354 23.4123 38.8694C23.1783 39.1035 23.0469 39.4209 23.0469 39.7519C23.0469 40.0829 23.1783 40.4003 23.4123 40.6343C23.6462 40.8684 23.9635 40.9998 24.2944 40.9998C24.6571 40.9892 25.0014 40.8381 25.2549 40.5784L24.9776 40.2705C24.7998 40.4482 24.5609 40.5513 24.3097 40.5587C24.0932 40.5587 23.8855 40.4727 23.7324 40.3195C23.5793 40.1664 23.4933 39.9586 23.4933 39.742C23.4933 39.5254 23.5793 39.3177 23.7324 39.1646C23.8855 39.0114 24.0932 38.9254 24.3097 38.9254C24.437 38.9297 24.562 38.9602 24.6769 39.0151C24.7918 39.0699 24.8942 39.1479 24.9776 39.2442L25.2505 38.8992ZM27.1758 40.1635C27.3288 40.0994 27.4581 39.9893 27.5457 39.8485C27.6333 39.7076 27.6749 39.543 27.6648 39.3774C27.6648 38.838 27.3024 38.5323 26.6672 38.5323H25.6412V40.9802H26.1128V40.2508H26.7545L27.1802 40.978H27.7172L27.1758 40.1635ZM26.6672 38.9406C27.0187 38.9406 27.2151 39.0869 27.2151 39.3905C27.2151 39.694 27.0187 39.849 26.6672 39.849H26.1128V38.9406H26.6672ZM29.6534 38.5301L28.9985 39.6853L28.3284 38.5301H27.846L28.7628 40.2006V40.9889H29.2321V40.1744L30.1271 38.5214L29.6534 38.5301ZM30.4305 38.5301V40.9802H30.902V40.2508H31.439C32.0568 40.2508 32.4126 39.9255 32.4126 39.3621C32.4126 38.7987 32.0568 38.517 31.439 38.517L30.4305 38.5301ZM30.902 39.8403V38.9406H31.415C31.7665 38.9406 31.9651 39.0869 31.9651 39.3905C31.9651 39.694 31.7665 39.849 31.415 39.849L30.902 39.8403ZM32.5261 38.9406H33.2923V40.9824H33.766V38.9406H34.5322V38.5214H32.5261V38.9406ZM34.53 39.753C34.5169 40.0145 34.5825 40.2739 34.7182 40.4978C34.8539 40.7218 35.0536 40.8998 35.2915 41.0091C35.5294 41.1184 35.7945 41.1539 36.0527 41.111C36.311 41.0681 36.5504 40.9487 36.7402 40.7684C36.93 40.588 37.0614 40.3549 37.1174 40.0991C37.1735 39.8434 37.1517 39.5766 37.0548 39.3334C36.9579 39.0902 36.7903 38.8815 36.5737 38.7345C36.3572 38.5874 36.1015 38.5086 35.8397 38.5083C35.6716 38.5015 35.5039 38.5286 35.3464 38.5878C35.1888 38.647 35.0448 38.7372 34.9227 38.853C34.8006 38.9688 34.703 39.1079 34.6355 39.2621C34.5681 39.4163 34.5322 39.5825 34.53 39.7508V39.753ZM36.6692 39.753C36.6698 39.8613 36.649 39.9686 36.6081 40.0688C36.5671 40.1691 36.5068 40.2603 36.4305 40.3371C36.3543 40.414 36.2636 40.4751 36.1637 40.5169C36.0639 40.5586 35.9567 40.5803 35.8485 40.5806C35.6296 40.5806 35.4197 40.4936 35.265 40.3388C35.1103 40.184 35.0233 39.9741 35.0233 39.7552C35.0233 39.5362 35.1103 39.3263 35.265 39.1715C35.4197 39.0167 35.6296 38.9297 35.8485 38.9297C35.9563 38.9294 36.0632 38.9505 36.1629 38.9916C36.2626 39.0328 36.3532 39.0933 36.4295 39.1696C36.5058 39.2459 36.5662 39.3365 36.6073 39.4362C36.6485 39.536 36.6695 39.6429 36.6692 39.7508V39.753Z" fill="#50CADD"/>
<path fill-rule="evenodd" clip-rule="evenodd" d="M34.1704 24.8669C29.7173 21.4822 23.5506 22.7814 18.9425 28.0834C18.1451 28.9962 17.1642 30.5371 16 32.7062C18.6326 32.9435 19.959 33.0614 19.9794 33.06C21.1567 30.8938 22.0939 29.4234 22.791 28.649C25.4694 25.6726 27.231 24.9782 29.1934 24.5786C30.2044 24.3675 31.2511 24.4004 32.2468 24.6746C33.2425 24.9488 34.1586 25.4563 34.9192 26.1552C36.8838 28.0201 37.7569 30.6121 37.7111 30.4177C37.2193 28.2088 35.9658 26.2436 34.1704 24.8669Z" fill="#3FBAC2"/>
<path fill-rule="evenodd" clip-rule="evenodd" d="M30.9131 25.8234C29.3654 26.0723 28.0404 26.4785 25.8924 28.7822C24.9396 29.8203 24.1518 30.9987 23.5567 32.2761C23.5567 32.2761 20.6142 31.9267 20.6055 31.9354C21.4961 30.369 22.2237 29.2692 22.7884 28.6359C25.4711 25.6552 27.2327 24.9652 29.1952 24.5612C30.2065 24.3499 31.2535 24.3827 32.2496 24.6569C33.2457 24.9311 34.1622 25.4387 34.9231 26.1378C36.8877 28.0048 37.7608 30.599 37.7194 30.4047C37.5316 29.5684 34.9493 25.1835 30.9131 25.8234Z" fill="#3FBAC2" fill-opacity="0.7"/>
<path fill-rule="evenodd" clip-rule="evenodd" d="M30.903 25.8185C29.3553 26.0674 28.0325 26.4736 25.8823 28.7752C25.1311 29.5875 24.4843 30.4905 23.957 31.4633C23.957 31.4633 24.8891 31.5223 26.7359 31.6576C27.0939 30.9212 27.5192 30.2195 28.0063 29.5613C31.0624 25.5827 34.1817 26.6265 35.1793 27.3471C36.7335 28.4695 37.7311 30.5156 37.7049 30.4042C37.5172 29.5613 34.937 25.17 30.903 25.8185Z" fill="#3FBAC2" fill-opacity="0.4"/>
<path fill-rule="evenodd" clip-rule="evenodd" d="M23.0771 35.0837C23.0771 36.2586 24.0245 37.167 25.26 37.167C26.4956 37.167 27.4429 36.2586 27.4429 35.0837C27.4429 33.9089 26.4956 33.0114 25.26 33.0114C24.0245 33.0114 23.0771 33.9002 23.0771 35.0837ZM26.6418 35.0837C26.6424 35.2644 26.6074 35.4434 26.5388 35.6105C26.4702 35.7777 26.3694 35.9296 26.2421 36.0578C26.1148 36.1859 25.9635 36.2878 25.7969 36.3574C25.6303 36.4271 25.4516 36.4632 25.271 36.4638C24.9062 36.4638 24.5564 36.3189 24.2985 36.0609C24.0406 35.8029 23.8957 35.453 23.8957 35.0881C23.8957 34.7232 24.0406 34.3733 24.2985 34.1153C24.5564 33.8573 24.9062 33.7124 25.271 33.7124C25.4511 33.7118 25.6297 33.7469 25.7962 33.8156C25.9628 33.8843 26.1142 33.9853 26.2416 34.1128C26.369 34.2402 26.47 34.3916 26.5386 34.5583C26.6073 34.7249 26.6424 34.9035 26.6418 35.0837ZM28.1306 33.0442V37.132H28.9142V35.9266H29.8092C30.8395 35.9266 31.4311 35.3807 31.4311 34.4439C31.4311 33.5421 30.8439 33.0442 29.8092 33.0442H28.1306ZM28.9142 35.2279V33.7189H29.7699C30.3549 33.7189 30.6889 33.9657 30.6889 34.4679C30.6889 34.9702 30.3549 35.2279 29.7699 35.2279H28.9142ZM32.0794 37.1255H35.1507V36.4463H32.8631V35.4157H34.8539V34.7322H32.8631V33.7189H35.0809V33.0442H32.0794V37.1255ZM35.9475 37.1255H36.7137V34.3326L38.8224 37.132H39.5755V33.0442H38.8158V35.8371L36.6919 33.0442H35.9475V37.1255ZM43.9937 33.66C43.5729 33.2443 43.0067 33.0093 42.4154 33.0049C41.1908 33.0049 40.25 33.9002 40.25 35.0706C40.2487 35.3493 40.3034 35.6254 40.4108 35.8825C40.5183 36.1397 40.6762 36.3726 40.8753 36.5675C41.0744 36.7624 41.3106 36.9153 41.57 37.0172C41.8293 37.119 42.1064 37.1677 42.3849 37.1604C42.9945 37.1462 43.5743 36.8938 44.0002 36.4573L43.5374 35.9419C43.2423 36.2385 42.8445 36.4105 42.4263 36.4223C42.0657 36.4223 41.7197 36.279 41.4647 36.0239C41.2097 35.7687 41.0664 35.4227 41.0664 35.0619C41.0664 34.7011 41.2097 34.3551 41.4647 34.0999C41.7197 33.8448 42.0657 33.7015 42.4263 33.7015C42.6382 33.708 42.8464 33.7585 43.0377 33.8499C43.229 33.9412 43.3991 34.0714 43.5374 34.2321L43.9937 33.66Z" fill="black"/>
</g>
<g opacity="0.12">
<g clip-path="url(#clip1_12170_15206)">
<path fill-rule="evenodd" clip-rule="evenodd" d="M285.144 47.3409C284.563 46.764 283.778 46.4394 282.959 46.4375C282.203 46.4375 281.477 46.738 280.943 47.273C280.408 47.8079 280.107 48.5335 280.107 49.29C280.107 50.0465 280.408 50.7721 280.943 51.307C281.477 51.842 282.203 52.1425 282.959 52.1425C283.788 52.1183 284.575 51.7729 285.154 51.1792L284.521 50.4754C284.114 50.8815 283.568 51.1172 282.994 51.1343C282.499 51.1343 282.024 50.9376 281.674 50.5875C281.324 50.2374 281.128 49.7626 281.128 49.2675C281.128 48.7724 281.324 48.2976 281.674 47.9476C282.024 47.5975 282.499 47.4008 282.994 47.4008C283.285 47.4107 283.57 47.4805 283.833 47.6059C284.096 47.7313 284.33 47.9095 284.521 48.1295L285.144 47.3409ZM289.545 50.2308C289.895 50.0844 290.19 49.8328 290.39 49.5108C290.591 49.1888 290.686 48.8125 290.663 48.434C290.663 47.2012 289.834 46.5024 288.382 46.5024H286.037V52.0976H287.115V50.4305H288.582L289.555 52.0926H290.782L289.545 50.2308ZM288.382 47.4357C289.186 47.4357 289.635 47.7702 289.635 48.4639C289.635 49.1577 289.186 49.5121 288.382 49.5121H287.115V47.4357H288.382ZM295.208 46.4974L293.711 49.1378L292.179 46.4974H291.077L293.172 50.3157V52.1175H294.245V50.2558L296.291 46.4774L295.208 46.4974ZM296.984 46.4974V52.0976H298.062V50.4305H299.289C300.701 50.4305 301.515 49.6868 301.515 48.3991C301.515 47.1113 300.701 46.4674 299.289 46.4674L296.984 46.4974ZM298.062 49.4921V47.4357H299.235C300.038 47.4357 300.492 47.7702 300.492 48.4639C300.492 49.1577 300.038 49.5121 299.235 49.5121L298.062 49.4921ZM301.774 47.4357H303.526V52.1026H304.608V47.4357H306.36V46.4774H301.774V47.4357ZM306.355 49.2925C306.325 49.8903 306.474 50.4833 306.785 50.9951C307.095 51.5069 307.551 51.9139 308.095 52.1637C308.639 52.4135 309.245 52.4946 309.835 52.3965C310.425 52.2984 310.973 52.0257 311.406 51.6134C311.84 51.2012 312.141 50.6684 312.269 50.0838C312.397 49.4991 312.347 48.8895 312.125 48.3335C311.904 47.7775 311.521 47.3006 311.026 46.9645C310.531 46.6283 309.947 46.4482 309.348 46.4475C308.964 46.4321 308.581 46.4939 308.221 46.6293C307.861 46.7646 307.531 46.9707 307.252 47.2354C306.973 47.5002 306.75 47.8181 306.596 48.1706C306.442 48.523 306.36 48.9028 306.355 49.2875V49.2925ZM311.244 49.2925C311.246 49.54 311.198 49.7854 311.104 50.0145C311.011 50.2436 310.873 50.452 310.699 50.6277C310.524 50.8035 310.317 50.9431 310.089 51.0386C309.861 51.134 309.616 51.1835 309.368 51.1842C308.868 51.1842 308.388 50.9854 308.035 50.6316C307.681 50.2778 307.482 49.7979 307.482 49.2975C307.482 48.7971 307.681 48.3172 308.035 47.9634C308.388 47.6096 308.868 47.4108 309.368 47.4108C309.615 47.4101 309.859 47.4582 310.087 47.5523C310.315 47.6464 310.522 47.7846 310.696 47.959C310.871 48.1334 311.009 48.3406 311.103 48.5685C311.197 48.7965 311.245 49.0409 311.244 49.2875V49.2925Z" fill="white"/>
<path fill-rule="evenodd" clip-rule="evenodd" d="M305.532 15.2674C295.354 7.53094 281.259 10.5007 270.726 22.6195C268.903 24.7058 266.661 28.228 264 33.186C270.017 33.7283 273.049 33.9979 273.096 33.9945C275.787 29.0432 277.929 25.6824 279.522 23.9122C285.644 17.1091 289.671 15.5219 294.156 14.6085C296.467 14.1261 298.86 14.2013 301.135 14.828C303.411 15.4547 305.505 16.6148 307.244 18.2122C311.734 22.4747 313.73 28.3994 313.625 27.9551C312.501 22.9062 309.636 18.4143 305.532 15.2674Z" fill="white"/>
<path fill-rule="evenodd" clip-rule="evenodd" d="M298.087 17.4536C294.549 18.0226 291.521 18.9509 286.611 24.2167C284.433 26.5894 282.632 29.2829 281.272 32.2027C281.272 32.2027 274.546 31.4041 274.526 31.4241C276.562 27.8437 278.225 25.3297 279.516 23.8823C285.648 17.0692 289.674 15.492 294.16 14.5686C296.471 14.0857 298.865 14.1607 301.142 14.7874C303.418 15.4141 305.513 16.5744 307.252 18.1723C311.743 22.4398 313.739 28.3694 313.644 27.9252C313.215 26.0135 307.312 15.9911 298.087 17.4536Z" fill="white" fill-opacity="0.8"/>
<path fill-rule="evenodd" clip-rule="evenodd" d="M298.064 17.4425C294.526 18.0115 291.503 18.9399 286.588 24.2006C284.871 26.0573 283.393 28.1214 282.188 30.3449C282.188 30.3449 284.318 30.4796 288.539 30.7891C289.358 29.1059 290.33 27.5019 291.443 25.9975C298.428 16.9034 305.558 19.2892 307.838 20.9364C311.391 23.5019 313.671 28.1787 313.611 27.9241C313.182 25.9975 307.285 15.9601 298.064 17.4425Z" fill="white" fill-opacity="0.6"/>
<path fill-rule="evenodd" clip-rule="evenodd" d="M280.177 38.6201C280.177 41.3054 282.342 43.3817 285.166 43.3817C287.99 43.3817 290.156 41.3054 290.156 38.6201C290.156 35.9348 287.99 33.8834 285.166 33.8834C282.342 33.8834 280.177 35.9148 280.177 38.6201ZM288.325 38.6201C288.326 39.033 288.246 39.4422 288.089 39.8242C287.932 40.2062 287.702 40.5536 287.411 40.8465C287.12 41.1394 286.774 41.3721 286.393 41.5314C286.012 41.6906 285.604 41.7732 285.191 41.7745C284.358 41.7745 283.558 41.4433 282.968 40.8535C282.379 40.2638 282.048 39.464 282.048 38.6301C282.048 37.7961 282.379 36.9963 282.968 36.4066C283.558 35.8169 284.358 35.4856 285.191 35.4856C285.603 35.4843 286.011 35.5644 286.392 35.7215C286.773 35.8785 287.119 36.1094 287.41 36.4007C287.701 36.692 287.932 37.0381 288.089 37.419C288.246 37.7999 288.326 38.2081 288.325 38.6201ZM291.727 33.9583V43.3019H293.519V40.5467H295.564C297.919 40.5467 299.271 39.2989 299.271 37.1576C299.271 35.0963 297.929 33.9583 295.564 33.9583H291.727ZM293.519 38.9495V35.5005H295.474C296.812 35.5005 297.575 36.0646 297.575 37.2125C297.575 38.3605 296.812 38.9495 295.474 38.9495H293.519ZM300.753 43.2869H307.774V41.7346H302.545V39.3787H307.095V37.8165H302.545V35.5005H307.614V33.9583H300.753V43.2869ZM309.595 43.2869H311.346V36.9031L316.166 43.3019H317.887V33.9583H316.151V40.3421L311.296 33.9583H309.595V43.2869ZM327.986 35.3658C327.024 34.4157 325.73 33.8785 324.379 33.8684C321.579 33.8684 319.429 35.9148 319.429 38.5901C319.426 39.2271 319.551 39.8582 319.797 40.4459C320.042 41.0336 320.403 41.566 320.858 42.0115C321.313 42.457 321.853 42.8065 322.446 43.0393C323.039 43.2721 323.672 43.3835 324.309 43.3668C325.702 43.3342 327.027 42.7573 328.001 41.7596L326.943 40.5816C326.268 41.2596 325.359 41.6527 324.403 41.6797C323.579 41.6797 322.788 41.3521 322.205 40.7689C321.623 40.1858 321.295 39.3949 321.295 38.5702C321.295 37.7455 321.623 36.9545 322.205 36.3714C322.788 35.7882 323.579 35.4606 324.403 35.4606C324.888 35.4755 325.364 35.591 325.801 35.7998C326.238 36.0087 326.627 36.3062 326.943 36.6735L327.986 35.3658Z" fill="white"/>
</g>
</g>
<defs>
<linearGradient id="paint0_linear_12170_15206" x1="167.5" y1="59.4286" x2="167.441" y2="6.17319e-05" gradientUnits="userSpaceOnUse">
<stop stop-color="#178F7A"/>
<stop offset="1" stop-color="#20D3B3"/>
</linearGradient>
<linearGradient id="paint1_linear_12170_15206" x1="167.5" y1="0" x2="167.5" y2="64" gradientUnits="userSpaceOnUse">
<stop stop-color="white"/>
<stop offset="1" stop-color="white" stop-opacity="0"/>
</linearGradient>
<clipPath id="clip0_12170_15206">
<rect width="28" height="18" fill="white" transform="translate(16 23)"/>
</clipPath>
<clipPath id="clip1_12170_15206">
<rect width="64" height="41.1429" fill="white" transform="translate(264 11)"/>
</clipPath>
</defs>
</svg>
