<svg width="256" height="144" viewBox="0 0 256 144" fill="none" xmlns="http://www.w3.org/2000/svg">
<rect x="0.5" y="-0.5" width="255" height="143" rx="15.5" transform="matrix(1 0 0 -1 0 143)" fill="url(#paint0_linear_1249_4621)" stroke="url(#paint1_linear_1249_4621)"/>
<path d="M60.5068 72.2536C59.5475 70.9715 55.8703 70.187 55.8703 70.187C53.632 70.4442 53.0724 69.5291 53.0724 69.5291C52.3529 69.449 49.0754 66.8047 49.0754 66.8047C48.4359 65.6028 47.3967 66.6445 47.3967 66.6445C45.8778 68.3272 44.7587 66.6445 44.7587 66.6445C43.7994 65.6028 43.3198 62.6641 43.3198 62.6641L43 81.5486L62.4009 91.9967V73.2151C61.5188 72.9778 60.5068 72.2536 60.5068 72.2536Z" fill="white"/>
<path d="M80.5198 64.0542C80.0811 65.1893 78.4366 65.1479 78.4366 65.1479C77.9406 65.1479 77.9158 65.8689 77.9158 65.8689L77.6183 67.7084C77.6183 68.1809 77.2958 68.827 77.2958 68.827C76.9238 70.0203 76.3533 68.8022 76.3533 68.8022C76.0806 68.3051 75.6342 67.2113 75.6342 67.2113C75.5599 66.8135 75.3504 66.7526 75.3504 66.7526C74.6741 66.4892 74.6106 66.2997 74.6196 66.2233L73.0055 70.8904L72.4333 73.6959C72.5556 74.3385 72.2999 74.8181 72.2999 74.8181C71.9776 75.4147 71.7902 74.9921 71.7902 74.9921C71.7406 74.6689 71.9253 73.5999 71.9253 73.5999L68.807 69.6179C67.9319 69.9864 68.0709 70.7679 68.0709 70.7679L67.5806 72.7454C67.3919 74.1937 66.8261 75.1538 66.8261 75.1538C66.4112 76.515 65.5813 75.1538 65.5813 75.1538C65.3551 74.7379 64.827 72.7454 64.827 72.7454C64.4498 71.6982 63.7331 72.5851 63.7331 72.5851C63.0859 73.6553 62.3984 73.2151 62.3984 73.2151V91.9963L67.5235 89.3451L67.5576 79.238L72.1112 86.8178L73.806 85.7821L77.5257 74.1477L77.5671 83.6692L81.4524 81.5147V62.6641C80.5 63.362 80.5198 64.0542 80.5198 64.0542Z" fill="white"/>
<path d="M74.625 66.2213L74.6373 66.1875C74.6373 66.1875 74.6284 66.1994 74.625 66.2213Z" fill="white"/>
<path d="M68.64 69.3781L71.9258 73.6024L74.6207 66.2218C74.6242 66.2 74.6331 66.188 74.6331 66.188L81.4529 62.6664L62.3852 52L55.4725 55.7538L53.3646 60.9492L49.6693 58.8611L43.1719 62.416L43.3178 62.6664L62.3989 72.7479L68.64 69.3781Z" fill="#DCDCDC"/>
<path d="M47.3894 66.6445C47.3894 66.6445 48.4286 65.6028 49.0682 66.8047C49.0682 66.8047 52.3457 69.449 53.0651 69.5291C53.0651 69.5291 53.6247 70.4442 55.863 70.187C55.863 70.187 59.5403 70.9715 60.4995 72.2536C60.4995 72.2536 61.5116 72.9778 62.3936 73.2151V72.7455L43.3125 62.6641C43.3125 62.6641 43.7921 65.6028 44.7514 66.6445C44.7514 66.6445 45.8706 68.3272 47.3894 66.6445Z" fill="#A4A4A4"/>
<path d="M71.9326 73.6072C71.9326 73.6072 71.748 74.6761 71.7975 74.9994C71.7975 74.9994 71.9849 75.422 72.3072 74.8254C72.3072 74.8254 72.5627 74.3457 72.4405 73.703L73.0127 70.8977L74.6269 66.2304C74.6271 66.229 74.6272 66.2279 74.6275 66.2266L71.9326 73.6072Z" fill="white"/>
<path d="M62.3984 72.7526V73.2221C62.3984 73.2221 63.0859 73.6625 63.7331 72.5923C63.7331 72.5923 64.4498 71.7054 64.827 72.7526C64.827 72.7526 65.3551 74.7451 65.5815 75.161C65.5815 75.161 66.4112 76.5221 66.8261 75.161C66.8261 75.161 67.3919 74.2008 67.5806 72.7526L68.0709 70.775C68.0709 70.775 67.9319 69.9934 68.807 69.6251L71.9253 73.6071L68.6395 69.3828L62.3984 72.7526Z" fill="#BDBDBD"/>
<path d="M74.6256 66.2215C74.6255 66.2227 74.6252 66.224 74.625 66.2253L74.6381 66.1875L74.6256 66.2215Z" fill="white"/>
<path d="M74.6179 66.2233C74.6089 66.2999 74.6726 66.4892 75.3487 66.7528C75.3487 66.7528 75.5582 66.8135 75.6327 67.2113C75.6327 67.2113 76.0791 68.3051 76.3518 68.8024C76.3518 68.8024 76.9223 70.0203 77.2941 68.8272C77.2941 68.8272 77.6166 68.1809 77.6166 67.7086L77.9141 65.8689C77.9141 65.8689 77.9389 65.1481 78.435 65.1481C78.435 65.1481 80.0796 65.1895 80.5181 64.0542C80.5181 64.0542 80.4983 63.362 81.4507 62.6641L74.6309 66.1856L74.6179 66.2233Z" fill="#BDBDBD"/>
<path d="M93.5674 76.3105H95.9118C96.7034 76.3105 97.2613 76.1698 97.5863 75.8884C97.9109 75.607 98.0732 75.2287 98.0732 74.754C98.0732 74.3133 97.9124 73.959 97.591 73.691C97.2699 73.4231 96.7065 73.2891 95.9016 73.2891H93.5674V76.3105ZM93.5674 70.4509H95.5669C96.284 70.4509 96.783 70.3273 97.0639 70.0797C97.3444 69.8322 97.4848 69.4744 97.4848 69.0065C97.4848 68.5725 97.3444 68.2334 97.0639 67.9891C96.783 67.7451 96.2937 67.623 95.5973 67.623H93.5674V70.4509ZM88.9297 64.6016H97.5352C98.9697 64.6016 100.071 64.9577 100.839 65.6699C101.607 66.3819 101.991 67.2635 101.991 68.3146C101.991 69.1964 101.716 69.9525 101.169 70.5833C100.803 71.0038 100.269 71.336 99.5651 71.5801C100.634 71.8379 101.421 72.2806 101.925 72.9077C102.428 73.5351 102.681 74.3234 102.681 75.2728C102.681 76.0461 102.501 76.7413 102.143 77.3583C101.784 77.9755 101.294 78.4637 100.672 78.8232C100.286 79.0469 99.7036 79.2097 98.9257 79.3115C97.8906 79.4473 97.2039 79.5149 96.8657 79.5149H88.9297V64.6016Z" fill="#BFBFBF"/>
<path d="M104.617 64.6016H108.758V79.5149H104.617V64.6016Z" fill="#BFBFBF"/>
<path d="M114.07 73.8146C114.07 74.7776 114.265 75.4898 114.654 75.9509C115.043 76.4121 115.532 76.6426 116.12 76.6426C116.716 76.6426 117.205 76.4155 117.587 75.9611C117.969 75.5068 118.16 74.7776 118.16 73.7739C118.16 72.838 117.968 72.1412 117.582 71.6835C117.196 71.2256 116.719 70.9967 116.151 70.9967C115.549 70.9967 115.051 71.2291 114.659 71.6935C114.267 72.1582 114.07 72.8652 114.07 73.8146ZM109.93 73.8247C109.93 72.1767 110.484 70.8187 111.594 69.7506C112.704 68.6824 114.202 68.1484 116.09 68.1484C118.248 68.1484 119.878 68.7757 120.982 70.0304C121.868 71.041 122.311 72.2854 122.311 73.7638C122.311 75.4254 121.761 76.7868 120.662 77.848C119.562 78.9096 118.042 79.4402 116.1 79.4402C114.368 79.4402 112.967 78.9993 111.898 78.1177C110.586 77.0259 109.93 75.5948 109.93 73.8247Z" fill="#BFBFBF"/>
<path d="M129.439 68.1094C129.868 68.1094 130.298 68.1337 130.728 68.1823C131.158 68.2312 131.553 68.2833 131.914 68.3387C132.33 68.4084 132.732 68.4847 133.12 68.568V71.4452C132.815 71.4035 132.468 71.3481 132.08 71.2784C131.692 71.209 131.301 71.1606 130.905 71.1325C130.51 71.1048 130.125 71.1152 129.751 71.1638C129.376 71.2127 129.044 71.3341 128.753 71.5285C128.461 71.7234 128.225 72.0013 128.045 72.3627C127.865 72.7242 127.775 73.2106 127.775 73.822C127.775 74.4615 127.861 74.9759 128.035 75.3648C128.208 75.7541 128.437 76.0528 128.721 76.2613C129.005 76.4698 129.335 76.5985 129.709 76.6471C130.083 76.696 130.468 76.7028 130.864 76.6679C131.259 76.6333 131.65 76.5708 132.039 76.4803C132.427 76.39 132.787 76.3102 133.12 76.2405V78.9092C132.732 79.0205 132.33 79.1107 131.914 79.1803C131.553 79.2495 131.155 79.3085 130.718 79.3574C130.281 79.4059 129.848 79.4305 129.418 79.4305C128.877 79.4305 128.281 79.347 127.629 79.1803C126.977 79.0135 126.371 78.7215 125.809 78.3045C125.247 77.8876 124.78 77.3178 124.406 76.595C124.031 75.8724 123.844 74.9478 123.844 73.822C123.844 72.6962 124.031 71.7685 124.406 71.0386C124.78 70.309 125.247 69.7253 125.809 69.2873C126.371 68.8495 126.977 68.5438 127.629 68.37C128.281 68.1963 128.884 68.1094 129.439 68.1094Z" fill="#BFBFBF"/>
<path d="M134.844 64.2891H139.066V71.987L142.15 68.3989H147.235L143.368 72.1833L147.458 79.2024H142.804L140.622 74.8717L139.066 76.3946V79.2024H134.844V64.2891Z" fill="#BFBFBF"/>
<path d="M158.215 70.1914L163.174 64.9219H166.515V79.1333H162.671V70.2626L158.503 74.7183H157.925L153.758 70.2626V79.1333H149.914V64.9219H153.251L158.215 70.1914Z" fill="#BFBFBF"/>
<path d="M207.423 76.7052V74.3136C206.326 74.6773 205.573 75.0044 205.164 75.2943C204.755 75.5847 204.551 75.9536 204.551 76.4012C204.551 76.6879 204.654 76.9344 204.861 77.1406C205.067 77.3469 205.317 77.4499 205.612 77.4499C206.23 77.4499 206.834 77.202 207.423 76.7052ZM212.482 76.6659V78.391C211.392 78.9905 210.368 79.29 209.411 79.29C208.38 79.29 207.769 78.9206 207.578 78.1818C206.436 78.9206 205.292 79.29 204.143 79.29C203.333 79.29 202.644 79.0474 202.077 78.5623C201.51 78.0772 201.227 77.5134 201.227 76.8711C201.227 76.0126 201.519 75.3196 202.105 74.7925C202.69 74.2656 204.463 73.5867 207.423 72.7558C207.497 71.6546 206.893 71.1039 205.612 71.1039C204.22 71.1039 202.939 71.6546 201.768 72.7558V70.2257C203.138 69.4243 204.643 69.0234 206.286 69.0234C209.231 69.0234 210.704 70.0249 210.704 72.0277V76.5291C210.704 76.9898 210.884 77.2199 211.245 77.2199C211.517 77.2199 211.929 77.0355 212.482 76.6659Z" fill="#BFBFBF"/>
<path d="M175.384 76.7052V74.3136C174.287 74.6773 173.534 75.0044 173.125 75.2943C172.716 75.5847 172.512 75.9536 172.512 76.4012C172.512 76.6879 172.615 76.9344 172.821 77.1406C173.028 77.3469 173.278 77.4499 173.573 77.4499C174.191 77.4499 174.795 77.202 175.384 76.7052ZM180.443 76.6659V78.391C179.353 78.9905 178.329 79.29 177.372 79.29C176.341 79.29 175.73 78.9206 175.539 78.1818C174.397 78.9206 173.252 79.29 172.103 79.29C171.294 79.29 170.605 79.0474 170.038 78.5623C169.471 78.0772 169.188 77.5134 169.188 76.8711C169.188 76.0126 169.48 75.3196 170.066 74.7925C170.651 74.2656 172.424 73.5867 175.384 72.7558C175.458 71.6546 174.854 71.1039 173.573 71.1039C172.181 71.1039 170.899 71.6546 169.729 72.7558V70.2257C171.098 69.4243 172.604 69.0234 174.247 69.0234C177.192 69.0234 178.665 70.0249 178.665 72.0277V76.5291C178.665 76.9898 178.845 77.2199 179.206 77.2199C179.478 77.2199 179.89 77.0355 180.443 76.6659Z" fill="#BFBFBF"/>
<path d="M185.489 69.1411V70.6108C186.53 69.485 187.748 68.9219 189.145 68.9219C190.312 68.9219 191.287 69.2659 192.068 69.9538C192.85 70.6418 193.241 71.6263 193.241 72.9071V79.4942H189.705V73.1798C189.705 71.7961 189.122 71.1043 187.954 71.1043C187.121 71.1043 186.299 71.6747 185.489 72.8152V79.4942H181.953V69.1411H185.489Z" fill="#BFBFBF"/>
<path d="M199.138 79.4932H195.602V69.1401H199.138V79.4932ZM195.789 66.157C195.789 65.7811 195.933 65.4602 196.221 65.195C196.509 64.9296 196.854 64.7969 197.257 64.7969C197.665 64.7969 198.013 64.9296 198.301 65.195C198.589 65.4602 198.733 65.7811 198.733 66.157C198.733 66.5274 198.589 66.8466 198.301 67.1147C198.013 67.383 197.665 67.517 197.257 67.517C196.854 67.517 196.509 67.383 196.221 67.1147C195.933 66.8466 195.789 66.5274 195.789 66.157Z" fill="#BFBFBF"/>
<path d="M92.7787 75.5136H95.1231C95.9147 75.5136 96.4726 75.3729 96.7976 75.0915C97.1222 74.81 97.2845 74.4319 97.2845 73.9572C97.2845 73.5164 97.1238 73.1621 96.8027 72.8942C96.4812 72.6262 95.9178 72.4922 95.1129 72.4922H92.7787V75.5136ZM92.7787 69.654H94.7778C95.4949 69.654 95.9939 69.5305 96.2748 69.2829C96.5553 69.0352 96.6962 68.6775 96.6962 68.2096C96.6962 67.7756 96.5553 67.4365 96.2748 67.1923C95.9939 66.9482 95.505 66.8261 94.8082 66.8261H92.7787V69.654ZM88.1406 63.8047H96.7465C98.1807 63.8047 99.2821 64.1608 100.05 64.873C100.818 65.585 101.202 66.4666 101.202 67.5178C101.202 68.3995 100.928 69.1556 100.38 69.7864C100.014 70.2069 99.4799 70.5391 98.7764 70.7832C99.845 71.0411 100.632 71.4837 101.136 72.1108C101.64 72.7382 101.892 73.5265 101.892 74.4759C101.892 75.2492 101.713 75.9444 101.354 76.5614C100.996 77.1785 100.505 77.6669 99.8829 78.0263C99.497 78.25 98.9149 78.4129 98.137 78.5146C97.1019 78.6504 96.4153 78.718 96.077 78.718H88.1406V63.8047Z" fill="white"/>
<path d="M103.82 63.8047H107.961V78.718H103.82V63.8047Z" fill="white"/>
<path d="M113.266 73.0177C113.266 73.9807 113.46 74.6929 113.849 75.154C114.238 75.6152 114.727 75.8456 115.315 75.8456C115.911 75.8456 116.4 75.6186 116.782 75.1642C117.164 74.7099 117.356 73.9807 117.356 72.977C117.356 72.0411 117.162 71.3443 116.777 70.8866C116.391 70.4287 115.914 70.1999 115.346 70.1999C114.744 70.1999 114.246 70.4322 113.854 70.8967C113.462 71.3613 113.266 72.0683 113.266 73.0177ZM109.125 73.0278C109.125 71.3799 109.679 70.0218 110.789 68.9537C111.899 67.8855 113.398 67.3516 115.285 67.3516C117.443 67.3516 119.074 67.9788 120.177 69.2335C121.063 70.2441 121.506 71.4885 121.506 72.9669C121.506 74.6285 120.956 75.9899 119.857 77.0511C118.758 78.1127 117.237 78.6433 115.295 78.6433C113.563 78.6433 112.163 78.2024 111.094 77.3209C109.781 76.229 109.125 74.7979 109.125 73.0278Z" fill="white"/>
<path d="M128.642 67.3047C129.072 67.3047 129.501 67.329 129.931 67.3776C130.361 67.4265 130.756 67.4786 131.117 67.534C131.533 67.6037 131.935 67.68 132.323 67.7633V70.6405C132.018 70.5988 131.671 70.5434 131.283 70.4737C130.895 70.4043 130.503 70.3559 130.108 70.3278C129.713 70.3001 129.328 70.3105 128.954 70.3591C128.579 70.408 128.247 70.5294 127.955 70.7238C127.664 70.9187 127.428 71.1966 127.248 71.558C127.068 71.9195 126.978 72.4059 126.978 73.0173C126.978 73.6567 127.064 74.1712 127.238 74.5601C127.411 74.9494 127.64 75.2482 127.924 75.4566C128.208 75.6651 128.538 75.7938 128.912 75.8424C129.287 75.8912 129.671 75.8982 130.066 75.8632C130.462 75.8286 130.853 75.7661 131.242 75.6755C131.63 75.5853 131.991 75.5055 132.323 75.4358V78.1044C131.935 78.2158 131.533 78.3061 131.117 78.3756C130.756 78.4449 130.358 78.5038 129.921 78.5527C129.484 78.6013 129.051 78.6258 128.621 78.6258C128.08 78.6258 127.484 78.5423 126.832 78.3756C126.181 78.2088 125.574 77.9168 125.012 77.4998C124.451 77.083 123.983 76.5131 123.608 75.7903C123.234 75.0677 123.047 74.1431 123.047 73.0173C123.047 71.8915 123.234 70.9637 123.608 70.2339C123.983 69.5042 124.451 68.9206 125.012 68.4826C125.574 68.0448 126.181 67.7391 126.832 67.5653C127.484 67.3916 128.087 67.3047 128.642 67.3047Z" fill="white"/>
<path d="M134.039 63.4922H138.261V71.1901L141.346 67.6021H146.431L142.564 71.3865L146.654 78.4055H142L139.817 74.0748L138.261 75.5978V78.4055H134.039V63.4922Z" fill="white"/>
<path d="M157.418 69.3943L162.377 64.125H165.718V78.3362H161.874V69.4655L157.706 73.9212H157.128L152.961 69.4655V78.3362H149.117V64.125H152.455L157.418 69.3943Z" fill="white"/>
<path d="M206.626 75.9085V73.5167C205.529 73.8804 204.776 74.2075 204.367 74.4975C203.959 74.7879 203.755 75.1567 203.755 75.6043C203.755 75.891 203.858 76.1375 204.064 76.3439C204.27 76.5501 204.52 76.6532 204.815 76.6532C205.433 76.6532 206.037 76.4051 206.626 75.9085ZM211.685 75.869V77.5943C210.595 78.1936 209.572 78.4933 208.615 78.4933C207.583 78.4933 206.972 78.1239 206.781 77.3851C205.639 78.1239 204.495 78.4933 203.346 78.4933C202.536 78.4933 201.847 78.2507 201.28 77.7655C200.713 77.2805 200.43 76.7167 200.43 76.0742C200.43 75.2156 200.722 74.5229 201.308 73.9956C201.893 73.4687 203.666 72.7898 206.626 71.959C206.7 70.8577 206.096 70.3072 204.815 70.3072C203.423 70.3072 202.142 70.8577 200.971 71.959V69.4288C202.341 68.6275 203.846 68.2266 205.489 68.2266C208.434 68.2266 209.907 69.2282 209.907 71.2309V75.7323C209.907 76.1929 210.087 76.4232 210.448 76.4232C210.72 76.4232 211.133 76.2386 211.685 75.869Z" fill="white"/>
<path d="M174.587 75.9085V73.5167C173.49 73.8804 172.737 74.2075 172.328 74.4975C171.92 74.7879 171.715 75.1567 171.715 75.6043C171.715 75.891 171.818 76.1375 172.024 76.3439C172.23 76.5501 172.481 76.6532 172.775 76.6532C173.394 76.6532 173.998 76.4051 174.587 75.9085ZM179.646 75.869V77.5943C178.556 78.1936 177.532 78.4933 176.575 78.4933C175.544 78.4933 174.933 78.1239 174.742 77.3851C173.6 78.1239 172.455 78.4933 171.307 78.4933C170.496 78.4933 169.808 78.2507 169.241 77.7655C168.674 77.2805 168.391 76.7167 168.391 76.0742C168.391 75.2156 168.683 74.5229 169.269 73.9956C169.854 73.4687 171.627 72.7898 174.587 71.959C174.66 70.8577 174.057 70.3072 172.775 70.3072C171.384 70.3072 170.103 70.8577 168.932 71.959V69.4288C170.301 68.6275 171.807 68.2266 173.449 68.2266C176.394 68.2266 177.867 69.2282 177.867 71.2309V75.7323C177.867 76.1929 178.048 76.4232 178.409 76.4232C178.681 76.4232 179.094 76.2386 179.646 75.869Z" fill="white"/>
<path d="M184.701 68.3444V69.814C185.741 68.6882 186.959 68.125 188.356 68.125C189.523 68.125 190.498 68.4691 191.28 69.1569C192.062 69.8449 192.453 70.8296 192.453 72.1102V78.6973H188.916V72.383C188.916 70.9994 188.333 70.3074 187.166 70.3074C186.332 70.3074 185.51 70.8778 184.701 72.0184V78.6973H181.164V68.3444H184.701Z" fill="white"/>
<path d="M198.341 78.6971H194.805V68.3441H198.341V78.6971ZM195.186 65.5553C195.186 65.1795 195.33 64.8587 195.618 64.5934C195.906 64.328 196.251 64.1953 196.654 64.1953C197.062 64.1953 197.41 64.328 197.698 64.5934C197.986 64.8587 198.131 65.1795 198.131 65.5553C198.131 65.9258 197.986 66.2452 197.698 66.5132C197.41 66.7814 197.062 66.9154 196.654 66.9154C196.251 66.9154 195.906 66.7814 195.618 66.5132C195.33 66.2452 195.186 65.9258 195.186 65.5553Z" fill="white"/>
<path d="M57.392 85.3948L48.0391 80.2665V75.8594L57.392 81.0678V85.3948Z" fill="#B5B5B5"/>
<path d="M48.0391 80.2665L51.9561 78.0407L48.0391 75.8594V80.2665Z" fill="#747474"/>
<path d="M53.3672 60.9455L68.6425 69.3744L71.9286 73.5986L74.6356 66.1842L55.4752 55.75L53.3672 60.9455Z" fill="#A4A4A4"/>
<path d="M72.1183 86.822L67.5469 84.4849L67.5645 79.2422L72.1183 86.822Z" fill="#B5B5B5"/>
<path d="M77.5721 83.6699L74.8984 82.2856L77.5307 74.1484L77.5721 83.6699Z" fill="#B5B5B5"/>
<path d="M57.392 74.0248V78.4319L48.0391 73.2234V68.9766L57.392 74.0248Z" fill="#B5B5B5"/>
<path d="M48.0391 68.9766V73.2234L51.9561 71.1L48.0391 68.9766Z" fill="#747474"/>
<defs>
<linearGradient id="paint0_linear_1249_4621" x1="128" y1="0" x2="128" y2="144" gradientUnits="userSpaceOnUse">
<stop stop-color="#0E0520"/>
<stop offset="1" stop-color="#1B1B45"/>
</linearGradient>
<linearGradient id="paint1_linear_1249_4621" x1="128" y1="1.02857" x2="128" y2="144" gradientUnits="userSpaceOnUse">
<stop stop-color="#2F235B" stop-opacity="0"/>
<stop offset="1" stop-color="#2F235B"/>
</linearGradient>
</defs>
</svg>
