<svg width="375" height="260" viewBox="0 0 375 260" fill="none" xmlns="http://www.w3.org/2000/svg">
<mask id="mask0_806_5" style="mask-type:alpha" maskUnits="userSpaceOnUse" x="0" y="0" width="375" height="260">
<rect width="375" height="260" fill="#D9D9D9"/>
</mask>
<g mask="url(#mask0_806_5)">
<path d="M388.624 150.348L410.924 156.982L431.875 195.844L423.311 218.152L413.358 224.046L410.924 234.668L394.262 220.119H377.593L344.262 205.57H316.878L247.335 222.899H203.646L144.97 236.09H100.76L84.673 218.89L60.1377 222.899L40.5789 233.504L3.77585 236.09L-39.8554 222.899L-47.0273 218.89L-109.608 211.58H-115.857V205.57L-128.125 177.598L-115.857 171.126L-47.0273 142.324L-26.8897 144.284L-12.5997 138.542L-9.29834 106.205L-2.47012 109.708L19.9821 153.055H47.1365L49.2032 135.441L49.489 132.976L49.7894 130.453L50.9474 120.519L52.6696 105.854L56.1212 105.144L57.0593 97.2884L57.5869 92.8996L57.8068 91.0783L58.1438 88.2841L60.5182 68.4544L64.6881 69.9904L73.3645 82.4618L73.2106 90.1713L73.1519 93.024L73.1227 94.6698V94.6771L72.9834 101.531V101.538L72.6536 117.491L75.1526 120.578C75.2259 121.916 75.1306 126.086 74.9621 131.133C74.8741 133.832 74.7642 136.802 74.6616 139.705C74.6103 140.934 74.5663 142.156 74.515 143.348L74.3538 147.327C74.1413 152.586 73.9654 156.492 73.9654 156.492L76.5817 156.968L77.593 154.495L79.6376 149.47L84.4377 137.679L100.377 133.876L100.384 132.742L100.443 122.597L100.494 115.289L87.4643 106.205C87.4643 105.53 87.4714 104.841 87.4786 104.145L87.479 104.106C87.4937 103.023 87.5303 101.918 87.5596 100.792C87.5669 100.646 87.5742 100.499 87.5742 100.353C87.6181 99.0604 87.684 97.7384 87.7498 96.4164L87.7501 96.4106C87.8747 94.2601 88.0213 92.095 88.1825 89.9592C88.2484 89.1326 88.3145 88.3061 88.3878 87.4942C88.6149 84.7878 88.8641 82.1472 89.1205 79.7042C89.6115 74.8985 90.1172 70.8024 90.4471 68.213C90.6962 66.3332 90.85 65.2433 90.85 65.2433L97.4529 56.1586C79.9748 53.4888 84.7895 52.4206 84.7895 52.4206L83.9467 46.5835L83.7268 45.0767L83.2141 41.5072L82.7158 38.0621L82.2907 35.1363L77.2929 23.0234L75.153 22.3139L74.662 19.9293L72.5075 9.52071L72.0165 7.15811L71.6794 5.55622L71.5768 5.03689C86.3874 0.055679 97.4529 -0.302734 97.4529 -0.302734C107.251 0.787134 108.856 3.35488 115.987 7.44371C116.001 7.45103 116.03 7.45834 116.045 7.47297C119.416 9.3967 121.534 10.7645 121.534 10.7645L121.9 12.2347L122.626 15.1167L124.143 21.1731L125.638 27.1491H128.496C129.522 30.3456 130.68 34.5149 131.801 38.7866C131.977 39.4595 132.153 40.1325 132.322 40.8054V40.8127C132.673 42.1732 133.018 43.5264 133.347 44.8503C133.589 45.8085 133.824 46.7448 134.051 47.6591C135.575 53.9423 136.704 58.8797 136.704 58.8797L140.427 60.3718H140.434L151.265 64.7313H151.273L153.779 65.7407L156.989 64.7971C162.698 67.7668 173.412 77.1441 173.412 77.1441C174.482 83.2005 174.189 90.1201 174.189 90.1201L171.067 90.4712L171.404 92.2194L171.69 93.7481L172.203 96.4326L172.584 98.4368L173.016 100.719L174.049 106.176L175.794 115.341L169.836 119.883L183.4 121.551C184.617 124.023 185.906 126.715 187.196 129.465C187.453 130.014 187.709 130.562 187.966 131.118L188.119 131.449C188.896 133.132 189.679 134.826 190.443 136.494V136.502C191.359 138.499 192.246 140.459 193.081 142.324V142.331C193.381 142.997 193.675 143.648 193.96 144.284C194.723 145.989 195.433 147.605 196.078 149.053C197.368 151.972 198.365 154.261 198.9 155.498C199.186 156.156 199.339 156.514 199.339 156.514L199.252 155.534L199.208 155.095V155.088L198.555 148.037L197.625 138.03L196.862 129.772L196.635 127.285L195.529 115.333L202.791 114.178L202.689 112.868L202.586 111.515L202.3 108.011L201.538 98.5392L201.311 95.6499L202.198 95.3573L200.71 94.465L199.515 74.1671L217.177 77.5464L229.855 86.6603L233.974 100.982L236.165 108.611L237.594 113.556V113.563L238.664 117.286L240.195 122.619L248.762 127.424C250.506 131.44 251.987 135.624 253.188 139.435C254.508 143.553 255.482 147.254 256.12 149.836V149.858C256.684 152.191 256.977 153.61 256.977 153.61L304.751 156.127L306.81 150.216L309.177 143.407H309.185L310.24 140.386L310.943 138.36L312.981 132.493L320.617 130.679L321.394 129.129L327.828 130.445L334.555 135.075L335.244 137.709L335.647 139.281L336.344 141.944L336.901 144.072L337.626 146.888L347.622 152.791L349.051 156.756L359.252 156.982L364.353 154.21L369.043 154.415L368.544 148.951L367.313 135.58L366.859 130.533L366.566 127.388L366.192 123.27L369.05 117.594V99.4535L371.087 98.4368L375.367 121.009L378.225 124.63L378.716 127.446L379.024 129.29L379.969 134.761L381.941 146.237L382.3 148.315L388.624 150.348Z" fill="url(#paint0_linear_806_5)"/>
<mask id="mask1_806_5" style="mask-type:alpha" maskUnits="userSpaceOnUse" x="-128" y="-1" width="560" height="238">
<path d="M388.609 150.334L410.909 156.969L431.86 195.83L423.296 218.138L413.343 224.033L410.909 234.654L394.247 220.105H377.578L344.247 205.556H316.863L247.321 222.886H203.631L144.955 236.077H100.745L84.6581 218.877L60.1227 222.886L40.5639 233.49L3.76089 236.077L-39.8704 222.886L-47.0422 218.877L-108.818 211.344H-115.068V205.334L-127.336 177.363L-115.068 170.89L-47.0422 142.31L-26.9047 144.271L-12.6147 138.529L-9.31329 106.191L-2.48511 109.695L19.9671 153.041H47.1216L49.1883 135.427L49.474 132.962L49.7745 130.439L50.9324 120.506L52.6546 105.84L56.1063 105.131L57.0443 97.2747L57.5719 92.886L57.7918 91.0646L58.1289 88.2705L60.5033 68.4407L64.6732 69.9768L73.3495 82.4481L73.1956 90.1576L73.137 93.0103L73.1077 94.6561V94.6634L72.9685 101.517V101.524L72.6387 117.477L75.1377 120.564C75.211 121.903 75.1157 126.072 74.9471 131.119C74.8592 133.818 74.7492 136.788 74.6466 139.692C74.5953 140.921 74.5514 142.142 74.5001 143.334L74.3389 147.314C74.1264 152.573 73.9505 156.479 73.9505 156.479L76.5667 156.954L77.5781 154.482L79.6227 149.457L84.4227 137.666L100.362 133.862L100.369 132.728L100.428 122.583L100.479 115.276L87.4494 106.191C87.4494 105.504 87.4567 104.801 87.4641 104.092C87.4787 103.009 87.5153 101.905 87.5446 100.778C87.552 100.632 87.5593 100.486 87.5593 100.34C87.6031 99.0486 87.6689 97.7287 87.7346 96.4086L87.7352 96.3969C87.8598 94.2465 88.0063 92.0814 88.1676 89.9455C88.2335 89.119 88.2995 88.2924 88.3728 87.4805C88.6 84.7741 88.8491 82.1336 89.1056 79.6905C89.5966 74.8848 90.1023 70.7887 90.4321 68.1993C90.6813 66.3195 90.8351 65.2296 90.8351 65.2296L97.438 56.145C79.9598 53.4752 84.7745 52.4069 84.7745 52.4069L83.9317 46.5699L83.7119 45.0631L83.1991 41.4936L82.7008 38.0484L82.2758 35.1226L77.278 23.0097L75.1381 22.3002L74.6471 19.9156L72.4925 9.50704L72.0016 7.14444L71.6644 5.54255L71.5618 5.02322C86.3725 0.0420071 97.438 -0.316406 97.438 -0.316406C107.236 0.773462 108.841 3.34121 115.972 7.43004C115.986 7.43736 116.016 7.44467 116.03 7.4593C119.401 9.38303 121.519 10.7509 121.519 10.7509L121.886 12.2211L122.611 15.103L124.128 21.1595L125.623 27.1354H128.481C129.507 30.3319 130.665 34.5012 131.786 38.7729L131.789 38.7815C131.964 39.4516 132.139 40.1217 132.307 40.7917V40.799C132.658 42.1595 133.003 43.5127 133.333 44.8367C133.574 45.7949 133.809 46.7311 134.036 47.6455C135.56 53.9286 136.689 58.866 136.689 58.866L140.412 60.3582H140.419L151.25 64.7176H151.258L153.764 65.727L156.974 64.7835C162.683 67.7532 173.397 77.1304 173.397 77.1304C174.467 83.1869 174.174 90.1064 174.174 90.1064L171.052 90.4575L171.389 92.2057L171.675 93.7344L172.188 96.4189L172.569 98.4231L173.001 100.705L174.035 106.162L175.779 115.327L169.821 119.869L183.386 121.537C184.602 124.009 185.892 126.701 187.181 129.451C187.438 130 187.694 130.549 187.951 131.105L188.111 131.452C188.887 133.13 189.667 134.818 190.428 136.481V136.488C191.344 138.485 192.231 140.445 193.066 142.31V142.318C193.367 142.983 193.66 143.634 193.945 144.271C194.708 145.975 195.418 147.592 196.063 149.04C197.353 151.958 198.35 154.248 198.885 155.484C199.171 156.142 199.325 156.501 199.325 156.501L199.237 155.52L199.193 155.082V155.074L198.54 148.023L197.61 138.017L196.848 129.759L196.62 127.272L195.514 115.32L202.776 114.164L202.674 112.855L202.571 111.502L202.285 107.998L201.523 98.5255L201.296 95.6362L202.183 95.3437L200.695 94.4513L199.5 74.1534L217.162 77.5327L229.84 86.6466L233.959 100.969L236.15 108.598L237.579 113.542V113.55L238.649 117.273L240.18 122.605L248.747 127.411C250.492 131.426 251.972 135.61 253.174 139.421C254.493 143.539 255.467 147.24 256.105 149.822V149.844C256.669 152.178 256.962 153.597 256.962 153.597L304.736 156.113L306.795 150.203L309.162 143.393H309.17L310.225 140.372L310.929 138.346L312.966 132.48L320.602 130.666L321.379 129.115L327.813 130.432L334.541 135.062L335.229 137.695L335.632 139.268L336.329 141.93L336.886 144.059L337.611 146.875L347.607 152.778L349.036 156.742L359.237 156.969L364.338 154.197L369.028 154.401L368.53 148.937L367.298 135.566L366.844 130.519L366.551 127.374L366.177 123.256L369.035 117.58V99.4398L371.072 98.4231L375.352 120.996L378.21 124.616L378.701 127.433L379.009 129.276L379.954 134.747L381.926 146.224L382.285 148.301L388.609 150.334Z" fill="url(#paint1_linear_806_5)"/>
</mask>
<g mask="url(#mask1_806_5)">
<path fill-rule="evenodd" clip-rule="evenodd" d="M73.8689 221.729L69.2835 214.13L65.0255 212.217L63.155 212.964L67.1603 221.996L71.4948 222.28L73.8689 221.729Z" fill="url(#paint2_radial_806_5)"/>
<path opacity="0.7" fill-rule="evenodd" clip-rule="evenodd" d="M69.283 214.13L65.9096 215.347L63.9617 212.914L65.0251 212.217L69.283 214.13Z" fill="white"/>
<path fill-rule="evenodd" clip-rule="evenodd" d="M71.4969 222.273L65.9121 215.34L69.2856 214.122L73.871 221.722L71.4969 222.273Z" fill="white"/>
<path fill-rule="evenodd" clip-rule="evenodd" d="M66.5446 216.139L66.3569 215.147L65.3789 214.688L66.5446 216.139Z" fill="white"/>
<path opacity="0.5" fill-rule="evenodd" clip-rule="evenodd" d="M67.1551 221.994L63.7007 223.344L66.8526 223.821L73.8638 221.727L71.4896 222.277L67.1551 221.994Z" fill="url(#paint3_linear_806_5)"/>
<path opacity="0.5" fill-rule="evenodd" clip-rule="evenodd" d="M72.6964 226.681C65.8 229.207 58.3207 226.098 55.992 219.738C53.6632 213.379 57.3659 206.175 64.2632 203.649C71.1605 201.123 78.6389 204.232 80.9685 210.592C83.2964 216.952 79.5937 224.156 72.6964 226.681Z" fill="url(#paint4_radial_806_5)"/>
<path fill-rule="evenodd" clip-rule="evenodd" d="M320.349 207.175L318.057 194.221L322.429 191.87L333.111 192.53L340.384 202.5L341.98 206.518L320.349 207.175Z" fill="url(#paint5_radial_806_5)"/>
<path opacity="0.7" fill-rule="evenodd" clip-rule="evenodd" d="M318.057 194.221L329.294 195.671L333.47 194.084L333.111 192.53L322.429 191.87L318.057 194.221Z" fill="white"/>
<path fill-rule="evenodd" clip-rule="evenodd" d="M329.294 195.671L330.912 206.879L320.349 207.175L318.057 194.221L329.294 195.671Z" fill="white"/>
<path fill-rule="evenodd" clip-rule="evenodd" d="M327.865 195.489L330.114 195.356L329.359 196.207L327.865 195.489Z" fill="white"/>
<path fill-rule="evenodd" clip-rule="evenodd" d="M303.752 208.86L304.276 202.614L305.706 201.504L310.387 201.326L313.542 206.374L303.752 208.86Z" fill="url(#paint6_radial_806_5)"/>
<path opacity="0.7" fill-rule="evenodd" clip-rule="evenodd" d="M304.264 202.616L307.673 204.942L310.523 204.734L310.375 201.328L305.694 201.506L304.264 202.616Z" fill="white"/>
<path fill-rule="evenodd" clip-rule="evenodd" d="M307.681 204.936L308.262 207.692L303.748 208.856L304.272 202.61L307.681 204.936Z" fill="white"/>
<path fill-rule="evenodd" clip-rule="evenodd" d="M307.127 204.558L308.421 204.881L307.819 205.601L307.127 204.558Z" fill="white"/>
<path opacity="0.5" fill-rule="evenodd" clip-rule="evenodd" d="M320.343 207.18L327.869 209.394L340.476 208.437L341.973 206.523L320.343 207.18Z" fill="url(#paint7_linear_806_5)"/>
<path opacity="0.5" fill-rule="evenodd" clip-rule="evenodd" d="M335.163 218.317C322.336 223.014 308.429 217.234 304.097 205.406C299.766 193.579 306.652 180.184 319.478 175.486C332.305 170.789 346.212 176.57 350.544 188.397C354.874 200.225 347.988 213.619 335.163 218.317Z" fill="url(#paint8_radial_806_5)"/>
<path d="M289.633 236.846C281.311 242.733 265.068 248.086 266.676 222.398C267.477 209.596 267.115 190.495 265.78 161.886C265.73 160.812 261.916 157.945 261.865 156.866C261.859 156.75 260.697 153.031 259.397 150.656C258.369 149.549 255.675 150.244 255.491 149.681C255.306 149.117 259.43 149.415 259.26 148.883C258.6 146.817 258.104 145.137 258.221 145.042C258.342 144.944 262.076 154.818 262.496 155.223C264.159 156.828 265.506 156.129 265.479 155.589C265.064 147.092 264.165 130.627 263.699 122.337C262.851 107.843 261.489 85.7123 260.792 75.589C262.875 63.7506 267.157 47.122 267.628 75.3151C268.216 110.556 272.389 135.495 272.899 137.983C274.163 144.135 284.74 209.65 289.633 236.846Z" fill="#15052F"/>
<path d="M380.3 254.423C371.978 260.311 355.735 265.664 357.343 239.976C358.144 227.173 357.783 208.072 356.448 179.463C356.397 178.389 352.584 175.522 352.532 174.444C352.526 174.328 351.364 170.608 350.064 168.234C349.036 167.126 346.343 167.822 346.158 167.258C345.974 166.695 350.098 166.993 349.927 166.46C349.267 164.394 348.771 162.714 348.888 162.619C349.009 162.521 352.743 172.396 353.163 172.801C354.827 174.405 356.173 173.706 356.147 173.167C355.731 164.67 354.833 148.205 354.366 139.914C353.518 125.42 352.156 103.29 351.46 93.1665C353.542 81.3281 357.825 64.6995 358.295 92.8926C358.883 128.134 363.056 153.072 363.567 155.56C364.83 161.712 375.407 227.227 380.3 254.423Z" fill="#15052F"/>
<path d="M306.322 236.592C301.037 241.41 290.677 245.725 291.512 224.439C291.928 213.831 291.552 197.992 290.48 174.263C290.44 173.372 287.976 170.966 287.935 170.071C287.93 169.975 287.158 166.882 286.308 164.904C285.641 163.978 283.921 164.534 283.799 164.065C283.677 163.597 286.32 163.875 286.206 163.432C285.768 161.715 285.438 160.318 285.512 160.24C285.589 160.16 288.055 168.375 288.327 168.714C289.404 170.057 290.261 169.487 290.24 169.04C289.909 161.992 289.209 148.334 288.848 141.457C288.195 129.434 287.155 111.076 286.632 102.677C287.876 92.8779 290.492 79.1238 291.007 102.502C291.651 131.724 294.512 152.432 294.858 154.499C295.713 159.609 302.982 214.007 306.322 236.592Z" fill="#15052F"/>
<path d="M346.74 145.293L332.861 86.4264L288.798 95.216L286.369 131.415L297.587 141.593V170.853L332.861 179.18V155.586L346.74 145.293Z" fill="url(#paint9_linear_806_5)"/>
<path d="M26.8487 119.724L18.1283 82.7305L-9.55913 88.2541L-11.0852 111.003L-4.03618 117.398V135.786L18.1283 141.019V126.193L26.8487 119.724Z" fill="url(#paint10_linear_806_5)"/>
<path d="M106.88 10.4477L93.002 -48.4193L48.9385 -39.6297L46.5098 -3.43055L57.728 6.74686V36.0069L93.002 44.3338V20.7408L106.88 10.4477Z" fill="url(#paint11_linear_806_5)"/>
<path d="M65.4863 -0.303391C66.2768 24.2149 74.284 73.2515 99.9894 73.2515C125.695 73.2515 129.577 20.9774 127.799 -0.303391" stroke="#110725" stroke-width="4"/>
<path d="M1.96189 250.533C17.9177 252.758 48.1286 252.787 41.3261 235.11C37.936 226.301 35.696 212.799 33.7778 192.394C33.7058 191.628 40.1745 188.738 40.1045 187.969C40.0969 187.885 41.6374 185.006 43.6301 183.039C45.3227 182.025 50.3039 181.895 50.5526 181.456C50.8012 181.018 43.3817 182.175 43.6092 181.761C44.4916 180.159 45.1341 178.865 44.9079 178.825C44.6744 178.783 39.4118 186.578 38.7125 186.959C35.9451 188.468 33.4025 188.287 33.3685 187.902C32.8329 181.837 31.9645 170.064 31.5525 164.132C31.4799 163.087 41.2588 150.139 41.2588 150.139L40.0456 149.692C40.0456 149.692 31.1821 158.606 31.1294 157.779C30.4677 147.403 30.0033 137.896 29.7303 130.624C24.1671 122.786 13.8959 112.088 17.3161 132.002C21.5913 156.894 17.066 175.398 17.2701 177.237C17.4334 178.709 6.96746 175.273 4.439 172.761L-0.444433 163.843L-8.28549 158.197L-10.3652 157.846L-1.38979 165.81L-7.57112 164.634L-7.49458 165.324L-1.22396 167.305L3.45496 177.525C6.23453 180.552 13.9655 185.062 14.9461 187.188C15.9267 189.313 6.69855 230.304 1.96189 250.533Z" fill="#15052F"/>
<path d="M268.179 257.969C248.077 263.721 209.596 268.039 216.482 239.303C219.914 224.982 221.408 203.452 221.797 171.121C221.812 169.907 213.281 166.281 213.293 165.062C213.294 164.931 211.042 160.624 208.305 157.816C206.047 156.462 199.689 156.961 199.328 156.308C198.967 155.654 208.535 156.422 208.203 155.805C206.918 153.412 205.969 151.469 206.253 151.375C206.547 151.277 214.035 162.78 214.964 163.28C218.641 165.259 221.862 164.614 221.866 164.004C221.938 154.4 221.859 135.779 221.787 126.402C221.774 124.749 208.014 105.788 208.014 105.788L209.514 104.914C209.514 104.914 221.702 117.666 221.686 116.36C221.485 99.9629 221.119 84.9601 220.735 73.4963C227.033 60.3943 239.04 42.1333 236.688 73.9055C233.747 113.621 241.375 142.054 241.3 144.973C241.24 147.307 254.226 140.43 257.194 136.125L262.517 121.423L271.937 111.444L274.551 110.598L263.92 124.38L271.675 121.658L271.647 122.753L263.859 126.751L258.927 143.471C255.691 148.62 246.297 156.8 245.262 160.278C244.227 163.756 260.108 226.855 268.179 257.969Z" fill="#15052F"/>
<path d="M204.363 243.89C195.691 246.371 179.09 248.234 182.061 235.838C183.541 229.66 184.186 220.371 184.354 206.424C184.36 205.9 180.68 204.336 180.685 203.81C180.685 203.753 179.714 201.895 178.533 200.684C177.559 200.1 174.816 200.315 174.66 200.033C174.505 199.751 178.632 200.083 178.489 199.816C177.935 198.784 177.526 197.946 177.648 197.905C177.775 197.863 181.005 202.825 181.406 203.041C182.992 203.895 184.382 203.617 184.384 203.354C184.415 199.21 184.381 191.177 184.349 187.132C184.344 186.419 178.408 178.239 178.408 178.239L179.055 177.862C179.055 177.862 184.313 183.363 184.306 182.8C184.219 175.726 184.061 169.254 183.896 164.308C183.817 161.953 184.136 157.327 185.409 164.308C188.489 181.21 192.8 193.884 192.767 195.143C192.742 196.15 198.344 193.183 199.624 191.327L201.921 184.984L205.984 180.679L207.112 180.314L202.526 186.259L205.871 185.085L205.859 185.558L202.499 187.282L200.372 194.495C198.976 196.717 194.923 200.246 194.477 201.746C194.03 203.246 200.881 230.467 204.363 243.89Z" fill="#15052F"/>
<path d="M6.51489 174.154C6.15616 177.607 6.41659 184.65 10.3282 185.195C14.2398 185.74 15.5736 180.676 15.7187 177.656" stroke="#4D2770"/>
<path d="M6.51489 174.154C5.61402 181.502 4.79622 196.335 8.73206 196.883C12.6679 197.432 14.8191 186.532 15.4338 180.131" stroke="#4D2770"/>
<path d="M106.523 251.644C100.382 254.972 88.8968 257.291 92.0814 239.947C93.6686 231.303 94.9773 218.279 96.3976 198.708C96.451 197.973 94.0898 195.713 94.1425 194.975C94.1481 194.895 93.6601 192.27 92.9692 190.549C92.3601 189.712 90.4709 189.966 90.3913 189.568C90.3116 189.169 93.0929 189.708 93.0204 189.331C92.7392 187.872 92.5388 186.689 92.6262 186.634C92.7163 186.577 94.4529 193.599 94.7058 193.909C95.7067 195.135 96.6794 194.769 96.7054 194.4C97.1144 188.586 97.8432 177.312 98.2007 171.634C98.8037 161.705 99.6783 146.539 100.028 139.596C102.409 131.712 106.675 120.748 104.701 139.966C102.233 163.988 103.041 181.293 103.186 183.027C103.545 187.315 105.408 232.745 106.523 251.644Z" fill="#15052F"/>
</g>
</g>
<defs>
<linearGradient id="paint0_linear_806_5" x1="207.466" y1="154.487" x2="-41.3129" y2="159.479" gradientUnits="userSpaceOnUse">
<stop stop-color="#1A073E"/>
<stop offset="1" stop-color="#270B45"/>
</linearGradient>
<linearGradient id="paint1_linear_806_5" x1="207.451" y1="154.473" x2="-41.3279" y2="159.466" gradientUnits="userSpaceOnUse">
<stop stop-color="#1A073E"/>
<stop offset="1" stop-color="#270B45"/>
</linearGradient>
<radialGradient id="paint2_radial_806_5" cx="0" cy="0" r="1" gradientUnits="userSpaceOnUse" gradientTransform="translate(67.7487 221.253) rotate(180) scale(6.15725 6.15726)">
<stop stop-color="#07FFFF"/>
<stop offset="1" stop-color="#5174FF"/>
</radialGradient>
<linearGradient id="paint3_linear_806_5" x1="66.7161" y1="223.796" x2="69.8306" y2="222.372" gradientUnits="userSpaceOnUse">
<stop stop-color="#C77CBD" stop-opacity="0"/>
<stop offset="1" stop-color="#974577"/>
</linearGradient>
<radialGradient id="paint4_radial_806_5" cx="0" cy="0" r="1" gradientUnits="userSpaceOnUse" gradientTransform="translate(68.4796 215.165) rotate(69.8869) scale(12.2637 13.2991)">
<stop offset="0.00540541" stop-color="#474DFF"/>
<stop offset="1" stop-color="#474DFF" stop-opacity="0"/>
</radialGradient>
<radialGradient id="paint5_radial_806_5" cx="0" cy="0" r="1" gradientUnits="userSpaceOnUse" gradientTransform="translate(331.722 205.614) scale(13.5721 13.5721)">
<stop stop-color="#07FFFF"/>
<stop offset="1" stop-color="#5174FF"/>
</radialGradient>
<radialGradient id="paint6_radial_806_5" cx="0" cy="0" r="1" gradientUnits="userSpaceOnUse" gradientTransform="translate(309.643 207.648) rotate(-11.8976) scale(5.85527 5.85525)">
<stop stop-color="#07FFFF"/>
<stop offset="1" stop-color="#5174FF"/>
</radialGradient>
<linearGradient id="paint7_linear_806_5" x1="331.158" y1="209.394" x2="331.158" y2="206.523" gradientUnits="userSpaceOnUse">
<stop stop-color="#C77CBD"/>
<stop offset="1" stop-color="#974577"/>
</linearGradient>
<radialGradient id="paint8_radial_806_5" cx="0" cy="0" r="1" gradientUnits="userSpaceOnUse" gradientTransform="translate(327.319 196.902) rotate(69.8866) scale(22.8059 24.7317)">
<stop offset="0.00540541" stop-color="#474DFF"/>
<stop offset="1" stop-color="#474DFF" stop-opacity="0"/>
</radialGradient>
<linearGradient id="paint9_linear_806_5" x1="316.67" y1="129.102" x2="316.554" y2="179.18" gradientUnits="userSpaceOnUse">
<stop stop-color="#542D78"/>
<stop offset="1" stop-color="#331152"/>
</linearGradient>
<linearGradient id="paint10_linear_806_5" x1="7.95444" y1="109.549" x2="7.88175" y2="141.019" gradientUnits="userSpaceOnUse">
<stop stop-color="#542D78"/>
<stop offset="1" stop-color="#331152"/>
</linearGradient>
<linearGradient id="paint11_linear_806_5" x1="76.8107" y1="-5.74359" x2="76.695" y2="44.3339" gradientUnits="userSpaceOnUse">
<stop stop-color="#542D78"/>
<stop offset="1" stop-color="#331152"/>
</linearGradient>
</defs>
</svg>
