<svg width="256" height="144" viewBox="0 0 256 144" fill="none" xmlns="http://www.w3.org/2000/svg">
<rect x="0.5" y="-0.5" width="255" height="143" rx="15.5" transform="matrix(1 0 0 -1 0 143)" fill="url(#paint0_linear_1249_4719)" stroke="url(#paint1_linear_1249_4719)"/>
<path d="M72.0137 100.27C70.9236 100.27 69.8317 100.24 68.7415 100.283C68.1672 100.306 67.9758 100.137 68.0024 99.5479C68.0857 97.7047 68.1602 95.8597 68.1619 94.0165C68.1637 92.3049 68.0591 90.5933 68.0237 88.88C68.013 88.3249 68.0857 87.768 68.1034 87.2111C68.1336 86.2699 68.1566 85.327 68.169 84.384C68.1814 83.4001 68.1974 82.4144 68.1726 81.4288C68.1389 80.1086 68.0733 78.7903 68.0095 77.4719C67.9776 76.7976 68.1797 76.456 68.9525 76.4862C71.4305 76.5841 73.9422 76.3919 76.3795 76.7424C78.7866 77.0876 80.9863 78.1302 82.6969 80.0713C83.927 81.4661 85.1518 82.9002 85.5755 84.6758C86.4352 88.2751 86.3058 91.7569 84.0493 95.0217C82.7678 96.8756 81.1423 98.2029 79.2528 99.1636C77.7869 99.9091 76.126 100.389 74.3889 100.277C73.6037 100.228 72.8078 100.27 72.0137 100.27ZM72.2618 92.7728C72.2618 93.6286 72.2193 94.4897 72.2884 95.3402C72.3079 95.5786 72.6429 95.9629 72.861 95.9842C75.1015 96.1977 77.1576 95.8579 79.0082 94.3438C80.9863 92.7266 81.9081 90.6538 81.9524 88.227C81.9896 86.1863 81.0324 84.4107 79.6392 82.9429C77.8897 81.0996 75.5074 80.8755 73.1694 80.5783C72.487 80.4912 72.2211 80.7385 72.2459 81.4608C72.2955 82.9126 72.2601 84.368 72.2601 85.8216C72.2618 88.1398 72.2618 90.4563 72.2618 92.7728Z" fill="white"/>
<path d="M172.114 93.4904C173.433 93.5616 174.714 93.615 175.994 93.7164C176.161 93.7289 176.395 93.9655 176.45 94.1452C176.912 95.6522 178.052 96.3389 179.481 96.5026C180.92 96.6681 182.175 96.1646 183.083 94.9636C183.91 93.8676 183.487 92.0422 182.145 91.4177C181.324 91.037 180.385 90.7221 179.497 90.7185C177.779 90.7114 176.341 90.1758 175.014 89.1297C173.936 88.281 172.963 87.4359 172.461 86.0588C171.614 83.7317 171.976 81.6038 173.403 79.725C174.152 78.7375 175.234 77.9636 176.274 77.2483C176.809 76.88 177.57 76.7573 178.245 76.6968C180.264 76.5118 182.308 76.4299 184.132 77.5259C184.809 77.9333 185.309 78.6272 185.943 79.1218C187.135 80.0488 187.516 81.3476 187.758 82.7442C187.856 83.3029 187.863 83.6374 187.129 83.5964C186.16 83.5413 185.185 83.5698 184.212 83.5893C183.754 83.5982 183.478 83.5271 183.336 82.9862C182.882 81.2444 181.434 80.7124 179.298 80.7711C178.153 80.8014 176.903 81.3671 176.466 83.2442C176.205 84.3597 176.724 85.4308 177.992 85.872C178.853 86.1709 179.787 86.2866 180.698 86.4147C183.219 86.7705 185.298 87.7953 186.722 90.0282C187.429 91.1366 187.838 92.3073 187.975 93.5865C188.136 95.081 187.51 96.3674 186.592 97.4331C185.419 98.7942 184.173 100.113 182.187 100.339C179.491 100.645 176.854 100.499 174.585 98.9081C173.372 98.0594 172.639 96.6983 172.408 95.154C172.336 94.6434 172.231 94.1363 172.114 93.4904Z" fill="white"/>
<path d="M123.998 52.9895C124 52.9859 123.945 53.1745 123.89 53.3613C123.449 53.308 123.314 53.3471 123.311 53.6122C123.146 53.3435 123.018 53.1354 122.891 52.9254C122.832 52.9379 122.774 52.9486 122.715 52.961C122.749 53.1976 122.784 53.4343 122.829 53.7456C122.612 53.5997 122.421 53.4699 122.065 53.2297C122.281 53.7296 122.433 54.0783 122.623 54.516C121.738 54.1851 121.169 53.5464 120.753 52.8098C120.618 52.5731 120.831 52.1284 120.907 51.785C120.95 51.5946 121.01 51.3971 121.113 51.2317C121.237 51.0306 121.455 50.6837 121.561 50.7086C122.361 50.89 123.242 50.447 123.991 51.0822C124.28 51.3277 124.715 51.438 125.101 51.5234C125.853 51.6889 126.356 51.3082 126.361 50.5431C126.384 47.7356 126.39 44.9262 126.354 42.1187C126.351 41.8483 126.001 41.5921 125.845 41.3109C125.72 41.0868 125.537 40.6402 125.56 40.6277C126.207 40.2755 125.978 39.6688 126.042 39.1421C126.141 38.329 126.505 38.0568 127.086 38.3504C127.086 38.1582 127.038 37.9679 127.097 37.8184C127.207 37.5338 127.377 37.2722 127.522 37C127.664 37.3007 127.886 37.5889 127.926 37.902C127.974 38.2597 127.861 38.6368 127.827 38.934C127.964 38.6618 128.118 38.354 128.272 38.0462C128.494 38.3735 128.83 38.6742 128.908 39.0336C129.033 39.594 128.994 40.1776 129.531 40.5815C129.594 40.6295 129.465 41.1615 129.343 41.2006C128.683 41.4052 128.632 41.9586 128.619 42.4585C128.563 44.96 128.517 47.4633 128.552 49.9631C128.559 50.4595 128.813 51.1178 129.183 51.4042C129.74 51.8348 130.447 51.6853 131.027 51.1943C131.355 50.915 131.718 50.6748 132.143 50.3581C132.211 50.9577 132.344 51.1658 132.966 50.8349C133.311 50.6516 134.182 50.4257 134.084 51.6017C134.044 52.0821 134.582 52.7048 134.125 53.2012C133.577 53.7972 132.904 54.2758 132.283 54.8042C132.232 54.7437 132.179 54.6833 132.127 54.6228C132.415 54.2207 132.702 53.8186 132.989 53.4147C132.937 53.3649 132.886 53.3151 132.833 53.2653C132.686 53.3613 132.528 53.4467 132.393 53.5588C132.191 53.7261 132.003 53.9129 131.81 54.0908C131.757 53.7723 131.706 53.4556 131.652 53.1371C131.638 53.0553 131.624 52.9717 131.626 52.977C131.36 52.5216 131.181 53.8844 130.933 52.913C130.389 53.3222 129.672 52.9681 129.119 53.3222C129.086 53.3435 129.072 53.4343 129.082 53.4841C129.539 55.3362 128.917 57.1741 129.024 59.0298C129.134 60.946 129.048 62.871 129.048 64.7925C129.048 66.7443 129.057 68.6943 129.047 70.646C128.994 81.7285 128.947 92.8093 128.857 103.892C128.85 104.739 128.526 105.589 128.297 106.424C128.237 106.644 127.981 106.81 127.815 107C127.634 106.826 127.347 106.678 127.29 106.47C127.017 105.468 126.629 104.456 126.602 103.438C126.471 98.4795 126.418 93.5174 126.383 88.5553C126.352 84.2692 126.404 79.9814 126.379 75.6954C126.365 73.1565 126.278 70.6176 126.214 68.0787C126.159 65.8689 126.097 63.6592 126.026 61.4495C125.97 59.6827 125.886 57.9178 125.83 56.1511C125.821 55.8717 125.897 55.5906 125.92 55.3077C125.954 54.8985 126.009 54.4858 125.998 54.0766C125.978 53.283 125.424 53.0571 124.755 52.993C124.534 52.9699 124.305 52.9895 123.998 52.9895Z" fill="white"/>
<path d="M107.115 87.4149C107.115 86.1997 107.094 84.9828 107.122 83.7676C107.143 82.8602 107.276 81.9546 107.273 81.049C107.267 79.937 107.14 78.8251 107.124 77.7131C107.106 76.5548 107.186 76.505 108.278 76.5032C108.336 76.5032 108.397 76.5032 108.455 76.5032C110.54 76.5032 110.501 76.4997 110.311 78.5849C110.18 80.0278 110.128 81.4814 110.135 82.9296C110.146 84.9828 110.256 87.036 110.297 89.0909C110.323 90.4306 110.286 91.7704 110.311 93.1101C110.32 93.5655 110.192 93.7826 109.719 93.7097C109.691 93.7061 109.659 93.715 109.63 93.7079C108.538 93.4285 107.175 94.368 106.335 93.2044C105.67 92.2845 105.3 91.1476 104.811 90.1015C104.185 88.7635 103.584 87.4114 102.946 86.0788C102.549 85.2532 102.099 84.4526 101.62 83.5399C101.549 83.7516 101.464 83.8886 101.464 84.0256C101.455 86.2531 101.457 88.4807 101.457 90.7082C101.457 91.5444 101.445 92.3824 101.473 93.2168C101.489 93.6954 101.227 93.7257 100.865 93.7114C100.393 93.6936 99.922 93.7114 99.4505 93.7061C98.4773 93.6954 98.1778 93.2204 98.4525 92.2881C98.6227 91.7116 98.7344 91.0978 98.7415 90.5C98.7822 87.4096 98.7858 84.3174 98.7858 81.2269C98.7858 80.7964 98.6741 80.3694 98.644 79.937C98.5713 78.8891 98.511 77.8412 98.4685 76.7915C98.4649 76.7007 98.6174 76.5726 98.7255 76.5192C98.8212 76.4712 98.9577 76.5139 99.0747 76.4979C100.831 76.2399 102.012 76.5673 102.682 78.5973C103.428 80.8569 104.77 82.9154 105.819 85.0771C106.202 85.8653 106.486 86.7015 106.815 87.5163C106.911 87.4843 107.012 87.4487 107.115 87.4149Z" fill="white"/>
<path d="M153.127 67.8381C153.127 67.3791 153.127 66.9201 153.127 66.461C153.127 63.5236 153.154 60.5862 153.11 57.6488C153.099 56.9229 153.328 56.704 153.999 56.8072C154.23 56.8428 154.469 56.809 154.705 56.8072C156.149 56.8001 156.55 57.3374 156.204 58.7928C156.151 59.0187 156.119 59.2607 156.141 59.4902C156.297 61.1644 155.898 62.8386 156.268 64.5289C156.449 65.3526 156.135 66.2725 156.146 67.1496C156.169 69.1921 156.238 71.2328 156.32 73.2735C156.343 73.834 156.197 74.1186 155.598 74.0154C155.57 74.0101 155.54 74.0154 155.51 74.0154C154.51 74.0012 153.17 74.3837 152.588 73.882C151.718 73.1312 151.367 71.7666 150.821 70.651C150.059 69.096 149.316 67.5321 148.577 65.9647C148.285 65.3437 148.026 64.7086 147.753 64.0787C147.671 64.0841 147.59 64.0912 147.508 64.0965C147.494 64.3527 147.467 64.6071 147.466 64.8633C147.462 67.6584 147.444 70.4535 147.478 73.2468C147.485 73.8749 147.308 74.0332 146.693 74.0279C144.635 74.0101 144.633 74.0368 144.631 71.9712C144.63 68.3968 144.647 64.8242 144.623 61.2498C144.614 60.0204 144.529 58.7892 144.438 57.5616C144.392 56.93 144.653 56.8695 145.229 56.777C147.09 56.4763 147.973 57.2004 148.614 58.9903C149.4 61.1804 150.656 63.198 151.684 65.3028C151.975 65.8988 152.167 66.5411 152.44 67.146C152.562 67.4165 152.771 67.646 152.941 67.8951C153.005 67.8773 153.065 67.8577 153.127 67.8381Z" fill="white"/>
<path d="M107.428 67.9544C107.444 67.6804 107.476 67.4082 107.476 67.1342C107.479 63.9726 107.495 60.811 107.465 57.6494C107.46 57.0231 107.568 56.6869 108.27 56.8096C108.47 56.8452 108.681 56.815 108.889 56.815C110.636 56.815 110.645 56.815 110.61 58.4999C110.583 59.7613 110.502 61.0227 110.494 62.2842C110.477 65.1611 110.479 68.038 110.496 70.915C110.502 71.7032 110.619 72.4913 110.629 73.2813C110.635 73.767 110.448 74.0908 109.826 74.0357C108.811 73.9449 107.595 74.2723 106.82 73.8168C106.106 73.3969 105.829 72.1906 105.416 71.3046C104.477 69.2888 103.578 67.2516 102.644 65.2323C102.47 64.8551 102.208 64.5206 101.816 64.2181C101.816 66.3941 101.816 68.5718 101.816 70.7477C101.816 71.6053 101.791 72.4629 101.827 73.3186C101.848 73.8275 101.743 74.0339 101.162 74.041C98.9853 74.0641 99.0083 74.089 98.98 71.9255C98.9516 69.771 98.847 67.6182 98.824 65.4636C98.8151 64.5562 99.0012 63.6435 98.9693 62.7379C98.9179 61.2167 98.7885 59.6973 98.6414 58.1832C98.5386 57.1246 98.785 56.9466 99.8024 56.7883C101.502 56.525 102.27 57.2313 102.867 58.7917C103.716 61.005 104.895 63.0901 105.923 65.2341C106.364 66.1539 106.783 67.0844 107.21 68.0114C107.283 67.9918 107.355 67.9722 107.428 67.9544Z" fill="white"/>
<path d="M169.452 86.9718C168.022 86.9718 166.724 86.9522 165.427 86.9789C164.73 86.9931 164.03 87.0661 163.342 87.1728C163.217 87.1924 163.059 87.5073 163.05 87.6923C163.016 88.4289 163.032 89.1691 163.039 89.9074C163.045 90.475 163.295 90.7116 163.906 90.7027C166.246 90.6689 168.586 90.692 170.925 90.6867C171.372 90.6849 171.691 90.6778 171.406 91.3112C171.135 91.9126 171.103 92.6331 170.78 93.1953C170.62 93.4747 170.052 93.617 169.656 93.6437C168.644 93.7095 167.627 93.6882 166.611 93.6793C164.968 93.665 163.323 93.633 161.68 93.6045C161.566 93.6028 161.453 93.5476 161.338 93.5334C160.154 93.4017 160.205 93.4035 160.194 92.135C160.173 89.653 160.058 87.171 160.04 84.6873C160.031 83.4188 160.191 82.1484 160.193 80.8781C160.193 79.6487 160.106 78.4157 160.021 77.1881C159.983 76.6525 160.138 76.4586 160.7 76.4871C162.396 76.576 164.092 76.6508 165.79 76.6597C166.987 76.6668 168.181 76.5333 169.38 76.5049C170.704 76.4728 170.823 76.6063 171.01 77.9211C171.046 78.172 171.166 78.4157 171.269 78.6523C171.659 79.5473 171.562 79.7145 170.56 79.6825C169.95 79.6647 169.344 79.5295 168.736 79.5206C167.109 79.4974 165.482 79.533 163.855 79.501C163.243 79.4886 163 79.6878 163.032 80.3141C163.091 81.419 163.084 82.5256 163.151 83.6305C163.158 83.7461 163.475 83.9294 163.653 83.9329C165.159 83.9614 166.666 83.9472 168.173 83.9756C168.297 83.9774 168.476 84.1767 168.529 84.3226C168.841 85.1641 169.123 86.0146 169.452 86.9718Z" fill="white"/>
<path d="M132.415 56.7344C134.191 56.8162 136.031 56.9408 137.871 56.9692C139.062 56.9888 140.255 56.8678 141.446 56.8162C141.71 56.8038 141.978 56.7966 142.24 56.8198C142.871 56.8767 143.259 57.2094 143.375 57.8535C143.467 58.3641 143.573 58.8747 143.701 59.3782C143.821 59.8551 143.646 60.0454 143.174 60.0027C142.506 59.944 141.838 59.8444 141.17 59.8337C139.603 59.8088 138.032 59.8639 136.467 59.8088C135.684 59.7821 135.336 59.9654 135.407 60.8283C135.49 61.8353 135.419 62.8547 135.485 63.8653C135.494 64.0094 135.893 64.2354 136.114 64.2407C137.594 64.2781 139.076 64.2585 140.556 64.2817C140.675 64.2834 140.859 64.4258 140.9 64.5432C141.202 65.4168 141.475 66.2992 141.788 67.2813C140.395 67.2813 139.101 67.2618 137.805 67.2902C137.139 67.3045 136.471 67.3756 135.813 67.4842C135.662 67.5091 135.451 67.792 135.443 67.9663C135.404 68.7919 135.386 69.6227 135.453 70.4447C135.469 70.644 135.834 70.9714 136.042 70.9749C138.045 71.0052 140.048 70.9767 142.049 70.9714C142.561 70.9696 143.077 70.966 143.584 71.0247C143.69 71.0372 143.871 71.3432 143.839 71.4695C143.655 72.1937 143.497 72.948 143.155 73.5974C143.022 73.8501 142.432 73.9373 142.042 73.9586C141.028 74.0138 140.009 74.0066 138.993 73.9924C137.295 73.9675 135.597 73.9177 133.897 73.8768C133.691 73.8714 133.48 73.8127 133.284 73.8501C132.544 73.9871 132.465 73.4462 132.429 72.9694C132.376 72.2292 132.411 71.4802 132.411 70.7365C132.411 67.8827 132.411 65.0307 132.411 62.1769C132.415 60.4084 132.415 58.6417 132.415 56.7344Z" fill="white"/>
<path d="M125.544 93.7004C124.628 93.7004 123.781 93.7324 122.937 93.6773C122.731 93.6648 122.455 93.4122 122.364 93.2022C122.137 92.6756 122.003 92.1098 121.822 91.5618C121.517 90.642 121.042 90.4552 120.118 90.5014C118.614 90.5762 117.087 90.6207 115.598 90.4356C114.937 90.3538 114.755 90.5388 114.572 90.9943C114.313 91.6401 114.056 92.2895 113.854 92.9532C113.682 93.5154 113.381 93.7218 112.777 93.7164C110.759 93.6969 110.754 93.72 111.399 91.8554C112.667 88.1956 113.948 84.5412 115.205 80.8761C115.646 79.5915 116.011 78.2821 116.462 77.001C116.536 76.7875 116.837 76.5865 117.077 76.5118C117.346 76.4281 117.66 76.4922 117.956 76.4922C119.743 76.4958 119.752 76.494 120.207 78.2678C120.43 79.1378 120.544 80.0417 120.838 80.8832C121.122 81.6927 121.643 82.4151 121.939 83.2211C122.955 85.9859 123.922 88.7667 124.894 91.5476C125.126 92.2272 125.308 92.9229 125.544 93.7004ZM118.177 81.1483C118.105 81.1519 118.032 81.1572 117.959 81.1608C117.243 83.157 116.517 85.1479 115.832 87.1548C115.797 87.2598 116.116 87.6299 116.277 87.6352C117.454 87.6779 118.635 87.6476 119.812 87.6654C120.36 87.6726 120.36 87.3861 120.214 87.0036C119.987 86.4111 119.725 85.8311 119.519 85.2297C119.06 83.874 118.624 82.5094 118.177 81.1483Z" fill="white"/>
<path d="M98.2873 73.9563C98.0817 73.983 97.9948 74.0062 97.908 74.0044C97.0536 73.9937 96.0273 74.2641 95.4016 73.8798C94.8734 73.5542 94.7883 72.4761 94.5472 71.7181C94.2743 70.857 93.6308 70.8107 92.8793 70.8161C91.3141 70.8268 89.7436 70.841 88.1873 70.7165C87.6272 70.672 87.4535 70.8446 87.2975 71.2644C87.0653 71.8889 86.7604 72.4956 86.6044 73.1379C86.4094 73.951 85.9184 74.0933 85.1952 74.0186C84.6723 73.9635 84.137 74.0079 83.4812 74.0079C83.7028 73.4137 83.9172 72.8959 84.0909 72.364C84.6387 70.6898 85.1509 69.0067 85.7111 67.336C86.8349 63.9769 87.9728 60.6232 89.1392 57.2783C89.2136 57.0666 89.5681 56.8655 89.8198 56.8211C90.2488 56.7463 90.7008 56.7997 91.1439 56.7997C92.4113 56.7979 92.4733 56.8495 92.78 58.0932C93.0352 59.1304 93.2338 60.1891 93.5741 61.1978C93.9003 62.1622 94.4285 63.0571 94.7759 64.0161C95.9582 67.2986 97.1033 70.5955 98.2873 73.9563ZM90.8922 61.4398C90.8196 61.4647 90.7451 61.4914 90.6724 61.5163C89.9758 63.4574 89.2757 65.3967 88.5861 67.3414C88.439 67.7541 88.5276 67.9979 89.0559 67.9854C90.1708 67.9569 91.2893 67.9516 92.4042 67.9872C92.9838 68.005 93.0742 67.7079 92.9324 67.2809C92.7428 66.708 92.4592 66.1671 92.2642 65.596C91.7909 64.2153 91.3478 62.8258 90.8922 61.4398Z" fill="white"/>
<path d="M130.476 88.5084C131.448 88.5884 132.318 88.64 133.179 88.7486C133.351 88.7699 133.575 88.9816 133.64 89.1578C134.284 90.896 136.799 91.1273 137.976 89.9886C138.956 89.0421 138.857 87.6383 137.605 87.1384C136.579 86.731 135.386 86.7594 134.335 86.3983C131.237 85.3343 129.009 82.0624 131.508 78.7229C132.642 77.207 134.138 76.6448 136.019 76.6181C137.714 76.595 139.109 77.0006 140.284 78.2407C141.175 79.1819 141.654 80.2672 141.663 81.6301C140.833 81.6301 139.958 81.5909 139.089 81.6443C138.483 81.6817 138.532 81.1799 138.449 80.8988C138.006 79.4221 134.939 78.9133 134.012 80.4789C133.309 81.6674 133.466 82.6478 134.819 83.2082C135.315 83.4146 135.874 83.5409 136.411 83.5694C139.39 83.7259 141.427 85.7079 141.769 88.4265C142.003 90.2911 140.86 91.565 139.514 92.6147C137.575 94.1306 133.95 93.6502 132.242 92.3229C131.449 91.7055 130.866 90.8373 130.811 89.7253C130.79 89.3624 130.618 89.0083 130.476 88.5084Z" fill="white"/>
<path d="M110.959 65.2877C111.223 62.5549 112.005 60.2011 114.455 58.445C115.706 57.5465 116.943 56.963 118.365 56.842C120.274 56.6818 121.992 57.4273 123.564 58.4877C124.165 58.8934 124.154 59.356 123.651 59.8239C123.2 60.2438 122.738 60.653 122.252 61.0302C122.164 61.0995 121.917 61.0355 121.779 60.9626C121.318 60.7224 120.896 60.3932 120.418 60.2046C118.434 59.42 116.667 59.9253 115.103 61.8255C113.602 63.6473 113.423 66.6737 114.76 68.5934C115.724 69.9794 117.108 70.8548 118.734 70.9206C119.65 70.9562 120.637 70.3744 121.508 69.91C122.008 69.6432 122.288 69.5186 122.678 69.9954C122.993 70.3833 123.342 70.7623 123.741 71.0558C124.385 71.5291 124.12 71.8493 123.665 72.2336C121.157 74.3509 117.402 74.3598 114.832 72.2817C114.4 71.933 113.746 71.8387 113.359 71.4597C111.654 69.7837 110.906 67.7021 110.959 65.2877Z" fill="white"/>
<path d="M142.308 79.5167C142.553 78.773 142.774 77.9066 143.132 77.1024C143.256 76.823 143.719 76.5259 144.028 76.5259C145.968 76.5295 147.909 76.6505 149.849 76.6576C151.291 76.6629 152.734 76.5704 154.175 76.4903C154.812 76.4548 155.196 76.5597 155.303 77.3248C155.4 78.0275 155.728 78.6983 156.001 79.5221C154.62 79.5221 153.307 79.6057 152.009 79.4989C150.653 79.3868 150.462 79.4651 150.48 80.8369C150.531 84.8293 150.575 88.8218 150.671 92.8125C150.689 93.574 150.46 93.7893 149.739 93.7146C149.097 93.6469 148.244 93.9263 147.856 93.6042C147.518 93.3231 147.658 92.4158 147.651 91.7842C147.629 90.142 147.665 88.498 147.636 86.8558C147.617 85.6745 147.489 84.4949 147.486 83.3153C147.482 82.3207 147.574 81.3244 147.651 80.3316C147.698 79.7213 147.473 79.4882 146.846 79.5025C145.336 79.5398 143.82 79.5167 142.308 79.5167Z" fill="white"/>
<path d="M156.598 60.0019C156.946 59.2119 157.409 58.5732 157.487 57.89C157.607 56.8367 158.187 56.7762 158.993 56.8118C159.823 56.8492 160.656 56.7976 161.485 56.826C162.654 56.8652 163.822 56.9879 164.99 56.9844C166.28 56.9826 167.572 56.8936 168.861 56.8118C169.308 56.7833 169.556 56.9025 169.678 57.3633C169.896 58.1729 170.167 58.9682 170.437 59.8364C168.877 59.8364 167.377 59.8649 165.881 59.8239C165.199 59.8044 164.914 59.9947 164.96 60.7207C165.054 62.1671 165.139 63.6172 165.133 65.0654C165.126 67.0083 165.004 68.9494 164.983 70.8922C164.974 71.7409 165.077 72.5896 165.153 73.4382C165.195 73.9061 165.022 74.0574 164.557 74.0396C163.708 74.0076 162.857 74.0307 162.147 74.0307C162.081 73.1091 161.966 72.2782 161.975 71.4473C161.991 69.8852 162.125 68.3231 162.125 66.761C162.125 65.1472 161.991 63.5335 161.969 61.918C161.943 59.8382 161.966 59.8204 159.874 59.8453C158.827 59.8542 157.779 59.9414 156.598 60.0019Z" fill="white"/>
<path d="M83.6913 76.5464C83.9519 76.5162 84.0388 76.5002 84.1256 76.4984C86.3732 76.445 86.3697 76.4468 87.4704 78.3914C88.3514 79.9482 89.2483 81.4943 90.1275 83.0529C90.4235 83.5777 90.6876 83.7592 91.0616 83.1116C91.7972 81.8377 92.5576 80.5798 93.2986 79.3113C93.7931 78.4644 94.2593 77.5997 94.7804 76.7688C94.8761 76.6158 95.1668 76.5179 95.3725 76.5108C96.1666 76.4806 96.9624 76.4984 97.9427 76.4984C97.0989 77.9858 96.3013 79.3735 95.5196 80.7684C94.472 82.6365 93.3695 84.478 92.43 86.3977C92.1056 87.0596 92.1695 87.9243 92.1145 88.7018C92.0649 89.3903 92.072 90.0842 92.0968 90.7745C92.1234 91.5022 92.1872 92.2299 92.2616 92.954C92.3166 93.4984 92.1783 93.7724 91.5579 93.7137C90.8294 93.6461 89.8988 93.9201 89.4255 93.5589C89.0657 93.2849 89.2625 92.2494 89.2518 91.552C89.2341 90.239 89.2855 88.9224 89.227 87.6111C89.2004 87.0471 89.0639 86.444 88.8122 85.9405C88.1972 84.7039 87.4775 83.519 86.8146 82.3056C85.783 80.4197 84.7637 78.5266 83.6913 76.5464Z" fill="white"/>
<path d="M156.392 91.1818C156.392 90.0431 156.383 88.9062 156.394 87.7675C156.422 84.7056 156.457 81.6454 156.491 78.5834C156.493 78.377 156.509 78.1671 156.484 77.9625C156.308 76.5 156.307 76.5 157.746 76.5C159.499 76.5 159.543 76.5018 159.485 78.2329C159.432 79.8057 159.235 81.3732 159.171 82.9477C159.153 83.3783 159.48 83.8195 159.483 84.2572C159.513 87.1644 159.483 90.0734 159.511 92.9805C159.517 93.5588 159.355 93.7207 158.776 93.7207C156.475 93.726 156.475 93.7474 156.489 91.4451C156.489 91.3561 156.489 91.2672 156.489 91.1782C156.457 91.1818 156.424 91.1818 156.392 91.1818Z" fill="white"/>
<defs>
<linearGradient id="paint0_linear_1249_4719" x1="128" y1="0" x2="128" y2="144" gradientUnits="userSpaceOnUse">
<stop stop-color="#0E0520"/>
<stop offset="1" stop-color="#1B1B45"/>
</linearGradient>
<linearGradient id="paint1_linear_1249_4719" x1="128" y1="1.02857" x2="128" y2="144" gradientUnits="userSpaceOnUse">
<stop stop-color="#2F235B" stop-opacity="0"/>
<stop offset="1" stop-color="#2F235B"/>
</linearGradient>
</defs>
</svg>
