<svg width="256" height="144" viewBox="0 0 256 144" fill="none" xmlns="http://www.w3.org/2000/svg">
<rect x="0.5" y="-0.5" width="255" height="143" rx="15.5" transform="matrix(1 0 0 -1 0 143)" fill="url(#paint0_linear_1249_4674)" stroke="url(#paint1_linear_1249_4674)"/>
<path d="M73.4287 90.0043C72.8351 89.8736 72.2414 89.7413 71.5897 89.5977C71.6526 89.4187 71.6865 89.2412 71.7704 89.0912C74.8548 83.5903 77.9408 78.0893 81.0365 72.5948C81.2365 72.2399 81.2978 71.9657 81.0639 71.5801C80.2606 70.2541 79.5249 68.8877 78.7087 67.5698C78.5522 67.3165 78.1505 67.0858 77.8521 67.0729C76.568 67.0181 75.2807 67.0503 73.8385 67.0503C76.1647 62.9755 78.4361 58.999 80.7897 54.8789C81.7947 55.3435 82.8078 55.742 83.7531 56.263C92.8579 61.2735 96.6408 74.3451 89.0298 83.3999C85.9922 87.0134 82.0738 89.2009 77.3423 89.851C77.1616 89.8752 76.989 89.951 76.8132 90.0043C75.6856 90.0043 74.5564 90.0043 73.4287 90.0043Z" fill="white"/>
<path d="M78.7478 54.3727C77.6363 56.3731 76.5652 58.3121 75.4811 60.2447C73.334 64.0679 71.1723 67.8831 69.0478 71.7192C68.9058 71.9741 68.9236 72.442 69.0655 72.7065C69.785 74.0487 70.548 75.3715 71.353 76.6653C71.5095 76.9185 71.9128 77.1492 72.2112 77.1621C73.4969 77.217 74.7859 77.1847 76.1909 77.1847C76.078 77.438 76.0135 77.6235 75.9183 77.7929C73.8712 81.3661 71.8047 84.9296 69.785 88.5173C69.464 89.0883 69.1559 89.0964 68.6348 88.8835C62.0417 86.1911 58.104 81.3499 57.1635 74.3165C56.0246 65.7844 60.9286 57.9137 68.9881 55.0309C72.1386 53.9033 75.3714 53.7275 78.7478 54.3727Z" fill="white"/>
<path d="M163.119 72.9413C163.106 67.2194 167.621 62.7444 173.414 62.7363C179.213 62.7299 183.779 67.2419 183.777 72.98C183.775 78.6907 179.226 83.2318 173.506 83.2366C167.644 83.2414 163.131 78.7697 163.119 72.9413ZM179.794 73.6108C179.821 68.4212 176.214 65.4497 171.836 66.4773C169.234 67.0871 167.589 68.96 167.129 71.8347C166.679 74.6432 167.847 77.505 170.018 78.7423C172.181 79.9731 174.446 80.0393 176.619 78.8617C178.886 77.6324 179.731 75.5175 179.794 73.6108Z" fill="white"/>
<path d="M161.745 69.2764C159.885 71.5284 158.138 73.6416 156.382 75.7694C158.252 78.1392 160.085 80.4622 162.03 82.9287C160.496 82.9287 159.139 82.9465 157.784 82.9093C157.578 82.9029 157.328 82.6754 157.183 82.4851C155.831 80.7203 154.497 78.9425 153.156 77.1697C153 76.9632 152.832 76.7631 152.521 76.3744C152.521 78.6699 152.521 80.7558 152.521 82.8852C151.214 82.8852 150.023 82.8852 148.792 82.8852C148.792 76.0921 148.792 69.3377 148.792 62.543C150.017 62.543 151.19 62.543 152.458 62.543C152.458 66.7759 152.458 70.9896 152.458 75.2032C152.519 75.2306 152.579 75.258 152.64 75.2855C152.833 75.0596 153.035 74.8386 153.221 74.6063C154.508 72.9964 155.774 71.3703 157.092 69.7845C157.308 69.5248 157.731 69.3183 158.07 69.3006C159.235 69.2409 160.404 69.2764 161.745 69.2764Z" fill="white"/>
<path d="M129.16 70.4848C129.181 70.046 129.197 69.7072 129.215 69.3249C130.415 69.3249 131.607 69.3249 132.843 69.3249C132.843 73.8402 132.843 78.3232 132.843 82.8691C131.657 82.8691 130.466 82.8691 129.22 82.8691C129.202 82.5175 129.186 82.1577 129.161 81.6786C127.793 82.9224 126.242 83.3934 124.52 83.1789C120.875 82.7256 118.452 79.6621 118.639 75.8002C118.798 72.4964 120.604 70.0105 123.462 69.2362C125.408 68.7103 127.235 68.9506 128.845 70.2589C128.921 70.3218 129.003 70.3735 129.16 70.4848ZM129.363 76.1067C129.368 73.9321 127.942 72.4157 125.892 72.4157C123.851 72.4141 122.418 73.945 122.425 76.1164C122.431 78.3135 123.849 79.8122 125.903 79.7912C128.006 79.7686 129.358 78.3296 129.363 76.1067Z" fill="white"/>
<path d="M110.375 66.4956C108.215 66.4956 106.161 66.4956 104.074 66.4956C104.074 65.3196 104.074 64.234 104.074 63.0967C109.57 63.0967 115.034 63.0967 120.567 63.0967C120.567 64.1888 120.567 65.2922 120.567 66.5021C118.491 66.5021 116.415 66.5021 114.252 66.5021C114.252 72.0224 114.252 77.4395 114.252 82.8952C112.938 82.8952 111.712 82.8952 110.375 82.8952C110.375 77.4588 110.375 72.0224 110.375 66.4956Z" fill="white"/>
<path d="M190.105 69.3429C190.126 69.6736 190.145 69.9881 190.156 70.193C191.181 69.8155 192.182 69.2735 193.247 69.0848C196.448 68.5169 199.316 70.977 199.339 74.2163C199.358 77.0781 199.343 79.9398 199.343 82.8661C198.116 82.8661 196.928 82.8661 195.636 82.8661C195.636 82.5774 195.636 82.2918 195.636 82.0063C195.636 79.7317 195.649 77.4572 195.631 75.1826C195.619 73.4678 194.538 72.3547 192.925 72.3434C191.268 72.3321 190.15 73.4629 190.14 75.2068C190.126 77.7459 190.137 80.2834 190.137 82.8758C188.893 82.8758 187.703 82.8758 186.462 82.8758C186.462 78.3767 186.462 73.8936 186.462 69.3429C187.661 69.3429 188.875 69.3429 190.105 69.3429Z" fill="white"/>
<path d="M134.985 80.7466C135.717 80.0562 136.45 79.3674 137.232 78.6301C138.227 79.6868 139.579 80.1498 141.126 80.0643C141.442 80.0465 141.776 79.9997 142.062 79.8771C142.83 79.5464 142.917 78.6802 142.209 78.2398C141.784 77.9768 141.288 77.8219 140.808 77.6558C139.924 77.3493 139.01 77.1186 138.145 76.7653C136.782 76.2088 135.906 75.236 135.801 73.697C135.687 72.0113 136.243 70.6739 137.727 69.7512C139.824 68.4461 144.438 68.5591 146.35 71.274C145.625 71.979 144.901 72.684 144.122 73.4422C143.259 72.4952 142.113 72.0177 140.747 72.1419C140.484 72.1661 140.21 72.2097 139.971 72.3145C139.248 72.6307 139.158 73.4099 139.832 73.8084C140.307 74.089 140.867 74.2294 141.392 74.4246C142.368 74.7876 143.41 75.0295 144.309 75.5264C146.827 76.9218 146.947 80.5821 144.588 82.2517C141.993 84.0859 136.935 83.2938 134.985 80.7466Z" fill="white"/>
<defs>
<linearGradient id="paint0_linear_1249_4674" x1="128" y1="0" x2="128" y2="144" gradientUnits="userSpaceOnUse">
<stop stop-color="#0E0520"/>
<stop offset="1" stop-color="#1B1B45"/>
</linearGradient>
<linearGradient id="paint1_linear_1249_4674" x1="128" y1="1.02857" x2="128" y2="144" gradientUnits="userSpaceOnUse">
<stop stop-color="#2F235B" stop-opacity="0"/>
<stop offset="1" stop-color="#2F235B"/>
</linearGradient>
</defs>
</svg>
