<svg width="256" height="144" viewBox="0 0 256 144" fill="none" xmlns="http://www.w3.org/2000/svg">
<rect x="0.5" y="-0.5" width="255" height="143" rx="15.5" transform="matrix(1 0 0 -1 0 143)" fill="url(#paint0_linear_1249_4608)" stroke="url(#paint1_linear_1249_4608)"/>
<path d="M63.2879 83.3685C55.4695 83.3648 49.0274 76.9921 49.0001 69.2357C48.9728 61.4236 55.472 54.9913 63.3833 55C71.0802 55.0087 77.5707 61.4434 77.6327 68.9952C77.6971 76.9598 71.0616 83.4503 63.2879 83.3685ZM76.58 67.2755C76.5924 61.4174 71.9158 56.7258 66.0465 56.7073C60.0668 56.6887 55.3282 61.3231 55.3083 67.2074C55.2885 73.068 60.0246 77.8228 65.8878 77.8277C71.8563 77.8352 76.5677 73.1858 76.58 67.2755Z" fill="white"/>
<path d="M56.0229 82.2633C62.0188 85.0107 67.7629 84.8483 72.9218 80.628C78.0944 76.3964 79.2598 70.7998 77.6691 64.53C80.5071 66.6526 82.9731 71.509 82.2428 76.6803C81.3613 82.9204 76.769 87.6553 70.4595 88.7811C64.6311 89.82 58.9527 87.0019 56.0229 82.2633Z" fill="white"/>
<path d="M128.519 77.0612C129.212 76.8616 129.855 76.6422 130.516 76.5132C130.671 76.4835 130.961 76.7178 131.061 76.9013C131.747 78.1548 132.667 79.1007 134.142 79.3338C136.135 79.6475 137.664 78.6457 137.862 76.8368C137.998 75.5896 137.365 74.6002 136.359 73.9815C135.225 73.2835 133.94 72.8309 132.787 72.1589C131.963 71.6779 131.114 71.1249 130.507 70.4083C128.429 67.9547 129.457 64.4869 132.51 63.3859C134.854 62.5404 137.82 63.2706 139.518 65.0919C139.8 65.3944 139.884 65.604 139.475 65.8681C139.131 66.09 138.807 66.3553 138.52 66.6479C138.152 67.0236 137.884 67.0211 137.515 66.6206C136.37 65.3771 134.936 65.2481 133.418 65.7168C132.614 65.966 132.011 66.483 131.887 67.3992C131.781 68.1878 132.145 68.7953 132.754 69.1784C133.656 69.7462 134.614 70.2347 135.576 70.7009C137.169 71.4708 138.694 72.299 139.61 73.9207C141.642 77.5175 139.099 81.9052 134.966 81.9164C131.945 81.9213 129.443 80.0653 128.519 77.0612Z" fill="white"/>
<path d="M155.322 65.5572C154.683 66.0742 154.077 66.564 153.448 67.0723C153.233 66.869 153.036 66.6904 152.846 66.5057C151.683 65.375 149.865 65.1283 148.438 65.9093C147.044 66.6718 146.917 68.3766 148.27 69.2172C149.439 69.9437 150.699 70.5265 151.933 71.1439C153.059 71.7068 154.065 72.4209 154.78 73.4611C155.975 75.1981 156.185 77.0728 155.215 78.961C154.254 80.8307 152.657 81.8337 150.539 81.9106C147.156 82.0345 144.761 79.6801 144.017 77.0591C144.7 76.8607 145.378 76.6339 146.074 76.4876C146.198 76.4615 146.447 76.7417 146.544 76.9289C147.176 78.144 148.076 79.0118 149.452 79.3144C151.349 79.7322 153.065 78.7391 153.321 77.017C153.541 75.5304 152.706 74.5113 151.565 73.7909C150.63 73.202 149.564 72.8226 148.564 72.3366C147.461 71.801 146.46 71.1526 145.723 70.1235C144.364 68.2253 144.542 65.4581 147.119 63.8128C149.664 62.1899 153.806 63.271 155.322 65.5572Z" fill="white"/>
<path d="M106.555 66.7252C105.28 66.3396 104.101 65.8932 102.883 65.6316C99.6942 64.9472 96.5859 66.3011 94.9915 69.0784C93.2111 72.1804 94.084 76.5161 97.7241 78.4391C100.334 79.8177 102.969 79.6367 105.586 78.4217C105.88 78.2853 106.172 78.1452 106.557 77.9642C106.557 78.8383 106.572 79.6181 106.543 80.3967C106.538 80.5356 106.379 80.7265 106.243 80.7947C102.826 82.5069 98.2039 82.3482 95.0857 79.6516C93.2347 78.0497 92.0172 76.1268 91.7134 73.6595C91.303 70.3256 92.3618 67.5273 94.8923 65.37C98.3514 62.4217 102.233 62.5221 106.24 64.0645C106.374 64.1166 106.536 64.3149 106.541 64.4501C106.57 65.2101 106.555 65.9726 106.555 66.7252Z" fill="white"/>
<path d="M174.873 63.5694C175.655 63.5694 176.317 63.5347 176.973 63.5905C177.175 63.6078 177.447 63.8273 177.532 64.0232C179.03 67.4178 180.504 70.8236 181.986 74.2257C182.254 74.8394 182.534 75.447 182.879 76.2107C183.305 75.2424 183.667 74.4216 184.028 73.5996C185.421 70.4306 186.824 67.2641 188.2 64.0877C188.375 63.6835 188.593 63.5335 189.028 63.562C189.617 63.6004 190.21 63.5719 190.928 63.5719C188.222 69.6954 185.562 75.7197 182.841 81.8792C180.165 75.7272 177.541 69.7004 174.873 63.5694Z" fill="white"/>
<path d="M117.351 68.3755C116.791 69.6402 116.29 70.7672 115.792 71.8954C114.466 74.8946 113.137 77.8925 111.828 80.8978C111.689 81.2164 111.525 81.3243 111.186 81.3094C110.568 81.2809 109.95 81.302 109.209 81.302C111.927 75.1748 114.613 69.1207 117.359 62.9277C120.127 69.1182 122.831 75.1661 125.575 81.3007C124.772 81.3007 124.09 81.3379 123.418 81.2772C123.229 81.2598 122.998 80.9858 122.902 80.7775C122.003 78.8074 121.129 76.825 120.246 74.8474C119.305 72.7385 118.361 70.6308 117.351 68.3755Z" fill="white"/>
<path d="M174.92 81.2983C174.125 81.2983 173.463 81.328 172.807 81.2797C172.622 81.266 172.373 81.0615 172.292 80.8829C171.049 78.1417 169.83 75.3905 168.604 72.643C167.992 71.2705 167.374 69.9005 166.7 68.3941C166.297 69.2806 165.938 70.0505 165.596 70.8267C164.122 74.1643 162.645 77.5007 161.191 80.847C161.044 81.1867 160.882 81.3243 160.513 81.3069C159.898 81.2784 159.279 81.2995 158.553 81.2995C161.265 75.1822 163.942 69.1455 166.698 62.9277C169.466 69.112 172.166 75.1475 174.92 81.2983Z" fill="white"/>
<path d="M207.488 81.2983C206.691 81.2983 206.013 81.328 205.341 81.2784C205.167 81.266 204.943 81.0329 204.86 80.8482C203.249 77.2763 201.657 73.6969 200.058 70.12C199.825 69.598 199.577 69.0822 199.273 68.4276C199.108 68.7748 198.993 69.0017 198.891 69.2335C197.199 73.0633 195.503 76.8907 193.826 80.7267C193.645 81.1408 193.436 81.3491 192.957 81.3107C192.404 81.266 191.845 81.3007 191.127 81.3007C193.844 75.1735 196.523 69.1318 199.274 62.9277C202.043 69.1232 204.744 75.1648 207.488 81.2983Z" fill="white"/>
<defs>
<linearGradient id="paint0_linear_1249_4608" x1="128" y1="0" x2="128" y2="144" gradientUnits="userSpaceOnUse">
<stop stop-color="#0E0520"/>
<stop offset="1" stop-color="#1B1B45"/>
</linearGradient>
<linearGradient id="paint1_linear_1249_4608" x1="128" y1="1.02857" x2="128" y2="144" gradientUnits="userSpaceOnUse">
<stop stop-color="#2F235B" stop-opacity="0"/>
<stop offset="1" stop-color="#2F235B"/>
</linearGradient>
</defs>
</svg>
