<svg width="256" height="144" viewBox="0 0 256 144" fill="none" xmlns="http://www.w3.org/2000/svg">
<rect x="0.5" y="-0.5" width="255" height="143" rx="15.5" transform="matrix(1 0 0 -1 0 143)" fill="url(#paint0_linear_1249_4766)" stroke="url(#paint1_linear_1249_4766)"/>
<path d="M104.864 97.1531V97.2647L104.324 97.9535V109.719H101.304V109.608L102.758 108.919L102.739 98.5307H102.646L99.1409 106.871H99.0104L95.1699 99.0147H95.0766V105.288C95.0766 106.294 95.145 107.051 95.2817 107.56C95.4309 108.069 95.6732 108.459 96.0088 108.733C96.3568 109.006 96.9037 109.291 97.6494 109.589V109.719H94.6665V98.177L94.1258 97.2647V97.1531H95.9715L99.5697 104.562H99.6815L102.758 97.1531H104.864ZM111.525 97.1531L115.627 109.608V109.719H112.252V109.608L113.744 108.919L112.532 105.307H108.113C107.74 106.387 107.554 107.175 107.554 107.671C107.554 108.118 107.672 108.484 107.908 108.77C108.157 109.055 108.561 109.335 109.12 109.608V109.719H105.988V109.608L110.145 98.3817L109.754 97.2647V97.1531H111.525ZM110.35 98.9774L108.225 104.972H112.42L110.425 98.9774H110.35ZM122.544 103.483L126.422 109.589V109.719H122.712V109.608L124.222 108.919L120.922 103.632H119.356V108.956L120.866 109.608V109.719H116.28V109.608L117.771 108.956L117.79 97.9535L116.336 97.2647V97.1531H121.425C122.855 97.1531 123.948 97.3889 124.707 97.8605C125.465 98.3197 125.844 99.0147 125.844 99.9456C125.844 101.484 124.731 102.664 122.507 103.483H122.544ZM119.356 103.296H121.09C122.059 103.296 122.805 103.03 123.327 102.496C123.849 101.962 124.11 101.218 124.11 100.262C124.11 98.4128 123.097 97.4882 121.071 97.4882H119.356V103.296ZM136.129 101.267H136.017L135.663 100.262C135.302 99.2568 135.048 98.5927 134.899 98.27C134.749 97.9349 134.588 97.724 134.414 97.637C134.24 97.5378 133.941 97.4882 133.519 97.4882H132.4V108.956L133.892 109.608V109.719H129.305V109.608L130.816 108.956V97.4882H129.697C129.262 97.4882 128.957 97.5378 128.783 97.637C128.609 97.724 128.448 97.9349 128.299 98.27C128.15 98.5927 127.895 99.2629 127.534 100.281C127.422 100.616 127.311 100.945 127.199 101.267H127.087V97.1531H136.129V101.267ZM138.463 108.956V97.9164L136.971 97.2647V97.1531H141.557V97.2647L140.066 97.9164V108.956L141.557 109.608V109.719H136.971V109.608L138.463 108.956ZM147.665 97.1531L151.767 109.608V109.719H148.392V109.608L149.884 108.919L148.672 105.307H144.254C143.881 106.387 143.694 107.175 143.694 107.671C143.694 108.118 143.812 108.484 144.048 108.77C144.297 109.055 144.701 109.335 145.26 109.608V109.719H142.128V109.608L146.286 98.3817L145.894 97.2647V97.1531H147.665ZM146.491 98.9774L144.365 104.972H148.56L146.565 98.9774H146.491ZM158.704 97.1531H161.743V109.868H161.072L153.987 98.9774H153.894V105.251C153.894 106.219 153.969 106.958 154.118 107.467C154.267 107.976 154.516 108.379 154.864 108.677C155.224 108.962 155.783 109.266 156.542 109.589V109.719H153.484V98.27L152.701 97.2647V97.1531H154.696L161.24 107.206V107.187H161.333V101.658C161.333 100.703 161.258 99.9704 161.109 99.4615C160.96 98.9402 160.705 98.5244 160.345 98.2141C159.984 97.9039 159.437 97.5936 158.704 97.2833V97.1531Z" fill="white"/>
<path d="M104.872 97.1521H105.004V97.0193H104.872V97.1521ZM104.872 97.2637L104.976 97.3456L105.004 97.3095V97.2637H104.872ZM104.331 97.9525L104.226 97.8706L104.198 97.9067V97.9525H104.331ZM104.331 109.718V109.851H104.464V109.718H104.331ZM101.311 109.718H101.178V109.851H101.311V109.718ZM101.311 109.607L101.254 109.487L101.178 109.523V109.607H101.311ZM102.765 108.918L102.822 109.038L102.898 109.002L102.898 108.917L102.765 108.918ZM102.746 98.5296L102.879 98.5294L102.879 98.3969H102.746V98.5296ZM102.653 98.5296V98.3969H102.565L102.53 98.4783L102.653 98.5296ZM99.148 106.87V107.003H99.2364L99.2706 106.921L99.148 106.87ZM99.0175 106.87L98.898 106.928L98.9345 107.003H99.0175V106.87ZM95.177 99.0137L95.2965 98.9554L95.26 98.8809H95.177V99.0137ZM95.0838 99.0137V98.8809H94.9508V99.0137H95.0838ZM95.2888 107.559L95.1604 107.593L95.1608 107.595L95.1612 107.596L95.2888 107.559ZM96.0159 108.732L95.932 108.834L95.9329 108.835L95.9338 108.836L96.0159 108.732ZM97.6565 109.588H97.7895V109.498L97.7059 109.465L97.6565 109.588ZM97.6565 109.718V109.851H97.7895V109.718H97.6565ZM94.6736 109.718H94.5407V109.851H94.6736V109.718ZM94.6736 98.176H94.8066V98.1396L94.788 98.1082L94.6736 98.176ZM94.133 97.2637H94V97.3001L94.0185 97.3313L94.133 97.2637ZM94.133 97.1521V97.0193H94V97.1521H94.133ZM95.9786 97.1521L96.0983 97.094L96.0619 97.0193H95.9786V97.1521ZM99.5768 104.561L99.4572 104.619L99.4935 104.694H99.5768V104.561ZM99.6887 104.561V104.694H99.7775L99.8115 104.612L99.6887 104.561ZM102.765 97.1521V97.0193H102.676L102.642 97.1012L102.765 97.1521ZM104.739 97.1521V97.2637H105.004V97.1521H104.739ZM104.767 97.1818L104.226 97.8706L104.435 98.0344L104.976 97.3456L104.767 97.1818ZM104.198 97.9525V109.718H104.464V97.9525H104.198ZM104.331 109.586H101.311V109.851H104.331V109.586ZM101.444 109.718V109.607H101.178V109.718H101.444ZM101.368 109.727L102.822 109.038L102.708 108.798L101.254 109.487L101.368 109.727ZM102.898 108.917L102.879 98.5294L102.613 98.5299L102.632 108.918L102.898 108.917ZM102.746 98.3969H102.653V98.6624H102.746V98.3969ZM102.53 98.4783L99.0254 106.819L99.2706 106.921L102.776 98.581L102.53 98.4783ZM99.148 106.737H99.0175V107.003H99.148V106.737ZM99.137 106.812L95.2965 98.9554L95.0575 99.0719L98.898 106.928L99.137 106.812ZM95.177 98.8809H95.0838V99.1465H95.177V98.8809ZM94.9508 99.0137V105.287H95.2167V99.0137H94.9508ZM94.9508 105.287C94.9508 106.296 95.0191 107.067 95.1604 107.593L95.4173 107.524C95.2852 107.033 95.2167 106.29 95.2167 105.287H94.9508ZM95.1612 107.596C95.3162 108.125 95.5712 108.541 95.932 108.834L96.0999 108.629C95.7895 108.376 95.5598 108.01 95.4164 107.521L95.1612 107.596ZM95.9338 108.836C96.2968 109.121 96.8576 109.412 97.6072 109.711L97.7059 109.465C96.964 109.168 96.4311 108.889 96.0981 108.627L95.9338 108.836ZM97.5236 109.588V109.718H97.7895V109.588H97.5236ZM97.6565 109.586H94.6736V109.851H97.6565V109.586ZM94.8066 109.718V98.176H94.5407V109.718H94.8066ZM94.788 98.1082L94.2474 97.1961L94.0185 97.3313L94.5592 98.2435L94.788 98.1082ZM94.2659 97.2637V97.1521H94V97.2637H94.2659ZM94.133 97.2848H95.9786V97.0193H94.133V97.2848ZM95.859 97.2099L99.4572 104.619L99.6964 104.503L96.0983 97.094L95.859 97.2099ZM99.5768 104.694H99.6887V104.429H99.5768V104.694ZM99.8115 104.612L102.888 97.2029L102.642 97.1012L99.5658 104.511L99.8115 104.612ZM102.765 97.2848H104.872V97.0193H102.765V97.2848ZM111.532 97.1521L111.658 97.1105L111.628 97.0193H111.532V97.1521ZM115.634 109.607H115.767V109.585L115.76 109.565L115.634 109.607ZM115.634 109.718V109.851H115.767V109.718H115.634ZM112.259 109.718H112.126V109.851H112.259V109.718ZM112.259 109.607L112.203 109.486L112.126 109.522V109.607H112.259ZM113.751 108.918L113.806 109.038L113.915 108.988L113.877 108.875L113.751 108.918ZM112.539 105.306L112.665 105.264L112.635 105.173H112.539V105.306ZM108.12 105.306V105.173H108.026L107.995 105.263L108.12 105.306ZM107.915 108.769L107.813 108.853L107.814 108.855L107.815 108.856L107.915 108.769ZM109.127 109.607H109.26V109.524L109.186 109.487L109.127 109.607ZM109.127 109.718V109.851H109.26V109.718H109.127ZM105.995 109.718H105.862V109.851H105.995V109.718ZM105.995 109.607L105.87 109.56L105.862 109.583V109.607H105.995ZM110.153 98.3807L110.277 98.4267L110.294 98.382L110.278 98.3369L110.153 98.3807ZM109.761 97.2637H109.628V97.2863L109.636 97.3075L109.761 97.2637ZM109.761 97.1521V97.0193H109.628V97.1521H109.761ZM110.358 98.9764V98.8436H110.264L110.232 98.9322L110.358 98.9764ZM108.232 104.971L108.107 104.927L108.044 105.104H108.232V104.971ZM112.427 104.971V105.104H112.611L112.553 104.929L112.427 104.971ZM110.432 98.9764L110.558 98.9346L110.528 98.8436H110.432V98.9764ZM111.406 97.1935L115.507 109.648L115.76 109.565L111.658 97.1105L111.406 97.1935ZM115.501 109.607V109.718H115.767V109.607H115.501ZM115.634 109.586H112.259V109.851H115.634V109.586ZM112.392 109.718V109.607H112.126V109.718H112.392ZM112.315 109.727L113.806 109.038L113.695 108.797L112.203 109.486L112.315 109.727ZM113.877 108.875L112.665 105.264L112.413 105.348L113.625 108.96L113.877 108.875ZM112.539 105.173H108.12V105.439H112.539V105.173ZM107.995 105.263C107.622 106.343 107.428 107.15 107.428 107.67H107.694C107.694 107.198 107.873 106.429 108.246 105.349L107.995 105.263ZM107.428 107.67C107.428 108.141 107.553 108.539 107.813 108.853L108.018 108.684C107.805 108.427 107.694 108.093 107.694 107.67H107.428ZM107.815 108.856C108.08 109.161 108.502 109.449 109.069 109.726L109.186 109.487C108.633 109.218 108.247 108.948 108.016 108.682L107.815 108.856ZM108.994 109.607V109.718H109.26V109.607H108.994ZM109.127 109.586H105.995V109.851H109.127V109.586ZM106.128 109.718V109.607H105.862V109.718H106.128ZM106.12 109.653L110.277 98.4267L110.028 98.3346L105.87 109.56L106.12 109.653ZM110.278 98.3369L109.886 97.2199L109.636 97.3075L110.027 98.4246L110.278 98.3369ZM109.894 97.2637V97.1521H109.628V97.2637H109.894ZM109.761 97.2848H111.532V97.0193H109.761V97.2848ZM110.232 98.9322L108.107 104.927L108.358 105.015L110.483 99.0207L110.232 98.9322ZM108.232 105.104H112.427V104.838H108.232V105.104ZM112.553 104.929L110.558 98.9346L110.306 99.0184L112.301 105.013L112.553 104.929ZM110.432 98.8436H110.358V99.1092H110.432V98.8436ZM122.551 103.482L122.663 103.411L122.624 103.349H122.551V103.482ZM126.429 109.588H126.562V109.549L126.541 109.517L126.429 109.588ZM126.429 109.718V109.851H126.562V109.718H126.429ZM122.719 109.718H122.586V109.851H122.719V109.718ZM122.719 109.607L122.664 109.486L122.586 109.521V109.607H122.719ZM124.229 108.918L124.284 109.039L124.422 108.976L124.342 108.847L124.229 108.918ZM120.929 103.631L121.042 103.56L121.003 103.498H120.929V103.631ZM119.363 103.631V103.498H119.23V103.631H119.363ZM119.363 108.955H119.23V109.042L119.31 109.077L119.363 108.955ZM120.873 109.607H121.006V109.519L120.926 109.485L120.873 109.607ZM120.873 109.718V109.851H121.006V109.718H120.873ZM116.287 109.718H116.154V109.851H116.287V109.718ZM116.287 109.607L116.234 109.485L116.154 109.52V109.607H116.287ZM117.778 108.955L117.832 109.077L117.911 109.042L117.911 108.955L117.778 108.955ZM117.797 97.9525L117.93 97.9528L117.93 97.8686L117.854 97.8326L117.797 97.9525ZM116.343 97.2637H116.21V97.3476L116.286 97.3836L116.343 97.2637ZM116.343 97.1521V97.0193H116.21V97.1521H116.343ZM124.714 97.8594L124.643 97.9722L124.645 97.9729L124.714 97.8594ZM122.514 103.482L122.468 103.357L122.514 103.614V103.482ZM119.363 103.295H119.23V103.428H119.363V103.295ZM119.363 97.4872V97.3544H119.23V97.4872H119.363ZM122.439 103.553L126.317 109.659L126.541 109.517L122.663 103.411L122.439 103.553ZM126.296 109.588V109.718H126.562V109.588H126.296ZM126.429 109.586H122.719V109.851H126.429V109.586ZM122.852 109.718V109.607H122.586V109.718H122.852ZM122.774 109.727L124.284 109.039L124.174 108.797L122.664 109.486L122.774 109.727ZM124.342 108.847L121.042 103.56L120.816 103.701L124.116 108.988L124.342 108.847ZM120.929 103.498H119.363V103.763H120.929V103.498ZM119.23 103.631V108.955H119.496V103.631H119.23ZM119.31 109.077L120.82 109.728L120.926 109.485L119.416 108.833L119.31 109.077ZM120.74 109.607V109.718H121.006V109.607H120.74ZM120.873 109.586H116.287V109.851H120.873V109.586ZM116.42 109.718V109.607H116.154V109.718H116.42ZM116.34 109.728L117.832 109.077L117.725 108.833L116.234 109.485L116.34 109.728ZM117.911 108.955L117.93 97.9528L117.664 97.9522L117.645 108.955L117.911 108.955ZM117.854 97.8326L116.4 97.1437L116.286 97.3836L117.74 98.0725L117.854 97.8326ZM116.476 97.2637V97.1521H116.21V97.2637H116.476ZM116.343 97.2848H121.432V97.0193H116.343V97.2848ZM121.432 97.2848C122.85 97.2848 123.915 97.5193 124.643 97.9722L124.784 97.7467C123.996 97.2563 122.873 97.0193 121.432 97.0193V97.2848ZM124.645 97.9729C125.361 98.4067 125.718 99.0571 125.718 99.9445H125.984C125.984 98.9702 125.583 98.2306 124.783 97.7459L124.645 97.9729ZM125.718 99.9445C125.718 101.4 124.673 102.545 122.468 103.357L122.56 103.606C124.804 102.78 125.984 101.567 125.984 99.9445H125.718ZM122.514 103.614H122.551V103.349H122.514V103.614ZM119.363 103.428H121.097V103.163H119.363V103.428ZM121.097 103.428C122.091 103.428 122.875 103.154 123.429 102.588L123.239 102.402C122.749 102.903 122.042 103.163 121.097 103.163V103.428ZM123.429 102.588C123.982 102.023 124.25 101.241 124.25 100.261H123.984C123.984 101.192 123.73 101.9 123.239 102.402L123.429 102.588ZM124.25 100.261C124.25 99.3127 123.99 98.578 123.447 98.0826C122.907 97.5893 122.109 97.3544 121.078 97.3544V97.6199C122.073 97.6199 122.795 97.8472 123.268 98.2786C123.738 98.7078 123.984 99.3601 123.984 100.261H124.25ZM121.078 97.3544H119.363V97.6199H121.078V97.3544ZM119.23 97.4872V103.295H119.496V97.4872H119.23ZM136.136 101.266V101.399H136.269V101.266H136.136ZM136.024 101.266L135.899 101.31L135.93 101.399H136.024V101.266ZM135.67 100.261L135.795 100.217L135.795 100.216L135.67 100.261ZM134.906 98.269L134.784 98.3229L134.785 98.3239L134.785 98.3246L134.906 98.269ZM134.421 97.636L134.355 97.7514L134.358 97.7531L134.361 97.7548L134.421 97.636ZM132.407 97.4872V97.3544H132.274V97.4872H132.407ZM132.407 108.955H132.274V109.042L132.354 109.077L132.407 108.955ZM133.899 109.607H134.032V109.52L133.952 109.485L133.899 109.607ZM133.899 109.718V109.851H134.032V109.718H133.899ZM129.313 109.718H129.18V109.851H129.313V109.718ZM129.313 109.607L129.26 109.485L129.18 109.519V109.607H129.313ZM130.823 108.955L130.875 109.077L130.956 109.042V108.955H130.823ZM130.823 97.4872H130.956V97.3544H130.823V97.4872ZM128.791 97.636L128.85 97.7548L128.853 97.7531L128.856 97.7514L128.791 97.636ZM128.306 98.269L128.427 98.3246L128.427 98.3239L128.427 98.3229L128.306 98.269ZM127.541 100.28L127.416 100.235L127.416 100.236L127.415 100.238L127.541 100.28ZM127.206 101.266V101.399H127.3L127.331 101.31L127.206 101.266ZM127.094 101.266H126.961V101.399H127.094V101.266ZM127.094 97.1521V97.0193H126.961V97.1521H127.094ZM136.136 97.1521H136.269V97.0193H136.136V97.1521ZM136.136 101.133H136.024V101.399H136.136V101.133ZM136.15 101.222L135.795 100.217L135.544 100.305L135.899 101.31L136.15 101.222ZM135.795 100.216C135.435 99.2119 135.178 98.5423 135.026 98.2134L134.785 98.3246C134.931 98.641 135.184 99.2996 135.545 100.306L135.795 100.216ZM135.027 98.2151C134.875 97.8735 134.698 97.6258 134.48 97.5173L134.361 97.7548C134.492 97.8201 134.638 97.9942 134.784 98.3229L135.027 98.2151ZM134.487 97.5207C134.28 97.403 133.951 97.3544 133.526 97.3544V97.6199C133.946 97.6199 134.213 97.6705 134.355 97.7514L134.487 97.5207ZM133.526 97.3544H132.407V97.6199H133.526V97.3544ZM132.274 97.4872V108.955H132.54V97.4872H132.274ZM132.354 109.077L133.846 109.728L133.952 109.485L132.461 108.833L132.354 109.077ZM133.766 109.607V109.718H134.032V109.607H133.766ZM133.899 109.586H129.313V109.851H133.899V109.586ZM129.445 109.718V109.607H129.18V109.718H129.445ZM129.365 109.728L130.875 109.077L130.77 108.833L129.26 109.485L129.365 109.728ZM130.956 108.955V97.4872H130.69V108.955H130.956ZM130.823 97.3544H129.704V97.6199H130.823V97.3544ZM129.704 97.3544C129.267 97.3544 128.931 97.4027 128.725 97.5207L128.856 97.7514C128.998 97.6708 129.271 97.6199 129.704 97.6199V97.3544ZM128.731 97.5173C128.514 97.6258 128.336 97.8735 128.184 98.2151L128.427 98.3229C128.574 97.9942 128.719 97.8201 128.85 97.7548L128.731 97.5173ZM128.185 98.2134C128.033 98.5425 127.776 99.2187 127.416 100.235L127.667 100.324C128.028 99.3051 128.28 98.6408 128.427 98.3246L128.185 98.2134ZM127.415 100.238C127.304 100.572 127.192 100.901 127.08 101.223L127.331 101.31C127.444 100.986 127.556 100.657 127.668 100.322L127.415 100.238ZM127.206 101.133H127.094V101.399H127.206V101.133ZM127.227 101.266V97.1521H126.961V101.266H127.227ZM127.094 97.2848H136.136V97.0193H127.094V97.2848ZM136.003 97.1521V101.266H136.269V97.1521H136.003ZM138.47 108.955L138.523 109.077L138.603 109.042V108.955H138.47ZM138.47 97.9153H138.603V97.8285L138.523 97.7937L138.47 97.9153ZM136.978 97.2637H136.845V97.3505L136.925 97.3853L136.978 97.2637ZM136.978 97.1521V97.0193H136.845V97.1521H136.978ZM141.565 97.1521H141.697V97.0193H141.565V97.1521ZM141.565 97.2637L141.618 97.3853L141.697 97.3505V97.2637H141.565ZM140.073 97.9153L140.02 97.7937L139.94 97.8285V97.9153H140.073ZM140.073 108.955H139.94V109.042L140.02 109.077L140.073 108.955ZM141.565 109.607H141.697V109.52L141.618 109.485L141.565 109.607ZM141.565 109.718V109.851H141.697V109.718H141.565ZM136.978 109.718H136.845V109.851H136.978V109.718ZM136.978 109.607L136.925 109.485L136.845 109.52V109.607H136.978ZM138.603 108.955V97.9153H138.337V108.955H138.603ZM138.523 97.7937L137.032 97.1421L136.925 97.3853L138.417 98.0369L138.523 97.7937ZM137.111 97.2637V97.1521H136.845V97.2637H137.111ZM136.978 97.2848H141.565V97.0193H136.978V97.2848ZM141.432 97.1521V97.2637H141.697V97.1521H141.432ZM141.511 97.1421L140.02 97.7937L140.126 98.0369L141.618 97.3853L141.511 97.1421ZM139.94 97.9153V108.955H140.206V97.9153H139.94ZM140.02 109.077L141.511 109.728L141.618 109.485L140.126 108.833L140.02 109.077ZM141.432 109.607V109.718H141.697V109.607H141.432ZM141.565 109.586H136.978V109.851H141.565V109.586ZM137.111 109.718V109.607H136.845V109.718H137.111ZM137.032 109.728L138.523 109.077L138.417 108.833L136.925 109.485L137.032 109.728ZM147.672 97.1521L147.799 97.1105L147.769 97.0193H147.672V97.1521ZM151.774 109.607H151.907V109.585L151.9 109.565L151.774 109.607ZM151.774 109.718V109.851H151.907V109.718H151.774ZM148.4 109.718H148.267V109.851H148.4V109.718ZM148.4 109.607L148.344 109.486L148.267 109.522V109.607H148.4ZM149.891 108.918L149.947 109.038L150.055 108.988L150.017 108.875L149.891 108.918ZM148.679 105.306L148.805 105.264L148.775 105.173H148.679V105.306ZM144.261 105.306V105.173H144.166L144.135 105.263L144.261 105.306ZM144.056 108.769L143.953 108.853L143.954 108.855L143.955 108.856L144.056 108.769ZM145.268 109.607H145.4V109.524L145.326 109.487L145.268 109.607ZM145.268 109.718V109.851H145.4V109.718H145.268ZM142.135 109.718H142.002V109.851H142.135V109.718ZM142.135 109.607L142.011 109.56L142.002 109.583V109.607H142.135ZM146.293 98.3807L146.418 98.4267L146.434 98.382L146.418 98.3369L146.293 98.3807ZM145.901 97.2637H145.768V97.2863L145.776 97.3075L145.901 97.2637ZM145.901 97.1521V97.0193H145.768V97.1521H145.901ZM146.498 98.9764V98.8436H146.404L146.373 98.9322L146.498 98.9764ZM144.373 104.971L144.247 104.927L144.184 105.104H144.373V104.971ZM148.567 104.971V105.104H148.752L148.694 104.929L148.567 104.971ZM146.572 98.9764L146.699 98.9346L146.668 98.8436H146.572V98.9764ZM147.546 97.1935L151.648 109.648L151.9 109.565L147.799 97.1105L147.546 97.1935ZM151.641 109.607V109.718H151.907V109.607H151.641ZM151.774 109.586H148.4V109.851H151.774V109.586ZM148.533 109.718V109.607H148.267V109.718H148.533ZM148.455 109.727L149.947 109.038L149.835 108.797L148.344 109.486L148.455 109.727ZM150.017 108.875L148.805 105.264L148.553 105.348L149.765 108.96L150.017 108.875ZM148.679 105.173H144.261V105.439H148.679V105.173ZM144.135 105.263C143.762 106.343 143.568 107.15 143.568 107.67H143.834C143.834 107.198 144.014 106.429 144.386 105.349L144.135 105.263ZM143.568 107.67C143.568 108.141 143.693 108.539 143.953 108.853L144.158 108.684C143.946 108.427 143.834 108.093 143.834 107.67H143.568ZM143.955 108.856C144.221 109.161 144.643 109.449 145.209 109.726L145.326 109.487C144.774 109.218 144.388 108.948 144.156 108.682L143.955 108.856ZM145.135 109.607V109.718H145.4V109.607H145.135ZM145.268 109.586H142.135V109.851H145.268V109.586ZM142.268 109.718V109.607H142.002V109.718H142.268ZM142.26 109.653L146.418 98.4267L146.168 98.3346L142.011 109.56L142.26 109.653ZM146.418 98.3369L146.027 97.2199L145.776 97.3075L146.167 98.4246L146.418 98.3369ZM146.034 97.2637V97.1521H145.768V97.2637H146.034ZM145.901 97.2848H147.672V97.0193H145.901V97.2848ZM146.373 98.9322L144.247 104.927L144.498 105.015L146.623 99.0207L146.373 98.9322ZM144.373 105.104H148.567V104.838H144.373V105.104ZM148.694 104.929L146.699 98.9346L146.446 99.0184L148.441 105.013L148.694 104.929ZM146.572 98.8436H146.498V99.1092H146.572V98.8436ZM158.711 97.1521V97.0193H158.578V97.1521H158.711ZM161.75 97.1521H161.883V97.0193H161.75V97.1521ZM161.75 109.867V110H161.883V109.867H161.75ZM161.079 109.867L160.967 109.939L161.007 110H161.079V109.867ZM153.995 98.9764L154.106 98.9042L154.067 98.8436H153.995V98.9764ZM153.901 98.9764V98.8436H153.768V98.9764H153.901ZM154.871 108.676L154.784 108.776L154.786 108.778L154.788 108.78L154.871 108.676ZM156.549 109.588H156.682V109.5L156.601 109.466L156.549 109.588ZM156.549 109.718V109.851H156.682V109.718H156.549ZM153.491 109.718H153.358V109.851H153.491V109.718ZM153.491 98.269H153.624V98.2235L153.596 98.1875L153.491 98.269ZM152.708 97.2637H152.575V97.3092L152.603 97.3452L152.708 97.2637ZM152.708 97.1521V97.0193H152.575V97.1521H152.708ZM154.703 97.1521L154.814 97.0797L154.775 97.0193H154.703V97.1521ZM161.247 107.205L161.135 107.277L161.38 107.653V107.205H161.247ZM161.247 107.186V107.054H161.114V107.186H161.247ZM161.34 107.186V107.319H161.473V107.186H161.34ZM161.116 99.4605L160.988 99.497L160.989 99.4978L161.116 99.4605ZM158.711 97.2823H158.578V97.3703L158.659 97.4046L158.711 97.2823ZM158.711 97.2848H161.75V97.0193H158.711V97.2848ZM161.617 97.1521V109.867H161.883V97.1521H161.617ZM161.75 109.734H161.079V110H161.75V109.734ZM161.191 109.795L154.106 98.9042L153.883 99.0488L160.967 109.939L161.191 109.795ZM153.995 98.8436H153.901V99.1092H153.995V98.8436ZM153.768 98.9764V105.25H154.034V98.9764H153.768ZM153.768 105.25C153.768 106.222 153.843 106.976 153.997 107.503L154.253 107.428C154.109 106.938 154.034 106.214 154.034 105.25H153.768ZM153.997 107.503C154.153 108.032 154.414 108.459 154.784 108.776L154.957 108.575C154.632 108.296 154.396 107.917 154.253 107.428L153.997 107.503ZM154.788 108.78C155.163 109.076 155.735 109.386 156.497 109.71L156.601 109.466C155.847 109.145 155.3 108.846 154.953 108.572L154.788 108.78ZM156.416 109.588V109.718H156.682V109.588H156.416ZM156.549 109.586H153.491V109.851H156.549V109.586ZM153.624 109.718V98.269H153.358V109.718H153.624ZM153.596 98.1875L152.813 97.1822L152.603 97.3452L153.386 98.3505L153.596 98.1875ZM152.841 97.2637V97.1521H152.575V97.2637H152.841ZM152.708 97.2848H154.703V97.0193H152.708V97.2848ZM154.592 97.2244L161.135 107.277L161.358 107.133L154.814 97.0797L154.592 97.2244ZM161.38 107.205V107.186H161.114V107.205H161.38ZM161.247 107.319H161.34V107.054H161.247V107.319ZM161.473 107.186V101.657H161.207V107.186H161.473ZM161.473 101.657C161.473 100.697 161.398 99.9501 161.244 99.4232L160.989 99.4978C161.133 99.9885 161.207 100.706 161.207 101.657H161.473ZM161.244 99.424C161.089 98.8815 160.821 98.442 160.439 98.1126L160.265 98.3138C160.603 98.6048 160.845 98.997 160.988 99.497L161.244 99.424ZM160.439 98.1126C160.063 97.7893 159.502 97.4727 158.763 97.16L158.659 97.4046C159.387 97.7126 159.92 98.0165 160.265 98.3138L160.439 98.1126ZM158.844 97.2823V97.1521H158.578V97.2823H158.844Z" fill="white"/>
<path fill-rule="evenodd" clip-rule="evenodd" d="M135.007 34.0038C134.975 34.0291 134.841 34.2209 134.71 34.4301C133.305 36.6662 129.626 41.6053 128.297 43.0397C128.226 43.116 128.194 43.0839 127.427 42.1487C125.203 39.4402 123.192 36.7115 121.814 34.5346C121.394 33.8708 121.493 33.8115 118.085 36.7651C113.625 40.6314 113.72 40.511 114.661 41.1017C116.178 42.0537 117.72 43.125 119.474 44.4458C121.257 45.789 123.868 47.9047 123.868 48.0066C123.868 48.2568 115.909 56.1981 115.658 56.1981C115.58 56.1981 114.918 55.4191 113.688 53.8786C111.633 51.3065 110.031 49.0745 108.678 46.9015C108.289 46.2765 108.252 46.2304 108.173 46.261C108.123 46.2802 106.841 47.6565 105.948 48.6505C101.998 53.0449 101.495 53.7337 101.999 54.051C104.378 55.5483 108.181 58.3683 110.447 60.3156C110.784 60.6043 110.829 60.5289 109.82 61.3559C107.012 63.6562 104.19 65.7234 101.835 67.2056C101.702 67.2893 101.588 67.3841 101.582 67.4163C101.551 67.5771 105.861 72.5495 107.842 74.639C108.216 75.0337 108.184 75.0446 108.585 74.389C110.075 71.9531 112.398 68.7915 115 65.6562C115.756 64.7448 115.413 64.5117 119.857 68.9526C124.266 73.359 124.046 73.0458 123.212 73.7384C120.102 76.3217 117.086 78.5419 114.553 80.1128C114.169 80.3509 113.845 80.5714 113.833 80.6029C113.754 80.8084 121.158 87.3222 121.375 87.2387C121.405 87.2272 121.545 87.0355 121.686 86.8125C123.013 84.7186 124.703 82.385 126.661 79.9431C127.378 79.0482 128.15 78.1145 128.196 78.0861C128.25 78.0529 128.284 78.0898 128.935 78.8786C131.099 81.5012 133.388 84.6014 134.655 86.6257C134.781 86.8278 134.862 86.9203 134.912 86.9203C135.189 86.9203 142.382 80.5942 142.312 80.4123C142.3 80.3805 142.036 80.1945 141.725 79.999C139.196 78.4074 136.253 76.2352 133.313 73.7915C132.482 73.0999 132.525 73.1682 132.759 72.913C135.06 70.4092 140.579 64.9433 140.806 64.9433C140.844 64.9433 141.162 65.2954 141.571 65.7893C144.03 68.7621 146.208 71.7184 147.685 74.0877C148.056 74.6824 148.092 74.727 148.163 74.6841C148.344 74.5746 151.119 71.5099 152.559 69.8291C155.014 66.9644 154.897 67.3952 153.478 66.4528C151.105 64.8764 147.807 62.393 145.983 60.8088C145.68 60.5454 145.642 60.6188 146.401 59.9886C149.071 57.7722 151.884 55.692 154.265 54.1746C154.91 53.7635 154.949 53.7266 154.865 53.6009C154.711 53.3713 153.117 51.4685 152.026 50.2116C150.808 48.8099 148.477 46.2587 148.347 46.1858C148.261 46.1379 148.244 46.1604 147.733 46.9776C146.443 49.0384 144.732 51.4207 142.825 53.8079C141.883 54.9871 140.848 56.236 140.813 56.236C140.586 56.236 132.581 48.2282 132.581 48.001C132.581 47.9037 135.493 45.5577 137.28 44.2157C138.902 42.9974 141.201 41.4314 142.33 40.7765C142.685 40.5703 142.69 40.5278 142.393 40.2526C138.979 37.0962 135.17 33.8739 135.007 34.0038ZM129.088 44.1354C129.895 45.0734 131.351 46.7157 132.081 47.5098C132.566 48.0372 132.597 47.9372 131.697 48.711C130.815 49.468 129.432 50.6925 128.748 51.321C128.19 51.8331 128.267 51.8249 127.824 51.4202C127.094 50.7536 125.385 49.2415 124.694 48.6511C123.837 47.9187 123.827 48.1154 124.768 47.0821C125.557 46.2154 126.995 44.5824 127.765 43.6791C128.277 43.0774 128.138 43.0293 129.088 44.1354ZM129.298 52.7942C130.57 53.9795 134.676 58.0762 135.815 59.2968C136.283 59.7988 136.743 60.2899 136.837 60.3882L137.007 60.567L136.668 60.9368C134.854 62.9134 131.43 66.3542 129.223 68.4175C128.684 68.9214 128.248 69.3454 128.253 69.3599C128.276 69.4216 130.519 71.4249 131.716 72.4518C132.619 73.227 132.616 73.0483 131.739 74.0116C130.879 74.9554 129.663 76.3337 128.871 77.2626C128.276 77.9613 128.247 77.9913 128.198 77.9613C128.182 77.9511 127.813 77.5288 127.38 77.0228C126.58 76.0904 125.124 74.4484 124.388 73.6504C123.895 73.1155 123.894 73.1738 124.408 72.7375C125.591 71.734 128.206 69.4044 128.206 69.3534C128.206 69.3399 127.696 68.8515 127.074 68.2682C126.451 67.6848 124.999 66.266 123.846 65.1152C121.942 63.2135 121.254 62.5063 119.897 61.0541L119.446 60.5706L119.935 60.049C122.473 57.3469 124.841 54.9781 127.635 52.3468C128.301 51.72 128.082 51.6612 129.298 52.7942ZM116.339 57.082C117.047 57.906 118.217 59.2277 118.961 60.0435C119.497 60.6323 119.474 60.5455 119.177 60.8646C118.505 61.5859 116.722 63.6015 115.981 64.4775C115.631 64.8904 115.662 64.8823 115.389 64.6326C114.229 63.5695 112.598 62.1254 111.475 61.1667C110.683 60.4908 110.648 60.6855 111.722 59.7671C112.699 58.9319 114.353 57.4651 115.118 56.7571C115.704 56.2144 115.559 56.1759 116.339 57.082ZM141.294 56.7175C142.068 57.4304 143.721 58.8955 144.692 59.7285C145.211 60.1742 145.63 60.5596 145.624 60.5849C145.617 60.6103 145.175 61.0057 144.642 61.4635C143.621 62.3396 142.432 63.3911 141.446 64.2907C140.729 64.9451 140.915 64.9886 140.032 63.9619C139.235 63.0346 138.26 61.9354 137.5 61.1047C137.242 60.8234 137.036 60.5807 137.041 60.5653C137.047 60.5499 137.405 60.1469 137.837 59.6699C138.704 58.7121 139.871 57.3853 140.419 56.7339C140.846 56.2265 140.762 56.2281 141.294 56.7175Z" fill="white"/>
<defs>
<linearGradient id="paint0_linear_1249_4766" x1="128" y1="0" x2="128" y2="144" gradientUnits="userSpaceOnUse">
<stop stop-color="#0E0520"/>
<stop offset="1" stop-color="#1B1B45"/>
</linearGradient>
<linearGradient id="paint1_linear_1249_4766" x1="128" y1="1.02857" x2="128" y2="144" gradientUnits="userSpaceOnUse">
<stop stop-color="#2F235B" stop-opacity="0"/>
<stop offset="1" stop-color="#2F235B"/>
</linearGradient>
</defs>
</svg>
