<svg width="256" height="144" viewBox="0 0 256 144" fill="none" xmlns="http://www.w3.org/2000/svg">
<rect x="0.5" y="-0.5" width="255" height="143" rx="15.5" transform="matrix(1 0 0 -1 0 143)" fill="url(#paint0_linear_1249_4781)" stroke="url(#paint1_linear_1249_4781)"/>
<g clip-path="url(#clip0_1249_4781)">
<g clip-path="url(#clip1_1249_4781)">
<g clip-path="url(#clip2_1249_4781)">
<g clip-path="url(#clip3_1249_4781)">
<path d="M119.095 80.734C117.913 80.734 116.885 80.5191 116.01 80.0893C115.135 79.6595 114.46 79.0609 113.984 78.2934C113.508 77.5259 113.27 76.6356 113.27 75.6224H115.296C115.296 76.2518 115.442 76.8305 115.734 77.3585C116.025 77.8897 116.452 78.3118 117.014 78.6249C117.573 78.9411 118.266 79.0992 119.095 79.0992C120.185 79.0992 121.029 78.8383 121.628 78.3164C122.227 77.7945 122.526 77.1421 122.526 76.3592C122.526 75.7145 122.388 75.1957 122.112 74.8028C121.835 74.4129 121.464 74.0951 120.997 73.8495C120.528 73.6039 119.99 73.389 119.385 73.2048C118.778 73.0206 118.144 72.8134 117.484 72.5831C116.24 72.1533 115.319 71.6191 114.721 70.9806C114.122 70.3451 113.823 69.5131 113.823 68.4847C113.807 67.6251 114.007 66.8606 114.421 66.1914C114.836 65.5252 115.424 65.0033 116.185 64.6257C116.943 64.2511 117.844 64.0638 118.888 64.0638C119.917 64.0638 120.812 64.2557 121.573 64.6395C122.331 65.0232 122.922 65.5528 123.346 66.2282C123.766 66.9036 123.984 67.6711 124 68.5307H121.974C121.974 68.0856 121.858 67.6435 121.628 67.2045C121.398 66.7685 121.048 66.4124 120.578 66.1361C120.112 65.8598 119.525 65.7216 118.819 65.7216C117.944 65.7063 117.227 65.9289 116.669 66.3894C116.107 66.8499 115.826 67.4869 115.826 68.3005C115.826 68.9912 116.022 69.5208 116.415 69.8892C116.805 70.2576 117.353 70.56 118.059 70.7964C118.765 71.0358 119.579 71.3091 120.5 71.6161C121.267 71.8924 121.958 72.2147 122.572 72.5831C123.186 72.9515 123.667 73.4274 124.014 74.0107C124.357 74.594 124.529 75.3385 124.529 76.2441C124.529 77.0116 124.33 77.7377 123.931 78.4223C123.532 79.1038 122.93 79.6595 122.125 80.0893C121.318 80.5191 120.308 80.734 119.095 80.734ZM131.322 80.734C129.971 80.734 128.896 80.3226 128.098 79.4999C127.3 78.6802 126.901 77.4184 126.901 75.7145V69.0373H128.835V75.5073C128.835 77.8866 129.81 79.0762 131.759 79.0762C132.757 79.0762 133.581 78.7186 134.232 78.0032C134.886 77.291 135.213 76.2748 135.213 74.9547V69.0373H137.147V80.4577H135.397L135.259 78.4085C134.906 79.1299 134.379 79.6979 133.679 80.1123C132.983 80.5268 132.197 80.734 131.322 80.734ZM141.499 66.5045C141.115 66.5045 140.796 66.3771 140.541 66.1223C140.289 65.8705 140.163 65.5528 140.163 65.169C140.163 64.8006 140.289 64.4936 140.541 64.248C140.796 64.0024 141.115 63.8796 141.499 63.8796C141.867 63.8796 142.182 64.0024 142.443 64.248C142.704 64.4936 142.834 64.8006 142.834 65.169C142.834 65.5528 142.704 65.8705 142.443 66.1223C142.182 66.3771 141.867 66.5045 141.499 66.5045ZM142.461 80.4577H140.532V69.0373H142.461V80.4577ZM150.198 80.734C148.832 80.734 147.696 80.3886 146.79 79.6979C145.884 79.0071 145.355 78.0708 145.201 76.8888H147.181C147.304 77.4875 147.623 78.0048 148.139 78.4407C148.652 78.8797 149.346 79.0992 150.221 79.0992C151.034 79.0992 151.633 78.9258 152.017 78.5789C152.4 78.235 152.592 77.8252 152.592 77.3493C152.592 76.6586 152.344 76.1981 151.846 75.9678C151.346 75.7376 150.643 75.5303 149.737 75.3461C149.123 75.2233 148.509 75.0468 147.895 74.8166C147.281 74.5863 146.767 74.2594 146.353 73.8357C145.938 73.4151 145.731 72.8594 145.731 72.1687C145.731 71.1709 146.104 70.3528 146.85 69.7142C147.593 69.0787 148.601 68.761 149.875 68.761C151.088 68.761 152.083 69.0634 152.859 69.6682C153.633 70.276 154.081 71.1402 154.204 72.2608H152.293C152.216 71.6775 151.968 71.22 151.547 70.8885C151.123 70.56 150.558 70.3957 149.852 70.3957C149.162 70.3957 148.629 70.5416 148.254 70.8332C147.877 71.1249 147.688 71.5086 147.688 71.9845C147.688 72.445 147.93 72.8057 148.416 73.0667C148.898 73.3276 149.553 73.5502 150.382 73.7344C151.088 73.8879 151.76 74.0752 152.399 74.2962C153.034 74.5203 153.556 74.8503 153.965 75.2863C154.37 75.7253 154.572 76.3592 154.572 77.1882C154.588 78.2166 154.201 79.0639 153.412 79.7301C152.62 80.3994 151.549 80.734 150.198 80.734ZM163.092 80.4577H161.342C160.298 80.4577 159.477 80.2044 158.878 79.6979C158.28 79.1913 157.98 78.278 157.98 76.9579V70.672H156V69.0373H157.98L158.233 66.2973H159.914V69.0373H163.276V70.672H159.914V76.9579C159.914 77.6794 160.06 78.1675 160.352 78.4223C160.643 78.674 161.158 78.7999 161.894 78.7999H163.092V80.4577ZM169.539 80.734C168.587 80.734 167.797 80.5728 167.167 80.2505C166.538 79.9281 166.07 79.4983 165.763 78.9611C165.456 78.4238 165.302 77.8405 165.302 77.2112C165.302 76.0446 165.747 75.1466 166.638 74.5172C167.528 73.8879 168.741 73.5732 170.276 73.5732H173.361V73.4351C173.361 72.4373 173.1 71.6805 172.578 71.1648C172.056 70.6521 171.358 70.3957 170.483 70.3957C169.731 70.3957 169.081 70.583 168.535 70.9576C167.992 71.3352 167.651 71.8847 167.513 72.6062H165.532C165.609 71.7773 165.889 71.0788 166.371 70.5109C166.856 69.9429 167.459 69.5085 168.18 69.2076C168.902 68.9099 169.669 68.761 170.483 68.761C172.079 68.761 173.28 69.1862 174.084 70.0366C174.891 70.89 175.295 72.0229 175.295 73.4351V80.4577H173.568L173.453 78.4085C173.131 79.0532 172.658 79.6012 172.035 80.0525C171.415 80.5068 170.583 80.734 169.539 80.734ZM169.838 79.0992C170.575 79.0992 171.207 78.9074 171.735 78.5236C172.267 78.1399 172.67 77.641 172.947 77.027C173.223 76.413 173.361 75.7683 173.361 75.0929V75.0698H170.437C169.301 75.0698 168.498 75.2648 168.028 75.6547C167.562 76.0476 167.328 76.5358 167.328 77.1191C167.328 77.7177 167.546 78.1967 167.982 78.5558C168.421 78.9181 169.04 79.0992 169.838 79.0992ZM180.13 80.4577H178.196V69.0373H179.946L180.107 71.2246C180.46 70.4725 180.998 69.8738 181.719 69.4287C182.441 68.9835 183.331 68.761 184.39 68.761V70.7872H183.86C183.185 70.7872 182.563 70.9054 181.995 71.1418C181.427 71.3812 180.975 71.7849 180.637 72.3529C180.299 72.9208 180.13 73.7037 180.13 74.7014V80.4577ZM192.813 80.4577H191.063C190.019 80.4577 189.198 80.2044 188.599 79.6979C188 79.1913 187.701 78.278 187.701 76.9579V70.672H185.721V69.0373H187.701L187.954 66.2973H189.635V69.0373H192.997V70.672H189.635V76.9579C189.635 77.6794 189.781 78.1675 190.073 78.4223C190.364 78.674 190.878 78.7999 191.615 78.7999H192.813V80.4577Z" fill="white"/>
</g>
</g>
</g>
</g>
<path fill-rule="evenodd" clip-rule="evenodd" d="M103.628 72.3138C103.628 83.5327 94.5327 92.6275 83.3138 92.6275C72.0948 92.6275 63 83.5327 63 72.3138C63 61.0948 72.0948 52 83.3138 52C94.5327 52 103.628 61.0948 103.628 72.3138ZM85.7134 72.8728C86.4887 73.8041 87.4294 74.9341 89.2489 74.9341C91.1059 74.9341 92.0736 73.7571 92.8321 72.8155C93.5906 71.8478 94.1399 71.2724 95.1861 71.2724V69.7031C93.3291 69.7031 92.3613 70.8801 91.6028 71.8217C90.8444 72.7894 90.2951 73.3648 89.2489 73.3648C88.2027 73.3648 87.6796 72.7894 86.895 71.8217C86.8791 71.8027 86.8632 71.7836 86.8473 71.7644C86.072 70.8331 85.1313 69.7031 83.3118 69.7031C81.4548 69.7031 80.4871 70.8801 79.7286 71.8217C78.9701 72.7894 78.4208 73.3648 77.3746 73.3648C76.3284 73.3648 75.8053 72.7894 75.0207 71.8217C75.0049 71.8027 74.989 71.7836 74.973 71.7644C74.1977 70.8331 73.257 69.7031 71.4375 69.7031V71.2724C72.4837 71.2724 73.0068 71.8478 73.7914 72.8155C73.8073 72.8345 73.8232 72.8536 73.8392 72.8728C74.6145 73.8041 75.5551 74.9341 77.3746 74.9341C79.2316 74.9341 80.1994 73.7571 80.9578 72.8155C81.7163 71.8478 82.2656 71.2724 83.3118 71.2724C84.358 71.2724 84.8811 71.8478 85.6657 72.8155C85.6815 72.8345 85.6975 72.8536 85.7134 72.8728Z" fill="white"/>
<defs>
<linearGradient id="paint0_linear_1249_4781" x1="128" y1="0" x2="128" y2="144" gradientUnits="userSpaceOnUse">
<stop stop-color="#0E0520"/>
<stop offset="1" stop-color="#1B1B45"/>
</linearGradient>
<linearGradient id="paint1_linear_1249_4781" x1="128" y1="1.02857" x2="128" y2="144" gradientUnits="userSpaceOnUse">
<stop stop-color="#2F235B" stop-opacity="0"/>
<stop offset="1" stop-color="#2F235B"/>
</linearGradient>
<clipPath id="clip0_1249_4781">
<rect width="79.736" height="16.8544" fill="white" transform="translate(113.265 63.8796)"/>
</clipPath>
<clipPath id="clip1_1249_4781">
<rect width="79.736" height="16.8544" fill="white" transform="translate(113.265 63.8796)"/>
</clipPath>
<clipPath id="clip2_1249_4781">
<rect width="79.736" height="16.8544" fill="white" transform="translate(113.265 63.8796)"/>
</clipPath>
<clipPath id="clip3_1249_4781">
<rect width="79.736" height="16.8544" fill="white" transform="translate(113.265 63.8796)"/>
</clipPath>
</defs>
</svg>
