<svg width="256" height="144" viewBox="0 0 256 144" fill="none" xmlns="http://www.w3.org/2000/svg">
<rect x="0.5" y="-0.5" width="255" height="143" rx="15.5" transform="matrix(1 0 0 -1 0 143)" fill="url(#paint0_linear_1249_4660)" stroke="url(#paint1_linear_1249_4660)"/>
<path d="M151.829 56C152.004 56.0493 152.182 56.0897 152.352 56.1495C152.639 56.2496 152.846 56.4463 152.853 56.7563C152.861 57.093 152.849 57.4586 152.531 57.6752C146.4 61.8521 140.287 66.0558 133.989 69.9804C132.555 70.8736 131.076 71.675 129.419 72.0788C128.871 72.2126 128.304 72.3683 127.749 72.3547C127.113 72.3395 126.471 72.1848 125.849 72.0248C124.181 71.5958 122.704 70.7503 121.257 69.8488C116.441 66.8498 111.751 63.6589 107.049 60.4853C105.704 59.5769 104.369 58.6538 103.023 57.7465C102.618 57.4743 102.569 57.0762 102.625 56.6635C102.676 56.2937 102.996 56.1647 103.321 56.0792C103.43 56.0509 103.54 56.0262 103.649 56C106.848 56 110.045 56 113.243 56C113.317 56.0205 113.391 56.0467 113.466 56.0598C114.04 56.16 114.523 56.4112 114.863 56.8979C117.056 60.0379 119.438 63.0201 122.189 65.6965C123.234 66.7129 124.242 67.7687 125.431 68.6246C126.523 69.4113 127.706 69.661 128.993 69.1947C129.71 68.9351 130.307 68.4699 130.868 67.9701C134.537 64.7042 137.752 61.0376 140.531 56.9913C140.879 56.4851 141.344 56.1914 141.933 56.0677C142.035 56.0467 142.135 56.0226 142.235 56C145.433 56 148.631 56 151.829 56Z" fill="white"/>
<path d="M123.555 60.1744C123.592 60.5977 123.611 60.9365 123.653 61.2732C123.81 62.5624 124.648 63.5374 125.903 63.8788C126.887 64.1468 127.888 64.1657 128.883 63.9716C130.209 63.7131 131.056 62.9258 131.376 61.5973C131.565 60.8153 131.563 60.0286 131.472 59.2362C131.308 57.8112 130.453 56.8251 129.056 56.4832C128.028 56.2314 126.995 56.2598 125.98 56.555C124.772 56.907 124.009 57.7115 123.725 58.9372C123.624 59.3667 123.602 59.8136 123.555 60.1744Z" fill="white"/>
<path d="M113.243 82.9021C113.319 82.9703 113.386 83.0348 113.457 83.0941C115.205 84.5553 116.955 86.0165 118.704 87.4771C118.771 87.5332 118.846 87.582 118.901 87.6481C118.948 87.7037 119.013 87.8002 118.993 87.8411C118.962 87.9035 118.87 87.9491 118.795 87.9733C118.724 87.9963 118.64 87.9848 118.561 87.9848C116.508 87.9853 114.454 87.9895 112.402 87.9769C112.229 87.9759 112.019 87.8993 111.889 87.7866C109.901 86.0673 107.925 84.335 105.941 82.611C105.804 82.4915 105.74 82.3708 105.75 82.1867C105.765 81.9082 105.763 81.6282 105.751 81.3492C105.741 81.1215 105.838 81.0339 106.058 81.035C106.775 81.0387 107.493 81.0633 108.207 81.024C108.59 81.003 108.983 80.9081 109.343 80.7733C109.725 80.6301 109.962 80.3243 109.947 79.8822C109.931 79.4521 109.679 79.1757 109.304 79.0441C108.98 78.9303 108.63 78.8432 108.289 78.8348C107.206 78.8086 106.122 78.8312 105.039 78.8191C104.807 78.8165 104.744 78.8815 104.744 79.1123C104.752 81.9135 104.749 84.7147 104.749 87.5159C104.749 87.9722 104.736 87.9859 104.281 87.9859C102.358 87.9864 100.436 87.9864 98.5141 87.9859C98.0782 87.9859 98.052 87.9591 98.052 87.5301C98.052 84.1441 98.052 80.7586 98.052 77.3726C98.052 76.985 98.0793 76.9562 98.469 76.9562C103.309 76.9556 108.15 76.9556 112.99 76.9567C113.805 76.9567 114.59 77.0888 115.297 77.5247C116.542 78.292 117.022 79.8077 116.383 80.9909C115.953 81.7871 115.231 82.2376 114.416 82.5497C114.045 82.6902 113.654 82.7799 113.243 82.9021Z" fill="white"/>
<path d="M167.746 76.9585C169.223 76.9585 170.699 76.9569 172.175 76.9585C174.927 76.9611 176.99 78.7516 177.353 81.4852C177.518 82.7224 177.441 83.9471 176.862 85.0836C175.914 86.9434 174.379 87.9446 172.292 87.9719C169.253 88.0118 166.212 88.0102 163.172 87.9735C160.536 87.942 158.464 86.0544 158.123 83.4231C157.93 81.9342 158.092 80.4955 158.954 79.2085C159.942 77.7331 161.352 77.0036 163.108 76.9658C164.653 76.9317 166.2 76.9585 167.746 76.9585ZM165.011 82.3044C165.024 82.305 165.037 82.306 165.049 82.3065C165.049 82.638 165.023 82.9721 165.055 83.3004C165.111 83.87 165.153 84.448 165.292 85.0002C165.456 85.6516 165.93 86.0534 166.61 86.0901C167.305 86.1279 168.006 86.1168 168.701 86.0702C169.356 86.0261 169.786 85.6259 170.013 85.0223C170.095 84.8041 170.17 84.5696 170.178 84.3399C170.216 83.2343 170.239 82.1277 170.246 81.0216C170.249 80.7022 170.205 80.377 170.138 80.0639C169.984 79.3464 169.589 78.9436 168.861 78.8828C168.09 78.8183 167.307 78.7978 166.536 78.8518C165.685 78.9111 165.235 79.3863 165.14 80.2453C165.063 80.9277 165.052 81.6174 165.011 82.3044Z" fill="white"/>
<path d="M186.873 86.0381C186.296 85.6804 185.72 85.3222 185.142 84.9661C183.769 84.1185 182.394 83.273 181.021 82.4244C180.351 82.0101 179.704 81.5643 179.196 80.9501C178.789 80.4571 178.524 79.9148 178.618 79.2472C178.679 78.8066 178.907 78.4652 179.23 78.1841C179.978 77.5332 180.874 77.2038 181.839 77.0669C182.364 76.9925 182.899 76.9631 183.43 76.9615C186.758 76.9526 190.086 76.9568 193.414 76.9568C193.885 76.9568 193.885 76.9568 193.886 77.4393C193.886 77.7797 193.887 78.1196 193.885 78.4599C193.884 78.7909 193.856 78.8213 193.528 78.8218C192.393 78.8234 191.257 78.8224 190.122 78.8224C188.864 78.8224 187.606 78.8224 186.348 78.8224C186.257 78.8224 186.164 78.8224 186.073 78.8224C186.067 78.8402 186.061 78.858 186.055 78.8764C186.137 78.9325 186.217 78.9923 186.302 79.0447C188.216 80.2458 190.131 81.4447 192.044 82.6479C192.785 83.1136 193.509 83.6066 194.092 84.2659C194.348 84.5559 194.581 84.8858 194.744 85.2351C195.033 85.8571 194.865 86.4362 194.332 86.8725C193.89 87.2344 193.362 87.419 192.821 87.5638C191.649 87.8774 190.45 87.9792 189.243 87.9813C186.02 87.987 182.797 87.9834 179.573 87.9834C179.126 87.9834 179.106 87.9613 179.106 87.5082C179.106 87.1505 179.116 86.7923 179.102 86.4351C179.093 86.1907 179.201 86.1073 179.429 86.112C179.743 86.1183 180.058 86.1131 180.373 86.1126C182.443 86.1126 184.513 86.1126 186.583 86.1126C186.675 86.1126 186.767 86.1126 186.859 86.1126C186.862 86.0884 186.868 86.0633 186.873 86.0381Z" fill="white"/>
<path d="M147.085 87.9814C145.67 87.9814 144.255 87.962 142.84 87.9851C139.48 88.0401 137.786 85.4518 137.571 83.2726C137.54 82.9611 137.52 82.6469 137.519 82.3338C137.514 80.6676 137.516 79.0013 137.516 77.3345C137.516 76.9753 137.539 76.9517 137.907 76.9512C139.942 76.9501 141.977 76.9501 144.013 76.9512C144.373 76.9512 144.397 76.9779 144.399 77.3408C144.408 79.5132 144.407 81.6856 144.436 83.8574C144.441 84.2513 144.526 84.6567 144.648 85.0333C144.878 85.7408 145.381 86.1006 146.124 86.1053C147.95 86.1174 149.776 86.12 151.601 86.1053C152.555 86.0975 153.266 85.5426 153.549 84.502C153.732 83.8281 153.843 83.1169 153.861 82.4188C153.906 80.7185 153.878 79.0165 153.879 77.3151C153.88 76.9842 153.909 76.9527 154.235 76.9517C154.933 76.9496 155.633 76.9553 156.331 76.9485C156.557 76.9464 156.667 77.0167 156.665 77.2632C156.654 79.1477 156.727 81.0363 156.625 82.9155C156.506 85.1031 155.461 86.7546 153.383 87.6415C152.757 87.9085 152.085 87.9788 151.409 87.9803C149.968 87.9835 148.526 87.9814 147.085 87.9814Z" fill="white"/>
<path d="M77.3258 84.1059C77.725 83.7576 78.1126 83.4214 78.498 83.0832C80.7486 81.1085 83.0001 79.1349 85.2465 77.1555C85.4222 77.0008 85.6 76.9279 85.8344 76.9342C86.3059 76.9478 86.7779 76.9321 87.2494 76.9447C87.359 76.9478 87.4666 77.0166 87.5751 77.0554C87.5127 77.1513 87.4676 77.2673 87.3847 77.3402C84.465 79.9022 81.5421 82.4606 78.6192 85.0195C77.5813 85.9279 76.5418 86.8342 75.5085 87.7484C75.3481 87.89 75.1834 87.9639 74.9683 87.9602C74.4444 87.9519 73.9199 87.9697 73.3965 87.9498C73.246 87.944 73.0666 87.8805 72.9549 87.7819C69.0213 84.2973 65.0935 80.8064 61.1678 77.3129C61.096 77.2489 61.0551 77.1492 61 77.0664C61.1065 77.0244 61.2124 76.9468 61.3194 76.9458C62.6731 76.9368 64.0273 76.9389 65.3809 76.9384C66.4813 76.9379 67.5822 76.9437 68.6825 76.9342C68.9322 76.9321 69.1252 76.9945 69.3187 77.1629C71.8855 79.3992 74.4601 81.6267 77.0327 83.8562C77.1234 83.9354 77.2162 84.013 77.3258 84.1059Z" fill="white"/>
<path d="M124.152 78.825C124.001 78.825 123.897 78.825 123.793 78.825C122.36 78.825 120.928 78.8256 119.495 78.8245C119.118 78.8245 119.089 78.7946 119.089 78.4254C119.088 78.0326 119.092 77.6402 119.088 77.2474C119.086 77.0513 119.171 76.9537 119.369 76.9569C119.447 76.9579 119.526 76.9558 119.605 76.9558C124.917 76.9558 130.228 76.9558 135.54 76.9558C135.628 76.9558 135.715 76.9563 135.802 76.9579C135.971 76.9611 136.056 77.0371 136.054 77.216C136.049 77.6607 136.047 78.106 136.055 78.5507C136.059 78.7448 135.969 78.8208 135.79 78.8229C135.711 78.824 135.633 78.8245 135.554 78.8245C134.104 78.8245 132.654 78.8245 131.204 78.8245C131.1 78.8245 130.997 78.8245 130.851 78.8245C130.851 78.9541 130.851 79.0632 130.851 79.1722C130.851 81.9645 130.851 84.7563 130.851 87.5486C130.851 87.9462 130.815 87.9845 130.421 87.985C128.473 87.986 126.525 87.986 124.576 87.985C124.175 87.985 124.154 87.9614 124.153 87.5502C124.153 84.7668 124.153 81.9834 124.153 79.2C124.152 79.0888 124.152 78.9777 124.152 78.825Z" fill="white"/>
<path d="M95.4161 82.4701C95.4161 84.1883 95.4161 85.907 95.4161 87.6252C95.4161 87.9457 95.382 87.9839 95.0557 87.9845C93.0732 87.986 91.0907 87.9866 89.1082 87.9845C88.7752 87.9839 88.7259 87.9304 88.7259 87.6068C88.7253 84.1789 88.7253 80.7509 88.7259 77.3229C88.7259 77.003 88.7678 76.9595 89.0872 76.9595C91.087 76.9584 93.0874 76.9616 95.0872 76.9558C95.3327 76.9553 95.4229 77.0329 95.4218 77.2894C95.4113 79.0159 95.4161 80.743 95.4161 82.4701Z" fill="white"/>
<path d="M123.555 60.1744C123.602 59.8141 123.624 59.3667 123.724 58.9372C124.008 57.7115 124.771 56.907 125.98 56.555C126.994 56.2598 128.027 56.2314 129.056 56.4832C130.453 56.8251 131.307 57.8117 131.472 59.2362C131.563 60.0286 131.564 60.8159 131.376 61.5973C131.055 62.9258 130.209 63.7131 128.883 63.9716C127.888 64.1657 126.887 64.1468 125.902 63.8788C124.647 63.5374 123.81 62.5624 123.652 61.2732C123.611 60.9365 123.591 60.5972 123.555 60.1744Z" fill="white"/>
<defs>
<linearGradient id="paint0_linear_1249_4660" x1="128" y1="0" x2="128" y2="144" gradientUnits="userSpaceOnUse">
<stop stop-color="#0E0520"/>
<stop offset="1" stop-color="#1B1B45"/>
</linearGradient>
<linearGradient id="paint1_linear_1249_4660" x1="128" y1="1.02857" x2="128" y2="144" gradientUnits="userSpaceOnUse">
<stop stop-color="#2F235B" stop-opacity="0"/>
<stop offset="1" stop-color="#2F235B"/>
</linearGradient>
</defs>
</svg>
