<svg width="256" height="144" viewBox="0 0 256 144" fill="none" xmlns="http://www.w3.org/2000/svg">
<rect x="0.5" y="-0.5" width="255" height="143" rx="15.5" transform="matrix(1 0 0 -1 0 143)" fill="url(#paint0_linear_1249_4745)" stroke="url(#paint1_linear_1249_4745)"/>
<path d="M110.656 38.925H139.456C141.795 38.925 143.691 40.8462 143.691 43.2161V76.5507C143.691 78.9206 141.795 80.8415 139.456 80.8415H110.656C108.317 80.8415 106.42 78.9206 106.42 76.5507V43.2161C106.42 40.8462 108.317 38.925 110.656 38.925Z" fill="white" fill-opacity="0.5"/>
<path d="M111.231 39.2496L131.541 48.8237C132.736 49.387 133.5 50.601 133.5 51.9361V86.4793C133.5 88.9632 130.976 90.6246 128.736 89.6161L108.426 80.4746C107.202 79.9237 106.413 78.6941 106.413 77.3374V42.3619C106.413 39.8521 108.985 38.1907 111.231 39.2496Z" fill="white"/>
<path d="M149.987 27L150.411 28.1441C151.41 30.8395 153.539 32.9646 156.239 33.962L157.385 34.3854L156.239 34.8087C153.539 35.8061 151.41 37.9312 150.411 40.6266L149.987 41.7707L149.563 40.6266C148.564 37.9312 146.435 35.8061 143.735 34.8087L142.589 34.3854L143.735 33.962C146.435 32.9646 148.564 30.8395 149.563 28.1441L149.987 27Z" fill="white"/>
<path fill-rule="evenodd" clip-rule="evenodd" d="M131.687 114.507C131.722 114.887 131.886 115.233 132.181 115.545C132.475 115.839 132.623 116.072 132.623 116.245V116.349C132.623 116.591 132.441 116.712 132.077 116.712H128.256C127.892 116.712 127.71 116.591 127.71 116.349V116.245C127.71 116.09 127.866 115.865 128.178 115.571C128.507 115.259 128.663 114.913 128.646 114.533L128.386 109.396C128.265 106.628 127.355 105.244 125.657 105.244C124.842 105.244 124.184 105.547 123.681 106.152C123.179 106.74 122.928 107.51 122.928 108.461V114.559C122.928 114.922 123.101 115.259 123.447 115.571C123.811 115.865 123.993 116.09 123.993 116.245V116.323C123.993 116.583 123.803 116.712 123.421 116.712H119.393C119.029 116.712 118.847 116.583 118.847 116.323V116.245C118.847 116.09 118.934 115.943 119.107 115.804C119.28 115.648 119.453 115.475 119.627 115.285C119.8 115.095 119.887 114.853 119.887 114.559V100.781C119.887 100.47 119.791 100.21 119.601 100.003C119.427 99.7951 119.246 99.6308 119.055 99.5097C118.882 99.3713 118.795 99.2328 118.795 99.0946V99.0167C118.795 98.7919 118.942 98.6103 119.237 98.4718L122.018 97.2523C122.572 97.0101 122.85 97.1486 122.85 97.6674L122.824 105.737C123.655 104.578 124.868 103.999 126.463 103.999C127.797 103.999 128.923 104.448 129.842 105.348C130.76 106.247 131.271 107.622 131.375 109.473L131.687 114.507ZM96.0005 110.54C95.9816 108.925 96.4635 107.487 97.5296 106.262C98.7351 104.88 100.259 104.18 102.111 104.138C103.115 104.115 104.068 104.265 104.959 104.739C106.104 105.349 106.825 106.255 107.017 107.558C107.174 108.628 106.655 109.46 105.61 109.76C105.342 109.837 105.073 109.913 104.805 109.989C104.038 110.204 103.27 110.419 102.516 110.672C101.583 110.981 100.752 111.535 100.109 112.274C99.9086 112.505 99.8684 112.752 99.9974 113.028C100.339 113.749 100.946 114.185 101.645 114.505C103.212 115.228 105.225 114.762 106.266 113.444C106.354 113.332 106.429 113.211 106.504 113.089C106.534 113.041 106.564 112.992 106.595 112.944C106.743 112.713 106.992 112.64 107.238 112.756C107.411 112.838 107.49 113.016 107.445 113.224C107.151 114.611 106.303 115.583 105.102 116.282C104.239 116.785 103.303 116.996 102.301 117.003C101.244 117.009 100.236 116.837 99.2977 116.343C97.7514 115.528 96.795 114.242 96.2895 112.603C96.1895 112.265 96.1167 111.92 96.0717 111.571C96.0386 111.334 96.0276 111.093 96.0166 110.853C96.0119 110.748 96.0071 110.644 96.0005 110.54ZM99.5387 111.606L99.5388 111.606C99.588 111.553 99.63 111.508 99.6731 111.464C100.212 110.912 100.801 110.417 101.492 110.072C101.977 109.828 102.481 109.621 102.985 109.413H102.985L102.986 109.413C103.13 109.354 103.274 109.295 103.418 109.234C103.949 109.013 104.203 108.578 104.158 108.005C104.101 107.284 103.848 106.65 103.428 106.058C102.519 104.775 100.73 104.782 99.8776 106.098C99.5051 106.673 99.2776 107.31 99.1511 107.981C98.9401 109.103 99.13 110.195 99.3273 111.33C99.3517 111.47 99.3763 111.611 99.4002 111.753C99.454 111.697 99.4989 111.649 99.5387 111.606ZM150.279 116.037C151.285 116.642 152.593 116.945 154.204 116.945C155.851 116.945 157.167 116.608 158.155 115.933C159.16 115.241 159.663 114.376 159.663 113.338C159.663 112.387 159.403 111.626 158.883 111.055C158.363 110.484 157.731 110.086 156.985 109.861C156.24 109.637 155.495 109.438 154.75 109.265C154.022 109.074 153.399 108.797 152.879 108.434C152.359 108.071 152.099 107.57 152.099 106.929C152.099 106.359 152.307 105.883 152.723 105.502C153.139 105.122 153.659 104.931 154.282 104.931C154.785 104.931 155.201 105.044 155.53 105.269C155.876 105.494 156.128 105.77 156.283 106.099C156.457 106.411 156.613 106.731 156.752 107.059C156.907 107.371 157.089 107.639 157.297 107.864C157.523 108.088 157.8 108.201 158.129 108.201C158.475 108.201 158.762 108.097 158.987 107.889C159.212 107.682 159.325 107.414 159.325 107.085C159.325 106.289 158.839 105.58 157.869 104.958C156.916 104.317 155.669 103.998 154.126 103.998C152.636 103.998 151.415 104.352 150.461 105.061C149.508 105.753 149.032 106.627 149.032 107.682C149.032 108.633 149.292 109.403 149.812 109.991C150.331 110.562 150.964 110.96 151.709 111.185C152.454 111.409 153.191 111.608 153.918 111.781C154.663 111.954 155.296 112.223 155.816 112.586C156.336 112.932 156.595 113.425 156.595 114.065C156.595 114.705 156.37 115.198 155.92 115.544C155.487 115.89 154.915 116.063 154.204 116.063C153.65 116.063 153.182 115.95 152.801 115.725C152.437 115.501 152.16 115.232 151.969 114.921C151.796 114.592 151.64 114.264 151.501 113.935C151.362 113.606 151.172 113.33 150.93 113.105C150.704 112.88 150.418 112.767 150.072 112.767C149.673 112.767 149.353 112.871 149.11 113.079C148.885 113.286 148.772 113.581 148.772 113.961C148.772 114.722 149.275 115.414 150.279 116.037ZM140.967 116.971C138.835 116.971 137.129 116.322 135.846 115.025C134.564 113.727 133.923 112.171 133.923 110.354C133.923 108.538 134.547 107.025 135.794 105.814C137.042 104.603 138.567 103.998 140.369 103.998C142.379 103.998 144.025 104.637 145.307 105.918C146.589 107.18 147.23 108.729 147.23 110.562C147.23 112.378 146.65 113.9 145.489 115.129C144.328 116.357 142.821 116.971 140.967 116.971ZM141.356 115.985C142.188 115.985 142.864 115.604 143.384 114.843C143.904 114.065 144.164 112.992 144.164 111.626C144.164 109.792 143.765 108.227 142.968 106.929C142.188 105.632 141.209 104.983 140.031 104.983C139.095 104.983 138.35 105.364 137.796 106.125C137.259 106.869 136.99 107.942 136.99 109.342C136.99 111.038 137.397 112.568 138.211 113.935C139.043 115.302 140.091 115.985 141.356 115.985ZM111.491 115.911C112.149 116.62 113.042 116.974 114.168 116.974C115.277 116.974 116.161 116.628 116.819 115.936C117.495 115.245 117.833 114.432 117.833 113.498C117.833 113.342 117.772 113.229 117.651 113.16C117.547 113.091 117.426 113.074 117.287 113.108C117.148 113.143 117.044 113.229 116.975 113.368C116.784 114.267 116.169 114.717 115.13 114.717C114.696 114.717 114.341 114.553 114.064 114.224C113.787 113.878 113.648 113.402 113.648 112.797V105.532H116.923C117.235 105.532 117.391 105.385 117.391 105.091V104.727C117.391 104.589 117.348 104.477 117.261 104.39C117.174 104.304 117.062 104.26 116.923 104.26H113.648L113.622 101.744C113.622 101.363 113.457 101.173 113.128 101.173H112.738C112.444 101.173 112.271 101.363 112.219 101.744C112.115 102.522 111.855 103.136 111.439 103.586C111.04 104.036 110.512 104.26 109.853 104.26H109.048C108.753 104.26 108.606 104.416 108.606 104.727V105.091C108.606 105.385 108.753 105.532 109.048 105.532H110.529V112.771C110.529 114.138 110.85 115.184 111.491 115.911Z" fill="white"/>
<defs>
<linearGradient id="paint0_linear_1249_4745" x1="128" y1="0" x2="128" y2="144" gradientUnits="userSpaceOnUse">
<stop stop-color="#0E0520"/>
<stop offset="1" stop-color="#1B1B45"/>
</linearGradient>
<linearGradient id="paint1_linear_1249_4745" x1="128" y1="1.02857" x2="128" y2="144" gradientUnits="userSpaceOnUse">
<stop stop-color="#2F235B" stop-opacity="0"/>
<stop offset="1" stop-color="#2F235B"/>
</linearGradient>
</defs>
</svg>
