<svg width="256" height="144" viewBox="0 0 256 144" fill="none" xmlns="http://www.w3.org/2000/svg">
<rect x="0.5" y="-0.5" width="255" height="143" rx="15.5" transform="matrix(1 0 0 -1 0 143)" fill="url(#paint0_linear_1249_4757)" stroke="url(#paint1_linear_1249_4757)"/>
<path d="M145.716 52.175C146.327 55.0518 146.926 57.882 147.546 60.8112C148.074 60.1605 148.642 59.5739 149.077 58.8998C150.142 57.2468 151.41 55.7783 152.916 54.537C153.827 53.7872 154.817 53.1307 155.799 52.4761C157.494 51.3456 159.085 50.0519 161.207 49.7042C163.782 49.2807 166.275 49.4555 169 50.2481C166.35 50.9279 164.387 52.3032 162.521 53.8572C162.376 53.9776 162.172 54.0223 162.014 54.1291C161.115 54.7352 160.433 55.384 160.524 56.6776C160.77 60.1935 160.294 63.688 159.333 67.033C158.22 70.9082 156.048 74.0472 151.959 75.4244C150.121 76.0421 148.359 76.8929 146.585 77.6894C146.365 77.7884 146.173 78.1827 146.148 78.4566C145.876 81.6229 145.196 84.7017 144.191 87.7067C144 88.2778 143.733 88.845 143.394 89.3383C142.036 91.3197 140.611 93.2544 139.257 95.2376C137.313 98.0834 135.11 100.708 132.656 103.112C131.512 104.233 130.33 105.348 128.785 105.878C128.299 106.046 127.652 106.042 127.173 105.863C125.264 105.152 123.808 103.757 122.46 102.293C120.698 100.377 118.951 98.4311 117.377 96.3584C115.617 94.043 113.891 91.6693 112.462 89.1402C111.148 86.817 110.538 84.1733 110.239 81.4869C110.126 80.4613 109.989 79.4337 109.762 78.4294C109.688 78.105 109.349 77.7301 109.039 77.5903C106.711 76.5375 104.342 75.5818 102.023 74.5076C100.472 73.7908 99.365 72.5185 98.4386 71.1044C96.8516 68.6763 96.189 65.9063 95.8057 63.0936C95.5072 60.8928 95.4475 58.6512 95.4051 56.4251C95.3878 55.5801 95.1239 54.9838 94.4922 54.5448C92.8127 53.3774 91.1371 52.2002 89.4017 51.1202C88.7469 50.7123 87.9341 50.5608 87 50.2228C87.7627 50.0402 88.3906 49.8615 89.03 49.745C91.8632 49.2224 94.6867 49.2419 97.283 50.6113C98.8546 51.4407 100.266 52.5887 101.726 53.628C102.581 54.236 103.477 54.8284 104.201 55.5763C105.153 56.5572 105.967 57.6741 106.817 58.7541C107.36 59.4476 107.859 60.178 108.383 60.9025C109.003 57.9636 109.604 55.114 110.197 52.2954C116.195 52.4295 119.392 49.7391 119.532 43.3115C122.042 42.4704 124.605 41.9537 127.308 42.1771C128.769 42.2975 130.256 42.1208 131.712 42.2684C133.072 42.4063 134.405 42.7967 135.751 43.0706C136.319 43.1852 136.464 43.5213 136.483 44.0963C136.545 45.9164 136.853 47.719 137.953 49.2069C139.661 51.5184 142.101 52.3149 144.871 52.2702C145.123 52.2624 145.372 52.2138 145.716 52.175ZM125.961 82.7165C125.859 82.9107 125.744 83.0545 125.707 83.2137C125.453 84.2996 125.819 84.7405 126.919 84.7289C127.687 84.7211 128.465 84.6706 129.224 84.758C130.037 84.8512 130.268 84.4589 130.235 83.7693C130.218 83.4177 130.118 83.07 130.002 82.4212C130.511 82.8563 131.079 83.1088 131.131 83.4429C131.212 83.9674 130.944 84.5463 130.788 85.263C131.863 84.3015 132.907 83.3691 134.17 82.2386C132.558 81.347 131.192 80.5254 129.765 79.8338C129.182 79.5502 128.442 79.3696 127.812 79.4492C125.796 79.7018 124.105 80.7759 122.485 81.9356C122.325 82.0502 122.238 82.6038 122.35 82.7126C123.267 83.6022 124.238 84.4336 125.193 85.2825C125.245 85.2203 125.299 85.1581 125.351 85.0979C124.33 83.5614 124.438 83.0875 125.961 82.7165ZM109.01 64.8943C109.727 64.8943 110.418 64.7972 111.073 64.9118C112.936 65.2381 114.259 66.456 115.499 67.7925C116.942 69.3464 118.305 70.982 120.314 71.8794C121.838 72.5612 123.373 72.8196 124.971 72.2699C125.915 71.9455 126.345 71.1024 125.996 70.5294C125.593 70.7606 125.191 71.1898 124.804 71.1724C123.866 71.1335 122.88 71.0344 122.015 70.6965C120.056 69.9292 118.7 68.3228 117.381 66.7707C116.179 65.3566 114.825 64.1853 113.207 63.3306C111.133 62.2331 109.342 63.0101 109.01 64.8943ZM147.001 65.1915C146.398 62.4895 144.432 62.4895 142.695 63.3461C140.401 64.4767 138.889 66.4871 137.178 68.2897C135.896 69.6417 134.465 70.7955 132.525 71.1393C131.497 71.32 130.599 71.2753 129.775 70.4245C129.765 70.8635 129.804 71.2093 129.979 71.454C130.526 72.2096 131.318 72.4932 132.227 72.5535C134.37 72.6991 136.196 71.8755 137.745 70.5139C139.214 69.2221 140.443 67.6507 141.932 66.3881C143.334 65.2012 144.94 64.2591 147.001 65.1915ZM146.791 69.733C146.814 69.6164 146.837 69.4979 146.859 69.3814C146.183 69.2377 145.51 69.0415 144.827 68.9813C144.611 68.9618 144.291 69.2687 144.143 69.5057C143.532 70.4808 143.047 71.5453 142.363 72.4622C141.818 73.1945 141.131 73.8821 140.372 74.3813C137.997 75.9508 135.464 75.7372 132.914 74.7892C132.985 75.7391 133.44 76.0421 134.985 76.3801C135.381 76.8521 135.832 77.4718 136.331 77.5145C136.928 77.565 137.567 77.126 138.288 76.8619C139.478 79.1948 139.636 81.8424 140.516 84.3015C140.682 81.45 140.847 78.6004 141.015 75.7216C143.149 74.9738 144.457 73.175 144.237 71.2326C145.089 70.7334 145.94 70.2322 146.791 69.733ZM114.904 75.7372C115.106 78.68 115.301 81.4966 115.515 84.6123C116.22 81.8132 116.549 79.1967 117.668 76.8521C118.394 77.1319 119.018 77.5981 119.571 77.5242C120.108 77.4524 120.572 76.825 121.069 76.4423C122.437 76.114 123.063 75.675 122.964 74.9291C121.776 75.1369 120.588 75.4477 119.386 75.5274C117.685 75.64 116.094 75.0087 114.962 73.8083C113.774 72.5496 112.907 70.9859 111.886 69.5659C111.732 69.3523 111.535 69.0842 111.31 69.022C110.455 68.7851 109.704 69.0046 109.07 69.6864C110.027 70.2497 110.925 70.7761 111.809 71.2967C111.331 72.975 112.726 74.9038 114.904 75.7372ZM129.062 97.5317C129.141 97.5084 129.222 97.487 129.301 97.4637C129.008 95.4532 129.877 93.3204 128.694 91.5159C128.167 91.5159 127.776 91.5159 127.263 91.5159C126.015 93.3476 126.917 95.4727 126.641 97.489C126.728 97.5103 126.816 97.5336 126.903 97.555C127.252 96.9703 127.6 96.3856 127.966 95.7718C128.363 96.407 128.712 96.9703 129.062 97.5317ZM131.68 96.881C131.761 96.8577 131.841 96.8343 131.922 96.811C132.055 94.8958 132.182 92.9805 132.327 91.0672C132.377 90.4048 132.163 89.9619 131.449 90.0182C130.83 90.0668 130.179 90.2027 130.276 91.071C130.403 92.219 130.493 93.3826 130.747 94.5034C130.934 95.3231 131.36 96.0904 131.68 96.881ZM124.06 97.0849C125.251 94.9871 125.684 92.9747 125.657 90.8515C125.647 90.0745 124.985 90.0687 124.467 90.0182C123.833 89.9561 123.612 90.4456 123.639 90.9603C123.746 92.9125 123.904 94.8608 124.06 97.0849ZM133.219 88.6527C133.161 89.4568 133.078 90.2591 133.049 91.0633C133.005 92.289 132.951 93.5166 133.005 94.7384C133.02 95.1094 133.376 95.4649 133.577 95.8281C133.794 95.5135 134.153 95.2201 134.205 94.8783C134.534 92.7085 134.251 90.6145 133.219 88.6527ZM122.466 95.9971C122.652 95.529 122.922 95.1541 122.93 94.7753C122.972 92.728 122.949 90.6767 122.949 88.6274C122.855 88.6274 122.76 88.6293 122.666 88.6293C121.406 90.599 121.21 94.583 122.466 95.9971ZM119.629 74.5018C117.489 72.8371 115.551 71.3278 113.479 69.7155C114.118 72.2776 116.857 74.4454 119.629 74.5018ZM136.4 74.4396C138.977 74.9738 141.68 71.9377 142.513 69.6786C140.385 71.3355 138.459 72.8351 136.4 74.4396ZM139.049 63.8881C139.012 63.7677 138.975 63.6492 138.939 63.5287C136.24 64.1445 133.54 64.7583 130.842 65.3741C130.869 65.4906 130.894 65.6072 130.921 65.7237C133.631 65.1118 136.341 64.5 139.049 63.8881ZM125.041 65.7393C125.068 65.6169 125.095 65.4965 125.123 65.3741C122.423 64.7622 119.723 64.1523 117.025 63.5404C116.998 63.6569 116.971 63.7735 116.946 63.89C119.642 64.5077 122.34 65.1235 125.041 65.7393ZM124.621 75.809C126.842 74.832 129.07 74.8689 131.308 75.7566C129.603 74.2182 126.008 74.2531 124.621 75.809ZM101.106 62.7498C101.035 62.7906 100.964 62.8333 100.892 62.8741C101.372 64.0901 101.851 65.3061 102.375 66.6347C102.682 66.2288 102.89 65.9529 103.127 65.6402C102.443 64.6593 101.774 63.7036 101.106 62.7498ZM153.584 66.66C154.1 65.3139 154.565 64.0959 155.031 62.88C154.965 62.845 154.9 62.812 154.834 62.777C154.158 63.7288 153.482 64.6787 152.796 65.646C153.047 65.9685 153.257 66.2404 153.584 66.66ZM130.224 73.5092C129.315 72.5807 126.483 72.6214 125.73 73.5092C127.167 73.5092 128.731 73.5092 130.224 73.5092ZM135.364 89.6958C135.243 89.7074 135.123 89.7191 135.002 89.7327C134.842 90.1037 134.547 90.4805 134.563 90.8438C134.578 91.1662 134.938 91.4712 135.148 91.7859C135.354 91.545 135.736 91.3022 135.732 91.0652C135.724 90.6048 135.499 90.1522 135.364 89.6958ZM126.83 99.2799C127.425 99.2139 127.754 99.1653 128.086 99.1478C128.328 99.1362 128.573 99.1653 128.818 99.177C128.719 98.9011 128.654 98.6078 128.515 98.3534C128.384 98.1125 128.182 97.9124 127.962 97.6346C127.585 98.1844 127.3 98.5981 126.83 99.2799ZM120.784 89.4996C120.524 90.0435 120.255 90.3873 120.214 90.7564C120.181 91.0613 120.393 91.411 120.557 91.7062C120.584 91.7548 121.038 91.6849 121.098 91.5683C121.243 91.2866 121.358 90.9312 121.318 90.6281C121.275 90.3076 121.038 90.0124 120.784 89.4996Z" fill="white"/>
<path d="M104.422 54.3261C102.043 52.6226 99.6624 50.9132 97.1124 49.0834C97.9309 47.4537 98.7321 45.6783 99.7009 44C100.367 42.8461 101.151 41.7079 102.089 40.7735C104.3 38.5727 106.92 37.481 110.107 38.2405C112.247 38.7495 114.017 39.878 115.633 41.3194C116.532 42.1216 117.455 42.8966 118.337 43.7144C118.487 43.8543 118.568 44.1593 118.551 44.3768C118.376 46.7602 117.73 49.0251 115.477 50.144C114.098 50.8278 112.432 50.9249 110.891 51.2687C110.75 51.2998 110.5 51.2648 110.44 51.1716C109.974 50.4179 109.316 50.2139 108.561 50.5811C107.94 50.8821 107.316 51.2473 106.823 51.7194C105.962 52.543 105.198 53.4715 104.422 54.3261Z" fill="white"/>
<path d="M151.509 54.3357C150.762 53.4868 150.089 52.535 149.23 51.8124C148.526 51.2199 147.605 50.882 146.759 50.4721C146.592 50.3905 146.218 50.4119 146.141 50.5245C145.217 51.8901 143.969 51.253 142.852 51.0335C138.657 50.2079 137.753 47.469 137.36 44.6699C137.28 44.0969 137.49 43.7939 137.971 43.4442C138.813 42.8285 139.475 41.9641 140.311 41.3386C141.557 40.4062 142.801 39.3845 144.204 38.7687C146.935 37.5683 150.301 37.7528 152.826 39.9206C155.765 42.4419 157.362 45.7266 158.722 49.159C156.291 50.9033 153.886 52.6302 151.509 54.3357Z" fill="white"/>
<path d="M139.067 76.2858C139.513 76.1886 139.851 76.1148 140.232 76.0312C140.232 76.6802 140.232 77.2612 140.232 77.8402C140.168 77.8616 140.105 77.883 140.039 77.9043C139.743 77.4108 139.446 76.9153 139.067 76.2858Z" fill="white"/>
<path d="M115.681 77.848C115.648 77.2884 115.615 76.7269 115.575 76.0312C116.033 76.1187 116.39 76.1847 116.833 76.2683C116.503 76.8609 116.214 77.3778 115.928 77.8966C115.845 77.881 115.762 77.8635 115.681 77.848Z" fill="white"/>
<defs>
<linearGradient id="paint0_linear_1249_4757" x1="128" y1="0" x2="128" y2="144" gradientUnits="userSpaceOnUse">
<stop stop-color="#0E0520"/>
<stop offset="1" stop-color="#1B1B45"/>
</linearGradient>
<linearGradient id="paint1_linear_1249_4757" x1="128" y1="1.02857" x2="128" y2="144" gradientUnits="userSpaceOnUse">
<stop stop-color="#2F235B" stop-opacity="0"/>
<stop offset="1" stop-color="#2F235B"/>
</linearGradient>
</defs>
</svg>
