<svg width="256" height="144" viewBox="0 0 256 144" fill="none" xmlns="http://www.w3.org/2000/svg">
<path d="M77.219 75.5357C77.2691 75.5531 77.4184 75.5763 77.5345 75.6517C78.166 76.0621 78.5257 76.6581 78.6301 77.3941C78.6874 77.7929 78.4684 78.0256 78.0623 77.9966C77.3191 77.9437 76.7231 77.5928 76.3453 76.954C76.011 76.3877 76.5034 75.5313 77.219 75.5357Z" fill="white"/>
<path d="M80.7719 75.4946C81.3752 75.4939 81.5739 76.1081 81.5115 76.6693C81.4289 77.4096 80.5022 78.0782 79.7575 77.9904C79.4494 77.9542 79.2666 77.8033 79.2826 77.472C79.3196 76.6976 79.656 76.0856 80.3035 75.6578C80.4369 75.5693 80.6146 75.5476 80.7719 75.4946Z" fill="white"/>
<rect x="0.5" y="-0.5" width="255" height="143" rx="15.5" transform="matrix(1 0 0 -1 0 143)" fill="url(#paint0_linear_1249_4686)" stroke="url(#paint1_linear_1249_4686)"/>
<path d="M79.6558 51C80.1431 51.1813 80.4752 51.5206 80.7289 51.9709C82.3213 54.7981 83.923 57.6194 85.524 60.4415C87.6964 64.2707 89.8949 68.0862 92.0361 71.9336C93.3275 74.2539 93.7553 76.7692 93.5247 79.4129C93.3565 81.3417 92.9468 83.2016 92.1144 84.9556C90.868 87.5841 88.9073 89.5404 86.389 90.9616C84.7235 91.9013 82.9593 92.5633 81.0603 92.8505C78.6073 93.221 76.2399 92.9027 73.9805 91.8991C71.0039 90.5773 68.5676 88.6086 66.8999 85.7728C65.8434 83.976 65.3003 82.016 65.0784 79.9488C64.6847 76.2783 65.8115 73.0024 67.6032 69.8823C70.8836 64.1707 74.153 58.4533 77.4254 52.7373C77.5392 52.5387 77.6386 52.332 77.7365 52.1246C77.9757 51.6149 78.3289 51.2204 78.8589 51C79.1243 51 79.3904 51 79.6558 51ZM75.7468 78.1186C75.7163 78.1578 75.6852 78.197 75.6547 78.2361C75.4698 78.1622 75.269 78.1128 75.1029 78.0092C74.6062 77.6981 74.1124 77.6945 73.6476 78.0338C73.3293 78.2658 73.0052 78.5203 72.7681 78.8292C71.6942 80.2272 71.3338 81.8369 71.5013 83.5656C71.542 83.9869 71.7036 84.4089 71.8762 84.8019C72.0705 85.2449 72.378 85.3305 72.8319 85.147C72.9544 85.0977 73.0697 85.0296 73.1843 84.9636C74.1465 84.4176 75.1587 83.9738 76.2536 83.8165C77.2883 83.6678 78.339 83.6185 79.3846 83.5554C81.5947 83.4213 83.7968 83.4119 85.9605 84.0006C86.6066 84.1768 86.9031 83.939 86.893 83.2632C86.864 81.4084 86.2114 79.8088 84.8997 78.4834C84.0934 77.6684 83.7577 77.6075 82.7411 78.1078C82.5163 78.218 82.2915 78.289 82.1008 78.0483C82.2988 77.6749 82.5156 77.3254 82.6751 76.952C82.8542 76.5321 82.8382 76.0927 82.5765 75.7055C82.2306 75.1958 81.7673 74.81 81.1908 74.5831C80.4295 74.2836 79.9342 74.4431 79.4651 75.108C79.3404 75.285 79.2128 75.4619 79.0735 75.6279C78.9408 75.7853 78.8147 75.7766 78.7066 75.5866C78.5993 75.3981 78.4927 75.2067 78.3622 75.0355C78.0867 74.6744 77.7394 74.4489 77.2572 74.4504C75.72 74.4533 74.7418 75.9912 75.3987 77.3877C75.5119 77.6321 75.6301 77.875 75.7468 78.1186ZM78.4166 88.6427C80.1329 88.6572 81.7716 88.2831 83.3596 87.6638C84.3261 87.2868 85.2195 86.7915 85.8641 85.9439C86.2709 85.4088 86.1556 85.0499 85.4965 84.9607C84.3508 84.8055 83.2008 84.6641 82.0472 84.5901C79.2657 84.411 76.5944 84.9563 73.9957 85.9142C73.8151 85.9809 73.6339 86.0548 73.4693 86.152C73.032 86.4109 72.9515 86.764 73.296 87.1396C73.5186 87.3818 73.805 87.5884 74.1001 87.7385C75.4539 88.4281 76.9178 88.626 78.4166 88.6427ZM79.146 71.6203C79.146 71.621 79.146 71.6225 79.146 71.6232C80.8602 71.6232 82.575 71.6138 84.2892 71.6268C85.313 71.6341 86.0794 72.3759 86.0918 73.3301C86.1034 74.1959 85.2354 75.0696 84.3167 75.1196C84.1964 75.1262 84.0745 75.1262 83.9563 75.145C83.7163 75.1827 83.6373 75.3074 83.712 75.5547C83.96 76.3748 84.6278 76.7018 85.4073 76.34C86.2157 75.9651 86.7574 75.3205 87.1881 74.5519C88.101 72.9219 86.748 70.4718 84.891 70.3471C83.5677 70.2586 82.2429 70.1302 80.9189 70.131C78.5304 70.1317 76.1412 70.1977 73.7535 70.2687C71.8922 70.3246 70.4565 72.1982 70.9104 73.982C71.183 75.0522 71.9226 75.7744 72.8863 76.2638C73.586 76.6191 73.8615 76.5046 74.1987 75.7969C74.4525 75.2647 74.4083 75.1813 73.8333 75.1109C72.7891 74.9819 72.0996 74.0015 72.3417 72.9908C72.5426 72.1533 73.209 71.6276 74.1124 71.6232C75.7896 71.6145 77.4682 71.6203 79.146 71.6203Z" fill="white"/>
<path d="M112.159 73.4822C111.376 73.4822 110.653 73.4873 109.931 73.4742C109.852 73.4728 109.725 73.3793 109.704 73.3053C109.285 71.7971 107.944 71.5404 106.779 71.6405C106.304 71.6811 105.793 71.8341 105.388 72.0821C104.425 72.6694 104.452 73.8875 105.442 74.427C106.126 74.8004 106.879 75.047 107.599 75.3544C108.641 75.7989 109.71 76.1912 110.713 76.7096C111.65 77.194 112.339 77.9495 112.565 79.0401C112.945 80.8739 112.206 82.5445 110.501 83.3058C108.32 84.2796 106.089 84.3043 103.939 83.1775C102.574 82.4618 101.899 81.2451 101.737 79.7282C101.705 79.4316 101.802 79.3178 102.112 79.3287C102.69 79.349 103.271 79.3381 103.851 79.333C104.033 79.3316 104.138 79.3736 104.163 79.5846C104.299 80.7223 105.017 81.3198 106.072 81.5794C107.062 81.8223 108.038 81.7897 108.969 81.3423C109.509 81.0827 109.891 80.6846 109.926 80.0429C109.963 79.3584 109.683 78.8276 109.074 78.5318C108.382 78.1946 107.657 77.9234 106.949 77.6174C105.931 77.1773 104.894 76.7742 103.906 76.276C103.036 75.8373 102.345 75.1905 102.093 74.1812C101.642 72.3706 102.452 70.6529 104.174 69.9372C104.756 69.695 105.392 69.5275 106.019 69.4587C107.397 69.3064 108.779 69.3289 110.042 70.0192C111.381 70.75 112.021 71.9312 112.159 73.4822Z" fill="white"/>
<path d="M139.445 82.863C139.445 83.0682 139.445 83.2052 139.445 83.3415C139.445 85.0295 139.437 86.7176 139.452 88.4056C139.455 88.7326 139.368 88.8544 139.026 88.8385C138.448 88.8117 137.867 88.8218 137.289 88.8356C137.034 88.8414 136.956 88.7457 136.956 88.4977C136.961 83.53 136.961 78.5617 136.955 73.5933C136.955 73.3294 137.034 73.2242 137.306 73.2337C137.765 73.2496 138.224 73.2503 138.682 73.2329C138.93 73.2235 139.029 73.3352 139.065 73.5578C139.115 73.8761 139.175 74.1937 139.239 74.5555C139.324 74.4975 139.383 74.4779 139.41 74.4373C140.528 72.7087 142.851 72.5745 144.454 73.4708C146.043 74.3597 146.85 75.7751 147.044 77.5436C147.179 78.777 147.089 79.9952 146.557 81.1517C145.593 83.248 143.276 84.4002 141.115 83.844C140.551 83.699 140.065 83.4271 139.664 83.0036C139.626 82.9652 139.57 82.9427 139.445 82.863ZM139.419 78.5363C139.429 78.537 139.438 78.537 139.447 78.5377C139.447 78.8749 139.441 79.2128 139.449 79.55C139.47 80.4622 140.01 81.225 140.86 81.5534C142.125 82.0421 143.514 81.5019 144.19 80.2686C144.483 79.7349 144.582 79.157 144.596 78.5631C144.619 77.6241 144.443 76.733 143.802 76.0028C143.105 75.2096 142.21 74.9797 141.209 75.2342C140.252 75.4778 139.677 76.129 139.514 77.097C139.434 77.5697 139.447 78.057 139.419 78.5363Z" fill="white"/>
<path d="M123.08 81.9136C123.01 82.0209 122.939 82.1275 122.87 82.2356C122.201 83.2739 121.27 83.8779 120.015 83.846C119.419 83.8308 118.802 83.7692 118.238 83.5922C116.87 83.1637 116.123 82.1435 116.025 80.7528C115.919 79.2518 115.956 77.7407 115.939 76.2339C115.93 75.3413 115.949 74.448 115.931 73.5554C115.925 73.2415 116.045 73.1653 116.334 73.174C116.901 73.1914 117.469 73.1929 118.036 73.1733C118.337 73.1632 118.431 73.2639 118.429 73.5641C118.418 75.5306 118.423 77.4971 118.425 79.4635C118.425 79.6564 118.42 79.8515 118.449 80.0414C118.687 81.5968 120.305 82.2414 121.741 81.3444C122.553 80.8376 122.982 80.0596 123.097 79.1365C123.181 78.4578 123.173 77.7668 123.179 77.0801C123.191 75.9098 123.19 74.7395 123.177 73.5692C123.173 73.2755 123.256 73.1617 123.564 73.1726C124.155 73.1936 124.748 73.1878 125.339 73.1748C125.594 73.169 125.674 73.2632 125.673 73.5127C125.667 76.7944 125.667 80.0755 125.673 83.3573C125.674 83.6017 125.603 83.7053 125.344 83.6988C124.728 83.685 124.112 83.6872 123.496 83.6981C123.26 83.7024 123.174 83.6147 123.18 83.3805C123.192 82.9005 123.184 82.4198 123.184 81.9397C123.149 81.931 123.115 81.9223 123.08 81.9136Z" fill="white"/>
<path d="M171.298 74.9875C171.522 74.6771 171.671 74.4465 171.843 74.2348C172.504 73.4205 173.363 73.0014 174.413 72.9499C175.602 72.8919 176.671 73.1472 177.493 74.0753C178.117 74.7801 178.447 75.6342 178.491 76.5486C178.568 78.1612 178.555 79.7782 178.575 81.393C178.583 82.0564 178.57 82.7199 178.579 83.3834C178.583 83.6168 178.499 83.7053 178.263 83.701C177.66 83.6901 177.055 83.6835 176.452 83.7039C176.155 83.714 176.083 83.6009 176.084 83.3246C176.093 81.4183 176.091 79.5121 176.086 77.6058C176.086 77.3781 176.07 77.1475 176.035 76.9227C175.893 76.028 175.421 75.3986 174.508 75.2079C173.585 75.0157 172.778 75.2688 172.172 76.012C171.539 76.7886 171.358 77.7276 171.34 78.692C171.314 80.2234 171.324 81.7562 171.337 83.2884C171.34 83.5994 171.258 83.7176 170.931 83.7046C170.34 83.6806 169.747 83.6901 169.156 83.701C168.918 83.7053 168.841 83.6147 168.841 83.3826C168.846 80.1132 168.845 76.8437 168.842 73.5742C168.842 73.3524 168.899 73.2378 169.146 73.2429C169.676 73.2537 170.209 73.253 170.739 73.2429C170.955 73.2385 171.032 73.3299 171.059 73.5351C171.121 73.9868 171.206 74.4342 171.298 74.9875Z" fill="white"/>
<path d="M165.668 80.637C165.382 82.0524 164.613 83.003 163.376 83.5505C160.346 84.8919 157.063 83.1335 156.47 79.8278C156.16 78.0984 156.289 76.4053 157.353 74.9109C158.233 73.6739 159.442 73.022 160.968 72.9495C162.375 72.8821 163.595 73.27 164.529 74.3642C165.253 75.2111 165.583 76.2226 165.673 77.3161C165.704 77.7112 165.676 78.1115 165.675 78.5096C165.675 78.8025 165.557 78.9294 165.236 78.9272C163.244 78.9142 161.252 78.92 159.26 78.9214C158.795 78.9214 158.746 78.9591 158.811 79.4152C158.862 79.7712 158.931 80.1323 159.054 80.4681C159.515 81.7232 160.688 82.2917 161.972 81.9045C162.499 81.7457 162.879 81.4245 163.09 80.9039C163.132 80.7994 163.25 80.6515 163.336 80.6493C164.093 80.6283 164.851 80.637 165.668 80.637ZM161.101 77.5974C161.62 77.5974 162.14 77.5938 162.659 77.5981C163.535 77.6054 163.446 77.6112 163.328 76.8332C163.206 76.0341 162.886 75.3307 162.067 75.0277C161.265 74.7318 160.487 74.8442 159.81 75.3786C159.221 75.8441 158.966 76.5018 158.839 77.2254C158.791 77.5002 158.863 77.6039 159.144 77.5996C159.796 77.5902 160.449 77.5967 161.101 77.5974Z" fill="white"/>
<path d="M182.601 80.5532C182.722 80.5532 182.844 80.5641 182.963 80.551C183.427 80.5003 183.767 80.5481 183.916 81.1231C183.986 81.3914 184.338 81.659 184.624 81.7844C185.411 82.1296 186.238 82.1513 187.055 81.8461C187.2 81.7917 187.339 81.7105 187.463 81.6169C188.128 81.1181 188.088 80.2197 187.333 79.8847C186.431 79.4844 185.476 79.2067 184.562 78.8318C183.964 78.586 183.36 78.3185 182.824 77.9624C181.336 76.972 181.292 74.6836 183.001 73.6677C183.636 73.2899 184.32 73.063 185.046 72.9926C186.106 72.8904 187.17 72.8607 188.194 73.237C189.267 73.6314 190.035 74.3232 190.288 75.4855C190.378 75.8966 190.332 75.9532 189.916 75.9546C189.385 75.9568 188.853 75.9655 188.323 75.9467C188.204 75.9423 188.02 75.8626 187.984 75.7719C187.769 75.2187 187.333 74.9533 186.793 74.9011C186.319 74.8554 185.827 74.875 185.358 74.9547C185.095 74.9997 184.825 75.1853 184.622 75.3767C184.232 75.7429 184.259 76.3121 184.676 76.6493C184.905 76.8349 185.184 76.9749 185.461 77.0822C186.429 77.4571 187.41 77.7935 188.375 78.1749C188.798 78.3424 189.219 78.544 189.594 78.7985C190.861 79.6555 191.065 81.1957 190.093 82.3841C189.405 83.2267 188.492 83.6994 187.438 83.8785C186.068 84.1105 184.714 84.0083 183.43 83.4471C182.354 82.9765 181.669 82.1695 181.48 80.9774C181.43 80.662 181.502 80.5228 181.84 80.5496C182.093 80.5692 182.347 80.5532 182.601 80.5532Z" fill="white"/>
<path d="M129.998 78.4298C129.998 76.8129 130.005 75.1966 129.991 73.5797C129.988 73.2671 130.072 73.1511 130.397 73.1649C130.976 73.1888 131.557 73.1787 132.136 73.1685C132.372 73.1642 132.488 73.2215 132.487 73.489C132.48 76.7831 132.48 80.0765 132.487 83.3707C132.488 83.6368 132.374 83.6962 132.137 83.6919C131.545 83.681 130.953 83.6745 130.362 83.694C130.069 83.7035 129.99 83.5983 129.992 83.317C130.003 81.6877 129.998 80.0591 129.998 78.4298Z" fill="white"/>
<path d="M150.448 78.4298C150.448 76.8129 150.455 75.1966 150.441 73.5797C150.439 73.2671 150.522 73.1511 150.848 73.1649C151.426 73.1888 152.007 73.1787 152.586 73.1685C152.822 73.1642 152.938 73.2215 152.937 73.489C152.931 76.7831 152.931 80.0765 152.937 83.3707C152.938 83.6368 152.824 83.6962 152.587 83.6919C151.995 83.681 151.403 83.6745 150.812 83.694C150.519 83.7035 150.441 83.5976 150.442 83.317C150.454 81.6877 150.448 80.0591 150.448 78.4298Z" fill="white"/>
<path d="M131.259 71.1921C130.27 71.1958 129.719 70.6947 129.712 69.7854C129.705 68.8617 130.273 68.3171 131.245 68.3157C132.223 68.3142 132.78 68.8276 132.784 69.7325C132.79 70.6838 132.262 71.1885 131.259 71.1921Z" fill="white"/>
<path d="M151.689 71.1929C150.685 71.195 150.144 70.6875 150.146 69.7463C150.148 68.853 150.724 68.3164 151.682 68.3157C152.659 68.3149 153.215 68.829 153.219 69.7361C153.223 70.686 152.693 71.1907 151.689 71.1929Z" fill="white"/>
<defs>
<linearGradient id="paint0_linear_1249_4686" x1="128" y1="0" x2="128" y2="144" gradientUnits="userSpaceOnUse">
<stop stop-color="#0E0520"/>
<stop offset="1" stop-color="#1B1B45"/>
</linearGradient>
<linearGradient id="paint1_linear_1249_4686" x1="128" y1="1.02857" x2="128" y2="144" gradientUnits="userSpaceOnUse">
<stop stop-color="#2F235B" stop-opacity="0"/>
<stop offset="1" stop-color="#2F235B"/>
</linearGradient>
</defs>
</svg>
