<svg width="256" height="144" viewBox="0 0 256 144" fill="none" xmlns="http://www.w3.org/2000/svg">
<rect x="0.5" y="-0.5" width="255" height="143" rx="15.5" transform="matrix(1 0 0 -1 0 143)" fill="url(#paint0_linear_1249_4707)" stroke="url(#paint1_linear_1249_4707)"/>
<path d="M87.995 64.7216C87.8176 64.8171 87.6724 64.8907 87.5318 64.9725C86.6441 65.4834 85.7674 66.0155 84.8649 66.498C84.4018 66.7452 84.2198 67.0595 84.2198 67.5906C84.2272 72.4428 84.2115 77.296 84.2014 82.1482C84.2014 82.2704 84.1978 82.3935 84.2005 82.5158C84.2079 82.8365 84.0976 82.9458 83.7879 82.7703C82.4315 82.0011 81.0677 81.2439 79.7141 80.4692C79.2196 80.1861 79.0156 79.7294 79.0147 79.1633C79.0138 74.3709 79.011 69.5802 79 64.7887C78.9982 64.1362 79.2886 63.6978 79.8418 63.378C82.9801 61.5658 86.1129 59.7444 89.2475 57.9257C90.2391 57.3504 91.2307 56.7742 92.2241 56.2017C92.8288 55.8534 93.1431 55.9444 93.4905 56.5666C94.9305 59.1425 96.3761 61.7147 97.795 64.3016C97.9356 64.5571 97.987 64.9182 97.9438 65.2096C97.4173 68.7302 96.864 72.2462 96.3191 75.764C96.2235 76.3825 96.1114 77 96.0452 77.6213C96.025 77.8078 96.0691 78.0817 96.1932 78.1901C97.239 79.0981 97.5036 80.244 97.3474 81.5646C97.284 82.1004 97.3373 82.6499 97.3373 83.3281C97.08 83.1719 96.9376 83.1048 96.8181 83.0093C95.7172 82.1325 94.6043 81.2687 93.53 80.3598C93.1449 80.0336 92.8977 80.0538 92.5209 80.3654C91.4375 81.2632 90.3182 82.1188 89.2117 82.9881C89.0858 83.0874 88.947 83.1692 88.7348 83.3134C88.7026 83.0626 88.6658 82.9063 88.6649 82.7501C88.6594 81.832 88.6474 80.9131 88.6741 79.995C88.6805 79.7726 88.8119 79.5502 88.9057 79.3361C88.947 79.2414 89.0279 79.1569 89.1088 79.0889C89.9607 78.3693 90.0342 77.4972 89.855 76.4321C89.2145 72.6367 88.6695 68.8257 88.086 65.0212C88.0703 64.9366 88.0354 64.8548 87.995 64.7216Z" fill="white"/>
<path d="M95.3586 57.1431C95.5985 57.2699 95.7419 57.3406 95.8797 57.4197C99.3636 59.4258 102.844 61.4375 106.332 63.4344C106.855 63.734 107.082 64.1402 107.08 64.7393C107.067 69.5594 107.064 74.3804 107.068 79.2004C107.069 79.8189 106.828 80.2333 106.283 80.5311C104.997 81.2359 103.728 81.9739 102.451 82.6962C101.935 82.9884 101.882 82.9553 101.881 82.3442C101.874 77.4323 101.862 72.5203 101.873 67.6075C101.874 67.0772 101.711 66.7197 101.225 66.5212C100.556 66.2474 100.151 65.7456 99.8056 65.1152C98.4244 62.5963 96.9963 60.1022 95.5856 57.5989C95.5204 57.4849 95.468 57.3645 95.3586 57.1431Z" fill="white"/>
<path d="M163.368 74.5452C159.98 74.5452 156.619 74.5452 153.26 74.5452C153.104 76.351 154.299 78.2156 156.435 78.3939C157.932 78.5189 159.215 78.1623 160.084 76.7931C160.248 76.533 160.635 76.2968 160.941 76.2656C161.677 76.1893 162.426 76.2408 163.21 76.2408C163.002 77.315 162.515 78.1917 161.764 78.9242C159.252 81.3705 154.799 81.0948 152.698 79.5086C151.085 78.291 150.343 76.6231 150.179 74.662C150.134 74.1308 150.183 73.5932 150.165 73.0593C150.153 72.7045 150.283 72.5942 150.645 72.5979C152.832 72.6191 155.02 72.6154 157.207 72.6191C158.229 72.6209 159.251 72.6191 160.269 72.6191C160.377 70.7094 158.656 69.036 156.723 69.1334C155.437 69.1986 154.385 69.6792 153.715 70.8408C153.656 70.9438 153.52 71.0678 153.418 71.0697C152.506 71.0871 151.593 71.0798 150.665 71.0798C151.54 68.3339 154.695 66.0851 158.702 67.062C161.751 67.8054 164.022 71.2231 163.368 74.5452Z" fill="white"/>
<path d="M132.726 78.5393C131.997 77.8491 131.31 77.2003 130.595 76.5258C131.043 75.6225 131.269 74.6667 131.237 73.6586C131.205 72.6486 130.982 71.6901 130.419 70.8327C128.94 68.5812 125.572 68.5491 124.162 70.8373C122.965 72.7819 122.991 74.8331 124.155 76.7932C125.051 78.3022 126.873 78.8894 128.571 78.2397C129.437 77.908 130.071 78.0743 130.661 78.7259C130.924 79.0162 131.227 79.2717 131.538 79.5695C130.71 80.142 129.831 80.4627 128.89 80.6318C127.434 80.8928 125.984 80.857 124.59 80.3598C122.053 79.4546 120.678 77.5927 120.322 74.9507C120.169 73.8167 120.232 72.69 120.534 71.5854C121.247 68.9838 123.462 67.1679 126.177 66.9225C127.787 66.7764 129.365 66.8765 130.823 67.6338C132.922 68.7237 134.017 70.5203 134.256 72.8343C134.448 74.6888 134.187 76.467 133.092 78.0458C132.989 78.1956 132.875 78.339 132.726 78.5393Z" fill="white"/>
<path d="M168.05 80.6868C166.969 80.6868 165.962 80.6868 164.912 80.6868C164.902 80.5426 164.884 80.4111 164.884 80.2797C164.882 77.7544 164.855 75.2299 164.892 72.7055C164.916 71.0945 165.242 69.5405 166.538 68.4286C168.031 67.1484 169.821 66.7202 171.757 66.8672C173.1 66.9692 174.317 67.4352 175.4 68.2347C176.736 69.2226 177.205 70.647 177.232 72.212C177.281 74.9809 177.248 77.7516 177.247 80.5205C177.247 80.5637 177.228 80.606 177.21 80.6813C176.649 80.6813 176.081 80.7374 175.529 80.6685C174.676 80.5619 174.15 79.8542 174.143 78.8875C174.133 77.4189 174.141 75.9495 174.141 74.4801C174.141 73.6383 174.14 72.7965 174.141 71.9547C174.143 70.4898 173.5 69.6609 172.077 69.2805C170.999 68.9928 169.981 69.1288 169.052 69.751C168.353 70.2197 168.038 70.8859 168.043 71.7415C168.061 74.526 168.05 77.3114 168.05 80.0969C168.05 80.2788 168.05 80.4589 168.05 80.6868Z" fill="white"/>
<path d="M148.478 76.5011C148.061 77.9779 147.326 79.1469 146.041 79.8361C143.693 81.096 141.241 81.1769 138.864 79.985C136.725 78.9125 135.765 76.9836 135.578 74.654C135.484 73.4887 135.551 72.3253 135.937 71.2087C136.799 68.7119 138.566 67.2856 141.169 66.9401C143.106 66.6828 144.954 66.9612 146.588 68.1311C147.556 68.8249 148.38 70.0848 148.499 71.0562C147.52 71.0562 146.548 71.0617 145.576 71.047C145.489 71.0461 145.367 70.9284 145.326 70.8356C144.363 68.7045 140.719 68.5363 139.339 70.7456C138.236 72.5091 138.376 75.606 139.62 77.2262C140.988 79.0072 144.16 78.782 145.083 77.1417C145.306 76.7465 145.694 76.5241 146.146 76.5085C146.893 76.4818 147.642 76.5011 148.478 76.5011Z" fill="white"/>
<path d="M113.379 63.1623C113.949 63.1623 114.469 63.1366 114.986 63.1678C115.845 63.2202 116.54 63.9554 116.578 64.8358C116.6 65.355 116.583 65.876 116.584 66.3962C116.584 66.5607 116.584 66.7243 116.584 66.9246C117.328 66.9246 118.012 66.9246 118.687 66.9246C119.009 68.6183 118.393 69.4261 116.614 69.6273C116.605 69.7642 116.586 69.9113 116.585 70.0583C116.583 72.3227 116.583 74.5871 116.585 76.8505C116.586 77.6803 116.839 77.9367 117.683 77.9606C118.123 77.9735 118.563 77.9625 119.033 77.9625C119.033 78.8814 119.033 79.7453 119.033 80.6633C117.615 80.6845 116.209 80.8085 114.83 80.4529C114.025 80.2452 113.578 79.6653 113.442 78.8548C113.392 78.5543 113.363 78.2464 113.363 77.9422C113.359 73.1534 113.36 68.3656 113.361 63.5768C113.361 63.4582 113.371 63.3388 113.379 63.1623Z" fill="white"/>
<path d="M93.0349 82.2168C93.1507 82.2922 93.2573 82.3491 93.3492 82.4236C94.542 83.3802 95.7284 84.3451 96.9277 85.2935C97.2557 85.5527 97.1951 85.708 96.8679 85.8936C95.6723 86.5737 94.4887 87.2739 93.2876 87.943C93.1507 88.0192 92.897 88.0183 92.7592 87.942C91.5296 87.2611 90.3165 86.5498 89.0924 85.8587C88.7763 85.6804 88.7901 85.5343 89.0566 85.3229C90.2779 84.3525 91.491 83.3729 92.7105 82.3997C92.8024 82.328 92.9172 82.283 93.0349 82.2168Z" fill="white"/>
<defs>
<linearGradient id="paint0_linear_1249_4707" x1="128" y1="0" x2="128" y2="144" gradientUnits="userSpaceOnUse">
<stop stop-color="#0E0520"/>
<stop offset="1" stop-color="#1B1B45"/>
</linearGradient>
<linearGradient id="paint1_linear_1249_4707" x1="128" y1="1.02857" x2="128" y2="144" gradientUnits="userSpaceOnUse">
<stop stop-color="#2F235B" stop-opacity="0"/>
<stop offset="1" stop-color="#2F235B"/>
</linearGradient>
</defs>
</svg>
