<svg width="256" height="144" viewBox="0 0 256 144" fill="none" xmlns="http://www.w3.org/2000/svg">
<rect x="0.5" y="-0.5" width="255" height="143" rx="15.5" transform="matrix(1 0 0 -1 0 143)" fill="url(#paint0_linear_1249_4575)" stroke="url(#paint1_linear_1249_4575)"/>
<path d="M73.0122 87.2955C75.9716 87.2999 78.7472 86.6316 81.2684 85.0537C83.5852 83.6045 85.3542 81.6517 86.5674 79.19C86.7248 78.8702 87.0034 78.5569 87.3063 78.3724C87.899 78.0099 88.6908 78.2555 89.018 78.8709C89.9202 80.5694 90.8091 82.2744 91.6745 83.9913C91.7723 84.1861 91.7657 84.5184 91.6591 84.7C91.5914 84.8147 91.2378 84.825 91.0312 84.7846C89.7224 84.528 88.4173 84.2501 87.1137 83.9648C86.8358 83.9038 86.6468 83.942 86.4439 84.1699C84.4815 86.3691 82.1242 87.9903 79.3361 88.9653C77.8502 89.4851 76.3223 89.8094 74.7503 89.9263C72.5144 90.0924 70.2998 90.0005 68.1227 89.4145C65.5956 88.7344 63.3494 87.5257 61.3921 85.7912C58.0202 82.8038 55.9585 79.068 55.2299 74.6314C54.6704 71.2235 55.1409 67.9229 56.5467 64.7576C57.5327 62.5364 58.8657 60.5556 60.6135 58.8704C63.2972 56.2822 66.4955 54.6992 70.1865 54.197C73.6974 53.7191 77.1311 54.0948 80.4052 55.497C83.6602 56.891 86.2601 59.0681 88.0431 62.1651C88.4056 62.7952 88.2916 63.4334 87.7475 63.9201C87.2813 64.3377 86.5799 64.3627 86.0593 63.9532C85.9013 63.8289 85.7689 63.6532 85.6682 63.4768C84.4947 61.4202 82.8264 59.8696 80.7824 58.7167C78.3729 57.3579 75.7694 56.7631 73.0077 56.7337C70.5601 56.7072 68.2337 57.1741 66.0514 58.2748C63.3891 59.6188 61.3421 61.6283 59.8458 64.2032C58.7099 66.1583 58.0062 68.2596 57.782 70.511C57.5268 73.0646 57.9798 75.5137 58.9577 77.871C59.79 79.8767 60.9877 81.6472 62.5398 83.1597C64.8287 85.3919 67.558 86.7603 70.7417 87.1588C71.4924 87.2543 72.2548 87.2529 73.0122 87.2955Z" fill="white"/>
<path d="M68.0716 71.4971C67.9738 71.7008 67.8613 71.8986 67.7797 72.1082C66.9804 74.1485 66.1871 76.1918 65.3893 78.2329C65.1769 78.777 64.9063 79.2644 64.3364 79.5394C63.5644 79.9115 62.8453 79.8291 62.2093 79.299C61.5719 78.7681 61.3241 78.0424 61.5947 77.2484C61.9733 76.1374 62.4248 75.0514 62.852 73.9581C63.435 72.464 64.0254 70.9736 64.61 69.4803C64.7225 69.1921 64.921 68.9612 65.2268 68.998C65.4217 69.0208 65.6511 69.1892 65.7606 69.3597C65.8452 69.4921 65.8173 69.7458 65.7555 69.9149C65.3886 70.9148 65.0004 71.9067 64.6136 72.8986C64.0571 74.3235 63.4938 75.7455 62.9372 77.1704C62.8799 77.3182 62.8387 77.4741 62.8064 77.6292C62.7358 77.9733 62.874 78.2365 63.1725 78.3961C63.4512 78.5446 63.8196 78.4321 64.0203 78.1608C64.085 78.0733 64.1409 77.9748 64.1806 77.8733C64.8188 76.244 65.4526 74.6124 66.0893 72.9824C66.5349 71.842 66.9797 70.7023 67.4304 69.5641C67.5414 69.2833 67.6841 69.034 68.051 69.0304C68.4127 69.0267 68.6061 69.2267 68.7451 69.5296C69.6899 71.5869 70.6376 73.6434 71.5868 75.6984C71.8589 76.2874 72.1339 76.8756 72.4162 77.4594C72.4736 77.5778 72.5596 77.6888 72.6515 77.7836C72.9853 78.1277 73.4662 78.1071 73.7081 77.6954C73.9926 77.2116 74.2242 76.6962 74.4654 76.1881C75.4815 74.0426 76.4925 71.8942 77.5064 69.7472C77.5483 69.659 77.5932 69.57 77.6491 69.4906C77.9983 68.9929 78.5483 69.0098 78.8115 69.5568C79.0652 70.0847 79.263 70.6406 79.4799 71.1861C79.7968 71.9824 80.1093 72.7802 80.4217 73.5787C80.4578 73.6698 80.4916 73.7625 80.5129 73.8573C80.5989 74.2375 80.4636 74.5404 80.1629 74.6507C79.8504 74.7661 79.5041 74.6191 79.3512 74.2661C79.1181 73.7272 78.9115 73.1765 78.6931 72.6317C78.5887 72.3706 78.4924 72.1052 78.3748 71.8493C78.2454 71.5677 78.0821 71.5523 77.9402 71.828C77.5873 72.5133 77.255 73.2088 76.9248 73.9051C76.2587 75.3095 75.5955 76.7146 74.9389 78.1233C74.5757 78.902 73.9676 79.3218 73.1191 79.3159C72.2978 79.31 71.7045 78.8821 71.3582 78.1417C70.4619 76.2234 69.5789 74.2985 68.6855 72.378C68.5443 72.0743 68.3796 71.7817 68.226 71.4839C68.173 71.4883 68.1223 71.4927 68.0716 71.4971Z" fill="white"/>
<path d="M82.4075 79.6168C81.9855 79.6036 81.3884 79.2477 81.0495 78.5316C80.8149 78.036 80.6274 77.5154 80.4554 76.9934C80.3326 76.6206 80.4635 76.3339 80.7399 76.2133C81.0612 76.0729 81.3759 76.1839 81.5634 76.5508C81.7303 76.8765 81.8399 77.2316 81.998 77.5618C82.1016 77.7787 82.2215 77.9992 82.381 78.175C82.5825 78.3963 82.8553 78.4235 83.12 78.2706C83.3744 78.1242 83.5383 77.9015 83.4516 77.6007C83.3229 77.1552 83.1736 76.7133 83.0038 76.2817C82.2604 74.3906 81.5053 72.5039 80.7561 70.6158C80.1914 69.1938 79.6304 67.7703 79.0628 66.349C78.8334 65.7733 78.3518 65.53 77.9548 65.8204C77.7592 65.963 77.6055 66.199 77.4989 66.4233C76.2975 68.9563 75.11 71.4959 73.9152 74.0318C73.838 74.1965 73.7461 74.3612 73.6278 74.4979C73.2638 74.9185 72.7704 74.8589 72.5322 74.359C72.0587 73.3649 71.5999 72.3635 71.1374 71.3643C70.4073 69.7871 69.6794 68.2092 68.95 66.6321C68.8471 66.4101 68.7545 66.1829 68.639 65.9674C68.4964 65.6998 68.2824 65.5513 67.956 65.5667C67.6339 65.5822 67.4295 65.7329 67.306 66.0174C67.1457 66.388 66.992 66.7615 66.8215 67.1269C66.684 67.421 66.4296 67.521 66.12 67.471C65.8619 67.4291 65.7127 67.2821 65.6914 67.0027C65.6222 66.102 66.4943 64.694 67.3317 64.3719C68.2383 64.0227 69.3155 64.4352 69.7265 65.3167C70.6316 67.2586 71.5212 69.207 72.4168 71.1525C72.5602 71.4635 72.6874 71.7826 72.8491 72.0833C72.9175 72.2113 73.0557 72.3017 73.1623 72.4091C73.2587 72.3046 73.3866 72.2157 73.4461 72.0929C73.8189 71.3216 74.1755 70.5422 74.5387 69.7665C75.2078 68.3364 75.8475 66.8917 76.5607 65.4844C76.921 64.7726 77.5835 64.383 78.3981 64.4131C79.201 64.4432 79.7936 64.8697 80.1025 65.6138C80.6377 66.902 81.1399 68.2048 81.6575 69.5004C82.3068 71.126 82.9611 72.7502 83.606 74.3781C83.9618 75.2773 84.3354 76.1714 84.642 77.0883C85.0809 78.3985 84.1589 79.6242 82.4075 79.6168Z" fill="white"/>
<path d="M90.3199 67.684C90.3191 68.431 89.7133 69.0303 88.9574 69.0317C88.2567 69.0325 87.6038 68.3935 87.5987 67.7009C87.5928 66.9612 88.2391 66.3149 88.9854 66.3135C89.7361 66.3127 90.3199 66.912 90.3199 67.684Z" fill="white"/>
<path d="M88.2402 72.3004C88.2432 71.538 88.8292 70.9402 89.5777 70.9365C90.321 70.9329 90.9357 71.5395 90.9416 72.2821C90.9475 73.007 90.3196 73.6408 89.588 73.6496C88.8373 73.6585 88.2373 73.0585 88.2402 72.3004Z" fill="white"/>
<path d="M113.427 68.2901C112.317 68.1102 112.278 68.146 111.878 69.0608C110.889 71.3272 109.878 73.5849 108.89 75.8524C108.731 76.2187 108.504 76.3727 108.104 76.3618C106.719 76.3271 107.006 76.532 106.465 75.2823C105.554 73.1784 104.663 71.0649 103.759 68.9578C103.414 68.1546 103.201 68.0647 102.275 68.3129C102.307 68.3964 102.322 68.4906 102.374 68.5535C103.023 69.3339 103.04 70.252 103.03 71.209C103 74.0271 103.021 76.8452 103.02 79.6633C103.02 80.4632 103.017 80.4632 102.197 80.4654C101.854 80.4665 101.511 80.4513 101.168 80.4676C100.765 80.486 100.633 80.2963 100.633 79.9126C100.639 75.5055 100.639 71.0985 100.633 66.6903C100.633 66.3023 100.778 66.1354 101.176 66.1408C102.24 66.1538 103.306 66.1581 104.37 66.1375C104.757 66.1299 104.953 66.2839 105.097 66.6329C105.893 68.5503 106.707 70.4611 107.519 72.372C107.6 72.5639 107.706 72.7449 107.868 73.0592C108.047 72.7677 108.184 72.5932 108.269 72.3959C109.076 70.5023 109.886 68.6099 110.666 66.7055C110.838 66.2882 111.067 66.1234 111.514 66.1354C112.506 66.1603 113.5 66.1527 114.491 66.1386C114.884 66.1332 115.04 66.2871 115.04 66.6816C115.033 71.1071 115.033 75.5326 115.039 79.9581C115.039 80.331 114.878 80.4795 114.516 80.4687C114.101 80.4567 113.685 80.4459 113.271 80.4719C112.804 80.5012 112.632 80.3191 112.639 79.8454C112.66 78.2922 112.647 76.739 112.647 75.1858C112.647 73.6684 112.67 72.1509 112.636 70.6346C112.621 69.9561 112.73 69.3502 113.151 68.8082C113.258 68.6695 113.319 68.4972 113.427 68.2901Z" fill="white"/>
<path d="M152.386 73.2515C152.386 71.6256 152.382 70.0009 152.387 68.3751C152.39 66.9877 153.183 66.0902 154.565 66.0686C157.235 66.0274 159.907 66.0285 162.576 66.0686C163.886 66.0881 164.728 67.0386 164.743 68.3577C164.748 68.8271 164.736 69.2975 164.745 69.7668C164.752 70.0985 164.626 70.2762 164.273 70.2708C163.786 70.2632 163.298 70.2632 162.812 70.2708C162.46 70.2762 162.331 70.1006 162.341 69.7668C162.352 69.4059 162.334 69.0438 162.342 68.6829C162.35 68.3697 162.224 68.2168 161.898 68.2168C159.678 68.2212 157.459 68.2212 155.239 68.2168C154.918 68.2157 154.788 68.361 154.789 68.6775C154.793 71.7655 154.793 74.8535 154.789 77.9425C154.789 78.2699 154.938 78.3891 155.251 78.388C157.453 78.3837 159.654 78.3826 161.856 78.3902C162.196 78.3913 162.366 78.2644 162.341 77.9133C162.335 77.8233 162.341 77.7323 162.342 77.6423C162.363 76.1595 162.143 76.3449 163.683 76.334C164.744 76.3265 164.744 76.333 164.744 77.3832C164.744 77.7442 164.757 78.1062 164.736 78.466C164.67 79.6041 163.789 80.4658 162.659 80.4701C159.934 80.4799 157.209 80.481 154.484 80.4701C153.221 80.4647 152.395 79.6215 152.388 78.3446C152.378 76.6473 152.386 74.9488 152.386 73.2515Z" fill="white"/>
<path d="M169.593 63.6535C169.593 66.2364 169.593 68.8182 169.593 71.4011C169.642 71.4195 169.69 71.4391 169.738 71.4575C170.053 71.1507 170.343 70.8115 170.69 70.547C170.931 70.3649 171.247 70.1883 171.536 70.1796C172.87 70.1416 174.205 70.146 175.539 70.1677C176.898 70.1893 177.751 71.0781 177.752 72.4362C177.755 74.8912 177.741 77.3473 177.761 79.8023C177.766 80.3258 177.588 80.4949 177.073 80.4808C175.435 80.4364 175.681 80.6824 175.672 79.0674C175.659 76.9365 175.653 74.8067 175.678 72.6758C175.685 72.1468 175.5 71.994 174.99 72.0027C173.403 72.0287 171.815 72.0254 170.227 72.0048C169.751 71.9983 169.601 72.1761 169.603 72.64C169.618 75.005 169.611 77.3701 169.608 79.7351C169.607 80.4494 169.585 80.4786 168.884 80.4711C167.224 80.4526 167.454 80.7019 167.449 79.0436C167.44 74.7644 167.451 70.4852 167.438 66.2071C167.437 65.7367 167.571 65.3899 167.912 65.0626C168.416 64.5802 168.87 64.0448 169.345 63.5332C169.428 63.5744 169.511 63.6145 169.593 63.6535Z" fill="white"/>
<path d="M146.838 74.4097C146.249 74.9658 145.711 75.5121 145.125 76.0031C144.974 76.1299 144.678 76.1104 144.447 76.1136C143.508 76.1255 142.57 76.1342 141.632 76.1125C141.183 76.1017 141.014 76.2751 141.039 76.7184C141.065 77.1867 141.054 77.6571 141.044 78.1264C141.036 78.4613 141.163 78.6271 141.515 78.6261C143.211 78.6206 144.908 78.6206 146.604 78.6261C146.94 78.6271 147.101 78.4873 147.1 78.1426C147.096 76.2643 147.093 74.3859 147.104 72.5075C147.107 72.0219 146.807 72.0144 146.456 72.0144C144.219 72.0176 141.981 72.0165 139.744 72.0165C139.537 72.0165 139.33 72.0165 138.982 72.0165C139.626 71.3543 140.145 70.7928 140.703 70.2704C140.822 70.1587 141.078 70.1685 141.272 70.1674C143.167 70.1609 145.061 70.1555 146.956 70.1663C148.368 70.1739 149.262 71.0692 149.264 72.4685C149.269 74.9062 149.251 77.3449 149.276 79.7826C149.281 80.3386 149.089 80.5337 148.553 80.4817C148.142 80.4416 147.627 80.5944 147.341 80.3971C147.091 80.2237 147.095 79.6828 146.964 79.2211C146.615 79.5062 146.286 79.8302 145.906 80.0687C145.602 80.2584 145.238 80.4459 144.895 80.4578C143.615 80.5033 142.332 80.4827 141.051 80.4741C139.807 80.4654 138.985 79.6514 138.962 78.4049C138.949 77.7188 138.951 77.0327 138.962 76.3466C138.982 75.2703 139.749 74.3436 140.817 74.3089C142.745 74.2461 144.678 74.2883 146.608 74.2916C146.653 74.2905 146.697 74.335 146.838 74.4097Z" fill="white"/>
<path d="M188.605 79.1038C188.14 79.4874 187.764 79.8495 187.336 80.1324C187.069 80.3079 186.727 80.451 186.414 80.4597C185.17 80.4965 183.924 80.4781 182.68 80.4738C181.381 80.4694 180.526 79.6858 180.457 78.3981C180.42 77.7142 180.419 77.0249 180.458 76.3409C180.524 75.166 181.363 74.3043 182.498 74.2859C184.32 74.2555 186.142 74.2761 187.964 74.2783C188.047 74.2783 188.131 74.3108 188.353 74.3563C187.425 75.1487 186.931 76.3366 185.465 76.135C184.722 76.0331 183.952 76.1296 183.195 76.1133C182.789 76.1046 182.59 76.2423 182.608 76.6748C182.629 77.1614 182.621 77.6492 182.611 78.1369C182.605 78.4794 182.76 78.6268 183.1 78.6258C184.796 78.6203 186.492 78.6203 188.188 78.6258C188.536 78.6268 188.666 78.4664 188.665 78.1293C188.658 76.2521 188.655 74.3737 188.667 72.4964C188.67 72.0487 188.416 72.0119 188.072 72.013C185.816 72.0184 183.562 72.0151 181.306 72.0151C181.096 72.0151 180.886 72.0151 180.674 72.0151C180.645 71.9631 180.616 71.9111 180.587 71.8591C180.871 71.5599 181.185 71.2824 181.434 70.9551C181.93 70.3059 182.554 70.1162 183.363 70.1454C185.038 70.204 186.717 70.1606 188.395 70.1639C189.91 70.1671 190.746 70.9995 190.747 72.4964C190.748 74.9156 190.748 77.3349 190.746 79.7552C190.745 80.4619 190.733 80.4705 190.011 80.476C188.773 80.4825 188.773 80.4825 188.605 79.1038Z" fill="white"/>
<path d="M119.489 76.3575C120.094 75.7267 120.573 75.1956 121.091 74.7067C121.209 74.5951 121.465 74.6016 121.658 74.6005C122.649 74.5897 123.642 74.5821 124.634 74.5994C125.045 74.607 125.233 74.4726 125.214 74.0401C125.19 73.5177 125.202 72.9931 125.209 72.4696C125.213 72.152 125.073 72.01 124.754 72.0111C123.041 72.0154 121.326 72.0144 119.612 72.01C119.298 72.0089 119.15 72.1444 119.15 72.4642C119.153 74.3967 119.154 76.3282 119.149 78.2608C119.147 78.7269 119.463 78.7084 119.779 78.7084C122.089 78.7063 124.399 78.7193 126.708 78.69C127.165 78.6846 127.305 78.8049 127.295 79.2558C127.265 80.6377 127.411 80.4643 126.069 80.4687C123.814 80.4752 121.559 80.4708 119.304 80.4676C117.88 80.4654 117.046 79.7316 117.01 78.3063C116.96 76.3391 116.957 74.3696 117.012 72.4024C117.053 70.9532 117.944 70.1696 119.392 70.1652C121.233 70.1598 123.073 70.1577 124.914 70.1642C126.464 70.1696 127.197 71.0053 127.316 72.5379C127.416 73.8472 127.022 74.7945 126.03 75.641C125.472 76.1169 124.979 76.4073 124.227 76.3748C122.894 76.3163 121.557 76.3575 120.222 76.3564C120.025 76.3575 119.83 76.3575 119.489 76.3575Z" fill="white"/>
<path d="M128.459 71.8704C128.974 71.3469 129.47 70.8039 130.014 70.3129C130.162 70.1806 130.452 70.1774 130.679 70.1709C131.015 70.1611 131.23 70.0278 131.163 69.6886C130.916 68.4323 131.553 67.6053 132.451 66.8802C132.707 66.6732 132.928 66.425 133.165 66.1963C133.223 66.2191 133.281 66.2407 133.339 66.2635C133.339 66.5778 133.339 66.8921 133.339 67.2065C133.339 67.9825 133.357 68.7586 133.332 69.5347C133.317 69.9953 133.473 70.185 133.952 70.1731C134.907 70.147 135.863 70.1806 136.819 70.1601C137.293 70.1492 137.447 70.3487 137.452 70.8039C137.468 72.0178 137.482 72.0167 136.258 72.0167C135.464 72.0167 134.671 72.0287 133.877 72.0124C133.483 72.0048 133.332 72.162 133.334 72.5554C133.345 74.3959 133.346 76.2363 133.333 78.0778C133.33 78.5146 133.527 78.6382 133.927 78.6328C134.865 78.6187 135.802 78.6458 136.74 78.6219C137.236 78.6089 137.462 78.7618 137.453 79.2972C137.43 80.664 137.501 80.4667 136.299 80.4765C135.343 80.4841 134.388 80.4797 133.432 80.4765C132.034 80.471 131.191 79.6419 131.177 78.2101C131.159 76.4054 131.173 74.6007 131.172 72.7961C131.171 72.0189 131.17 72.0178 130.387 72.0157C129.762 72.0146 129.135 72.0157 128.51 72.0157C128.493 71.9658 128.476 71.9181 128.459 71.8704Z" fill="white"/>
<path d="M191.67 71.9073C192.221 71.3491 192.712 70.7996 193.264 70.3194C193.437 70.1698 193.772 70.1774 194.034 70.1709C194.379 70.1612 194.571 70.0138 194.504 69.6788C194.258 68.4486 194.876 67.6335 195.749 66.903C195.988 66.7025 196.129 66.3827 196.314 66.1172C196.396 66.1714 196.476 66.2256 196.557 66.2798C196.57 66.4651 196.594 66.6494 196.595 66.8347C196.599 67.7734 196.606 68.7131 196.594 69.6517C196.59 70.0213 196.737 70.1709 197.107 70.1666C198.098 70.1557 199.091 70.1796 200.083 70.1579C200.548 70.1471 200.725 70.3107 200.716 70.7855C200.689 72.1815 200.827 72.0048 199.504 72.0157C198.728 72.0222 197.952 72.0309 197.177 72.0124C196.774 72.0027 196.588 72.1252 196.591 72.5641C196.607 74.4056 196.604 76.2472 196.593 78.0898C196.591 78.4876 196.748 78.6371 197.138 78.6317C198.094 78.6187 199.051 78.6436 200.006 78.622C200.501 78.6111 200.728 78.7629 200.716 79.3005C200.687 80.6358 200.799 80.4689 199.56 80.4765C198.568 80.483 197.575 80.4841 196.583 80.4754C195.35 80.4646 194.522 79.6343 194.515 78.3911C194.505 76.5496 194.513 74.708 194.512 72.8654C194.512 72.0178 194.511 72.02 193.639 72.0157C193.044 72.0135 192.449 72.0059 191.854 71.9973C191.823 71.9973 191.791 71.968 191.67 71.9073Z" fill="white"/>
<defs>
<linearGradient id="paint0_linear_1249_4575" x1="128" y1="0" x2="128" y2="144" gradientUnits="userSpaceOnUse">
<stop stop-color="#0E0520"/>
<stop offset="1" stop-color="#1B1B45"/>
</linearGradient>
<linearGradient id="paint1_linear_1249_4575" x1="128" y1="1.02857" x2="128" y2="144" gradientUnits="userSpaceOnUse">
<stop stop-color="#2F235B" stop-opacity="0"/>
<stop offset="1" stop-color="#2F235B"/>
</linearGradient>
</defs>
</svg>
