<svg width="256" height="144" viewBox="0 0 256 144" fill="none" xmlns="http://www.w3.org/2000/svg">
<rect x="0.5" y="-0.5" width="255" height="143" rx="15.5" transform="matrix(1 0 0 -1 0 143)" fill="url(#paint0_linear_1249_4594)" stroke="url(#paint1_linear_1249_4594)"/>
<path fill-rule="evenodd" clip-rule="evenodd" d="M107.005 73.6563H107.042C107.042 74.576 107.042 75.4957 107.041 76.4155C107.038 78.9119 107.036 81.4084 107.051 83.9059C107.056 84.7439 106.855 85.4425 106.04 85.7885C105.217 86.1362 104.507 85.8886 103.882 85.2687C103.015 84.4082 102.141 83.5535 101.268 82.6989C100.54 81.9866 99.8116 81.2744 99.0871 80.5588C98.29 79.7732 98.2835 79.46 99.0461 78.6384C99.3828 78.2768 99.7295 77.9247 100.076 77.5726C100.324 77.3211 100.572 77.0697 100.816 76.8148C101.244 76.3654 101.526 75.8735 101.029 75.3028C100.66 74.8797 99.9939 74.96 99.4478 75.5028C99.0384 75.9098 98.6286 76.3164 98.2188 76.7229C96.4767 78.4513 94.7346 80.1799 93.0193 81.9363C91.3433 83.6533 89.331 84.6898 86.958 84.8669C84.3883 85.0588 82.1169 84.2126 80.2081 82.4611C79.6849 81.9806 79.1831 81.4771 78.6895 80.9655C77.8137 80.0569 77.8088 79.1337 78.6927 78.2333C81.2609 75.6225 83.834 73.0167 86.4152 70.4207C89.9411 66.8751 93.4719 63.3312 97.0109 59.7988C99.7644 57.0519 104.141 57.5028 106.178 60.7975C106.619 61.5109 106.947 62.4177 106.969 63.2459C107.032 65.7794 107.022 68.3147 107.012 70.8498C107.008 71.7854 107.005 72.7209 107.005 73.6563ZM88.1661 62.9363C89.3764 64.1236 89.3895 65.0338 88.2038 66.2162C87.2555 67.1613 86.3063 68.1055 85.3573 69.0496C84.4093 69.9927 83.4615 70.9356 82.5149 71.8789C78.4298 75.946 74.3447 80.013 70.2629 84.0817C68.4179 85.9217 65.9777 86.5088 63.7228 85.5429C61.2875 84.4999 60.0706 82.5582 60.028 79.9441C59.9902 77.6339 59.9988 75.3237 60.0074 73.013C60.0112 72.0168 60.0149 71.0205 60.0149 70.0241H60.0116C60.0116 69.3073 60.0114 68.5904 60.0113 67.8737C60.0107 65.3653 60.0101 62.8574 60.0165 60.3485C60.0165 59.9975 60.0362 59.6285 60.1412 59.2989C60.5265 58.0886 61.9992 57.6213 62.9143 58.4921C64.5493 60.0492 66.1348 61.6583 67.72 63.267C67.9378 63.4881 68.1557 63.7092 68.3737 63.9301C68.8394 64.4041 68.7443 64.9124 68.2949 65.3765C68.0092 65.6712 67.7266 65.9684 67.444 66.2655C67.0487 66.6812 66.6535 67.0968 66.2499 67.5052C65.7891 67.9709 65.694 68.4596 66.1778 68.9336C66.6534 69.3977 67.1257 69.2107 67.5438 68.7991C68.3042 68.0484 69.0619 67.2952 69.8196 66.5421C71.3874 64.9838 72.9549 63.4257 74.5448 61.89C78.1001 58.456 83.4595 58.4527 87.0509 61.849C87.3394 62.1212 87.6221 62.4001 87.9049 62.679C87.9919 62.7648 88.0789 62.8507 88.1661 62.9363Z" fill="white"/>
<path d="M115.29 65.8077C117.346 65.8077 119.314 65.8077 121.316 65.8077C121.377 66.2132 121.427 66.5623 121.448 66.7054C122.803 66.3715 124.137 65.8966 125.505 65.7491C127.043 65.5843 128.264 66.404 129.174 67.7094C130.603 66.4517 132.061 65.5626 133.99 65.6949C135.829 65.8207 137.555 66.9006 137.683 68.7177C137.898 71.7579 137.742 74.8219 137.742 77.9401C135.879 77.9401 134.016 77.9401 131.989 77.9401C131.989 77.0467 131.989 76.1598 131.989 75.2751C131.989 73.7225 132.004 72.1677 131.98 70.6151C131.967 69.8063 131.562 69.3531 130.697 69.3596C129.844 69.3639 129.617 69.7889 129.632 70.5912C129.673 73.0047 129.647 75.4203 129.647 77.9184C127.659 77.9184 125.77 77.9184 123.749 77.9184C123.749 75.5591 123.779 73.2237 123.723 70.8905C123.712 70.4113 123.5 69.7629 123.15 69.5027C122.368 68.9194 121.42 69.5244 121.414 70.5262C121.403 72.584 121.409 74.644 121.409 76.7019C121.409 77.09 121.409 77.476 121.409 77.9336C119.308 77.9357 117.343 77.9357 115.29 77.9357C115.29 73.9089 115.29 69.919 115.29 65.8077Z" fill="white"/>
<path d="M182.436 65.7963C184.572 65.7963 186.511 65.7963 188.519 65.7963C188.586 66.1867 188.651 66.5596 188.734 67.0432C188.979 66.9174 189.2 66.8437 189.375 66.7071C190.67 65.7118 192.149 65.5209 193.691 65.7963C195.382 66.0999 196.657 67.2774 196.742 68.9904C196.885 71.9373 196.781 74.8973 196.781 77.9266C194.877 77.9266 192.986 77.9266 190.98 77.9266C190.98 75.5478 191.019 73.208 190.95 70.8726C190.934 70.3804 190.65 69.6865 190.269 69.4588C189.44 68.9688 188.649 69.5586 188.642 70.5474C188.632 72.6789 188.595 74.8127 188.66 76.9421C188.686 77.8311 188.376 78.0523 187.545 78.0198C186.103 77.9613 184.655 78.035 183.213 77.9743C182.948 77.9634 182.475 77.5905 182.473 77.3779C182.423 73.5572 182.436 69.732 182.436 65.7963Z" fill="white"/>
<path d="M173.831 65.6497C176.285 65.5239 178.397 66.4238 179.677 68.744C180.858 70.8886 180.824 73.1264 179.56 75.232C179.132 75.9454 178.443 76.5547 177.755 77.0491C175.463 78.695 171.636 78.5497 169.422 76.8084C167.28 75.1236 166.54 72.2395 167.542 69.4769C168.444 66.9854 170.584 65.654 173.831 65.6497ZM173.835 70.418C172.985 70.3964 172.358 70.9276 172.317 71.7104C172.276 72.4737 172.92 73.1264 173.72 73.1373C174.613 73.1503 175.14 72.6515 175.132 71.769C175.123 70.919 174.717 70.4311 173.835 70.418Z" fill="white"/>
<path d="M152.612 72.6686C150.591 72.6686 148.557 72.6686 146.497 72.6686C147.063 74.991 149.876 75.39 152.645 73.5989C152.877 74.7417 152.755 75.6329 151.832 76.4872C149.058 79.0503 141.98 78.9614 140.233 74.3297C138.559 69.8887 141.312 65.7535 145.734 65.593C150.194 65.4304 152.957 68.6679 152.612 72.6686ZM148.837 70.4547C148.702 69.0842 148.275 68.5551 147.341 68.6006C146.183 68.6549 146.031 69.4832 145.975 70.4547C146.953 70.4547 147.891 70.4547 148.837 70.4547Z" fill="white"/>
<path d="M165.503 66.501C164.941 67.6221 164.477 68.5502 164.076 69.3525C163.083 69.0012 162.198 68.6066 161.27 68.4049C160.942 68.3355 160.513 68.7453 160.129 68.9362C160.398 69.307 160.587 69.8361 160.951 70.0139C161.654 70.3565 162.462 70.4757 163.213 70.7295C164.611 71.2 165.604 72.0674 165.789 73.6156C165.993 75.3092 165.292 76.5127 163.813 77.3692C162.415 78.1802 160.899 78.2691 159.403 78.0956C157.497 77.8744 155.621 77.4104 153.576 77.0222C154.12 75.6952 154.537 74.6738 154.858 73.8889C156.05 74.3703 157.128 74.8994 158.264 75.2116C158.605 75.3048 159.108 74.7974 159.537 74.5654C159.255 74.1664 159.058 73.6113 158.674 73.4053C157.889 72.9846 156.987 72.7916 156.163 72.436C154.762 71.831 154.068 70.7208 154.09 69.1985C154.11 67.8303 155.023 66.5769 156.43 66.1432C159.422 65.2195 162.384 65.497 165.503 66.501Z" fill="white"/>
<defs>
<linearGradient id="paint0_linear_1249_4594" x1="128" y1="0" x2="128" y2="144" gradientUnits="userSpaceOnUse">
<stop stop-color="#0E0520"/>
<stop offset="1" stop-color="#1B1B45"/>
</linearGradient>
<linearGradient id="paint1_linear_1249_4594" x1="128" y1="1.02857" x2="128" y2="144" gradientUnits="userSpaceOnUse">
<stop stop-color="#2F235B" stop-opacity="0"/>
<stop offset="1" stop-color="#2F235B"/>
</linearGradient>
</defs>
</svg>
