<svg width="256" height="144" viewBox="0 0 256 144" fill="none" xmlns="http://www.w3.org/2000/svg">
<rect x="0.5" y="-0.5" width="255" height="143" rx="15.5" transform="matrix(1 0 0 -1 0 143)" fill="url(#paint0_linear_1249_4772)" stroke="url(#paint1_linear_1249_4772)"/>
<path d="M76.784 70.4182V66.3854H80.3338C80.6719 66.3854 80.9939 66.4176 81.2998 66.482C81.6218 66.5303 81.9035 66.6269 82.145 66.7717C82.3865 66.9166 82.5797 67.1179 82.7246 67.3755C82.8695 67.6331 82.9419 67.9631 82.9419 68.3656C82.9419 69.09 82.7246 69.6133 82.2899 69.9352C81.8552 70.2572 81.2998 70.4182 80.6236 70.4182H76.784ZM72.9926 63.4392V80.6814H81.3481C82.1209 80.6814 82.8695 80.5849 83.5939 80.3917C84.3345 80.1985 84.9865 79.9006 85.55 79.4982C86.1296 79.0957 86.5884 78.5805 86.9265 77.9526C87.2646 77.3087 87.4336 76.552 87.4336 75.6827C87.4336 74.604 87.168 73.6863 86.6367 72.9297C86.1215 72.1569 85.3327 71.6176 84.2701 71.3117C85.0429 70.9414 85.6224 70.4665 86.0088 69.8869C86.4113 69.3074 86.6125 68.5829 86.6125 67.7135C86.6125 66.9086 86.4757 66.2324 86.202 65.685C85.9444 65.1377 85.5741 64.703 85.0912 64.381C84.6082 64.0429 84.0286 63.8014 83.3524 63.6565C82.6763 63.5117 81.9277 63.4392 81.1066 63.4392H72.9926ZM76.784 77.7353V73.0021H80.9134C81.7345 73.0021 82.3945 73.1953 82.8936 73.5817C83.3927 73.952 83.6422 74.5799 83.6422 75.4653C83.6422 75.9161 83.5617 76.2864 83.4007 76.5762C83.2559 76.8659 83.0546 77.0994 82.797 77.2765C82.5394 77.4375 82.2416 77.5582 81.9035 77.6387C81.5654 77.7031 81.2113 77.7353 80.841 77.7353H76.784Z" fill="white"/>
<path d="M90.2132 63.4392V80.6814H93.6423V63.4392H90.2132Z" fill="white"/>
<path d="M99.8681 74.4511C99.8681 73.952 99.9164 73.461 100.013 72.978C100.11 72.495 100.271 72.0684 100.496 71.6981C100.738 71.3278 101.051 71.03 101.438 70.8046C101.824 70.5631 102.307 70.4424 102.887 70.4424C103.466 70.4424 103.949 70.5631 104.336 70.8046C104.738 71.03 105.052 71.3278 105.277 71.6981C105.519 72.0684 105.688 72.495 105.785 72.978C105.881 73.461 105.929 73.952 105.929 74.4511C105.929 74.9501 105.881 75.4412 105.785 75.9241C105.688 76.391 105.519 76.8176 105.277 77.204C105.052 77.5743 104.738 77.8721 104.336 78.0975C103.949 78.3229 103.466 78.4356 102.887 78.4356C102.307 78.4356 101.824 78.3229 101.438 78.0975C101.051 77.8721 100.738 77.5743 100.496 77.204C100.271 76.8176 100.11 76.391 100.013 75.9241C99.9164 75.4412 99.8681 74.9501 99.8681 74.4511ZM96.439 74.4511C96.439 75.4492 96.592 76.3508 96.8978 77.1557C97.2037 77.9607 97.6384 78.653 98.2019 79.2325C98.7654 79.796 99.4415 80.2307 100.23 80.5366C101.019 80.8424 101.905 80.9954 102.887 80.9954C103.869 80.9954 104.754 80.8424 105.543 80.5366C106.348 80.2307 107.032 79.796 107.596 79.2325C108.159 78.653 108.594 77.9607 108.9 77.1557C109.206 76.3508 109.359 75.4492 109.359 74.4511C109.359 73.4529 109.206 72.5514 108.9 71.7464C108.594 70.9253 108.159 70.2331 107.596 69.6696C107.032 69.09 106.348 68.6473 105.543 68.3414C104.754 68.0194 103.869 67.8584 102.887 67.8584C101.905 67.8584 101.019 68.0194 100.23 68.3414C99.4415 68.6473 98.7654 69.09 98.2019 69.6696C97.6384 70.2331 97.2037 70.9253 96.8978 71.7464C96.592 72.5514 96.439 73.4529 96.439 74.4511Z" fill="white"/>
<path d="M120.572 72.5916H123.928C123.88 71.7866 123.687 71.0944 123.349 70.5148C123.011 69.9191 122.568 69.4281 122.021 69.0417C121.489 68.6393 120.877 68.3414 120.185 68.1482C119.509 67.955 118.801 67.8584 118.06 67.8584C117.046 67.8584 116.144 68.0275 115.355 68.3656C114.567 68.7036 113.898 69.1786 113.351 69.7903C112.804 70.386 112.385 71.1024 112.095 71.9396C111.822 72.7606 111.685 73.6542 111.685 74.6201C111.685 75.5539 111.838 76.4152 112.144 77.204C112.45 77.9768 112.876 78.6449 113.424 79.2084C113.971 79.7718 114.631 80.2146 115.404 80.5366C116.193 80.8424 117.054 80.9954 117.988 80.9954C119.646 80.9954 121.006 80.5607 122.069 79.6913C123.131 78.822 123.775 77.5582 124.001 75.9H120.692C120.58 76.6728 120.298 77.2926 119.847 77.7594C119.412 78.2102 118.785 78.4356 117.964 78.4356C117.432 78.4356 116.981 78.3149 116.611 78.0734C116.241 77.8319 115.943 77.526 115.718 77.1557C115.508 76.7693 115.355 76.3427 115.259 75.8758C115.162 75.409 115.114 74.9501 115.114 74.4994C115.114 74.0325 115.162 73.5656 115.259 73.0987C115.355 72.6158 115.516 72.1811 115.742 71.7947C115.983 71.3922 116.289 71.0702 116.659 70.8287C117.03 70.5712 117.489 70.4424 118.036 70.4424C119.501 70.4424 120.346 71.1588 120.572 72.5916Z" fill="white"/>
<path d="M126.735 63.4392V80.6814H130.164V76.383L131.492 75.1031L134.921 80.6814H139.075L133.835 72.7848L138.544 68.1965H134.487L130.164 72.6882V63.4392H126.735Z" fill="white"/>
<path d="M149.15 80.6814L154.873 63.4392H150.961L147.073 75.5619H147.025L143.185 63.4392H139.297L144.876 80.6814H149.15Z" fill="white"/>
<path d="M159.566 66.2646V63.4392H156.137V66.2646H159.566ZM156.137 68.1965V80.6814H159.566V68.1965H156.137Z" fill="white"/>
<path d="M165.405 76.6245H162.145C162.177 77.4616 162.362 78.1619 162.7 78.7254C163.055 79.2728 163.497 79.7155 164.029 80.0536C164.576 80.3917 165.196 80.6332 165.888 80.778C166.58 80.9229 167.289 80.9954 168.013 80.9954C168.722 80.9954 169.414 80.9229 170.09 80.778C170.782 80.6493 171.394 80.4158 171.925 80.0777C172.457 79.7396 172.883 79.2969 173.205 78.7495C173.543 78.1861 173.712 77.4938 173.712 76.6727C173.712 76.0932 173.6 75.6102 173.374 75.2238C173.149 74.8213 172.851 74.4913 172.481 74.2337C172.11 73.96 171.684 73.7427 171.201 73.5817C170.734 73.4207 170.251 73.2839 169.752 73.1712C169.269 73.0585 168.794 72.9538 168.327 72.8572C167.86 72.7606 167.442 72.656 167.071 72.5433C166.717 72.4145 166.427 72.2535 166.202 72.0603C165.977 71.8671 165.864 71.6176 165.864 71.3117C165.864 71.0541 165.928 70.8529 166.057 70.708C166.186 70.547 166.339 70.4263 166.516 70.3458C166.709 70.2653 166.918 70.217 167.144 70.2009C167.369 70.1687 167.579 70.1526 167.772 70.1526C168.384 70.1526 168.915 70.2733 169.366 70.5148C169.816 70.7402 170.066 71.1829 170.114 71.843H173.374C173.31 71.0702 173.109 70.4343 172.771 69.9352C172.449 69.4201 172.038 69.0095 171.539 68.7036C171.04 68.3978 170.468 68.1804 169.824 68.0516C169.197 67.9228 168.545 67.8584 167.868 67.8584C167.192 67.8584 166.532 67.9228 165.888 68.0516C165.244 68.1643 164.665 68.3736 164.149 68.6795C163.634 68.9693 163.216 69.3718 162.894 69.8869C162.588 70.4021 162.435 71.0622 162.435 71.8671C162.435 72.4145 162.548 72.8814 162.773 73.2678C162.998 73.6381 163.296 73.952 163.666 74.2096C164.037 74.4511 164.455 74.6523 164.922 74.8133C165.405 74.9582 165.896 75.087 166.395 75.1997C167.619 75.4573 168.569 75.7148 169.245 75.9724C169.937 76.23 170.283 76.6164 170.283 77.1316C170.283 77.4375 170.211 77.695 170.066 77.9043C169.921 78.0975 169.736 78.2585 169.51 78.3873C169.301 78.5 169.06 78.5886 168.786 78.653C168.528 78.7013 168.279 78.7254 168.037 78.7254C167.699 78.7254 167.369 78.6852 167.047 78.6047C166.741 78.5242 166.468 78.4034 166.226 78.2424C165.985 78.0653 165.783 77.848 165.622 77.5904C165.478 77.3167 165.405 76.9947 165.405 76.6245Z" fill="white"/>
<path d="M179.728 66.2646V63.4392H176.299V66.2646H179.728ZM176.299 68.1965V80.6814H179.728V68.1965H176.299Z" fill="white"/>
<path d="M185.954 74.4511C185.954 73.952 186.002 73.461 186.099 72.978C186.195 72.495 186.356 72.0684 186.582 71.6981C186.823 71.3278 187.137 71.03 187.524 70.8046C187.91 70.5631 188.393 70.4424 188.972 70.4424C189.552 70.4424 190.035 70.5631 190.421 70.8046C190.824 71.03 191.138 71.3278 191.363 71.6981C191.605 72.0684 191.774 72.495 191.87 72.978C191.967 73.461 192.015 73.952 192.015 74.4511C192.015 74.9501 191.967 75.4412 191.87 75.9241C191.774 76.391 191.605 76.8176 191.363 77.204C191.138 77.5743 190.824 77.8721 190.421 78.0975C190.035 78.3229 189.552 78.4356 188.972 78.4356C188.393 78.4356 187.91 78.3229 187.524 78.0975C187.137 77.8721 186.823 77.5743 186.582 77.204C186.356 76.8176 186.195 76.391 186.099 75.9241C186.002 75.4412 185.954 74.9501 185.954 74.4511ZM182.525 74.4511C182.525 75.4492 182.678 76.3508 182.984 77.1557C183.289 77.9607 183.724 78.653 184.288 79.2325C184.851 79.796 185.527 80.2307 186.316 80.5366C187.105 80.8424 187.99 80.9954 188.972 80.9954C189.955 80.9954 190.84 80.8424 191.629 80.5366C192.434 80.2307 193.118 79.796 193.682 79.2325C194.245 78.653 194.68 77.9607 194.986 77.1557C195.291 76.3508 195.444 75.4492 195.444 74.4511C195.444 73.4529 195.291 72.5514 194.986 71.7464C194.68 70.9253 194.245 70.2331 193.682 69.6696C193.118 69.09 192.434 68.6473 191.629 68.3414C190.84 68.0194 189.955 67.8584 188.972 67.8584C187.99 67.8584 187.105 68.0194 186.316 68.3414C185.527 68.6473 184.851 69.09 184.288 69.6696C183.724 70.2331 183.289 70.9253 182.984 71.7464C182.678 72.5514 182.525 73.4529 182.525 74.4511Z" fill="white"/>
<path d="M198.157 68.1965V80.6814H201.586V74.1371C201.586 72.8653 201.795 71.9557 202.214 71.4083C202.633 70.8448 203.309 70.5631 204.242 70.5631C205.064 70.5631 205.635 70.8207 205.957 71.3359C206.279 71.8349 206.44 72.5997 206.44 73.63V80.6814H209.869V73.0021C209.869 72.2294 209.797 71.5291 209.652 70.9012C209.523 70.2572 209.29 69.7179 208.951 69.2832C208.613 68.8324 208.147 68.4863 207.551 68.2448C206.971 67.9872 206.223 67.8584 205.305 67.8584C204.581 67.8584 203.872 68.0275 203.18 68.3656C202.488 68.6875 201.924 69.2108 201.49 69.9352H201.417V68.1965H198.157Z" fill="white"/>
<path d="M47.0003 60.7855L47.0003 70.3541L49.7354 72.0003L47 73.6468L47 83.2153L54.9499 88L62.8999 83.2153V73.6461L60.1647 72.0001L62.9 70.3539V60.7846L54.9495 56L47.0003 60.7855ZM54.3922 57.6801V65.2336L48.1167 69.0112V61.4577L54.3922 57.6801ZM48.1161 82.5433V74.9892L54.3922 78.7662V86.3204L48.1161 82.5433ZM55.508 86.3207V78.7665L61.7841 74.9895V82.5436L55.508 86.3207ZM61.2256 73.9821L54.9501 77.7591L48.6746 73.9821L50.852 72.6718L54.9501 75.1382L59.0486 72.6718L61.2256 73.9821ZM51.9676 72.0003L54.9501 70.2052L57.9325 72.0003L54.9501 73.795L51.9676 72.0003ZM54.9501 68.8614L50.8515 71.328L48.6746 70.0177L54.9501 66.2408L61.2261 70.0177L59.0487 71.328L54.9501 68.8614ZM61.7839 61.4568V69.0103L55.5079 65.233V57.6795L61.7839 61.4568Z" fill="white"/>
<path d="M61.784 61.4572V69.0107L55.5079 65.2334V57.6799L61.784 61.4572Z" fill="white"/>
<path d="M48.1162 82.5434V74.9893L54.3923 78.7663V86.3205L48.1162 82.5434Z" fill="white"/>
<path d="M51.9675 72.0002L54.95 70.2051L57.9325 72.0002L54.95 73.7949L51.9675 72.0002Z" fill="white"/>
<defs>
<linearGradient id="paint0_linear_1249_4772" x1="128" y1="0" x2="128" y2="144" gradientUnits="userSpaceOnUse">
<stop stop-color="#0E0520"/>
<stop offset="1" stop-color="#1B1B45"/>
</linearGradient>
<linearGradient id="paint1_linear_1249_4772" x1="128" y1="1.02857" x2="128" y2="144" gradientUnits="userSpaceOnUse">
<stop stop-color="#2F235B" stop-opacity="0"/>
<stop offset="1" stop-color="#2F235B"/>
</linearGradient>
</defs>
</svg>
