<svg width="104" height="104" viewBox="0 0 104 104" fill="none" xmlns="http://www.w3.org/2000/svg">
<circle opacity="0.5" cx="52" cy="52" r="52" fill="url(#paint0_radial_457_4714)"/>
<circle cx="52" cy="52" r="31" stroke="#43CEFC" stroke-width="2"/>
<path d="M54.4667 58.0557L46.8679 53H40V66H53.7358L68 59.5C67.1195 58.0556 64.5132 55.3833 61.1321 56.25C57.7509 57.1167 53.7358 58.4167 52.1509 58.9583H46.8679" stroke="#43CEFC" stroke-width="2"/>
<path d="M45.0394 53.3541C44.8779 52.6979 44.7924 52.0131 44.7924 51.309C44.7924 46.4595 48.8472 42.5283 53.8491 42.5283C58.8509 42.5283 62.9057 46.4595 62.9057 51.309C62.9057 53.0384 62.3899 54.6511 61.4995 56.0103" stroke="#43CEFC" stroke-width="2"/>
<path d="M54.2205 46.5603L54.2201 45.0004V45H52.8384L52.8389 46.5479C51.1652 46.7062 50 47.483 50 48.8326C50 50.2161 51.3563 51.1075 53.3653 51.1459L53.6343 51.1485C54.9556 51.1763 55.6188 51.6145 55.6188 52.1392C55.6188 52.7234 54.858 53.1312 53.5002 53.1312C52.1655 53.1312 51.3817 52.6484 51.3817 52.1388H50L50.0018 52.2291C50.0576 53.416 51.2168 54.2426 52.8384 54.419V56H54.2201L54.2205 54.4181C55.8624 54.2475 57 53.4729 57 52.1396C57 50.7249 55.5824 49.825 53.4998 49.825L53.3662 49.8232C52.0449 49.7959 51.3812 49.3577 51.3812 48.833C51.3812 48.2484 52.1416 47.841 53.4998 47.841C54.8354 47.841 55.6183 48.3234 55.6183 48.833H57L56.9977 48.7426C56.9429 47.5699 55.8118 46.7494 54.2205 46.5603Z" fill="#43CEFC"/>
<path d="M51.0189 42.5283L48.1887 38H58.9434L56.1132 42.5283" stroke="#43CEFC" stroke-width="2"/>
<defs>
<radialGradient id="paint0_radial_457_4714" cx="0" cy="0" r="1" gradientUnits="userSpaceOnUse" gradientTransform="translate(51.8076 51.8097) rotate(71.1324) scale(51.2455 52.664)">
<stop offset="0.00540541" stop-color="#474DFF"/>
<stop offset="1" stop-color="#474DFF" stop-opacity="0"/>
</radialGradient>
</defs>
</svg>
