<svg width="64" height="64" viewBox="0 0 64 64" fill="none" xmlns="http://www.w3.org/2000/svg">
<path d="M54.8571 42.6665H57.9046V45.7143H54.8571V42.6665ZM54.8571 39.619H57.9046V42.6665H54.8571V39.619ZM54.8571 36.5714H57.9046V39.619H54.8571V36.5714ZM54.8571 33.5239H57.9046V36.5714H54.8571V33.5239ZM54.8571 30.4761H57.9046V33.5239H54.8571V30.4761ZM54.8571 27.4286H57.9046V30.4761H54.8571V27.4286ZM54.8571 24.381H57.9046V27.4286H54.8571V24.381ZM54.8571 21.3333H57.9046V24.381H54.8571V21.3333ZM51.8093 45.7143H54.8571V48.7618H51.8093V45.7143ZM51.8093 42.6665H54.8571V45.7143H51.8093V42.6665ZM51.8093 39.619H54.8571V42.6665H51.8093V39.619Z" fill="#231815"/>
<path d="M51.8093 36.5715H54.8571V39.619H51.8093V36.5715ZM51.8093 33.524H54.8571V36.5715H51.8093V33.524ZM51.8093 30.4762H54.8571V33.524H51.8093V30.4762ZM51.8093 27.4286H54.8571V30.4762H51.8093V27.4286ZM51.8093 24.3811H54.8571V27.4286H51.8093V24.3811Z" fill="#FBB002"/>
<path d="M51.8093 21.3334H54.857V24.3811H51.8093V21.3334ZM51.8093 18.2858H54.857V21.3334H51.8093V18.2858ZM51.8093 15.2383H54.857V18.2858H51.8093V15.2383ZM48.7617 48.7619H51.8093V51.8095H48.7617V48.7619ZM48.7617 45.7144H51.8093V48.7619H48.7617V45.7144Z" fill="#231815"/>
<path d="M48.7617 42.6664H51.8093V45.7142H48.7617V42.6664ZM48.7617 39.6189H51.8093V42.6664H48.7617V39.6189Z" fill="#FBB002"/>
<path d="M48.7617 36.5715H51.8093V39.619H48.7617V36.5715ZM48.7617 33.524H51.8093V36.5715H48.7617V33.524ZM48.7617 30.4762H51.8093V33.524H48.7617V30.4762ZM48.7617 27.4286H51.8093V30.4762H48.7617V27.4286ZM48.7617 24.3811H51.8093V27.4286H48.7617V24.3811Z" fill="#010101"/>
<path d="M48.7617 21.3333H51.8093V24.381H48.7617V21.3333Z" fill="#FBB002"/>
<path d="M51.8094 18.2856V21.3332H45.7144V18.2856H51.8094Z" fill="#F5F5F5"/>
<path d="M48.7619 15.2382H51.8094V18.2857H48.7619V15.2382ZM48.7619 12.1904H51.8094V15.2382H48.7619V12.1904ZM45.7144 51.8094H48.7619V54.8572H45.7144V51.8094ZM45.7144 48.7619H48.7619V51.8094H45.7144V48.7619Z" fill="#231815"/>
<path d="M45.7144 45.7143H48.7619V48.7618H45.7144V45.7143ZM45.7144 42.6665H48.7619V45.7143H45.7144V42.6665Z" fill="#FBB002"/>
<path d="M45.7144 39.6189H48.7619V42.6664H45.7144V39.6189Z" fill="#010101"/>
<path d="M45.7144 36.5715H48.7619V39.619H45.7144V36.5715ZM45.7144 33.524H48.7619V36.5715H45.7144V33.524ZM45.7144 30.4762H48.7619V33.524H45.7144V30.4762ZM45.7144 27.4286H48.7619V30.4762H45.7144V27.4286ZM45.7144 24.3811H48.7619V27.4286H45.7144V24.3811Z" fill="#EB8F01"/>
<path d="M45.7144 21.3333H48.7619V24.381H45.7144V21.3333Z" fill="#010101"/>
<path d="M45.7144 15.2383H48.7619V18.2858H45.7144V15.2383Z" fill="#FBB002"/>
<path d="M45.7143 12.1904H48.7618V15.2381H45.7143V12.1904ZM45.7143 9.14282H48.7618V12.1904H45.7143V9.14282ZM42.6665 51.8093H45.7143V54.8571H42.6665V51.8093Z" fill="#231815"/>
<path d="M42.6665 48.7619H45.7143V51.8094H42.6665V48.7619ZM42.6665 45.7144H45.7143V48.7619H42.6665V45.7144Z" fill="#FBB002"/>
<path d="M42.6665 42.6665H45.7143V45.7143H42.6665V42.6665Z" fill="#010101"/>
<path d="M42.6665 39.619H45.7143V42.6666H42.6665V39.619ZM42.6665 36.5715H45.7143V39.619H42.6665V36.5715ZM42.6665 33.524H45.7143V36.5715H42.6665V33.524ZM42.6665 30.4762H45.7143V33.524H42.6665V30.4762ZM42.6665 27.4286H45.7143V30.4762H42.6665V27.4286ZM42.6665 24.3811H45.7143V27.4286H42.6665V24.3811Z" fill="#EB8F01"/>
<path d="M42.6665 21.3333H45.7143V24.381H42.6665V21.3333Z" fill="#EB8E00"/>
<path d="M42.6665 18.2858H45.7143V21.3334H42.6665V18.2858ZM42.6665 15.2383H45.7143V18.2858H42.6665V15.2383Z" fill="#010101"/>
<path d="M42.6665 12.1904H45.7143V15.2382H42.6665V12.1904Z" fill="#FBB002"/>
<path d="M42.6664 9.14282H45.7142V12.1904H42.6664V9.14282ZM39.6189 54.8571H42.6664V57.9047H39.6189V54.8571ZM39.6189 51.8093H42.6664V54.8571H39.6189V51.8093Z" fill="#231815"/>
<path d="M39.6189 48.7617H42.6664V51.8093H39.6189V48.7617Z" fill="#FBB002"/>
<path d="M39.6189 45.7144H42.6664V48.7619H39.6189V45.7144Z" fill="#010101"/>
<path d="M39.6189 42.6665H42.6664V45.7143H39.6189V42.6665Z" fill="#EB8F01"/>
<path d="M39.6189 39.6189H42.6664V42.6665H39.6189V39.6189ZM39.6189 36.5714H42.6664V39.6189H39.6189V36.5714ZM39.6189 33.5238H42.6664V36.5714H39.6189V33.5238ZM39.6189 30.4761H42.6664V33.5238H39.6189V30.4761Z" fill="#FFEA54"/>
<path d="M39.6189 27.4285H42.6664V30.476H39.6189V27.4285Z" fill="#EB8F01"/>
<path d="M39.6189 24.381H42.6664V27.4286H39.6189V24.381ZM39.6189 21.3333H42.6664V24.381H39.6189V21.3333Z" fill="#FFEA54"/>
<path d="M39.6189 18.2856H42.6664V21.3332H39.6189V18.2856Z" fill="#EB8F01"/>
<path d="M39.6189 15.2383H42.6664V18.2858H39.6189V15.2383Z" fill="#010101"/>
<path d="M39.6189 12.1904H42.6664V15.2382H39.6189V12.1904Z" fill="#F5F5F5"/>
<path d="M39.6189 9.14282H42.6664V12.1904H39.6189V9.14282Z" fill="#231815"/>
<path d="M39.6191 6.09521H42.6666V9.14276H39.6191V6.09521ZM36.5715 54.857H39.6191V57.9046H36.5715V54.857Z" fill="#231815"/>
<path d="M36.5715 51.8093H39.6191V54.8571H36.5715V51.8093Z" fill="#FBB002"/>
<path d="M36.5715 48.7617H39.6191V51.8093H36.5715V48.7617Z" fill="#010101"/>
<path d="M36.5715 45.7144H39.6191V48.7619H36.5715V45.7144Z" fill="#010202"/>
<path d="M36.5715 42.6665H39.6191V45.7142H36.5715V42.6665ZM36.5715 39.6189H39.6191V42.6665H36.5715V39.6189ZM36.5715 36.5714H39.6191V39.6189H36.5715V36.5714ZM36.5715 33.5238H39.6191V36.5714H36.5715V33.5238ZM36.5715 30.4761H39.6191V33.5238H36.5715V30.4761Z" fill="#FFEA54"/>
<path d="M36.5715 27.4285H39.6191V30.476H36.5715V27.4285Z" fill="#EB8F01"/>
<path d="M36.5715 24.381H39.6191V27.4286H36.5715V24.381ZM36.5715 21.3333H39.6191V24.381H36.5715V21.3333Z" fill="#FFEA54"/>
<path d="M36.5715 18.2858H39.6191V21.3334H36.5715V18.2858ZM36.5715 15.2383H39.6191V18.2858H36.5715V15.2383Z" fill="#EB8F01"/>
<path d="M36.5715 12.1904H39.6191V15.2382H36.5715V12.1904Z" fill="#010101"/>
<path d="M36.5715 9.14282H39.6191V12.1904H36.5715V9.14282Z" fill="#FBB002"/>
<path d="M36.5715 6.09521H39.619V9.14276H36.5715V6.09521ZM33.5237 54.857H36.5715V57.9046H33.5237V54.857Z" fill="#231815"/>
<path d="M33.5237 51.8093H36.5715V54.8571H33.5237V51.8093Z" fill="#FBB002"/>
<path d="M33.5237 48.7617H36.5715V51.8093H33.5237V48.7617Z" fill="#010101"/>
<path d="M33.5237 45.7144H36.5715V48.7619H33.5237V45.7144Z" fill="#EB8F01"/>
<path d="M33.5237 42.6664H36.5715V45.7142H33.5237V42.6664ZM33.5237 39.6189H36.5715V42.6664H33.5237V39.6189Z" fill="#FFEA54"/>
<path d="M33.5237 36.5715H36.5715V39.6191H33.5237V36.5715Z" fill="#EB8F01"/>
<path d="M33.5237 33.5238H36.5715V36.5714H33.5237V33.5238ZM33.5237 30.4761H36.5715V33.5238H33.5237V30.4761Z" fill="#FFEA54"/>
<path d="M33.5237 27.4285H36.5715V30.476H33.5237V27.4285Z" fill="#EB8F01"/>
<path d="M33.5237 24.381H36.5715V27.4286H33.5237V24.381ZM33.5237 21.3333H36.5715V24.381H33.5237V21.3333Z" fill="#FFEA54"/>
<path d="M33.5237 18.2858H36.5715V21.3334H33.5237V18.2858ZM33.5237 15.2383H36.5715V18.2858H33.5237V15.2383Z" fill="#EB8F01"/>
<path d="M33.5237 12.1904H36.5715V15.2382H33.5237V12.1904Z" fill="#010101"/>
<path d="M33.5237 9.14282H36.5715V12.1904H33.5237V9.14282Z" fill="#FBB002"/>
<path d="M33.5236 6.09521H36.5714V9.14276H33.5236V6.09521ZM30.4761 54.857H33.5236V57.9046H30.4761V54.857Z" fill="#231815"/>
<path d="M30.4761 51.8093H33.5236V54.8571H30.4761V51.8093Z" fill="#FBB002"/>
<path d="M30.4761 48.7617H33.5236V51.8093H30.4761V48.7617Z" fill="#010101"/>
<path d="M30.4761 45.7144H33.5236V48.7619H30.4761V45.7144Z" fill="#EB8F01"/>
<path d="M30.4761 42.6664H33.5236V45.7142H30.4761V42.6664ZM30.4761 39.6189H33.5236V42.6664H30.4761V39.6189Z" fill="#FFEA54"/>
<path d="M30.4761 36.5715H33.5236V39.6191H30.4761V36.5715Z" fill="#EB8F01"/>
<path d="M30.4761 33.5238H33.5236V36.5714H30.4761V33.5238ZM30.4761 30.4761H33.5236V33.5238H30.4761V30.4761Z" fill="#FFEA54"/>
<path d="M30.4761 27.4285H33.5236V30.476H30.4761V27.4285Z" fill="#EB8F01"/>
<path d="M30.4761 24.381H33.5236V27.4286H30.4761V24.381ZM30.4761 21.3333H33.5236V24.381H30.4761V21.3333Z" fill="#FFEA54"/>
<path d="M30.4761 18.2858H33.5236V21.3334H30.4761V18.2858ZM30.4761 15.2383H33.5236V18.2858H30.4761V15.2383Z" fill="#EB8F01"/>
<path d="M30.4761 12.1904H33.5236V15.2382H30.4761V12.1904Z" fill="#010101"/>
<path d="M30.4761 9.14282H33.5236V12.1904H30.4761V9.14282Z" fill="#FBB002"/>
<path d="M30.476 6.09521H33.5236V9.14276H30.476V6.09521ZM27.4285 54.857H30.476V57.9046H27.4285V54.857Z" fill="#231815"/>
<path d="M27.4285 51.8093H30.476V54.8571H27.4285V51.8093Z" fill="#FBB002"/>
<path d="M27.4285 48.7617H30.476V51.8093H27.4285V48.7617Z" fill="#010101"/>
<path d="M27.4285 45.7144H30.476V48.7619H27.4285V45.7144Z" fill="#EB8F01"/>
<path d="M27.4285 42.6666H30.476V45.7144H27.4285V42.6666ZM27.4285 39.6191H30.476V42.6666H27.4285V39.6191ZM27.4285 36.5715H30.476V39.6191H27.4285V36.5715Z" fill="#FFEA54"/>
<path d="M27.4285 33.5238H30.476V36.5713H27.4285V33.5238ZM27.4285 30.476H30.476V33.5238H27.4285V30.476ZM27.4285 27.4285H30.476V30.476H27.4285V27.4285Z" fill="#EB8F01"/>
<path d="M27.4285 24.381H30.476V27.4286H27.4285V24.381ZM27.4285 21.3333H30.476V24.381H27.4285V21.3333Z" fill="#FFEA54"/>
<path d="M27.4285 18.2858H30.476V21.3334H27.4285V18.2858ZM27.4285 15.2383H30.476V18.2858H27.4285V15.2383Z" fill="#EB8F01"/>
<path d="M27.4285 12.1904H30.476V15.2382H27.4285V12.1904Z" fill="#010101"/>
<path d="M27.4285 9.14282H30.476V12.1904H27.4285V9.14282Z" fill="#FBB002"/>
<path d="M27.4286 6.09521H30.4762V9.14276H27.4286V6.09521ZM24.3811 54.857H27.4286V57.9046H24.3811V54.857Z" fill="#231815"/>
<path d="M24.3811 51.8093H27.4286V54.8571H24.3811V51.8093Z" fill="#FBB002"/>
<path d="M24.3811 48.7617H27.4286V51.8093H24.3811V48.7617Z" fill="#010202"/>
<path d="M24.3811 45.7144H27.4286V48.7619H24.3811V45.7144Z" fill="#010101"/>
<path d="M24.3811 42.6665H27.4286V45.7143H24.3811V42.6665ZM24.3811 39.619H27.4286V42.6665H24.3811V39.619ZM24.3811 36.5714H27.4286V39.619H24.3811V36.5714ZM24.3811 33.5239H27.4286V36.5714H24.3811V33.5239ZM24.3811 30.4761H27.4286V33.5239H24.3811V30.4761ZM24.3811 27.4286H27.4286V30.4761H24.3811V27.4286ZM24.3811 24.381H27.4286V27.4286H24.3811V24.381ZM24.3811 21.3333H27.4286V24.381H24.3811V21.3333Z" fill="#FFEA54"/>
<path d="M24.3811 18.2858H27.4286V21.3334H24.3811V18.2858ZM24.3811 15.2383H27.4286V18.2858H24.3811V15.2383Z" fill="#EB8F01"/>
<path d="M24.3811 12.1904H27.4286V15.2382H24.3811V12.1904Z" fill="#010101"/>
<path d="M24.3811 9.14282H27.4286V12.1904H24.3811V9.14282Z" fill="#FBB002"/>
<path d="M24.381 6.09521H27.4286V9.14276H24.381V6.09521ZM21.3333 54.857H24.381V57.9046H21.3333V54.857ZM21.3333 51.8093H24.381V54.857H21.3333V51.8093Z" fill="#231815"/>
<path d="M21.3333 48.7617H24.381V51.8093H21.3333V48.7617Z" fill="#FBB002"/>
<path d="M21.3333 45.7144H24.381V48.7619H21.3333V45.7144Z" fill="#010101"/>
<path d="M21.3333 42.6665H24.381V45.7143H21.3333V42.6665Z" fill="#EB8F01"/>
<path d="M21.3333 39.619H24.381V42.6665H21.3333V39.619ZM21.3333 36.5714H24.381V39.619H21.3333V36.5714ZM21.3333 33.5239H24.381V36.5714H21.3333V33.5239ZM21.3333 30.4761H24.381V33.5239H21.3333V30.4761ZM21.3333 27.4286H24.381V30.4761H21.3333V27.4286ZM21.3333 24.381H24.381V27.4286H21.3333V24.381ZM21.3333 21.3333H24.381V24.381H21.3333V21.3333Z" fill="#FFEA54"/>
<path d="M21.3333 18.2856H24.381V21.3332H21.3333V18.2856Z" fill="#EB8F01"/>
<path d="M21.3333 15.2383H24.381V18.2858H21.3333V15.2383Z" fill="#010101"/>
<path d="M21.3333 12.1904H24.381V15.2382H21.3333V12.1904Z" fill="#FBB002"/>
<path d="M21.3333 9.14282H24.381V12.1904H21.3333V9.14282Z" fill="#231815"/>
<path d="M21.3332 6.09521H24.381V9.14276H21.3332V6.09521ZM18.2856 51.8093H21.3332V54.857H18.2856V51.8093Z" fill="#231815"/>
<path d="M18.2856 48.7617H21.3332V51.8093H18.2856V48.7617Z" fill="#F5F5F5"/>
<path d="M18.2856 45.7144H21.3332V48.7619H18.2856V45.7144Z" fill="#FBB002"/>
<path d="M18.2856 42.6665H21.3332V45.7143H18.2856V42.6665Z" fill="#010101"/>
<path d="M18.2856 39.6189H21.3332V42.6664H18.2856V39.6189Z" fill="#EB8F01"/>
<path d="M18.2856 36.5715H21.3332V39.6191H18.2856V36.5715Z" fill="#EA8E01"/>
<path d="M18.2856 33.5238H21.3332V36.5713H18.2856V33.5238ZM18.2856 30.476H21.3332V33.5238H18.2856V30.476ZM18.2856 27.4285H21.3332V30.476H18.2856V27.4285Z" fill="#FFEA54"/>
<path d="M18.2856 24.3811H21.3332V27.4286H18.2856V24.3811Z" fill="#EB8E00"/>
<path d="M18.2856 21.3332H21.3332V24.381H18.2856V21.3332ZM18.2856 18.2856H21.3332V21.3332H18.2856V18.2856Z" fill="#EB8F01"/>
<path d="M18.2856 15.2383H21.3332V18.2858H18.2856V15.2383Z" fill="#010101"/>
<path d="M18.2856 12.1904H21.3332V15.2382H18.2856V12.1904Z" fill="#FBB002"/>
<path d="M18.2858 9.14282H21.3334V12.1904H18.2858V9.14282ZM15.2383 51.8093H18.2858V54.8571H15.2383V51.8093Z" fill="#231815"/>
<path d="M15.2383 48.7617H18.2858V51.8093H15.2383V48.7617Z" fill="#F5F5F5"/>
<path d="M15.2383 45.7143H18.2858V48.7618H15.2383V45.7143ZM15.2383 42.6665H18.2858V45.7143H15.2383V42.6665Z" fill="#FBB002"/>
<path d="M15.2383 39.6189H18.2858V42.6664H15.2383V39.6189Z" fill="#010101"/>
<path d="M15.2383 36.5715H18.2858V39.619H15.2383V36.5715ZM15.2383 33.524H18.2858V36.5715H15.2383V33.524ZM15.2383 30.4762H18.2858V33.524H15.2383V30.4762ZM15.2383 27.4286H18.2858V30.4762H15.2383V27.4286ZM15.2383 24.3811H18.2858V27.4286H15.2383V24.3811Z" fill="#EB8F01"/>
<path d="M15.2383 21.3332H18.2858V24.381H15.2383V21.3332ZM15.2383 18.2856H18.2858V21.3332H15.2383V18.2856Z" fill="#010101"/>
<path d="M15.2383 15.2383H18.2858V18.2858H15.2383V15.2383Z" fill="#FBB002"/>
<path d="M15.2382 12.1904H18.2857V15.2381H15.2382V12.1904ZM15.2382 9.14282H18.2857V12.1904H15.2382V9.14282ZM12.1904 48.7618H15.2382V51.8093H12.1904V48.7618ZM12.1904 45.7143H15.2382V48.7618H12.1904V45.7143Z" fill="#231815"/>
<path d="M12.1904 42.6665H15.2382V45.7143H12.1904V42.6665Z" fill="#FBB002"/>
<path d="M12.1904 39.6189H15.2382V42.6664H12.1904V39.6189Z" fill="#F5F5F5"/>
<path d="M12.1904 36.5715H15.2382V39.619H12.1904V36.5715ZM12.1904 33.524H15.2382V36.5715H12.1904V33.524ZM12.1904 30.4762H15.2382V33.524H12.1904V30.4762ZM12.1904 27.4286H15.2382V30.4762H12.1904V27.4286ZM12.1904 24.3811H15.2382V27.4286H12.1904V24.3811Z" fill="#010101"/>
<path d="M12.1904 21.3332H15.2382V24.381H12.1904V21.3332ZM12.1904 18.2856H15.2382V21.3332H12.1904V18.2856Z" fill="#FBB002"/>
<path d="M12.1904 15.2382H15.2381V18.2857H12.1904V15.2382ZM12.1904 12.1904H15.2381V15.2382H12.1904V12.1904ZM9.14282 45.7143H12.1904V48.7619H9.14282V45.7143ZM9.14282 42.6665H12.1904V45.7143H9.14282V42.6665ZM9.14282 39.619H12.1904V42.6665H9.14282V39.619Z" fill="#231815"/>
<path d="M9.14282 36.5715H12.1904V39.619H9.14282V36.5715ZM9.14282 33.524H12.1904V36.5715H9.14282V33.524ZM9.14282 30.4762H12.1904V33.524H9.14282V30.4762ZM9.14282 27.4286H12.1904V30.4762H9.14282V27.4286ZM9.14282 24.3811H12.1904V27.4286H9.14282V24.3811Z" fill="#FBB002"/>
<path d="M9.14276 21.3334H12.1903V24.3811H9.14276V21.3334ZM9.14276 18.2858H12.1903V21.3334H9.14276V18.2858ZM9.14276 15.2383H12.1903V18.2858H9.14276V15.2383ZM6.09521 42.6666H9.14276V45.7144H6.09521V42.6666ZM6.09521 39.6191H9.14276V42.6666H6.09521V39.6191ZM6.09521 36.5715H9.14276V39.6191H6.09521V36.5715ZM6.09521 33.524H9.14276V36.5715H6.09521V33.524ZM6.09521 30.4762H9.14276V33.524H6.09521V30.4762ZM6.09521 27.4287H9.14276V30.4762H6.09521V27.4287ZM6.09521 24.3811H9.14276V27.4287H6.09521V24.3811Z" fill="#231815"/>
<path d="M6.09521 21.3332H9.14276V24.381H6.09521V21.3332ZM6.09521 18.2856H9.14276V21.3332H6.09521V18.2856Z" fill="#231815"/>
</svg>
