<svg width="72" height="72" viewBox="0 0 72 72" fill="none" xmlns="http://www.w3.org/2000/svg">
<rect width="12" height="12" transform="matrix(-1 0 0 1 72 12)" fill="#4951F1"/>
<rect width="12" height="12" transform="matrix(-1 0 0 1 72 24)" fill="#3131A9"/>
<rect width="12" height="12" transform="matrix(-1 0 0 1 60 24)" fill="#4951F1"/>
<rect width="12" height="12" transform="matrix(-1 0 0 1 72 60)" fill="#4951F1"/>
<rect width="12" height="12" transform="matrix(-1 0 0 1 72 48)" fill="#3131A9"/>
<rect width="12" height="12" transform="matrix(-1 0 0 1 36 60)" fill="#3131A9"/>
<rect width="12" height="12" transform="matrix(-1 0 0 1 24 60)" fill="#4951F1"/>
<rect width="12" height="12" transform="matrix(-1 0 0 1 12 48)" fill="#4951F1"/>
<rect width="12" height="12" transform="matrix(-1 0 0 1 48 12)" fill="#4951F1"/>
<rect width="12" height="12" transform="matrix(-1 0 0 1 36 0)" fill="#4951F1"/>
<rect width="12" height="12" transform="matrix(-1 0 0 1 48 36)" fill="#4951F1"/>
<rect width="12" height="12" transform="matrix(-1 0 0 1 60 48)" fill="#4951F1"/>
<rect width="12" height="12" transform="matrix(-1 0 0 1 48 60)" fill="#3131A9"/>
<rect width="12" height="12" transform="matrix(-1 0 0 1 60 60)" fill="#3131A9"/>
</svg>
