<svg width="2256" height="786" viewBox="0 0 2256 786" fill="none" xmlns="http://www.w3.org/2000/svg">
<path d="M2059.28 496.142L2087.04 630.048L2167.99 600L2256 671.5L2158.49 757L2087.04 735.032H1939.76L1736.26 786L1577.25 776.006L1492.75 735.032L1386.75 719.542L1317.25 786H1126.25L872.74 735.032H683.987L383.535 668.075H265.228L74.4255 735.032L0 653.584V568.744L16.0147 573.375L22.2199 627.604H56.3301L62.7211 593.118L74.4255 588.488L123.547 625.677L141.122 426.874L150.412 422.615L165.423 399.278L176.273 406.835L213.727 376.638H219.412L218.967 186.428L281.019 148.905L299.634 130.162H361.575L389.852 170.241L392.601 200.023L410.177 210.506L444.732 176.509L492.76 2.11145L528.654 2.74111L536.234 0L570.806 170.241L587.081 164.722L606.997 76.4514L595.293 321.046L627.88 364.089V393.907L683.987 404.946L807.051 409.354L911.425 195.252L974.481 176.509V218.514L984.439 216.292L992.576 144.542L1024.23 98.1656L1071.27 124.651L1069.9 334.27L1175.37 482.919L1718.27 529.999L1801.5 490.253L1809.93 484.363L1892.22 351.235L1903.67 349.013V300.451L1927.78 256.297L2007.41 321.046L2037.58 490.253L2059.28 496.142Z" fill="url(#paint0_linear_469_7502)"/>
<mask id="mask0_469_7502" style="mask-type:alpha" maskUnits="userSpaceOnUse" x="0" y="0" width="2256" height="786">
<path d="M2059.28 496.142L2087.04 630.048L2167.99 600L2256 671.5L2158.49 757L2087.04 735.032H1939.76L1736.26 786L1577.25 776.006L1492.75 735.032L1386.75 719.542L1317.25 786H1126.25L872.74 735.032H683.987L383.535 668.075H265.228L74.4255 735.032L0 653.584V568.744L16.0147 573.375L22.2199 627.604H56.3301L62.7211 593.118L74.4255 588.488L123.547 625.677L141.122 426.874L150.412 422.615L165.423 399.278L176.273 406.835L213.727 376.638H219.412L218.967 186.428L281.019 148.905L299.634 130.162H361.575L389.852 170.241L392.601 200.023L410.177 210.506L444.732 176.509L492.76 2.11145L528.654 2.74111L536.234 0L570.806 170.241L587.081 164.722L606.997 76.4514L595.293 321.046L627.88 364.089V393.907L683.987 404.946L807.051 409.354L911.425 195.252L974.481 176.509V218.514L984.439 216.292L992.576 144.542L1024.23 98.1656L1071.27 124.651L1069.9 334.27L1175.37 482.919L1718.27 529.999L1801.5 490.253L1809.93 484.363L1892.22 351.235L1903.67 349.013V300.451L1927.78 256.297L2007.41 321.046L2037.58 490.253L2059.28 496.142Z" fill="url(#paint1_linear_469_7502)"/>
</mask>
<g mask="url(#mask0_469_7502)">
<g opacity="0.24" filter="url(#filter0_f_469_7502)">
<circle cx="1731" cy="384" r="239" fill="url(#paint2_radial_469_7502)"/>
</g>
<path fill-rule="evenodd" clip-rule="evenodd" d="M1404.97 577C1397.46 578.574 1391.92 580.934 1388.75 598.246C1387.12 607.179 1378.22 612.131 1369.76 616.832C1361.84 621.241 1354.31 625.43 1353.54 632.475C1352.16 645.162 1390.68 639.047 1409.02 634.379C1408.9 635.534 1408.77 636.706 1408.64 637.895C1404.55 675.448 1398.7 729.085 1418.5 731.285C1428.6 732.407 1425.02 714.944 1420.41 692.518C1416.5 673.451 1411.85 650.796 1414.25 632.924C1414.74 632.768 1415.2 632.618 1415.62 632.475C1416.65 632.123 1417.82 631.734 1419.11 631.307C1432.22 626.962 1456.95 618.76 1454.43 607.295C1452.78 599.794 1444.95 598.159 1437.72 596.648C1432.81 595.622 1428.18 594.655 1425.94 591.951C1425.67 591.615 1425.39 591.276 1425.1 590.933C1419.76 584.454 1413.62 577 1404.97 577Z" fill="url(#paint3_linear_469_7502)"/>
<path fill-rule="evenodd" clip-rule="evenodd" d="M1457.35 641.833C1461.55 643.692 1464.49 645.763 1464.17 656.272C1464.01 661.694 1468.59 665.7 1472.95 669.503C1477.02 673.069 1480.9 676.457 1480.47 680.669C1479.69 688.243 1458 679.887 1447.86 674.866C1447.66 676.062 1447.46 677.296 1447.26 678.561C1443.69 700.844 1438.59 732.671 1426.84 730.814C1420.84 729.866 1425.67 720.371 1431.86 708.176C1437.33 697.399 1443.87 684.515 1444.96 673.559C1444.97 673.494 1444.98 673.429 1444.98 673.364C1444.7 673.203 1444.44 673.051 1444.2 672.909C1443.64 672.576 1443.01 672.202 1442.31 671.792C1435.2 667.615 1421.77 659.732 1424.68 653.349C1426.58 649.174 1431.35 649.197 1435.77 649.218C1438.76 649.232 1441.59 649.246 1443.24 647.946C1443.44 647.785 1443.65 647.621 1443.85 647.457C1447.78 644.339 1452.3 640.753 1457.35 641.833Z" fill="url(#paint4_linear_469_7502)"/>
<path fill-rule="evenodd" clip-rule="evenodd" d="M1378.16 650.666C1374.88 652.122 1372.57 653.744 1372.82 661.976C1372.95 666.207 1371.34 668.032 1369.85 669.732C1368.44 671.34 1367.12 672.836 1367.47 676.149C1368.05 681.799 1378.39 679.527 1384.98 676.738C1385.07 677.194 1385.15 677.655 1385.24 678.12C1389.43 700.293 1395.42 731.964 1407.12 729.778C1413.09 728.662 1408 719.306 1401.47 707.29C1396.11 697.424 1389.77 685.767 1387.78 675.404C1388.02 675.271 1388.25 675.139 1388.47 675.009C1389.02 674.676 1389.64 674.32 1390.29 673.943C1395.35 671.02 1402.59 666.84 1400.38 661.976C1398.81 658.53 1396.07 657.833 1393.46 657.168C1391.91 656.774 1390.41 656.392 1389.22 655.454C1389.06 655.328 1388.9 655.2 1388.74 655.071C1385.66 652.629 1382.12 649.819 1378.16 650.666Z" fill="url(#paint5_linear_469_7502)"/>
<path fill-rule="evenodd" clip-rule="evenodd" d="M1354.31 691.576C1352.12 693.678 1350.76 695.628 1353.33 702.084C1354.65 705.402 1353.91 707.311 1353.21 709.089C1352.56 710.771 1351.95 712.335 1353.17 714.864C1355.37 719.391 1363.57 713.896 1367.87 709.676C1378.66 724.105 1396.23 741.727 1399.61 731.979C1401.94 725.253 1396.39 723.377 1389.14 720.925C1382.35 718.632 1374.07 715.834 1369.34 708.092C1369.4 708.03 1369.45 707.969 1369.5 707.908C1369.84 707.484 1370.23 707.024 1370.63 706.538C1373.81 702.76 1378.34 697.36 1375.19 694.141C1372.95 691.861 1370.57 692.098 1368.31 692.323C1366.97 692.457 1365.67 692.587 1364.46 692.186C1364.3 692.132 1364.13 692.077 1363.96 692.022C1360.82 690.973 1357.2 689.766 1354.31 691.576Z" fill="url(#paint6_linear_469_7502)"/>
<path fill-rule="evenodd" clip-rule="evenodd" d="M1928.01 755.719L1900.19 709.604L1874.35 698L1863 702.531L1887.3 757.339L1913.61 759.062L1928.01 755.719Z" fill="#361D6B"/>
<path fill-rule="evenodd" clip-rule="evenodd" d="M1900.19 709.604L1879.72 716.991L1867.9 702.228L1874.35 698L1900.19 709.604Z" fill="#4D3395"/>
<path fill-rule="evenodd" clip-rule="evenodd" d="M1913.61 759.061L1879.72 716.991L1900.19 709.604L1928.01 755.718L1913.61 759.061Z" fill="#251358"/>
<path fill-rule="evenodd" clip-rule="evenodd" d="M1883.58 721.786L1882.44 715.765L1876.5 712.979L1883.58 721.786Z" fill="#150B4D"/>
<path fill-rule="evenodd" clip-rule="evenodd" d="M1980 737.719L2007.83 691.604L2033.67 680L2045.02 684.531L2020.71 739.339L1994.41 741.062L1980 737.719Z" fill="#251358"/>
<path fill-rule="evenodd" clip-rule="evenodd" d="M2007.83 691.604L2028.3 698.991L2040.12 684.228L2033.66 680L2007.83 691.604Z" fill="#4D3395"/>
<path fill-rule="evenodd" clip-rule="evenodd" d="M1994.41 741.061L2028.3 698.991L2007.83 691.604L1980 737.718L1994.41 741.061Z" fill="#361D6B"/>
<path fill-rule="evenodd" clip-rule="evenodd" d="M2024.44 703.786L2025.58 697.765L2031.51 694.979L2024.44 703.786Z" fill="#290B4D"/>
<path fill-rule="evenodd" clip-rule="evenodd" d="M2002.64 750.601L1960.23 650.709L1911.98 620.223L1888.05 626.038L1920.97 742.272L1972.95 753.178L2002.64 750.601Z" fill="#361D6B"/>
<path fill-rule="evenodd" clip-rule="evenodd" d="M1960.23 650.709L1917.3 659.632L1897.91 626.825L1911.99 620.223L1960.23 650.709Z" fill="#4D3395"/>
<path fill-rule="evenodd" clip-rule="evenodd" d="M1972.95 753.177L1917.3 659.631L1960.23 650.709L2002.64 750.601L1972.95 753.177Z" fill="#251358"/>
<path fill-rule="evenodd" clip-rule="evenodd" d="M1923.63 670.292L1923.07 657.958L1912.02 650.715L1923.63 670.292Z" fill="#150B4D"/>
<path fill-rule="evenodd" clip-rule="evenodd" d="M880.032 740.625L878 748.021L905.184 748.725L945.831 713.317L952.23 687.466L921.85 687L880.032 740.625Z" fill="#361D6B"/>
<path fill-rule="evenodd" clip-rule="evenodd" d="M921.852 687L908.371 710.055H937.288L952.232 687.466L921.852 687Z" fill="#4D3395"/>
<path fill-rule="evenodd" clip-rule="evenodd" d="M908.369 710.055L878 748.021L880.032 740.625L921.85 687L908.369 710.055Z" fill="#251358"/>
<path fill-rule="evenodd" clip-rule="evenodd" d="M910.369 706.642L915.116 710.055L906.891 711.903L910.369 706.642Z" fill="#150B4D"/>
<path fill-rule="evenodd" clip-rule="evenodd" d="M924.159 734.833L937.287 728.678L946.997 730.937L931.842 745.81L911.978 755.59L912.623 748.725H906.891L924.159 734.833Z" fill="#361D6B"/>
<path fill-rule="evenodd" clip-rule="evenodd" d="M937.285 728.678L924.156 734.833L932.305 739.509L946.994 730.937L937.285 728.678Z" fill="#4D3395"/>
<path fill-rule="evenodd" clip-rule="evenodd" d="M906.891 748.724L913.626 747.738L932.308 739.508L924.159 734.832L906.891 748.724Z" fill="#251358"/>
<path fill-rule="evenodd" clip-rule="evenodd" d="M929.711 738.019L932.003 739.639L935.893 737.412L929.711 738.019Z" fill="#150B4D"/>
<path fill-rule="evenodd" clip-rule="evenodd" d="M872.897 722.318L877.723 708.645L886.146 703.312L886.109 724.546L879.139 745.561L874.701 740.285L870.678 744.369L872.897 722.318Z" fill="#361D6B"/>
<path fill-rule="evenodd" clip-rule="evenodd" d="M877.724 708.644L872.897 722.317L881.947 719.792L886.147 703.312L877.724 708.644Z" fill="#4D3395"/>
<path fill-rule="evenodd" clip-rule="evenodd" d="M870.679 744.369L874.703 738.879L881.948 719.793L872.898 722.318L870.679 744.369Z" fill="#251358"/>
<path fill-rule="evenodd" clip-rule="evenodd" d="M879.065 720.596L881.828 720.1L882.971 715.765L879.065 720.596Z" fill="#150B4D"/>
</g>
<defs>
<filter id="filter0_f_469_7502" x="992" y="-355" width="1478" height="1478" filterUnits="userSpaceOnUse" color-interpolation-filters="sRGB">
<feFlood flood-opacity="0" result="BackgroundImageFix"/>
<feBlend mode="normal" in="SourceGraphic" in2="BackgroundImageFix" result="shape"/>
<feGaussianBlur stdDeviation="250" result="effect1_foregroundBlur_469_7502"/>
</filter>
<linearGradient id="paint0_linear_469_7502" x1="856.24" y1="514.671" x2="1930.76" y2="542.69" gradientUnits="userSpaceOnUse">
<stop stop-color="#1A073E"/>
<stop offset="1" stop-color="#1E0B45"/>
</linearGradient>
<linearGradient id="paint1_linear_469_7502" x1="856.24" y1="514.671" x2="1930.76" y2="542.69" gradientUnits="userSpaceOnUse">
<stop stop-color="#1A073E"/>
<stop offset="1" stop-color="#1E0B45"/>
</linearGradient>
<radialGradient id="paint2_radial_469_7502" cx="0" cy="0" r="1" gradientUnits="userSpaceOnUse" gradientTransform="translate(1512 463) rotate(-9.34898) scale(664.831 14711.5)">
<stop stop-color="#43CEFC"/>
<stop offset="0.449774" stop-color="#DE15F3"/>
<stop offset="1" stop-color="#FEF3FF"/>
</radialGradient>
<linearGradient id="paint3_linear_469_7502" x1="1417.19" y1="621.644" x2="1404.71" y2="577" gradientUnits="userSpaceOnUse">
<stop stop-color="#15052F"/>
<stop offset="1" stop-color="#39185C"/>
</linearGradient>
<linearGradient id="paint4_linear_469_7502" x1="1444.64" y1="666.387" x2="1457.51" y2="641.865" gradientUnits="userSpaceOnUse">
<stop stop-color="#15052F"/>
<stop offset="1" stop-color="#39185C"/>
</linearGradient>
<linearGradient id="paint5_linear_469_7502" x1="1390.59" y1="666.659" x2="1376.08" y2="643.979" gradientUnits="userSpaceOnUse">
<stop stop-color="#15052F"/>
<stop offset="1" stop-color="#39185C"/>
</linearGradient>
<linearGradient id="paint6_linear_469_7502" x1="1368.4" y1="698.068" x2="1353.66" y2="685.155" gradientUnits="userSpaceOnUse">
<stop stop-color="#15052F"/>
<stop offset="1" stop-color="#39185C"/>
</linearGradient>
</defs>
</svg>
