<svg width="1840" height="1104" viewBox="0 0 1840 1104" fill="none" xmlns="http://www.w3.org/2000/svg">
<path d="M1298 696.5L1238 442L1047.5 480L1037 636.5L1085.5 680.5V807L1238 843V741L1298 696.5Z" fill="url(#paint0_linear_469_6851)"/>
<path d="M1579 495.5L1639 241L1829.5 279L1840 435.5L1791.5 479.5V606L1639 642V540L1579 495.5Z" fill="url(#paint1_linear_469_6851)"/>
<path d="M962.996 254.5L902.996 0L712.496 38L701.996 194.5L750.496 238.5V365L902.996 401V299L962.996 254.5Z" fill="url(#paint2_linear_469_6851)"/>
<path d="M1152.23 1027.15C1084.73 1044.31 954.931 1058.85 975.731 979.648C989.916 925.634 988.784 789.017 983.88 670C983.763 667.153 952.162 650.855 937.999 635.5C932.859 629.928 919.999 592 919.999 592L923.499 590C923.499 590 931.499 604.572 942.499 626.5C954.364 635.691 982.764 644.551 982.668 642.5C980.563 597.596 978.025 556.524 975.731 525.148C995.897 488.814 1034.93 437.948 1029.73 525.148C1023.23 634.148 1053.27 708.648 1058.5 715C1062.57 719.94 1084.3 699.795 1093.96 687.795L1110.73 671.648H1113.23L1102.23 687.795L1139 686L1149.77 666H1151.27L1146.27 682.352L1174.27 665.852L1176.77 666L1142.5 691.5L1101.5 703C1091 717.333 1069.43 751.548 1066.23 761.148C1063.03 770.748 1122.23 942.481 1152.23 1027.15Z" fill="#15052F"/>
<path d="M1438.09 1087.79C1507.74 1087.79 1637.12 1069.89 1597.44 998.257C1577.66 962.558 1560.01 906.082 1539.62 819.856C1538.86 816.618 1564.83 800.382 1564.07 797.13C1563.99 796.779 1568.87 783.528 1576.22 773.918C1582.87 768.565 1604.12 765.033 1604.92 763.009C1605.72 760.984 1574.64 770.365 1575.37 768.46C1578.19 761.069 1580.17 755.145 1579.18 755.109C1578.16 755.072 1560.27 791.589 1557.51 793.639C1546.56 801.753 1535.56 802.493 1535.19 800.863C1529.27 775.215 1518.53 725.322 1513.22 700.17C1512.29 695.737 1546.43 634.458 1546.43 634.458L1540.97 633.268C1540.97 633.268 1508.34 676.726 1507.62 673.22C1498.59 629.183 1490.93 588.752 1485.42 557.778C1456.92 527.536 1406.55 487.859 1433.09 571.087C1466.25 675.123 1457.92 757.056 1459.89 764.809C1461.47 771.012 1414.6 762.549 1402.28 753.302L1376.04 718.032L1339.1 698.536L1329.98 698.274L1373.17 727.017L1346 725.672L1346.74 728.58L1374.77 733.317L1400.91 774.287C1414.62 785.59 1450.41 800.288 1455.88 808.803C1461.35 817.318 1446.3 998.345 1438.09 1087.79Z" fill="#1D083F"/>
<path d="M1717.76 1037.98C1739.99 1049.95 1778.97 1055.67 1757 982.845C1746.05 946.55 1733.09 891.472 1715.38 808.509C1714.71 805.393 1720.9 794.892 1720.23 791.764C1720.16 791.427 1720 780.054 1721.1 772.462C1722.52 768.67 1728.85 769.066 1728.84 767.338C1728.84 765.61 1720.13 768.916 1720.12 767.285C1720.06 760.96 1719.92 755.84 1719.6 755.636C1719.27 755.426 1718.3 786.007 1717.68 787.421C1715.24 793.017 1711.83 791.81 1711.5 790.244C1706.28 765.592 1696.37 717.767 1691.41 693.678C1682.81 651.545 1669.82 587.171 1664.04 557.681C1651.02 524.916 1629.79 479.7 1649.06 560.956C1673.16 662.526 1682.09 736.635 1682.78 744.084C1684.47 762.504 1708.76 956.962 1717.76 1037.98Z" fill="#1F0A44"/>
<path d="M1698.35 949.771C1674.55 968.365 1627.25 986.494 1628.38 910.263C1628.95 872.272 1625.19 815.808 1617.2 731.352C1616.9 728.18 1605.21 720.235 1604.91 717.053C1604.87 716.709 1600.91 705.869 1596.73 699.027C1593.53 695.895 1585.66 698.332 1585.03 696.691C1584.41 695.05 1596.65 695.35 1596.07 693.798C1593.83 687.779 1592.13 682.879 1592.46 682.581C1592.8 682.273 1605.24 710.962 1606.54 712.102C1611.69 716.614 1615.58 714.357 1615.42 712.764C1612.99 687.682 1608.01 639.094 1605.46 614.631C1600.91 571.867 1593.76 506.581 1590.27 476.728C1594.76 441.408 1605.09 391.605 1610.45 474.953C1617.17 579.139 1633.03 652.336 1634.89 659.625C1639.5 677.649 1680.03 869.996 1698.35 949.771Z" fill="#1F0A44"/>
<path d="M618.975 925.38C591.207 937.245 540.837 942.628 561.494 869.241C571.79 832.667 582.641 777.129 596.596 693.451C597.12 690.309 587.862 679.63 588.384 676.476C588.441 676.135 587.391 664.641 585.107 656.956C582.82 653.108 574.586 653.443 574.403 651.697C574.219 649.95 585.977 653.382 585.815 651.733C585.189 645.34 584.801 640.166 585.199 639.964C585.61 639.755 590.272 670.676 591.237 672.112C595.054 677.793 599.387 676.608 599.647 675.029C603.737 650.164 611.392 601.925 615.205 577.627C621.779 535.127 631.62 470.192 635.909 440.443C649.314 407.458 672.074 361.972 655.874 443.908C635.625 546.327 632.173 621.144 632.102 628.667C631.928 647.268 621.745 843.577 618.975 925.38Z" fill="#15052F"/>
<path d="M647.531 943.71C741.261 966.446 921.222 984.597 891.225 875.319C870.767 800.793 870.275 611.734 875.271 446.972C875.461 440.704 931.753 371.573 931.958 365.383L924.996 362C924.996 362 876.356 413.85 876.534 408.901C878.772 346.734 881.667 289.862 884.371 246.411C855.898 196.44 801.079 126.643 809.594 247.226C820.239 397.955 761.78 498.233 761.901 509.303C761.997 518.159 734.887 487.455 721.32 470.996L623.612 464.449L580.383 437.242L563.766 437.424L616.771 472.135L712.621 498.769C727.377 518.444 758.033 561.103 762.609 574.339C767.185 587.574 687.797 826.101 647.531 943.71Z" fill="#15052F"/>
<path d="M290.742 888.785C194.617 896.67 14.0222 886.618 60.6465 783.334C92.4438 712.895 122.327 526.212 143.011 362.677C143.798 356.456 98.9404 279.413 99.7002 273.266L107.103 271.006C107.103 271.006 147.09 329.789 147.683 324.872C155.139 263.113 161.122 206.484 165.207 163.141C201.105 118.204 266.11 57.7802 238.948 175.573C204.996 322.814 247.151 430.962 245.311 441.878C243.838 450.611 275.392 424.496 291.354 410.347L388.892 419.073L435.825 398.919L452.212 401.681L394.454 427.729L295.629 439.135C277.993 456.276 241.076 493.649 234.498 506.013C227.92 518.376 269.253 766.346 290.742 888.785Z" fill="#15052F"/>
<path d="M809.996 289C813.329 383.667 847.096 573 955.496 573C1063.9 573 1076 408.667 1068.5 326.5" stroke="#4A167A"/>
<path d="M1412 758C1412.53 773 1417.84 803 1434.92 803C1451.99 803 1454.68 780.519 1453.5 767.5" stroke="#4D2770"/>
<path d="M1345 702C1345.2 707.667 1347.24 723 1353.78 723C1360.33 723 1361.45 715.418 1361 710.5" stroke="#4D2770"/>
<path d="M1412 758C1412.53 790 1417.88 854 1435.06 854C1452.24 854 1454.95 806.041 1453.76 778.267" stroke="#4D2770"/>
<path d="M1536 663C1537.35 687.333 1550.98 736 1594.75 736C1638.52 736 1645.41 699.531 1642.38 678.411" stroke="#4D2770"/>
<path d="M1628 674.704C1628.35 699.136 1631.9 748 1643.29 748C1654.68 748 1656.63 689.206 1655.85 668" stroke="#4D2770"/>
<path d="M717.996 199C721.329 293.667 755.096 483 863.496 483C971.896 483 983.996 318.667 976.496 236.5" stroke="#4A167A"/>
<path fill-rule="evenodd" clip-rule="evenodd" d="M1107.73 815.225L1107 817.876L1116.75 818.129L1131.32 805.435L1133.61 796.167L1122.72 796L1107.73 815.225Z" fill="#1A0A4A"/>
<path fill-rule="evenodd" clip-rule="evenodd" d="M1122.72 796L1117.89 804.265H1128.26L1133.62 796.167L1122.72 796Z" fill="#4D3395"/>
<path fill-rule="evenodd" clip-rule="evenodd" d="M1117.89 804.265L1107 817.876L1107.73 815.225L1122.72 796L1117.89 804.265Z" fill="#361D6B"/>
<path fill-rule="evenodd" clip-rule="evenodd" d="M1118.61 803.041L1120.31 804.265L1117.36 804.927L1118.61 803.041Z" fill="#0F073F"/>
<path fill-rule="evenodd" clip-rule="evenodd" d="M1123.55 813.148L1128.26 810.941L1131.74 811.751L1126.3 817.084L1119.18 820.59L1119.41 818.129H1117.36L1123.55 813.148Z" fill="#1A0A4A"/>
<path fill-rule="evenodd" clip-rule="evenodd" d="M1128.26 810.941L1123.55 813.148L1126.47 814.824L1131.74 811.751L1128.26 810.941Z" fill="#4D3395"/>
<path fill-rule="evenodd" clip-rule="evenodd" d="M1117.36 818.129L1119.77 817.775L1126.47 814.825L1123.55 813.148L1117.36 818.129Z" fill="#361D6B"/>
<path fill-rule="evenodd" clip-rule="evenodd" d="M1125.54 814.29L1126.36 814.871L1127.76 814.072L1125.54 814.29Z" fill="#0F073F"/>
<defs>
<linearGradient id="paint0_linear_469_6851" x1="1168" y1="626.5" x2="1167.5" y2="843" gradientUnits="userSpaceOnUse">
<stop stop-color="#402D78"/>
<stop offset="1" stop-color="#221152"/>
</linearGradient>
<linearGradient id="paint1_linear_469_6851" x1="1709" y1="425.5" x2="1709.5" y2="642" gradientUnits="userSpaceOnUse">
<stop stop-color="#402D78"/>
<stop offset="1" stop-color="#221152"/>
</linearGradient>
<linearGradient id="paint2_linear_469_6851" x1="832.996" y1="184.5" x2="832.496" y2="401" gradientUnits="userSpaceOnUse">
<stop stop-color="#402D78"/>
<stop offset="1" stop-color="#221152"/>
</linearGradient>
</defs>
</svg>
