<svg width="52" height="30" viewBox="0 0 52 30" fill="none" xmlns="http://www.w3.org/2000/svg">
<g clip-path="url(#clip0_357_3343)">
<path d="M28.468 15.8981C28.468 16.3181 28.6794 16.6584 29.1021 16.9191C29.5247 17.1653 30.0349 17.368 30.6324 17.5273C31.23 17.6721 31.8276 17.8459 32.4252 18.0486C33.0227 18.2369 33.5328 18.57 33.9556 19.0479C34.3782 19.5112 34.5895 20.1122 34.5895 20.8508C34.5895 21.8356 34.2033 22.6248 33.4309 23.2185C32.6729 23.8122 31.6964 24.1091 30.5013 24.1091C29.4373 24.1091 28.5264 23.8774 27.7685 23.414C27.0106 22.9506 26.4713 22.3351 26.1507 21.5676L27.7904 20.6336C27.9652 21.1549 28.2932 21.5676 28.7742 21.8717C29.2551 22.1759 29.8309 22.3279 30.5013 22.3279C31.128 22.3279 31.6454 22.2121 32.0535 21.9804C32.4616 21.7341 32.6656 21.3576 32.6656 20.8508C32.6656 20.4308 32.4544 20.0977 32.0316 19.8516C31.6089 19.5909 31.0988 19.3881 30.5013 19.2434C29.9038 19.0841 29.3062 18.9031 28.7086 18.7003C28.111 18.4976 27.6009 18.1645 27.1782 17.7011C26.7556 17.2376 26.5442 16.644 26.5442 15.9199C26.5442 14.9786 26.9086 14.2038 27.6373 13.5956C28.3807 12.9874 29.3062 12.6832 30.4139 12.6832C31.3029 12.6832 32.0899 12.886 32.775 13.2915C33.4746 13.6825 33.9993 14.2328 34.3491 14.9424L32.7531 15.833C32.3596 14.9061 31.5798 14.4427 30.4139 14.4427C29.8746 14.4427 29.4155 14.5731 29.0365 14.8337C28.6576 15.08 28.468 15.4347 28.468 15.8981Z" fill="#6FBCF0"/>
<path d="M44.2773 12.9657H46.1793V23.8268H44.2773V22.2628C43.5048 23.4937 42.3242 24.1092 40.7356 24.1092C39.453 24.1092 38.4255 23.7109 37.653 22.9144C36.8806 22.1035 36.4943 21.0101 36.4943 19.6344V12.9657H38.3963V19.5258C38.3963 20.4092 38.6368 21.097 39.1177 21.5894C39.5987 22.0673 40.2619 22.3063 41.1072 22.3063C42.0546 22.3063 42.8198 22.0166 43.4028 21.4374C43.9858 20.8436 44.2773 19.9385 44.2773 18.7221V12.9657Z" fill="#6FBCF0"/>
<path d="M50.037 10.989C49.6726 10.989 49.3665 10.8658 49.1188 10.6197C48.871 10.3735 48.7471 10.0767 48.7471 9.72909C48.7471 9.38151 48.871 9.08468 49.1188 8.83851C49.3665 8.57784 49.6726 8.44751 50.037 8.44751C50.3867 8.44751 50.6856 8.57784 50.9333 8.83851C51.1811 9.08468 51.3049 9.38151 51.3049 9.72909C51.3049 10.0767 51.1811 10.3735 50.9333 10.6197C50.6856 10.8658 50.3867 10.989 50.037 10.989ZM49.075 23.8268V12.9657H50.977V23.8268H49.075Z" fill="#6FBCF0"/>
<path fill-rule="evenodd" clip-rule="evenodd" d="M1.38952 24.2328C3.24223 27.4215 6.56074 29.3249 10.2661 29.3249C13.9716 29.3249 17.2894 27.4215 19.1428 24.2328C20.9955 21.0446 20.9955 17.2378 19.1428 14.049L11.3356 0.613482C10.8603 -0.204495 9.672 -0.204494 9.1967 0.613484L1.38952 14.049C-0.463175 17.2371 -0.463175 21.044 1.38952 24.2328ZM8.06686 7.00534L9.73138 4.14068C9.96907 3.73167 10.5632 3.73167 10.8009 4.14068L17.2045 15.1613C18.3811 17.1859 18.6019 19.5292 17.867 21.6734C17.7905 21.3236 17.6836 20.9657 17.5394 20.6041C16.6549 18.3862 14.6549 16.6747 11.5938 15.5168C9.48925 14.7236 8.1459 13.557 7.60004 12.0493C6.89695 10.1059 7.63131 7.98676 8.06686 7.00534ZM5.22849 11.8901L3.32772 15.1613C1.87938 17.6538 1.87938 20.6292 3.32772 23.1217C4.77606 25.6142 7.36947 27.1016 10.2661 27.1016C12.1901 27.1016 13.9807 26.4448 15.3907 25.2734C15.5746 24.8134 16.144 23.1297 15.4405 21.3943C14.7907 19.7917 13.227 18.5125 10.7926 17.5911C8.04074 16.5539 6.25292 14.9348 5.47983 12.7799C5.37334 12.4833 5.29062 12.1859 5.22849 11.8901Z" fill="#6FBCF0"/>
</g>
<defs>
<clipPath id="clip0_357_3343">
<rect width="52" height="30" fill="white"/>
</clipPath>
</defs>
</svg>
