<svg width="36" height="21" viewBox="0 0 36 21" fill="none" xmlns="http://www.w3.org/2000/svg">
<g clip-path="url(#clip0_699_6672)">
<path d="M19.7059 11.1293C19.7059 11.4233 19.8522 11.6615 20.1449 11.844C20.4374 12.0164 20.7906 12.1582 21.2043 12.2698C21.618 12.3711 22.0317 12.4928 22.4454 12.6347C22.8591 12.7665 23.2123 12.9996 23.5049 13.3342C23.7975 13.6585 23.9438 14.0792 23.9438 14.5962C23.9438 15.2855 23.6765 15.838 23.1417 16.2536C22.617 16.6692 21.9409 16.877 21.1135 16.877C20.3769 16.877 19.7463 16.7148 19.2216 16.3904C18.6969 16.0661 18.3235 15.6352 18.1016 15.098L19.2367 14.4441C19.3578 14.8091 19.5848 15.098 19.9178 15.3109C20.2508 15.5238 20.6494 15.6302 21.1135 15.6302C21.5474 15.6302 21.9056 15.5491 22.1881 15.3869C22.4706 15.2145 22.6119 14.951 22.6119 14.5962C22.6119 14.3022 22.4656 14.0691 22.173 13.8967C21.8803 13.7143 21.5272 13.5723 21.1135 13.471C20.6998 13.3595 20.2861 13.2328 19.8724 13.0909C19.4587 12.9489 19.1056 12.7158 18.8129 12.3914C18.5203 12.067 18.374 11.6514 18.374 11.1446C18.374 10.4856 18.6262 9.94331 19.1308 9.51754C19.6454 9.09182 20.2861 8.87891 21.053 8.87891C21.6685 8.87891 22.2133 9.02083 22.6876 9.30468C23.1719 9.57838 23.5352 9.96361 23.7774 10.4603L22.6725 11.0837C22.4 10.4349 21.8602 10.1106 21.053 10.1106C20.6796 10.1106 20.3618 10.2018 20.0994 10.3843C19.8371 10.5566 19.7059 10.805 19.7059 11.1293Z" fill="#6FBCF0"/>
<path d="M30.6539 9.07422H31.9706V16.677H30.6539V15.5822C30.1191 16.4438 29.3017 16.8747 28.2019 16.8747C27.314 16.8747 26.6026 16.5959 26.0678 16.0383C25.5331 15.4707 25.2656 14.7053 25.2656 13.7423V9.07422H26.5824V13.6663C26.5824 14.2847 26.7489 14.7662 27.0819 15.1108C27.4149 15.4453 27.874 15.6126 28.4592 15.6126C29.1151 15.6126 29.6448 15.4099 30.0485 15.0044C30.4521 14.5888 30.6539 13.9552 30.6539 13.1037V9.07422Z" fill="#6FBCF0"/>
<path d="M34.643 7.69311C34.3907 7.69311 34.1788 7.6069 34.0073 7.43458C33.8358 7.26226 33.75 7.05448 33.75 6.81117C33.75 6.56786 33.8358 6.36008 34.0073 6.18776C34.1788 6.0053 34.3907 5.91406 34.643 5.91406C34.8851 5.91406 35.092 6.0053 35.2635 6.18776C35.435 6.36008 35.5208 6.56786 35.5208 6.81117C35.5208 7.05448 35.435 7.26226 35.2635 7.43458C35.092 7.6069 34.8851 7.69311 34.643 7.69311ZM33.977 16.6795V9.07678H35.2938V16.6795H33.977Z" fill="#6FBCF0"/>
<path fill-rule="evenodd" clip-rule="evenodd" d="M0.961979 16.9629C2.24462 19.195 4.54205 20.5274 7.10733 20.5274C9.67262 20.5274 11.9696 19.195 13.2527 16.9629C14.5353 14.7312 14.5353 12.0664 13.2527 9.8343L7.84771 0.429438C7.51866 -0.143147 6.696 -0.143145 6.36695 0.429439L0.961979 9.8343C-0.32066 12.066 -0.32066 14.7308 0.961979 16.9629ZM5.58475 4.90374L6.73711 2.89847C6.90167 2.61217 7.31299 2.61217 7.47755 2.89847L11.9108 10.6129C12.7254 12.0301 12.8782 13.6704 12.3695 15.1714C12.3165 14.9265 12.2425 14.676 12.1427 14.4229C11.5303 12.8703 10.1457 11.6723 8.02649 10.8617C6.56948 10.3065 5.63947 9.4899 5.26156 8.43447C4.77481 7.07414 5.28322 5.59073 5.58475 4.90374ZM3.61972 8.32306L2.3038 10.6129C1.30111 12.3576 1.30111 14.4404 2.3038 16.1852C3.3065 17.9299 5.10194 18.9711 7.10733 18.9711C8.43927 18.9711 9.67895 18.5114 10.6551 17.6914C10.7824 17.3694 11.1766 16.1908 10.6896 14.976C10.2397 13.8542 9.15718 12.9587 7.4718 12.3138C5.56666 11.5877 4.32894 10.4543 3.79373 8.94594C3.72001 8.73827 3.66273 8.53014 3.61972 8.32306Z" fill="#6FBCF0"/>
</g>
<defs>
<clipPath id="clip0_699_6672">
<rect width="36" height="21" fill="white"/>
</clipPath>
</defs>
</svg>
