<svg width="64" height="64" viewBox="0 0 64 64" fill="none" xmlns="http://www.w3.org/2000/svg">
<path d="M27.4184 51.8237H30.4669V54.8721H27.4184V51.8237ZM30.4669 51.8237H33.5153V54.8721H30.4669V51.8237ZM33.5153 51.8237H36.5638V54.8721H33.5153V51.8237ZM30.4669 48.7752H33.5153V51.8237H30.4669V48.7752ZM21.3215 18.2907H24.37V21.3392H21.3215V18.2907ZM21.3215 21.3392H24.37V24.3876H21.3215V21.3392ZM21.3215 24.3876H24.37V27.4361H21.3215V24.3876ZM21.3215 15.2423H24.37V18.2907H21.3215V15.2423ZM21.3215 12.1938H24.37V15.2423H21.3215V12.1938Z" fill="#F3D52F"/>
<path d="M27.4185 24.3876H30.4669V27.436H27.4185V24.3876Z" fill="white"/>
<path d="M24.3699 18.2906H27.4183V21.3391H24.3699V18.2906Z" fill="#F3D52F"/>
<path d="M24.3699 15.2423H27.4183V18.2907H24.3699V15.2423ZM24.3699 12.1938H27.4183V15.2423H24.3699V12.1938Z" fill="white"/>
<path d="M24.3699 24.3876H27.4183V27.4361H24.3699V24.3876ZM24.3699 21.3392H27.4183V24.3876H24.3699V21.3392ZM30.4668 12.1938H33.5152V15.2423H30.4668V12.1938Z" fill="#F3D52F"/>
<path d="M27.4185 12.1938H30.4669V15.2423H27.4185V12.1938ZM27.4185 21.3392H30.4669V24.3876H27.4185V21.3392ZM27.4185 18.2907H30.4669V21.3392H27.4185V18.2907ZM27.4185 15.2423H30.4669V18.2907H27.4185V15.2423Z" fill="white"/>
<path d="M30.4668 18.2906H33.5152V21.3391H30.4668V18.2906ZM30.4668 21.3391H33.5152V24.3875H30.4668V21.3391Z" fill="#F3D52F"/>
<path d="M30.4668 24.3876H33.5152V27.436H30.4668V24.3876Z" fill="white"/>
<path d="M30.4669 15.2423H33.5154V18.2907H30.4669V15.2423ZM33.5154 24.3876H36.5638V27.4361H33.5154V24.3876ZM33.5154 21.3392H36.5638V24.3876H33.5154V21.3392ZM33.5154 12.1938H36.5638V15.2423H33.5154V12.1938ZM33.5154 18.2907H36.5638V21.3392H33.5154V18.2907ZM36.5638 24.3876H39.6122V27.4361H36.5638V24.3876ZM36.5638 21.3392H39.6122V24.3876H36.5638V21.3392ZM36.5638 18.2907H39.6122V21.3392H36.5638V18.2907ZM36.5638 15.2423H39.6122V18.2907H36.5638V15.2423ZM36.5638 12.1938H39.6122V15.2423H36.5638V12.1938ZM33.5154 15.2423H36.5638V18.2907H33.5154V15.2423ZM27.4185 27.4361H30.4669V30.4845H27.4185V27.4361ZM33.5154 27.4361H36.5638V30.4845H33.5154V27.4361Z" fill="#F3D52F"/>
<path d="M30.4668 27.436H33.5152V30.4845H30.4668V27.436Z" fill="white"/>
<path d="M24.3699 27.436H27.4183V30.4845H24.3699V27.436ZM27.4183 33.5329H30.4668V36.5814H27.4183V33.5329ZM27.4183 30.4845H30.4668V33.5329H27.4183V30.4845ZM30.4668 33.5329H33.5152V36.5814H30.4668V33.5329ZM30.4668 30.4845H33.5152V33.5329H30.4668V30.4845ZM33.5152 33.5329H36.5637V36.5814H33.5152V33.5329Z" fill="#F3D52F"/>
<path d="M33.5154 30.4845H36.5638V33.5329H33.5154V30.4845Z" fill="white"/>
<path d="M36.5637 27.4361H39.6122V30.4845H36.5637V27.4361ZM39.6122 18.2907H42.6606V21.3392H39.6122V18.2907ZM39.6122 12.1938H42.6606V15.2423H39.6122V12.1938ZM39.6122 15.2423H42.6606V18.2907H39.6122V15.2423ZM39.6122 24.3876H42.6606V27.4361H39.6122V24.3876ZM39.6122 21.3392H42.6606V24.3876H39.6122V21.3392Z" fill="#F3D52F"/>
<path d="M24.3699 54.8721H27.4183V57.9205H24.3699V54.8721ZM36.5637 54.8721H39.6121V57.9205H36.5637V54.8721ZM27.4183 54.8721H30.4668V57.9205H27.4183V54.8721ZM33.5152 54.8721H36.5637V57.9205H33.5152V54.8721ZM30.4668 54.8721H33.5152V57.9205H30.4668V54.8721ZM39.6121 54.8721H42.6606V57.9205H39.6121V54.8721ZM39.6121 51.8236H42.6606V54.8721H39.6121V51.8236Z" fill="#D05417"/>
<path d="M36.5637 51.8236H39.6122V54.8721H36.5637V51.8236Z" fill="#F3D52F"/>
<path d="M36.5637 48.7751H39.6122V51.8236H36.5637V48.7751Z" fill="#D05417"/>
<path d="M33.5154 48.7751H36.5638V51.8236H33.5154V48.7751Z" fill="#F3D52F"/>
<path d="M33.5154 45.7267H36.5638V48.7751H33.5154V45.7267Z" fill="#D05417"/>
<path d="M30.4668 42.6782H33.5152V45.7267H30.4668V42.6782Z" fill="#F4CC39"/>
<path d="M30.4668 39.6298H33.5152V42.6783H30.4668V39.6298ZM39.6121 27.436H42.6606V30.4845H39.6121V27.436ZM36.5637 30.4845H39.6121V33.5329H36.5637V30.4845ZM36.5637 33.5329H39.6121V36.5814H36.5637V33.5329ZM33.5152 36.5814H36.5637V39.6298H33.5152V36.5814Z" fill="#D05417"/>
<path d="M30.4668 36.5814H33.5152V39.6299H30.4668V36.5814Z" fill="white"/>
<path d="M27.4183 36.5814H30.4667V39.6299H27.4183V36.5814ZM24.3698 33.533H27.4183V36.5814H24.3698V33.533ZM24.3698 30.4845H27.4183V33.533H24.3698V30.4845ZM21.3214 27.4361H24.3698V30.4845H21.3214V27.4361ZM39.6121 9.14539H42.6605V12.1938H39.6121V9.14539ZM33.5152 9.14539H36.5636V12.1938H33.5152V9.14539ZM30.4667 9.14539H33.5152V12.1938H30.4667V9.14539ZM36.5636 9.14539H39.6121V12.1938H36.5636V9.14539ZM24.3698 9.14539H27.4183V12.1938H24.3698V9.14539ZM27.4183 9.14539H30.4667V12.1938H27.4183V9.14539ZM21.3214 9.14539H24.3698V12.1938H21.3214V9.14539ZM42.6605 18.2907H45.709V21.3392H42.6605V18.2907ZM42.6605 15.2423H45.709V18.2907H42.6605V15.2423ZM42.6605 12.1938H45.709V15.2423H42.6605V12.1938ZM42.6605 9.14539H45.709V12.1938H42.6605V9.14539ZM18.2729 18.2907H21.3214V21.3392H18.2729V18.2907ZM18.2729 15.2423H21.3214V18.2907H18.2729V15.2423ZM18.2729 12.1938H21.3214V15.2423H18.2729V12.1938ZM18.2729 9.14539H21.3214V12.1938H18.2729V9.14539ZM42.6605 24.3876H45.709V27.4361H42.6605V24.3876ZM42.6605 21.3392H45.709V24.3876H42.6605V21.3392Z" fill="#D05417"/>
<path d="M15.2246 15.2422H18.2731V18.2906H15.2246V15.2422Z" fill="white"/>
<path d="M18.2729 21.3391H21.3214V24.3876H18.2729V21.3391ZM18.2729 24.3876H21.3214V27.436H18.2729V24.3876Z" fill="#D05417"/>
<path d="M15.2247 21.3392H18.2732V24.3876H15.2247V21.3392ZM15.2247 18.2907H18.2732V21.3392H15.2247V18.2907ZM12.1763 18.2907H15.2247V21.3392H12.1763V18.2907ZM12.1763 15.2423H15.2247V18.2907H12.1763V15.2423ZM15.2247 12.1938H18.2732V15.2423H15.2247V12.1938ZM12.1763 12.1938H15.2247V15.2423H12.1763V12.1938ZM45.7092 21.3392H48.7576V24.3876H45.7092V21.3392ZM48.7576 18.2907H51.8061V21.3392H48.7576V18.2907ZM45.7092 18.2907H48.7576V21.3392H45.7092V18.2907ZM45.7092 15.2423H48.7576V18.2907H45.7092V15.2423ZM48.7576 15.2423H51.8061V18.2907H48.7576V15.2423ZM48.7576 12.1938H51.8061V15.2423H48.7576V12.1938ZM45.7092 12.1938H48.7576V15.2423H45.7092V12.1938ZM21.3216 54.8721H24.3701V57.9206H21.3216V54.8721ZM24.3701 51.8237H27.4185V54.8721H24.3701V51.8237ZM30.4669 45.7268H33.5154V48.7752H30.4669V45.7268ZM27.4185 48.7752H30.4669V51.8237H27.4185V48.7752Z" fill="white"/>
<path d="M21.3215 51.8236H24.37V54.8721H21.3215V51.8236ZM24.37 48.7752H27.4184V51.8236H24.37V48.7752ZM27.4184 45.7267H30.4669V48.7752H27.4184V45.7267ZM45.7091 9.14537H48.7576V12.1938H45.7091V9.14537ZM48.7576 6.09692H51.806V9.14537H48.7576V6.09692Z" fill="#F4CC39"/>
<path d="M45.709 6.09692H48.7575V9.14537H45.709V6.09692ZM48.7575 9.14537H51.8059V12.1938H48.7575V9.14537ZM51.8059 9.14537H54.8544V12.1938H51.8059V9.14537ZM51.8059 18.2907H54.8544V21.3392H51.8059V18.2907ZM51.8059 15.2423H54.8544V18.2907H51.8059V15.2423ZM51.8059 12.1938H54.8544V15.2423H51.8059V12.1938ZM48.7575 21.3392H51.8059V24.3876H48.7575V21.3392ZM45.709 24.3876H48.7575V27.4361H45.709V24.3876ZM42.6606 27.4361H45.709V30.4845H42.6606V27.4361ZM39.6122 30.4845H42.6606V33.5329H39.6122V30.4845ZM39.6122 33.5329H42.6606V36.5814H39.6122V33.5329ZM21.3215 33.5329H24.3699V36.5814H21.3215V33.5329ZM21.3215 30.4845H24.3699V33.5329H21.3215V30.4845ZM18.273 27.4361H21.3215V30.4845H18.273V27.4361ZM15.2246 24.3876H18.273V27.4361H15.2246V24.3876ZM12.1761 21.3392H15.2246V24.3876H12.1761V21.3392ZM9.12769 18.2907H12.1761V21.3392H9.12769V18.2907ZM9.12769 15.2423H12.1761V18.2907H9.12769V15.2423ZM9.12769 12.1938H12.1761V15.2423H9.12769V12.1938ZM9.12769 9.14537H12.1761V12.1938H9.12769V9.14537ZM15.2246 6.09692H18.273V9.14537H15.2246V6.09692ZM12.1761 6.09692H15.2246V9.14537H12.1761V6.09692Z" fill="#F4CC39"/>
<path d="M15.2247 9.14539H18.2732V12.1938H15.2247V9.14539ZM12.1763 9.14539H15.2247V12.1938H12.1763V9.14539Z" fill="#F4CC39"/>
<path d="M39.6123 57.9205H42.6607V60.969H39.6123V57.9205ZM36.5638 57.9205H39.6123V60.969H36.5638V57.9205ZM27.4185 57.9205H30.4669V60.969H27.4185V57.9205ZM30.4669 57.9205H33.5154V60.969H30.4669V57.9205ZM33.5154 57.9205H36.5638V60.969H33.5154V57.9205ZM21.3216 57.9205H24.37V60.969H21.3216V57.9205ZM24.37 57.9205H27.4185V60.969H24.37V57.9205ZM18.2731 54.8721H21.3216V57.9205H18.2731V54.8721ZM18.2731 51.8236H21.3216V54.8721H18.2731V51.8236ZM21.3216 48.7752H24.37V51.8236H21.3216V48.7752ZM42.6607 54.8721H45.7092V57.9205H42.6607V54.8721ZM42.6607 51.8236H45.7092V54.8721H42.6607V51.8236ZM39.6123 48.7752H42.6607V51.8236H39.6123V48.7752ZM36.5638 45.7267H39.6123V48.7752H36.5638V45.7267ZM24.37 45.7267H27.4185V48.7752H24.37V45.7267ZM33.5154 42.6783H36.5638V45.7267H33.5154V42.6783ZM27.4185 42.6783H30.4669V45.7267H27.4185V42.6783ZM27.4185 39.6298H30.4669V42.6783H27.4185V39.6298ZM33.5154 39.6298H36.5638V42.6783H33.5154V39.6298ZM36.5638 36.5814H39.6123V39.6298H36.5638V36.5814ZM24.37 36.5814H27.4185V39.6298H24.37V36.5814ZM21.3216 36.5814H24.37V39.6298H21.3216V36.5814ZM18.2731 33.533H21.3216V36.5814H18.2731V33.533ZM18.2731 36.5814H21.3216V39.6298H18.2731V36.5814ZM18.2731 30.4845H21.3216V33.533H18.2731V30.4845ZM15.2247 27.4361H18.2731V30.4845H15.2247V27.4361ZM12.1762 24.3876H15.2247V27.4361H12.1762V24.3876ZM9.12779 21.3392H12.1762V24.3876H9.12779V21.3392ZM6.07935 15.2423H9.12779V18.2907H6.07935V15.2423ZM6.07935 12.1938H9.12779V15.2423H6.07935V12.1938ZM6.07935 6.09692H9.12779V9.14537H6.07935V6.09692ZM6.07935 18.2907H9.12779V21.3392H6.07935V18.2907Z" fill="black"/>
<path d="M6.07935 9.14536H9.12779V12.1938H6.07935V9.14536ZM9.12779 6.09691H12.1762V9.14536H9.12779V6.09691ZM12.1762 3.04846H15.2247V6.09691H12.1762V3.04846ZM15.2247 3.04846H18.2731V6.09691H15.2247V3.04846ZM9.12779 3.04846H12.1762V6.09691H9.12779V3.04846ZM39.6123 36.5814H42.6607V39.6298H39.6123V36.5814ZM42.6607 36.5814H45.7092V39.6298H42.6607V36.5814ZM42.6607 33.5329H45.7092V36.5814H42.6607V33.5329ZM42.6607 30.4845H45.7092V33.5329H42.6607V30.4845ZM45.7092 27.436H48.7576V30.4845H45.7092V27.436ZM48.7576 24.3876H51.806V27.436H48.7576V24.3876ZM51.806 21.3391H54.8545V24.3876H51.806V21.3391ZM54.8545 18.2907H57.9032V21.3391H54.8545V18.2907ZM54.8545 15.2422H57.9032V18.2907H54.8545V15.2422ZM54.8545 12.1938H57.9032V15.2422H54.8545V12.1938ZM54.8545 9.14536H57.9032V12.1938H54.8545V9.14536Z" fill="black"/>
<path d="M54.8543 6.09691H57.903V9.14536H54.8543V6.09691ZM51.8059 6.09691H54.8543V9.14536H51.8059V6.09691ZM51.8059 3.04846H54.8543V6.09691H51.8059V3.04846ZM48.7574 3.04846H51.8059V6.09691H48.7574V3.04846ZM45.709 3.04846H48.7574V6.09691H45.709V3.04846ZM42.6605 6.09691H45.709V9.14536H42.6605V6.09691ZM39.6121 6.09691H42.6605V9.14536H39.6121V6.09691ZM33.5152 6.09691H36.5636V9.14536H33.5152V6.09691ZM30.4667 6.09691H33.5152V9.14536H30.4667V6.09691ZM36.5636 6.09691H39.6121V9.14536H36.5636V6.09691ZM21.3214 6.09691H24.3698V9.14536H21.3214V6.09691ZM27.4183 6.09691H30.4667V9.14536H27.4183V6.09691ZM24.3698 6.09691H27.4183V9.14536H24.3698V6.09691ZM18.2729 6.09691H21.3214V9.14536H18.2729V6.09691Z" fill="black"/>
</svg>
