<svg width="44" height="44" viewBox="0 0 44 44" fill="none" xmlns="http://www.w3.org/2000/svg">
<g opacity="0.6">
<circle cx="22" cy="22" r="22" fill="white"/>
<path d="M18.9665 32C27.3259 32 31.8982 25.0743 31.8982 19.0683C31.8982 18.8716 31.8982 18.6758 31.8849 18.4808C32.7744 17.8374 33.5422 17.0408 34.1524 16.1282C33.3229 16.4958 32.443 16.7368 31.542 16.8433C32.4908 16.2753 33.2009 15.3819 33.5401 14.3295C32.648 14.8589 31.6719 15.232 30.6541 15.4327C29.9689 14.704 29.0626 14.2215 28.0755 14.0598C27.0883 13.8981 26.0755 14.0663 25.1936 14.5383C24.3117 15.0103 23.6099 15.7597 23.1969 16.6708C22.7839 17.5817 22.6826 18.6034 22.9087 19.5778C21.1018 19.4872 19.3341 19.0176 17.7203 18.1995C16.1066 17.3815 14.683 16.2332 13.5418 14.8292C12.9606 15.8297 12.7826 17.0142 13.044 18.1414C13.3054 19.2686 13.9867 20.2537 14.9489 20.8963C14.2256 20.8749 13.5181 20.6798 12.8861 20.3275C12.8861 20.3461 12.8861 20.3656 12.8861 20.385C12.8864 21.4344 13.2496 22.4513 13.9142 23.2634C14.5788 24.0754 15.5038 24.6326 16.5324 24.8403C15.8633 25.0228 15.1612 25.0495 14.4802 24.9183C14.7706 25.8214 15.336 26.6111 16.0974 27.177C16.8587 27.743 17.7779 28.0568 18.7264 28.0746C17.117 29.3394 15.1289 30.0261 13.0819 30.024C12.7203 30.0233 12.3591 30.0014 12 29.9584C14.0785 31.2922 16.4969 31.9997 18.9665 31.9965" fill="#0D041F"/>
</g>
</svg>
