<svg width="33" height="32" viewBox="0 0 33 32" fill="none" xmlns="http://www.w3.org/2000/svg">
<g opacity="0.6">
<circle cx="16.5" cy="16" r="16" fill="white"/>
<g clip-path="url(#clip0_699_6308)">
<path d="M14.2938 23.2728C20.3734 23.2728 23.6987 18.2359 23.6987 13.8679C23.6987 13.7249 23.6987 13.5824 23.689 13.4407C24.3359 12.9727 24.8944 12.3934 25.3381 11.7297C24.7349 11.997 24.0949 12.1723 23.4396 12.2498C24.1297 11.8367 24.6461 11.1869 24.8928 10.4215C24.244 10.8065 23.5341 11.0778 22.7939 11.2238C22.2956 10.6939 21.6364 10.343 20.9185 10.2254C20.2006 10.1078 19.464 10.2301 18.8226 10.5734C18.1813 10.9166 17.6709 11.4617 17.3705 12.1242C17.0701 12.7868 16.9964 13.5298 17.1609 14.2385C15.8468 14.1726 14.5612 13.8311 13.3875 13.2361C12.2139 12.6411 11.1785 11.806 10.3486 10.7849C9.92592 11.5126 9.79646 12.374 9.98659 13.1938C10.1767 14.0136 10.6721 14.7301 11.372 15.1974C10.8459 15.1818 10.3314 15.0399 9.87173 14.7837C9.87173 14.7972 9.87173 14.8114 9.87173 14.8256C9.87194 15.5887 10.1361 16.3283 10.6195 16.9189C11.1028 17.5094 11.7755 17.9146 12.5236 18.0658C12.0369 18.1985 11.5264 18.2179 11.0311 18.1225C11.2423 18.7792 11.6535 19.3536 12.2072 19.7652C12.7609 20.1768 13.4294 20.405 14.1192 20.418C12.9487 21.3378 11.5028 21.8372 10.0141 21.8357C9.75116 21.8352 9.48842 21.8193 9.22729 21.788C10.7389 22.7581 12.4978 23.2726 14.2938 23.2702" fill="#0D041F"/>
</g>
</g>
<defs>
<clipPath id="clip0_699_6308">
<rect width="17.4545" height="17.4545" fill="white" transform="translate(8.5 8)"/>
</clipPath>
</defs>
</svg>
