<svg width="2156" height="908" viewBox="0 0 2156 908" fill="none" xmlns="http://www.w3.org/2000/svg">
<path d="M1969.01 710.31L2065.42 738.992L2156 907.002V0H0V797.566L53.0369 769.582L85.5596 675.619L172.62 684.094L234.401 659.27L248.673 519.465L278.194 534.612L322.313 732.73L422.552 794.49L453.052 769.698L465.052 845.498L512.606 872.346L514.887 853.372L515.838 845.498L517.295 833.418L525 794.49L542.484 799.582V799.613L543.618 821.781L554.422 835.126C554.2 840.438 557.07 894.229 557.07 894.229L568.381 896.285L572.753 885.596L581.592 863.871L602.345 812.895L670.113 821.781L670.144 816.879L670.398 773.018L723.34 558.74L667.008 519.465C667.008 516.523 667.039 513.519 667.07 510.485L667.071 510.389C667.134 505.709 667.293 500.933 667.419 496.064C667.451 495.431 667.483 494.799 667.483 494.166C667.673 488.576 667.957 482.86 668.242 477.144L668.243 477.121C668.782 467.824 669.416 458.464 670.113 449.23C670.398 445.656 670.683 442.083 671 438.573C671.982 426.872 673.059 415.456 674.168 404.894C676.291 384.118 678.477 366.409 679.903 355.215C680.98 347.087 681.645 342.376 681.645 342.376L710.191 303.1C634.628 291.557 655.443 286.939 655.443 286.939L651.8 261.704L650.849 255.189L648.632 239.757L646.478 224.863L644.641 212.214L623.034 159.846L613.782 156.778L611.66 146.469L602.345 101.47L600.222 91.2555L598.765 84.3301L598.321 82.0849C662.352 60.5496 710.191 59 710.191 59C752.551 63.7119 759.49 74.813 790.318 92.4903C790.381 92.5219 790.508 92.5536 790.571 92.6168C805.145 100.934 814.301 106.847 814.301 106.847L815.885 113.203L819.022 125.663L825.581 151.847L832.044 177.683H844.4C848.836 191.502 853.842 209.527 858.689 227.995L858.698 228.03C859.456 230.927 860.213 233.825 860.939 236.723V236.755C862.46 242.637 863.949 248.487 865.374 254.211C866.42 258.353 867.434 262.401 868.416 266.354C875.006 293.518 879.885 314.864 879.885 314.864L895.98 321.315H896.012L942.839 340.162H942.871L953.706 344.526L967.584 340.447C992.265 353.286 1038.59 393.826 1038.59 393.826C1043.21 420.01 1041.94 449.926 1041.94 449.926L1028.45 451.443L1029.9 459.001L1031.14 465.61L1033.36 477.216L1035.01 485.881L1036.87 495.747L1041.34 519.338L1048.88 558.962L1023.12 578.6L1081.77 585.81C1087.03 596.498 1092.6 608.136 1098.18 620.026C1099.29 622.398 1100.4 624.769 1101.51 627.173L1102.13 628.524C1105.51 635.828 1108.9 643.178 1112.21 650.416V650.447C1116.17 659.08 1120.01 667.555 1123.62 675.619V675.651C1124.92 678.529 1126.19 681.343 1127.42 684.094C1130.72 691.462 1133.79 698.451 1136.58 704.712C1142.16 717.33 1146.46 727.228 1148.78 732.572C1150.01 735.418 1150.68 736.968 1150.68 736.968L1150.3 732.73L1150.11 730.833V730.801L1147.29 700.317L1143.26 657.057L1139.97 621.354L1138.99 610.602L1134.2 558.93L1165.6 553.934L1165.16 548.273L1164.71 542.423L1163.48 527.276L1160.18 486.324L1159.2 473.833L1163.03 472.568L1156.6 468.71L1151.44 380.956L1227.79 395.566L1282.61 434.968L1300.41 496.886L1309.88 529.869L1316.06 551.246V551.277L1320.69 567.374L1327.31 590.427L1364.35 611.203C1371.89 628.564 1378.29 646.652 1383.48 663.128C1389.19 680.932 1393.4 696.933 1396.16 708.096V708.191C1398.6 718.279 1473.97 816.152 1473.97 816.152L1680.51 827.03L1689.41 801.479L1699.65 772.038H1699.68L1704.24 758.978L1707.28 750.218L1716.09 724.856L1749.1 717.014L1780.5 738.992L1809.36 736.019L1812.34 747.403L1814.08 754.202L1817.09 765.713L1819.5 774.915L1822.64 787.09L1865.85 812.61L1842.03 738.992L1864.08 727.007L1884.36 727.892L1882.2 704.27L1876.88 646.463L1874.92 624.643L1873.65 611.045L1872.03 593.241L1884.39 568.702V490.277L1893.2 485.881L1911.7 583.47L1924.06 599.123L1926.18 611.298L1927.51 619.267L1931.6 642.921L1940.12 692.538L1941.67 701.518L1969.01 710.31Z" fill="#0D041F"/>
</svg>
